<svg id="svg" version="1.1" width="400" height="400" viewBox="0 0 400 400" xmlns="http://www.w3.org/2000/svg" xmlns:xlink="http://www.w3.org/1999/xlink" ><g id="svgg"><path id="path0" d="M192.400 114.201 C 185.966 114.873,184.831 115.063,178.800 116.479 C 127.078 128.620,98.882 188.664,122.216 236.977 C 151.275 297.144,234.867 303.108,271.641 247.638 C 274.857 242.787,274.844 242.849,272.897 241.772 C 272.074 241.317,268.520 239.268,265.000 237.219 C 261.480 235.170,258.060 233.184,257.400 232.806 C 256.740 232.428,253.320 230.448,249.800 228.405 C 246.280 226.361,242.500 224.168,241.400 223.531 C 238.665 221.945,237.619 221.440,237.473 221.635 C 237.406 221.726,236.499 223.013,235.458 224.496 C 212.817 256.751,163.989 245.183,157.387 206.000 C 155.245 193.286,159.961 179.195,169.578 169.578 C 181.938 157.218,199.411 153.652,215.960 160.112 C 223.479 163.047,231.430 169.349,235.412 175.529 C 237.376 178.576,236.224 178.820,245.723 173.343 C 250.166 170.781,254.340 168.376,255.000 167.999 C 255.660 167.621,260.070 165.098,264.800 162.393 C 275.719 156.147,274.878 157.106,272.558 153.547 C 261.833 137.090,245.603 124.377,227.800 118.489 C 219.710 115.813,216.852 115.220,207.200 114.214 C 200.619 113.528,198.854 113.527,192.400 114.201 M276.680 179.853 C 276.526 180.007,276.400 181.524,276.400 183.224 C 276.400 186.831,276.435 186.800,272.367 186.800 L 269.600 186.800 269.600 190.800 L 269.600 194.800 272.367 194.800 C 276.614 194.800,276.400 194.502,276.400 200.427 L 276.400 205.568 273.100 205.684 L 269.800 205.800 269.800 209.600 L 269.800 213.400 273.000 213.600 L 276.200 213.800 276.400 217.200 L 276.600 220.600 280.600 220.600 L 284.600 220.600 284.800 217.200 L 285.000 213.800 290.050 213.688 C 295.898 213.559,295.585 213.310,295.595 218.100 L 295.600 220.800 299.600 220.800 L 303.600 220.800 303.605 218.100 C 303.615 213.558,303.580 213.600,307.261 213.600 L 310.429 213.600 310.314 209.700 L 310.200 205.800 307.142 205.684 C 303.503 205.546,303.614 205.730,303.605 199.780 C 303.599 194.891,303.670 194.800,307.480 194.800 L 310.400 194.800 310.400 190.800 L 310.400 186.800 307.480 186.800 C 303.784 186.800,303.600 186.607,303.600 182.720 L 303.600 179.600 299.600 179.600 L 295.600 179.600 295.600 182.720 C 295.600 186.755,295.544 186.801,290.620 186.795 C 284.630 186.786,284.853 186.927,284.715 183.057 L 284.600 179.800 280.780 179.686 C 278.679 179.624,276.834 179.699,276.680 179.853 M295.120 195.280 C 295.625 195.785,295.800 203.012,295.348 204.700 C 295.114 205.574,294.959 205.600,289.953 205.600 L 284.800 205.600 284.800 200.429 C 284.800 195.841,284.879 195.238,285.500 195.076 C 287.119 194.653,294.653 194.813,295.120 195.280 " stroke="none" fill="#fbfbfb" fill-rule="evenodd"></path><path id="path1" d="M195.000 53.689 C 194.120 53.921,192.230 54.553,190.800 55.094 C 188.362 56.015,187.212 56.589,183.500 58.733 C 182.675 59.210,181.415 59.935,180.700 60.344 C 179.985 60.753,178.447 61.653,177.282 62.344 C 176.118 63.035,175.071 63.600,174.956 63.600 C 174.841 63.600,174.174 64.032,173.473 64.559 C 172.773 65.087,171.030 66.140,169.600 66.899 C 168.170 67.659,166.325 68.667,165.500 69.140 C 164.675 69.613,163.370 70.360,162.600 70.800 C 156.270 74.417,154.217 75.604,153.600 76.004 C 153.270 76.218,152.190 76.846,151.200 77.400 C 147.893 79.251,146.813 79.892,146.304 80.304 C 146.027 80.529,144.630 81.336,143.200 82.097 C 141.770 82.857,139.925 83.867,139.100 84.340 C 138.275 84.813,136.970 85.560,136.200 86.000 C 132.735 87.980,132.076 88.362,130.082 89.544 C 128.918 90.235,127.866 90.800,127.744 90.800 C 127.623 90.800,127.046 91.137,126.462 91.549 C 125.878 91.962,124.500 92.785,123.400 93.380 C 122.300 93.975,120.590 94.978,119.600 95.610 C 118.610 96.243,117.170 97.069,116.400 97.447 C 115.630 97.825,114.730 98.355,114.400 98.626 C 114.070 98.896,112.630 99.739,111.200 100.499 C 109.770 101.258,107.925 102.267,107.100 102.740 C 106.275 103.213,104.970 103.960,104.200 104.400 C 100.735 106.380,100.076 106.762,98.082 107.944 C 96.918 108.635,95.852 109.200,95.714 109.200 C 95.576 109.200,95.179 109.444,94.831 109.742 C 94.484 110.041,92.940 110.955,91.400 111.774 C 89.860 112.593,88.330 113.501,88.000 113.791 C 87.670 114.081,86.140 114.981,84.600 115.791 C 76.399 120.107,71.157 126.679,69.755 134.400 C 69.331 136.737,69.327 263.234,69.751 265.600 C 69.929 266.590,70.532 268.607,71.093 270.081 L 72.112 272.763 73.356 272.124 C 74.040 271.773,76.940 270.130,79.800 268.473 C 82.660 266.815,90.940 262.042,98.200 257.865 C 105.460 253.688,114.280 248.601,117.800 246.561 C 124.158 242.876,124.205 242.857,124.900 243.670 C 125.285 244.120,125.600 244.311,125.600 244.093 C 125.600 243.876,125.332 243.476,125.005 243.204 C 123.334 241.817,118.042 229.190,116.285 222.400 C 114.094 213.929,113.468 208.946,113.468 200.000 C 113.468 191.054,114.094 186.071,116.285 177.600 C 123.897 148.172,148.172 123.897,177.600 116.285 C 186.071 114.094,191.054 113.468,200.000 113.468 C 208.946 113.468,213.929 114.094,222.400 116.285 C 240.609 120.995,258.104 132.848,269.507 148.200 C 275.169 155.822,275.513 156.848,272.882 158.274 C 272.067 158.715,270.770 159.443,270.000 159.891 C 269.230 160.339,263.830 163.448,258.000 166.800 C 252.170 170.152,246.815 173.234,246.100 173.648 C 245.385 174.061,244.215 174.735,243.500 175.144 C 242.785 175.553,241.247 176.453,240.082 177.144 C 237.517 178.665,237.044 178.693,236.119 177.379 C 227.030 164.466,215.930 158.164,201.462 157.701 C 169.733 156.686,148.508 188.357,161.318 217.600 C 162.233 219.690,163.037 221.130,163.104 220.800 C 163.171 220.470,166.955 218.079,171.513 215.486 C 176.071 212.893,181.600 209.728,183.800 208.451 C 195.820 201.478,198.465 199.990,201.200 198.662 C 202.850 197.861,204.920 196.776,205.800 196.251 C 206.680 195.725,210.910 193.272,215.200 190.800 C 219.490 188.327,223.585 185.965,224.300 185.552 C 225.015 185.138,226.230 184.440,227.000 184.000 C 227.770 183.560,229.030 182.840,229.800 182.400 C 230.570 181.960,231.875 181.218,232.700 180.752 C 233.525 180.285,234.555 179.655,234.989 179.352 C 235.423 179.048,236.272 178.800,236.877 178.800 C 237.481 178.800,238.611 178.440,239.388 178.000 C 240.165 177.560,241.430 176.840,242.200 176.400 C 242.970 175.960,244.230 175.240,245.000 174.800 C 245.770 174.360,247.030 173.640,247.800 173.200 C 248.570 172.760,249.875 172.021,250.700 171.557 C 251.525 171.094,252.380 170.573,252.600 170.400 C 252.820 170.227,253.675 169.706,254.500 169.243 C 255.325 168.779,256.630 168.040,257.400 167.600 C 258.170 167.160,259.430 166.440,260.200 166.000 C 260.970 165.560,262.230 164.840,263.000 164.400 C 263.770 163.960,265.030 163.240,265.800 162.800 C 266.570 162.360,267.875 161.612,268.700 161.138 C 269.525 160.665,270.913 159.900,271.784 159.438 C 272.655 158.977,274.093 157.880,274.979 157.000 C 275.865 156.120,276.952 155.203,277.395 154.963 C 277.838 154.722,278.875 154.137,279.700 153.663 C 280.525 153.188,281.830 152.440,282.600 152.000 C 283.370 151.560,284.585 150.862,285.300 150.449 C 286.015 150.036,289.480 148.034,293.000 146.000 C 296.520 143.966,299.985 141.964,300.700 141.551 C 301.415 141.138,302.630 140.440,303.400 140.000 C 304.170 139.560,305.430 138.840,306.200 138.400 C 306.970 137.960,308.230 137.240,309.000 136.800 C 309.770 136.360,310.985 135.662,311.700 135.249 C 321.547 129.558,325.734 127.200,325.991 127.200 C 329.167 127.200,322.850 119.884,316.700 116.440 C 315.875 115.978,314.525 115.213,313.700 114.740 C 312.875 114.267,311.030 113.259,309.600 112.499 C 308.170 111.740,306.427 110.687,305.727 110.159 C 305.026 109.632,304.348 109.200,304.219 109.200 C 304.091 109.200,302.800 108.480,301.352 107.600 C 299.903 106.720,298.655 106.000,298.577 106.000 C 298.499 106.000,297.482 105.435,296.318 104.744 C 295.153 104.053,293.615 103.153,292.900 102.744 C 292.185 102.335,290.925 101.613,290.100 101.141 C 289.275 100.669,287.880 99.871,287.000 99.369 C 286.120 98.866,284.670 98.094,283.778 97.653 C 282.887 97.212,281.203 96.210,280.038 95.426 C 278.873 94.642,277.844 94.000,277.753 94.000 C 277.661 94.000,276.400 93.280,274.952 92.400 C 273.503 91.520,272.255 90.800,272.177 90.800 C 272.099 90.800,271.082 90.235,269.918 89.544 C 268.753 88.853,267.215 87.953,266.500 87.544 C 265.785 87.135,264.525 86.413,263.700 85.941 C 262.875 85.469,261.480 84.671,260.600 84.169 C 259.720 83.666,258.270 82.894,257.378 82.453 C 256.487 82.012,254.803 81.010,253.638 80.226 C 252.473 79.442,251.444 78.800,251.353 78.800 C 251.261 78.800,250.000 78.080,248.552 77.200 C 247.103 76.320,245.855 75.600,245.777 75.600 C 245.699 75.600,244.682 75.035,243.518 74.344 C 240.205 72.379,238.796 71.584,236.000 70.099 C 234.570 69.339,233.130 68.496,232.800 68.226 C 232.470 67.955,231.570 67.425,230.800 67.047 C 230.030 66.669,228.590 65.832,227.600 65.186 C 226.610 64.541,225.530 63.886,225.200 63.731 C 224.870 63.576,223.700 62.917,222.600 62.268 C 219.367 60.360,217.921 59.541,215.794 58.409 C 214.691 57.822,213.274 57.005,212.645 56.593 C 208.747 54.039,199.460 52.510,195.000 53.689 M275.879 179.055 C 275.725 179.208,275.600 180.826,275.600 182.650 L 275.600 185.968 272.300 186.084 L 269.000 186.200 269.000 190.800 L 269.000 195.400 272.300 195.516 L 275.600 195.632 275.600 200.200 L 275.600 204.768 272.300 204.884 L 269.000 205.000 268.886 209.342 C 268.745 214.730,268.793 214.800,272.633 214.800 L 275.568 214.800 275.684 218.100 L 275.800 221.400 280.600 221.400 L 285.400 221.400 285.516 218.100 L 285.632 214.800 290.200 214.800 L 294.768 214.800 294.884 218.100 L 295.000 221.400 299.600 221.400 L 304.200 221.400 304.316 218.100 L 304.432 214.800 307.388 214.800 C 311.423 214.800,311.600 214.584,311.600 209.651 C 311.600 204.872,311.540 204.800,307.520 204.800 L 304.400 204.800 304.400 200.216 L 304.400 195.631 307.900 195.516 L 311.400 195.400 311.400 190.800 L 311.400 186.200 307.915 186.085 L 304.431 185.969 304.315 182.485 L 304.200 179.000 299.600 179.000 L 295.000 179.000 294.884 182.500 L 294.769 186.000 290.200 186.000 L 285.631 186.000 285.516 182.500 L 285.400 179.000 280.779 178.888 C 278.237 178.826,276.032 178.901,275.879 179.055 M285.200 182.800 L 285.400 186.200 290.200 186.200 L 295.000 186.200 295.116 182.700 L 295.231 179.200 299.600 179.200 L 303.969 179.200 304.084 182.700 L 304.200 186.200 307.600 186.400 L 311.000 186.600 311.000 190.800 L 311.000 195.000 307.600 195.200 L 304.200 195.400 304.200 200.200 L 304.200 205.000 307.182 205.119 C 311.110 205.276,311.201 205.377,311.194 209.549 C 311.186 214.063,311.112 214.156,307.316 214.400 L 304.200 214.600 304.000 217.800 L 303.800 221.000 299.600 221.000 L 295.400 221.000 295.200 217.800 L 295.000 214.600 290.116 214.488 L 285.233 214.376 285.116 217.688 L 285.000 221.000 280.600 221.000 L 276.200 221.000 276.084 217.700 L 275.968 214.400 273.033 214.400 C 269.227 214.400,269.141 214.283,269.285 209.341 L 269.400 205.400 272.600 205.200 L 275.800 205.000 275.800 200.200 L 275.800 195.400 272.600 195.200 L 269.400 195.000 269.400 190.800 L 269.400 186.600 272.600 186.400 L 275.800 186.200 275.908 183.200 C 276.064 178.899,275.749 179.156,280.693 179.286 L 285.000 179.400 285.200 182.800 M285.378 195.713 C 285.264 196.009,285.223 198.220,285.286 200.626 L 285.400 205.000 290.200 205.000 L 295.000 205.000 295.000 200.200 L 295.000 195.400 290.292 195.287 C 286.636 195.200,285.539 195.295,285.378 195.713 M294.800 200.213 L 294.800 204.826 290.300 204.713 L 285.800 204.600 285.687 200.100 L 285.574 195.600 290.187 195.600 L 294.800 195.600 294.800 200.213 M236.968 220.852 C 236.800 221.123,236.905 221.232,237.229 221.124 C 237.672 220.976,242.551 223.619,251.400 228.800 C 252.060 229.186,255.480 231.166,259.000 233.200 C 262.520 235.234,265.940 237.212,266.600 237.597 C 267.260 237.982,269.420 239.237,271.400 240.386 C 275.667 242.861,275.467 242.693,274.873 243.287 C 274.613 243.547,274.400 243.944,274.400 244.169 C 274.400 244.394,274.697 244.154,275.060 243.636 C 275.780 242.608,275.299 241.991,272.800 240.732 C 272.250 240.455,271.350 239.928,270.800 239.561 C 270.250 239.194,269.125 238.513,268.300 238.047 C 267.475 237.581,266.170 236.840,265.400 236.400 C 264.630 235.960,263.370 235.240,262.600 234.800 C 261.830 234.360,260.570 233.640,259.800 233.200 C 259.030 232.760,257.725 232.021,256.900 231.557 C 256.075 231.094,255.220 230.573,255.000 230.400 C 254.780 230.227,253.925 229.706,253.100 229.243 C 252.275 228.779,250.970 228.040,250.200 227.600 C 249.430 227.160,248.170 226.440,247.400 226.000 C 246.630 225.560,245.370 224.840,244.600 224.400 C 243.830 223.960,242.525 223.219,241.700 222.753 C 240.875 222.287,239.722 221.567,239.138 221.153 C 237.919 220.289,237.364 220.211,236.968 220.852 M166.299 226.215 C 167.376 227.784,172.216 232.624,173.785 233.701 C 174.453 234.159,173.883 233.506,172.518 232.249 C 171.152 230.993,169.007 228.848,167.751 227.482 C 166.494 226.117,165.841 225.547,166.299 226.215 M229.761 229.834 C 227.320 232.327,225.796 234.030,226.376 233.617 C 228.340 232.219,235.345 224.848,234.327 225.250 C 234.257 225.278,232.202 227.341,229.761 229.834 M178.800 236.998 C 178.800 237.267,182.849 239.284,183.029 239.105 C 183.111 239.023,182.193 238.473,180.989 237.882 C 179.785 237.292,178.800 236.894,178.800 236.998 M218.800 238.000 C 217.590 238.639,216.741 239.171,216.913 239.181 C 217.338 239.207,221.200 237.236,221.200 236.993 C 221.200 236.726,221.255 236.703,218.800 238.000 M188.600 241.200 C 189.040 241.389,189.760 241.538,190.200 241.532 C 190.843 241.523,190.804 241.457,190.000 241.200 C 188.632 240.762,187.581 240.762,188.600 241.200 M210.000 241.200 C 209.196 241.457,209.157 241.523,209.800 241.532 C 210.240 241.538,210.960 241.389,211.400 241.200 C 212.419 240.762,211.368 240.762,210.000 241.200 M193.505 242.283 C 194.002 242.379,194.722 242.375,195.105 242.275 C 195.487 242.175,195.080 242.096,194.200 242.101 C 193.320 242.105,193.007 242.187,193.505 242.283 M205.105 242.283 C 205.602 242.379,206.322 242.375,206.705 242.275 C 207.087 242.175,206.680 242.096,205.800 242.101 C 204.920 242.105,204.607 242.187,205.105 242.283 M198.300 242.693 C 199.235 242.777,200.765 242.777,201.700 242.693 C 202.635 242.609,201.870 242.540,200.000 242.540 C 198.130 242.540,197.365 242.609,198.300 242.693 M129.829 251.000 C 134.287 257.453,142.454 265.624,149.000 270.179 C 151.088 271.631,149.713 270.424,145.751 267.326 C 142.121 264.487,135.711 258.124,132.911 254.581 C 131.860 253.251,130.488 251.541,129.862 250.781 L 128.724 249.400 129.829 251.000 M268.656 252.577 C 267.424 254.215,265.295 256.780,263.926 258.277 C 262.478 259.861,262.152 260.330,263.147 259.400 C 265.381 257.311,271.635 249.600,271.096 249.600 C 270.986 249.600,269.889 250.940,268.656 252.577 M258.981 263.226 C 258.112 264.120,255.979 265.965,254.243 267.326 C 250.271 270.438,248.924 271.623,251.000 270.179 C 254.653 267.637,261.523 261.600,260.762 261.600 C 260.652 261.600,259.851 262.332,258.981 263.226 M173.800 282.800 C 174.240 282.989,174.870 283.144,175.200 283.144 C 175.578 283.144,175.504 283.017,175.000 282.800 C 174.560 282.611,173.930 282.456,173.600 282.456 C 173.222 282.456,173.296 282.583,173.800 282.800 M225.000 282.800 C 224.496 283.017,224.422 283.144,224.800 283.144 C 225.130 283.144,225.760 282.989,226.200 282.800 C 226.704 282.583,226.778 282.456,226.400 282.456 C 226.070 282.456,225.440 282.611,225.000 282.800 M176.600 283.600 C 177.040 283.789,177.670 283.944,178.000 283.944 C 178.378 283.944,178.304 283.817,177.800 283.600 C 177.360 283.411,176.730 283.256,176.400 283.256 C 176.022 283.256,176.096 283.383,176.600 283.600 M222.200 283.600 C 221.696 283.817,221.622 283.944,222.000 283.944 C 222.330 283.944,222.960 283.789,223.400 283.600 C 223.904 283.383,223.978 283.256,223.600 283.256 C 223.270 283.256,222.640 283.411,222.200 283.600 M179.600 284.400 C 180.968 284.838,182.019 284.838,181.000 284.400 C 180.560 284.211,179.840 284.062,179.400 284.068 C 178.757 284.077,178.796 284.143,179.600 284.400 M219.000 284.400 C 217.981 284.838,219.032 284.838,220.400 284.400 C 221.204 284.143,221.243 284.077,220.600 284.068 C 220.160 284.062,219.440 284.211,219.000 284.400 M183.400 285.200 C 185.092 285.631,186.544 285.631,185.200 285.200 C 184.650 285.024,183.750 284.883,183.200 284.887 C 182.302 284.894,182.322 284.926,183.400 285.200 M214.800 285.200 C 213.456 285.631,214.908 285.631,216.600 285.200 C 217.678 284.926,217.698 284.894,216.800 284.887 C 216.250 284.883,215.350 285.024,214.800 285.200 M187.505 285.883 C 188.002 285.979,188.722 285.975,189.105 285.875 C 189.487 285.775,189.080 285.696,188.200 285.701 C 187.320 285.705,187.007 285.787,187.505 285.883 M211.105 285.883 C 211.602 285.979,212.322 285.975,212.705 285.875 C 213.087 285.775,212.680 285.696,211.800 285.701 C 210.920 285.705,210.607 285.787,211.105 285.883 M190.705 286.283 C 191.202 286.379,191.922 286.375,192.305 286.275 C 192.687 286.175,192.280 286.096,191.400 286.101 C 190.520 286.105,190.207 286.187,190.705 286.283 M207.905 286.283 C 208.402 286.379,209.122 286.375,209.505 286.275 C 209.887 286.175,209.480 286.096,208.600 286.101 C 207.720 286.105,207.407 286.187,207.905 286.283 M196.700 286.698 C 198.515 286.772,201.485 286.772,203.300 286.698 C 205.115 286.623,203.630 286.563,200.000 286.563 C 196.370 286.563,194.885 286.623,196.700 286.698 " stroke="none" fill="#9c4b94" fill-rule="evenodd"></path><path id="path2" d="M76.061 121.055 C 75.325 121.825,74.796 122.530,74.887 122.620 C 74.978 122.711,75.752 122.069,76.607 121.193 C 77.463 120.317,77.991 119.612,77.781 119.627 C 77.572 119.643,76.797 120.285,76.061 121.055 M323.393 121.193 C 324.248 122.069,325.023 122.711,325.114 122.619 C 325.319 122.414,322.540 119.600,322.132 119.600 C 321.970 119.600,322.537 120.317,323.393 121.193 M193.600 203.465 C 190.410 205.335,186.810 207.414,185.600 208.085 C 184.390 208.757,183.220 209.438,183.000 209.599 C 182.780 209.761,181.790 210.345,180.800 210.898 C 173.927 214.737,164.512 220.198,164.074 220.600 C 162.505 222.035,171.589 232.278,177.400 235.626 C 180.569 237.451,185.014 239.580,185.676 239.590 C 186.048 239.595,186.464 239.780,186.600 240.000 C 186.736 240.220,187.366 240.400,188.000 240.400 C 188.634 240.400,189.249 240.556,189.367 240.747 C 190.215 242.119,209.785 242.119,210.633 240.747 C 210.751 240.556,211.366 240.400,212.000 240.400 C 212.634 240.400,213.264 240.220,213.400 240.000 C 213.536 239.780,213.952 239.595,214.324 239.590 C 214.986 239.580,219.431 237.451,222.600 235.626 C 227.710 232.682,237.722 221.776,236.352 220.646 C 236.130 220.462,230.694 217.300,227.053 215.237 C 226.313 214.817,224.494 213.737,223.012 212.837 C 221.531 211.937,220.255 211.200,220.177 211.200 C 220.099 211.200,219.082 210.635,217.918 209.944 C 215.829 208.706,214.496 207.935,211.853 206.437 C 211.113 206.017,209.294 204.937,207.812 204.037 C 206.331 203.137,205.055 202.400,204.977 202.400 C 204.899 202.400,203.919 201.860,202.800 201.200 C 200.095 199.605,200.248 199.567,193.600 203.465 M275.278 243.682 C 275.015 243.945,274.800 244.312,274.800 244.498 C 274.800 244.878,271.360 250.050,269.279 252.800 C 263.067 261.007,252.953 270.027,244.569 274.836 C 241.443 276.630,234.163 280.212,232.600 280.726 C 230.894 281.288,229.434 281.873,228.305 282.447 C 227.923 282.641,227.259 282.800,226.829 282.800 C 226.399 282.800,225.936 282.980,225.800 283.200 C 225.664 283.420,225.034 283.600,224.400 283.600 C 223.766 283.600,223.136 283.780,223.000 284.000 C 222.864 284.220,222.144 284.400,221.400 284.400 C 220.656 284.400,219.936 284.580,219.800 284.800 C 219.664 285.020,218.789 285.200,217.856 285.200 C 216.923 285.200,215.989 285.360,215.780 285.557 C 214.343 286.905,185.657 286.905,184.220 285.557 C 184.011 285.360,183.077 285.200,182.144 285.200 C 181.211 285.200,180.336 285.020,180.200 284.800 C 180.064 284.580,179.344 284.400,178.600 284.400 C 177.856 284.400,177.136 284.220,177.000 284.000 C 176.864 283.780,176.234 283.600,175.600 283.600 C 174.966 283.600,174.336 283.420,174.200 283.200 C 174.064 282.980,173.601 282.800,173.171 282.800 C 172.741 282.800,172.077 282.641,171.695 282.447 C 170.566 281.873,169.106 281.288,167.400 280.726 C 165.837 280.212,158.557 276.630,155.431 274.836 C 147.047 270.027,136.933 261.007,130.721 252.800 C 128.510 249.879,125.200 244.868,125.200 244.442 C 125.200 243.569,124.295 243.591,122.691 244.504 C 121.761 245.033,120.370 245.833,119.600 246.280 C 118.830 246.727,112.800 250.200,106.200 253.997 C 99.600 257.794,93.660 261.213,93.000 261.594 C 92.340 261.976,87.930 264.504,83.200 267.211 C 71.107 274.134,71.480 273.491,76.594 278.606 C 79.680 281.692,80.864 282.675,80.200 281.600 C 80.064 281.380,80.143 281.200,80.376 281.200 C 80.609 281.200,80.800 281.380,80.800 281.600 C 80.800 281.820,81.070 282.000,81.400 282.000 C 81.733 282.000,82.000 282.356,82.000 282.800 C 82.000 283.333,82.267 283.600,82.800 283.600 C 83.240 283.600,83.600 283.780,83.600 284.000 C 83.600 284.220,84.140 284.400,84.800 284.400 C 85.460 284.400,86.000 284.580,86.000 284.800 C 86.000 285.020,86.405 285.214,86.900 285.232 C 87.395 285.249,87.577 285.353,87.304 285.464 C 86.437 285.814,87.816 286.800,89.171 286.800 C 89.847 286.800,90.400 286.980,90.400 287.200 C 90.400 287.420,90.670 287.600,91.000 287.600 C 91.333 287.600,91.600 287.956,91.600 288.400 C 91.600 288.933,91.867 289.200,92.400 289.200 C 92.840 289.200,93.200 289.380,93.200 289.600 C 93.200 289.820,93.391 290.000,93.624 290.000 C 93.857 290.000,93.948 289.840,93.827 289.643 C 93.706 289.447,94.411 289.672,95.394 290.143 C 96.491 290.669,97.185 291.270,97.190 291.700 C 97.196 292.130,97.508 292.400,98.000 292.400 C 98.440 292.400,98.800 292.580,98.800 292.800 C 98.800 293.020,98.991 293.200,99.224 293.200 C 99.457 293.200,99.548 293.040,99.427 292.843 C 99.306 292.647,100.011 292.872,100.994 293.343 C 102.091 293.869,102.785 294.470,102.790 294.900 C 102.796 295.330,103.108 295.600,103.600 295.600 C 104.040 295.600,104.400 295.780,104.400 296.000 C 104.400 296.220,104.591 296.400,104.824 296.400 C 105.057 296.400,105.146 296.237,105.023 296.037 C 104.900 295.838,105.248 295.883,105.796 296.137 C 106.345 296.392,106.795 296.735,106.797 296.900 C 106.799 297.065,107.160 297.200,107.600 297.200 C 108.133 297.200,108.400 297.467,108.400 298.000 C 108.400 298.533,108.667 298.800,109.200 298.800 C 109.640 298.800,110.000 298.980,110.000 299.200 C 110.000 299.420,110.540 299.600,111.200 299.600 C 111.860 299.600,112.400 299.780,112.400 300.000 C 112.400 300.220,112.805 300.414,113.300 300.432 C 113.795 300.449,113.977 300.553,113.704 300.664 C 113.051 300.927,114.068 302.000,114.971 302.000 C 115.317 302.000,115.600 302.180,115.600 302.400 C 115.600 302.620,116.140 302.800,116.800 302.800 C 117.733 302.800,118.000 302.978,118.000 303.600 C 118.000 304.133,118.267 304.400,118.800 304.400 C 119.240 304.400,119.600 304.580,119.600 304.800 C 119.600 305.020,119.791 305.200,120.024 305.200 C 120.257 305.200,120.336 305.020,120.200 304.800 C 120.064 304.580,120.143 304.400,120.376 304.400 C 120.609 304.400,120.800 304.580,120.800 304.800 C 120.800 305.020,121.160 305.200,121.600 305.200 C 122.040 305.200,122.400 305.380,122.400 305.600 C 122.400 305.820,122.670 306.000,123.000 306.000 C 123.333 306.000,123.600 306.356,123.600 306.800 C 123.600 307.333,123.867 307.600,124.400 307.600 C 124.840 307.600,125.200 307.780,125.200 308.000 C 125.200 308.220,125.391 308.400,125.624 308.400 C 125.857 308.400,125.948 308.240,125.827 308.043 C 125.706 307.847,126.411 308.072,127.394 308.543 C 128.491 309.069,129.185 309.670,129.190 310.100 C 129.196 310.530,129.508 310.800,130.000 310.800 C 130.440 310.800,130.800 310.980,130.800 311.200 C 130.800 311.420,130.991 311.600,131.224 311.600 C 131.457 311.600,131.548 311.440,131.427 311.243 C 131.306 311.047,132.011 311.272,132.994 311.743 C 134.091 312.269,134.785 312.870,134.790 313.300 C 134.796 313.730,135.108 314.000,135.600 314.000 C 136.040 314.000,136.400 314.180,136.400 314.400 C 136.400 314.620,136.591 314.800,136.824 314.800 C 137.057 314.800,137.146 314.637,137.023 314.437 C 136.900 314.238,137.248 314.283,137.796 314.537 C 138.345 314.792,138.795 315.135,138.797 315.300 C 138.799 315.465,139.160 315.600,139.600 315.600 C 140.133 315.600,140.400 315.867,140.400 316.400 C 140.400 316.933,140.667 317.200,141.200 317.200 C 141.640 317.200,142.000 317.380,142.000 317.600 C 142.000 317.820,142.540 318.000,143.200 318.000 C 143.860 318.000,144.400 318.180,144.400 318.400 C 144.400 318.620,144.805 318.814,145.300 318.832 C 145.795 318.849,145.977 318.953,145.704 319.064 C 145.051 319.327,146.068 320.400,146.971 320.400 C 147.317 320.400,147.600 320.580,147.600 320.800 C 147.600 321.020,148.140 321.200,148.800 321.200 C 149.733 321.200,150.000 321.378,150.000 322.000 C 150.000 322.533,150.267 322.800,150.800 322.800 C 151.240 322.800,151.600 322.980,151.600 323.200 C 151.600 323.420,151.791 323.600,152.024 323.600 C 152.257 323.600,152.336 323.420,152.200 323.200 C 152.064 322.980,152.143 322.800,152.376 322.800 C 152.609 322.800,152.800 322.980,152.800 323.200 C 152.800 323.420,153.160 323.600,153.600 323.600 C 154.040 323.600,154.400 323.780,154.400 324.000 C 154.400 324.220,154.670 324.400,155.000 324.400 C 155.333 324.400,155.600 324.756,155.600 325.200 C 155.600 325.733,155.867 326.000,156.400 326.000 C 156.840 326.000,157.200 326.180,157.200 326.400 C 157.200 326.620,157.391 326.800,157.624 326.800 C 157.857 326.800,157.948 326.640,157.827 326.443 C 157.706 326.247,158.411 326.472,159.394 326.943 C 160.491 327.469,161.185 328.070,161.190 328.500 C 161.196 328.930,161.508 329.200,162.000 329.200 C 162.440 329.200,162.800 329.380,162.800 329.600 C 162.800 329.820,162.991 330.000,163.224 330.000 C 163.457 330.000,163.546 329.837,163.423 329.637 C 163.300 329.438,163.648 329.483,164.196 329.737 C 164.745 329.992,165.195 330.335,165.197 330.500 C 165.199 330.665,165.560 330.800,166.000 330.800 C 166.533 330.800,166.800 331.067,166.800 331.600 C 166.800 332.133,167.067 332.400,167.600 332.400 C 168.040 332.400,168.400 332.580,168.400 332.800 C 168.400 333.020,168.940 333.200,169.600 333.200 C 170.260 333.200,170.800 333.380,170.800 333.600 C 170.800 333.820,171.205 334.014,171.700 334.032 C 172.195 334.049,172.377 334.153,172.104 334.264 C 171.723 334.418,171.739 334.596,172.175 335.032 C 172.827 335.684,173.367 335.794,173.000 335.200 C 172.864 334.980,172.943 334.800,173.176 334.800 C 173.409 334.800,173.600 334.980,173.600 335.200 C 173.600 335.420,173.960 335.600,174.400 335.600 C 174.840 335.600,175.200 335.780,175.200 336.000 C 175.200 336.220,175.470 336.400,175.800 336.400 C 176.133 336.400,176.400 336.756,176.400 337.200 C 176.400 337.733,176.667 338.000,177.200 338.000 C 177.640 338.000,178.000 338.180,178.000 338.400 C 178.000 338.620,178.191 338.800,178.424 338.800 C 178.657 338.800,178.746 338.637,178.623 338.437 C 178.500 338.238,178.848 338.283,179.396 338.537 C 179.945 338.792,180.395 339.135,180.397 339.300 C 180.399 339.465,180.760 339.600,181.200 339.600 C 181.733 339.600,182.000 339.867,182.000 340.400 C 182.000 340.933,182.267 341.200,182.800 341.200 C 183.240 341.200,183.600 341.380,183.600 341.600 C 183.600 341.820,184.140 342.000,184.800 342.000 C 185.733 342.000,186.000 342.178,186.000 342.800 C 186.000 343.333,186.267 343.600,186.800 343.600 C 187.240 343.600,187.600 343.780,187.600 344.000 C 187.600 344.220,188.440 344.400,189.467 344.400 C 190.493 344.400,191.222 344.511,191.086 344.648 C 190.754 344.979,191.806 346.002,192.471 345.994 C 192.862 345.989,192.843 345.886,192.400 345.600 C 191.917 345.288,191.981 345.211,192.724 345.206 C 193.239 345.203,193.538 345.377,193.400 345.600 C 193.264 345.820,193.523 346.000,193.976 346.000 C 194.429 346.000,194.800 346.180,194.800 346.400 C 194.800 346.620,194.991 346.800,195.224 346.800 C 195.457 346.800,195.536 346.620,195.400 346.400 C 195.240 346.142,196.870 346.000,200.000 346.000 C 203.130 346.000,204.760 346.142,204.600 346.400 C 204.464 346.620,204.543 346.800,204.776 346.800 C 205.009 346.800,205.200 346.620,205.200 346.400 C 205.200 346.180,205.571 346.000,206.024 346.000 C 206.477 346.000,206.736 345.820,206.600 345.600 C 206.462 345.377,206.761 345.203,207.276 345.206 C 208.019 345.211,208.083 345.288,207.600 345.600 C 207.157 345.886,207.138 345.989,207.529 345.994 C 208.194 346.002,209.246 344.979,208.914 344.648 C 208.778 344.511,209.147 344.400,209.733 344.400 C 210.320 344.400,210.800 344.220,210.800 344.000 C 210.800 343.780,211.115 343.603,211.500 343.606 C 212.098 343.611,212.113 343.669,211.600 344.000 C 211.087 344.331,211.102 344.389,211.700 344.394 C 212.135 344.398,212.400 344.098,212.400 343.600 C 212.400 343.067,212.667 342.800,213.200 342.800 C 213.640 342.800,214.001 342.665,214.003 342.500 C 214.005 342.335,214.455 341.992,215.004 341.737 C 215.552 341.483,215.900 341.438,215.777 341.637 C 215.654 341.837,215.743 342.000,215.976 342.000 C 216.209 342.000,216.400 341.820,216.400 341.600 C 216.400 341.380,216.760 341.200,217.200 341.200 C 217.692 341.200,218.004 340.930,218.010 340.500 C 218.015 340.070,218.709 339.469,219.806 338.943 C 220.789 338.472,221.494 338.247,221.373 338.443 C 221.252 338.640,221.343 338.800,221.576 338.800 C 221.809 338.800,222.000 338.620,222.000 338.400 C 222.000 338.180,222.360 338.000,222.800 338.000 C 223.333 338.000,223.600 337.733,223.600 337.200 C 223.600 336.756,223.867 336.400,224.200 336.400 C 224.530 336.400,224.800 336.220,224.800 336.000 C 224.800 335.780,225.160 335.600,225.600 335.600 C 226.040 335.600,226.400 335.420,226.400 335.200 C 226.400 334.980,226.591 334.800,226.824 334.800 C 227.057 334.800,227.136 334.980,227.000 335.200 C 226.864 335.420,226.943 335.600,227.176 335.600 C 227.409 335.600,227.600 335.420,227.600 335.200 C 227.600 334.980,227.960 334.800,228.400 334.800 C 228.933 334.800,229.200 334.533,229.200 334.000 C 229.200 333.378,229.467 333.200,230.400 333.200 C 231.060 333.200,231.600 333.020,231.600 332.800 C 231.600 332.580,231.883 332.400,232.229 332.400 C 233.132 332.400,234.149 331.327,233.496 331.064 C 233.223 330.953,233.405 330.849,233.900 330.832 C 234.395 330.814,234.801 330.665,234.803 330.500 C 234.805 330.335,235.255 329.992,235.804 329.737 C 236.352 329.483,236.700 329.438,236.577 329.637 C 236.454 329.837,236.543 330.000,236.776 330.000 C 237.009 330.000,237.200 329.820,237.200 329.600 C 237.200 329.380,237.560 329.200,238.000 329.200 C 238.533 329.200,238.800 328.933,238.800 328.400 C 238.800 327.867,239.067 327.600,239.600 327.600 C 240.040 327.600,240.401 327.465,240.403 327.300 C 240.405 327.135,240.855 326.792,241.404 326.537 C 241.952 326.283,242.300 326.238,242.177 326.437 C 242.054 326.637,242.143 326.800,242.376 326.800 C 242.609 326.800,242.800 326.620,242.800 326.400 C 242.800 326.180,243.160 326.000,243.600 326.000 C 244.092 326.000,244.404 325.730,244.410 325.300 C 244.415 324.870,245.109 324.269,246.206 323.743 C 247.189 323.272,247.894 323.047,247.773 323.243 C 247.652 323.440,247.743 323.600,247.976 323.600 C 248.209 323.600,248.400 323.420,248.400 323.200 C 248.400 322.980,248.760 322.800,249.200 322.800 C 249.733 322.800,250.000 322.533,250.000 322.000 C 250.000 321.556,250.267 321.200,250.600 321.200 C 250.930 321.200,251.200 321.020,251.200 320.800 C 251.200 320.580,251.560 320.400,252.000 320.400 C 252.440 320.400,252.800 320.220,252.800 320.000 C 252.800 319.780,252.991 319.600,253.224 319.600 C 253.457 319.600,253.536 319.780,253.400 320.000 C 253.033 320.594,253.573 320.484,254.225 319.832 C 254.661 319.396,254.677 319.218,254.296 319.064 C 254.023 318.953,254.205 318.849,254.700 318.832 C 255.195 318.814,255.600 318.620,255.600 318.400 C 255.600 318.180,256.140 318.000,256.800 318.000 C 257.460 318.000,258.000 317.820,258.000 317.600 C 258.000 317.380,258.283 317.200,258.629 317.200 C 259.532 317.200,260.549 316.127,259.896 315.864 C 259.623 315.753,259.805 315.649,260.300 315.632 C 260.795 315.614,261.201 315.465,261.203 315.300 C 261.205 315.135,261.655 314.792,262.204 314.537 C 262.752 314.283,263.100 314.238,262.977 314.437 C 262.854 314.637,262.943 314.800,263.176 314.800 C 263.409 314.800,263.600 314.620,263.600 314.400 C 263.600 314.180,263.960 314.000,264.400 314.000 C 264.933 314.000,265.200 313.733,265.200 313.200 C 265.200 312.667,265.467 312.400,266.000 312.400 C 266.440 312.400,266.801 312.265,266.803 312.100 C 266.805 311.935,267.255 311.592,267.804 311.337 C 268.352 311.083,268.700 311.038,268.577 311.237 C 268.454 311.437,268.543 311.600,268.776 311.600 C 269.009 311.600,269.200 311.420,269.200 311.200 C 269.200 310.980,269.560 310.800,270.000 310.800 C 270.492 310.800,270.804 310.530,270.810 310.100 C 270.815 309.670,271.509 309.069,272.606 308.543 C 273.589 308.072,274.294 307.847,274.173 308.043 C 274.052 308.240,274.143 308.400,274.376 308.400 C 274.609 308.400,274.800 308.220,274.800 308.000 C 274.800 307.780,275.160 307.600,275.600 307.600 C 276.133 307.600,276.400 307.333,276.400 306.800 C 276.400 306.356,276.667 306.000,277.000 306.000 C 277.330 306.000,277.600 305.820,277.600 305.600 C 277.600 305.380,277.960 305.200,278.400 305.200 C 278.840 305.200,279.200 305.020,279.200 304.800 C 279.200 304.580,279.391 304.400,279.624 304.400 C 279.857 304.400,279.936 304.580,279.800 304.800 C 279.433 305.394,279.973 305.284,280.625 304.632 C 281.061 304.196,281.077 304.018,280.696 303.864 C 280.423 303.753,280.605 303.649,281.100 303.632 C 281.595 303.614,282.000 303.420,282.000 303.200 C 282.000 302.980,282.540 302.800,283.200 302.800 C 283.860 302.800,284.400 302.620,284.400 302.400 C 284.400 302.180,284.683 302.000,285.029 302.000 C 285.932 302.000,286.949 300.927,286.296 300.664 C 286.023 300.553,286.205 300.449,286.700 300.432 C 287.195 300.414,287.601 300.265,287.603 300.100 C 287.605 299.935,288.055 299.592,288.604 299.337 C 289.152 299.083,289.500 299.038,289.377 299.237 C 289.254 299.437,289.343 299.600,289.576 299.600 C 289.809 299.600,290.000 299.420,290.000 299.200 C 290.000 298.980,290.360 298.800,290.800 298.800 C 291.333 298.800,291.600 298.533,291.600 298.000 C 291.600 297.467,291.867 297.200,292.400 297.200 C 292.840 297.200,293.201 297.065,293.203 296.900 C 293.205 296.735,293.655 296.392,294.204 296.137 C 294.752 295.883,295.100 295.838,294.977 296.037 C 294.854 296.237,294.943 296.400,295.176 296.400 C 295.409 296.400,295.600 296.220,295.600 296.000 C 295.600 295.780,295.960 295.600,296.400 295.600 C 296.892 295.600,297.204 295.330,297.210 294.900 C 297.215 294.470,297.909 293.869,299.006 293.343 C 299.989 292.872,300.694 292.647,300.573 292.843 C 300.452 293.040,300.543 293.200,300.776 293.200 C 301.009 293.200,301.200 293.020,301.200 292.800 C 301.200 292.580,301.560 292.400,302.000 292.400 C 302.533 292.400,302.800 292.133,302.800 291.600 C 302.800 291.156,303.067 290.800,303.400 290.800 C 303.730 290.800,304.000 290.620,304.000 290.400 C 304.000 290.180,304.360 290.000,304.800 290.000 C 305.240 290.000,305.600 289.820,305.600 289.600 C 305.600 289.380,305.791 289.200,306.024 289.200 C 306.257 289.200,306.336 289.380,306.200 289.600 C 305.833 290.194,306.373 290.084,307.025 289.432 C 307.461 288.996,307.477 288.818,307.096 288.664 C 306.823 288.553,307.005 288.449,307.500 288.432 C 307.995 288.414,308.400 288.220,308.400 288.000 C 308.400 287.780,308.940 287.600,309.600 287.600 C 310.260 287.600,310.800 287.420,310.800 287.200 C 310.800 286.980,311.083 286.800,311.429 286.800 C 312.332 286.800,313.349 285.727,312.696 285.464 C 312.423 285.353,312.605 285.249,313.100 285.232 C 313.595 285.214,314.001 285.065,314.003 284.900 C 314.005 284.735,314.455 284.392,315.004 284.137 C 315.552 283.883,315.900 283.838,315.777 284.037 C 315.654 284.237,315.743 284.400,315.976 284.400 C 316.209 284.400,316.400 284.220,316.400 284.000 C 316.400 283.780,316.760 283.600,317.200 283.600 C 317.733 283.600,318.000 283.333,318.000 282.800 C 318.000 282.360,318.188 282.000,318.417 282.000 C 318.646 282.000,319.220 281.640,319.692 281.200 C 320.164 280.760,320.790 280.400,321.083 280.400 C 321.375 280.400,322.781 279.233,324.207 277.807 C 327.569 274.446,327.618 273.432,324.500 271.700 C 324.005 271.425,323.195 270.975,322.700 270.700 C 322.205 270.425,321.710 270.110,321.600 270.000 C 321.490 269.890,320.680 269.426,319.800 268.970 C 317.731 267.896,316.252 267.052,316.000 266.800 C 315.890 266.690,315.370 266.358,314.845 266.062 C 314.320 265.767,313.285 265.182,312.545 264.762 C 311.805 264.343,310.595 263.657,309.855 263.238 C 309.115 262.818,308.080 262.233,307.555 261.938 C 307.030 261.642,306.510 261.310,306.400 261.200 C 306.226 261.026,305.247 260.479,301.800 258.629 C 301.360 258.393,300.910 258.110,300.800 258.000 C 300.690 257.890,300.170 257.558,299.645 257.262 C 297.114 255.837,296.061 255.230,294.400 254.239 C 293.410 253.648,292.285 253.062,291.900 252.936 C 291.515 252.810,291.200 252.548,291.200 252.353 C 291.200 252.159,291.028 252.000,290.818 252.000 C 290.607 252.000,289.482 251.435,288.318 250.744 C 287.153 250.053,285.615 249.153,284.900 248.744 C 281.258 246.660,279.305 245.549,277.155 244.338 C 276.630 244.042,276.100 243.666,275.978 243.502 C 275.856 243.338,275.541 243.419,275.278 243.682 " stroke="none" fill="#6c1474" fill-rule="evenodd"></path><path id="path3" d="M172.000 65.236 C 171.336 65.779,171.269 65.915,171.800 65.640 C 173.105 64.966,173.828 64.412,173.400 64.415 C 173.180 64.417,172.550 64.786,172.000 65.236 M253.200 80.020 C 254.587 80.961,255.378 81.235,254.400 80.436 C 253.850 79.986,253.220 79.617,253.000 79.615 C 252.780 79.613,252.870 79.796,253.200 80.020 M279.600 95.220 C 280.987 96.161,281.778 96.435,280.800 95.636 C 280.250 95.186,279.620 94.817,279.400 94.815 C 279.180 94.813,279.270 94.996,279.600 95.220 M306.000 110.420 C 307.387 111.361,308.178 111.635,307.200 110.836 C 306.650 110.386,306.020 110.017,305.800 110.015 C 305.580 110.013,305.670 110.196,306.000 110.420 M76.400 121.400 C 75.428 122.390,74.723 123.200,74.833 123.200 C 74.943 123.200,75.828 122.390,76.800 121.400 C 77.772 120.410,78.477 119.600,78.367 119.600 C 78.257 119.600,77.372 120.410,76.400 121.400 M323.183 121.300 C 324.164 122.345,325.019 123.200,325.083 123.200 C 325.384 123.200,325.066 122.841,323.300 121.183 L 321.400 119.400 323.183 121.300 M326.871 125.937 C 326.942 126.233,326.730 126.637,326.400 126.837 C 326.070 127.036,322.920 128.841,319.400 130.848 C 315.880 132.855,312.415 134.836,311.700 135.249 C 310.985 135.662,309.770 136.360,309.000 136.800 C 308.230 137.240,306.970 137.960,306.200 138.400 C 305.430 138.840,304.170 139.560,303.400 140.000 C 302.630 140.440,301.415 141.138,300.700 141.551 C 299.985 141.964,296.520 143.966,293.000 146.000 C 289.480 148.034,286.015 150.036,285.300 150.449 C 284.585 150.862,283.370 151.560,282.600 152.000 C 281.830 152.440,280.525 153.188,279.700 153.663 C 278.875 154.137,277.838 154.722,277.395 154.963 C 276.952 155.203,275.865 156.120,274.979 157.000 C 274.093 157.880,272.655 158.977,271.784 159.438 C 270.913 159.900,269.525 160.665,268.700 161.138 C 267.875 161.612,266.570 162.360,265.800 162.800 C 265.030 163.240,263.770 163.960,263.000 164.400 C 262.230 164.840,260.970 165.560,260.200 166.000 C 259.430 166.440,258.170 167.160,257.400 167.600 C 256.630 168.040,255.325 168.779,254.500 169.243 C 253.675 169.706,252.820 170.227,252.600 170.400 C 252.380 170.573,251.525 171.094,250.700 171.557 C 249.875 172.021,248.570 172.760,247.800 173.200 C 247.030 173.640,245.770 174.360,245.000 174.800 C 244.230 175.240,242.970 175.960,242.200 176.400 C 241.430 176.840,240.165 177.560,239.388 178.000 C 238.611 178.440,237.481 178.800,236.877 178.800 C 236.272 178.800,235.423 179.048,234.989 179.352 C 234.555 179.655,233.525 180.285,232.700 180.752 C 231.875 181.218,230.570 181.960,229.800 182.400 C 229.030 182.840,227.770 183.560,227.000 184.000 C 226.230 184.440,225.015 185.138,224.300 185.552 C 223.585 185.965,219.490 188.327,215.200 190.800 C 210.910 193.272,206.680 195.725,205.800 196.251 C 204.920 196.776,202.850 197.861,201.200 198.662 C 198.465 199.990,195.820 201.478,183.800 208.451 C 181.600 209.728,176.067 212.893,171.505 215.486 C 163.101 220.261,162.657 220.648,163.813 222.176 C 164.136 222.604,164.400 222.775,164.400 222.556 C 164.400 222.338,164.183 221.943,163.917 221.677 C 163.166 220.926,165.391 219.506,180.800 210.898 C 181.790 210.345,182.780 209.761,183.000 209.600 C 183.220 209.439,184.210 208.860,185.200 208.314 C 186.190 207.767,189.846 205.673,193.324 203.660 C 200.523 199.494,200.095 199.605,202.800 201.200 C 203.919 201.860,204.899 202.400,204.977 202.400 C 205.055 202.400,206.331 203.137,207.812 204.037 C 209.294 204.937,211.113 206.017,211.853 206.437 C 214.496 207.935,215.829 208.706,217.918 209.944 C 219.082 210.635,220.099 211.200,220.177 211.200 C 220.255 211.200,221.531 211.937,223.012 212.837 C 224.494 213.737,226.268 214.792,226.953 215.180 C 227.639 215.569,229.010 216.360,230.000 216.938 C 230.990 217.516,232.835 218.573,234.100 219.287 C 236.305 220.531,236.862 221.268,236.000 221.800 C 235.780 221.936,235.603 222.262,235.607 222.524 C 235.610 222.786,235.988 222.415,236.446 221.700 C 237.412 220.192,237.700 220.133,239.138 221.153 C 239.722 221.567,240.875 222.287,241.700 222.753 C 242.525 223.219,243.830 223.960,244.600 224.400 C 245.370 224.840,246.630 225.560,247.400 226.000 C 248.170 226.440,249.430 227.160,250.200 227.600 C 250.970 228.040,252.275 228.779,253.100 229.243 C 253.925 229.706,254.780 230.227,255.000 230.400 C 255.220 230.573,256.075 231.094,256.900 231.557 C 257.725 232.021,259.030 232.760,259.800 233.200 C 260.570 233.640,261.830 234.360,262.600 234.800 C 263.370 235.240,264.630 235.960,265.400 236.400 C 266.170 236.840,267.475 237.581,268.300 238.047 C 269.125 238.513,270.250 239.194,270.800 239.561 C 271.350 239.928,272.250 240.455,272.800 240.732 C 275.157 241.920,275.807 242.665,275.180 243.462 C 274.648 244.139,274.658 244.155,275.300 243.651 C 275.685 243.349,276.000 243.283,276.000 243.504 C 276.000 243.726,276.315 244.010,276.700 244.136 C 277.085 244.262,278.210 244.848,279.200 245.439 C 280.190 246.030,281.585 246.848,282.300 247.257 C 283.015 247.665,284.185 248.335,284.900 248.744 C 285.615 249.153,287.153 250.053,288.318 250.744 C 289.482 251.435,290.607 252.000,290.818 252.000 C 291.028 252.000,291.200 252.159,291.200 252.353 C 291.200 252.548,291.515 252.810,291.900 252.936 C 292.285 253.062,293.410 253.648,294.400 254.239 C 296.061 255.230,297.114 255.837,299.645 257.262 C 300.170 257.558,300.690 257.890,300.800 258.000 C 300.974 258.174,301.953 258.721,305.400 260.571 C 305.840 260.807,306.290 261.090,306.400 261.200 C 306.510 261.310,307.030 261.642,307.555 261.938 C 308.080 262.233,309.115 262.818,309.855 263.238 C 310.595 263.657,311.805 264.343,312.545 264.762 C 313.285 265.182,314.320 265.767,314.845 266.062 C 315.370 266.358,315.890 266.690,316.000 266.800 C 316.252 267.052,317.731 267.896,319.800 268.970 C 320.680 269.426,321.490 269.890,321.600 270.000 C 321.844 270.244,323.429 271.159,324.858 271.882 C 326.135 272.528,326.664 273.137,326.866 274.200 C 327.041 275.115,329.200 271.178,329.200 269.945 C 329.200 269.561,329.380 269.136,329.600 269.000 C 329.820 268.864,330.000 267.964,330.000 267.000 C 330.000 266.036,330.180 265.136,330.400 265.000 C 330.954 264.658,330.954 135.342,330.400 135.000 C 330.180 134.864,330.000 133.964,330.000 133.000 C 330.000 132.036,329.820 131.136,329.600 131.000 C 329.380 130.864,329.200 130.409,329.200 129.989 C 329.200 129.568,328.823 128.544,328.362 127.712 C 327.402 125.979,326.674 125.112,326.871 125.937 M285.516 182.500 L 285.631 186.000 290.200 186.000 L 294.769 186.000 294.884 182.500 L 295.000 179.000 299.600 179.000 L 304.200 179.000 304.315 182.485 L 304.431 185.969 307.915 186.085 L 311.400 186.200 311.400 190.800 L 311.400 195.400 307.900 195.516 L 304.400 195.631 304.400 200.216 L 304.400 204.800 307.520 204.800 C 311.540 204.800,311.600 204.872,311.600 209.651 C 311.600 214.584,311.423 214.800,307.388 214.800 L 304.432 214.800 304.316 218.100 L 304.200 221.400 299.600 221.400 L 295.000 221.400 294.884 218.100 L 294.768 214.800 290.200 214.800 L 285.632 214.800 285.516 218.100 L 285.400 221.400 280.600 221.400 L 275.800 221.400 275.684 218.100 L 275.568 214.800 272.633 214.800 C 268.793 214.800,268.745 214.730,268.886 209.342 L 269.000 205.000 272.300 204.884 L 275.600 204.768 275.600 200.200 L 275.600 195.632 272.300 195.516 L 269.000 195.400 269.000 190.800 L 269.000 186.200 272.300 186.084 L 275.600 185.968 275.600 182.650 C 275.600 178.520,275.277 178.755,280.779 178.888 L 285.400 179.000 285.516 182.500 M285.687 200.100 L 285.800 204.600 290.300 204.713 L 294.800 204.826 294.800 200.213 L 294.800 195.600 290.187 195.600 L 285.574 195.600 285.687 200.100 M177.600 236.020 C 178.987 236.961,179.778 237.235,178.800 236.436 C 178.250 235.986,177.620 235.617,177.400 235.615 C 177.180 235.613,177.270 235.796,177.600 236.020 M221.200 236.436 C 220.536 236.979,220.469 237.115,221.000 236.840 C 222.305 236.166,223.028 235.612,222.600 235.615 C 222.380 235.617,221.750 235.986,221.200 236.436 M191.600 241.600 C 192.968 242.038,194.019 242.038,193.000 241.600 C 192.560 241.411,191.840 241.262,191.400 241.268 C 190.757 241.277,190.796 241.343,191.600 241.600 M207.000 241.600 C 205.981 242.038,207.032 242.038,208.400 241.600 C 209.204 241.343,209.243 241.277,208.600 241.268 C 208.160 241.262,207.440 241.411,207.000 241.600 M197.700 242.296 C 198.965 242.375,201.035 242.375,202.300 242.296 C 203.565 242.216,202.530 242.151,200.000 242.151 C 197.470 242.151,196.435 242.216,197.700 242.296 M117.800 246.557 C 107.167 252.727,84.990 265.483,78.518 269.152 C 72.496 272.565,71.321 273.686,72.800 274.600 C 73.020 274.736,73.200 274.504,73.200 274.086 C 73.200 272.992,73.684 272.659,83.200 267.211 C 87.930 264.504,92.340 261.976,93.000 261.594 C 93.660 261.213,99.600 257.794,106.200 253.997 C 112.800 250.200,118.830 246.727,119.600 246.280 C 123.738 243.876,124.418 243.564,124.891 243.848 C 125.254 244.066,125.242 243.959,124.851 243.477 C 124.549 243.105,124.279 242.810,124.251 242.821 C 124.223 242.833,121.320 244.514,117.800 246.557 M125.200 244.520 C 125.200 244.904,127.245 248.000,127.499 248.000 C 127.678 248.000,127.041 246.919,125.739 245.011 C 125.442 244.577,125.200 244.356,125.200 244.520 M274.024 245.318 C 273.723 245.803,273.215 246.605,272.893 247.100 C 272.571 247.595,272.395 248.000,272.501 248.000 C 272.783 248.000,274.886 244.753,274.715 244.581 C 274.635 244.502,274.324 244.833,274.024 245.318 M128.786 250.180 C 129.459 251.158,130.201 252.077,130.434 252.221 C 130.668 252.365,130.199 251.565,129.392 250.442 C 127.590 247.934,127.093 247.719,128.786 250.180 M270.608 250.442 C 269.801 251.565,269.332 252.365,269.566 252.221 C 270.052 251.920,272.532 248.400,272.257 248.400 C 272.157 248.400,271.415 249.319,270.608 250.442 M131.530 253.900 C 131.961 254.505,132.728 255.360,133.234 255.800 C 133.740 256.240,133.451 255.745,132.592 254.700 C 130.873 252.608,130.303 252.179,131.530 253.900 M267.408 254.700 C 266.549 255.745,266.260 256.240,266.766 255.800 C 267.661 255.022,269.398 252.800,269.112 252.800 C 269.034 252.800,268.267 253.655,267.408 254.700 M136.200 259.200 C 137.059 260.080,137.852 260.800,137.962 260.800 C 138.072 260.800,137.459 260.080,136.600 259.200 C 135.741 258.320,134.948 257.600,134.838 257.600 C 134.728 257.600,135.341 258.320,136.200 259.200 M261.200 261.486 C 259.110 263.623,258.341 264.518,259.492 263.477 C 261.641 261.532,265.431 257.599,265.155 257.601 C 265.070 257.602,263.290 259.350,261.200 261.486 M140.600 263.600 C 141.459 264.480,142.252 265.200,142.362 265.200 C 142.472 265.200,141.859 264.480,141.000 263.600 C 140.141 262.720,139.348 262.000,139.238 262.000 C 139.128 262.000,139.741 262.720,140.600 263.600 M144.200 266.766 C 144.978 267.661,147.200 269.398,147.200 269.112 C 147.200 269.034,146.345 268.267,145.300 267.408 C 144.255 266.549,143.760 266.260,144.200 266.766 M254.400 267.668 C 253.352 268.620,253.101 268.965,253.800 268.495 C 254.904 267.751,256.738 265.977,256.362 266.017 C 256.273 266.026,255.390 266.770,254.400 267.668 M147.779 269.566 C 148.080 270.052,151.600 272.532,151.600 272.257 C 151.600 272.157,150.681 271.415,149.558 270.608 C 148.435 269.801,147.635 269.332,147.779 269.566 M250.600 270.453 C 248.234 272.224,247.922 272.706,250.080 271.254 C 251.113 270.559,252.069 269.812,252.203 269.595 C 252.555 269.026,252.383 269.118,250.600 270.453 M152.000 272.501 C 152.000 272.755,155.096 274.800,155.480 274.800 C 155.644 274.800,155.423 274.558,154.989 274.261 C 153.081 272.959,152.000 272.322,152.000 272.501 M246.000 273.600 C 245.010 274.258,244.339 274.797,244.509 274.798 C 244.857 274.800,248.000 272.774,248.000 272.547 C 248.000 272.292,247.842 272.375,246.000 273.600 M156.800 275.564 C 157.350 276.014,157.980 276.383,158.200 276.385 C 158.628 276.388,157.905 275.834,156.600 275.160 C 156.069 274.885,156.136 275.021,156.800 275.564 M242.600 275.600 C 241.940 276.037,241.580 276.392,241.800 276.388 C 242.201 276.382,244.376 274.823,244.000 274.812 C 243.890 274.808,243.260 275.163,242.600 275.600 M76.193 278.793 C 77.048 279.669,77.823 280.311,77.914 280.219 C 78.119 280.014,75.340 277.200,74.932 277.200 C 74.770 277.200,75.337 277.917,76.193 278.793 M323.261 278.655 C 322.525 279.425,321.996 280.130,322.087 280.220 C 322.178 280.311,322.952 279.669,323.807 278.793 C 324.663 277.917,325.191 277.212,324.981 277.227 C 324.772 277.243,323.997 277.885,323.261 278.655 M319.692 281.200 C 319.220 281.640,318.646 282.000,318.417 282.000 C 318.188 282.000,318.000 282.164,318.000 282.365 C 318.000 282.565,318.225 282.693,318.500 282.650 C 319.129 282.549,321.454 280.400,320.934 280.400 C 320.723 280.400,320.164 280.760,319.692 281.200 M80.400 282.000 C 80.840 282.823,82.000 283.113,82.000 282.400 C 82.000 282.180,81.730 282.000,81.400 282.000 C 81.070 282.000,80.800 281.820,80.800 281.600 C 80.800 281.380,80.614 281.200,80.386 281.200 C 80.105 281.200,80.110 281.458,80.400 282.000 M85.776 285.173 C 86.212 285.655,86.725 285.845,87.138 285.677 C 87.679 285.457,87.635 285.383,86.900 285.276 C 86.405 285.204,86.000 284.977,86.000 284.772 C 86.000 284.567,85.792 284.400,85.538 284.400 C 85.271 284.400,85.371 284.726,85.776 285.173 M180.341 284.901 C 180.543 285.103,181.133 285.201,181.654 285.119 C 182.455 284.993,182.398 284.937,181.287 284.752 C 180.493 284.621,180.119 284.679,180.341 284.901 M218.600 284.800 L 217.400 285.105 218.476 285.153 C 219.068 285.179,219.664 285.020,219.800 284.800 C 219.936 284.580,219.992 284.421,219.924 284.447 C 219.856 284.473,219.260 284.632,218.600 284.800 M314.000 284.772 C 314.000 284.977,313.595 285.204,313.100 285.276 C 312.365 285.383,312.321 285.457,312.862 285.677 C 313.275 285.845,313.788 285.655,314.224 285.173 C 314.629 284.726,314.729 284.400,314.462 284.400 C 314.208 284.400,314.000 284.567,314.000 284.772 M184.352 285.712 C 184.545 285.905,185.219 285.998,185.851 285.919 C 186.909 285.787,186.881 285.759,185.500 285.568 C 184.640 285.449,184.150 285.510,184.352 285.712 M214.400 285.600 L 213.000 285.895 214.276 285.947 C 214.978 285.976,215.664 285.820,215.800 285.600 C 215.936 285.380,215.992 285.224,215.924 285.253 C 215.856 285.282,215.170 285.438,214.400 285.600 M189.400 286.410 C 190.170 286.731,193.907 286.951,193.567 286.655 C 193.475 286.576,192.320 286.413,191.000 286.293 C 189.551 286.162,188.917 286.208,189.400 286.410 M208.200 286.400 L 206.200 286.674 208.000 286.709 C 208.990 286.728,210.160 286.589,210.600 286.400 C 211.513 286.008,211.062 286.008,208.200 286.400 M89.740 287.533 C 90.417 288.281,91.600 288.536,91.600 287.933 C 91.600 287.750,91.330 287.600,91.000 287.600 C 90.670 287.600,90.400 287.420,90.400 287.200 C 90.400 286.980,90.102 286.800,89.738 286.800 C 89.123 286.800,89.123 286.852,89.740 287.533 M308.400 287.972 C 308.400 288.177,307.995 288.404,307.500 288.476 C 306.765 288.583,306.721 288.657,307.262 288.877 C 307.675 289.045,308.188 288.855,308.624 288.373 C 309.029 287.926,309.129 287.600,308.862 287.600 C 308.608 287.600,308.400 287.767,308.400 287.972 M95.302 290.675 C 95.688 291.110,96.273 291.467,96.602 291.467 C 97.421 291.467,97.356 290.948,96.500 290.646 C 96.115 290.511,95.530 290.283,95.200 290.141 C 94.746 289.946,94.771 290.076,95.302 290.675 M304.000 290.400 C 304.000 290.620,303.730 290.800,303.400 290.800 C 303.070 290.800,302.800 290.950,302.800 291.133 C 302.800 291.736,303.983 291.481,304.660 290.733 C 305.277 290.052,305.277 290.000,304.662 290.000 C 304.298 290.000,304.000 290.180,304.000 290.400 M100.962 293.942 C 101.730 294.807,102.800 295.101,102.800 294.447 C 102.800 294.252,102.485 293.982,102.100 293.846 C 101.715 293.711,101.130 293.483,100.800 293.341 C 100.383 293.162,100.433 293.345,100.962 293.942 M298.100 293.744 C 297.064 294.257,296.930 294.667,297.798 294.667 C 298.127 294.667,298.695 294.337,299.060 293.933 C 299.792 293.125,299.475 293.063,298.100 293.744 M106.600 297.200 C 107.364 298.045,108.400 298.275,108.400 297.600 C 108.400 297.380,108.040 297.200,107.600 297.200 C 107.160 297.200,106.800 297.020,106.800 296.800 C 106.800 296.580,106.592 296.400,106.338 296.400 C 106.076 296.400,106.189 296.746,106.600 297.200 M293.200 296.800 C 293.200 297.020,292.840 297.200,292.400 297.200 C 291.960 297.200,291.600 297.380,291.600 297.600 C 291.600 298.275,292.636 298.045,293.400 297.200 C 293.811 296.746,293.924 296.400,293.662 296.400 C 293.408 296.400,293.200 296.580,293.200 296.800 M112.176 300.373 C 112.612 300.855,113.125 301.045,113.538 300.877 C 114.079 300.657,114.035 300.583,113.300 300.476 C 112.805 300.404,112.400 300.177,112.400 299.972 C 112.400 299.767,112.192 299.600,111.938 299.600 C 111.671 299.600,111.771 299.926,112.176 300.373 M287.600 299.972 C 287.600 300.177,287.195 300.404,286.700 300.476 C 285.965 300.583,285.921 300.657,286.462 300.877 C 286.875 301.045,287.388 300.855,287.824 300.373 C 288.229 299.926,288.329 299.600,288.062 299.600 C 287.808 299.600,287.600 299.767,287.600 299.972 M116.545 303.078 C 116.977 303.511,118.000 303.571,118.000 303.165 C 118.000 302.964,117.610 302.800,117.133 302.800 C 116.657 302.800,116.392 302.925,116.545 303.078 M282.000 303.172 C 282.000 303.377,281.595 303.604,281.100 303.676 C 280.365 303.783,280.321 303.857,280.862 304.077 C 281.275 304.245,281.788 304.055,282.224 303.573 C 282.629 303.126,282.729 302.800,282.462 302.800 C 282.208 302.800,282.000 302.967,282.000 303.172 M121.740 305.933 C 122.417 306.681,123.600 306.936,123.600 306.333 C 123.600 306.150,123.330 306.000,123.000 306.000 C 122.670 306.000,122.400 305.820,122.400 305.600 C 122.400 305.380,122.102 305.200,121.738 305.200 C 121.123 305.200,121.123 305.252,121.740 305.933 M277.600 305.600 C 277.600 305.820,277.330 306.000,277.000 306.000 C 276.670 306.000,276.400 306.150,276.400 306.333 C 276.400 306.936,277.583 306.681,278.260 305.933 C 278.877 305.252,278.877 305.200,278.262 305.200 C 277.898 305.200,277.600 305.380,277.600 305.600 M127.302 309.075 C 127.688 309.510,128.273 309.867,128.602 309.867 C 129.421 309.867,129.356 309.348,128.500 309.046 C 128.115 308.911,127.530 308.683,127.200 308.541 C 126.746 308.346,126.771 308.476,127.302 309.075 M271.700 308.944 C 270.664 309.457,270.530 309.867,271.398 309.867 C 271.727 309.867,272.295 309.537,272.660 309.133 C 273.392 308.325,273.075 308.263,271.700 308.944 M132.962 312.342 C 133.730 313.207,134.800 313.501,134.800 312.847 C 134.800 312.652,134.485 312.382,134.100 312.246 C 133.715 312.111,133.130 311.883,132.800 311.741 C 132.383 311.562,132.433 311.745,132.962 312.342 M266.800 312.000 C 266.800 312.220,266.440 312.400,266.000 312.400 C 265.560 312.400,265.200 312.580,265.200 312.800 C 265.200 313.475,266.236 313.245,267.000 312.400 C 267.411 311.946,267.524 311.600,267.262 311.600 C 267.008 311.600,266.800 311.780,266.800 312.000 M138.600 315.600 C 139.364 316.445,140.400 316.675,140.400 316.000 C 140.400 315.780,140.040 315.600,139.600 315.600 C 139.160 315.600,138.800 315.420,138.800 315.200 C 138.800 314.980,138.592 314.800,138.338 314.800 C 138.076 314.800,138.189 315.146,138.600 315.600 M261.200 315.172 C 261.200 315.377,260.795 315.604,260.300 315.676 C 259.565 315.783,259.521 315.857,260.062 316.077 C 260.475 316.245,260.988 316.055,261.424 315.573 C 261.829 315.126,261.929 314.800,261.662 314.800 C 261.408 314.800,261.200 314.967,261.200 315.172 M144.176 318.773 C 144.612 319.255,145.125 319.445,145.538 319.277 C 146.079 319.057,146.035 318.983,145.300 318.876 C 144.805 318.804,144.400 318.577,144.400 318.372 C 144.400 318.167,144.192 318.000,143.938 318.000 C 143.671 318.000,143.771 318.326,144.176 318.773 M255.600 318.372 C 255.600 318.577,255.195 318.804,254.700 318.876 C 253.965 318.983,253.921 319.057,254.462 319.277 C 254.875 319.445,255.388 319.255,255.824 318.773 C 256.229 318.326,256.329 318.000,256.062 318.000 C 255.808 318.000,255.600 318.167,255.600 318.372 M251.200 320.800 C 251.200 321.020,250.930 321.200,250.600 321.200 C 250.270 321.200,250.000 321.350,250.000 321.533 C 250.000 322.136,251.183 321.881,251.860 321.133 C 252.477 320.452,252.477 320.400,251.862 320.400 C 251.498 320.400,251.200 320.580,251.200 320.800 M153.740 324.333 C 154.417 325.081,155.600 325.336,155.600 324.733 C 155.600 324.550,155.330 324.400,155.000 324.400 C 154.670 324.400,154.400 324.220,154.400 324.000 C 154.400 323.780,154.102 323.600,153.738 323.600 C 153.123 323.600,153.123 323.652,153.740 324.333 M245.300 324.144 C 244.264 324.657,244.130 325.067,244.998 325.067 C 245.327 325.067,245.895 324.737,246.260 324.333 C 246.992 323.525,246.675 323.463,245.300 324.144 M159.302 327.475 C 159.688 327.910,160.273 328.267,160.602 328.267 C 161.421 328.267,161.356 327.748,160.500 327.446 C 160.115 327.311,159.530 327.083,159.200 326.941 C 158.746 326.746,158.771 326.876,159.302 327.475 M240.400 327.200 C 240.400 327.420,240.040 327.600,239.600 327.600 C 239.160 327.600,238.800 327.780,238.800 328.000 C 238.800 328.675,239.836 328.445,240.600 327.600 C 241.011 327.146,241.124 326.800,240.862 326.800 C 240.608 326.800,240.400 326.980,240.400 327.200 M165.000 330.800 C 165.764 331.645,166.800 331.875,166.800 331.200 C 166.800 330.980,166.440 330.800,166.000 330.800 C 165.560 330.800,165.200 330.620,165.200 330.400 C 165.200 330.180,164.992 330.000,164.738 330.000 C 164.476 330.000,164.589 330.346,165.000 330.800 M234.800 330.372 C 234.800 330.577,234.395 330.804,233.900 330.876 C 233.165 330.983,233.121 331.057,233.662 331.277 C 234.075 331.445,234.588 331.255,235.024 330.773 C 235.429 330.326,235.529 330.000,235.262 330.000 C 235.008 330.000,234.800 330.167,234.800 330.372 M170.576 333.973 C 171.012 334.455,171.525 334.645,171.938 334.477 C 172.479 334.257,172.435 334.183,171.700 334.076 C 171.205 334.004,170.800 333.777,170.800 333.572 C 170.800 333.367,170.592 333.200,170.338 333.200 C 170.071 333.200,170.171 333.526,170.576 333.973 M174.540 336.333 C 175.217 337.081,176.400 337.336,176.400 336.733 C 176.400 336.550,176.130 336.400,175.800 336.400 C 175.470 336.400,175.200 336.220,175.200 336.000 C 175.200 335.780,174.902 335.600,174.538 335.600 C 173.923 335.600,173.923 335.652,174.540 336.333 M224.800 336.000 C 224.800 336.220,224.530 336.400,224.200 336.400 C 223.870 336.400,223.600 336.550,223.600 336.733 C 223.600 337.336,224.783 337.081,225.460 336.333 C 226.077 335.652,226.077 335.600,225.462 335.600 C 225.098 335.600,224.800 335.780,224.800 336.000 M180.200 339.600 C 180.964 340.445,182.000 340.675,182.000 340.000 C 182.000 339.780,181.640 339.600,181.200 339.600 C 180.760 339.600,180.400 339.420,180.400 339.200 C 180.400 338.980,180.192 338.800,179.938 338.800 C 179.676 338.800,179.789 339.146,180.200 339.600 M218.900 339.344 C 218.405 339.589,218.000 339.927,218.000 340.095 C 218.000 340.688,219.085 340.390,219.800 339.600 C 220.588 338.730,220.304 338.649,218.900 339.344 M184.545 342.278 C 184.977 342.711,186.000 342.771,186.000 342.365 C 186.000 342.164,185.610 342.000,185.133 342.000 C 184.657 342.000,184.392 342.125,184.545 342.278 M214.000 342.400 C 214.000 342.620,213.640 342.800,213.200 342.800 C 212.760 342.800,212.400 342.950,212.400 343.133 C 212.400 343.736,213.583 343.481,214.260 342.733 C 214.657 342.295,214.738 342.000,214.462 342.000 C 214.208 342.000,214.000 342.180,214.000 342.400 M210.800 344.000 C 210.800 344.220,210.339 344.400,209.776 344.400 C 209.213 344.400,208.854 344.564,208.978 344.764 C 209.288 345.266,210.024 345.108,211.192 344.291 C 211.961 343.752,212.026 343.600,211.489 343.600 C 211.110 343.600,210.800 343.780,210.800 344.000 M189.378 344.764 C 189.626 345.166,190.618 345.115,191.055 344.678 C 191.208 344.525,190.843 344.400,190.243 344.400 C 189.643 344.400,189.254 344.564,189.378 344.764 M195.382 346.370 C 195.508 346.574,197.586 346.741,200.000 346.741 C 202.414 346.741,204.492 346.574,204.618 346.370 C 204.754 346.151,202.871 346.000,200.000 346.000 C 197.129 346.000,195.246 346.151,195.382 346.370 " stroke="none" fill="#843484" fill-rule="evenodd"></path><path id="path4" d="M194.800 113.437 C 155.261 115.920,121.950 145.241,114.861 183.800 C 113.692 190.160,113.468 192.772,113.468 200.000 C 113.468 208.946,114.094 213.929,116.285 222.400 C 118.042 229.190,123.334 241.817,125.005 243.204 C 125.332 243.476,125.600 243.870,125.600 244.081 C 125.600 244.292,126.672 246.025,127.981 247.932 C 140.640 266.368,157.220 278.099,178.698 283.816 C 180.732 284.357,182.802 284.789,183.298 284.775 C 183.794 284.761,181.856 284.150,178.991 283.416 C 125.677 269.758,98.441 210.949,122.759 162.000 C 134.005 139.363,155.422 121.966,178.800 116.479 C 192.904 113.168,204.776 112.909,217.500 115.636 C 240.326 120.527,259.760 133.908,272.558 153.547 C 274.878 157.106,275.719 156.147,264.800 162.393 C 260.070 165.098,255.660 167.621,255.000 167.999 C 254.340 168.376,250.166 170.781,245.723 173.343 C 236.224 178.820,237.376 178.576,235.412 175.529 C 225.520 160.178,203.475 152.931,186.000 159.287 C 164.064 167.264,152.535 189.237,158.552 211.600 C 161.710 223.340,170.240 233.510,181.400 238.842 C 185.308 240.709,190.577 242.431,192.192 242.369 C 192.636 242.352,191.470 241.929,189.600 241.430 C 185.425 240.315,181.460 238.719,179.017 237.170 C 178.002 236.526,177.090 236.000,176.991 236.000 C 176.533 236.000,171.897 232.210,169.843 230.157 C 147.676 207.989,157.013 168.993,186.726 159.650 C 205.763 153.663,224.046 160.225,236.119 177.379 C 237.044 178.693,237.517 178.665,240.082 177.144 C 241.247 176.453,242.785 175.553,243.500 175.144 C 244.215 174.735,245.385 174.061,246.100 173.648 C 246.815 173.234,252.170 170.152,258.000 166.800 C 263.830 163.448,269.230 160.339,270.000 159.891 C 270.770 159.443,272.067 158.715,272.882 158.274 C 275.513 156.848,275.169 155.822,269.507 148.200 C 252.330 125.074,223.456 111.638,194.800 113.437 M276.201 179.686 C 276.100 179.969,275.968 181.550,275.908 183.200 L 275.800 186.200 272.600 186.400 L 269.400 186.600 269.400 190.800 L 269.400 195.000 272.600 195.200 L 275.800 195.400 275.800 200.200 L 275.800 205.000 272.600 205.200 L 269.400 205.400 269.285 209.341 C 269.141 214.283,269.227 214.400,273.033 214.400 L 275.968 214.400 276.084 217.700 L 276.200 221.000 280.600 221.000 L 285.000 221.000 285.116 217.688 L 285.233 214.376 290.116 214.488 L 295.000 214.600 295.200 217.800 L 295.400 221.000 299.600 221.000 L 303.800 221.000 304.000 217.800 L 304.200 214.600 307.316 214.400 C 309.481 214.261,310.546 214.017,310.809 213.600 C 311.389 212.681,311.299 206.180,310.700 205.684 C 310.133 205.214,303.998 204.847,303.999 205.283 C 304.000 205.439,305.395 205.619,307.100 205.683 L 310.200 205.800 310.314 209.700 L 310.429 213.600 307.261 213.600 C 303.580 213.600,303.615 213.558,303.605 218.100 L 303.600 220.800 299.600 220.800 L 295.600 220.800 295.595 218.100 C 295.585 213.310,295.898 213.559,290.050 213.688 L 285.000 213.800 284.800 217.200 L 284.600 220.600 280.600 220.600 L 276.600 220.600 276.400 217.200 L 276.200 213.800 273.000 213.600 L 269.800 213.400 269.800 209.600 L 269.800 205.800 273.100 205.684 L 276.400 205.568 276.400 200.427 C 276.400 194.502,276.614 194.800,272.367 194.800 L 269.600 194.800 269.600 190.800 L 269.600 186.800 272.500 186.794 C 276.309 186.786,276.342 186.755,276.482 182.988 L 276.600 179.800 280.600 179.800 L 284.600 179.800 284.716 183.100 C 284.780 184.915,284.960 186.400,285.116 186.401 C 285.272 186.401,285.310 184.826,285.200 182.901 L 285.000 179.400 280.693 179.286 C 277.465 179.201,276.339 179.302,276.201 179.686 M295.116 182.700 L 295.000 186.200 290.400 186.420 L 285.800 186.640 290.220 186.720 C 295.598 186.817,295.600 186.816,295.600 182.720 L 295.600 179.600 299.600 179.600 L 303.600 179.600 303.600 182.720 C 303.600 186.607,303.784 186.800,307.480 186.800 L 310.400 186.800 310.400 190.800 L 310.400 194.800 307.480 194.800 C 303.610 194.800,303.583 194.838,303.680 200.180 L 303.760 204.600 303.980 200.000 L 304.200 195.400 307.600 195.200 L 311.000 195.000 311.000 190.800 L 311.000 186.600 307.600 186.400 L 304.200 186.200 304.084 182.700 L 303.969 179.200 299.600 179.200 L 295.231 179.200 295.116 182.700 M290.400 195.180 L 295.000 195.400 295.220 200.000 L 295.440 204.600 295.520 200.180 C 295.621 194.607,295.793 194.779,290.220 194.880 L 285.800 194.960 290.400 195.180 M284.800 200.400 L 284.800 205.600 290.000 205.600 C 292.860 205.600,295.200 205.465,295.200 205.300 C 295.201 205.135,292.996 205.000,290.300 205.000 L 285.400 205.000 285.400 200.100 C 285.400 197.404,285.265 195.199,285.100 195.200 C 284.935 195.200,284.800 197.540,284.800 200.400 M236.796 221.696 C 236.358 222.166,236.000 222.695,236.000 222.871 C 236.000 224.492,224.613 236.000,223.009 236.000 C 222.910 236.000,221.998 236.526,220.983 237.170 C 218.540 238.719,214.575 240.315,210.400 241.430 C 208.530 241.929,207.364 242.352,207.808 242.369 C 215.062 242.649,229.073 233.592,235.458 224.496 C 236.499 223.013,237.406 221.726,237.473 221.635 C 237.619 221.440,238.665 221.945,241.400 223.531 C 242.500 224.168,246.280 226.361,249.800 228.405 C 253.320 230.448,256.740 232.428,257.400 232.806 C 258.060 233.184,261.480 235.170,265.000 237.219 C 268.520 239.268,272.074 241.317,272.897 241.772 C 274.844 242.849,274.857 242.787,271.641 247.638 C 259.784 265.523,242.114 278.009,221.009 283.416 C 218.144 284.150,216.206 284.761,216.702 284.775 C 218.464 284.824,227.591 282.176,232.591 280.165 C 247.933 273.994,261.710 262.837,271.567 248.600 C 273.651 245.590,275.313 242.778,275.120 242.590 C 275.054 242.526,273.380 241.534,271.400 240.386 C 269.420 239.237,267.260 237.982,266.600 237.597 C 265.940 237.212,262.520 235.234,259.000 233.200 C 255.480 231.166,252.060 229.186,251.400 228.800 C 250.740 228.414,247.363 226.465,243.896 224.470 L 237.592 220.842 236.796 221.696 M194.800 242.867 C 195.790 243.017,198.130 243.141,200.000 243.141 C 201.870 243.141,204.210 243.017,205.200 242.867 C 206.230 242.710,204.005 242.593,200.000 242.593 C 195.995 242.593,193.770 242.710,194.800 242.867 M185.200 285.200 C 185.750 285.376,186.920 285.517,187.800 285.514 L 189.400 285.508 187.800 285.177 C 186.920 284.995,185.750 284.854,185.200 284.863 L 184.200 284.880 185.200 285.200 M212.000 285.200 L 210.600 285.495 212.200 285.507 C 213.080 285.515,214.250 285.376,214.800 285.200 C 216.169 284.762,214.083 284.762,212.000 285.200 M191.400 286.065 C 192.500 286.211,196.370 286.330,200.000 286.330 C 203.630 286.330,207.500 286.211,208.600 286.065 C 209.700 285.919,205.830 285.800,200.000 285.800 C 194.170 285.800,190.300 285.919,191.400 286.065 " stroke="none" fill="#c89ec7" fill-rule="evenodd"></path></g></svg>