<svg id="svg" version="1.1" width="400" height="400" viewBox="0 0 400 400" xmlns="http://www.w3.org/2000/svg" xmlns:xlink="http://www.w3.org/1999/xlink" ><g id="svgg"><path id="path0" d="M302.707 31.911 C 302.585 32.378,302.788 32.850,303.228 33.125 C 303.849 33.513,303.926 33.456,303.784 32.717 C 303.543 31.464,302.942 31.014,302.707 31.911 M296.800 75.186 C 296.800 103.236,296.780 103.982,296.026 104.386 C 295.543 104.644,290.833 104.800,283.491 104.800 L 271.728 104.800 271.264 105.819 C 270.625 107.222,270.682 110.085,271.367 111.024 C 271.903 111.757,272.593 111.807,283.840 111.923 C 294.468 112.032,295.800 112.118,296.260 112.723 C 296.814 113.452,297.011 118.400,296.485 118.400 C 296.312 118.400,296.141 118.789,296.105 119.264 C 296.001 120.650,295.340 120.787,288.760 120.794 C 281.744 120.801,280.244 120.475,279.667 118.820 C 278.226 114.686,273.399 114.905,271.288 119.200 C 270.074 121.670,267.923 120.713,267.427 117.482 C 267.092 115.299,264.871 112.275,262.749 111.110 C 261.837 110.609,260.711 109.978,260.246 109.706 C 259.075 109.022,254.827 109.079,253.600 109.795 C 253.050 110.116,252.060 110.639,251.400 110.958 C 249.931 111.667,247.919 113.801,247.262 115.347 C 246.839 116.341,246.615 116.463,245.592 116.258 C 244.090 115.958,243.817 116.823,244.202 120.669 C 244.353 122.171,244.551 144.865,244.643 171.100 L 244.810 218.800 243.805 218.850 C 243.252 218.878,242.620 218.945,242.400 219.000 C 242.180 219.055,241.730 219.123,241.400 219.150 C 241.070 219.178,240.800 219.560,240.800 220.000 C 240.800 220.611,240.517 220.812,239.600 220.850 C 238.940 220.878,238.220 220.945,238.000 221.000 C 237.780 221.055,237.437 221.123,237.238 221.150 C 236.358 221.271,236.303 225.141,237.164 226.350 C 237.624 226.995,238.000 227.784,238.000 228.102 C 238.000 228.420,238.429 229.488,238.954 230.475 C 239.478 231.461,240.038 232.883,240.198 233.634 C 240.358 234.385,240.725 235.270,241.014 235.600 C 241.303 235.930,241.755 237.055,242.017 238.100 C 242.280 239.145,242.625 240.000,242.783 240.000 C 243.177 240.000,244.000 241.870,244.000 242.765 C 244.000 243.165,244.337 243.921,244.748 244.446 C 245.159 244.971,245.622 245.977,245.776 246.681 C 245.929 247.386,246.372 248.376,246.760 248.881 C 247.147 249.387,247.698 250.655,247.984 251.700 C 248.270 252.745,248.647 253.600,248.821 253.600 C 248.995 253.600,249.341 254.275,249.589 255.100 C 249.837 255.925,250.465 257.500,250.986 258.600 C 253.611 264.150,254.000 265.060,254.000 265.652 C 254.000 266.004,254.371 266.764,254.824 267.340 C 255.277 267.916,255.750 269.017,255.875 269.787 C 256.000 270.557,256.348 271.391,256.648 271.640 C 256.949 271.889,257.393 272.831,257.636 273.733 C 257.878 274.634,258.420 275.807,258.839 276.340 C 259.257 276.872,259.601 277.599,259.602 277.954 C 259.602 278.309,260.142 279.680,260.800 281.000 C 261.458 282.320,261.998 283.693,261.998 284.051 C 261.999 284.409,262.269 284.925,262.597 285.198 C 262.926 285.470,263.394 286.436,263.638 287.343 C 263.883 288.250,264.424 289.472,264.841 290.058 C 265.259 290.644,265.601 291.366,265.602 291.662 C 265.602 291.958,266.142 293.280,266.800 294.600 C 267.458 295.920,267.998 297.293,267.998 297.651 C 267.999 298.009,268.269 298.525,268.598 298.798 C 268.927 299.072,269.410 300.039,269.671 300.947 C 269.932 301.856,270.446 303.050,270.813 303.600 C 271.181 304.150,271.600 305.218,271.745 305.974 C 271.891 306.729,272.255 307.629,272.554 307.974 C 272.854 308.318,273.324 309.320,273.600 310.200 C 273.876 311.080,274.334 312.070,274.619 312.400 C 274.904 312.730,275.267 313.540,275.425 314.200 C 275.584 314.860,276.120 316.120,276.617 317.000 C 277.115 317.880,277.641 319.173,277.786 319.872 C 277.932 320.572,278.287 321.341,278.576 321.580 C 278.864 321.819,279.333 322.867,279.618 323.908 C 279.903 324.948,280.453 326.213,280.840 326.719 C 281.228 327.224,281.671 328.214,281.824 328.919 C 281.978 329.623,282.441 330.629,282.852 331.154 C 283.263 331.679,283.600 332.509,283.600 333.000 C 283.600 333.491,283.960 334.350,284.400 334.909 C 284.840 335.469,285.200 336.186,285.200 336.504 C 285.200 336.821,285.621 337.874,286.137 338.842 C 286.652 339.811,287.305 341.323,287.587 342.202 C 287.870 343.081,288.334 344.070,288.619 344.400 C 288.904 344.730,289.268 345.540,289.427 346.200 C 289.586 346.860,290.040 348.030,290.436 348.800 C 291.699 351.256,293.600 355.537,293.600 355.923 C 293.600 356.128,293.960 357.423,294.400 358.800 C 294.840 360.177,295.200 361.896,295.200 362.619 C 295.200 365.329,294.691 365.200,305.379 365.200 L 315.072 365.200 315.527 364.200 C 315.915 363.348,316.250 363.200,317.791 363.200 C 319.548 363.200,319.798 362.996,319.630 361.700 C 319.589 361.385,320.071 361.200,320.933 361.200 C 321.761 361.200,322.519 360.923,322.851 360.500 C 323.330 359.890,323.321 359.851,322.781 360.200 C 322.441 360.420,322.614 360.203,323.165 359.718 C 323.717 359.232,324.242 358.909,324.332 358.999 C 324.565 359.232,325.397 358.326,325.711 357.496 C 325.858 357.109,326.118 356.839,326.289 356.896 C 326.460 356.953,326.672 356.820,326.760 356.600 C 326.849 356.380,327.479 355.679,328.160 355.041 C 328.842 354.404,329.122 354.044,328.781 354.241 C 328.393 354.466,328.430 354.352,328.881 353.936 C 329.277 353.571,329.600 352.915,329.600 352.479 C 329.600 351.967,329.954 351.598,330.600 351.436 C 331.221 351.280,331.600 350.901,331.600 350.436 C 331.600 349.970,331.979 349.592,332.600 349.436 C 333.246 349.274,333.600 348.904,333.600 348.392 C 333.600 347.863,333.869 347.600,334.410 347.600 C 334.993 347.600,335.288 347.258,335.464 346.378 C 335.631 345.543,335.888 345.225,336.275 345.373 C 336.588 345.494,336.732 345.414,336.597 345.195 C 336.463 344.978,336.613 344.800,336.932 344.800 C 337.250 344.800,337.503 344.575,337.493 344.300 C 337.411 342.106,337.619 341.600,338.600 341.600 C 339.400 341.600,339.600 341.400,339.600 340.600 C 339.600 340.050,339.780 339.578,340.000 339.550 C 340.220 339.523,340.625 339.478,340.900 339.450 C 341.427 339.397,341.470 339.235,341.550 337.000 C 341.593 335.787,341.733 335.600,342.600 335.600 C 343.378 335.600,343.600 335.395,343.600 334.676 C 343.600 334.169,343.883 333.404,344.230 332.976 C 344.576 332.549,344.728 332.453,344.568 332.762 C 344.381 333.122,344.436 333.225,344.721 333.049 C 344.965 332.898,345.064 332.510,344.940 332.187 C 344.816 331.864,344.914 331.600,345.157 331.600 C 345.409 331.600,345.600 330.890,345.600 329.951 C 345.600 328.617,345.702 328.387,346.137 328.748 C 346.778 329.280,347.231 328.945,346.930 328.161 C 346.811 327.852,346.914 327.600,347.157 327.600 C 347.421 327.600,347.600 326.803,347.600 325.628 C 347.600 323.887,347.706 323.641,348.500 323.528 C 349.481 323.388,349.477 323.400,349.550 320.200 C 349.587 318.557,349.748 318.000,350.186 318.000 C 351.200 318.000,351.505 316.731,351.578 312.209 C 351.642 308.180,351.970 306.887,352.798 307.399 C 353.952 308.112,353.490 289.846,352.327 288.774 C 351.764 288.254,351.632 287.248,351.558 282.891 C 351.464 277.352,351.412 277.094,350.300 276.683 C 349.755 276.482,349.599 275.956,349.595 274.313 C 349.587 271.435,349.259 270.400,348.353 270.400 C 347.722 270.400,347.599 270.092,347.595 268.500 C 347.587 265.910,347.265 264.910,346.363 264.674 C 345.752 264.515,345.600 264.109,345.600 262.637 C 345.600 261.627,345.420 260.778,345.200 260.750 C 344.980 260.723,344.575 260.678,344.300 260.650 C 344.025 260.623,343.750 260.150,343.688 259.600 C 343.438 257.367,343.176 256.800,342.392 256.800 C 341.671 256.800,341.298 255.513,341.553 253.900 C 341.579 253.735,341.409 253.600,341.176 253.600 C 340.943 253.600,340.867 253.416,341.006 253.190 C 341.145 252.965,341.111 252.806,340.930 252.837 C 339.984 253.002,339.600 252.702,339.600 251.800 C 339.600 251.014,339.397 250.800,338.652 250.800 C 337.815 250.800,337.672 250.563,337.438 248.800 C 337.225 247.197,337.022 246.800,336.414 246.800 C 335.932 246.800,335.609 246.472,335.528 245.900 C 335.446 245.322,335.078 244.954,334.500 244.872 C 333.779 244.770,333.590 244.472,333.550 243.372 C 333.470 241.166,333.426 241.003,332.900 240.950 C 332.625 240.923,332.220 240.878,332.000 240.850 C 331.780 240.822,331.600 240.350,331.600 239.800 C 331.600 239.000,331.400 238.800,330.600 238.800 C 329.870 238.800,329.600 238.586,329.600 238.008 C 329.600 237.504,329.249 237.127,328.635 236.973 C 328.060 236.829,327.571 236.340,327.428 235.768 C 327.295 235.238,327.054 234.825,326.893 234.850 C 326.132 234.967,325.205 234.770,325.247 234.500 C 325.370 233.723,325.164 233.175,324.828 233.383 C 324.623 233.509,324.342 233.430,324.204 233.207 C 324.066 232.983,323.436 232.800,322.804 232.800 C 321.918 232.800,321.626 232.595,321.528 231.900 C 321.446 231.322,321.078 230.954,320.500 230.872 C 319.922 230.790,319.600 230.468,319.600 229.972 C 319.600 229.547,319.465 229.185,319.300 229.167 C 316.780 228.891,315.573 228.542,315.644 228.111 C 315.818 227.048,315.478 226.800,313.843 226.800 C 312.303 226.800,312.056 226.677,311.836 225.800 C 311.607 224.890,310.700 224.533,309.138 224.740 C 308.994 224.759,308.634 224.465,308.338 224.087 C 307.853 223.467,307.868 223.454,308.500 223.949 C 308.887 224.253,309.200 224.315,309.200 224.088 C 309.200 223.676,307.132 222.800,306.161 222.800 C 305.875 222.800,305.154 222.349,304.559 221.797 C 303.963 221.245,303.279 220.816,303.038 220.844 C 301.416 221.032,300.000 220.738,300.000 220.214 C 300.000 219.685,298.489 218.566,298.000 218.733 C 297.738 218.822,297.339 172.631,297.600 172.499 C 297.773 172.411,297.802 167.751,297.633 167.200 C 297.461 166.638,297.429 152.400,297.600 152.400 C 297.710 152.400,297.800 151.140,297.800 149.600 C 297.800 148.060,297.710 146.800,297.600 146.800 C 297.429 146.800,297.461 132.562,297.633 132.000 C 297.880 131.194,297.729 126.802,297.455 126.801 C 297.265 126.801,297.214 126.035,297.341 125.100 C 297.897 121.036,297.763 46.400,297.200 46.400 C 296.937 46.400,296.800 56.262,296.800 75.186 M261.247 49.178 C 257.893 50.893,257.556 54.968,260.536 57.756 C 263.118 60.171,264.952 59.991,267.689 57.056 C 271.617 52.844,266.446 46.520,261.247 49.178 M269.802 62.836 C 255.877 69.743,260.184 90.334,275.600 90.557 C 286.891 90.720,294.963 76.074,287.935 68.174 C 287.531 67.720,287.200 67.165,287.200 66.941 C 287.200 66.297,284.392 64.210,281.694 62.847 C 278.166 61.067,273.379 61.062,269.802 62.836 M295.600 108.800 L 295.600 110.000 284.000 110.000 L 272.400 110.000 272.400 109.067 C 272.400 107.593,272.347 107.600,284.267 107.600 L 295.600 107.600 295.600 108.800 M243.331 119.800 C 243.333 121.340,243.405 121.921,243.492 121.091 C 243.579 120.261,243.577 119.001,243.489 118.291 C 243.400 117.581,243.329 118.260,243.331 119.800 M295.600 128.800 L 295.600 130.000 284.000 130.000 L 272.400 130.000 272.400 128.800 L 272.400 127.600 284.000 127.600 L 295.600 127.600 295.600 128.800 M295.600 149.600 L 295.600 151.600 284.000 151.600 L 272.400 151.600 272.400 149.600 L 272.400 147.600 284.000 147.600 L 295.600 147.600 295.600 149.600 M274.927 163.993 C 277.630 165.519,277.492 165.898,274.102 166.252 C 271.355 166.540,270.800 167.238,270.800 170.406 C 270.800 173.317,271.855 174.000,276.349 174.000 C 280.672 174.000,281.200 174.246,281.200 176.262 C 281.200 177.336,281.517 177.806,283.017 178.951 C 287.533 182.399,287.976 188.558,283.844 190.449 C 283.380 190.661,282.550 191.094,282.000 191.411 C 279.694 192.741,276.713 191.560,274.183 188.313 L 272.768 186.496 269.284 186.319 C 255.062 185.595,252.814 167.223,266.400 162.750 C 268.567 162.037,272.469 162.605,274.927 163.993 M294.967 169.043 C 295.342 169.187,295.600 169.757,295.600 170.443 L 295.600 171.600 284.000 171.600 L 272.400 171.600 272.400 170.414 L 272.400 169.229 276.300 169.098 C 284.110 168.836,294.350 168.806,294.967 169.043 M292.857 295.143 C 296.233 298.519,294.678 302.712,289.903 303.108 C 285.097 303.507,282.918 297.896,286.614 294.634 C 288.971 292.553,290.382 292.668,292.857 295.143 M308.444 318.616 C 311.971 319.860,314.800 323.764,314.800 327.386 C 314.800 335.571,304.454 339.993,298.640 334.294 C 291.297 327.095,298.741 315.192,308.444 318.616 " stroke="none" fill="#62b13c" fill-rule="evenodd"></path><path id="path1" d="M47.502 126.704 C 46.261 128.109,46.753 141.371,48.017 140.590 C 48.181 140.488,48.419 140.674,48.546 141.002 C 48.722 141.463,49.501 141.600,51.943 141.600 C 54.694 141.600,55.104 141.691,55.056 142.288 C 55.015 142.788,55.458 143.076,56.669 143.339 C 57.939 143.614,58.396 143.928,58.577 144.650 C 58.722 145.227,59.109 145.600,59.564 145.600 C 60.030 145.600,60.408 145.979,60.564 146.600 C 60.731 147.265,61.094 147.600,61.645 147.600 C 62.126 147.600,62.559 147.922,62.675 148.366 C 62.785 148.787,63.297 149.238,63.811 149.367 C 64.326 149.496,64.861 149.961,65.000 150.401 C 65.140 150.840,65.491 151.200,65.780 151.200 C 66.506 151.200,66.788 152.499,66.795 155.867 C 66.798 157.444,66.892 158.974,67.004 159.267 C 67.170 159.699,69.563 159.775,79.637 159.668 C 94.138 159.514,93.600 159.378,93.600 163.182 C 93.600 166.565,94.310 166.400,79.781 166.400 L 66.921 166.400 66.840 169.179 L 66.759 171.959 79.650 171.989 C 94.238 172.023,93.600 171.878,93.600 175.169 C 93.600 178.567,94.316 178.400,79.781 178.400 L 66.921 178.400 66.842 181.100 L 66.763 183.800 79.421 183.674 C 94.188 183.527,93.600 183.380,93.600 187.213 C 93.600 190.565,94.182 190.425,80.346 190.400 C 73.666 190.388,67.885 190.383,67.500 190.389 C 66.597 190.403,66.400 207.362,67.300 207.597 C 67.575 207.669,91.633 207.790,120.763 207.867 C 160.952 207.972,173.863 208.121,174.299 208.482 C 174.761 208.865,174.817 209.663,174.586 212.579 C 174.219 217.208,172.855 221.505,169.370 229.000 C 168.859 230.100,168.188 231.848,167.880 232.884 L 167.320 234.769 169.098 235.036 C 172.553 235.554,174.642 235.018,176.577 233.117 C 179.721 230.030,180.990 229.013,182.808 228.126 C 192.226 223.530,200.555 224.864,208.174 232.190 C 211.465 235.353,211.775 235.425,219.615 234.825 C 222.932 234.571,228.233 234.390,231.397 234.421 C 237.593 234.484,238.187 234.358,237.865 233.053 C 236.978 229.450,236.701 228.701,235.997 227.997 C 234.979 226.979,234.912 224.182,235.879 223.112 C 236.659 222.251,236.913 221.200,236.341 221.200 C 236.127 221.200,236.067 221.015,236.207 220.789 C 236.347 220.563,236.070 220.061,235.591 219.673 C 234.386 218.697,234.345 217.953,234.124 192.900 L 233.932 171.200 235.666 171.153 C 236.620 171.127,237.638 171.137,237.930 171.177 C 238.221 171.216,238.716 171.036,239.030 170.775 C 239.343 170.515,239.603 170.459,239.606 170.651 C 239.609 170.843,239.787 170.730,240.000 170.400 C 240.217 170.064,240.385 166.369,240.381 162.000 L 240.375 154.200 239.331 153.439 C 238.495 152.829,238.141 152.770,237.549 153.139 C 237.009 153.476,230.407 153.574,212.905 153.505 L 189.000 153.409 213.000 153.200 L 237.000 152.991 213.100 152.895 L 189.200 152.800 189.200 147.248 L 189.200 141.696 191.606 141.522 C 192.929 141.426,194.206 141.154,194.443 140.917 C 195.135 140.225,195.049 126.804,194.350 126.360 C 193.142 125.592,48.184 125.932,47.502 126.704 M123.600 160.105 C 129.055 163.094,131.247 168.483,129.108 173.647 C 125.339 182.749,113.228 183.172,108.777 174.355 C 104.166 165.220,114.611 155.178,123.600 160.105 M200.185 176.243 C 200.704 176.762,200.806 177.626,200.714 180.743 L 200.600 184.600 188.000 184.710 C 173.327 184.838,174.000 185.027,174.000 180.782 C 174.000 177.920,174.508 176.491,175.694 176.015 C 177.459 175.306,199.453 175.510,200.185 176.243 M199.774 187.590 C 200.769 187.968,200.800 188.088,200.800 191.528 C 200.800 196.792,201.730 196.459,187.426 196.317 L 175.553 196.200 174.786 195.200 C 173.078 192.976,173.884 187.851,176.000 187.483 C 178.089 187.120,198.782 187.213,199.774 187.590 M217.117 208.900 C 221.719 211.360,224.198 218.196,221.809 221.842 C 217.279 228.755,209.546 229.009,204.804 222.400 C 202.275 218.874,204.058 211.513,207.916 209.553 C 208.617 209.197,209.418 208.721,209.695 208.496 C 211.270 207.217,214.274 207.381,217.117 208.900 M219.000 249.654 C 214.451 251.121,209.014 259.402,211.565 260.978 C 211.766 261.103,212.056 261.949,212.210 262.860 C 212.820 266.472,221.350 271.945,223.420 270.053 C 223.629 269.862,224.637 269.394,225.659 269.014 C 227.483 268.336,231.200 264.986,231.200 264.021 C 231.200 263.768,231.560 262.816,232.000 261.906 C 232.440 260.995,232.800 259.916,232.800 259.509 C 232.800 259.101,232.440 258.062,232.000 257.200 C 231.560 256.338,231.200 255.375,231.200 255.061 C 231.200 253.798,227.000 250.310,224.561 249.549 C 221.776 248.679,222.037 248.674,219.000 249.654 M97.619 267.651 C 91.008 269.632,90.355 278.634,96.600 281.697 C 100.548 283.633,105.344 281.413,106.810 276.969 C 108.512 271.812,102.860 266.081,97.619 267.651 M124.400 282.170 C 123.630 282.464,122.370 282.934,121.600 283.216 C 118.095 284.496,112.834 289.713,112.786 291.956 C 112.779 292.310,112.425 293.320,112.000 294.200 C 111.480 295.277,111.227 296.649,111.227 298.400 C 111.227 300.151,111.480 301.523,112.000 302.600 C 112.425 303.480,112.779 304.501,112.786 304.869 C 112.794 305.237,113.219 306.047,113.732 306.669 C 114.244 307.291,114.768 308.087,114.896 308.438 C 115.225 309.345,119.208 312.643,120.400 312.995 C 120.950 313.158,121.961 313.631,122.647 314.046 C 124.056 314.898,129.452 315.122,130.828 314.385 C 131.596 313.974,133.871 309.560,134.773 306.732 C 135.030 305.925,135.502 305.048,135.820 304.783 C 136.139 304.518,136.401 304.009,136.402 303.651 C 136.402 303.293,136.942 301.920,137.600 300.600 C 138.258 299.280,138.798 297.909,138.798 297.554 C 138.799 297.199,139.160 296.450,139.600 295.891 C 140.040 295.331,140.400 294.585,140.400 294.233 C 140.400 293.880,140.778 292.788,141.239 291.806 L 142.078 290.021 141.210 288.617 C 140.036 286.717,136.518 283.780,134.800 283.267 C 134.030 283.037,132.680 282.575,131.800 282.242 C 129.823 281.492,126.265 281.457,124.400 282.170 M176.535 283.947 C 175.619 284.111,174.629 284.436,174.335 284.670 C 174.041 284.904,172.831 285.322,171.648 285.600 C 170.464 285.878,169.204 286.359,168.848 286.670 C 168.491 286.980,167.201 288.017,165.981 288.973 C 162.507 291.695,159.879 295.681,158.842 299.799 C 158.566 300.894,158.129 302.044,157.870 302.356 C 157.263 303.089,157.255 308.500,157.861 309.239 C 158.114 309.547,158.528 310.610,158.780 311.600 C 160.548 318.552,167.373 325.423,173.686 326.605 C 174.503 326.758,175.380 327.135,175.635 327.442 C 175.970 327.846,177.121 328.000,179.800 328.000 C 182.479 328.000,183.630 327.846,183.965 327.442 C 184.220 327.135,185.097 326.758,185.914 326.605 C 188.918 326.043,195.569 322.222,195.593 321.046 C 195.597 320.851,196.005 320.280,196.500 319.777 C 198.739 317.500,200.019 314.925,201.260 310.200 C 201.925 307.666,201.415 300.543,200.424 298.519 C 199.971 297.595,199.600 296.574,199.600 296.250 C 199.600 295.926,199.150 295.127,198.600 294.473 C 198.050 293.819,197.600 293.090,197.600 292.851 C 197.600 292.613,197.150 292.124,196.600 291.763 C 196.050 291.403,195.600 290.859,195.600 290.554 C 195.600 290.249,195.427 290.000,195.216 290.000 C 195.005 290.000,194.330 289.541,193.716 288.981 C 191.844 287.272,189.666 286.028,187.685 285.536 C 186.648 285.279,185.427 284.829,184.972 284.535 C 183.972 283.892,178.846 283.535,176.535 283.947 M209.191 327.504 C 207.066 328.538,204.840 330.505,204.610 331.555 C 204.469 332.194,204.005 333.034,203.577 333.421 C 202.484 334.410,202.498 338.191,203.600 339.600 C 204.030 340.150,204.386 340.793,204.391 341.028 C 204.404 341.654,206.440 343.749,207.600 344.330 C 208.150 344.606,209.050 345.092,209.600 345.410 C 213.566 347.703,220.865 343.144,221.475 337.992 C 221.909 334.333,221.267 332.324,218.891 329.904 C 216.666 327.638,211.530 326.367,209.191 327.504 " stroke="none" fill="#f5bb87" fill-rule="evenodd"></path><path id="path2" d="M194.951 133.600 C 194.951 136.130,195.016 137.165,195.096 135.900 C 195.175 134.635,195.175 132.565,195.096 131.300 C 195.016 130.035,194.951 131.070,194.951 133.600 M66.546 156.200 C 66.547 158.400,66.614 159.249,66.695 158.087 C 66.776 156.924,66.776 155.124,66.693 154.087 C 66.611 153.049,66.545 154.000,66.546 156.200 M117.000 158.819 C 107.425 161.083,104.524 172.141,111.888 178.306 C 120.230 185.290,132.969 176.364,129.165 166.200 C 127.365 161.387,121.412 157.775,117.000 158.819 M66.534 169.200 C 66.534 170.850,66.605 171.525,66.691 170.700 C 66.778 169.875,66.778 168.525,66.691 167.700 C 66.605 166.875,66.534 167.550,66.534 169.200 M66.534 181.200 C 66.534 182.850,66.605 183.525,66.691 182.700 C 66.778 181.875,66.778 180.525,66.691 179.700 C 66.605 178.875,66.534 179.550,66.534 181.200 M66.488 266.880 C 66.412 332.995,66.479 343.604,66.972 343.880 C 67.537 344.197,67.594 344.325,67.606 345.300 C 67.610 345.633,67.742 345.600,68.000 345.200 C 68.268 344.785,68.390 345.593,68.394 347.820 C 68.398 349.834,68.587 351.242,68.900 351.579 C 69.306 352.016,69.287 352.063,68.800 351.830 C 68.470 351.672,68.695 351.967,69.300 352.486 C 69.905 353.005,70.400 353.825,70.400 354.307 C 70.400 354.910,70.714 355.263,71.400 355.436 C 72.184 355.633,72.400 355.942,72.400 356.867 C 72.400 357.552,72.568 357.943,72.800 357.800 C 73.020 357.664,73.201 357.788,73.201 358.076 C 73.202 358.364,73.741 358.960,74.400 359.400 C 75.543 360.163,76.145 361.161,75.100 360.559 C 74.814 360.395,74.741 360.426,74.928 360.631 C 75.266 361.000,75.429 361.035,77.300 361.139 C 78.091 361.183,78.400 361.413,78.400 361.957 C 78.400 362.847,79.148 363.200,81.033 363.200 C 82.269 363.200,82.467 363.360,82.370 364.284 C 82.283 365.124,110.227 365.710,111.435 364.894 C 112.020 364.499,112.347 363.198,112.794 359.484 C 113.036 357.474,113.458 355.961,113.984 355.222 C 114.433 354.592,114.801 353.744,114.801 353.338 C 114.802 352.932,115.140 352.048,115.552 351.372 C 115.963 350.697,116.434 349.707,116.598 349.172 C 116.762 348.638,117.435 347.030,118.093 345.600 C 118.751 344.170,119.609 342.280,120.000 341.400 C 120.391 340.520,121.162 338.810,121.714 337.600 C 122.267 336.390,122.849 334.962,123.009 334.427 C 123.169 333.891,123.728 332.650,124.250 331.667 C 124.773 330.685,125.200 329.621,125.200 329.304 C 125.200 328.986,125.560 328.269,126.000 327.709 C 126.440 327.150,126.800 326.291,126.800 325.800 C 126.800 325.309,127.133 324.479,127.539 323.954 C 127.945 323.429,128.399 322.504,128.547 321.899 C 128.695 321.293,129.911 318.503,131.250 315.699 C 134.997 307.852,135.200 307.391,135.200 306.723 C 135.200 306.379,135.469 305.875,135.797 305.602 C 136.126 305.330,136.592 304.363,136.834 303.453 C 137.076 302.544,137.514 301.530,137.806 301.200 C 138.098 300.870,138.458 300.060,138.604 299.400 C 138.776 298.625,138.434 299.050,137.637 300.600 C 136.958 301.920,136.402 303.293,136.402 303.651 C 136.401 304.009,136.139 304.518,135.820 304.783 C 135.502 305.048,135.030 305.925,134.773 306.732 C 133.871 309.560,131.596 313.974,130.828 314.385 C 129.452 315.122,124.056 314.898,122.647 314.046 C 121.961 313.631,120.950 313.158,120.400 312.995 C 119.208 312.643,115.225 309.345,114.896 308.438 C 114.768 308.087,114.244 307.291,113.732 306.669 C 113.219 306.047,112.794 305.237,112.786 304.869 C 112.779 304.501,112.425 303.480,112.000 302.600 C 111.480 301.523,111.227 300.151,111.227 298.400 C 111.227 296.649,111.480 295.277,112.000 294.200 C 112.425 293.320,112.779 292.310,112.786 291.956 C 112.901 286.514,125.542 279.949,131.600 282.185 C 132.590 282.550,134.030 283.037,134.800 283.267 C 136.517 283.780,140.036 286.717,141.210 288.617 L 142.078 290.021 141.239 291.806 C 140.778 292.788,140.414 293.908,140.432 294.296 C 140.450 294.702,140.641 294.492,140.884 293.800 C 141.115 293.140,141.524 292.330,141.791 292.000 C 142.059 291.670,142.510 290.540,142.794 289.490 C 143.078 288.439,143.452 287.492,143.626 287.384 C 143.799 287.277,144.154 286.516,144.414 285.694 C 144.850 284.312,145.735 282.234,147.603 278.200 C 150.238 272.510,150.800 271.191,150.800 270.702 C 150.800 270.400,151.067 269.804,151.394 269.376 C 151.720 268.949,152.187 267.886,152.432 267.014 C 152.677 266.142,153.220 264.993,153.639 264.460 C 154.057 263.928,154.400 263.204,154.400 262.852 C 154.400 262.500,154.829 261.309,155.354 260.206 C 155.878 259.103,156.890 256.850,157.603 255.200 C 159.226 251.439,160.607 248.375,161.841 245.794 C 162.368 244.691,162.800 243.498,162.800 243.143 C 162.800 242.788,163.041 242.298,163.335 242.054 C 163.630 241.809,164.094 240.842,164.368 239.905 C 165.123 237.317,166.711 235.210,167.954 235.146 C 168.804 235.101,168.843 235.060,168.161 234.926 C 167.190 234.734,167.570 232.873,169.370 229.000 C 172.855 221.505,174.219 217.208,174.586 212.579 C 174.817 209.663,174.761 208.865,174.299 208.482 C 173.863 208.120,161.043 207.981,120.963 207.903 C 91.943 207.846,67.930 207.710,67.600 207.600 C 67.101 207.434,66.965 205.959,66.788 198.800 C 66.672 194.070,66.537 224.706,66.488 266.880 M103.653 268.842 C 107.633 271.994,108.256 276.133,105.282 279.667 C 101.374 284.312,94.264 282.784,92.564 276.934 C 90.607 270.204,98.292 264.596,103.653 268.842 M139.441 296.063 C 139.088 296.566,138.801 297.253,138.801 297.589 C 138.802 297.925,139.172 297.595,139.623 296.855 C 140.559 295.320,140.411 294.678,139.441 296.063 " stroke="none" fill="#faa31c" fill-rule="evenodd"></path><path id="path3" d="M199.600 17.645 C 198.830 17.875,198.029 18.229,197.820 18.431 C 197.611 18.634,197.097 18.800,196.677 18.800 C 196.155 18.800,195.989 18.994,196.151 19.416 C 196.289 19.777,196.183 20.006,195.894 19.969 C 194.915 19.843,194.400 20.008,194.400 20.449 C 194.400 20.741,194.633 20.706,195.065 20.349 C 195.635 19.878,195.700 19.885,195.521 20.400 C 195.406 20.730,194.947 20.961,194.501 20.913 C 193.451 20.800,191.600 22.518,191.600 23.605 C 191.600 24.140,191.769 24.343,192.062 24.162 C 192.350 23.984,192.415 24.052,192.234 24.345 C 192.075 24.602,191.769 24.705,191.555 24.572 C 191.306 24.418,191.188 26.890,191.229 31.386 C 191.264 35.266,191.390 38.343,191.510 38.224 C 191.792 37.941,192.800 38.780,192.800 39.298 C 192.800 39.518,192.485 39.460,192.100 39.168 C 191.496 38.711,191.471 38.718,191.920 39.219 C 192.206 39.539,192.645 39.800,192.895 39.800 C 193.145 39.800,193.501 40.385,193.686 41.100 C 193.871 41.815,194.214 42.400,194.447 42.400 C 194.681 42.400,195.200 42.805,195.600 43.300 C 196.411 44.302,208.444 44.855,210.934 44.005 C 212.145 43.592,213.982 42.044,213.993 41.428 C 213.997 41.224,214.630 40.480,215.400 39.774 L 216.800 38.492 216.800 31.607 C 216.800 24.717,216.321 22.000,215.105 22.000 C 214.865 22.000,214.891 22.228,215.170 22.564 C 215.451 22.902,215.487 23.223,215.261 23.362 C 214.807 23.643,214.298 22.488,214.636 21.942 C 216.162 19.473,204.576 16.161,199.600 17.645 M206.200 18.200 C 206.200 18.695,203.847 18.949,202.466 18.602 C 201.651 18.398,201.560 18.268,202.021 17.968 C 202.766 17.484,206.200 17.674,206.200 18.200 M200.197 18.395 C 200.337 18.622,200.177 18.689,199.821 18.553 C 199.478 18.421,199.200 18.524,199.200 18.781 C 199.200 19.037,199.001 19.124,198.757 18.974 C 198.449 18.783,198.479 18.596,198.857 18.356 C 199.570 17.905,199.900 17.914,200.197 18.395 M182.900 74.691 C 182.625 74.787,182.400 75.078,182.400 75.337 C 182.400 75.596,182.040 76.032,181.600 76.307 C 180.613 76.923,180.569 76.535,181.500 75.438 C 182.180 74.637,182.177 74.631,181.400 75.206 C 180.141 76.139,179.200 77.274,179.200 77.861 C 179.200 78.158,178.869 78.400,178.464 78.400 C 178.060 78.400,177.523 78.850,177.273 79.400 C 176.991 80.018,176.487 80.400,175.953 80.400 C 175.477 80.400,174.843 80.715,174.543 81.100 C 174.033 81.755,174.015 81.751,174.267 81.034 C 174.672 79.880,173.636 80.653,173.184 81.842 C 172.983 82.372,172.589 82.760,172.309 82.703 C 172.016 82.644,171.746 83.072,171.673 83.709 C 171.602 84.319,171.107 85.290,170.573 85.867 L 169.600 86.917 169.600 97.067 L 169.600 107.217 170.600 107.673 C 171.158 107.927,171.626 108.498,171.659 108.964 C 171.692 109.424,171.739 110.070,171.765 110.400 C 171.823 111.148,174.018 113.600,174.631 113.600 C 174.880 113.600,175.572 114.053,176.169 114.607 C 176.767 115.160,177.423 115.509,177.628 115.383 C 177.832 115.256,178.000 115.351,178.000 115.594 C 178.000 115.837,178.315 115.982,178.700 115.918 C 179.173 115.838,179.443 116.102,179.532 116.731 C 179.621 117.359,179.855 117.588,180.253 117.435 C 180.583 117.308,180.734 117.382,180.597 117.605 C 180.463 117.822,180.569 118.000,180.832 118.000 C 181.096 118.000,181.542 118.315,181.823 118.700 C 182.276 119.320,183.247 119.411,190.311 119.500 L 198.287 119.601 200.444 118.438 C 201.667 117.779,202.579 117.017,202.551 116.678 C 202.522 116.320,202.965 115.987,203.651 115.850 C 204.462 115.688,204.800 115.382,204.800 114.810 C 204.800 114.348,205.064 114.000,205.414 114.000 C 206.364 114.000,208.062 112.740,207.852 112.191 C 207.746 111.914,207.955 111.721,208.332 111.750 C 208.752 111.781,209.000 111.500,209.000 110.993 C 209.000 110.549,209.497 109.649,210.104 108.993 C 210.711 108.337,211.122 107.575,211.017 107.300 C 210.911 107.025,211.100 106.800,211.436 106.800 C 211.793 106.800,211.942 107.008,211.794 107.300 C 211.655 107.575,211.812 107.466,212.145 107.059 C 213.126 105.854,213.095 89.799,212.110 88.674 C 211.440 87.910,211.440 87.879,212.100 88.120 C 212.485 88.260,212.800 88.201,212.800 87.987 C 212.800 87.774,212.451 87.600,212.024 87.600 C 211.016 87.600,210.777 87.166,210.663 85.137 C 210.601 84.029,210.328 83.322,209.849 83.034 C 208.454 82.193,204.351 78.799,204.674 78.753 C 204.853 78.727,204.460 78.586,203.800 78.440 C 203.032 78.270,202.636 77.954,202.700 77.562 C 202.871 76.520,200.599 74.669,199.425 74.893 C 198.861 75.001,198.400 74.952,198.400 74.784 C 198.400 74.468,183.783 74.380,182.900 74.691 M214.419 112.637 C 213.879 112.922,213.098 113.570,212.684 114.077 C 212.270 114.585,212.061 114.752,212.221 114.448 C 212.415 114.080,212.326 113.958,211.956 114.083 C 211.650 114.185,211.399 114.593,211.398 114.989 C 211.397 115.386,211.001 115.856,210.519 116.034 C 206.592 117.487,206.517 134.469,210.434 135.493 C 210.855 135.603,211.201 135.987,211.203 136.347 C 211.205 136.936,211.980 137.536,214.699 139.050 C 215.322 139.398,217.779 139.554,222.723 139.561 L 229.849 139.571 231.725 137.849 C 232.756 136.902,233.600 135.990,233.600 135.821 C 233.600 135.653,234.050 135.161,234.600 134.729 C 235.150 134.296,235.600 133.608,235.600 133.200 C 235.600 132.791,235.836 132.219,236.124 131.929 C 236.726 131.321,237.038 120.000,236.453 120.000 C 236.264 120.000,236.161 119.536,236.223 118.969 C 236.308 118.201,236.187 117.996,235.747 118.165 C 235.423 118.289,235.265 118.218,235.396 118.007 C 236.040 116.964,233.259 114.043,231.900 114.335 C 231.735 114.371,231.600 114.149,231.600 113.843 C 231.600 113.117,230.515 112.703,230.237 113.322 C 230.120 113.585,230.063 113.440,230.112 113.000 C 230.223 111.993,216.253 111.670,214.419 112.637 M215.112 113.265 C 215.026 113.521,214.606 113.779,214.178 113.840 C 213.408 113.948,213.408 113.943,214.176 113.375 C 215.117 112.678,215.315 112.655,215.112 113.265 M189.200 151.985 C 189.200 152.267,197.112 152.400,213.869 152.400 C 236.295 152.400,238.604 152.460,239.271 153.064 C 239.675 153.430,240.127 153.607,240.276 153.458 C 240.617 153.117,239.833 152.312,238.904 152.048 C 237.416 151.626,189.200 151.565,189.200 151.985 M66.493 162.400 C 66.493 163.170,66.575 163.485,66.676 163.100 C 66.776 162.715,66.776 162.085,66.676 161.700 C 66.575 161.315,66.493 161.630,66.493 162.400 M66.520 175.200 C 66.520 176.410,66.595 176.905,66.687 176.300 C 66.778 175.695,66.778 174.705,66.687 174.100 C 66.595 173.495,66.520 173.990,66.520 175.200 M66.520 187.200 C 66.520 188.410,66.595 188.905,66.687 188.300 C 66.778 187.695,66.778 186.705,66.687 186.100 C 66.595 185.495,66.520 185.990,66.520 187.200 M210.815 210.070 C 209.131 210.553,206.767 212.552,206.140 214.024 C 205.886 214.618,205.481 215.226,205.240 215.376 C 204.680 215.721,204.661 219.467,205.217 219.810 C 205.446 219.952,205.916 220.773,206.260 221.634 C 206.605 222.495,207.038 223.200,207.223 223.200 C 207.408 223.200,208.035 223.642,208.618 224.181 C 212.902 228.152,221.411 223.757,221.384 217.588 C 221.362 212.434,215.962 208.593,210.815 210.070 M189.212 227.702 C 187.130 228.129,184.991 228.821,184.459 229.239 C 183.927 229.658,183.271 230.000,183.001 230.000 C 182.392 230.000,179.995 231.848,177.540 234.210 L 175.680 236.000 171.069 236.000 C 165.803 236.000,165.400 236.228,164.407 239.774 C 164.128 240.770,163.653 241.790,163.350 242.041 C 163.048 242.292,162.800 242.788,162.800 243.143 C 162.800 243.498,162.368 244.691,161.841 245.794 C 160.607 248.375,159.226 251.439,157.603 255.200 C 156.890 256.850,155.878 259.103,155.354 260.206 C 154.829 261.309,154.400 262.500,154.400 262.852 C 154.400 263.204,154.057 263.928,153.639 264.460 C 153.220 264.993,152.677 266.142,152.432 267.014 C 152.187 267.886,151.720 268.949,151.394 269.376 C 151.067 269.804,150.800 270.400,150.800 270.702 C 150.800 271.191,150.238 272.510,147.603 278.200 C 145.735 282.234,144.850 284.312,144.414 285.694 C 144.154 286.516,143.796 287.279,143.618 287.389 C 143.439 287.499,143.169 288.582,143.018 289.795 C 142.866 291.008,142.477 292.266,142.153 292.590 C 141.828 292.915,141.301 294.063,140.980 295.142 C 140.660 296.221,140.147 297.312,139.841 297.566 C 139.534 297.821,139.160 298.688,139.009 299.493 C 138.858 300.298,138.389 301.396,137.967 301.933 C 137.545 302.469,137.200 303.273,137.200 303.719 C 137.200 304.165,136.775 305.266,136.257 306.165 C 135.738 307.064,135.187 308.326,135.032 308.968 C 134.877 309.611,134.402 310.580,133.975 311.122 C 133.549 311.664,133.200 312.437,133.200 312.840 C 133.200 313.243,132.697 314.163,132.081 314.886 C 130.965 316.197,128.400 321.411,128.400 322.369 C 128.400 322.647,128.040 323.331,127.600 323.891 C 127.160 324.450,126.800 325.309,126.800 325.800 C 126.800 326.291,126.440 327.150,126.000 327.709 C 125.560 328.269,125.200 328.986,125.200 329.304 C 125.200 329.621,124.773 330.685,124.250 331.667 C 123.728 332.650,123.169 333.891,123.009 334.427 C 122.849 334.962,122.267 336.390,121.714 337.600 C 121.162 338.810,120.391 340.520,120.000 341.400 C 119.609 342.280,118.751 344.170,118.093 345.600 C 117.435 347.030,116.762 348.638,116.598 349.172 C 116.434 349.707,115.963 350.697,115.552 351.372 C 115.140 352.048,114.802 352.932,114.801 353.338 C 114.801 353.744,114.439 354.584,113.997 355.204 C 113.555 355.824,113.097 357.202,112.979 358.266 C 112.438 363.133,111.933 364.802,110.923 365.055 C 109.655 365.373,109.789 366.942,111.100 367.128 C 111.922 367.245,112.001 367.471,112.006 369.728 C 112.009 371.088,112.187 372.470,112.400 372.800 C 112.686 373.243,112.789 373.262,112.794 372.871 C 112.804 372.018,114.038 373.448,114.110 374.396 C 114.151 374.949,114.455 375.200,115.085 375.200 C 115.794 375.200,116.000 375.425,116.000 376.200 C 116.000 377.000,116.200 377.200,117.000 377.200 C 117.800 377.200,118.000 377.400,118.000 378.200 C 118.000 378.972,118.206 379.200,118.904 379.200 C 119.401 379.200,120.037 379.567,120.317 380.016 C 120.597 380.464,121.000 380.723,121.213 380.592 C 121.426 380.460,121.600 380.544,121.600 380.778 C 121.600 381.236,284.189 381.409,285.377 380.953 C 285.720 380.822,286.000 380.374,286.000 379.957 C 286.000 379.416,286.286 379.200,287.000 379.200 C 287.786 379.200,288.000 378.997,288.000 378.251 C 288.000 377.455,288.255 377.261,289.587 377.048 C 291.295 376.775,292.000 375.951,292.000 374.226 C 292.000 373.398,292.193 373.200,293.000 373.200 C 293.933 373.200,294.000 373.067,294.000 371.200 C 294.000 369.710,294.149 369.200,294.586 369.200 C 295.361 369.200,296.000 367.947,296.000 366.426 C 296.000 365.412,295.840 365.200,295.076 365.200 C 293.203 365.200,292.836 364.471,292.560 360.200 C 292.346 356.883,292.167 356.092,291.509 355.567 C 291.004 355.163,290.641 354.262,290.508 353.078 C 290.360 351.764,290.089 351.155,289.582 350.994 C 289.113 350.845,288.767 350.184,288.581 349.083 C 288.425 348.157,287.959 346.968,287.544 346.440 C 287.129 345.912,286.679 344.787,286.544 343.940 C 286.409 343.093,286.132 342.400,285.928 342.400 C 285.444 342.400,284.400 339.879,284.400 338.709 C 284.400 338.205,284.057 337.578,283.639 337.317 C 283.186 337.035,282.759 336.143,282.587 335.122 C 282.427 334.176,281.976 333.178,281.584 332.904 C 281.192 332.629,280.746 331.664,280.593 330.760 C 280.440 329.855,279.984 328.784,279.580 328.380 C 279.176 327.976,278.722 326.960,278.573 326.122 C 278.423 325.285,277.986 324.240,277.600 323.800 C 277.214 323.360,276.772 322.289,276.616 321.420 C 276.461 320.551,276.068 319.646,275.744 319.409 C 275.420 319.172,274.984 318.217,274.775 317.286 C 274.566 316.356,274.036 315.236,273.597 314.797 C 273.159 314.359,272.800 313.495,272.800 312.878 C 272.800 312.260,272.368 311.170,271.840 310.454 C 271.312 309.739,270.756 308.489,270.605 307.677 C 270.453 306.865,270.011 305.902,269.622 305.538 C 269.233 305.173,268.801 304.169,268.663 303.305 C 268.525 302.442,268.049 301.407,267.606 301.005 C 267.163 300.604,266.800 299.799,266.800 299.216 C 266.800 298.633,266.350 297.545,265.800 296.800 C 265.250 296.055,264.800 294.949,264.800 294.343 C 264.800 293.722,264.363 292.770,263.800 292.162 C 263.202 291.517,262.800 290.608,262.800 289.899 C 262.800 289.220,262.374 288.209,261.800 287.527 C 261.250 286.873,260.800 285.840,260.800 285.231 C 260.800 284.622,260.444 283.801,260.008 283.407 C 259.572 283.013,259.097 282.055,258.951 281.279 C 258.805 280.503,258.262 279.242,257.743 278.478 C 257.224 277.714,256.800 276.698,256.800 276.222 C 256.800 275.745,256.350 274.745,255.800 274.000 C 255.250 273.255,254.800 272.123,254.800 271.486 C 254.800 270.807,254.464 270.054,253.988 269.664 C 253.541 269.299,253.061 268.284,252.921 267.410 C 252.781 266.535,252.331 265.545,251.921 265.210 C 251.511 264.874,251.067 263.880,250.935 263.000 C 250.803 262.120,250.373 261.040,249.979 260.600 C 249.586 260.160,249.136 259.080,248.979 258.200 C 248.822 257.320,248.366 256.286,247.965 255.902 C 247.565 255.517,247.115 254.527,246.965 253.702 C 246.816 252.876,246.380 251.899,245.997 251.531 C 245.614 251.164,245.175 250.194,245.022 249.377 C 244.869 248.560,244.383 247.403,243.942 246.807 C 243.501 246.211,243.040 244.975,242.918 244.061 C 242.789 243.102,242.480 242.400,242.186 242.400 C 241.677 242.400,240.811 240.443,240.787 239.240 C 240.780 238.888,240.362 238.132,239.859 237.561 L 238.943 236.521 224.784 236.228 C 216.997 236.067,210.316 235.769,209.937 235.566 C 209.558 235.364,208.113 234.193,206.724 232.966 C 205.336 231.738,203.750 230.532,203.200 230.286 C 202.650 230.040,201.750 229.541,201.200 229.177 C 200.386 228.639,196.920 227.664,193.599 227.039 C 193.268 226.977,191.294 227.276,189.212 227.702 M226.607 248.583 C 236.256 253.714,236.300 265.215,226.691 270.363 C 224.073 271.765,220.242 272.068,218.400 271.018 C 217.850 270.705,216.860 270.191,216.200 269.877 C 211.470 267.626,207.865 258.753,210.450 255.724 C 210.790 255.326,211.298 254.420,211.578 253.710 C 212.144 252.279,215.263 249.200,216.147 249.200 C 216.457 249.200,217.136 248.846,217.656 248.413 C 219.139 247.178,224.142 247.273,226.607 248.583 M188.499 283.916 C 189.543 284.413,190.848 284.990,191.399 285.200 C 191.949 285.409,192.400 285.753,192.400 285.963 C 192.400 286.174,192.715 286.450,193.100 286.577 C 193.985 286.868,197.589 290.235,198.620 291.733 C 199.685 293.281,201.485 296.385,202.022 297.600 C 203.308 300.514,203.307 311.073,202.020 314.000 C 200.801 316.771,197.913 321.139,196.503 322.341 C 195.897 322.859,194.600 323.982,193.622 324.836 C 192.644 325.691,191.204 326.595,190.422 326.845 C 189.640 327.096,188.190 327.679,187.200 328.141 C 184.511 329.396,175.046 329.401,172.400 328.148 C 171.410 327.679,170.178 327.166,169.662 327.009 C 165.694 325.796,158.000 317.321,158.000 314.162 C 158.000 313.957,157.602 313.071,157.116 312.194 C 155.802 309.823,155.794 302.264,157.103 299.522 C 157.597 298.489,158.000 297.459,158.000 297.234 C 158.000 294.706,165.497 286.063,168.660 284.944 C 169.067 284.800,170.120 284.372,171.000 283.993 C 171.880 283.614,172.870 283.197,173.200 283.066 C 174.961 282.369,186.606 283.016,188.499 283.916 M216.983 326.567 C 220.327 327.966,223.200 332.513,223.200 336.408 C 223.200 347.218,208.962 351.385,203.125 342.282 C 200.580 338.312,201.992 328.451,205.113 328.407 C 205.394 328.403,205.734 328.116,205.867 327.769 C 206.590 325.884,213.549 325.132,216.983 326.567 M66.400 343.936 C 66.400 344.107,66.660 344.596,66.977 345.024 C 67.538 345.779,67.552 345.776,67.492 344.910 C 67.438 344.111,66.400 343.186,66.400 343.936 M68.605 351.898 C 68.678 352.284,68.753 352.735,68.769 352.900 C 68.786 353.065,69.115 353.195,69.500 353.188 C 70.161 353.176,70.161 353.153,69.492 352.763 C 69.102 352.536,68.880 352.194,68.998 352.003 C 69.116 351.812,69.046 351.552,68.842 351.426 C 68.637 351.299,68.531 351.512,68.605 351.898 M72.719 357.814 C 72.278 358.255,72.843 359.200,73.543 359.194 C 73.956 359.190,74.037 359.079,73.760 358.894 C 73.518 358.732,73.244 358.364,73.152 358.075 C 73.059 357.786,72.864 357.669,72.719 357.814 M75.000 360.400 C 75.398 360.840,75.904 361.200,76.123 361.200 C 76.343 361.200,76.107 360.840,75.600 360.400 C 75.093 359.960,74.587 359.600,74.477 359.600 C 74.366 359.600,74.602 359.960,75.000 360.400 " stroke="none" fill="#ec441c" fill-rule="evenodd"></path><path id="path4" d="M239.500 31.072 C 238.865 31.241,238.800 31.957,238.800 38.829 L 238.800 46.400 241.798 46.400 L 244.796 46.400 244.898 81.300 L 245.000 116.200 245.896 116.327 C 246.561 116.422,246.916 116.164,247.271 115.327 C 247.919 113.800,249.938 111.664,251.400 110.958 C 252.060 110.639,253.050 110.116,253.600 109.795 C 254.827 109.079,259.075 109.022,260.246 109.706 C 260.711 109.978,261.837 110.609,262.749 111.110 C 264.871 112.275,267.092 115.299,267.427 117.482 C 267.923 120.713,270.074 121.670,271.288 119.200 C 273.399 114.905,278.226 114.686,279.667 118.820 C 280.244 120.475,281.744 120.801,288.760 120.794 C 295.340 120.787,296.001 120.650,296.105 119.264 C 296.141 118.789,296.312 118.400,296.485 118.400 C 297.011 118.400,296.814 113.452,296.260 112.723 C 295.800 112.118,294.468 112.032,283.840 111.923 C 272.593 111.807,271.903 111.757,271.367 111.024 C 270.682 110.085,270.625 107.222,271.264 105.819 L 271.728 104.800 283.491 104.800 C 290.833 104.800,295.543 104.644,296.026 104.386 C 296.780 103.982,296.800 103.236,296.800 75.186 L 296.800 46.400 299.936 46.400 C 303.996 46.400,304.077 46.248,303.963 38.896 C 303.891 34.277,303.783 33.471,303.180 33.095 C 302.791 32.852,302.581 32.394,302.708 32.063 C 302.847 31.699,302.768 31.573,302.502 31.737 C 302.264 31.884,301.993 31.779,301.901 31.502 C 301.736 31.008,241.304 30.591,239.500 31.072 M265.647 49.025 C 270.358 51.460,270.175 56.537,265.283 59.156 C 262.946 60.406,258.400 56.934,258.400 53.898 C 258.400 50.184,262.525 47.410,265.647 49.025 M281.694 62.847 C 284.392 64.210,287.200 66.297,287.200 66.941 C 287.200 67.165,287.531 67.720,287.935 68.174 C 290.247 70.774,290.979 76.615,289.490 80.600 C 284.803 93.151,268.851 94.151,262.707 82.278 C 256.666 70.607,270.011 56.950,281.694 62.847 M266.400 162.750 C 252.814 167.223,255.062 185.595,269.284 186.319 L 272.768 186.496 274.183 188.313 C 276.713 191.560,279.694 192.741,282.000 191.411 C 282.550 191.094,283.380 190.661,283.844 190.449 C 287.976 188.558,287.533 182.399,283.017 178.951 C 281.517 177.806,281.200 177.336,281.200 176.262 C 281.200 174.246,280.672 174.000,276.349 174.000 C 271.855 174.000,270.800 173.317,270.800 170.406 C 270.800 167.238,271.355 166.540,274.102 166.252 C 277.492 165.898,277.630 165.519,274.927 163.993 C 272.469 162.605,268.567 162.037,266.400 162.750 M236.080 223.280 C 235.323 224.037,235.506 226.573,236.400 227.709 C 236.840 228.269,237.200 228.975,237.200 229.279 C 237.200 229.582,237.540 230.498,237.956 231.314 C 238.372 232.130,238.825 233.243,238.961 233.788 C 239.098 234.332,239.550 234.959,239.967 235.182 C 240.899 235.681,240.274 232.934,238.837 230.215 C 238.377 229.344,238.000 228.382,238.000 228.077 C 238.000 227.773,237.621 226.991,237.158 226.341 C 236.603 225.562,236.375 224.755,236.488 223.979 C 236.584 223.330,236.639 222.800,236.611 222.800 C 236.583 222.800,236.344 223.016,236.080 223.280 M286.614 294.634 C 282.918 297.896,285.097 303.507,289.903 303.108 C 294.678 302.712,296.233 298.519,292.857 295.143 C 290.382 292.668,288.971 292.553,286.614 294.634 M301.850 318.588 C 296.716 320.417,294.055 326.949,296.612 331.440 C 300.689 338.598,309.586 338.815,313.570 331.853 C 317.812 324.439,310.057 315.662,301.850 318.588 " stroke="none" fill="#93cb82" fill-rule="evenodd"></path><path id="path5" d="M198.800 18.000 C 199.294 18.319,199.300 18.389,198.833 18.394 C 198.522 18.397,198.361 18.494,198.476 18.609 C 198.591 18.725,198.996 18.700,199.376 18.554 C 200.086 18.281,199.535 17.612,198.600 17.612 C 198.380 17.612,198.470 17.787,198.800 18.000 M203.305 17.887 C 203.914 17.979,204.814 17.977,205.305 17.882 C 205.797 17.787,205.300 17.711,204.200 17.714 C 203.100 17.717,202.697 17.795,203.305 17.887 M215.100 21.865 C 215.375 21.976,215.600 22.242,215.600 22.457 C 215.600 22.672,215.375 22.718,215.100 22.559 C 214.825 22.401,214.740 22.426,214.912 22.614 C 215.588 23.357,216.409 23.165,215.981 22.364 C 215.756 21.944,215.353 21.614,215.086 21.632 C 214.720 21.655,214.723 21.713,215.100 21.865 M191.903 38.837 C 192.173 39.187,192.260 39.621,192.097 39.801 C 191.933 39.981,192.010 40.008,192.266 39.862 C 192.522 39.715,192.823 39.821,192.934 40.098 C 193.050 40.385,193.150 40.413,193.168 40.162 C 193.186 39.921,192.798 39.381,192.307 38.962 C 191.760 38.495,191.603 38.447,191.903 38.837 M297.790 75.600 C 297.790 91.770,297.839 98.385,297.900 90.300 C 297.960 82.215,297.960 68.985,297.900 60.900 C 297.839 52.815,297.790 59.430,297.790 75.600 M180.486 75.434 C 180.109 75.709,179.936 76.069,180.101 76.234 C 180.265 76.399,180.400 76.323,180.400 76.067 C 180.400 75.810,180.591 75.600,180.824 75.600 C 181.057 75.600,181.116 75.825,180.955 76.100 C 180.794 76.375,181.053 76.257,181.531 75.838 C 182.750 74.769,181.863 74.427,180.486 75.434 M175.628 79.366 C 175.330 79.725,175.205 80.138,175.350 80.283 C 175.723 80.657,176.522 79.767,176.330 79.191 C 176.220 78.860,176.003 78.914,175.628 79.366 M210.800 85.676 C 210.800 86.402,212.298 87.835,212.669 87.464 C 212.814 87.319,212.713 87.200,212.443 87.200 C 212.173 87.200,212.049 87.044,212.167 86.853 C 212.285 86.663,212.025 86.185,211.591 85.791 C 210.939 85.202,210.800 85.182,210.800 85.676 M297.714 108.600 C 297.717 109.700,297.795 110.103,297.887 109.495 C 297.979 108.886,297.977 107.986,297.882 107.495 C 297.787 107.003,297.711 107.500,297.714 108.600 M272.667 107.867 C 272.520 108.013,272.400 108.553,272.400 109.067 L 272.400 110.000 284.000 110.000 L 295.600 110.000 295.600 108.800 L 295.600 107.600 284.267 107.600 C 278.033 107.600,272.813 107.720,272.667 107.867 M297.587 118.800 C 297.469 123.090,297.424 126.675,297.487 126.767 C 297.910 127.389,298.005 125.585,297.909 118.758 L 297.800 111.000 297.587 118.800 M243.560 115.367 C 243.337 117.775,243.420 124.120,243.689 125.300 C 244.206 127.566,244.974 127.225,244.590 124.900 C 244.183 122.432,244.159 116.835,244.552 115.767 C 244.780 115.146,244.698 114.933,244.229 114.933 C 243.883 114.933,243.582 115.128,243.560 115.367 M297.714 129.000 C 297.717 130.100,297.795 130.503,297.887 129.895 C 297.979 129.286,297.977 128.386,297.882 127.895 C 297.787 127.403,297.711 127.900,297.714 129.000 M272.400 128.800 L 272.400 130.000 284.000 130.000 L 295.600 130.000 295.600 128.800 L 295.600 127.600 284.000 127.600 L 272.400 127.600 272.400 128.800 M297.586 132.100 C 297.387 133.518,297.490 146.800,297.700 146.800 C 297.865 146.800,298.000 143.470,298.000 139.400 C 298.000 133.646,297.818 130.444,297.586 132.100 M234.470 134.926 C 233.472 135.988,233.292 136.753,234.222 135.982 C 234.829 135.478,235.770 134.000,235.484 134.000 C 235.404 134.000,234.948 134.417,234.470 134.926 M297.728 149.600 C 297.728 151.030,297.801 151.615,297.889 150.900 C 297.978 150.185,297.978 149.015,297.889 148.300 C 297.801 147.585,297.728 148.170,297.728 149.600 M272.400 149.600 L 272.400 151.600 284.000 151.600 L 295.600 151.600 295.600 149.600 L 295.600 147.600 284.000 147.600 L 272.400 147.600 272.400 149.600 M297.472 159.639 C 297.511 163.620,297.646 166.980,297.772 167.105 C 297.897 167.231,298.000 163.973,298.000 159.867 C 298.000 155.760,297.865 152.400,297.700 152.400 C 297.535 152.400,297.432 155.657,297.472 159.639 M68.875 162.500 L 69.000 163.800 80.700 163.906 L 92.400 164.012 92.400 162.606 L 92.400 161.200 80.575 161.200 L 68.749 161.200 68.875 162.500 M66.501 165.000 C 66.505 165.880,66.587 166.193,66.683 165.695 C 66.779 165.198,66.775 164.478,66.675 164.095 C 66.575 163.713,66.496 164.120,66.501 165.000 M297.714 170.200 C 297.717 171.300,297.795 171.703,297.887 171.095 C 297.979 170.486,297.977 169.586,297.882 169.095 C 297.787 168.603,297.711 169.100,297.714 170.200 M276.300 169.098 L 272.400 169.229 272.400 170.414 L 272.400 171.600 284.000 171.600 L 295.600 171.600 295.600 170.443 C 295.600 168.714,293.056 168.536,276.300 169.098 M234.585 190.400 C 234.585 201.070,234.637 205.435,234.700 200.100 C 234.763 194.765,234.763 186.035,234.700 180.700 C 234.637 175.365,234.585 179.730,234.585 190.400 M297.519 195.498 C 297.584 208.203,297.764 218.724,297.919 218.879 C 298.073 219.034,298.152 208.639,298.094 195.780 C 298.035 182.921,297.855 172.400,297.694 172.400 C 297.532 172.400,297.453 182.794,297.519 195.498 M68.800 174.171 C 68.800 176.347,69.096 176.400,81.229 176.400 L 92.400 176.400 92.400 174.800 L 92.400 173.200 80.600 173.200 L 68.800 173.200 68.800 174.171 M176.278 178.689 C 175.254 178.843,175.166 178.987,175.278 180.329 L 175.400 181.800 187.395 181.800 C 200.598 181.800,200.065 181.908,199.428 179.368 L 199.185 178.400 188.292 178.460 C 182.302 178.493,176.895 178.596,176.278 178.689 M68.800 186.111 C 68.800 188.779,68.896 188.800,81.223 188.800 L 92.400 188.800 92.400 187.000 L 92.400 185.200 80.600 185.200 L 68.800 185.200 68.800 186.111 M175.900 190.276 C 175.383 190.411,175.200 190.870,175.200 192.035 L 175.200 193.612 187.295 193.506 C 200.597 193.389,200.063 193.501,199.428 190.968 L 199.185 190.000 187.892 190.046 C 181.682 190.072,176.285 190.175,175.900 190.276 M353.293 298.400 C 353.293 299.170,353.375 299.485,353.476 299.100 C 353.576 298.715,353.576 298.085,353.476 297.700 C 353.375 297.315,353.293 297.630,353.293 298.400 M353.293 303.200 C 353.293 303.970,353.375 304.285,353.476 303.900 C 353.576 303.515,353.576 302.885,353.476 302.500 C 353.375 302.115,353.293 302.430,353.293 303.200 M346.646 328.225 C 346.514 328.569,346.224 328.739,346.003 328.602 C 345.781 328.465,345.600 328.633,345.600 328.976 C 345.600 329.319,345.780 329.600,346.000 329.600 C 346.220 329.600,346.400 329.409,346.400 329.176 C 346.400 328.943,346.625 328.882,346.900 329.041 C 347.175 329.199,347.267 329.181,347.103 329.001 C 346.940 328.821,347.007 328.432,347.252 328.137 C 347.533 327.799,347.547 327.600,347.292 327.600 C 347.068 327.600,346.778 327.881,346.646 328.225 M344.469 332.439 C 344.180 332.900,344.047 333.380,344.172 333.506 C 344.298 333.631,344.400 333.513,344.400 333.243 C 344.400 332.964,344.615 332.877,344.900 333.041 C 345.175 333.199,345.267 333.181,345.103 333.001 C 344.940 332.821,345.007 332.432,345.252 332.137 C 345.497 331.842,345.539 331.600,345.345 331.600 C 345.151 331.600,344.757 331.978,344.469 332.439 M322.430 360.164 C 322.135 360.520,322.106 360.819,322.353 360.971 C 322.568 361.104,322.858 361.030,322.996 360.807 C 323.134 360.583,323.102 360.397,322.924 360.394 C 322.746 360.391,322.870 360.213,323.200 360.000 C 323.530 359.787,323.597 359.609,323.349 359.606 C 323.101 359.603,322.687 359.854,322.430 360.164 " stroke="none" fill="#652e0f" fill-rule="evenodd"></path><path id="path6" d="M213.000 152.794 L 237.000 152.994 213.000 153.202 L 189.000 153.409 213.000 153.492 C 233.572 153.563,237.111 153.491,237.776 152.987 C 238.461 152.469,235.634 152.411,213.776 152.497 L 189.000 152.594 213.000 152.794 M67.300 159.895 C 66.641 160.121,66.656 160.800,67.320 160.800 C 67.671 160.800,67.807 161.285,67.738 162.300 C 67.644 163.705,67.762 163.461,68.223 161.300 L 68.415 160.400 80.565 160.400 C 94.011 160.400,93.200 160.229,93.200 163.059 C 93.200 166.140,93.807 166.000,80.419 166.000 C 71.231 166.000,68.420 165.884,68.265 165.500 C 68.110 165.115,68.056 165.121,68.032 165.524 C 68.014 165.812,67.832 165.944,67.628 165.817 C 67.423 165.691,67.142 165.770,67.004 165.993 C 66.617 166.620,92.493 166.547,93.120 165.920 C 93.928 165.112,93.728 161.040,92.840 160.237 C 92.121 159.586,69.093 159.278,67.300 159.895 M234.185 190.400 C 234.185 201.070,234.237 205.435,234.300 200.100 C 234.363 194.765,234.363 186.035,234.300 180.700 C 234.237 175.365,234.185 179.730,234.185 190.400 M67.198 171.933 C 66.627 172.125,66.706 172.800,67.300 172.799 C 67.656 172.799,67.761 173.432,67.663 174.999 C 67.580 176.331,67.689 177.200,67.938 177.200 C 68.184 177.200,68.260 176.645,68.126 175.822 C 68.003 175.064,68.018 173.981,68.160 173.416 L 68.418 172.388 80.709 172.494 L 93.000 172.600 93.126 174.368 C 93.196 175.340,93.145 176.564,93.014 177.087 L 92.775 178.039 79.963 177.978 C 72.916 177.944,67.042 178.025,66.909 178.158 C 66.776 178.291,72.511 178.400,79.653 178.400 C 89.221 178.400,92.766 178.274,93.120 177.920 C 93.780 177.260,93.743 173.017,93.073 172.460 C 92.591 172.061,68.294 171.566,67.198 171.933 M175.694 176.015 C 174.508 176.491,174.000 177.920,174.000 180.782 C 174.000 185.027,173.327 184.838,188.000 184.710 L 200.600 184.600 200.714 180.743 C 200.878 175.195,201.866 175.595,188.071 175.625 C 181.762 175.639,176.192 175.814,175.694 176.015 M199.777 177.689 C 200.632 178.909,200.587 182.080,199.700 183.174 C 198.667 184.448,175.907 184.309,174.967 183.024 C 173.670 181.248,174.449 177.490,176.200 177.080 C 179.425 176.325,199.179 176.835,199.777 177.689 M67.600 183.985 C 66.713 184.256,66.682 184.325,67.327 184.598 C 67.748 184.777,68.244 184.716,68.507 184.453 C 69.168 183.792,92.058 183.818,92.720 184.480 C 93.343 185.103,93.343 188.897,92.720 189.520 C 92.368 189.872,89.063 190.000,80.345 190.000 L 68.449 190.000 68.199 188.100 C 67.803 185.086,67.643 184.818,67.725 187.301 C 67.778 188.915,67.651 189.601,67.300 189.601 C 67.025 189.600,66.800 189.771,66.800 189.980 C 66.800 190.560,92.349 190.540,93.048 189.960 C 93.915 189.240,93.784 185.091,92.869 184.262 C 92.080 183.548,69.832 183.304,67.600 183.985 M176.000 187.483 C 173.884 187.851,173.078 192.976,174.786 195.200 L 175.553 196.200 187.426 196.317 C 201.730 196.459,200.800 196.792,200.800 191.528 C 200.800 188.088,200.769 187.968,199.774 187.590 C 198.782 187.213,178.089 187.120,176.000 187.483 M199.669 188.662 C 200.530 189.441,200.711 193.529,199.920 194.320 C 199.234 195.006,175.566 195.006,174.880 194.320 C 174.239 193.679,174.255 189.416,174.900 188.892 C 176.281 187.771,198.456 187.565,199.669 188.662 M211.000 207.889 C 210.560 207.998,209.973 208.271,209.695 208.496 C 209.418 208.721,208.617 209.197,207.916 209.553 C 202.682 212.212,202.178 220.214,206.950 224.927 C 209.989 227.930,216.781 227.688,219.685 224.475 C 222.371 221.502,222.495 221.167,222.336 217.309 C 222.075 210.988,216.669 206.496,211.000 207.889 M215.827 210.130 C 219.000 211.344,221.371 214.527,221.384 217.588 C 221.411 223.757,212.902 228.152,208.618 224.181 C 208.035 223.642,207.408 223.200,207.223 223.200 C 207.038 223.200,206.605 222.495,206.260 221.634 C 205.916 220.773,205.446 219.952,205.217 219.810 C 204.661 219.467,204.680 215.721,205.240 215.376 C 205.481 215.226,205.886 214.618,206.140 214.024 C 207.530 210.762,212.382 208.812,215.827 210.130 M235.680 223.280 C 234.910 224.050,235.085 227.085,235.950 227.950 C 236.363 228.363,236.798 228.947,236.918 229.250 C 237.096 229.697,237.143 229.699,237.168 229.263 C 237.186 228.968,236.840 228.269,236.400 227.709 C 235.506 226.573,235.323 224.037,236.080 223.280 C 236.344 223.016,236.470 222.800,236.360 222.800 C 236.250 222.800,235.944 223.016,235.680 223.280 M190.400 225.640 C 188.970 225.771,187.080 226.194,186.200 226.579 C 181.192 228.770,180.571 229.193,176.511 233.184 L 174.696 234.968 170.848 235.125 C 165.235 235.355,165.318 236.000,170.960 236.000 L 175.680 236.000 177.540 234.210 C 179.995 231.848,182.392 230.000,183.001 230.000 C 183.271 230.000,183.921 229.666,184.446 229.257 C 187.637 226.773,197.495 226.726,201.200 229.177 C 201.750 229.541,202.650 230.040,203.200 230.286 C 203.750 230.532,205.336 231.738,206.724 232.966 C 208.113 234.193,209.558 235.364,209.937 235.566 C 210.316 235.769,216.997 236.067,224.784 236.228 L 238.943 236.521 239.859 237.561 C 240.362 238.132,240.780 238.888,240.787 239.240 C 240.811 240.443,241.677 242.400,242.186 242.400 C 242.480 242.400,242.789 243.102,242.918 244.061 C 243.040 244.975,243.501 246.211,243.942 246.807 C 244.383 247.403,244.869 248.560,245.022 249.377 C 245.175 250.194,245.614 251.164,245.997 251.531 C 246.380 251.899,246.816 252.876,246.965 253.702 C 247.115 254.527,247.565 255.517,247.965 255.902 C 248.366 256.286,248.822 257.320,248.979 258.200 C 249.136 259.080,249.586 260.160,249.979 260.600 C 250.373 261.040,250.803 262.120,250.935 263.000 C 251.067 263.880,251.511 264.874,251.921 265.210 C 252.331 265.545,252.781 266.535,252.921 267.410 C 253.061 268.284,253.541 269.299,253.988 269.664 C 254.464 270.054,254.800 270.807,254.800 271.486 C 254.800 272.123,255.250 273.255,255.800 274.000 C 256.350 274.745,256.800 275.745,256.800 276.222 C 256.800 276.698,257.224 277.714,257.743 278.478 C 258.262 279.242,258.805 280.503,258.951 281.279 C 259.097 282.055,259.572 283.013,260.008 283.407 C 260.444 283.801,260.800 284.622,260.800 285.231 C 260.800 285.840,261.250 286.873,261.800 287.527 C 262.374 288.209,262.800 289.220,262.800 289.899 C 262.800 290.608,263.202 291.517,263.800 292.162 C 264.363 292.770,264.800 293.722,264.800 294.343 C 264.800 294.949,265.250 296.055,265.800 296.800 C 266.350 297.545,266.800 298.633,266.800 299.216 C 266.800 299.799,267.163 300.604,267.606 301.005 C 268.049 301.407,268.525 302.442,268.663 303.305 C 268.801 304.169,269.233 305.173,269.622 305.538 C 270.011 305.902,270.453 306.865,270.605 307.677 C 270.756 308.489,271.312 309.739,271.840 310.454 C 272.368 311.170,272.800 312.260,272.800 312.878 C 272.800 313.495,273.159 314.359,273.597 314.797 C 274.036 315.236,274.566 316.356,274.775 317.286 C 274.984 318.217,275.420 319.172,275.744 319.409 C 276.068 319.646,276.461 320.551,276.616 321.420 C 276.772 322.289,277.214 323.360,277.600 323.800 C 277.986 324.240,278.423 325.285,278.573 326.122 C 278.722 326.960,279.176 327.976,279.580 328.380 C 279.984 328.784,280.440 329.855,280.593 330.760 C 280.746 331.664,281.192 332.629,281.584 332.904 C 281.976 333.178,282.427 334.176,282.587 335.122 C 282.759 336.143,283.186 337.035,283.639 337.317 C 284.057 337.578,284.400 338.205,284.400 338.709 C 284.400 339.879,285.444 342.400,285.928 342.400 C 286.132 342.400,286.409 343.093,286.544 343.940 C 286.679 344.787,287.129 345.912,287.544 346.440 C 287.959 346.968,288.425 348.157,288.581 349.083 C 288.767 350.184,289.113 350.845,289.582 350.994 C 290.089 351.155,290.360 351.764,290.508 353.078 C 290.641 354.262,291.004 355.163,291.509 355.567 C 292.167 356.092,292.346 356.883,292.560 360.200 C 292.822 364.252,293.229 365.200,294.705 365.200 C 295.142 365.200,295.126 365.069,294.629 364.571 C 294.283 364.226,293.996 363.461,293.991 362.871 C 293.978 361.190,292.434 354.614,292.020 354.475 C 291.815 354.406,291.344 353.416,290.972 352.275 C 290.601 351.134,290.067 349.930,289.786 349.600 C 289.505 349.270,289.073 348.243,288.826 347.317 C 288.580 346.391,288.215 345.533,288.015 345.409 C 287.816 345.286,287.372 344.222,287.030 343.045 C 286.688 341.868,286.136 340.679,285.804 340.403 C 285.472 340.128,285.200 339.612,285.200 339.257 C 285.200 338.619,284.055 335.989,282.171 332.300 C 281.637 331.255,281.200 330.220,281.200 330.001 C 281.200 329.609,279.682 326.156,277.769 322.194 C 277.236 321.091,276.800 319.949,276.800 319.657 C 276.800 319.365,276.440 318.669,276.000 318.109 C 275.560 317.550,275.200 316.727,275.200 316.281 C 275.200 315.835,274.775 314.734,274.257 313.835 C 273.738 312.936,273.184 311.660,273.025 311.000 C 272.867 310.340,272.503 309.530,272.216 309.200 C 271.929 308.870,271.576 308.150,271.430 307.600 C 271.167 306.604,269.958 303.913,268.151 300.300 C 267.628 299.255,267.194 298.175,267.187 297.900 C 267.181 297.625,266.641 296.325,265.987 295.010 C 265.334 293.696,264.800 292.323,264.800 291.959 C 264.800 291.595,264.531 291.075,264.203 290.802 C 263.874 290.530,263.407 289.569,263.164 288.667 C 262.922 287.766,262.380 286.593,261.961 286.060 C 261.543 285.528,261.200 284.691,261.200 284.200 C 261.200 283.709,260.840 282.850,260.400 282.291 C 259.960 281.731,259.600 281.028,259.600 280.727 C 259.600 280.426,259.066 279.104,258.413 277.790 C 257.759 276.475,257.219 275.166,257.213 274.879 C 257.206 274.593,256.850 273.693,256.422 272.879 C 255.317 270.777,253.200 266.104,253.200 265.765 C 253.200 265.443,251.589 261.940,250.153 259.141 C 249.629 258.119,249.200 256.976,249.200 256.603 C 249.200 256.229,248.873 255.446,248.473 254.862 C 248.073 254.278,247.532 253.056,247.271 252.147 C 247.010 251.239,246.527 250.272,246.198 249.998 C 245.869 249.725,245.600 249.191,245.600 248.811 C 245.600 248.430,245.150 247.273,244.600 246.238 C 244.050 245.204,243.600 244.176,243.600 243.954 C 243.600 243.562,242.355 240.753,239.985 235.800 C 239.354 234.480,238.469 232.590,238.019 231.600 C 237.133 229.651,236.900 230.113,237.680 232.271 C 238.430 234.344,238.014 234.488,231.462 234.422 C 228.263 234.390,222.932 234.571,219.615 234.825 C 211.775 235.425,211.465 235.353,208.174 232.190 C 202.793 227.016,197.326 225.001,190.400 225.640 M217.656 248.413 C 217.136 248.846,216.457 249.200,216.147 249.200 C 215.263 249.200,212.144 252.279,211.578 253.710 C 211.298 254.420,210.790 255.326,210.450 255.724 C 207.865 258.753,211.470 267.626,216.200 269.877 C 216.860 270.191,217.850 270.705,218.400 271.018 C 220.242 272.068,224.073 271.765,226.691 270.363 C 236.300 265.215,236.256 253.714,226.607 248.583 C 224.142 247.273,219.139 247.178,217.656 248.413 M224.561 249.549 C 227.000 250.310,231.200 253.798,231.200 255.061 C 231.200 255.375,231.560 256.338,232.000 257.200 C 232.440 258.062,232.800 259.101,232.800 259.509 C 232.800 259.916,232.440 260.995,232.000 261.906 C 231.560 262.816,231.200 263.768,231.200 264.021 C 231.200 264.986,227.483 268.336,225.659 269.014 C 224.637 269.394,223.629 269.862,223.420 270.053 C 221.350 271.945,212.820 266.472,212.210 262.860 C 212.056 261.949,211.766 261.103,211.565 260.978 C 209.014 259.402,214.451 251.121,219.000 249.654 C 222.037 248.674,221.776 248.679,224.561 249.549 M173.200 283.066 C 172.870 283.197,171.880 283.614,171.000 283.993 C 170.120 284.372,169.067 284.800,168.660 284.944 C 165.497 286.063,158.000 294.706,158.000 297.234 C 158.000 297.459,157.597 298.489,157.103 299.522 C 155.794 302.264,155.802 309.823,157.116 312.194 C 157.602 313.071,158.000 313.957,158.000 314.162 C 158.000 317.321,165.694 325.796,169.662 327.009 C 170.178 327.166,171.410 327.679,172.400 328.148 C 175.046 329.401,184.511 329.396,187.200 328.141 C 188.190 327.679,189.640 327.096,190.422 326.845 C 191.204 326.595,192.644 325.691,193.622 324.836 C 194.600 323.982,195.897 322.859,196.503 322.341 C 197.913 321.139,200.801 316.771,202.020 314.000 C 203.307 311.073,203.308 300.514,202.022 297.600 C 201.485 296.385,199.685 293.281,198.620 291.733 C 197.589 290.235,193.985 286.868,193.100 286.577 C 192.715 286.450,192.400 286.174,192.400 285.963 C 192.400 285.753,191.949 285.409,191.399 285.200 C 190.848 284.990,189.543 284.413,188.499 283.916 C 186.606 283.016,174.961 282.369,173.200 283.066 M184.972 284.535 C 185.427 284.829,186.648 285.279,187.685 285.536 C 189.666 286.028,191.844 287.272,193.716 288.981 C 194.330 289.541,195.005 290.000,195.216 290.000 C 195.427 290.000,195.600 290.249,195.600 290.554 C 195.600 290.859,196.050 291.403,196.600 291.763 C 197.150 292.124,197.600 292.613,197.600 292.851 C 197.600 293.090,198.050 293.819,198.600 294.473 C 199.150 295.127,199.600 295.926,199.600 296.250 C 199.600 296.574,199.971 297.595,200.424 298.519 C 201.415 300.543,201.925 307.666,201.260 310.200 C 200.019 314.925,198.739 317.500,196.500 319.777 C 196.005 320.280,195.597 320.851,195.593 321.046 C 195.569 322.222,188.918 326.043,185.914 326.605 C 185.097 326.758,184.220 327.135,183.965 327.442 C 183.630 327.846,182.479 328.000,179.800 328.000 C 177.121 328.000,175.970 327.846,175.635 327.442 C 175.380 327.135,174.503 326.758,173.686 326.605 C 167.373 325.423,160.548 318.552,158.780 311.600 C 158.528 310.610,158.114 309.547,157.861 309.239 C 157.255 308.500,157.263 303.089,157.870 302.356 C 158.129 302.044,158.566 300.894,158.842 299.799 C 159.879 295.681,162.507 291.695,165.981 288.973 C 167.201 288.017,168.491 286.980,168.848 286.670 C 169.204 286.359,170.464 285.878,171.648 285.600 C 172.831 285.322,174.041 284.904,174.335 284.670 C 175.730 283.560,183.308 283.464,184.972 284.535 M142.594 290.071 C 142.438 290.802,142.084 291.670,141.806 292.000 C 141.528 292.330,141.073 293.320,140.794 294.200 C 140.515 295.080,140.037 296.160,139.733 296.600 C 139.429 297.040,138.988 298.120,138.753 299.000 C 138.518 299.880,138.089 300.870,137.800 301.200 C 137.511 301.530,137.076 302.544,136.834 303.453 C 136.592 304.363,136.126 305.330,135.797 305.602 C 135.469 305.875,135.200 306.373,135.200 306.710 C 135.200 307.296,133.706 310.798,132.005 314.200 L 131.205 315.800 132.202 314.678 C 132.751 314.060,133.200 313.230,133.200 312.832 C 133.200 312.434,133.549 311.664,133.975 311.122 C 134.402 310.580,134.877 309.611,135.032 308.968 C 135.187 308.326,135.738 307.064,136.257 306.165 C 136.775 305.266,137.200 304.165,137.200 303.719 C 137.200 303.273,137.545 302.469,137.967 301.933 C 138.389 301.396,138.858 300.298,139.009 299.493 C 139.160 298.688,139.534 297.821,139.841 297.566 C 140.147 297.312,140.669 296.191,141.000 295.075 C 141.332 293.959,141.795 292.926,142.031 292.781 C 142.484 292.501,143.351 289.218,143.052 288.919 C 142.955 288.822,142.749 289.341,142.594 290.071 M209.600 325.971 C 207.402 326.472,206.130 327.085,205.867 327.769 C 205.734 328.116,205.394 328.403,205.113 328.407 C 201.992 328.451,200.580 338.312,203.125 342.282 C 208.962 351.385,223.200 347.218,223.200 336.408 C 223.200 329.500,216.540 324.390,209.600 325.971 M217.261 328.535 C 221.061 331.578,221.989 333.660,221.475 337.992 C 220.865 343.144,213.566 347.703,209.600 345.410 C 209.050 345.092,208.150 344.606,207.600 344.330 C 206.440 343.749,204.404 341.654,204.391 341.028 C 204.386 340.793,204.030 340.150,203.600 339.600 C 202.498 338.191,202.484 334.410,203.577 333.421 C 204.005 333.034,204.469 332.194,204.610 331.555 C 204.840 330.505,207.066 328.538,209.191 327.504 C 210.709 326.766,215.877 327.427,217.261 328.535 " stroke="none" fill="#dc653c" fill-rule="evenodd"></path><path id="path7" d="M203.305 18.687 C 203.914 18.779,204.814 18.777,205.305 18.682 C 205.797 18.587,205.300 18.511,204.200 18.514 C 203.100 18.517,202.697 18.595,203.305 18.687 M68.400 160.763 C 68.400 160.962,68.040 161.031,67.600 160.916 C 66.860 160.722,66.800 160.904,66.800 163.353 C 66.800 165.912,67.224 166.584,68.094 165.400 C 68.276 165.152,68.390 165.190,68.394 165.500 C 68.406 166.464,92.267 166.196,92.786 165.226 C 93.242 164.374,93.338 162.025,92.957 161.033 C 92.680 160.310,68.400 160.043,68.400 160.763 M92.400 163.000 L 92.400 165.200 81.100 165.194 C 68.689 165.187,68.833 165.214,68.521 162.889 C 68.245 160.830,67.561 160.937,81.500 160.860 L 92.400 160.800 92.400 163.000 M67.876 163.100 C 67.775 163.485,67.693 163.170,67.693 162.400 C 67.693 161.630,67.775 161.315,67.876 161.700 C 67.976 162.085,67.976 162.715,67.876 163.100 M68.400 172.757 C 68.400 172.959,68.033 173.029,67.584 172.912 C 66.818 172.712,66.775 172.857,66.865 175.309 L 66.962 177.920 79.869 177.978 L 92.776 178.037 93.014 177.086 C 93.145 176.564,93.196 175.340,93.126 174.368 L 93.000 172.600 80.700 172.494 C 73.395 172.431,68.400 172.538,68.400 172.757 M92.400 175.200 L 92.400 177.600 81.500 177.595 C 68.478 177.588,68.919 177.666,68.566 175.314 C 68.185 172.773,67.989 172.813,80.900 172.806 L 92.400 172.800 92.400 175.200 M68.098 175.300 C 68.210 176.345,68.144 177.200,67.951 177.200 C 67.758 177.200,67.600 176.270,67.600 175.133 C 67.600 172.638,67.820 172.711,68.098 175.300 M176.200 177.080 C 174.449 177.490,173.670 181.248,174.967 183.024 C 175.907 184.309,198.667 184.448,199.700 183.174 C 200.587 182.080,200.632 178.909,199.777 177.689 C 199.179 176.835,179.425 176.325,176.200 177.080 M199.768 179.300 C 200.017 180.008,200.017 180.792,199.768 181.500 L 199.381 182.600 187.725 182.706 C 174.736 182.824,174.800 182.837,174.800 180.159 C 174.800 178.115,175.316 178.036,187.991 178.122 L 199.381 178.200 199.768 179.300 M68.578 184.435 C 68.431 184.674,67.959 184.778,67.530 184.666 C 66.809 184.477,66.760 184.654,66.866 187.031 C 66.930 188.444,67.166 189.600,67.391 189.601 C 67.631 189.601,67.769 188.651,67.725 187.301 C 67.643 184.818,67.803 185.086,68.199 188.100 L 68.449 190.000 80.345 190.000 C 93.713 190.000,93.200 190.120,93.200 187.000 C 93.200 185.878,92.984 184.744,92.720 184.480 C 92.072 183.832,68.978 183.789,68.578 184.435 M92.400 187.000 L 92.400 189.200 80.625 189.200 L 68.849 189.200 68.583 187.428 C 68.173 184.690,67.670 184.800,80.624 184.800 L 92.400 184.800 92.400 187.000 M176.200 188.289 C 175.760 188.398,175.175 188.669,174.900 188.892 C 174.255 189.416,174.239 193.679,174.880 194.320 C 175.566 195.006,199.234 195.006,199.920 194.320 C 200.711 193.529,200.530 189.441,199.669 188.662 C 198.953 188.014,178.632 187.692,176.200 188.289 M199.636 190.364 C 199.894 191.224,199.988 192.394,199.845 192.964 L 199.585 194.000 187.400 194.000 L 175.215 194.000 174.964 192.997 C 173.951 188.965,174.082 188.923,188.084 188.854 L 199.168 188.800 199.636 190.364 M240.366 236.700 C 241.640 239.119,243.600 243.515,243.600 243.954 C 243.600 244.176,244.050 245.204,244.600 246.238 C 245.150 247.273,245.600 248.430,245.600 248.811 C 245.600 249.191,245.869 249.725,246.198 249.998 C 246.527 250.272,247.010 251.239,247.271 252.147 C 247.532 253.056,248.073 254.278,248.473 254.862 C 248.873 255.446,249.200 256.229,249.200 256.603 C 249.200 256.976,249.629 258.119,250.153 259.141 C 251.589 261.940,253.200 265.443,253.200 265.765 C 253.200 266.104,255.317 270.777,256.422 272.879 C 256.850 273.693,257.206 274.593,257.213 274.879 C 257.219 275.166,257.759 276.475,258.413 277.790 C 259.066 279.104,259.600 280.426,259.600 280.727 C 259.600 281.028,259.960 281.731,260.400 282.291 C 260.840 282.850,261.200 283.709,261.200 284.200 C 261.200 284.691,261.543 285.528,261.961 286.060 C 262.380 286.593,262.922 287.766,263.164 288.667 C 263.407 289.569,263.874 290.530,264.203 290.802 C 264.531 291.075,264.800 291.595,264.800 291.959 C 264.800 292.323,265.334 293.696,265.987 295.010 C 266.641 296.325,267.181 297.625,267.187 297.900 C 267.194 298.175,267.628 299.255,268.151 300.300 C 270.218 304.433,271.204 306.648,271.436 307.684 C 271.569 308.280,271.919 308.967,272.214 309.211 C 272.508 309.455,272.872 310.228,273.023 310.928 C 273.174 311.627,273.725 312.936,274.248 313.835 C 274.772 314.734,275.200 315.835,275.200 316.281 C 275.200 316.727,275.560 317.550,276.000 318.109 C 276.440 318.669,276.800 319.365,276.800 319.657 C 276.800 319.949,277.236 321.091,277.769 322.194 C 279.682 326.156,281.200 329.609,281.200 330.001 C 281.200 330.220,281.637 331.255,282.171 332.300 C 284.055 335.989,285.200 338.619,285.200 339.257 C 285.200 339.612,285.472 340.128,285.804 340.403 C 286.136 340.679,286.688 341.868,287.030 343.045 C 287.372 344.222,287.816 345.286,288.015 345.409 C 288.215 345.533,288.580 346.391,288.826 347.317 C 289.073 348.243,289.505 349.270,289.786 349.600 C 290.067 349.930,290.601 351.134,290.972 352.275 C 291.344 353.416,291.820 354.407,292.030 354.477 C 292.344 354.581,293.110 357.841,294.233 363.856 C 294.321 364.327,294.637 364.805,294.934 364.919 C 295.669 365.201,295.352 361.825,294.345 358.648 C 293.935 357.354,293.600 356.128,293.600 355.923 C 293.600 355.537,291.699 351.256,290.436 348.800 C 290.040 348.030,289.586 346.860,289.427 346.200 C 289.268 345.540,288.904 344.730,288.619 344.400 C 288.334 344.070,287.870 343.081,287.587 342.202 C 287.305 341.323,286.652 339.811,286.137 338.842 C 285.621 337.874,285.200 336.821,285.200 336.504 C 285.200 336.186,284.840 335.469,284.400 334.909 C 283.960 334.350,283.600 333.491,283.600 333.000 C 283.600 332.509,283.263 331.679,282.852 331.154 C 282.441 330.629,281.978 329.623,281.824 328.919 C 281.671 328.214,281.228 327.224,280.840 326.719 C 280.453 326.213,279.903 324.948,279.618 323.908 C 279.333 322.867,278.864 321.819,278.576 321.580 C 278.287 321.341,277.932 320.572,277.786 319.872 C 277.641 319.173,277.115 317.880,276.617 317.000 C 276.120 316.120,275.584 314.860,275.425 314.200 C 275.267 313.540,274.904 312.730,274.619 312.400 C 274.334 312.070,273.876 311.080,273.600 310.200 C 273.324 309.320,272.854 308.318,272.554 307.974 C 272.255 307.629,271.891 306.729,271.745 305.974 C 271.600 305.218,271.181 304.150,270.813 303.600 C 270.446 303.050,269.932 301.856,269.671 300.947 C 269.410 300.039,268.927 299.072,268.598 298.798 C 268.269 298.525,267.999 298.009,267.998 297.651 C 267.998 297.293,267.458 295.920,266.800 294.600 C 266.142 293.280,265.602 291.958,265.602 291.662 C 265.601 291.366,265.259 290.644,264.841 290.058 C 264.424 289.472,263.883 288.250,263.638 287.343 C 263.394 286.436,262.926 285.470,262.597 285.198 C 262.269 284.925,261.999 284.409,261.998 284.051 C 261.998 283.693,261.458 282.320,260.800 281.000 C 260.142 279.680,259.602 278.309,259.602 277.954 C 259.601 277.599,259.257 276.872,258.839 276.340 C 258.420 275.807,257.878 274.634,257.636 273.733 C 257.393 272.831,256.949 271.889,256.648 271.640 C 256.348 271.391,256.000 270.557,255.875 269.787 C 255.750 269.017,255.277 267.916,254.824 267.340 C 254.371 266.764,254.000 266.004,254.000 265.652 C 254.000 265.060,253.611 264.150,250.986 258.600 C 250.465 257.500,249.837 255.925,249.589 255.100 C 249.341 254.275,248.995 253.600,248.821 253.600 C 248.647 253.600,248.270 252.745,247.984 251.700 C 247.698 250.655,247.147 249.387,246.760 248.881 C 246.372 248.376,245.929 247.386,245.776 246.681 C 245.622 245.977,245.159 244.971,244.748 244.446 C 244.337 243.921,244.000 243.165,244.000 242.765 C 244.000 241.862,243.175 240.000,242.776 240.000 C 242.613 240.000,242.263 239.096,241.998 237.992 C 241.580 236.251,240.758 235.200,239.814 235.200 C 239.683 235.200,239.932 235.875,240.366 236.700 " stroke="none" fill="#9c4c44" fill-rule="evenodd"></path><path id="path8" d="M202.700 18.289 C 203.415 18.378,204.585 18.378,205.300 18.289 C 206.015 18.201,205.430 18.128,204.000 18.128 C 202.570 18.128,201.985 18.201,202.700 18.289 M75.924 161.099 C 79.073 161.167,84.113 161.167,87.124 161.099 C 90.136 161.031,87.560 160.976,81.400 160.976 C 75.240 160.976,72.776 161.032,75.924 161.099 M68.617 162.958 C 68.684 163.814,68.978 164.667,69.270 164.852 C 70.311 165.512,92.400 165.277,92.400 164.606 C 92.400 164.097,90.733 163.997,80.700 163.906 L 69.000 163.800 68.747 162.600 C 68.543 161.632,68.518 161.702,68.617 162.958 M74.900 173.099 C 78.145 173.166,83.455 173.166,86.700 173.099 C 89.945 173.032,87.290 172.977,80.800 172.977 C 74.310 172.977,71.655 173.032,74.900 173.099 M68.609 174.968 C 68.716 176.051,68.907 177.041,69.034 177.168 C 69.651 177.787,92.400 177.640,92.400 177.017 C 92.400 176.476,91.036 176.399,81.300 176.394 C 69.356 176.387,69.296 176.377,68.767 174.352 C 68.465 173.196,68.442 173.286,68.609 174.968 M175.700 178.409 C 175.010 178.689,174.800 179.098,174.800 180.159 C 174.800 182.837,174.736 182.824,187.725 182.706 L 199.381 182.600 199.768 181.500 C 200.017 180.792,200.017 180.008,199.768 179.300 L 199.381 178.200 187.991 178.122 C 181.726 178.079,176.195 178.209,175.700 178.409 M199.428 179.368 C 200.065 181.908,200.598 181.800,187.395 181.800 L 175.400 181.800 175.278 180.329 C 175.122 178.454,174.555 178.536,188.292 178.460 L 199.185 178.400 199.428 179.368 M68.582 185.228 C 68.437 185.464,68.437 186.454,68.583 187.428 L 68.849 189.200 80.725 189.107 L 92.600 189.013 81.400 188.908 C 69.079 188.792,68.800 188.731,68.800 186.162 L 68.800 185.212 80.700 185.100 L 92.600 184.988 80.724 184.894 C 72.616 184.830,68.763 184.936,68.582 185.228 M176.113 189.081 C 175.178 189.262,174.536 191.182,174.917 192.660 C 175.021 193.067,175.128 192.746,175.154 191.947 C 175.216 189.989,175.066 190.012,188.092 190.005 L 199.185 190.000 199.428 190.968 C 200.062 193.494,200.595 193.379,187.195 193.609 L 175.000 193.818 187.292 193.909 L 199.585 194.000 199.845 192.964 C 199.988 192.394,199.894 191.224,199.636 190.364 L 199.168 188.800 188.084 188.854 C 181.988 188.884,176.601 188.986,176.113 189.081 " stroke="none" fill="#843434" fill-rule="evenodd"></path></g></svg>