<svg id="svg" version="1.1" width="400" height="400" viewBox="0 0 400 400" xmlns="http://www.w3.org/2000/svg" xmlns:xlink="http://www.w3.org/1999/xlink" ><g id="svgg"><path id="path0" d="M179.781 150.600 C 179.780 158.520,179.834 161.817,179.899 157.926 C 179.965 154.035,179.965 147.555,179.900 143.526 C 179.834 139.497,179.781 142.680,179.781 150.600 M203.695 197.476 C 203.643 219.958,203.735 238.436,203.900 238.538 C 204.172 238.706,204.169 210.318,203.894 171.400 C 203.837 163.260,203.747 174.994,203.695 197.476 M98.800 181.533 C 97.489 181.970,100.844 185.562,129.638 214.549 L 160.877 245.996 121.172 246.098 C 89.922 246.178,81.431 246.306,81.301 246.698 C 80.957 247.729,179.422 347.060,180.448 346.717 C 180.915 346.561,181.000 333.889,181.000 264.366 L 181.000 182.200 171.700 182.314 C 165.762 182.387,162.117 182.277,161.617 182.009 C 160.903 181.627,99.904 181.165,98.800 181.533 M268.800 221.191 C 268.800 221.310,272.400 225.004,276.800 229.400 C 281.200 233.796,284.800 237.529,284.800 237.696 C 284.800 237.863,271.851 238.000,256.024 238.000 C 240.197 238.000,227.164 238.135,227.062 238.300 C 226.821 238.689,285.302 238.484,285.585 238.095 C 285.703 237.933,281.975 234.014,277.300 229.388 C 272.625 224.761,268.800 221.072,268.800 221.191 " stroke="none" fill="#fcb304" fill-rule="evenodd"></path><path id="path1" d="M174.700 82.705 C 166.159 82.772,161.200 82.956,161.200 83.205 C 161.200 83.454,164.753 83.600,170.800 83.600 L 180.400 83.600 180.400 124.829 C 180.400 160.769,180.325 166.042,179.816 165.929 C 179.495 165.858,170.245 156.845,159.262 145.900 C 148.279 134.955,139.181 126.000,139.046 126.000 C 138.911 126.000,138.800 126.720,138.800 127.600 C 138.800 128.480,138.620 129.200,138.400 129.200 C 138.180 129.200,138.000 129.920,138.000 130.800 C 138.000 131.680,137.820 132.400,137.600 132.400 C 137.380 132.400,137.200 132.940,137.200 133.600 C 137.200 134.260,137.020 134.800,136.800 134.800 C 136.580 134.800,136.400 135.520,136.400 136.400 C 136.400 137.280,136.220 138.000,136.000 138.000 C 135.780 138.000,135.600 138.720,135.600 139.600 C 135.600 140.480,135.420 141.200,135.200 141.200 C 134.980 141.200,134.800 141.740,134.800 142.400 C 134.800 143.060,134.620 143.600,134.400 143.600 C 134.180 143.600,134.000 144.320,134.000 145.200 C 134.000 146.080,133.820 146.800,133.600 146.800 C 133.380 146.800,133.200 147.505,133.200 148.367 C 133.200 149.245,132.980 150.022,132.700 150.136 C 132.324 150.289,132.349 150.443,132.800 150.758 C 133.275 151.090,133.303 151.325,132.933 151.889 C 132.525 152.510,133.586 153.734,141.355 161.600 C 146.244 166.550,152.547 172.967,155.362 175.859 C 161.650 182.321,160.954 182.071,172.200 181.916 L 180.600 181.800 180.703 159.100 L 180.807 136.400 204.906 136.400 L 229.006 136.400 238.600 146.000 L 248.194 155.600 226.564 155.600 C 214.667 155.600,204.811 155.723,204.661 155.873 C 204.265 156.269,258.513 211.143,265.779 217.697 L 268.326 219.995 268.598 217.697 C 268.748 216.434,268.990 206.783,269.135 196.251 L 269.400 177.102 283.915 191.780 C 291.898 199.852,298.648 206.384,298.915 206.295 C 299.444 206.119,299.878 148.518,299.392 142.961 C 299.152 140.221,299.109 140.128,298.172 140.308 C 297.612 140.415,297.200 140.304,297.200 140.047 C 297.200 139.801,296.660 139.600,296.000 139.600 C 295.340 139.600,294.800 139.420,294.800 139.200 C 294.800 138.980,294.440 138.800,294.000 138.800 C 293.560 138.800,293.200 138.620,293.200 138.400 C 293.200 138.180,292.840 138.000,292.400 138.000 C 291.960 138.000,291.600 137.820,291.600 137.600 C 291.600 137.380,291.240 137.200,290.800 137.200 C 290.360 137.200,290.000 137.020,290.000 136.800 C 290.000 136.580,289.640 136.400,289.200 136.400 C 288.760 136.400,288.400 136.220,288.400 136.000 C 288.400 135.780,287.860 135.600,287.200 135.600 C 286.540 135.600,286.000 135.420,286.000 135.200 C 286.000 134.980,285.640 134.800,285.200 134.800 C 284.760 134.800,284.400 134.620,284.400 134.400 C 284.400 134.180,284.040 134.000,283.600 134.000 C 283.160 134.000,282.800 133.820,282.800 133.600 C 282.800 133.380,282.440 133.200,282.000 133.200 C 281.560 133.200,281.200 133.020,281.200 132.800 C 281.200 132.580,280.840 132.400,280.400 132.400 C 279.960 132.400,279.600 132.220,279.600 132.000 C 279.600 131.780,279.060 131.600,278.400 131.600 C 277.740 131.600,277.200 131.420,277.200 131.200 C 277.200 130.980,276.840 130.800,276.400 130.800 C 275.960 130.800,275.600 130.620,275.600 130.400 C 275.600 130.180,275.240 130.000,274.800 130.000 C 274.360 130.000,274.000 129.820,274.000 129.600 C 274.000 129.380,273.640 129.200,273.200 129.200 C 272.760 129.200,272.400 129.020,272.400 128.800 C 272.400 128.580,272.040 128.400,271.600 128.400 C 271.160 128.400,270.800 128.220,270.800 128.000 C 270.800 127.780,270.440 127.600,270.000 127.600 C 269.560 127.600,269.200 127.420,269.200 127.200 C 269.200 126.980,268.660 126.800,268.000 126.800 C 267.340 126.800,266.800 126.620,266.800 126.400 C 266.800 126.180,266.440 126.000,266.000 126.000 C 265.560 126.000,265.200 125.820,265.200 125.600 C 265.200 125.380,264.821 125.200,264.357 125.200 C 263.813 125.200,263.588 125.008,263.722 124.658 C 264.021 123.879,258.798 123.605,243.598 123.602 L 230.997 123.600 211.800 104.400 C 201.242 93.840,192.450 85.200,192.262 85.200 C 192.074 85.200,191.409 84.652,190.783 83.981 C 189.373 82.473,190.730 82.580,174.700 82.705 M202.662 263.871 C 202.353 264.180,204.311 266.172,250.086 312.131 C 268.504 330.622,283.664 345.989,283.775 346.280 C 284.068 347.043,317.400 346.857,317.400 346.091 C 317.400 345.812,311.907 340.052,305.194 333.291 C 298.481 326.531,289.616 317.460,285.494 313.133 L 278.000 305.267 278.000 298.259 C 278.000 294.405,277.830 290.806,277.623 290.260 C 277.109 288.910,254.646 266.159,252.422 264.737 L 250.643 263.600 226.788 263.600 C 213.668 263.600,202.811 263.722,202.662 263.871 " stroke="none" fill="#fcd448" fill-rule="evenodd"></path><path id="path2" d="M196.600 88.800 C 202.097 94.300,206.684 98.800,206.794 98.800 C 206.904 98.800,202.497 94.300,197.000 88.800 C 191.503 83.300,186.916 78.800,186.806 78.800 C 186.696 78.800,191.103 83.300,196.600 88.800 M98.000 84.196 C 98.000 85.095,112.391 99.334,113.955 99.981 C 114.789 100.327,127.282 112.506,147.442 132.626 L 179.600 164.720 179.600 124.574 L 179.600 84.429 170.300 84.206 C 144.229 83.583,98.000 83.576,98.000 84.196 M91.800 112.000 C 95.976 116.180,99.479 119.600,99.585 119.600 C 99.797 119.600,96.718 116.410,89.488 109.139 C 86.897 106.532,84.648 104.400,84.492 104.400 C 84.336 104.400,87.624 107.820,91.800 112.000 M114.700 181.500 C 123.115 181.560,136.885 181.560,145.300 181.500 C 153.715 181.440,146.830 181.390,130.000 181.390 C 113.170 181.390,106.285 181.440,114.700 181.500 M180.991 214.400 C 180.991 231.890,181.040 239.045,181.100 230.300 C 181.160 221.555,181.160 207.245,181.100 198.500 C 181.040 189.755,180.991 196.910,180.991 214.400 M269.052 215.700 C 268.919 216.195,268.808 217.585,268.805 218.790 L 268.800 220.979 277.322 229.501 C 282.009 234.188,285.759 238.108,285.655 238.211 C 285.551 238.315,272.402 238.413,256.433 238.428 C 240.465 238.444,227.092 238.579,226.716 238.728 C 226.048 238.993,249.953 263.600,250.879 263.600 C 253.501 263.600,278.000 287.868,278.000 290.466 C 278.000 291.641,284.578 298.000,285.794 298.000 L 286.800 298.000 286.800 256.400 L 286.800 214.800 278.047 214.800 C 269.307 214.800,269.293 214.801,269.052 215.700 M81.200 247.440 C 81.200 247.646,83.225 249.791,85.700 252.207 L 90.200 256.600 85.800 252.013 C 83.380 249.490,81.355 247.345,81.300 247.246 C 81.245 247.148,81.200 247.235,81.200 247.440 M201.200 305.800 L 201.200 346.800 242.000 346.800 C 269.348 346.800,282.800 346.666,282.800 346.394 C 282.800 346.170,273.215 336.386,261.500 324.652 C 249.785 312.917,231.667 294.650,221.239 284.058 C 210.810 273.466,202.035 264.800,201.739 264.800 C 201.291 264.800,201.200 271.689,201.200 305.800 M299.800 327.200 C 306.617 334.020,312.285 339.600,312.395 339.600 C 312.505 339.600,307.017 334.020,300.200 327.200 C 293.383 320.380,287.715 314.800,287.605 314.800 C 287.495 314.800,292.983 320.380,299.800 327.200 M169.484 336.787 C 175.030 342.385,179.620 346.883,179.684 346.783 C 179.748 346.682,175.210 342.102,169.600 336.604 L 159.400 326.608 169.484 336.787 " stroke="none" fill="#fc8c05" fill-rule="evenodd"></path><path id="path3" d="M178.650 71.918 C 178.518 72.133,178.675 72.530,179.000 72.800 C 179.325 73.070,179.505 73.430,179.400 73.600 C 179.295 73.770,179.511 74.155,179.881 74.455 C 180.251 74.755,180.437 74.805,180.294 74.567 C 180.152 74.328,180.280 74.133,180.579 74.133 C 181.007 74.133,181.025 74.290,180.666 74.867 C 180.243 75.543,179.500 75.600,171.147 75.600 C 161.272 75.600,161.661 75.695,161.552 73.267 C 161.470 71.431,160.462 78.468,160.430 81.100 C 160.404 83.266,160.855 84.405,161.267 83.215 C 161.348 82.979,166.873 82.811,175.507 82.780 L 189.614 82.730 190.767 83.965 C 191.402 84.644,192.074 85.192,192.260 85.183 C 192.447 85.173,191.287 83.957,189.683 82.481 C 187.945 80.882,186.739 79.444,186.699 78.926 C 186.663 78.447,186.517 78.127,186.375 78.216 C 186.232 78.304,185.393 77.757,184.511 77.002 C 183.628 76.246,182.777 75.757,182.619 75.914 C 182.462 76.071,182.393 75.930,182.467 75.600 C 182.540 75.268,182.364 75.049,182.070 75.110 C 181.779 75.170,181.636 75.065,181.754 74.875 C 181.871 74.685,181.275 73.854,180.429 73.029 C 179.584 72.203,178.783 71.703,178.650 71.918 M180.185 116.800 C 180.185 127.470,180.237 131.835,180.300 126.500 C 180.363 121.165,180.363 112.435,180.300 107.100 C 180.237 101.765,180.185 106.130,180.185 116.800 M208.789 101.389 C 210.200 102.813,211.445 103.888,211.555 103.779 C 211.817 103.517,207.145 98.800,206.624 98.800 C 206.404 98.800,207.378 99.965,208.789 101.389 M130.500 118.598 C 130.225 118.911,130.000 119.804,130.000 120.583 C 130.000 121.362,129.820 122.000,129.600 122.000 C 129.380 122.000,129.200 122.540,129.200 123.200 C 129.200 123.860,129.020 124.400,128.800 124.400 C 128.580 124.400,128.400 125.120,128.400 126.000 C 128.400 126.880,128.220 127.600,128.000 127.600 C 127.780 127.600,127.600 128.320,127.600 129.200 C 127.600 130.080,127.420 130.800,127.200 130.800 C 126.980 130.800,126.800 131.340,126.800 132.000 C 126.800 132.660,126.620 133.200,126.400 133.200 C 126.180 133.200,126.000 133.920,126.000 134.800 C 126.000 135.680,125.820 136.400,125.600 136.400 C 125.380 136.400,125.200 137.120,125.200 138.000 C 125.200 138.880,125.020 139.600,124.800 139.600 C 124.580 139.600,124.400 140.140,124.400 140.800 C 124.400 142.185,124.178 142.267,123.038 141.300 C 122.245 140.627,122.236 140.628,122.789 141.340 C 123.106 141.748,123.399 142.312,123.440 142.595 C 123.482 142.878,124.255 143.894,125.158 144.852 C 126.061 145.811,126.800 146.745,126.800 146.928 C 126.800 147.376,131.996 152.400,132.459 152.400 C 133.108 152.400,133.335 151.132,132.758 150.729 C 132.328 150.429,132.315 150.292,132.700 150.136 C 132.980 150.022,133.200 149.245,133.200 148.367 C 133.200 147.505,133.380 146.800,133.600 146.800 C 133.820 146.800,134.000 146.080,134.000 145.200 C 134.000 144.320,134.180 143.600,134.400 143.600 C 134.620 143.600,134.800 143.060,134.800 142.400 C 134.800 141.740,134.980 141.200,135.200 141.200 C 135.420 141.200,135.600 140.480,135.600 139.600 C 135.600 138.720,135.780 138.000,136.000 138.000 C 136.220 138.000,136.400 137.280,136.400 136.400 C 136.400 135.520,136.580 134.800,136.800 134.800 C 137.020 134.800,137.200 134.260,137.200 133.600 C 137.200 132.940,137.380 132.400,137.600 132.400 C 137.820 132.400,138.000 131.680,138.000 130.800 C 138.000 129.920,138.180 129.200,138.400 129.200 C 138.620 129.200,138.800 128.480,138.800 127.600 C 138.800 126.720,138.911 126.000,139.046 126.000 C 139.181 126.000,148.279 134.955,159.262 145.900 C 170.245 156.845,179.540 165.842,179.916 165.893 C 180.437 165.964,180.457 165.929,180.000 165.748 C 179.670 165.618,170.040 156.212,158.600 144.847 C 138.231 124.611,131.452 117.985,131.150 118.015 C 131.068 118.024,130.775 118.286,130.500 118.598 M259.900 123.889 C 260.615 123.978,261.785 123.978,262.500 123.889 C 263.215 123.801,262.630 123.728,261.200 123.728 C 259.770 123.728,259.185 123.801,259.900 123.889 M263.867 124.267 C 263.360 124.774,263.603 125.200,264.400 125.200 C 264.840 125.200,265.200 125.380,265.200 125.600 C 265.200 125.820,265.560 126.000,266.000 126.000 C 266.440 126.000,266.800 126.180,266.800 126.400 C 266.800 126.620,267.340 126.800,268.000 126.800 C 268.660 126.800,269.200 126.980,269.200 127.200 C 269.200 127.420,269.560 127.600,270.000 127.600 C 270.440 127.600,270.800 127.780,270.800 128.000 C 270.800 128.220,271.160 128.400,271.600 128.400 C 272.040 128.400,272.400 128.580,272.400 128.800 C 272.400 129.020,272.760 129.200,273.200 129.200 C 273.640 129.200,274.000 129.380,274.000 129.600 C 274.000 129.820,274.360 130.000,274.800 130.000 C 275.240 130.000,275.600 130.180,275.600 130.400 C 275.600 130.620,275.960 130.800,276.400 130.800 C 276.840 130.800,277.200 130.980,277.200 131.200 C 277.200 131.420,277.740 131.600,278.400 131.600 C 279.060 131.600,279.600 131.780,279.600 132.000 C 279.600 132.220,279.960 132.400,280.400 132.400 C 280.840 132.400,281.200 132.580,281.200 132.800 C 281.200 133.020,281.560 133.200,282.000 133.200 C 282.440 133.200,282.800 133.380,282.800 133.600 C 282.800 133.820,283.160 134.000,283.600 134.000 C 284.040 134.000,284.400 134.180,284.400 134.400 C 284.400 134.620,284.760 134.800,285.200 134.800 C 285.640 134.800,286.000 134.980,286.000 135.200 C 286.000 135.420,286.540 135.600,287.200 135.600 C 287.860 135.600,288.400 135.780,288.400 136.000 C 288.400 136.220,288.760 136.400,289.200 136.400 C 289.640 136.400,290.000 136.580,290.000 136.800 C 290.000 137.020,290.360 137.200,290.800 137.200 C 291.240 137.200,291.600 137.380,291.600 137.600 C 291.600 137.820,291.960 138.000,292.400 138.000 C 292.840 138.000,293.200 138.180,293.200 138.400 C 293.200 138.620,293.560 138.800,294.000 138.800 C 294.440 138.800,294.800 138.980,294.800 139.200 C 294.800 139.420,295.340 139.600,296.000 139.600 C 296.660 139.600,297.200 139.793,297.200 140.028 C 297.200 140.855,298.997 140.222,299.121 139.351 C 299.223 138.637,299.081 138.534,298.221 138.698 C 297.619 138.813,297.200 138.710,297.200 138.447 C 297.200 138.201,296.840 138.000,296.400 138.000 C 295.960 138.000,295.600 137.820,295.600 137.600 C 295.600 137.380,295.240 137.200,294.800 137.200 C 294.360 137.200,294.000 137.020,294.000 136.800 C 294.000 136.580,293.460 136.400,292.800 136.400 C 292.140 136.400,291.600 136.220,291.600 136.000 C 291.600 135.780,291.240 135.600,290.800 135.600 C 290.360 135.600,290.000 135.420,290.000 135.200 C 290.000 134.980,289.640 134.800,289.200 134.800 C 288.760 134.800,288.400 134.620,288.400 134.400 C 288.400 134.180,288.040 134.000,287.600 134.000 C 287.160 134.000,286.800 133.820,286.800 133.600 C 286.800 133.380,286.440 133.200,286.000 133.200 C 285.560 133.200,285.200 133.020,285.200 132.800 C 285.200 132.580,284.840 132.400,284.400 132.400 C 283.960 132.400,283.600 132.220,283.600 132.000 C 283.600 131.780,283.060 131.600,282.400 131.600 C 281.740 131.600,281.200 131.420,281.200 131.200 C 281.200 130.980,280.840 130.800,280.400 130.800 C 279.960 130.800,279.600 130.620,279.600 130.400 C 279.600 130.180,279.240 130.000,278.800 130.000 C 278.360 130.000,278.000 129.820,278.000 129.600 C 278.000 129.380,277.640 129.200,277.200 129.200 C 276.760 129.200,276.400 129.020,276.400 128.800 C 276.400 128.580,276.040 128.400,275.600 128.400 C 275.160 128.400,274.800 128.220,274.800 128.000 C 274.800 127.780,274.260 127.600,273.600 127.600 C 272.940 127.600,272.400 127.420,272.400 127.200 C 272.400 126.980,272.040 126.800,271.600 126.800 C 271.160 126.800,270.800 126.620,270.800 126.400 C 270.800 126.180,270.440 126.000,270.000 126.000 C 269.560 126.000,269.200 125.820,269.200 125.600 C 269.200 125.380,268.821 125.200,268.357 125.200 C 267.772 125.200,267.585 125.016,267.745 124.600 C 267.985 123.973,264.463 123.671,263.867 124.267 M180.798 159.000 L 180.600 181.800 171.600 181.800 C 166.650 181.800,162.150 181.657,161.600 181.483 L 160.600 181.167 161.600 181.769 C 162.945 182.579,180.711 182.699,181.016 181.900 C 181.122 181.625,181.160 171.230,181.102 158.800 L 180.997 136.200 180.798 159.000 M299.293 141.600 C 299.293 142.370,299.375 142.685,299.476 142.300 C 299.576 141.915,299.576 141.285,299.476 140.900 C 299.375 140.515,299.293 140.830,299.293 141.600 M203.910 185.071 C 203.986 205.455,204.154 214.703,204.453 215.064 C 204.799 215.481,210.638 215.606,233.832 215.692 L 262.779 215.800 265.589 218.589 C 267.335 220.321,268.400 221.129,268.400 220.720 C 268.400 220.358,267.237 219.013,265.816 217.731 C 258.516 211.145,204.264 156.270,204.661 155.873 C 204.811 155.723,204.678 155.600,204.367 155.600 C 203.882 155.600,203.816 159.860,203.910 185.071 M147.030 167.552 C 146.928 167.717,149.939 170.901,153.721 174.626 C 158.847 179.675,159.371 180.126,155.778 176.400 C 153.127 173.650,150.116 170.466,149.087 169.326 C 148.058 168.185,147.132 167.386,147.030 167.552 M281.000 189.200 C 287.597 195.800,293.085 201.200,293.195 201.200 C 293.305 201.200,287.997 195.800,281.400 189.200 C 274.803 182.600,269.315 177.200,269.205 177.200 C 269.095 177.200,274.403 182.600,281.000 189.200 M105.000 190.000 C 108.955 193.960,112.282 197.200,112.392 197.200 C 112.502 197.200,109.355 193.960,105.400 190.000 C 101.445 186.040,98.118 182.800,98.008 182.800 C 97.898 182.800,101.045 186.040,105.000 190.000 M298.000 206.486 C 298.000 206.659,298.360 206.800,298.800 206.800 C 299.240 206.800,299.600 206.659,299.600 206.486 C 299.600 206.313,299.240 206.171,298.800 206.171 C 298.360 206.171,298.000 206.313,298.000 206.486 M268.514 217.800 C 268.517 218.900,268.595 219.303,268.687 218.695 C 268.779 218.086,268.777 217.186,268.682 216.695 C 268.587 216.203,268.511 216.700,268.514 217.800 M204.094 227.500 L 204.200 238.600 215.300 238.716 C 223.963 238.807,226.400 238.722,226.400 238.333 C 226.400 237.669,205.166 216.400,204.504 216.400 C 204.092 216.400,204.009 218.646,204.094 227.500 M275.000 287.200 C 275.859 288.080,276.652 288.800,276.762 288.800 C 276.872 288.800,276.259 288.080,275.400 287.200 C 274.541 286.320,273.748 285.600,273.638 285.600 C 273.528 285.600,274.141 286.320,275.000 287.200 M238.200 300.400 C 239.728 301.940,241.069 303.200,241.179 303.200 C 241.289 303.200,240.128 301.940,238.600 300.400 C 237.072 298.860,235.731 297.600,235.621 297.600 C 235.511 297.600,236.672 298.860,238.200 300.400 " stroke="none" fill="#fccc24" fill-rule="evenodd"></path><path id="path4" d="M160.667 53.867 C 160.520 54.013,160.423 59.548,160.452 66.167 C 160.499 77.195,160.545 77.949,161.000 75.200 C 161.273 73.550,161.520 72.680,161.548 73.267 C 161.666 75.696,161.272 75.600,171.147 75.600 C 179.832 75.600,180.229 75.566,180.717 74.784 C 180.997 74.336,181.403 74.078,181.620 74.212 C 181.836 74.346,181.907 74.627,181.777 74.838 C 181.647 75.048,181.779 75.170,182.070 75.110 C 182.362 75.049,182.551 75.238,182.490 75.530 C 182.430 75.821,182.552 75.953,182.762 75.823 C 182.973 75.693,183.250 75.757,183.378 75.964 C 183.506 76.172,184.374 76.922,185.306 77.631 C 186.237 78.340,181.324 73.223,174.387 66.260 C 162.399 54.227,161.299 53.234,160.667 53.867 M180.740 74.273 C 180.263 74.847,179.016 74.221,179.400 73.600 C 179.505 73.430,179.325 73.070,179.000 72.800 C 178.675 72.530,178.517 72.135,178.648 71.922 C 178.780 71.709,179.405 72.030,180.037 72.635 C 180.921 73.482,181.083 73.859,180.740 74.273 M186.867 79.519 C 186.940 79.695,190.330 83.060,194.400 86.998 L 201.800 94.157 194.404 86.679 C 187.321 79.516,186.566 78.799,186.867 79.519 M161.000 83.996 C 161.440 84.187,165.775 84.356,170.634 84.372 L 179.468 84.400 179.741 124.460 C 179.890 146.493,179.944 164.590,179.859 164.674 C 179.775 164.759,165.271 150.421,147.629 132.812 C 129.988 115.203,115.029 100.525,114.388 100.194 C 112.788 99.367,81.400 99.482,81.400 100.315 C 81.400 100.598,85.450 105.008,90.400 110.115 C 100.933 120.981,127.414 147.546,125.982 145.809 C 125.442 145.153,124.671 144.310,124.268 143.934 C 123.866 143.559,123.498 142.988,123.451 142.666 C 123.404 142.344,123.106 141.748,122.789 141.340 C 122.236 140.628,122.245 140.627,123.038 141.300 C 124.178 142.267,124.400 142.185,124.400 140.800 C 124.400 140.140,124.580 139.600,124.800 139.600 C 125.020 139.600,125.200 138.880,125.200 138.000 C 125.200 137.120,125.380 136.400,125.600 136.400 C 125.820 136.400,126.000 135.680,126.000 134.800 C 126.000 133.920,126.180 133.200,126.400 133.200 C 126.620 133.200,126.800 132.660,126.800 132.000 C 126.800 131.340,126.980 130.800,127.200 130.800 C 127.420 130.800,127.600 130.080,127.600 129.200 C 127.600 128.320,127.780 127.600,128.000 127.600 C 128.220 127.600,128.400 126.880,128.400 126.000 C 128.400 125.120,128.580 124.400,128.800 124.400 C 129.020 124.400,129.200 123.860,129.200 123.200 C 129.200 122.540,129.380 122.000,129.600 122.000 C 129.820 122.000,130.000 121.357,130.000 120.571 C 130.000 119.786,130.275 118.868,130.610 118.532 C 131.375 117.768,131.020 117.434,158.605 144.891 C 170.048 156.281,179.615 165.600,179.866 165.600 C 180.205 165.600,180.294 155.111,180.212 124.700 L 180.102 83.800 170.151 83.724 C 164.241 83.679,160.525 83.790,161.000 83.996 M265.680 123.895 C 267.473 124.008,267.912 124.163,267.737 124.619 C 267.586 125.014,267.785 125.200,268.357 125.200 C 268.821 125.200,269.200 125.380,269.200 125.600 C 269.200 125.820,269.560 126.000,270.000 126.000 C 270.440 126.000,270.800 126.180,270.800 126.400 C 270.800 126.620,271.160 126.800,271.600 126.800 C 272.040 126.800,272.400 126.980,272.400 127.200 C 272.400 127.420,272.940 127.600,273.600 127.600 C 274.260 127.600,274.800 127.780,274.800 128.000 C 274.800 128.220,275.160 128.400,275.600 128.400 C 276.040 128.400,276.400 128.580,276.400 128.800 C 276.400 129.020,276.760 129.200,277.200 129.200 C 277.640 129.200,278.000 129.380,278.000 129.600 C 278.000 129.820,278.360 130.000,278.800 130.000 C 279.240 130.000,279.600 130.180,279.600 130.400 C 279.600 130.620,279.960 130.800,280.400 130.800 C 280.840 130.800,281.200 130.980,281.200 131.200 C 281.200 131.420,281.740 131.600,282.400 131.600 C 283.060 131.600,283.600 131.780,283.600 132.000 C 283.600 132.220,283.960 132.400,284.400 132.400 C 284.840 132.400,285.200 132.580,285.200 132.800 C 285.200 133.020,285.560 133.200,286.000 133.200 C 286.440 133.200,286.800 133.380,286.800 133.600 C 286.800 133.820,287.160 134.000,287.600 134.000 C 288.040 134.000,288.400 134.180,288.400 134.400 C 288.400 134.620,288.760 134.800,289.200 134.800 C 289.640 134.800,290.000 134.980,290.000 135.200 C 290.000 135.420,290.360 135.600,290.800 135.600 C 291.240 135.600,291.600 135.780,291.600 136.000 C 291.600 136.220,292.140 136.400,292.800 136.400 C 293.460 136.400,294.000 136.580,294.000 136.800 C 294.000 137.020,294.360 137.200,294.800 137.200 C 295.240 137.200,295.600 137.380,295.600 137.600 C 295.600 137.820,295.960 138.000,296.400 138.000 C 296.840 138.000,297.200 138.201,297.200 138.447 C 297.200 138.705,297.613 138.814,298.179 138.706 C 298.989 138.551,299.186 138.699,299.319 139.559 C 299.408 140.132,299.507 136.775,299.540 132.100 L 299.600 123.600 281.500 123.676 C 271.545 123.717,264.426 123.816,265.680 123.895 M204.000 215.551 C 204.000 216.018,204.229 216.400,204.510 216.400 C 205.209 216.400,226.400 237.695,226.400 238.397 C 226.400 238.835,226.507 238.853,226.880 238.480 C 227.244 238.116,234.276 238.000,256.080 238.000 C 271.876 238.000,284.800 237.863,284.800 237.696 C 284.800 237.529,281.200 233.796,276.800 229.400 C 270.923 223.528,268.786 221.141,268.746 220.404 L 268.691 219.400 268.511 220.355 C 268.343 221.243,268.137 221.117,265.554 218.555 L 262.779 215.800 233.921 215.692 C 213.621 215.616,204.906 215.454,204.532 215.143 C 204.118 214.800,204.000 214.890,204.000 215.551 M251.800 264.096 C 253.064 264.892,275.558 287.226,276.844 288.960 C 277.480 289.818,278.000 290.340,278.000 290.120 C 278.000 288.555,255.654 265.820,252.747 264.428 C 251.786 263.968,251.360 263.818,251.800 264.096 M221.039 283.857 C 231.577 294.559,249.785 312.916,261.500 324.651 C 273.215 336.386,282.800 346.170,282.800 346.394 C 282.800 346.617,283.064 346.800,283.387 346.800 C 284.572 346.800,282.853 345.027,243.399 305.572 C 221.304 283.477,203.221 265.175,203.214 264.900 C 203.206 264.625,202.902 264.400,202.539 264.400 C 202.175 264.400,210.500 273.156,221.039 283.857 M285.432 313.000 C 295.750 323.911,310.823 339.164,311.800 339.681 C 312.240 339.914,306.492 333.916,299.027 326.352 C 278.893 305.951,277.115 304.205,285.432 313.000 M314.952 343.059 C 316.805 344.988,317.598 346.094,317.390 346.459 C 317.140 346.899,317.185 346.905,317.630 346.492 C 318.084 346.069,317.672 345.495,315.192 343.092 L 312.207 340.200 314.952 343.059 " stroke="none" fill="#fcb820" fill-rule="evenodd"></path></g></svg>