<svg id="svg" version="1.1" width="400" height="400" viewBox="0 0 400 400" xmlns="http://www.w3.org/2000/svg" xmlns:xlink="http://www.w3.org/1999/xlink" ><g id="svgg"><path id="path0" d="M113.800 138.400 C 113.664 138.620,113.101 138.800,112.548 138.800 C 110.681 138.800,97.600 150.710,97.600 152.410 C 97.600 152.710,100.739 156.108,104.576 159.963 L 111.553 166.971 114.537 166.860 C 116.335 166.793,117.626 166.918,117.784 167.174 C 117.929 167.408,118.367 167.600,118.759 167.600 C 119.474 167.600,122.169 170.276,123.100 171.911 C 123.382 172.406,123.600 174.146,123.600 175.899 L 123.600 179.009 130.304 185.704 L 137.009 192.400 140.043 192.400 C 144.294 192.400,146.295 193.582,148.362 197.312 C 149.250 198.914,149.529 202.549,148.800 203.000 C 148.580 203.136,148.400 203.561,148.400 203.945 C 148.400 206.099,143.797 209.200,140.600 209.200 C 135.281 209.200,132.400 205.905,132.400 199.822 L 132.400 196.166 126.228 190.041 C 122.818 186.656,119.820 183.993,119.528 184.091 C 119.104 184.232,118.979 187.616,118.896 201.284 L 118.791 218.302 119.896 219.025 C 128.475 224.635,121.207 238.110,111.912 233.827 C 108.470 232.241,106.800 229.684,106.800 226.000 C 106.800 222.704,107.726 221.050,110.900 218.680 L 112.400 217.559 112.400 200.617 L 112.400 183.675 110.500 182.310 C 107.584 180.215,106.623 178.014,106.918 174.111 L 107.153 171.005 100.291 164.102 C 96.518 160.306,93.152 157.200,92.813 157.200 C 91.755 157.200,54.998 194.334,54.036 196.375 C 51.438 201.890,50.595 200.818,82.900 233.045 L 111.000 261.077 113.337 261.611 C 115.151 262.026,115.844 262.040,116.432 261.673 C 116.848 261.413,117.464 261.200,117.800 261.200 C 119.061 261.200,120.775 259.564,147.619 232.743 C 176.821 203.565,176.400 204.042,176.400 200.151 C 176.400 196.245,176.537 196.401,148.070 167.871 C 121.305 141.047,118.908 138.800,117.052 138.800 C 116.499 138.800,115.936 138.620,115.800 138.400 C 115.664 138.180,115.214 138.000,114.800 138.000 C 114.386 138.000,113.936 138.180,113.800 138.400 " stroke="none" fill="#f43c2c" fill-rule="evenodd"></path><path id="path1" d="M278.800 138.400 C 278.800 138.620,278.080 138.800,277.200 138.800 C 276.320 138.800,275.600 138.980,275.600 139.200 C 275.600 139.420,275.322 139.600,274.982 139.600 C 274.182 139.600,272.400 141.382,272.400 142.182 C 272.400 142.522,272.220 142.800,272.000 142.800 C 271.780 142.800,271.600 143.160,271.600 143.600 C 271.600 144.040,271.420 144.400,271.200 144.400 C 270.956 144.400,270.800 146.267,270.800 149.200 C 270.800 152.133,270.956 154.000,271.200 154.000 C 271.420 154.000,271.600 154.455,271.600 155.011 C 271.600 156.389,274.811 159.600,276.189 159.600 C 276.745 159.600,277.200 159.780,277.200 160.000 C 277.200 160.244,279.067 160.400,282.000 160.400 C 284.933 160.400,286.800 160.244,286.800 160.000 C 286.800 159.780,287.160 159.600,287.600 159.600 C 288.040 159.600,288.400 159.420,288.400 159.200 C 288.400 158.980,288.678 158.800,289.018 158.800 C 289.818 158.800,291.600 157.018,291.600 156.218 C 291.600 155.878,291.780 155.600,292.000 155.600 C 292.220 155.600,292.400 155.060,292.400 154.400 C 292.400 153.740,292.580 153.200,292.800 153.200 C 293.040 153.200,293.200 151.600,293.200 149.200 C 293.200 146.800,293.040 145.200,292.800 145.200 C 292.580 145.200,292.400 144.745,292.400 144.189 C 292.400 143.060,289.242 139.600,288.211 139.600 C 287.875 139.600,287.600 139.420,287.600 139.200 C 287.600 138.980,287.060 138.800,286.400 138.800 C 285.740 138.800,285.200 138.620,285.200 138.400 C 285.200 138.167,283.867 138.000,282.000 138.000 C 280.133 138.000,278.800 138.167,278.800 138.400 M313.700 149.798 C 313.425 150.111,313.200 151.364,313.200 152.583 C 313.200 153.802,313.020 154.800,312.800 154.800 C 312.580 154.800,312.400 155.520,312.400 156.400 C 312.400 157.280,312.220 158.000,312.000 158.000 C 311.780 158.000,311.600 158.360,311.600 158.800 C 311.600 159.240,311.420 159.600,311.200 159.600 C 310.980 159.600,310.800 159.960,310.800 160.400 C 310.800 160.840,310.620 161.200,310.400 161.200 C 310.180 161.200,310.000 161.475,310.000 161.811 C 310.000 162.604,306.604 166.000,305.811 166.000 C 305.475 166.000,305.200 166.180,305.200 166.400 C 305.200 166.620,304.660 166.800,304.000 166.800 C 303.340 166.800,302.800 166.980,302.800 167.200 C 302.800 167.420,302.080 167.600,301.200 167.600 C 300.320 167.600,299.600 167.780,299.600 168.000 C 299.600 168.220,299.240 168.400,298.800 168.400 C 298.036 168.400,298.000 168.667,298.000 174.400 L 298.000 180.400 302.400 180.400 L 306.800 180.400 306.800 197.200 C 306.800 208.133,306.940 214.000,307.200 214.000 C 307.429 214.000,307.600 215.200,307.600 216.800 C 307.600 218.400,307.771 219.600,308.000 219.600 C 308.220 219.600,308.400 220.140,308.400 220.800 C 308.400 221.460,308.580 222.000,308.800 222.000 C 309.020 222.000,309.200 222.360,309.200 222.800 C 309.200 223.240,309.380 223.600,309.600 223.600 C 309.820 223.600,310.000 223.876,310.000 224.213 C 310.000 225.009,312.591 227.600,313.387 227.600 C 313.724 227.600,314.000 227.780,314.000 228.000 C 314.000 228.220,314.360 228.400,314.800 228.400 C 315.240 228.400,315.600 228.580,315.600 228.800 C 315.600 229.020,316.140 229.200,316.800 229.200 C 317.460 229.200,318.000 229.380,318.000 229.600 C 318.000 229.820,318.900 230.000,320.000 230.000 C 321.100 230.000,322.000 230.180,322.000 230.400 C 322.000 230.644,323.867 230.800,326.800 230.800 C 329.733 230.800,331.600 230.644,331.600 230.400 C 331.600 230.178,332.667 230.000,334.000 230.000 C 335.333 230.000,336.400 229.822,336.400 229.600 C 336.400 229.380,337.120 229.200,338.000 229.200 C 338.880 229.200,339.600 229.020,339.600 228.800 C 339.600 228.580,340.140 228.400,340.800 228.400 C 341.460 228.400,342.000 228.220,342.000 228.000 C 342.000 227.780,342.360 227.600,342.800 227.600 C 343.240 227.600,343.600 227.420,343.600 227.200 C 343.600 226.980,344.063 226.800,344.629 226.800 C 345.194 226.800,345.914 226.543,346.229 226.229 C 346.875 225.582,347.014 222.800,346.400 222.800 C 346.180 222.800,346.000 222.260,346.000 221.600 C 346.000 220.940,345.820 220.400,345.600 220.400 C 345.380 220.400,345.200 219.860,345.200 219.200 C 345.200 218.540,345.020 218.000,344.800 218.000 C 344.580 218.000,344.400 217.460,344.400 216.800 C 344.400 216.140,344.220 215.600,344.000 215.600 C 343.780 215.600,343.600 215.240,343.600 214.800 C 343.600 214.178,343.333 214.000,342.400 214.000 C 341.740 214.000,341.200 214.180,341.200 214.400 C 341.200 214.620,340.660 214.800,340.000 214.800 C 339.340 214.800,338.800 214.980,338.800 215.200 C 338.800 215.442,337.067 215.600,334.400 215.600 C 331.733 215.600,330.000 215.442,330.000 215.200 C 330.000 214.980,329.717 214.800,329.371 214.800 C 328.563 214.800,327.600 213.837,327.600 213.029 C 327.600 212.683,327.420 212.400,327.200 212.400 C 326.980 212.400,326.800 211.680,326.800 210.800 C 326.800 209.920,326.620 209.200,326.400 209.200 C 326.141 209.200,326.000 204.133,326.000 194.800 L 326.000 180.400 334.800 180.400 L 343.600 180.400 343.600 173.600 L 343.600 166.800 334.800 166.800 L 326.000 166.800 326.000 158.000 L 326.000 149.200 320.100 149.215 C 315.520 149.227,314.088 149.357,313.700 149.798 M219.600 168.800 C 219.600 169.020,218.880 169.200,218.000 169.200 C 217.120 169.200,216.400 169.380,216.400 169.600 C 216.400 169.820,215.860 170.000,215.200 170.000 C 214.540 170.000,214.000 170.180,214.000 170.400 C 214.000 170.620,213.640 170.800,213.200 170.800 C 212.760 170.800,212.400 170.980,212.400 171.200 C 212.400 171.420,212.040 171.600,211.600 171.600 C 211.160 171.600,210.800 171.780,210.800 172.000 C 210.800 172.220,210.512 172.400,210.160 172.400 C 209.809 172.400,209.017 172.940,208.400 173.600 C 207.783 174.260,206.991 174.800,206.640 174.800 C 206.288 174.800,206.000 175.088,206.000 175.440 C 206.000 175.791,205.460 176.583,204.800 177.200 C 204.140 177.817,203.600 178.609,203.600 178.960 C 203.600 179.312,203.420 179.600,203.200 179.600 C 202.980 179.600,202.800 179.960,202.800 180.400 C 202.800 180.840,202.620 181.200,202.400 181.200 C 202.180 181.200,202.000 181.560,202.000 182.000 C 202.000 182.440,201.820 182.800,201.600 182.800 C 201.380 182.800,201.200 183.700,201.200 184.800 C 201.200 185.900,201.020 186.800,200.800 186.800 C 200.556 186.800,200.400 188.667,200.400 191.600 C 200.400 194.533,200.556 196.400,200.800 196.400 C 201.020 196.400,201.200 197.120,201.200 198.000 C 201.200 198.880,201.380 199.600,201.600 199.600 C 201.820 199.600,202.000 199.960,202.000 200.400 C 202.000 200.840,202.180 201.200,202.400 201.200 C 202.620 201.200,202.800 201.560,202.800 202.000 C 202.800 202.440,202.980 202.800,203.200 202.800 C 203.420 202.800,203.600 203.079,203.600 203.419 C 203.600 203.760,204.868 205.289,206.417 206.817 L 209.234 209.595 205.217 213.583 C 203.008 215.777,201.200 217.848,201.200 218.186 C 201.200 218.524,201.020 218.800,200.800 218.800 C 200.580 218.800,200.400 219.340,200.400 220.000 C 200.400 220.660,200.220 221.200,200.000 221.200 C 199.780 221.200,199.600 222.100,199.600 223.200 C 199.600 224.300,199.780 225.200,200.000 225.200 C 200.220 225.200,200.400 225.740,200.400 226.400 C 200.400 227.060,200.580 227.600,200.800 227.600 C 201.020 227.600,201.200 227.888,201.200 228.240 C 201.200 228.591,201.759 229.401,202.442 230.040 L 203.685 231.200 202.442 232.360 C 201.759 232.999,201.200 233.769,201.200 234.072 C 201.200 234.375,200.840 234.883,200.400 235.200 C 199.930 235.539,199.600 236.235,199.600 236.888 C 199.600 237.500,199.420 238.000,199.200 238.000 C 198.956 238.000,198.800 239.867,198.800 242.800 C 198.800 245.733,198.956 247.600,199.200 247.600 C 199.420 247.600,199.600 247.960,199.600 248.400 C 199.600 248.840,199.780 249.200,200.000 249.200 C 200.220 249.200,200.400 249.476,200.400 249.813 C 200.400 250.609,202.991 253.200,203.787 253.200 C 204.124 253.200,204.400 253.380,204.400 253.600 C 204.400 253.820,204.760 254.000,205.200 254.000 C 205.640 254.000,206.000 254.180,206.000 254.400 C 206.000 254.620,206.360 254.800,206.800 254.800 C 207.240 254.800,207.600 254.980,207.600 255.200 C 207.600 255.420,208.140 255.600,208.800 255.600 C 209.460 255.600,210.000 255.780,210.000 256.000 C 210.000 256.220,210.720 256.400,211.600 256.400 C 212.480 256.400,213.200 256.580,213.200 256.800 C 213.200 257.029,214.400 257.200,216.000 257.200 C 217.600 257.200,218.800 257.371,218.800 257.600 C 218.800 257.855,222.133 258.000,228.000 258.000 C 233.867 258.000,237.200 257.855,237.200 257.600 C 237.200 257.378,238.267 257.200,239.600 257.200 C 240.933 257.200,242.000 257.022,242.000 256.800 C 242.000 256.580,242.720 256.400,243.600 256.400 C 244.480 256.400,245.200 256.220,245.200 256.000 C 245.200 255.780,245.740 255.600,246.400 255.600 C 247.060 255.600,247.600 255.420,247.600 255.200 C 247.600 254.980,247.960 254.800,248.400 254.800 C 248.840 254.800,249.200 254.620,249.200 254.400 C 249.200 254.180,249.560 254.000,250.000 254.000 C 250.440 254.000,250.800 253.820,250.800 253.600 C 250.800 253.380,251.160 253.200,251.600 253.200 C 252.040 253.200,252.400 253.020,252.400 252.800 C 252.400 252.580,252.673 252.400,253.007 252.400 C 253.799 252.400,258.800 247.399,258.800 246.607 C 258.800 246.273,258.980 246.000,259.200 246.000 C 259.420 246.000,259.600 245.640,259.600 245.200 C 259.600 244.760,259.780 244.400,260.000 244.400 C 260.220 244.400,260.400 243.860,260.400 243.200 C 260.400 242.540,260.580 242.000,260.800 242.000 C 261.048 242.000,261.200 239.867,261.200 236.400 C 261.200 232.933,261.048 230.800,260.800 230.800 C 260.580 230.800,260.400 230.260,260.400 229.600 C 260.400 228.940,260.220 228.400,260.000 228.400 C 259.780 228.400,259.600 228.040,259.600 227.600 C 259.600 227.160,259.420 226.800,259.200 226.800 C 258.980 226.800,258.800 226.524,258.800 226.187 C 258.800 225.391,256.209 222.800,255.413 222.800 C 255.076 222.800,254.800 222.620,254.800 222.400 C 254.800 222.180,254.440 222.000,254.000 222.000 C 253.560 222.000,253.200 221.820,253.200 221.600 C 253.200 221.380,252.660 221.200,252.000 221.200 C 251.340 221.200,250.800 221.020,250.800 220.800 C 250.800 220.580,250.080 220.400,249.200 220.400 C 248.320 220.400,247.600 220.220,247.600 220.000 C 247.600 219.778,246.533 219.600,245.200 219.600 C 243.867 219.600,242.800 219.422,242.800 219.200 C 242.800 218.956,240.933 218.800,238.000 218.800 C 235.067 218.800,233.200 218.644,233.200 218.400 C 233.200 218.150,230.857 218.000,226.971 218.000 C 219.821 218.000,217.743 217.115,220.400 215.200 C 220.840 214.883,221.200 214.303,221.200 213.912 C 221.200 213.348,221.533 213.200,222.800 213.200 C 223.680 213.200,224.400 213.380,224.400 213.600 C 224.400 213.848,226.533 214.000,230.000 214.000 C 233.467 214.000,235.600 213.848,235.600 213.600 C 235.600 213.378,236.667 213.200,238.000 213.200 C 239.333 213.200,240.400 213.022,240.400 212.800 C 240.400 212.580,240.940 212.400,241.600 212.400 C 242.260 212.400,242.800 212.220,242.800 212.000 C 242.800 211.780,243.160 211.600,243.600 211.600 C 244.040 211.600,244.400 211.420,244.400 211.200 C 244.400 210.980,244.760 210.800,245.200 210.800 C 245.640 210.800,246.000 210.620,246.000 210.400 C 246.000 210.180,246.273 210.000,246.606 210.000 C 247.397 210.000,253.200 204.197,253.200 203.406 C 253.200 203.073,253.380 202.800,253.600 202.800 C 253.820 202.800,254.000 202.440,254.000 202.000 C 254.000 201.560,254.180 201.200,254.400 201.200 C 254.620 201.200,254.800 200.480,254.800 199.600 C 254.800 198.720,254.980 198.000,255.200 198.000 C 255.446 198.000,255.600 196.000,255.600 192.800 C 255.600 189.600,255.446 187.600,255.200 187.600 C 254.980 187.600,254.800 187.060,254.800 186.400 C 254.800 185.740,254.620 185.200,254.400 185.200 C 254.180 185.200,254.000 184.840,254.000 184.400 C 254.000 183.960,253.820 183.600,253.600 183.600 C 253.380 183.600,253.200 183.240,253.200 182.800 C 253.200 182.360,253.020 182.000,252.800 182.000 C 252.580 182.000,252.400 181.820,252.400 181.600 C 252.400 181.356,254.267 181.200,257.200 181.200 L 262.000 181.200 262.000 175.200 L 262.000 169.200 249.200 169.200 C 240.933 169.200,236.400 169.058,236.400 168.800 C 236.400 168.546,233.333 168.400,228.000 168.400 C 222.667 168.400,219.600 168.546,219.600 168.800 M267.300 168.998 C 267.009 169.329,266.800 170.659,266.800 172.183 C 266.800 173.661,266.626 174.800,266.400 174.800 C 266.178 174.800,266.000 175.867,266.000 177.200 L 266.000 179.600 267.200 179.600 C 267.860 179.600,268.400 179.780,268.400 180.000 C 268.400 180.220,268.760 180.400,269.200 180.400 C 269.640 180.400,270.000 180.580,270.000 180.800 C 270.000 181.020,270.458 181.200,271.018 181.200 C 271.578 181.200,272.478 181.642,273.018 182.182 L 274.000 183.164 274.000 200.410 C 274.000 219.776,274.158 218.800,271.029 218.800 C 270.023 218.800,269.200 218.980,269.200 219.200 C 269.200 219.420,268.480 219.600,267.600 219.600 L 266.000 219.600 266.000 225.200 L 266.000 230.800 283.200 230.800 L 300.400 230.800 300.400 225.200 L 300.400 219.600 298.800 219.600 C 297.920 219.600,297.200 219.420,297.200 219.200 C 297.200 218.980,296.300 218.800,295.200 218.800 L 293.200 218.800 293.200 193.600 L 293.200 168.400 280.500 168.415 C 270.046 168.428,267.712 168.531,267.300 168.998 M230.800 181.600 C 230.800 181.820,231.434 182.000,232.209 182.000 C 233.995 182.000,238.000 185.729,238.000 187.391 C 238.000 187.946,238.180 188.400,238.400 188.400 C 238.622 188.400,238.800 189.467,238.800 190.800 C 238.800 192.133,238.622 193.200,238.400 193.200 C 238.180 193.200,238.000 193.560,238.000 194.000 C 238.000 194.440,237.820 194.800,237.600 194.800 C 237.380 194.800,237.200 195.076,237.200 195.413 C 237.200 196.209,234.609 198.800,233.813 198.800 C 233.476 198.800,233.200 198.980,233.200 199.200 C 233.200 199.420,232.480 199.600,231.600 199.600 C 230.720 199.600,230.000 199.780,230.000 200.000 C 230.000 200.220,229.460 200.400,228.800 200.400 C 228.140 200.400,227.600 200.220,227.600 200.000 C 227.600 199.780,226.740 199.600,225.688 199.600 C 224.235 199.600,223.638 199.408,223.200 198.800 C 222.883 198.360,222.380 198.000,222.083 198.000 C 221.351 198.000,220.400 197.000,220.400 196.229 C 220.400 195.883,220.220 195.600,220.000 195.600 C 219.780 195.600,219.600 195.240,219.600 194.800 C 219.600 194.360,219.420 194.000,219.200 194.000 C 218.967 194.000,218.800 192.667,218.800 190.800 C 218.800 188.933,218.967 187.600,219.200 187.600 C 219.420 187.600,219.600 187.325,219.600 186.989 C 219.600 186.196,222.996 182.800,223.789 182.800 C 224.125 182.800,224.400 182.620,224.400 182.400 C 224.400 182.180,224.940 182.000,225.600 182.000 C 226.260 182.000,226.800 181.820,226.800 181.600 C 226.800 181.380,227.700 181.200,228.800 181.200 C 229.900 181.200,230.800 181.380,230.800 181.600 M222.000 235.200 C 222.000 235.449,224.267 235.600,228.000 235.600 C 231.733 235.600,234.000 235.751,234.000 236.000 C 234.000 236.229,235.200 236.400,236.800 236.400 C 238.400 236.400,239.600 236.571,239.600 236.800 C 239.600 237.020,239.883 237.200,240.229 237.200 C 241.229 237.200,242.000 238.238,242.000 239.585 C 242.000 240.935,239.753 243.600,238.613 243.600 C 238.276 243.600,238.000 243.780,238.000 244.000 C 238.000 244.220,237.280 244.400,236.400 244.400 C 235.520 244.400,234.800 244.580,234.800 244.800 C 234.800 245.052,232.133 245.200,227.600 245.200 C 223.067 245.200,220.400 245.052,220.400 244.800 C 220.400 244.580,219.860 244.400,219.200 244.400 C 218.540 244.400,218.000 244.220,218.000 244.000 C 218.000 243.780,217.640 243.600,217.200 243.600 C 216.760 243.600,216.400 243.420,216.400 243.200 C 216.400 242.980,216.040 242.800,215.600 242.800 C 215.067 242.800,214.800 242.533,214.800 242.000 C 214.800 241.560,214.620 241.200,214.400 241.200 C 214.180 241.200,214.000 240.660,214.000 240.000 C 214.000 239.340,214.180 238.800,214.400 238.800 C 214.620 238.800,214.800 238.480,214.800 238.088 C 214.800 237.697,215.160 237.117,215.600 236.800 C 216.040 236.483,216.400 235.903,216.400 235.512 C 216.400 234.897,216.782 234.800,219.200 234.800 C 220.800 234.800,222.000 234.971,222.000 235.200 " stroke="none" fill="#342404" fill-rule="evenodd"></path><path id="path2" d="" stroke="none" fill="#342c04" fill-rule="evenodd"></path><path id="path3" d="M107.000 172.000 C 107.000 172.618,107.135 173.040,107.300 172.938 C 107.465 172.836,107.600 172.414,107.600 172.000 C 107.600 171.586,107.465 171.164,107.300 171.062 C 107.135 170.960,107.000 171.382,107.000 172.000 M118.800 183.914 C 118.800 184.087,119.160 184.229,119.600 184.229 C 120.040 184.229,120.400 184.087,120.400 183.914 C 120.400 183.741,120.040 183.600,119.600 183.600 C 119.160 183.600,118.800 183.741,118.800 183.914 M82.200 232.800 C 97.379 247.980,109.888 260.400,109.998 260.400 C 110.108 260.400,97.779 247.980,82.600 232.800 C 67.421 217.620,54.912 205.200,54.802 205.200 C 54.692 205.200,67.021 217.620,82.200 232.800 M133.200 205.325 C 133.200 205.394,133.773 205.979,134.474 206.625 L 135.749 207.800 134.774 206.522 C 133.947 205.437,133.200 204.869,133.200 205.325 " stroke="none" fill="#f83018" fill-rule="evenodd"></path><path id="path4" d="M147.399 233.300 L 120.200 260.600 147.500 233.401 C 172.878 208.117,174.979 206.000,174.699 206.000 C 174.643 206.000,162.358 218.285,147.399 233.300 " stroke="none" fill="#683018" fill-rule="evenodd"></path></g></svg>