<svg id="svg" version="1.1" width="400" height="400" viewBox="0 0 400 400" xmlns="http://www.w3.org/2000/svg" xmlns:xlink="http://www.w3.org/1999/xlink" ><g id="svgg"><path id="path0" d="M118.000 75.269 C 117.230 75.483,115.880 75.856,115.000 76.099 C 112.608 76.761,112.589 76.816,114.403 77.847 C 115.899 78.697,116.575 78.800,120.621 78.800 C 125.928 78.800,128.657 79.254,132.600 80.793 C 138.202 82.979,145.197 88.700,148.721 93.976 L 150.251 96.268 152.773 94.953 C 154.160 94.230,155.372 93.562,155.465 93.468 C 156.471 92.463,145.404 81.554,140.455 78.672 C 134.490 75.199,123.997 73.609,118.000 75.269 M266.609 75.664 C 261.425 77.107,256.370 80.201,251.671 84.806 C 248.977 87.447,244.250 93.184,244.535 93.468 C 244.628 93.562,245.840 94.230,247.227 94.953 L 249.749 96.268 251.279 93.976 C 257.762 84.269,267.888 78.800,279.379 78.800 C 283.425 78.800,284.101 78.697,285.597 77.847 C 287.618 76.699,287.787 76.814,281.754 75.232 C 278.983 74.505,269.832 74.766,266.609 75.664 M187.200 96.069 C 185.770 96.270,183.070 96.699,181.200 97.021 C 178.082 97.557,176.823 97.819,172.800 98.766 C 171.273 99.126,165.484 101.022,164.200 101.583 C 163.760 101.776,162.844 102.159,162.164 102.436 C 159.329 103.589,159.248 109.312,162.001 114.000 C 164.135 117.634,166.632 122.317,168.918 126.970 C 170.206 129.594,172.217 133.014,173.386 134.570 C 177.256 139.723,178.541 142.400,177.145 142.400 C 176.921 142.400,174.727 140.909,172.269 139.088 C 159.989 129.985,148.041 122.777,140.600 119.981 C 122.519 113.188,106.800 114.517,106.800 122.838 C 106.800 125.328,108.934 130.982,110.929 133.780 L 111.800 135.000 112.000 132.204 C 112.478 125.520,114.649 130.240,115.955 140.800 C 118.608 162.266,117.032 175.556,111.045 182.218 L 109.624 183.800 110.912 185.015 C 114.118 188.038,119.777 191.110,128.200 194.399 C 136.244 197.541,140.800 205.291,140.800 215.831 C 140.800 219.765,142.060 218.246,143.646 212.400 C 143.915 211.410,144.285 210.429,144.467 210.220 C 144.941 209.679,144.881 233.818,144.398 238.173 C 143.302 248.049,141.869 255.210,139.198 264.148 C 138.524 266.404,138.525 266.404,145.075 267.438 L 146.750 267.702 156.901 252.351 C 167.097 236.933,167.959 235.524,170.575 230.000 C 172.435 226.073,173.100 225.196,173.610 226.002 C 174.081 226.747,174.082 226.867,173.636 228.923 C 173.436 229.845,173.064 231.860,172.810 233.400 C 172.218 236.981,171.155 242.179,170.375 245.300 C 170.169 246.125,169.835 247.475,169.633 248.300 C 169.129 250.361,168.369 253.198,168.000 254.400 C 167.831 254.950,167.468 256.210,167.192 257.200 C 166.180 260.842,165.963 261.526,163.770 268.000 C 160.658 277.186,160.691 276.305,163.468 275.958 C 164.751 275.798,181.190 275.668,200.000 275.668 C 218.810 275.668,235.249 275.798,236.532 275.958 C 239.307 276.304,239.333 277.152,236.291 268.200 C 235.095 264.680,233.889 260.990,233.612 260.000 C 233.334 259.010,232.969 257.750,232.800 257.200 C 232.244 255.392,231.273 251.840,230.394 248.400 C 229.456 244.732,229.223 243.750,228.778 241.600 C 228.527 240.390,228.169 238.680,227.981 237.800 C 227.794 236.920,227.435 234.940,227.184 233.400 C 226.933 231.860,226.564 229.845,226.364 228.923 C 225.918 226.867,225.919 226.747,226.390 226.002 C 226.900 225.196,227.565 226.073,229.425 230.000 C 232.041 235.524,232.903 236.933,243.099 252.351 L 253.250 267.702 254.925 267.438 C 261.475 266.404,261.476 266.404,260.802 264.148 C 258.120 255.173,256.702 248.090,255.602 238.173 C 255.121 233.829,255.058 209.677,255.530 210.220 C 255.712 210.429,256.093 211.410,256.377 212.400 C 258.121 218.480,259.200 219.790,259.200 215.831 C 259.200 205.291,263.756 197.541,271.800 194.399 C 280.208 191.116,285.843 188.059,289.099 185.015 L 290.399 183.800 289.195 182.518 C 283.005 175.919,281.356 162.562,284.045 140.800 C 285.351 130.240,287.522 125.520,288.000 132.204 L 288.200 135.000 289.071 133.780 C 299.187 119.597,290.466 112.378,269.000 117.166 C 265.463 117.955,262.413 118.849,259.400 119.981 C 251.970 122.773,240.399 129.736,228.357 138.662 C 220.640 144.383,220.135 143.197,226.614 134.570 C 227.783 133.014,229.794 129.594,231.082 126.970 C 233.368 122.317,235.865 117.634,237.999 114.000 C 240.752 109.312,240.671 103.589,237.836 102.436 C 237.156 102.159,236.240 101.776,235.800 101.583 C 234.455 100.995,228.691 99.117,227.100 98.748 C 226.275 98.557,224.835 98.220,223.900 97.999 C 214.574 95.799,196.029 94.823,187.200 96.069 M188.662 149.883 C 190.519 150.407,192.853 150.543,200.000 150.543 C 209.677 150.543,211.323 150.301,215.886 148.212 C 217.102 147.655,218.164 147.200,218.246 147.200 C 218.709 147.200,214.418 153.244,213.040 154.534 C 207.060 160.127,202.011 162.404,197.932 161.346 C 192.785 160.011,186.535 155.162,183.479 150.130 C 181.600 147.037,181.593 147.058,184.162 148.234 C 185.352 148.779,187.377 149.521,188.662 149.883 M148.800 149.366 C 158.821 151.848,165.013 156.204,170.590 164.694 C 175.854 172.705,180.952 176.709,185.314 176.256 C 190.207 175.747,189.788 175.674,189.922 177.057 C 190.313 181.084,183.569 187.600,179.009 187.600 C 178.106 187.600,178.000 187.761,178.000 189.134 C 178.000 193.510,172.775 203.860,169.432 206.106 C 168.700 206.598,167.044 207.732,165.751 208.626 C 164.458 209.521,162.770 210.496,162.000 210.794 C 161.230 211.091,160.371 211.510,160.090 211.724 C 159.074 212.502,159.150 211.614,160.279 209.530 C 160.913 208.358,161.669 206.590,161.958 205.600 C 162.247 204.610,162.645 203.387,162.842 202.881 C 163.290 201.732,163.313 198.400,162.873 198.400 C 162.694 198.400,161.548 198.585,160.327 198.810 C 157.858 199.267,152.628 198.612,149.000 197.393 C 139.205 194.100,132.853 184.695,130.770 170.400 L 130.275 167.000 129.768 168.400 C 129.489 169.170,129.247 170.464,129.230 171.276 C 129.179 173.779,127.788 173.655,126.635 171.045 C 124.011 165.102,124.190 159.650,127.122 156.291 C 127.988 155.299,126.791 154.593,122.900 153.801 C 120.912 153.396,121.136 152.155,123.300 151.576 C 124.235 151.326,125.180 150.992,125.400 150.833 C 126.231 150.233,131.807 148.877,134.400 148.644 C 137.599 148.357,146.537 148.805,148.800 149.366 M269.352 149.231 C 273.046 150.200,274.219 150.558,274.600 150.833 C 274.820 150.992,275.765 151.326,276.700 151.576 C 278.864 152.155,279.088 153.396,277.100 153.801 C 273.209 154.593,272.012 155.299,272.878 156.291 C 275.810 159.650,275.989 165.102,273.365 171.045 C 272.212 173.655,270.821 173.779,270.770 171.276 C 270.753 170.464,270.511 169.170,270.232 168.400 L 269.725 167.000 269.230 170.400 C 267.147 184.695,260.795 194.100,251.000 197.393 C 247.372 198.612,242.142 199.267,239.673 198.810 C 238.452 198.585,237.306 198.400,237.127 198.400 C 236.687 198.400,236.710 201.732,237.158 202.881 C 237.355 203.387,237.753 204.610,238.042 205.600 C 238.331 206.590,239.087 208.358,239.721 209.530 C 240.850 211.614,240.926 212.502,239.910 211.724 C 239.629 211.510,238.770 211.091,238.000 210.794 C 237.230 210.496,235.542 209.521,234.249 208.626 C 232.956 207.732,231.300 206.598,230.568 206.106 C 227.225 203.860,222.000 193.510,222.000 189.134 C 222.000 187.761,221.894 187.600,220.991 187.600 C 216.431 187.600,209.687 181.084,210.078 177.057 C 210.212 175.674,209.793 175.747,214.686 176.256 C 219.048 176.709,224.146 172.705,229.410 164.694 C 235.705 155.112,244.115 149.954,255.600 148.632 C 257.991 148.357,267.617 148.776,269.352 149.231 M160.600 285.015 C 156.417 285.805,155.940 285.964,154.203 287.147 C 149.796 290.148,149.694 295.045,153.820 305.400 C 156.222 311.427,160.409 315.254,169.200 319.457 C 174.891 322.177,178.581 323.357,184.600 324.382 C 186.140 324.644,188.375 325.025,189.567 325.229 C 192.392 325.713,208.178 325.709,210.669 325.224 C 211.731 325.018,213.860 324.636,215.400 324.377 C 221.385 323.369,225.099 322.182,230.800 319.457 C 239.591 315.254,243.778 311.427,246.180 305.400 C 251.713 291.515,249.849 286.582,238.400 284.809 C 234.231 284.163,164.126 284.349,160.600 285.015 M186.271 293.036 C 188.931 295.006,188.522 299.970,185.074 307.600 C 179.640 319.620,167.000 318.777,161.103 306.000 C 156.993 297.092,157.295 292.930,162.102 292.273 C 166.745 291.638,185.170 292.220,186.271 293.036 M237.378 292.259 C 242.778 292.999,243.187 296.703,238.897 306.000 C 232.264 320.372,218.598 319.397,213.675 304.200 C 210.896 295.621,211.376 292.949,215.813 292.295 C 217.759 292.008,235.333 291.979,237.378 292.259 M138.400 311.131 C 138.400 312.486,149.678 322.000,151.285 322.000 C 151.749 322.000,151.910 322.385,149.008 316.545 L 146.617 311.731 143.901 311.266 C 140.721 310.720,138.400 310.663,138.400 311.131 M255.599 311.308 L 253.399 311.699 250.999 316.529 C 248.089 322.387,248.251 322.000,248.715 322.000 C 250.322 322.000,261.600 312.486,261.600 311.131 C 261.600 310.708,258.444 310.801,255.599 311.308 " stroke="none" fill="#fcac1c" fill-rule="evenodd"></path><path id="path1" d="M210.800 53.600 C 210.800 53.820,210.260 54.000,209.600 54.000 C 208.940 54.000,208.400 54.180,208.400 54.400 C 208.400 54.620,208.040 54.800,207.600 54.800 C 207.160 54.800,206.800 54.980,206.800 55.200 C 206.800 55.420,206.440 55.600,206.000 55.600 C 205.560 55.600,205.200 55.780,205.200 56.000 C 205.200 56.220,204.840 56.400,204.400 56.400 C 203.960 56.400,203.600 56.580,203.600 56.800 C 203.600 57.020,203.280 57.200,202.888 57.200 C 202.497 57.200,201.917 57.560,201.600 58.000 C 201.283 58.440,200.790 58.800,200.505 58.800 C 199.830 58.800,194.000 64.630,194.000 65.305 C 194.000 65.590,193.640 66.083,193.200 66.400 C 192.760 66.717,192.400 67.297,192.400 67.688 C 192.400 68.080,192.220 68.400,192.000 68.400 C 191.780 68.400,191.600 68.760,191.600 69.200 C 191.600 69.640,191.420 70.000,191.200 70.000 C 190.980 70.000,190.800 70.540,190.800 71.200 C 190.800 71.860,190.620 72.400,190.400 72.400 C 190.180 72.400,190.000 72.940,190.000 73.600 C 190.000 74.260,189.820 74.800,189.600 74.800 C 189.380 74.800,189.200 74.440,189.200 74.000 C 189.200 73.560,189.020 73.200,188.800 73.200 C 188.580 73.200,188.400 72.660,188.400 72.000 C 188.400 71.340,188.220 70.800,188.000 70.800 C 187.767 70.800,187.600 69.467,187.600 67.600 C 187.600 65.733,187.433 64.400,187.200 64.400 C 186.980 64.400,186.800 63.500,186.800 62.400 C 186.800 60.667,186.693 60.400,186.000 60.400 C 185.560 60.400,185.200 60.580,185.200 60.800 C 185.200 61.020,184.732 61.200,184.160 61.200 C 183.521 61.200,182.689 61.662,182.000 62.400 C 181.383 63.060,180.673 63.600,180.421 63.600 C 179.832 63.600,178.000 65.426,178.000 66.013 C 178.000 66.260,177.280 67.154,176.400 68.000 C 175.520 68.846,174.800 69.821,174.800 70.169 C 174.800 70.516,174.620 70.800,174.400 70.800 C 174.180 70.800,174.000 71.120,174.000 71.512 C 174.000 71.903,173.640 72.483,173.200 72.800 C 172.730 73.139,172.400 73.835,172.400 74.488 C 172.400 75.100,172.220 75.600,172.000 75.600 C 171.780 75.600,171.600 75.960,171.600 76.400 C 171.600 76.840,171.420 77.200,171.200 77.200 C 170.980 77.200,170.800 77.740,170.800 78.400 C 170.800 79.060,170.620 79.600,170.400 79.600 C 170.180 79.600,170.000 80.500,170.000 81.600 C 170.000 82.700,169.820 83.600,169.600 83.600 C 169.378 83.600,169.200 84.667,169.200 86.000 C 169.200 88.302,169.159 88.400,168.187 88.400 C 167.175 88.400,164.400 86.061,164.400 85.209 C 164.400 84.648,155.328 75.600,154.765 75.600 C 154.521 75.600,153.817 75.060,153.200 74.400 C 152.583 73.740,151.831 73.200,151.528 73.200 C 151.225 73.200,150.717 72.840,150.400 72.400 C 150.083 71.960,149.543 71.600,149.200 71.600 C 148.857 71.600,148.317 71.240,148.000 70.800 C 147.683 70.360,147.103 70.000,146.712 70.000 C 146.320 70.000,146.000 69.820,146.000 69.600 C 146.000 69.380,145.640 69.200,145.200 69.200 C 144.760 69.200,144.400 69.020,144.400 68.800 C 144.400 68.580,144.040 68.400,143.600 68.400 C 143.160 68.400,142.800 68.220,142.800 68.000 C 142.800 67.780,142.260 67.600,141.600 67.600 C 140.940 67.600,140.400 67.420,140.400 67.200 C 140.400 66.980,139.860 66.800,139.200 66.800 C 138.540 66.800,138.000 66.620,138.000 66.400 C 138.000 66.180,137.280 66.000,136.400 66.000 C 135.520 66.000,134.800 65.820,134.800 65.600 C 134.800 65.378,133.733 65.200,132.400 65.200 C 131.067 65.200,130.000 65.022,130.000 64.800 C 130.000 64.554,128.000 64.400,124.800 64.400 C 121.600 64.400,119.600 64.554,119.600 64.800 C 119.600 65.022,118.533 65.200,117.200 65.200 C 115.867 65.200,114.800 65.378,114.800 65.600 C 114.800 65.820,114.260 66.000,113.600 66.000 C 112.940 66.000,112.400 66.180,112.400 66.400 C 112.400 66.620,111.860 66.800,111.200 66.800 C 110.540 66.800,110.000 66.980,110.000 67.200 C 110.000 67.420,109.460 67.600,108.800 67.600 C 108.140 67.600,107.600 67.780,107.600 68.000 C 107.600 68.220,107.240 68.400,106.800 68.400 C 106.360 68.400,106.000 68.580,106.000 68.800 C 106.000 69.020,105.680 69.200,105.288 69.200 C 104.897 69.200,104.317 69.560,104.000 70.000 C 103.683 70.440,103.143 70.800,102.800 70.800 C 102.457 70.800,101.917 71.160,101.600 71.600 C 101.283 72.040,100.790 72.400,100.504 72.400 C 99.828 72.400,94.800 77.428,94.800 78.104 C 94.800 78.390,94.440 78.883,94.000 79.200 C 92.274 80.444,92.941 82.000,95.200 82.000 C 96.300 82.000,97.200 82.180,97.200 82.400 C 97.200 82.620,98.100 82.800,99.200 82.800 C 100.300 82.800,101.200 82.980,101.200 83.200 C 101.200 83.420,101.740 83.600,102.400 83.600 C 103.060 83.600,103.600 83.780,103.600 84.000 C 103.600 84.220,104.140 84.400,104.800 84.400 C 105.460 84.400,106.000 84.580,106.000 84.800 C 106.000 85.020,106.360 85.200,106.800 85.200 C 107.240 85.200,107.600 85.380,107.600 85.600 C 107.600 85.820,107.960 86.000,108.400 86.000 C 108.840 86.000,109.200 86.180,109.200 86.400 C 109.200 86.620,109.520 86.800,109.912 86.800 C 110.303 86.800,110.883 87.160,111.200 87.600 C 111.517 88.040,112.013 88.400,112.302 88.400 C 112.984 88.400,115.600 91.016,115.600 91.698 C 115.600 91.987,115.960 92.483,116.400 92.800 C 116.957 93.202,117.200 93.835,117.200 94.888 C 117.200 95.720,117.380 96.400,117.600 96.400 C 117.822 96.400,118.000 97.467,118.000 98.800 C 118.000 100.133,117.822 101.200,117.600 101.200 C 117.378 101.200,117.200 102.267,117.200 103.600 L 117.200 106.000 114.400 106.000 C 112.800 106.000,111.600 106.171,111.600 106.400 C 111.600 106.620,110.880 106.800,110.000 106.800 C 109.120 106.800,108.400 106.980,108.400 107.200 C 108.400 107.420,107.900 107.600,107.288 107.600 C 106.635 107.600,105.939 107.930,105.600 108.400 C 105.283 108.840,104.790 109.200,104.504 109.200 C 103.776 109.200,98.800 114.253,98.800 114.993 C 98.800 115.327,98.620 115.600,98.400 115.600 C 98.180 115.600,98.000 116.140,98.000 116.800 C 98.000 117.460,97.820 118.000,97.600 118.000 C 97.354 118.000,97.200 120.000,97.200 123.200 C 97.200 126.400,97.354 128.400,97.600 128.400 C 97.820 128.400,98.000 128.940,98.000 129.600 C 98.000 130.260,98.180 130.800,98.400 130.800 C 98.620 130.800,98.800 131.340,98.800 132.000 C 98.800 132.660,98.980 133.200,99.200 133.200 C 99.420 133.200,99.600 133.560,99.600 134.000 C 99.600 134.440,99.780 134.800,100.000 134.800 C 100.220 134.800,100.400 135.160,100.400 135.600 C 100.400 136.040,100.580 136.400,100.800 136.400 C 101.020 136.400,101.200 136.720,101.200 137.112 C 101.200 137.503,101.560 138.083,102.000 138.400 C 102.440 138.717,102.800 139.257,102.800 139.600 C 102.800 139.943,103.160 140.483,103.600 140.800 C 104.070 141.139,104.400 141.835,104.400 142.488 C 104.400 143.100,104.580 143.600,104.800 143.600 C 105.050 143.600,105.200 146.000,105.200 150.000 C 105.200 154.000,105.050 156.400,104.800 156.400 C 104.580 156.400,104.400 157.300,104.400 158.400 C 104.400 159.500,104.220 160.400,104.000 160.400 C 103.780 160.400,103.600 160.674,103.600 161.009 C 103.600 161.689,99.454 166.000,98.800 166.000 C 98.196 166.000,94.000 170.286,94.000 170.903 C 94.000 171.189,93.640 171.683,93.200 172.000 C 92.730 172.339,92.400 173.035,92.400 173.688 C 92.400 174.300,92.220 174.800,92.000 174.800 C 91.780 174.800,91.600 175.340,91.600 176.000 C 91.600 176.660,91.420 177.200,91.200 177.200 C 90.958 177.200,90.800 178.933,90.800 181.600 C 90.800 184.267,90.958 186.000,91.200 186.000 C 91.420 186.000,91.600 186.720,91.600 187.600 C 91.600 188.480,91.780 189.200,92.000 189.200 C 92.220 189.200,92.400 189.560,92.400 190.000 C 92.400 190.440,92.580 190.800,92.800 190.800 C 93.020 190.800,93.200 191.088,93.200 191.440 C 93.200 191.791,93.740 192.583,94.400 193.200 C 95.060 193.817,95.600 194.525,95.600 194.774 C 95.600 195.358,98.235 198.000,98.818 198.000 C 99.063 198.000,99.954 198.720,100.800 199.600 C 101.646 200.480,102.582 201.200,102.880 201.200 C 103.179 201.200,103.683 201.560,104.000 202.000 C 104.317 202.440,104.897 202.800,105.288 202.800 C 105.680 202.800,106.000 202.980,106.000 203.200 C 106.000 203.420,106.320 203.600,106.712 203.600 C 107.103 203.600,107.683 203.960,108.000 204.400 C 108.317 204.840,108.897 205.200,109.288 205.200 C 109.680 205.200,110.000 205.380,110.000 205.600 C 110.000 205.820,110.360 206.000,110.800 206.000 C 111.240 206.000,111.600 206.180,111.600 206.400 C 111.600 206.620,111.960 206.800,112.400 206.800 C 112.840 206.800,113.200 206.980,113.200 207.200 C 113.200 207.420,113.560 207.600,114.000 207.600 C 114.440 207.600,114.800 207.780,114.800 208.000 C 114.800 208.220,115.120 208.400,115.512 208.400 C 115.903 208.400,116.483 208.760,116.800 209.200 C 117.117 209.640,117.611 210.000,117.897 210.000 C 118.625 210.000,122.800 214.250,122.800 214.991 C 122.800 215.326,122.980 215.600,123.200 215.600 C 123.420 215.600,123.600 215.960,123.600 216.400 C 123.600 216.840,123.780 217.200,124.000 217.200 C 124.220 217.200,124.400 217.740,124.400 218.400 C 124.400 219.060,124.580 219.600,124.800 219.600 C 125.020 219.600,125.200 220.500,125.200 221.600 C 125.200 222.700,125.380 223.600,125.600 223.600 C 125.820 223.600,126.000 224.500,126.000 225.600 C 126.000 226.700,125.820 227.600,125.600 227.600 C 125.345 227.600,125.200 230.933,125.200 236.800 C 125.200 242.667,125.055 246.000,124.800 246.000 C 124.556 246.000,124.400 247.867,124.400 250.800 C 124.400 253.733,124.244 255.600,124.000 255.600 C 123.780 255.600,123.600 255.960,123.600 256.400 C 123.600 256.840,123.506 257.200,123.391 257.200 C 122.935 257.200,118.800 252.784,118.800 252.297 C 118.800 252.011,118.440 251.517,118.000 251.200 C 117.560 250.883,117.200 250.343,117.200 250.000 C 117.200 249.657,116.840 249.117,116.400 248.800 C 115.960 248.483,115.600 247.903,115.600 247.512 C 115.600 247.120,115.420 246.800,115.200 246.800 C 114.980 246.800,114.800 246.440,114.800 246.000 C 114.800 245.560,114.620 245.200,114.400 245.200 C 114.180 245.200,114.000 244.660,114.000 244.000 C 114.000 243.340,113.820 242.800,113.600 242.800 C 113.380 242.800,113.200 242.440,113.200 242.000 C 113.200 241.560,113.020 241.200,112.800 241.200 C 112.580 241.200,112.400 240.660,112.400 240.000 C 112.400 239.340,112.220 238.800,112.000 238.800 C 111.780 238.800,111.600 238.350,111.600 237.800 C 111.600 237.250,111.420 236.800,111.200 236.800 C 110.980 236.800,110.800 236.519,110.800 236.176 C 110.800 235.833,110.980 235.664,111.200 235.800 C 111.810 236.177,111.676 235.219,111.029 234.571 C 110.714 234.257,110.260 234.000,110.020 234.000 C 109.402 234.000,105.200 238.274,105.200 238.903 C 105.200 239.189,104.840 239.683,104.400 240.000 C 103.960 240.317,103.600 240.857,103.600 241.200 C 103.600 241.543,103.240 242.083,102.800 242.400 C 102.360 242.717,102.000 243.297,102.000 243.688 C 102.000 244.080,101.820 244.400,101.600 244.400 C 101.380 244.400,101.200 244.760,101.200 245.200 C 101.200 245.640,101.020 246.000,100.800 246.000 C 100.580 246.000,100.400 246.360,100.400 246.800 C 100.400 247.240,100.220 247.600,100.000 247.600 C 99.780 247.600,99.600 248.140,99.600 248.800 C 99.600 249.460,99.420 250.000,99.200 250.000 C 98.980 250.000,98.800 250.540,98.800 251.200 C 98.800 251.860,98.620 252.400,98.400 252.400 C 98.180 252.400,98.000 253.300,98.000 254.400 C 98.000 255.500,97.820 256.400,97.600 256.400 C 97.344 256.400,97.200 259.867,97.200 266.000 C 97.200 272.133,97.344 275.600,97.600 275.600 C 97.820 275.600,98.000 276.500,98.000 277.600 C 98.000 278.700,98.180 279.600,98.400 279.600 C 98.620 279.600,98.800 280.140,98.800 280.800 C 98.800 281.460,98.980 282.000,99.200 282.000 C 99.420 282.000,99.600 282.540,99.600 283.200 C 99.600 283.860,99.780 284.400,100.000 284.400 C 100.220 284.400,100.400 284.760,100.400 285.200 C 100.400 285.640,100.580 286.000,100.800 286.000 C 101.020 286.000,101.200 286.500,101.200 287.112 C 101.200 287.765,101.530 288.461,102.000 288.800 C 102.440 289.117,102.800 289.697,102.800 290.088 C 102.800 290.480,102.980 290.800,103.200 290.800 C 103.420 290.800,103.600 291.088,103.600 291.440 C 103.600 291.791,104.140 292.583,104.800 293.200 C 105.460 293.817,106.000 294.522,106.000 294.768 C 106.000 295.393,111.071 300.400,111.704 300.400 C 111.990 300.400,112.483 300.760,112.800 301.200 C 113.117 301.640,113.657 302.000,114.000 302.000 C 114.343 302.000,114.883 302.360,115.200 302.800 C 115.517 303.240,116.097 303.600,116.488 303.600 C 116.880 303.600,117.200 303.780,117.200 304.000 C 117.200 304.220,117.560 304.400,118.000 304.400 C 118.440 304.400,118.800 304.580,118.800 304.800 C 118.800 305.020,119.160 305.200,119.600 305.200 C 120.040 305.200,120.400 305.380,120.400 305.600 C 120.400 305.820,120.760 306.000,121.200 306.000 C 121.640 306.000,122.000 306.180,122.000 306.400 C 122.000 306.620,122.463 306.800,123.029 306.800 C 124.186 306.800,125.200 307.627,125.200 308.571 C 125.200 308.917,125.380 309.200,125.600 309.200 C 125.820 309.200,126.000 309.560,126.000 310.000 C 126.000 310.440,126.180 310.800,126.400 310.800 C 126.620 310.800,126.800 311.160,126.800 311.600 C 126.800 312.040,126.980 312.400,127.200 312.400 C 127.420 312.400,127.600 312.720,127.600 313.112 C 127.600 313.503,127.960 314.083,128.400 314.400 C 128.840 314.717,129.200 315.221,129.200 315.520 C 129.200 315.818,129.920 316.754,130.800 317.600 C 131.680 318.446,132.400 319.335,132.400 319.576 C 132.400 320.153,137.454 325.200,138.032 325.200 C 138.278 325.200,138.983 325.740,139.600 326.400 C 140.217 327.060,140.969 327.600,141.272 327.600 C 141.575 327.600,142.083 327.960,142.400 328.400 C 142.717 328.840,143.257 329.200,143.600 329.200 C 143.943 329.200,144.483 329.560,144.800 330.000 C 145.117 330.440,145.697 330.800,146.088 330.800 C 146.480 330.800,146.800 330.980,146.800 331.200 C 146.800 331.420,147.340 331.600,148.000 331.600 C 148.660 331.600,149.200 331.780,149.200 332.000 C 149.200 332.220,149.560 332.400,150.000 332.400 C 150.440 332.400,150.800 332.580,150.800 332.800 C 150.800 333.020,151.340 333.200,152.000 333.200 C 152.660 333.200,153.200 333.380,153.200 333.600 C 153.200 333.820,153.740 334.000,154.400 334.000 C 155.060 334.000,155.600 334.180,155.600 334.400 C 155.600 334.620,156.500 334.800,157.600 334.800 C 158.700 334.800,159.600 334.980,159.600 335.200 C 159.600 335.420,160.428 335.600,161.440 335.600 C 162.968 335.600,163.469 335.803,164.400 336.800 C 165.017 337.460,165.769 338.000,166.072 338.000 C 166.375 338.000,166.883 338.360,167.200 338.800 C 167.517 339.240,168.097 339.600,168.488 339.600 C 168.880 339.600,169.200 339.780,169.200 340.000 C 169.200 340.220,169.560 340.400,170.000 340.400 C 170.440 340.400,170.800 340.580,170.800 340.800 C 170.800 341.020,171.160 341.200,171.600 341.200 C 172.040 341.200,172.400 341.380,172.400 341.600 C 172.400 341.820,172.760 342.000,173.200 342.000 C 173.640 342.000,174.000 342.180,174.000 342.400 C 174.000 342.620,174.540 342.800,175.200 342.800 C 175.860 342.800,176.400 342.980,176.400 343.200 C 176.400 343.420,176.940 343.600,177.600 343.600 C 178.260 343.600,178.800 343.780,178.800 344.000 C 178.800 344.220,179.340 344.400,180.000 344.400 C 180.660 344.400,181.200 344.580,181.200 344.800 C 181.200 345.020,182.100 345.200,183.200 345.200 C 184.300 345.200,185.200 345.380,185.200 345.600 C 185.200 345.829,186.400 346.000,188.000 346.000 C 189.600 346.000,190.800 346.171,190.800 346.400 C 190.800 346.655,194.133 346.800,200.000 346.800 C 205.867 346.800,209.200 346.655,209.200 346.400 C 209.200 346.171,210.400 346.000,212.000 346.000 C 213.600 346.000,214.800 345.829,214.800 345.600 C 214.800 345.380,215.700 345.200,216.800 345.200 C 217.900 345.200,218.800 345.020,218.800 344.800 C 218.800 344.580,219.340 344.400,220.000 344.400 C 220.660 344.400,221.200 344.220,221.200 344.000 C 221.200 343.780,221.740 343.600,222.400 343.600 C 223.060 343.600,223.600 343.420,223.600 343.200 C 223.600 342.980,224.140 342.800,224.800 342.800 C 225.460 342.800,226.000 342.620,226.000 342.400 C 226.000 342.180,226.360 342.000,226.800 342.000 C 227.240 342.000,227.600 341.820,227.600 341.600 C 227.600 341.380,227.960 341.200,228.400 341.200 C 228.840 341.200,229.200 341.020,229.200 340.800 C 229.200 340.580,229.560 340.400,230.000 340.400 C 230.440 340.400,230.800 340.220,230.800 340.000 C 230.800 339.780,231.120 339.600,231.512 339.600 C 231.903 339.600,232.483 339.240,232.800 338.800 C 233.117 338.360,233.625 338.000,233.928 338.000 C 234.231 338.000,234.983 337.460,235.600 336.800 C 236.531 335.803,237.032 335.600,238.560 335.600 C 239.572 335.600,240.400 335.420,240.400 335.200 C 240.400 334.980,241.300 334.800,242.400 334.800 C 243.500 334.800,244.400 334.620,244.400 334.400 C 244.400 334.180,244.940 334.000,245.600 334.000 C 246.260 334.000,246.800 333.820,246.800 333.600 C 246.800 333.380,247.340 333.200,248.000 333.200 C 248.660 333.200,249.200 333.020,249.200 332.800 C 249.200 332.580,249.560 332.400,250.000 332.400 C 250.440 332.400,250.800 332.220,250.800 332.000 C 250.800 331.780,251.340 331.600,252.000 331.600 C 252.660 331.600,253.200 331.420,253.200 331.200 C 253.200 330.980,253.520 330.800,253.912 330.800 C 254.303 330.800,254.883 330.440,255.200 330.000 C 255.517 329.560,256.057 329.200,256.400 329.200 C 256.743 329.200,257.283 328.840,257.600 328.400 C 257.917 327.960,258.425 327.600,258.728 327.600 C 259.031 327.600,259.783 327.060,260.400 326.400 C 261.017 325.740,261.722 325.200,261.968 325.200 C 262.546 325.200,267.600 320.153,267.600 319.576 C 267.600 319.335,268.320 318.446,269.200 317.600 C 270.080 316.754,270.800 315.818,270.800 315.520 C 270.800 315.221,271.160 314.717,271.600 314.400 C 272.040 314.083,272.400 313.503,272.400 313.112 C 272.400 312.720,272.580 312.400,272.800 312.400 C 273.020 312.400,273.200 312.040,273.200 311.600 C 273.200 311.160,273.380 310.800,273.600 310.800 C 273.820 310.800,274.000 310.440,274.000 310.000 C 274.000 309.560,274.180 309.200,274.400 309.200 C 274.620 309.200,274.800 308.917,274.800 308.571 C 274.800 307.627,275.814 306.800,276.971 306.800 C 277.537 306.800,278.000 306.620,278.000 306.400 C 278.000 306.180,278.360 306.000,278.800 306.000 C 279.240 306.000,279.600 305.820,279.600 305.600 C 279.600 305.380,279.960 305.200,280.400 305.200 C 280.840 305.200,281.200 305.020,281.200 304.800 C 281.200 304.580,281.560 304.400,282.000 304.400 C 282.440 304.400,282.800 304.220,282.800 304.000 C 282.800 303.780,283.120 303.600,283.512 303.600 C 283.903 303.600,284.483 303.240,284.800 302.800 C 285.117 302.360,285.657 302.000,286.000 302.000 C 286.343 302.000,286.883 301.640,287.200 301.200 C 287.517 300.760,288.010 300.400,288.296 300.400 C 288.929 300.400,294.000 295.393,294.000 294.768 C 294.000 294.522,294.540 293.817,295.200 293.200 C 295.860 292.583,296.400 291.791,296.400 291.440 C 296.400 291.088,296.580 290.800,296.800 290.800 C 297.020 290.800,297.200 290.480,297.200 290.088 C 297.200 289.697,297.560 289.117,298.000 288.800 C 298.470 288.461,298.800 287.765,298.800 287.112 C 298.800 286.500,298.980 286.000,299.200 286.000 C 299.420 286.000,299.600 285.640,299.600 285.200 C 299.600 284.760,299.780 284.400,300.000 284.400 C 300.220 284.400,300.400 283.860,300.400 283.200 C 300.400 282.540,300.580 282.000,300.800 282.000 C 301.020 282.000,301.200 281.460,301.200 280.800 C 301.200 280.140,301.380 279.600,301.600 279.600 C 301.820 279.600,302.000 278.700,302.000 277.600 C 302.000 276.500,302.180 275.600,302.400 275.600 C 302.656 275.600,302.800 272.133,302.800 266.000 C 302.800 259.867,302.656 256.400,302.400 256.400 C 302.180 256.400,302.000 255.500,302.000 254.400 C 302.000 253.300,301.820 252.400,301.600 252.400 C 301.380 252.400,301.200 251.860,301.200 251.200 C 301.200 250.540,301.020 250.000,300.800 250.000 C 300.580 250.000,300.400 249.460,300.400 248.800 C 300.400 248.140,300.220 247.600,300.000 247.600 C 299.780 247.600,299.600 247.240,299.600 246.800 C 299.600 246.360,299.420 246.000,299.200 246.000 C 298.980 246.000,298.800 245.640,298.800 245.200 C 298.800 244.760,298.620 244.400,298.400 244.400 C 298.180 244.400,298.000 244.080,298.000 243.688 C 298.000 243.297,297.640 242.717,297.200 242.400 C 296.760 242.083,296.400 241.543,296.400 241.200 C 296.400 240.857,296.040 240.317,295.600 240.000 C 295.160 239.683,294.800 239.189,294.800 238.903 C 294.800 238.274,290.598 234.000,289.980 234.000 C 289.740 234.000,289.286 234.257,288.971 234.571 C 288.324 235.219,288.190 236.177,288.800 235.800 C 289.020 235.664,289.200 235.833,289.200 236.176 C 289.200 236.519,289.020 236.800,288.800 236.800 C 288.580 236.800,288.400 237.250,288.400 237.800 C 288.400 238.350,288.220 238.800,288.000 238.800 C 287.780 238.800,287.600 239.340,287.600 240.000 C 287.600 240.660,287.420 241.200,287.200 241.200 C 286.980 241.200,286.800 241.740,286.800 242.400 C 286.800 243.060,286.620 243.600,286.400 243.600 C 286.180 243.600,286.000 243.960,286.000 244.400 C 286.000 244.840,285.820 245.200,285.600 245.200 C 285.380 245.200,285.200 245.560,285.200 246.000 C 285.200 246.440,285.020 246.800,284.800 246.800 C 284.580 246.800,284.400 247.120,284.400 247.512 C 284.400 247.903,284.040 248.483,283.600 248.800 C 283.160 249.117,282.800 249.657,282.800 250.000 C 282.800 250.343,282.440 250.883,282.000 251.200 C 281.560 251.517,281.200 252.011,281.200 252.297 C 281.200 252.784,277.065 257.200,276.609 257.200 C 276.494 257.200,276.400 256.840,276.400 256.400 C 276.400 255.960,276.220 255.600,276.000 255.600 C 275.756 255.600,275.600 253.733,275.600 250.800 C 275.600 247.867,275.444 246.000,275.200 246.000 C 274.945 246.000,274.800 242.667,274.800 236.800 C 274.800 230.933,274.655 227.600,274.400 227.600 C 274.180 227.600,274.000 226.700,274.000 225.600 C 274.000 224.500,274.180 223.600,274.400 223.600 C 274.620 223.600,274.800 222.700,274.800 221.600 C 274.800 220.500,274.980 219.600,275.200 219.600 C 275.420 219.600,275.600 219.060,275.600 218.400 C 275.600 217.740,275.780 217.200,276.000 217.200 C 276.220 217.200,276.400 216.840,276.400 216.400 C 276.400 215.960,276.580 215.600,276.800 215.600 C 277.020 215.600,277.200 215.326,277.200 214.991 C 277.200 214.250,281.375 210.000,282.103 210.000 C 282.389 210.000,282.883 209.640,283.200 209.200 C 283.517 208.760,284.097 208.400,284.488 208.400 C 284.880 208.400,285.200 208.220,285.200 208.000 C 285.200 207.780,285.560 207.600,286.000 207.600 C 286.440 207.600,286.800 207.420,286.800 207.200 C 286.800 206.980,287.160 206.800,287.600 206.800 C 288.040 206.800,288.400 206.620,288.400 206.400 C 288.400 206.180,288.760 206.000,289.200 206.000 C 289.640 206.000,290.000 205.820,290.000 205.600 C 290.000 205.380,290.320 205.200,290.712 205.200 C 291.103 205.200,291.683 204.840,292.000 204.400 C 292.317 203.960,292.897 203.600,293.288 203.600 C 293.680 203.600,294.000 203.420,294.000 203.200 C 294.000 202.980,294.320 202.800,294.712 202.800 C 295.103 202.800,295.683 202.440,296.000 202.000 C 296.317 201.560,296.821 201.200,297.120 201.200 C 297.418 201.200,298.354 200.480,299.200 199.600 C 300.046 198.720,300.937 198.000,301.182 198.000 C 301.765 198.000,304.400 195.358,304.400 194.774 C 304.400 194.525,304.940 193.817,305.600 193.200 C 306.260 192.583,306.800 191.791,306.800 191.440 C 306.800 191.088,306.980 190.800,307.200 190.800 C 307.420 190.800,307.600 190.440,307.600 190.000 C 307.600 189.560,307.780 189.200,308.000 189.200 C 308.220 189.200,308.400 188.480,308.400 187.600 C 308.400 186.720,308.580 186.000,308.800 186.000 C 309.042 186.000,309.200 184.267,309.200 181.600 C 309.200 178.933,309.042 177.200,308.800 177.200 C 308.580 177.200,308.400 176.660,308.400 176.000 C 308.400 175.340,308.220 174.800,308.000 174.800 C 307.780 174.800,307.600 174.300,307.600 173.688 C 307.600 173.035,307.270 172.339,306.800 172.000 C 306.360 171.683,306.000 171.189,306.000 170.903 C 306.000 170.286,301.804 166.000,301.200 166.000 C 300.546 166.000,296.400 161.689,296.400 161.009 C 296.400 160.674,296.220 160.400,296.000 160.400 C 295.780 160.400,295.600 159.500,295.600 158.400 C 295.600 157.300,295.420 156.400,295.200 156.400 C 294.950 156.400,294.800 154.000,294.800 150.000 C 294.800 146.000,294.950 143.600,295.200 143.600 C 295.420 143.600,295.600 143.100,295.600 142.488 C 295.600 141.835,295.930 141.139,296.400 140.800 C 296.840 140.483,297.200 139.943,297.200 139.600 C 297.200 139.257,297.560 138.717,298.000 138.400 C 298.440 138.083,298.800 137.503,298.800 137.112 C 298.800 136.720,298.980 136.400,299.200 136.400 C 299.420 136.400,299.600 136.040,299.600 135.600 C 299.600 135.160,299.780 134.800,300.000 134.800 C 300.220 134.800,300.400 134.440,300.400 134.000 C 300.400 133.560,300.580 133.200,300.800 133.200 C 301.020 133.200,301.200 132.660,301.200 132.000 C 301.200 131.340,301.380 130.800,301.600 130.800 C 301.820 130.800,302.000 130.260,302.000 129.600 C 302.000 128.940,302.180 128.400,302.400 128.400 C 302.646 128.400,302.800 126.400,302.800 123.200 C 302.800 120.000,302.646 118.000,302.400 118.000 C 302.180 118.000,302.000 117.460,302.000 116.800 C 302.000 116.140,301.820 115.600,301.600 115.600 C 301.380 115.600,301.200 115.327,301.200 114.993 C 301.200 114.253,296.224 109.200,295.496 109.200 C 295.210 109.200,294.717 108.840,294.400 108.400 C 294.061 107.930,293.365 107.600,292.712 107.600 C 292.100 107.600,291.600 107.420,291.600 107.200 C 291.600 106.980,290.880 106.800,290.000 106.800 C 289.120 106.800,288.400 106.620,288.400 106.400 C 288.400 106.171,287.200 106.000,285.600 106.000 L 282.800 106.000 282.800 103.600 C 282.800 102.267,282.622 101.200,282.400 101.200 C 282.178 101.200,282.000 100.133,282.000 98.800 C 282.000 97.467,282.178 96.400,282.400 96.400 C 282.620 96.400,282.800 95.720,282.800 94.888 C 282.800 93.835,283.043 93.202,283.600 92.800 C 284.040 92.483,284.400 91.987,284.400 91.698 C 284.400 91.016,287.016 88.400,287.698 88.400 C 287.987 88.400,288.483 88.040,288.800 87.600 C 289.117 87.160,289.697 86.800,290.088 86.800 C 290.480 86.800,290.800 86.620,290.800 86.400 C 290.800 86.180,291.160 86.000,291.600 86.000 C 292.040 86.000,292.400 85.820,292.400 85.600 C 292.400 85.380,292.760 85.200,293.200 85.200 C 293.640 85.200,294.000 85.020,294.000 84.800 C 294.000 84.580,294.540 84.400,295.200 84.400 C 295.860 84.400,296.400 84.220,296.400 84.000 C 296.400 83.780,296.940 83.600,297.600 83.600 C 298.260 83.600,298.800 83.420,298.800 83.200 C 298.800 82.980,299.700 82.800,300.800 82.800 C 301.900 82.800,302.800 82.620,302.800 82.400 C 302.800 82.180,303.700 82.000,304.800 82.000 C 307.059 82.000,307.726 80.444,306.000 79.200 C 305.560 78.883,305.200 78.390,305.200 78.104 C 305.200 77.428,300.172 72.400,299.496 72.400 C 299.210 72.400,298.717 72.040,298.400 71.600 C 298.083 71.160,297.543 70.800,297.200 70.800 C 296.857 70.800,296.317 70.440,296.000 70.000 C 295.683 69.560,295.103 69.200,294.712 69.200 C 294.320 69.200,294.000 69.020,294.000 68.800 C 294.000 68.580,293.640 68.400,293.200 68.400 C 292.760 68.400,292.400 68.220,292.400 68.000 C 292.400 67.780,291.860 67.600,291.200 67.600 C 290.540 67.600,290.000 67.420,290.000 67.200 C 290.000 66.980,289.460 66.800,288.800 66.800 C 288.140 66.800,287.600 66.620,287.600 66.400 C 287.600 66.180,287.060 66.000,286.400 66.000 C 285.740 66.000,285.200 65.820,285.200 65.600 C 285.200 65.378,284.133 65.200,282.800 65.200 C 281.467 65.200,280.400 65.022,280.400 64.800 C 280.400 64.554,278.400 64.400,275.200 64.400 C 272.000 64.400,270.000 64.554,270.000 64.800 C 270.000 65.022,268.933 65.200,267.600 65.200 C 266.267 65.200,265.200 65.378,265.200 65.600 C 265.200 65.820,264.480 66.000,263.600 66.000 C 262.720 66.000,262.000 66.180,262.000 66.400 C 262.000 66.620,261.460 66.800,260.800 66.800 C 260.140 66.800,259.600 66.980,259.600 67.200 C 259.600 67.420,259.060 67.600,258.400 67.600 C 257.740 67.600,257.200 67.780,257.200 68.000 C 257.200 68.220,256.840 68.400,256.400 68.400 C 255.960 68.400,255.600 68.580,255.600 68.800 C 255.600 69.020,255.240 69.200,254.800 69.200 C 254.360 69.200,254.000 69.380,254.000 69.600 C 254.000 69.820,253.680 70.000,253.288 70.000 C 252.897 70.000,252.317 70.360,252.000 70.800 C 251.683 71.240,251.143 71.600,250.800 71.600 C 250.457 71.600,249.917 71.960,249.600 72.400 C 249.283 72.840,248.775 73.200,248.472 73.200 C 248.169 73.200,247.417 73.740,246.800 74.400 C 246.183 75.060,245.479 75.600,245.235 75.600 C 244.672 75.600,235.600 84.648,235.600 85.209 C 235.600 86.276,232.813 88.400,231.413 88.400 C 230.636 88.400,230.000 88.220,230.000 88.000 C 230.000 87.780,229.640 87.600,229.200 87.600 C 228.453 87.600,228.400 87.333,228.400 83.600 C 228.400 81.200,228.560 79.600,228.800 79.600 C 229.020 79.600,229.200 78.880,229.200 78.000 C 229.200 77.120,229.380 76.400,229.600 76.400 C 229.820 76.400,230.000 75.860,230.000 75.200 C 230.000 74.540,230.180 74.000,230.400 74.000 C 230.620 74.000,230.800 73.640,230.800 73.200 C 230.800 72.760,230.980 72.400,231.200 72.400 C 231.420 72.400,231.600 72.040,231.600 71.600 C 231.600 71.160,231.780 70.800,232.000 70.800 C 232.220 70.800,232.400 70.440,232.400 70.000 C 232.400 69.560,232.580 69.200,232.800 69.200 C 233.020 69.200,233.200 68.840,233.200 68.400 C 233.200 67.960,233.380 67.600,233.600 67.600 C 233.820 67.600,234.000 67.240,234.000 66.800 C 234.000 66.053,233.733 66.000,230.000 66.000 C 227.600 66.000,226.000 66.160,226.000 66.400 C 226.000 66.620,225.460 66.800,224.800 66.800 C 224.140 66.800,223.600 66.980,223.600 67.200 C 223.600 67.420,223.240 67.600,222.800 67.600 C 222.360 67.600,222.000 67.780,222.000 68.000 C 222.000 68.220,221.640 68.400,221.200 68.400 C 220.760 68.400,220.400 68.580,220.400 68.800 C 220.400 69.020,220.080 69.200,219.688 69.200 C 219.297 69.200,218.717 69.560,218.400 70.000 C 218.083 70.440,217.575 70.800,217.272 70.800 C 216.969 70.800,216.202 71.356,215.567 72.035 C 214.248 73.447,213.200 73.001,213.200 71.029 C 213.200 70.463,213.020 70.000,212.800 70.000 C 212.580 70.000,212.400 69.100,212.400 68.000 C 212.400 66.900,212.220 66.000,212.000 66.000 C 211.771 66.000,211.600 64.800,211.600 63.200 C 211.600 61.600,211.771 60.400,212.000 60.400 C 212.220 60.400,212.400 59.500,212.400 58.400 C 212.400 57.300,212.580 56.400,212.800 56.400 C 213.020 56.400,213.200 55.680,213.200 54.800 C 213.200 53.289,213.133 53.200,212.000 53.200 C 211.340 53.200,210.800 53.380,210.800 53.600 M133.445 74.962 C 140.333 76.863,147.497 82.153,153.619 89.856 C 156.629 93.644,156.612 93.887,153.228 95.500 C 149.775 97.146,150.069 97.211,148.261 94.404 C 141.964 84.630,129.973 78.453,119.232 79.452 C 116.511 79.705,111.713 77.861,112.097 76.710 C 112.298 76.105,116.006 74.996,120.400 74.228 C 122.326 73.891,131.419 74.402,133.445 74.962 M283.400 74.978 C 284.500 75.298,285.928 75.713,286.574 75.901 C 289.940 76.883,284.974 79.843,280.638 79.440 C 270.014 78.452,258.013 84.667,251.739 94.404 C 249.931 97.211,250.225 97.146,246.772 95.500 C 243.391 93.888,243.373 93.641,246.360 89.883 C 253.723 80.617,261.012 75.870,270.400 74.228 C 272.365 73.884,281.436 74.408,283.400 74.978 M128.600 86.983 C 133.139 88.633,137.372 92.532,139.690 97.200 C 142.141 102.133,142.145 102.104,138.649 105.762 L 135.637 108.914 133.718 108.416 C 129.612 107.348,129.154 107.132,128.737 106.061 C 127.862 103.817,127.199 100.676,127.179 98.680 C 127.146 95.418,126.226 91.052,125.088 88.751 C 124.515 87.594,124.120 86.530,124.209 86.385 C 124.382 86.105,127.266 86.498,128.600 86.983 M274.917 88.742 C 273.737 91.126,273.386 92.796,272.842 98.600 C 272.141 106.093,271.545 107.080,267.049 108.204 L 264.298 108.892 261.318 105.753 C 257.859 102.110,257.861 102.129,260.310 97.200 C 263.146 91.491,269.052 86.858,274.200 86.303 C 275.986 86.110,276.073 86.406,274.917 88.742 M214.000 95.547 C 215.210 95.764,217.460 96.143,219.000 96.389 C 220.540 96.634,222.430 96.996,223.200 97.192 C 231.218 99.235,233.442 99.941,237.971 101.881 C 244.624 104.731,249.715 107.695,252.500 110.338 C 254.438 112.179,254.395 112.411,251.893 113.567 C 242.657 117.834,229.782 129.672,224.342 138.898 C 222.549 141.938,223.023 141.856,227.856 138.289 C 237.737 130.996,239.606 129.746,247.400 125.223 C 252.368 122.339,259.128 119.211,262.200 118.373 C 262.860 118.193,264.750 117.668,266.400 117.206 C 289.549 110.721,300.033 118.386,289.510 134.100 C 287.495 137.110,287.200 137.010,287.200 133.320 C 287.200 130.033,286.799 129.846,286.079 132.800 C 282.428 147.786,283.729 160.694,290.252 174.200 C 290.783 175.300,291.570 176.650,292.000 177.200 L 292.782 178.200 292.791 177.167 C 292.796 176.598,292.594 175.109,292.343 173.857 C 291.718 170.745,292.035 170.689,294.757 173.431 C 302.559 181.288,298.431 190.056,283.000 198.405 C 281.240 199.357,279.170 200.487,278.400 200.915 C 265.520 208.084,263.577 216.820,266.457 254.600 C 266.709 257.900,266.934 261.585,266.957 262.788 L 267.000 264.976 263.800 266.036 C 260.590 267.099,257.928 267.612,251.600 268.385 C 244.464 269.258,244.936 269.519,242.597 263.400 C 242.008 261.860,241.379 260.240,241.199 259.800 C 241.019 259.360,239.490 255.490,237.802 251.200 C 234.701 243.322,234.376 242.529,232.847 239.104 C 232.381 238.062,232.000 237.127,232.000 237.028 C 232.000 236.928,230.973 234.721,229.717 232.123 C 226.736 225.955,226.382 227.152,228.394 236.600 C 228.582 237.480,228.959 239.280,229.232 240.600 C 229.935 243.991,232.479 254.010,233.600 257.800 C 233.795 258.460,234.122 259.630,234.327 260.400 C 234.531 261.170,235.801 265.067,237.149 269.059 C 238.497 273.052,239.600 276.382,239.600 276.459 C 239.600 276.537,221.776 276.600,199.990 276.600 L 160.380 276.600 160.641 275.413 C 160.784 274.760,161.056 273.950,161.244 273.613 C 161.622 272.937,165.078 262.622,165.671 260.400 C 165.877 259.630,166.215 258.415,166.423 257.700 C 167.256 254.829,167.588 253.583,168.902 248.400 C 169.655 245.430,170.494 241.920,170.768 240.600 C 171.041 239.280,171.418 237.480,171.606 236.600 C 173.618 227.152,173.264 225.955,170.283 232.123 C 169.027 234.721,168.000 236.928,168.000 237.028 C 168.000 237.127,167.619 238.062,167.153 239.104 C 165.624 242.529,165.299 243.322,162.198 251.200 C 160.510 255.490,158.981 259.360,158.801 259.800 C 158.621 260.240,157.992 261.860,157.403 263.400 C 155.064 269.519,155.536 269.258,148.400 268.385 C 142.072 267.612,139.410 267.099,136.200 266.036 L 133.000 264.976 133.040 262.788 C 133.062 261.585,133.286 257.990,133.537 254.800 C 136.494 217.251,134.461 208.074,121.600 200.915 C 120.830 200.487,118.760 199.358,117.000 198.407 C 103.694 191.220,99.977 185.862,102.427 177.400 C 102.901 175.762,107.333 170.799,107.855 171.321 C 107.997 171.464,107.909 172.605,107.657 173.857 C 107.406 175.109,107.204 176.598,107.209 177.167 L 107.218 178.200 108.000 177.200 C 108.430 176.650,109.217 175.300,109.748 174.200 C 114.817 163.705,116.850 152.776,115.623 142.623 C 114.450 132.929,112.800 127.490,112.800 133.320 C 112.800 137.010,112.505 137.110,110.490 134.100 C 99.967 118.386,110.451 110.721,133.600 117.206 C 135.250 117.668,137.140 118.193,137.800 118.373 C 140.872 119.211,147.632 122.339,152.600 125.223 C 160.394 129.746,162.263 130.996,172.144 138.289 C 176.977 141.856,177.451 141.938,175.658 138.898 C 170.218 129.672,157.343 117.834,148.107 113.567 C 145.605 112.411,145.562 112.179,147.500 110.338 C 155.251 102.980,173.966 96.423,191.200 95.027 C 194.543 94.756,211.783 95.150,214.000 95.547 M185.200 151.569 C 185.200 152.775,191.816 158.118,195.600 159.969 C 200.352 162.294,206.279 160.240,212.700 154.044 C 215.531 151.313,215.345 150.981,211.900 152.616 C 203.876 156.425,193.760 156.133,186.500 151.882 C 185.726 151.429,185.200 151.302,185.200 151.569 M125.931 151.933 C 124.683 152.082,123.540 152.326,123.391 152.476 C 122.977 152.889,123.563 153.599,124.324 153.606 C 127.135 153.631,128.921 155.186,127.681 156.529 C 124.782 159.669,124.808 167.449,127.731 171.622 L 128.356 172.515 128.556 171.558 C 128.666 171.031,128.844 170.060,128.951 169.400 C 129.602 165.373,130.378 164.451,130.907 167.076 C 131.797 171.496,132.133 172.789,132.916 174.800 C 138.043 187.983,154.246 194.707,166.300 188.655 C 167.235 188.185,168.000 187.666,168.000 187.501 C 168.000 187.335,168.326 187.200,168.724 187.200 C 171.229 187.200,171.964 198.770,169.799 204.100 C 169.467 204.916,169.844 205.017,170.548 204.300 C 173.137 201.660,176.551 194.500,177.215 190.317 L 177.704 187.234 179.908 186.741 C 182.713 186.113,186.305 183.799,187.621 181.773 C 189.327 179.145,190.082 175.407,188.740 176.237 C 186.827 177.419,182.054 177.816,179.120 177.037 C 174.683 175.859,173.367 174.942,167.082 168.647 C 157.952 159.500,151.115 155.372,140.415 152.543 C 137.932 151.887,129.334 151.525,125.931 151.933 M263.400 151.843 C 253.387 152.877,242.874 158.673,232.918 168.647 C 226.633 174.942,225.317 175.859,220.880 177.037 C 217.946 177.816,213.173 177.419,211.260 176.237 C 209.918 175.407,210.673 179.145,212.379 181.773 C 213.695 183.799,217.287 186.113,220.092 186.741 L 222.296 187.234 222.785 190.317 C 223.449 194.500,226.863 201.660,229.452 204.300 C 230.156 205.017,230.533 204.916,230.201 204.100 C 228.036 198.770,228.771 187.200,231.276 187.200 C 231.674 187.200,232.000 187.335,232.000 187.501 C 232.000 187.666,232.765 188.185,233.700 188.655 C 245.733 194.697,261.966 187.960,267.084 174.800 C 267.867 172.789,268.203 171.496,269.093 167.076 C 269.645 164.337,270.531 165.555,271.076 169.800 C 271.346 171.897,271.786 172.301,272.538 171.143 C 275.215 167.020,275.099 159.540,272.311 156.520 C 271.188 155.304,271.573 154.690,273.850 154.064 C 276.787 153.257,276.800 153.252,276.800 152.855 C 276.800 152.047,267.920 151.376,263.400 151.843 M148.298 164.932 C 158.358 171.610,168.320 181.015,166.695 182.302 C 162.704 185.464,154.206 185.727,148.453 182.867 C 142.575 179.945,139.758 173.594,140.616 165.200 C 141.130 160.180,141.139 160.180,148.298 164.932 M258.876 162.100 C 259.736 163.636,259.442 172.530,258.444 175.161 C 255.646 182.538,245.884 186.922,237.960 184.360 C 236.153 183.776,233.918 182.788,233.305 182.302 C 231.680 181.015,241.642 171.610,251.702 164.932 C 257.798 160.886,258.124 160.757,258.876 162.100 M109.767 254.664 C 115.665 267.086,127.768 274.417,145.700 276.432 C 148.285 276.722,150.400 277.126,150.400 277.329 C 150.400 277.848,147.078 282.435,146.004 283.400 C 142.646 286.414,141.411 293.532,143.037 300.500 L 143.293 301.600 140.824 301.600 C 139.466 301.600,137.510 301.409,136.477 301.175 C 131.881 300.136,130.929 299.900,129.800 299.521 C 117.609 295.436,109.109 286.654,106.841 275.800 C 106.611 274.700,106.238 272.955,106.011 271.923 C 105.474 269.472,105.481 259.682,106.022 257.277 C 106.931 253.233,107.541 251.685,108.256 251.606 C 108.286 251.603,108.966 252.979,109.767 254.664 M292.928 252.927 C 294.167 258.050,294.400 259.917,294.400 264.723 C 294.400 267.650,294.215 270.890,293.989 271.923 C 293.762 272.955,293.389 274.700,293.159 275.800 C 290.891 286.654,282.391 295.436,270.200 299.521 C 269.071 299.900,268.119 300.136,263.523 301.175 C 262.490 301.409,260.534 301.600,259.176 301.600 L 256.707 301.600 256.963 300.500 C 258.644 293.299,257.404 286.526,253.796 283.200 C 252.630 282.125,249.600 277.866,249.600 277.302 C 249.600 277.114,251.715 276.722,254.300 276.432 C 272.217 274.419,284.336 267.084,290.222 254.690 C 291.683 251.612,292.484 251.091,292.928 252.927 M240.294 284.454 C 251.393 287.100,252.593 293.658,244.897 309.600 C 235.716 328.618,221.162 337.749,200.000 337.768 C 178.874 337.786,164.416 328.717,155.095 309.600 C 147.472 293.967,148.639 287.163,159.400 284.497 C 161.789 283.906,237.822 283.865,240.294 284.454 M160.757 293.399 C 157.581 295.125,157.805 298.019,161.537 303.503 C 167.325 312.006,174.920 314.095,180.231 308.644 C 186.612 302.095,189.073 295.531,185.878 293.582 C 184.198 292.558,162.595 292.400,160.757 293.399 M214.122 293.582 C 210.927 295.531,213.388 302.095,219.769 308.644 C 225.080 314.095,232.675 312.006,238.463 303.503 C 242.225 297.975,242.426 295.068,239.160 293.380 C 237.213 292.373,215.821 292.546,214.122 293.582 M142.132 310.410 C 146.928 310.947,147.008 310.979,147.802 312.715 C 149.122 315.603,150.253 317.831,151.752 320.500 C 153.730 324.020,153.038 324.090,148.144 320.864 C 142.309 317.018,134.315 308.407,137.832 309.757 C 138.180 309.890,140.115 310.184,142.132 310.410 M262.800 310.062 C 262.800 311.483,256.693 317.650,252.600 320.364 C 246.842 324.180,246.177 324.121,248.513 320.000 C 249.448 318.350,250.691 315.935,251.274 314.634 C 252.837 311.150,253.136 310.909,256.266 310.608 C 257.770 310.464,259.720 310.197,260.600 310.016 C 262.848 309.552,262.800 309.551,262.800 310.062 " stroke="none" fill="#463514" fill-rule="evenodd"></path><path id="path2" d="M141.247 163.377 C 139.776 169.220,141.962 177.477,145.816 180.635 C 150.978 184.864,161.092 185.699,165.759 182.281 C 167.908 180.706,155.383 169.276,144.433 162.819 C 141.793 161.263,141.779 161.265,141.247 163.377 M256.643 162.124 C 242.988 170.714,231.977 180.622,234.241 182.281 C 236.094 183.638,240.367 184.511,244.179 184.311 C 253.772 183.810,259.075 177.788,259.179 167.277 C 259.222 162.898,258.321 161.067,256.643 162.124 M107.207 254.300 C 102.018 272.388,110.854 291.672,127.223 297.985 C 133.570 300.432,143.243 302.131,142.694 300.702 C 140.624 295.307,141.645 288.631,145.256 283.950 C 146.338 282.547,147.851 280.500,148.618 279.400 L 150.013 277.400 148.907 277.147 C 148.298 277.008,146.935 276.873,145.877 276.847 C 144.820 276.821,143.200 276.635,142.277 276.433 C 141.355 276.231,139.520 275.847,138.200 275.580 C 125.095 272.926,114.336 265.323,109.578 255.354 C 108.168 252.400,107.799 252.236,107.207 254.300 M290.422 255.354 C 285.664 265.323,274.905 272.926,261.800 275.580 C 260.480 275.847,258.645 276.231,257.723 276.433 C 256.800 276.635,255.180 276.821,254.123 276.847 C 253.065 276.873,251.702 277.008,251.093 277.147 L 249.987 277.400 251.382 279.400 C 252.149 280.500,253.662 282.547,254.744 283.950 C 258.355 288.631,259.376 295.307,257.306 300.702 C 256.757 302.131,266.430 300.432,272.777 297.985 C 287.868 292.165,295.969 277.120,293.661 259.200 C 292.760 252.209,292.226 251.574,290.422 255.354 " stroke="none" fill="#e8e8e8" fill-rule="evenodd"></path><path id="path3" d="M120.400 74.228 C 116.006 74.996,112.298 76.105,112.097 76.710 C 111.713 77.861,116.511 79.705,119.232 79.452 C 129.973 78.453,141.964 84.630,148.261 94.404 C 150.069 97.211,149.775 97.146,153.228 95.500 C 156.612 93.887,156.629 93.644,153.619 89.856 C 144.139 77.926,131.973 72.203,120.400 74.228 M270.400 74.228 C 261.012 75.870,253.723 80.617,246.360 89.883 C 243.373 93.641,243.391 93.888,246.772 95.500 C 250.225 97.146,249.931 97.211,251.739 94.404 C 258.013 84.667,270.014 78.452,280.638 79.440 C 284.974 79.843,289.940 76.883,286.574 75.901 C 285.928 75.713,284.500 75.298,283.400 74.978 C 281.436 74.408,272.365 73.884,270.400 74.228 M131.894 75.254 C 139.770 77.132,146.636 81.972,153.277 90.329 C 154.574 91.962,155.559 93.374,155.465 93.468 C 155.372 93.562,154.160 94.230,152.773 94.953 L 150.251 96.268 148.721 93.976 C 142.238 84.269,132.112 78.800,120.621 78.800 C 116.575 78.800,115.899 78.697,114.403 77.847 C 112.589 76.816,112.608 76.761,115.000 76.099 C 115.880 75.856,117.230 75.483,118.000 75.269 C 119.979 74.721,129.615 74.711,131.894 75.254 M281.754 75.232 C 287.787 76.814,287.618 76.699,285.597 77.847 C 284.101 78.697,283.425 78.800,279.379 78.800 C 274.072 78.800,271.343 79.254,267.400 80.793 C 261.798 82.979,254.803 88.700,251.279 93.976 L 249.749 96.268 247.227 94.953 C 245.840 94.230,244.628 93.562,244.535 93.468 C 243.869 92.803,252.652 83.439,256.600 80.605 C 263.571 75.600,274.365 73.295,281.754 75.232 M124.209 86.385 C 124.120 86.530,124.515 87.594,125.088 88.751 C 126.226 91.052,127.146 95.418,127.179 98.680 C 127.199 100.676,127.862 103.817,128.737 106.061 C 129.154 107.132,129.612 107.348,133.718 108.416 L 135.637 108.914 138.649 105.762 C 142.145 102.104,142.141 102.133,139.690 97.200 C 137.372 92.532,133.139 88.633,128.600 86.983 C 127.266 86.498,124.382 86.105,124.209 86.385 M274.200 86.303 C 269.052 86.858,263.146 91.491,260.310 97.200 C 257.861 102.129,257.859 102.110,261.318 105.753 L 264.298 108.892 267.049 108.204 C 271.545 107.080,272.141 106.093,272.842 98.600 C 273.386 92.796,273.737 91.126,274.917 88.742 C 276.073 86.406,275.986 86.110,274.200 86.303 M191.200 95.027 C 173.966 96.423,155.251 102.980,147.500 110.338 C 145.562 112.179,145.605 112.411,148.107 113.567 C 157.343 117.834,170.218 129.672,175.658 138.898 C 177.451 141.938,176.977 141.856,172.144 138.289 C 162.263 130.996,160.394 129.746,152.600 125.223 C 147.632 122.339,140.872 119.211,137.800 118.373 C 137.140 118.193,135.250 117.668,133.600 117.206 C 110.451 110.721,99.967 118.386,110.490 134.100 C 112.505 137.110,112.800 137.010,112.800 133.320 C 112.800 130.033,113.201 129.846,113.921 132.800 C 117.572 147.786,116.271 160.694,109.748 174.200 C 109.217 175.300,108.430 176.650,108.000 177.200 L 107.218 178.200 107.209 177.167 C 107.204 176.598,107.406 175.109,107.657 173.857 C 107.909 172.605,107.997 171.464,107.855 171.321 C 107.333 170.799,102.901 175.762,102.427 177.400 C 99.977 185.862,103.694 191.220,117.000 198.407 C 118.760 199.358,120.830 200.487,121.600 200.915 C 134.461 208.074,136.494 217.251,133.537 254.800 C 133.286 257.990,133.062 261.585,133.040 262.788 L 133.000 264.976 136.200 266.036 C 139.410 267.099,142.072 267.612,148.400 268.385 C 155.536 269.258,155.064 269.519,157.403 263.400 C 157.992 261.860,158.621 260.240,158.801 259.800 C 158.981 259.360,160.510 255.490,162.198 251.200 C 165.299 243.322,165.624 242.529,167.153 239.104 C 167.619 238.062,168.000 237.127,168.000 237.028 C 168.000 236.928,169.027 234.721,170.283 232.123 C 173.264 225.955,173.618 227.152,171.606 236.600 C 171.418 237.480,171.041 239.280,170.768 240.600 C 170.494 241.920,169.655 245.430,168.902 248.400 C 167.588 253.583,167.256 254.829,166.423 257.700 C 166.215 258.415,165.877 259.630,165.671 260.400 C 165.078 262.622,161.622 272.937,161.244 273.613 C 161.056 273.950,160.784 274.760,160.641 275.413 L 160.380 276.600 199.990 276.600 C 221.776 276.600,239.600 276.537,239.600 276.459 C 239.600 276.382,238.497 273.052,237.149 269.059 C 235.801 265.067,234.531 261.170,234.327 260.400 C 234.122 259.630,233.795 258.460,233.600 257.800 C 232.479 254.010,229.935 243.991,229.232 240.600 C 228.959 239.280,228.582 237.480,228.394 236.600 C 226.382 227.152,226.736 225.955,229.717 232.123 C 230.973 234.721,232.000 236.928,232.000 237.028 C 232.000 237.127,232.381 238.062,232.847 239.104 C 234.376 242.529,234.701 243.322,237.802 251.200 C 239.490 255.490,241.019 259.360,241.199 259.800 C 241.379 260.240,242.008 261.860,242.597 263.400 C 244.936 269.519,244.464 269.258,251.600 268.385 C 257.928 267.612,260.590 267.099,263.800 266.036 L 267.000 264.976 266.957 262.788 C 266.934 261.585,266.709 257.900,266.457 254.600 C 263.577 216.820,265.520 208.084,278.400 200.915 C 279.170 200.487,281.240 199.357,283.000 198.405 C 298.431 190.056,302.559 181.288,294.757 173.431 C 292.035 170.689,291.718 170.745,292.343 173.857 C 292.594 175.109,292.796 176.598,292.791 177.167 L 292.782 178.200 292.000 177.200 C 291.570 176.650,290.783 175.300,290.252 174.200 C 285.183 163.705,283.150 152.776,284.377 142.623 C 285.550 132.929,287.200 127.490,287.200 133.320 C 287.200 137.010,287.495 137.110,289.510 134.100 C 300.033 118.386,289.549 110.721,266.400 117.206 C 264.750 117.668,262.860 118.193,262.200 118.373 C 259.128 119.211,252.368 122.339,247.400 125.223 C 239.606 129.746,237.737 130.996,227.856 138.289 C 223.023 141.856,222.549 141.938,224.342 138.898 C 229.782 129.672,242.657 117.834,251.893 113.567 C 254.395 112.411,254.438 112.179,252.500 110.338 C 249.715 107.695,244.624 104.731,237.971 101.881 C 233.442 99.941,231.218 99.235,223.200 97.192 C 222.430 96.996,220.540 96.634,219.000 96.389 C 217.460 96.143,215.210 95.764,214.000 95.547 C 211.783 95.150,194.543 94.756,191.200 95.027 M213.400 96.198 C 218.115 96.832,221.180 97.357,223.900 97.999 C 224.835 98.220,226.275 98.557,227.100 98.748 C 228.691 99.117,234.455 100.995,235.800 101.583 C 236.240 101.776,237.156 102.159,237.836 102.436 C 240.671 103.589,240.752 109.312,237.999 114.000 C 235.865 117.634,233.368 122.317,231.082 126.970 C 229.794 129.594,227.783 133.014,226.614 134.570 C 222.716 139.762,221.458 142.400,222.881 142.400 C 223.120 142.400,225.584 140.718,228.357 138.662 C 240.399 129.736,251.970 122.773,259.400 119.981 C 277.481 113.188,293.200 114.517,293.200 122.838 C 293.200 125.328,291.066 130.982,289.071 133.780 L 288.200 135.000 288.000 132.204 C 287.522 125.520,285.351 130.240,284.045 140.800 C 281.356 162.562,283.005 175.919,289.195 182.518 L 290.399 183.800 289.099 185.015 C 285.843 188.059,280.208 191.116,271.800 194.399 C 263.756 197.541,259.200 205.291,259.200 215.831 C 259.200 219.790,258.121 218.480,256.377 212.400 C 256.093 211.410,255.712 210.429,255.530 210.220 C 255.058 209.677,255.121 233.829,255.602 238.173 C 256.702 248.090,258.120 255.173,260.802 264.148 C 261.476 266.404,261.475 266.404,254.925 267.438 L 253.250 267.702 243.099 252.351 C 232.903 236.933,232.041 235.524,229.425 230.000 C 227.565 226.073,226.900 225.196,226.390 226.002 C 225.919 226.747,225.918 226.867,226.364 228.923 C 226.564 229.845,226.933 231.860,227.184 233.400 C 227.435 234.940,227.794 236.920,227.981 237.800 C 228.169 238.680,228.527 240.390,228.778 241.600 C 229.223 243.750,229.456 244.732,230.394 248.400 C 231.273 251.840,232.244 255.392,232.800 257.200 C 232.969 257.750,233.334 259.010,233.612 260.000 C 233.889 260.990,235.095 264.680,236.291 268.200 C 239.333 277.152,239.307 276.304,236.532 275.958 C 235.249 275.798,218.810 275.668,200.000 275.668 C 181.190 275.668,164.751 275.798,163.468 275.958 C 160.691 276.305,160.658 277.186,163.770 268.000 C 165.963 261.526,166.180 260.842,167.192 257.200 C 167.468 256.210,167.831 254.950,168.000 254.400 C 168.369 253.198,169.129 250.361,169.633 248.300 C 169.835 247.475,170.169 246.125,170.375 245.300 C 171.155 242.179,172.218 236.981,172.810 233.400 C 173.064 231.860,173.436 229.845,173.636 228.923 C 174.082 226.867,174.081 226.747,173.610 226.002 C 173.100 225.196,172.435 226.073,170.575 230.000 C 167.959 235.524,167.097 236.933,156.901 252.351 L 146.750 267.702 145.075 267.438 C 138.525 266.404,138.524 266.404,139.198 264.148 C 141.869 255.210,143.302 248.049,144.398 238.173 C 144.881 233.818,144.941 209.679,144.467 210.220 C 144.285 210.429,143.915 211.410,143.646 212.400 C 142.060 218.246,140.800 219.765,140.800 215.831 C 140.800 205.291,136.244 197.541,128.200 194.399 C 119.777 191.110,114.118 188.038,110.912 185.015 L 109.624 183.800 111.045 182.218 C 117.032 175.556,118.608 162.266,115.955 140.800 C 114.649 130.240,112.478 125.520,112.000 132.204 L 111.800 135.000 110.929 133.780 C 100.813 119.597,109.534 112.378,131.000 117.166 C 134.537 117.955,137.587 118.849,140.600 119.981 C 148.041 122.777,159.989 129.985,172.269 139.088 C 179.335 144.325,179.676 142.946,173.386 134.570 C 172.217 133.014,170.206 129.594,168.918 126.970 C 166.632 122.317,164.135 117.634,162.001 114.000 C 159.248 109.312,159.329 103.589,162.164 102.436 C 162.844 102.159,163.760 101.776,164.200 101.583 C 165.484 101.022,171.273 99.126,172.800 98.766 C 176.823 97.819,178.082 97.557,181.200 97.021 C 188.009 95.848,189.969 95.701,199.400 95.654 C 205.876 95.622,210.432 95.799,213.400 96.198 M182.000 147.470 C 182.000 148.190,185.235 152.833,186.779 154.329 C 196.566 163.811,203.069 163.862,213.040 154.534 C 214.418 153.244,218.709 147.200,218.246 147.200 C 218.164 147.200,217.102 147.655,215.886 148.212 C 211.323 150.301,209.677 150.543,200.000 150.543 C 190.343 150.543,188.673 150.299,184.162 148.234 C 182.973 147.690,182.000 147.346,182.000 147.470 M134.400 148.644 C 131.807 148.877,126.231 150.233,125.400 150.833 C 125.180 150.992,124.235 151.326,123.300 151.576 C 121.136 152.155,120.912 153.396,122.900 153.801 C 126.791 154.593,127.988 155.299,127.122 156.291 C 124.190 159.650,124.011 165.102,126.635 171.045 C 127.788 173.655,129.179 173.779,129.230 171.276 C 129.247 170.464,129.489 169.170,129.768 168.400 L 130.275 167.000 130.770 170.400 C 132.853 184.695,139.205 194.100,149.000 197.393 C 152.628 198.612,157.858 199.267,160.327 198.810 C 161.548 198.585,162.694 198.400,162.873 198.400 C 163.313 198.400,163.290 201.732,162.842 202.881 C 162.645 203.387,162.247 204.610,161.958 205.600 C 161.669 206.590,160.913 208.358,160.279 209.530 C 159.150 211.614,159.074 212.502,160.090 211.724 C 160.371 211.510,161.230 211.091,162.000 210.794 C 162.770 210.496,164.458 209.521,165.751 208.626 C 167.044 207.732,168.700 206.598,169.432 206.106 C 172.775 203.860,178.000 193.510,178.000 189.134 C 178.000 187.761,178.106 187.600,179.009 187.600 C 183.569 187.600,190.313 181.084,189.922 177.057 C 189.788 175.674,190.207 175.747,185.314 176.256 C 180.952 176.709,175.854 172.705,170.590 164.694 C 162.658 152.619,150.447 147.204,134.400 148.644 M255.600 148.632 C 244.115 149.954,235.705 155.112,229.410 164.694 C 224.146 172.705,219.048 176.709,214.686 176.256 C 209.793 175.747,210.212 175.674,210.078 177.057 C 209.687 181.084,216.431 187.600,220.991 187.600 C 221.894 187.600,222.000 187.761,222.000 189.134 C 222.000 193.510,227.225 203.860,230.568 206.106 C 231.300 206.598,232.956 207.732,234.249 208.626 C 235.542 209.521,237.230 210.496,238.000 210.794 C 238.770 211.091,239.629 211.510,239.910 211.724 C 240.926 212.502,240.850 211.614,239.721 209.530 C 239.087 208.358,238.331 206.590,238.042 205.600 C 237.753 204.610,237.355 203.387,237.158 202.881 C 236.710 201.732,236.687 198.400,237.127 198.400 C 237.306 198.400,238.452 198.585,239.673 198.810 C 242.142 199.267,247.372 198.612,251.000 197.393 C 260.795 194.100,267.147 184.695,269.230 170.400 L 269.725 167.000 270.232 168.400 C 270.511 169.170,270.753 170.464,270.770 171.276 C 270.821 173.779,272.212 173.655,273.365 171.045 C 275.989 165.102,275.810 159.650,272.878 156.291 C 272.012 155.299,273.209 154.593,277.100 153.801 C 279.088 153.396,278.864 152.155,276.700 151.576 C 275.765 151.326,274.820 150.992,274.600 150.833 C 274.219 150.558,273.046 150.200,269.352 149.231 C 267.617 148.776,257.991 148.357,255.600 148.632 M189.600 153.364 C 196.647 156.187,204.966 155.908,211.900 152.616 C 215.345 150.981,215.531 151.313,212.700 154.044 C 204.599 161.860,199.167 162.771,191.600 157.580 C 187.399 154.698,183.093 149.888,186.500 151.882 C 187.215 152.301,188.610 152.968,189.600 153.364 M140.415 152.543 C 151.115 155.372,157.952 159.500,167.082 168.647 C 173.367 174.942,174.683 175.859,179.120 177.037 C 182.054 177.816,186.827 177.419,188.740 176.237 C 190.082 175.407,189.327 179.145,187.621 181.773 C 186.305 183.799,182.713 186.113,179.908 186.741 L 177.704 187.234 177.215 190.317 C 176.551 194.500,173.137 201.660,170.548 204.300 C 169.844 205.017,169.467 204.916,169.799 204.100 C 171.964 198.770,171.229 187.200,168.724 187.200 C 168.326 187.200,168.000 187.335,168.000 187.501 C 168.000 187.666,167.235 188.185,166.300 188.655 C 154.246 194.707,138.043 187.983,132.916 174.800 C 132.133 172.789,131.797 171.496,130.907 167.076 C 130.378 164.451,129.602 165.373,128.951 169.400 C 128.844 170.060,128.666 171.031,128.556 171.558 L 128.356 172.515 127.731 171.622 C 124.808 167.449,124.782 159.669,127.681 156.529 C 128.921 155.186,127.135 153.631,124.324 153.606 C 123.563 153.599,122.977 152.889,123.391 152.476 C 124.351 151.516,136.714 151.565,140.415 152.543 M276.154 152.238 C 276.509 152.374,276.800 152.652,276.800 152.855 C 276.800 153.252,276.787 153.257,273.850 154.064 C 271.573 154.690,271.188 155.304,272.311 156.520 C 275.099 159.540,275.215 167.020,272.538 171.143 C 271.786 172.301,271.346 171.897,271.076 169.800 C 270.531 165.555,269.645 164.337,269.093 167.076 C 268.203 171.496,267.867 172.789,267.084 174.800 C 261.966 187.960,245.733 194.697,233.700 188.655 C 232.765 188.185,232.000 187.666,232.000 187.501 C 232.000 187.335,231.674 187.200,231.276 187.200 C 228.771 187.200,228.036 198.770,230.201 204.100 C 230.533 204.916,230.156 205.017,229.452 204.300 C 226.863 201.660,223.449 194.500,222.785 190.317 L 222.296 187.234 220.092 186.741 C 217.287 186.113,213.695 183.799,212.379 181.773 C 210.673 179.145,209.918 175.407,211.260 176.237 C 213.173 177.419,217.946 177.816,220.880 177.037 C 225.317 175.859,226.633 174.942,232.918 168.647 C 242.086 159.462,249.450 155.059,260.000 152.453 C 263.238 151.653,274.247 151.506,276.154 152.238 M140.524 167.400 C 140.526 168.720,140.601 169.212,140.690 168.493 C 140.779 167.774,140.777 166.694,140.686 166.093 C 140.595 165.492,140.522 166.080,140.524 167.400 M259.324 167.400 C 259.326 168.720,259.401 169.212,259.490 168.493 C 259.579 167.774,259.577 166.694,259.486 166.093 C 259.395 165.492,259.322 166.080,259.324 167.400 M140.856 172.800 C 140.856 173.130,141.011 173.760,141.200 174.200 C 141.417 174.704,141.544 174.778,141.544 174.400 C 141.544 174.070,141.389 173.440,141.200 173.000 C 140.983 172.496,140.856 172.422,140.856 172.800 M166.490 181.542 C 166.551 181.763,166.240 182.236,165.800 182.594 C 165.013 183.233,165.015 183.237,165.878 182.820 C 166.978 182.288,167.337 181.732,166.797 181.398 C 166.568 181.256,166.430 181.321,166.490 181.542 M233.028 181.555 C 232.805 181.915,233.315 182.439,234.400 182.967 C 234.730 183.128,234.640 182.963,234.200 182.601 C 233.760 182.240,233.445 181.776,233.500 181.572 C 233.627 181.099,233.316 181.088,233.028 181.555 M160.600 184.400 C 160.096 184.617,160.022 184.744,160.400 184.744 C 160.730 184.744,161.360 184.589,161.800 184.400 C 162.304 184.183,162.378 184.056,162.000 184.056 C 161.670 184.056,161.040 184.211,160.600 184.400 M238.200 184.400 C 238.640 184.589,239.270 184.744,239.600 184.744 C 239.978 184.744,239.904 184.617,239.400 184.400 C 238.960 184.211,238.330 184.056,238.000 184.056 C 237.622 184.056,237.696 184.183,238.200 184.400 M105.800 258.400 C 105.646 259.310,105.604 260.138,105.707 260.240 C 105.810 260.343,106.013 259.677,106.160 258.760 C 106.307 257.843,106.348 257.015,106.253 256.920 C 106.158 256.824,105.954 257.490,105.800 258.400 M293.687 257.400 C 293.691 257.840,293.832 258.740,294.000 259.400 C 294.274 260.478,294.306 260.498,294.313 259.600 C 294.317 259.050,294.176 258.150,294.000 257.600 C 293.749 256.816,293.681 256.773,293.687 257.400 M115.983 264.100 C 117.641 265.866,118.000 266.184,118.000 265.883 C 118.000 265.819,117.145 264.964,116.100 263.983 L 114.200 262.200 115.983 264.100 M283.600 264.200 C 282.628 265.190,281.923 266.000,282.033 266.000 C 282.143 266.000,283.028 265.190,284.000 264.200 C 284.972 263.210,285.677 262.400,285.567 262.400 C 285.457 262.400,284.572 263.210,283.600 264.200 M105.640 269.433 C 105.662 270.075,105.833 271.050,106.020 271.600 C 106.249 272.274,106.284 271.949,106.128 270.600 C 105.869 268.350,105.579 267.659,105.640 269.433 M293.855 270.255 C 293.713 271.286,293.674 272.208,293.769 272.302 C 293.863 272.396,294.065 271.639,294.218 270.618 C 294.371 269.598,294.410 268.676,294.304 268.571 C 294.198 268.465,293.996 269.223,293.855 270.255 M159.400 284.497 C 148.639 287.163,147.472 293.967,155.095 309.600 C 164.416 328.717,178.874 337.786,200.000 337.768 C 221.162 337.749,235.716 328.618,244.897 309.600 C 252.593 293.658,251.393 287.100,240.294 284.454 C 237.822 283.865,161.789 283.906,159.400 284.497 M238.400 284.809 C 249.849 286.582,251.713 291.515,246.180 305.400 C 243.778 311.427,239.591 315.254,230.800 319.457 C 225.099 322.182,221.385 323.369,215.400 324.377 C 213.860 324.636,211.731 325.018,210.669 325.224 C 208.178 325.709,192.392 325.713,189.567 325.229 C 188.375 325.025,186.140 324.644,184.600 324.382 C 178.581 323.357,174.891 322.177,169.200 319.457 C 160.409 315.254,156.222 311.427,153.820 305.400 C 149.694 295.045,149.796 290.148,154.203 287.147 C 155.940 285.964,156.417 285.805,160.600 285.015 C 164.126 284.349,234.231 284.163,238.400 284.809 M114.800 290.600 C 115.546 291.370,116.247 292.000,116.357 292.000 C 116.467 292.000,115.946 291.370,115.200 290.600 C 114.454 289.830,113.753 289.200,113.643 289.200 C 113.533 289.200,114.054 289.830,114.800 290.600 M284.778 290.700 L 283.400 292.200 284.900 290.822 C 286.296 289.538,286.584 289.200,286.278 289.200 C 286.212 289.200,285.537 289.875,284.778 290.700 M141.822 292.622 C 141.672 293.425,141.628 294.162,141.726 294.260 C 141.824 294.357,142.027 293.781,142.178 292.978 C 142.328 292.175,142.372 291.438,142.274 291.340 C 142.176 291.243,141.973 291.819,141.822 292.622 M162.102 292.273 C 157.295 292.930,156.993 297.092,161.103 306.000 C 167.000 318.777,179.640 319.620,185.074 307.600 C 188.522 299.970,188.931 295.006,186.271 293.036 C 185.170 292.220,166.745 291.638,162.102 292.273 M215.813 292.295 C 211.376 292.949,210.896 295.621,213.675 304.200 C 218.598 319.397,232.264 320.372,238.897 306.000 C 243.187 296.703,242.778 292.999,237.378 292.259 C 235.333 291.979,217.759 292.008,215.813 292.295 M185.878 293.582 C 189.073 295.531,186.612 302.095,180.231 308.644 C 174.920 314.095,167.325 312.006,161.537 303.503 C 157.805 298.019,157.581 295.125,160.757 293.399 C 162.595 292.400,184.198 292.558,185.878 293.582 M239.160 293.380 C 242.426 295.068,242.225 297.975,238.463 303.503 C 232.675 312.006,225.080 314.095,219.769 308.644 C 213.388 302.095,210.927 295.531,214.122 293.582 C 215.821 292.546,237.213 292.373,239.160 293.380 M142.093 296.000 C 142.093 296.770,142.175 297.085,142.276 296.700 C 142.376 296.315,142.376 295.685,142.276 295.300 C 142.175 294.915,142.093 295.230,142.093 296.000 M257.693 296.000 C 257.693 296.770,257.775 297.085,257.876 296.700 C 257.976 296.315,257.976 295.685,257.876 295.300 C 257.775 294.915,257.693 295.230,257.693 296.000 M261.400 301.200 C 260.322 301.474,260.302 301.506,261.200 301.513 C 261.750 301.517,262.650 301.376,263.200 301.200 C 264.544 300.769,263.092 300.769,261.400 301.200 M137.200 310.019 C 137.200 312.363,149.762 323.200,152.478 323.200 C 153.194 323.200,153.125 322.944,151.752 320.500 C 150.253 317.831,149.122 315.603,147.802 312.715 C 147.008 310.979,146.928 310.947,142.132 310.410 C 140.115 310.184,138.180 309.890,137.832 309.757 C 137.462 309.615,137.200 309.724,137.200 310.019 M260.600 310.016 C 259.720 310.197,257.770 310.464,256.266 310.608 C 253.136 310.909,252.837 311.150,251.274 314.634 C 250.691 315.935,249.448 318.350,248.513 320.000 C 246.177 324.121,246.842 324.180,252.600 320.364 C 256.693 317.650,262.800 311.483,262.800 310.062 C 262.800 309.551,262.848 309.552,260.600 310.016 M143.901 311.266 L 146.617 311.731 149.008 316.545 C 151.910 322.385,151.749 322.000,151.285 322.000 C 149.678 322.000,138.400 312.486,138.400 311.131 C 138.400 310.663,140.721 310.720,143.901 311.266 M261.600 311.131 C 261.600 312.486,250.322 322.000,248.715 322.000 C 248.251 322.000,248.089 322.387,250.999 316.529 L 253.399 311.699 255.599 311.308 C 258.444 310.801,261.600 310.708,261.600 311.131 " stroke="none" fill="#e18522" fill-rule="evenodd"></path><path id="path4" d="" stroke="none" fill="#100d450" fill-rule="evenodd"></path></g></svg>