<svg id="svg" version="1.1" width="400" height="400" viewBox="0 0 400 400" xmlns="http://www.w3.org/2000/svg" xmlns:xlink="http://www.w3.org/1999/xlink" ><g id="svgg"><path id="path0" d="M210.825 129.953 C 210.154 131.207,210.795 131.847,213.246 132.372 C 218.944 133.594,227.606 132.135,226.017 130.220 C 225.419 129.500,224.532 129.405,224.321 130.038 C 223.766 131.702,213.036 131.422,211.784 129.710 C 211.352 129.120,211.259 129.143,210.825 129.953 " stroke="none" fill="#f7e2e0" fill-rule="evenodd"></path><path id="path1" d="M210.373 129.651 C 208.981 132.252,211.836 133.371,219.200 133.108 C 225.780 132.874,227.659 131.970,226.200 129.744 C 225.521 128.707,224.000 128.457,224.000 129.382 C 224.000 130.723,213.092 130.823,212.346 129.489 C 211.820 128.549,210.923 128.623,210.373 129.651 M214.031 130.773 C 217.333 131.534,223.980 131.059,224.321 130.038 C 224.532 129.405,225.419 129.500,226.017 130.220 C 227.606 132.135,218.944 133.594,213.246 132.372 C 210.795 131.847,210.154 131.207,210.825 129.953 C 211.259 129.143,211.352 129.120,211.784 129.710 C 212.047 130.071,213.059 130.549,214.031 130.773 " stroke="none" fill="#dc7474" fill-rule="evenodd"></path><path id="path2" d="M254.900 54.210 C 254.405 54.739,254.000 55.362,254.000 55.594 C 254.000 55.827,250.940 59.069,247.200 62.800 C 243.460 66.531,240.400 69.771,240.400 70.000 C 240.400 70.229,237.340 73.469,233.600 77.200 C 229.860 80.931,226.800 84.176,226.800 84.411 C 226.800 84.646,225.540 86.081,224.000 87.600 C 221.988 89.584,221.200 90.648,221.200 91.381 C 221.200 91.941,221.020 92.400,220.800 92.400 C 220.580 92.400,220.400 93.120,220.400 94.000 C 220.400 94.880,220.220 95.600,220.000 95.600 C 219.780 95.600,219.600 96.500,219.600 97.600 C 219.600 98.700,219.420 99.600,219.200 99.600 C 218.980 99.600,218.800 100.320,218.800 101.200 C 218.800 102.080,218.620 102.800,218.400 102.800 C 218.180 102.800,218.000 103.520,218.000 104.400 C 218.000 105.280,217.820 106.000,217.600 106.000 C 217.380 106.000,217.200 106.720,217.200 107.600 C 217.200 108.480,217.020 109.200,216.800 109.200 C 216.580 109.200,216.400 109.920,216.400 110.800 C 216.400 111.680,216.220 112.400,216.000 112.400 C 215.780 112.400,215.600 113.120,215.600 114.000 C 215.600 114.880,215.420 115.600,215.200 115.600 C 214.980 115.600,214.800 116.140,214.800 116.800 L 214.800 118.000 209.200 118.000 C 205.733 118.000,203.600 117.848,203.600 117.600 C 203.600 117.363,202.133 117.200,200.000 117.200 C 197.867 117.200,196.400 117.363,196.400 117.600 C 196.400 117.858,192.133 118.000,184.400 118.000 C 176.667 118.000,172.400 118.142,172.400 118.400 C 172.400 118.646,170.400 118.800,167.200 118.800 C 164.000 118.800,162.000 118.954,162.000 119.200 C 162.000 119.437,160.533 119.600,158.400 119.600 C 156.267 119.600,154.800 119.763,154.800 120.000 C 154.800 120.229,153.600 120.400,152.000 120.400 C 150.400 120.400,149.200 120.571,149.200 120.800 C 149.200 121.020,148.300 121.200,147.200 121.200 C 146.100 121.200,145.200 121.380,145.200 121.600 C 145.200 121.820,144.300 122.000,143.200 122.000 C 142.100 122.000,141.200 122.180,141.200 122.400 C 141.200 122.620,140.660 122.800,140.000 122.800 C 139.340 122.800,138.800 122.980,138.800 123.200 C 138.800 123.420,138.260 123.600,137.600 123.600 C 136.940 123.600,136.400 123.780,136.400 124.000 C 136.400 124.220,136.122 124.400,135.782 124.400 C 134.705 124.400,133.200 126.265,133.200 127.600 C 133.200 128.935,134.705 130.800,135.782 130.800 C 136.122 130.800,136.400 130.980,136.400 131.200 C 136.400 131.420,136.940 131.600,137.600 131.600 C 138.260 131.600,138.800 131.780,138.800 132.000 C 138.800 132.220,139.340 132.400,140.000 132.400 C 140.660 132.400,141.200 132.580,141.200 132.800 C 141.200 133.020,141.920 133.200,142.800 133.200 C 143.680 133.200,144.400 133.380,144.400 133.600 C 144.400 133.822,145.467 134.000,146.800 134.000 C 148.133 134.000,149.200 134.178,149.200 134.400 C 149.200 134.629,150.400 134.800,152.000 134.800 C 153.714 134.800,154.800 134.965,154.800 135.226 C 154.800 135.498,155.900 135.620,157.838 135.564 C 159.832 135.505,160.976 135.637,161.168 135.948 C 161.370 136.276,162.985 136.406,166.417 136.372 C 169.696 136.340,171.424 136.472,171.521 136.762 C 171.621 137.063,174.653 137.200,181.233 137.200 C 187.344 137.200,190.800 137.344,190.800 137.600 C 190.800 137.855,194.133 138.000,200.000 138.000 C 205.867 138.000,209.200 137.855,209.200 137.600 C 209.200 137.344,212.656 137.200,218.767 137.200 C 225.347 137.200,228.379 137.063,228.479 136.762 C 228.576 136.472,230.304 136.340,233.583 136.372 C 237.015 136.406,238.630 136.276,238.832 135.948 C 239.024 135.637,240.168 135.505,242.162 135.564 C 244.100 135.620,245.200 135.498,245.200 135.226 C 245.200 134.965,246.286 134.800,248.000 134.800 C 249.600 134.800,250.800 134.629,250.800 134.400 C 250.800 134.178,251.867 134.000,253.200 134.000 C 254.533 134.000,255.600 133.822,255.600 133.600 C 255.600 133.380,256.320 133.200,257.200 133.200 C 258.080 133.200,258.800 133.020,258.800 132.800 C 258.800 132.580,259.340 132.400,260.000 132.400 C 260.660 132.400,261.200 132.220,261.200 132.000 C 261.200 131.780,261.740 131.600,262.400 131.600 C 263.060 131.600,263.600 131.420,263.600 131.200 C 263.600 130.980,263.878 130.800,264.218 130.800 C 265.295 130.800,266.800 128.935,266.800 127.600 C 266.800 126.265,265.295 124.400,264.218 124.400 C 263.878 124.400,263.600 124.220,263.600 124.000 C 263.600 123.780,263.060 123.600,262.400 123.600 C 261.740 123.600,261.200 123.420,261.200 123.200 C 261.200 122.980,260.660 122.800,260.000 122.800 C 259.340 122.800,258.800 122.620,258.800 122.400 C 258.800 122.180,257.900 122.000,256.800 122.000 C 255.700 122.000,254.800 121.820,254.800 121.600 C 254.800 121.380,253.900 121.200,252.800 121.200 C 251.700 121.200,250.800 121.020,250.800 120.800 C 250.800 120.571,249.600 120.400,248.000 120.400 C 246.400 120.400,245.200 120.229,245.200 120.000 C 245.200 119.763,243.733 119.600,241.600 119.600 C 239.467 119.600,238.000 119.437,238.000 119.200 C 238.000 118.956,236.133 118.800,233.200 118.800 L 228.400 118.800 228.400 117.200 C 228.400 116.320,228.580 115.600,228.800 115.600 C 229.020 115.600,229.200 114.880,229.200 114.000 C 229.200 113.120,229.380 112.400,229.600 112.400 C 229.820 112.400,230.000 111.680,230.000 110.800 C 230.000 109.920,230.180 109.200,230.400 109.200 C 230.620 109.200,230.800 108.480,230.800 107.600 C 230.800 106.720,230.980 106.000,231.200 106.000 C 231.420 106.000,231.600 105.280,231.600 104.400 C 231.600 103.520,231.780 102.800,232.000 102.800 C 232.220 102.800,232.400 102.080,232.400 101.200 C 232.400 100.320,232.580 99.600,232.800 99.600 C 233.020 99.600,233.200 98.966,233.200 98.192 C 233.200 96.902,233.772 96.213,240.000 90.000 C 243.740 86.269,246.800 83.030,246.800 82.801 C 246.800 82.572,250.220 78.972,254.400 74.800 C 258.580 70.628,262.000 67.020,262.000 66.782 C 262.000 66.543,262.882 65.488,263.961 64.438 C 266.924 61.552,266.875 59.258,263.786 56.169 C 262.593 54.976,261.343 54.000,261.009 54.000 C 260.674 54.000,260.400 53.820,260.400 53.600 C 260.400 52.695,255.846 53.200,254.900 54.210 M212.800 129.200 C 213.325 129.928,213.835 130.000,218.488 130.000 C 223.333 130.000,223.600 129.958,223.600 129.200 C 223.600 128.231,225.337 128.080,226.229 128.971 C 227.149 129.892,226.982 132.400,226.000 132.400 C 225.560 132.400,225.200 132.580,225.200 132.800 C 225.200 133.448,211.565 133.300,210.700 132.643 C 210.003 132.114,209.690 129.243,210.267 128.667 C 210.810 128.123,212.241 128.425,212.800 129.200 M263.600 132.000 C 263.600 132.220,263.240 132.400,262.800 132.400 C 262.360 132.400,262.000 132.580,262.000 132.800 C 262.000 133.020,261.460 133.200,260.800 133.200 C 260.140 133.200,259.600 133.380,259.600 133.600 C 259.600 133.820,259.060 134.000,258.400 134.000 C 257.740 134.000,257.200 134.180,257.200 134.400 C 257.200 134.620,256.480 134.800,255.600 134.800 C 254.720 134.800,254.000 134.980,254.000 135.200 C 254.000 135.420,253.100 135.600,252.000 135.600 C 250.900 135.600,250.000 135.780,250.000 136.000 C 250.000 136.229,248.800 136.400,247.200 136.400 C 245.600 136.400,244.400 136.571,244.400 136.800 C 244.400 137.033,243.067 137.200,241.200 137.200 C 239.333 137.200,238.000 137.367,238.000 137.600 C 238.000 137.844,236.133 138.000,233.200 138.000 C 230.267 138.000,228.400 138.156,228.400 138.400 C 228.400 138.657,224.400 138.800,217.200 138.800 C 210.000 138.800,206.000 138.943,206.000 139.200 C 206.000 139.451,203.467 139.600,199.200 139.600 C 194.832 139.600,192.400 139.454,192.400 139.191 C 192.400 138.921,188.622 138.792,181.307 138.813 C 173.850 138.834,170.169 138.706,170.074 138.422 C 169.986 138.157,168.157 138.000,165.167 138.000 C 162.071 138.000,160.400 137.851,160.400 137.575 C 160.400 137.302,159.161 137.180,156.920 137.234 C 154.590 137.290,153.389 137.166,153.286 136.859 C 153.194 136.583,152.192 136.400,150.767 136.400 C 149.456 136.400,148.400 136.222,148.400 136.000 C 148.400 135.780,147.500 135.600,146.400 135.600 C 145.300 135.600,144.400 135.420,144.400 135.200 C 144.400 134.980,143.680 134.800,142.800 134.800 C 141.895 134.800,141.200 134.607,141.200 134.356 C 141.200 134.087,140.666 133.975,139.845 134.071 C 138.861 134.186,138.545 134.088,138.688 133.714 C 138.823 133.363,138.491 133.200,137.643 133.200 C 136.959 133.200,136.400 133.020,136.400 132.800 C 136.400 132.580,135.860 132.400,135.200 132.400 L 134.000 132.400 134.000 135.200 C 134.000 136.800,134.171 138.000,134.400 138.000 C 134.640 138.000,134.800 139.600,134.800 142.000 C 134.800 144.400,134.960 146.000,135.200 146.000 C 135.440 146.000,135.600 147.589,135.600 149.967 C 135.600 152.595,135.755 153.985,136.059 154.086 C 136.366 154.189,136.490 155.390,136.434 157.720 C 136.380 159.961,136.502 161.200,136.775 161.200 C 137.047 161.200,137.200 162.645,137.200 165.200 C 137.200 167.600,137.360 169.200,137.600 169.200 C 137.840 169.200,138.000 170.789,138.000 173.167 C 138.000 175.795,138.155 177.185,138.459 177.286 C 138.766 177.389,138.890 178.590,138.834 180.920 C 138.780 183.161,138.902 184.400,139.175 184.400 C 139.447 184.400,139.600 185.845,139.600 188.400 C 139.600 190.800,139.760 192.400,140.000 192.400 C 140.240 192.400,140.400 194.000,140.400 196.400 C 140.400 198.800,140.560 200.400,140.800 200.400 C 141.029 200.400,141.200 201.600,141.200 203.200 C 141.200 205.479,141.317 206.000,141.829 206.000 C 142.637 206.000,143.600 205.037,143.600 204.229 C 143.600 203.883,143.780 203.600,144.000 203.600 C 144.220 203.600,144.400 203.060,144.400 202.400 C 144.400 201.740,144.580 201.200,144.800 201.200 C 145.020 201.200,145.200 200.840,145.200 200.400 C 145.200 199.960,145.380 199.600,145.600 199.600 C 145.820 199.600,146.000 199.060,146.000 198.400 C 146.000 197.740,146.180 197.200,146.400 197.200 C 146.620 197.200,146.800 196.840,146.800 196.400 C 146.800 195.960,146.980 195.600,147.200 195.600 C 147.420 195.600,147.600 195.240,147.600 194.800 C 147.600 194.360,147.780 194.000,148.000 194.000 C 148.220 194.000,148.400 193.640,148.400 193.200 C 148.400 192.760,148.580 192.400,148.800 192.400 C 149.020 192.400,149.200 192.040,149.200 191.600 C 149.200 191.160,149.380 190.800,149.600 190.800 C 149.820 190.800,150.000 190.440,150.000 190.000 C 150.000 189.560,150.180 189.200,150.400 189.200 C 150.620 189.200,150.800 188.880,150.800 188.488 C 150.800 188.097,151.160 187.517,151.600 187.200 C 152.040 186.883,152.400 186.369,152.400 186.059 C 152.400 185.748,152.782 185.162,153.249 184.757 C 153.796 184.283,154.023 183.732,153.887 183.210 C 153.770 182.764,153.836 182.499,154.034 182.621 C 154.449 182.877,156.400 181.049,156.400 180.405 C 156.400 179.832,159.049 177.200,159.626 177.200 C 159.875 177.200,160.583 176.660,161.200 176.000 C 161.817 175.340,162.609 174.800,162.960 174.800 C 163.312 174.800,163.600 174.620,163.600 174.400 C 163.600 174.180,163.960 174.000,164.400 174.000 C 164.840 174.000,165.200 173.820,165.200 173.600 C 165.200 173.380,165.920 173.200,166.800 173.200 C 167.680 173.200,168.400 173.020,168.400 172.800 C 168.400 172.580,168.940 172.400,169.600 172.400 C 170.260 172.400,170.800 172.580,170.800 172.800 C 170.800 173.020,171.340 173.200,172.000 173.200 C 172.660 173.200,173.200 173.380,173.200 173.600 C 173.200 173.820,173.560 174.000,174.000 174.000 C 174.440 174.000,174.800 174.199,174.800 174.443 C 174.800 174.686,175.079 174.778,175.421 174.647 C 175.781 174.509,175.938 174.577,175.794 174.810 C 175.658 175.031,176.278 175.914,177.173 176.774 C 178.068 177.634,178.800 178.582,178.800 178.880 C 178.800 179.179,179.160 179.683,179.600 180.000 C 180.208 180.438,180.400 181.035,180.400 182.488 L 180.400 184.400 178.800 184.400 C 177.467 184.400,177.200 184.267,177.200 183.600 C 177.200 183.160,177.020 182.800,176.800 182.800 C 176.580 182.800,176.400 182.480,176.400 182.088 C 176.400 181.697,176.040 181.117,175.600 180.800 C 175.160 180.483,174.800 179.980,174.800 179.683 C 174.800 178.951,173.800 178.000,173.029 178.000 C 172.683 178.000,172.400 177.820,172.400 177.600 C 172.400 177.371,171.200 177.200,169.600 177.200 C 168.000 177.200,166.800 177.371,166.800 177.600 C 166.800 177.820,166.421 178.000,165.957 178.000 C 165.403 178.000,165.187 178.190,165.327 178.555 C 165.474 178.938,165.312 179.050,164.802 178.916 C 164.027 178.714,158.000 184.323,158.000 185.247 C 158.000 185.499,157.618 186.038,157.151 186.443 C 156.620 186.903,156.378 187.473,156.505 187.960 C 156.649 188.510,156.546 188.677,156.155 188.527 C 155.803 188.392,155.600 188.590,155.600 189.069 C 155.600 189.484,155.240 190.083,154.800 190.400 C 154.360 190.717,154.000 191.297,154.000 191.688 C 154.000 192.080,153.820 192.400,153.600 192.400 C 153.380 192.400,153.200 192.760,153.200 193.200 C 153.200 193.640,153.020 194.000,152.800 194.000 C 152.580 194.000,152.400 194.360,152.400 194.800 C 152.400 195.240,152.220 195.600,152.000 195.600 C 151.780 195.600,151.600 195.960,151.600 196.400 C 151.600 196.840,151.420 197.200,151.200 197.200 C 150.980 197.200,150.800 197.560,150.800 198.000 C 150.800 198.440,150.620 198.800,150.400 198.800 C 150.180 198.800,150.000 199.340,150.000 200.000 C 150.000 200.660,149.820 201.200,149.600 201.200 C 149.380 201.200,149.200 201.560,149.200 202.000 C 149.200 202.440,149.020 202.800,148.800 202.800 C 148.580 202.800,148.400 203.340,148.400 204.000 C 148.400 204.660,148.220 205.200,148.000 205.200 C 147.780 205.200,147.600 205.920,147.600 206.800 C 147.600 207.680,147.420 208.400,147.200 208.400 C 146.954 208.400,146.800 210.400,146.800 213.600 C 146.800 216.800,146.954 218.800,147.200 218.800 C 147.420 218.800,147.600 219.083,147.600 219.429 C 147.600 220.751,148.657 221.200,151.771 221.200 C 153.524 221.200,154.800 221.031,154.800 220.800 C 154.800 220.580,155.120 220.400,155.512 220.400 C 155.903 220.400,156.483 220.040,156.800 219.600 C 157.117 219.160,157.609 218.800,157.894 218.800 C 158.525 218.800,165.200 212.191,165.200 211.566 C 165.200 211.321,165.761 210.597,166.446 209.957 C 167.275 209.182,167.625 208.537,167.491 208.027 C 167.351 207.490,167.457 207.324,167.845 207.473 C 168.245 207.626,168.400 207.338,168.400 206.443 C 168.400 205.759,168.580 205.200,168.800 205.200 C 169.020 205.200,169.200 204.660,169.200 204.000 C 169.200 203.340,169.400 202.800,169.644 202.800 C 169.913 202.800,170.025 202.266,169.929 201.445 C 169.814 200.461,169.912 200.145,170.286 200.288 C 170.637 200.423,170.800 200.091,170.800 199.243 C 170.800 198.559,170.980 198.000,171.200 198.000 C 171.420 198.000,171.600 197.640,171.600 197.200 C 171.600 196.760,171.799 196.400,172.043 196.400 C 172.286 196.400,172.378 196.121,172.247 195.779 C 172.098 195.389,172.173 195.259,172.449 195.430 C 172.691 195.580,173.033 195.470,173.208 195.186 C 173.462 194.777,173.659 194.802,174.164 195.307 C 174.880 196.022,175.083 200.400,174.400 200.400 C 174.180 200.400,174.000 201.120,174.000 202.000 C 174.000 202.880,173.820 203.600,173.600 203.600 C 173.380 203.600,173.200 204.140,173.200 204.800 C 173.200 205.460,173.020 206.000,172.800 206.000 C 172.580 206.000,172.400 206.540,172.400 207.200 C 172.400 207.860,172.220 208.400,172.000 208.400 C 171.780 208.400,171.600 209.120,171.600 210.000 C 171.600 210.880,171.420 211.600,171.200 211.600 C 170.980 211.600,170.800 212.140,170.800 212.800 C 170.800 213.460,170.620 214.000,170.400 214.000 C 170.180 214.000,170.000 214.540,170.000 215.200 C 170.000 215.860,169.820 216.400,169.600 216.400 C 169.380 216.400,169.200 217.120,169.200 218.000 C 169.200 218.905,169.007 219.600,168.756 219.600 C 168.487 219.600,168.375 220.134,168.471 220.955 C 168.586 221.939,168.488 222.255,168.114 222.112 C 167.747 221.971,167.600 222.383,167.600 223.557 C 167.600 224.461,167.420 225.200,167.200 225.200 C 166.980 225.200,166.800 225.740,166.800 226.400 C 166.800 227.060,166.620 227.600,166.400 227.600 C 166.180 227.600,166.000 228.140,166.000 228.800 C 166.000 229.460,165.820 230.000,165.600 230.000 C 165.380 230.000,165.200 230.540,165.200 231.200 C 165.200 231.860,165.020 232.400,164.800 232.400 C 164.580 232.400,164.400 232.683,164.400 233.029 C 164.400 234.481,162.768 235.226,161.771 234.229 C 161.116 233.573,161.006 232.400,161.600 232.400 C 161.820 232.400,162.000 231.500,162.000 230.400 C 162.000 229.300,162.180 228.400,162.400 228.400 C 162.620 228.400,162.800 227.860,162.800 227.200 C 162.800 226.540,163.000 226.000,163.244 226.000 C 163.513 226.000,163.625 225.466,163.529 224.645 C 163.414 223.661,163.512 223.345,163.886 223.488 C 164.237 223.623,164.400 223.291,164.400 222.443 C 164.400 221.759,164.580 221.200,164.800 221.200 C 165.020 221.200,165.200 220.480,165.200 219.600 C 165.200 217.008,163.793 217.360,160.400 220.800 C 158.881 222.340,157.400 223.600,157.108 223.600 C 156.816 223.600,156.317 223.960,156.000 224.400 C 155.683 224.840,155.103 225.200,154.712 225.200 C 154.320 225.200,154.000 225.380,154.000 225.600 C 154.000 225.820,153.460 226.000,152.800 226.000 C 152.140 226.000,151.600 226.180,151.600 226.400 C 151.600 226.622,150.533 226.800,149.200 226.800 C 147.867 226.800,146.800 226.622,146.800 226.400 C 146.800 226.180,146.080 226.000,145.200 226.000 L 143.600 226.000 143.600 228.400 C 143.600 229.733,143.778 230.800,144.000 230.800 C 144.240 230.800,144.400 232.389,144.400 234.767 C 144.400 237.395,144.555 238.785,144.859 238.886 C 145.166 238.989,145.290 240.190,145.234 242.520 C 145.180 244.761,145.302 246.000,145.575 246.000 C 145.847 246.000,146.000 247.445,146.000 250.000 C 146.000 252.400,146.160 254.000,146.400 254.000 C 146.640 254.000,146.800 255.589,146.800 257.967 C 146.800 260.595,146.955 261.985,147.259 262.086 C 147.566 262.189,147.690 263.390,147.634 265.720 C 147.580 267.961,147.702 269.200,147.975 269.200 C 148.209 269.200,148.400 269.838,148.400 270.618 C 148.400 272.134,149.824 274.000,150.982 274.000 C 151.322 274.000,151.600 274.180,151.600 274.400 C 151.600 274.620,152.140 274.800,152.800 274.800 C 153.460 274.800,154.000 274.980,154.000 275.200 C 154.000 275.420,154.360 275.600,154.800 275.600 C 155.240 275.600,155.600 275.780,155.600 276.000 C 155.600 276.220,156.140 276.400,156.800 276.400 C 157.460 276.400,158.000 276.580,158.000 276.800 C 158.000 277.020,158.540 277.200,159.200 277.200 C 159.860 277.200,160.400 277.380,160.400 277.600 C 160.400 277.820,161.120 278.000,162.000 278.000 C 162.880 278.000,163.600 278.180,163.600 278.400 C 163.600 278.620,164.320 278.800,165.200 278.800 C 166.080 278.800,166.800 278.980,166.800 279.200 C 166.800 279.420,167.700 279.600,168.800 279.600 C 169.953 279.600,170.800 279.781,170.800 280.028 C 170.800 280.298,171.783 280.419,173.477 280.358 C 175.247 280.294,176.207 280.420,176.310 280.731 C 176.416 281.048,177.753 281.200,180.433 281.200 C 182.811 281.200,184.400 281.360,184.400 281.600 C 184.400 281.859,189.600 282.000,199.200 282.000 C 208.800 282.000,214.000 281.859,214.000 281.600 C 214.000 281.360,215.600 281.200,218.000 281.200 C 220.400 281.200,222.000 281.040,222.000 280.800 C 222.000 280.578,223.067 280.400,224.400 280.400 C 225.733 280.400,226.800 280.222,226.800 280.000 C 226.800 279.778,227.867 279.600,229.200 279.600 C 230.533 279.600,231.600 279.422,231.600 279.200 C 231.600 278.980,232.320 278.800,233.200 278.800 C 234.080 278.800,234.800 278.620,234.800 278.400 C 234.800 278.180,235.520 278.000,236.400 278.000 C 237.280 278.000,238.000 277.820,238.000 277.600 C 238.000 277.380,238.559 277.200,239.243 277.200 C 240.091 277.200,240.423 277.037,240.288 276.686 C 240.145 276.312,240.461 276.214,241.445 276.329 C 242.266 276.425,242.800 276.313,242.800 276.044 C 242.800 275.800,243.160 275.600,243.600 275.600 C 244.040 275.600,244.400 275.420,244.400 275.200 C 244.400 274.980,244.760 274.800,245.200 274.800 C 245.640 274.800,246.000 274.620,246.000 274.400 C 246.000 274.180,246.360 274.000,246.800 274.000 C 247.240 274.000,247.600 273.820,247.600 273.600 C 247.600 273.380,247.883 273.200,248.229 273.200 C 249.470 273.200,250.064 272.088,249.952 269.971 C 249.882 268.667,250.024 267.832,250.349 267.632 C 250.702 267.413,250.828 266.326,250.767 264.021 C 250.707 261.776,250.835 260.625,251.167 260.421 C 251.498 260.216,251.626 259.065,251.567 256.821 C 251.507 254.576,251.635 253.425,251.967 253.221 C 252.298 253.016,252.426 251.865,252.367 249.621 C 252.307 247.376,252.435 246.225,252.767 246.021 C 253.098 245.816,253.226 244.665,253.167 242.421 C 253.107 240.176,253.235 239.025,253.567 238.821 C 253.898 238.616,254.026 237.465,253.967 235.221 C 253.907 232.976,254.035 231.825,254.367 231.621 C 254.699 231.415,254.826 230.257,254.766 227.980 C 254.707 225.743,254.830 224.590,255.139 224.487 C 256.053 224.182,255.733 218.800,254.800 218.800 C 254.360 218.800,254.000 218.980,254.000 219.200 C 254.000 219.420,253.712 219.600,253.360 219.600 C 253.009 219.600,252.217 220.140,251.600 220.800 C 250.983 221.460,250.191 222.000,249.840 222.000 C 249.488 222.000,249.200 222.180,249.200 222.400 C 249.200 222.620,248.880 222.800,248.488 222.800 C 248.097 222.800,247.517 223.160,247.200 223.600 C 246.861 224.070,246.165 224.400,245.512 224.400 C 244.900 224.400,244.400 224.580,244.400 224.800 C 244.400 225.020,244.040 225.200,243.600 225.200 C 243.160 225.200,242.800 225.380,242.800 225.600 C 242.800 225.820,242.080 226.000,241.200 226.000 C 240.320 226.000,239.600 226.180,239.600 226.400 C 239.600 226.620,239.240 226.800,238.800 226.800 C 238.360 226.800,238.000 226.620,238.000 226.400 C 238.000 226.180,237.717 226.000,237.371 226.000 C 236.563 226.000,235.600 225.037,235.600 224.229 C 235.600 223.883,235.420 223.600,235.200 223.600 C 234.980 223.600,234.800 223.240,234.800 222.800 C 234.800 222.360,234.980 222.000,235.200 222.000 C 235.420 222.000,235.600 221.500,235.600 220.888 C 235.600 220.235,235.930 219.539,236.400 219.200 C 236.840 218.883,237.200 218.375,237.200 218.072 C 237.200 217.769,237.740 217.017,238.400 216.400 C 239.060 215.783,239.600 215.075,239.600 214.826 C 239.600 214.576,241.400 212.585,243.600 210.400 C 247.163 206.862,247.600 206.273,247.600 205.014 L 247.600 203.600 245.600 203.600 C 244.500 203.600,243.600 203.780,243.600 204.000 C 243.600 204.220,243.060 204.400,242.400 204.400 C 241.740 204.400,241.200 204.580,241.200 204.800 C 241.200 205.020,240.840 205.200,240.400 205.200 C 239.960 205.200,239.600 205.380,239.600 205.600 C 239.600 205.820,239.325 206.000,238.989 206.000 C 238.287 206.000,234.800 209.354,234.800 210.029 C 234.800 210.277,234.260 210.983,233.600 211.600 C 232.940 212.217,232.400 213.009,232.400 213.360 C 232.400 213.712,232.199 214.000,231.953 214.000 C 231.697 214.000,231.585 214.411,231.691 214.963 C 231.823 215.654,231.723 215.868,231.338 215.721 C 230.992 215.588,230.800 215.816,230.800 216.357 C 230.800 216.821,230.620 217.200,230.400 217.200 C 230.180 217.200,230.000 217.560,230.000 218.000 C 230.000 218.440,229.820 218.800,229.600 218.800 C 229.380 218.800,229.200 219.160,229.200 219.600 C 229.200 220.040,229.020 220.400,228.800 220.400 C 228.580 220.400,228.400 220.760,228.400 221.200 C 228.400 221.640,228.220 222.000,228.000 222.000 C 227.780 222.000,227.600 222.360,227.600 222.800 C 227.600 223.240,227.420 223.600,227.200 223.600 C 226.980 223.600,226.800 224.140,226.800 224.800 C 226.800 225.460,226.620 226.000,226.400 226.000 C 226.180 226.000,226.000 226.360,226.000 226.800 C 226.000 227.240,225.820 227.600,225.600 227.600 C 225.380 227.600,225.200 228.140,225.200 228.800 C 225.200 229.460,225.020 230.000,224.800 230.000 C 224.580 230.000,224.400 230.360,224.400 230.800 C 224.400 231.240,224.220 231.600,224.000 231.600 C 223.780 231.600,223.600 232.140,223.600 232.800 C 223.600 233.460,223.420 234.000,223.200 234.000 C 222.980 234.000,222.800 234.360,222.800 234.800 C 222.800 235.240,222.620 235.600,222.400 235.600 C 222.180 235.600,222.000 235.960,222.000 236.400 C 222.000 236.840,221.820 237.200,221.600 237.200 C 221.380 237.200,221.200 237.560,221.200 238.000 C 221.200 238.440,221.020 238.800,220.800 238.800 C 220.580 238.800,220.400 239.160,220.400 239.600 C 220.400 240.040,220.220 240.400,220.000 240.400 C 219.780 240.400,219.600 240.676,219.600 241.013 C 219.600 241.809,217.009 244.400,216.213 244.400 C 215.764 244.400,215.600 243.971,215.600 242.800 C 215.600 241.920,215.780 241.200,216.000 241.200 C 216.220 241.200,216.400 240.660,216.400 240.000 C 216.400 239.340,216.580 238.800,216.800 238.800 C 217.020 238.800,217.200 238.440,217.200 238.000 C 217.200 237.560,217.380 237.200,217.600 237.200 C 217.820 237.200,218.000 236.840,218.000 236.400 C 218.000 235.960,218.180 235.600,218.400 235.600 C 218.620 235.600,218.800 235.060,218.800 234.400 C 218.800 233.740,218.980 233.200,219.200 233.200 C 219.420 233.200,219.600 232.840,219.600 232.400 C 219.600 231.960,219.780 231.600,220.000 231.600 C 220.220 231.600,220.400 231.240,220.400 230.800 C 220.400 230.360,220.580 230.000,220.800 230.000 C 221.020 230.000,221.200 229.640,221.200 229.200 C 221.200 228.760,221.380 228.400,221.600 228.400 C 221.820 228.400,222.000 227.860,222.000 227.200 C 222.000 226.540,222.180 226.000,222.400 226.000 C 222.620 226.000,222.800 225.640,222.800 225.200 C 222.800 224.760,222.980 224.400,223.200 224.400 C 223.420 224.400,223.600 223.500,223.600 222.400 C 223.600 220.667,223.493 220.400,222.800 220.400 C 222.360 220.400,222.000 220.580,222.000 220.800 C 222.000 221.020,221.680 221.200,221.288 221.200 C 220.897 221.200,220.317 221.560,220.000 222.000 C 219.683 222.440,219.143 222.800,218.800 222.800 C 218.457 222.800,217.917 223.160,217.600 223.600 C 217.283 224.040,216.703 224.400,216.312 224.400 C 215.920 224.400,215.600 224.580,215.600 224.800 C 215.600 225.020,215.060 225.200,214.400 225.200 C 213.740 225.200,213.200 225.380,213.200 225.600 C 213.200 226.752,210.300 225.961,208.800 224.400 C 207.350 222.891,206.000 222.312,206.000 223.200 C 206.000 223.420,205.680 223.600,205.288 223.600 C 204.897 223.600,204.317 223.960,204.000 224.400 C 203.661 224.870,202.965 225.200,202.312 225.200 C 201.700 225.200,201.200 225.380,201.200 225.600 C 201.200 225.820,200.480 226.000,199.600 226.000 C 198.720 226.000,198.000 225.820,198.000 225.600 C 198.000 225.380,197.717 225.200,197.371 225.200 C 196.437 225.200,195.600 224.190,195.600 223.062 C 195.600 222.515,195.377 221.992,195.104 221.901 C 194.797 221.799,194.656 221.178,194.735 220.268 C 194.843 219.008,194.744 218.800,194.031 218.800 C 193.555 218.800,193.200 219.059,193.200 219.406 C 193.200 220.197,187.397 226.000,186.606 226.000 C 186.273 226.000,186.000 226.165,186.000 226.366 C 186.000 226.567,184.852 226.792,183.450 226.866 C 181.532 226.967,180.948 226.876,181.093 226.500 C 181.210 226.197,180.953 226.000,180.443 226.000 C 179.867 226.000,179.600 225.747,179.600 225.200 C 179.600 224.760,179.420 224.400,179.200 224.400 C 178.967 224.400,178.800 223.067,178.800 221.200 C 178.800 219.333,178.967 218.000,179.200 218.000 C 179.420 218.000,179.600 217.280,179.600 216.400 C 179.600 215.520,179.780 214.800,180.000 214.800 C 180.220 214.800,180.400 214.260,180.400 213.600 C 180.400 212.940,180.580 212.400,180.800 212.400 C 181.020 212.400,181.200 212.040,181.200 211.600 C 181.200 211.160,181.380 210.800,181.600 210.800 C 181.820 210.800,182.000 210.440,182.000 210.000 C 182.000 209.560,182.180 209.200,182.400 209.200 C 182.620 209.200,182.800 208.700,182.800 208.088 C 182.800 207.435,183.130 206.739,183.600 206.400 C 184.040 206.083,184.400 205.503,184.400 205.112 C 184.400 204.720,184.580 204.400,184.800 204.400 C 185.020 204.400,185.200 204.124,185.200 203.787 C 185.200 203.225,187.691 200.400,188.187 200.400 C 188.304 200.400,188.400 201.120,188.400 202.000 C 188.400 202.880,188.220 203.600,188.000 203.600 C 187.780 203.600,187.600 203.960,187.600 204.400 C 187.600 204.840,187.420 205.200,187.200 205.200 C 186.980 205.200,186.800 205.560,186.800 206.000 C 186.800 206.440,186.620 206.800,186.400 206.800 C 186.180 206.800,186.000 207.160,186.000 207.600 C 186.000 208.040,185.820 208.400,185.600 208.400 C 185.380 208.400,185.200 208.940,185.200 209.600 C 185.200 210.260,185.020 210.800,184.800 210.800 C 184.580 210.800,184.400 211.160,184.400 211.600 C 184.400 212.040,184.200 212.400,183.956 212.400 C 183.687 212.400,183.575 212.934,183.671 213.755 C 183.786 214.739,183.688 215.055,183.314 214.912 C 182.947 214.771,182.800 215.183,182.800 216.357 C 182.800 217.261,182.620 218.000,182.400 218.000 C 181.777 218.000,181.922 221.580,182.571 222.229 C 183.220 222.878,186.800 223.023,186.800 222.400 C 186.800 222.180,187.073 222.000,187.406 222.000 C 188.142 222.000,194.800 215.422,194.800 214.694 C 194.800 214.409,195.160 213.917,195.600 213.600 C 196.040 213.283,196.400 212.703,196.400 212.312 C 196.400 211.920,196.580 211.600,196.800 211.600 C 197.020 211.600,197.200 211.240,197.200 210.800 C 197.200 210.360,197.380 210.000,197.600 210.000 C 197.820 210.000,198.000 209.640,198.000 209.200 C 198.000 208.760,198.180 208.400,198.400 208.400 C 198.620 208.400,198.800 207.860,198.800 207.200 C 198.800 206.540,198.980 206.000,199.200 206.000 C 199.420 206.000,199.600 205.680,199.600 205.288 C 199.600 204.897,199.960 204.317,200.400 204.000 C 200.840 203.683,201.200 203.185,201.200 202.894 C 201.200 202.383,202.935 200.400,203.382 200.400 C 203.502 200.400,203.600 200.940,203.600 201.600 C 203.600 202.260,203.420 202.800,203.200 202.800 C 202.980 202.800,202.800 203.340,202.800 204.000 C 202.800 204.660,202.620 205.200,202.400 205.200 C 202.180 205.200,202.000 205.560,202.000 206.000 C 202.000 206.440,201.820 206.800,201.600 206.800 C 201.380 206.800,201.200 207.340,201.200 208.000 C 201.200 208.660,201.020 209.200,200.800 209.200 C 200.580 209.200,200.400 209.560,200.400 210.000 C 200.400 210.440,200.200 210.800,199.956 210.800 C 199.687 210.800,199.575 211.334,199.671 212.155 C 199.786 213.139,199.688 213.455,199.314 213.312 C 198.947 213.171,198.800 213.583,198.800 214.757 C 198.800 215.661,198.620 216.400,198.400 216.400 C 197.485 216.400,197.957 220.793,198.982 221.818 C 199.949 222.785,202.000 223.181,202.000 222.400 C 202.000 222.180,202.540 222.000,203.200 222.000 C 203.860 222.000,204.400 221.820,204.400 221.600 C 204.400 221.380,204.676 221.200,205.013 221.200 C 205.809 221.200,208.400 218.609,208.400 217.813 C 208.400 217.476,208.580 217.200,208.800 217.200 C 209.020 217.200,209.200 216.480,209.200 215.600 C 209.200 214.720,209.380 214.000,209.600 214.000 C 209.820 214.000,210.000 213.460,210.000 212.800 C 210.000 212.140,210.180 211.600,210.400 211.600 C 210.620 211.600,210.800 211.060,210.800 210.400 C 210.800 209.740,210.980 209.200,211.200 209.200 C 211.420 209.200,211.600 208.660,211.600 208.000 C 211.600 207.340,211.780 206.800,212.000 206.800 C 212.220 206.800,212.400 206.260,212.400 205.600 C 212.400 204.940,212.580 204.400,212.800 204.400 C 213.020 204.400,213.200 204.040,213.200 203.600 C 213.200 203.160,213.380 202.800,213.600 202.800 C 213.820 202.800,214.000 202.260,214.000 201.600 C 214.000 200.940,214.180 200.400,214.400 200.400 C 214.620 200.400,214.800 200.040,214.800 199.600 C 214.800 199.160,214.980 198.800,215.200 198.800 C 215.420 198.800,215.600 198.260,215.600 197.600 C 215.600 196.940,215.780 196.400,216.000 196.400 C 216.220 196.400,216.400 196.040,216.400 195.600 C 216.400 195.160,216.580 194.800,216.800 194.800 C 217.020 194.800,217.200 194.260,217.200 193.600 C 217.200 192.940,217.380 192.400,217.600 192.400 C 217.820 192.400,218.000 192.040,218.000 191.600 C 218.000 191.160,218.180 190.800,218.400 190.800 C 218.620 190.800,218.800 190.260,218.800 189.600 C 218.800 188.940,218.980 188.400,219.200 188.400 C 219.420 188.400,219.600 188.040,219.600 187.600 C 219.600 187.160,219.780 186.800,220.000 186.800 C 220.220 186.800,220.400 186.260,220.400 185.600 C 220.400 184.940,220.580 184.400,220.800 184.400 C 221.020 184.400,221.200 184.040,221.200 183.600 C 221.200 183.160,221.380 182.800,221.600 182.800 C 221.820 182.800,222.000 182.440,222.000 182.000 C 222.000 181.560,222.180 181.200,222.400 181.200 C 222.620 181.200,222.800 180.922,222.800 180.582 C 222.800 179.798,224.575 178.000,225.348 178.000 C 225.785 178.000,225.966 178.642,226.066 180.550 C 226.167 182.468,226.076 183.052,225.700 182.907 C 225.366 182.778,225.200 183.127,225.200 183.957 C 225.200 184.641,225.020 185.200,224.800 185.200 C 224.580 185.200,224.400 185.740,224.400 186.400 C 224.400 187.060,224.220 187.600,224.000 187.600 C 223.780 187.600,223.600 187.960,223.600 188.400 C 223.600 188.840,223.420 189.200,223.200 189.200 C 222.980 189.200,222.800 189.560,222.800 190.000 C 222.800 190.440,222.620 190.800,222.400 190.800 C 222.180 190.800,222.000 191.340,222.000 192.000 C 222.000 192.660,221.820 193.200,221.600 193.200 C 221.380 193.200,221.200 193.560,221.200 194.000 C 221.200 194.440,221.020 194.800,220.800 194.800 C 220.580 194.800,220.400 195.160,220.400 195.600 C 220.400 196.040,220.220 196.400,220.000 196.400 C 219.780 196.400,219.600 196.940,219.600 197.600 C 219.600 198.260,219.420 198.800,219.200 198.800 C 218.980 198.800,218.800 199.160,218.800 199.600 C 218.800 200.040,218.620 200.400,218.400 200.400 C 218.180 200.400,218.000 200.760,218.000 201.200 C 218.000 201.640,217.820 202.000,217.600 202.000 C 217.380 202.000,217.200 202.540,217.200 203.200 C 217.200 203.860,217.020 204.400,216.800 204.400 C 216.580 204.400,216.400 204.760,216.400 205.200 C 216.400 205.640,216.220 206.000,216.000 206.000 C 215.780 206.000,215.600 206.540,215.600 207.200 C 215.600 207.860,215.420 208.400,215.200 208.400 C 214.980 208.400,214.800 208.760,214.800 209.200 C 214.800 209.640,214.620 210.000,214.400 210.000 C 214.180 210.000,214.000 210.540,214.000 211.200 C 214.000 211.860,213.820 212.400,213.600 212.400 C 213.380 212.400,213.200 212.940,213.200 213.600 C 213.200 214.260,213.020 214.800,212.800 214.800 C 212.563 214.800,212.400 216.267,212.400 218.400 L 212.400 222.000 214.043 222.000 C 215.217 222.000,215.629 221.853,215.488 221.486 C 215.345 221.112,215.661 221.014,216.645 221.129 C 217.466 221.225,218.000 221.113,218.000 220.844 C 218.000 220.600,218.360 220.400,218.800 220.400 C 219.240 220.400,219.600 220.220,219.600 220.000 C 219.600 219.780,219.960 219.600,220.400 219.600 C 220.840 219.600,221.200 219.420,221.200 219.200 C 221.200 218.980,221.473 218.800,221.807 218.800 C 222.831 218.800,227.706 213.647,227.484 212.799 C 227.350 212.288,227.462 212.126,227.845 212.273 C 228.210 212.413,228.400 212.197,228.400 211.643 C 228.400 211.179,228.580 210.800,228.800 210.800 C 229.020 210.800,229.200 210.440,229.200 210.000 C 229.200 209.560,229.380 209.200,229.600 209.200 C 229.820 209.200,230.000 208.660,230.000 208.000 C 230.000 207.340,230.180 206.800,230.400 206.800 C 230.620 206.800,230.800 206.260,230.800 205.600 C 230.800 204.940,230.980 204.400,231.200 204.400 C 231.420 204.400,231.600 203.937,231.600 203.371 C 231.600 202.214,232.427 201.200,233.371 201.200 C 233.873 201.200,234.000 201.685,234.000 203.600 C 234.000 206.225,234.800 206.865,236.000 205.200 C 236.317 204.760,236.857 204.400,237.200 204.400 C 237.543 204.400,238.083 204.040,238.400 203.600 C 238.717 203.160,239.257 202.800,239.600 202.800 C 239.943 202.800,240.483 202.440,240.800 202.000 C 241.117 201.560,241.697 201.200,242.088 201.200 C 242.480 201.200,242.800 201.020,242.800 200.800 C 242.800 200.580,243.340 200.400,244.000 200.400 C 244.660 200.400,245.200 200.220,245.200 200.000 C 245.200 198.975,248.045 199.619,249.371 200.944 C 250.791 202.364,251.711 206.573,250.500 206.107 C 250.197 205.990,250.000 206.247,250.000 206.757 C 250.000 207.221,249.820 207.600,249.600 207.600 C 249.380 207.600,249.200 207.920,249.200 208.312 C 249.200 208.703,248.840 209.283,248.400 209.600 C 247.960 209.917,247.600 210.413,247.600 210.701 C 247.600 210.990,245.620 213.194,243.200 215.600 C 237.983 220.787,237.200 222.800,240.400 222.800 C 241.280 222.800,242.000 222.620,242.000 222.400 C 242.000 222.180,242.540 222.000,243.200 222.000 C 243.860 222.000,244.400 221.820,244.400 221.600 C 244.400 221.380,244.760 221.200,245.200 221.200 C 245.640 221.200,246.000 221.020,246.000 220.800 C 246.000 220.580,246.360 220.400,246.800 220.400 C 247.240 220.400,247.600 220.220,247.600 220.000 C 247.600 219.780,247.920 219.600,248.312 219.600 C 248.703 219.600,249.283 219.240,249.600 218.800 C 249.917 218.360,250.410 218.000,250.696 218.000 C 251.965 218.000,256.488 212.782,256.304 211.530 C 256.188 210.737,256.319 210.253,256.687 210.111 C 257.115 209.947,257.228 209.099,257.165 206.508 C 257.110 204.206,257.240 203.023,257.569 202.819 C 257.898 202.616,258.026 201.457,257.967 199.221 C 257.907 196.976,258.035 195.825,258.367 195.621 C 258.698 195.416,258.826 194.265,258.767 192.021 C 258.707 189.776,258.835 188.625,259.167 188.421 C 259.498 188.216,259.626 187.065,259.567 184.821 C 259.507 182.576,259.635 181.425,259.967 181.221 C 260.298 181.016,260.426 179.865,260.367 177.621 C 260.307 175.376,260.435 174.225,260.767 174.021 C 261.098 173.816,261.226 172.665,261.167 170.421 C 261.107 168.176,261.235 167.025,261.567 166.821 C 261.898 166.616,262.026 165.465,261.967 163.221 C 261.907 160.976,262.035 159.825,262.367 159.621 C 262.698 159.416,262.826 158.265,262.767 156.021 C 262.707 153.776,262.835 152.625,263.167 152.421 C 263.498 152.216,263.626 151.065,263.567 148.821 C 263.507 146.576,263.635 145.425,263.967 145.221 C 264.299 145.015,264.426 143.857,264.366 141.580 C 264.307 139.343,264.430 138.190,264.739 138.087 C 265.660 137.780,265.337 131.600,264.400 131.600 C 263.960 131.600,263.600 131.780,263.600 132.000 M151.600 277.600 C 151.600 278.260,151.780 278.800,152.000 278.800 C 152.220 278.800,152.400 279.160,152.400 279.600 C 152.400 280.040,152.580 280.400,152.800 280.400 C 153.020 280.400,153.200 280.720,153.200 281.112 C 153.200 281.503,153.560 282.083,154.000 282.400 C 154.440 282.717,154.800 283.297,154.800 283.688 C 154.800 284.080,154.980 284.400,155.200 284.400 C 155.420 284.400,155.600 284.720,155.600 285.112 C 155.600 285.503,155.960 286.083,156.400 286.400 C 156.840 286.717,157.200 287.297,157.200 287.688 C 157.200 288.080,157.380 288.400,157.600 288.400 C 157.820 288.400,158.000 288.720,158.000 289.112 C 158.000 289.503,158.360 290.083,158.800 290.400 C 159.240 290.717,159.600 291.297,159.600 291.688 C 159.600 292.080,159.780 292.400,160.000 292.400 C 160.242 292.400,160.400 294.133,160.400 296.800 C 160.400 299.467,160.558 301.200,160.800 301.200 C 161.049 301.200,161.200 303.467,161.200 307.200 C 161.200 310.933,161.351 313.200,161.600 313.200 C 161.849 313.200,162.000 315.467,162.000 319.200 C 162.000 322.933,162.151 325.200,162.400 325.200 C 162.649 325.200,162.800 327.467,162.800 331.200 C 162.800 334.933,162.951 337.200,163.200 337.200 C 163.420 337.200,163.600 337.658,163.600 338.218 C 163.600 339.341,165.210 341.200,166.182 341.200 C 166.522 341.200,166.800 341.380,166.800 341.600 C 166.800 341.820,167.160 342.000,167.600 342.000 C 168.040 342.000,168.400 342.180,168.400 342.400 C 168.400 342.620,168.760 342.800,169.200 342.800 C 169.640 342.800,170.000 342.980,170.000 343.200 C 170.000 343.420,170.720 343.600,171.600 343.600 C 172.480 343.600,173.200 343.780,173.200 344.000 C 173.200 344.220,173.920 344.400,174.800 344.400 C 175.680 344.400,176.400 344.580,176.400 344.800 C 176.400 345.022,177.467 345.200,178.800 345.200 C 180.133 345.200,181.200 345.378,181.200 345.600 C 181.200 345.837,182.667 346.000,184.800 346.000 C 186.933 346.000,188.400 346.163,188.400 346.400 C 188.400 346.657,192.533 346.800,200.000 346.800 C 207.467 346.800,211.600 346.657,211.600 346.400 C 211.600 346.163,213.067 346.000,215.200 346.000 C 217.333 346.000,218.800 345.837,218.800 345.600 C 218.800 345.378,219.867 345.200,221.200 345.200 C 222.533 345.200,223.600 345.022,223.600 344.800 C 223.600 344.580,224.320 344.400,225.200 344.400 C 226.080 344.400,226.800 344.220,226.800 344.000 C 226.800 343.780,227.340 343.600,228.000 343.600 C 228.660 343.600,229.200 343.420,229.200 343.200 C 229.200 342.980,229.740 342.800,230.400 342.800 C 231.060 342.800,231.600 342.620,231.600 342.400 C 231.600 342.180,231.960 342.000,232.400 342.000 C 232.840 342.000,233.200 341.820,233.200 341.600 C 233.200 341.380,233.478 341.200,233.818 341.200 C 235.455 341.200,236.400 339.376,236.400 336.218 C 236.400 334.473,236.569 333.200,236.800 333.200 C 237.051 333.200,237.200 330.667,237.200 326.400 C 237.200 322.133,237.349 319.600,237.600 319.600 C 237.851 319.600,238.000 317.067,238.000 312.800 C 238.000 308.533,238.149 306.000,238.400 306.000 C 238.650 306.000,238.800 303.600,238.800 299.600 C 238.800 295.600,238.950 293.200,239.200 293.200 C 239.420 293.200,239.600 292.480,239.600 291.600 C 239.600 290.720,239.780 290.000,240.000 290.000 C 240.220 290.000,240.400 289.680,240.400 289.288 C 240.400 288.897,240.760 288.317,241.200 288.000 C 241.640 287.683,242.000 287.103,242.000 286.712 C 242.000 286.320,242.180 286.000,242.400 286.000 C 242.620 286.000,242.800 285.680,242.800 285.288 C 242.800 284.897,243.160 284.317,243.600 284.000 C 244.040 283.683,244.400 283.103,244.400 282.712 C 244.400 282.320,244.580 282.000,244.800 282.000 C 245.020 282.000,245.200 281.640,245.200 281.200 C 245.200 280.760,245.380 280.400,245.600 280.400 C 245.820 280.400,246.000 280.040,246.000 279.600 C 246.000 279.160,246.180 278.800,246.400 278.800 C 246.620 278.800,246.800 278.260,246.800 277.600 C 246.800 276.533,246.667 276.400,245.600 276.400 C 244.940 276.400,244.400 276.580,244.400 276.800 C 244.400 277.020,243.860 277.200,243.200 277.200 C 242.540 277.200,242.000 277.380,242.000 277.600 C 242.000 277.820,241.460 278.000,240.800 278.000 C 240.140 278.000,239.600 278.180,239.600 278.400 C 239.600 278.620,238.880 278.800,238.000 278.800 C 237.120 278.800,236.400 278.980,236.400 279.200 C 236.400 279.420,235.680 279.600,234.800 279.600 C 233.920 279.600,233.200 279.780,233.200 280.000 C 233.200 280.220,232.480 280.400,231.600 280.400 C 230.720 280.400,230.000 280.580,230.000 280.800 C 230.000 281.022,228.933 281.200,227.600 281.200 C 226.267 281.200,225.200 281.378,225.200 281.600 C 225.200 281.829,224.000 282.000,222.400 282.000 C 220.800 282.000,219.600 282.171,219.600 282.400 C 219.600 282.640,218.011 282.800,215.633 282.800 C 213.408 282.800,211.608 282.972,211.533 283.191 C 211.343 283.750,187.060 283.780,186.874 283.222 C 186.788 282.964,185.192 282.800,182.767 282.800 C 180.389 282.800,178.800 282.640,178.800 282.400 C 178.800 282.171,177.600 282.000,176.000 282.000 C 174.400 282.000,173.200 281.829,173.200 281.600 C 173.200 281.378,172.133 281.200,170.800 281.200 C 169.467 281.200,168.400 281.022,168.400 280.800 C 168.400 280.580,167.500 280.400,166.400 280.400 C 165.300 280.400,164.400 280.220,164.400 280.000 C 164.400 279.780,163.680 279.600,162.800 279.600 C 161.920 279.600,161.200 279.420,161.200 279.200 C 161.200 278.980,160.660 278.800,160.000 278.800 C 159.340 278.800,158.800 278.620,158.800 278.400 C 158.800 278.180,158.080 278.000,157.200 278.000 C 156.320 278.000,155.600 277.820,155.600 277.600 C 155.600 277.380,155.060 277.200,154.400 277.200 C 153.740 277.200,153.200 277.020,153.200 276.800 C 153.200 276.580,152.840 276.400,152.400 276.400 C 151.778 276.400,151.600 276.667,151.600 277.600 " stroke="none" fill="#d44c44" fill-rule="evenodd"></path><path id="path3" d="M210.267 128.667 C 210.120 128.813,210.005 129.218,210.012 129.567 C 210.022 130.103,210.087 130.093,210.432 129.500 C 210.954 128.605,211.850 128.603,212.350 129.497 C 212.565 129.880,212.865 130.068,213.018 129.916 C 213.170 129.763,213.017 129.360,212.676 129.019 C 212.040 128.383,210.740 128.193,210.267 128.667 M223.646 129.300 C 223.681 129.977,223.738 130.027,223.876 129.500 C 224.132 128.520,225.434 128.627,226.177 129.689 C 226.520 130.178,226.800 130.345,226.800 130.060 C 226.800 129.217,225.732 128.400,224.629 128.400 C 223.815 128.400,223.610 128.588,223.646 129.300 M216.100 130.296 C 217.365 130.375,219.435 130.375,220.700 130.296 C 221.965 130.216,220.930 130.151,218.400 130.151 C 215.870 130.151,214.835 130.216,216.100 130.296 M210.000 131.579 C 210.000 132.358,211.250 133.178,212.400 133.153 C 213.331 133.133,213.317 133.107,212.200 132.774 C 211.541 132.577,210.776 132.108,210.500 131.732 C 210.160 131.266,210.000 131.217,210.000 131.579 M223.800 132.800 L 222.600 133.105 223.900 133.153 C 224.615 133.179,225.200 133.020,225.200 132.800 C 225.200 132.580,225.155 132.421,225.100 132.447 C 225.045 132.473,224.460 132.632,223.800 132.800 " stroke="none" fill="#d44c4c" fill-rule="evenodd"></path><path id="path4" d="" stroke="none" fill="#e85c78" fill-rule="evenodd"></path></g></svg>