<svg id="svg" version="1.1" width="400" height="400" viewBox="0 0 400 400" xmlns="http://www.w3.org/2000/svg" xmlns:xlink="http://www.w3.org/1999/xlink" ><g id="svgg"><path id="path0" d="M154.000 54.400 C 154.000 55.060,154.180 55.600,154.400 55.600 C 154.620 55.600,154.800 56.140,154.800 56.800 C 154.800 57.460,154.980 58.000,155.200 58.000 C 155.420 58.000,155.600 58.360,155.600 58.800 C 155.600 59.240,155.780 59.600,156.000 59.600 C 156.220 59.600,156.400 60.140,156.400 60.800 C 156.400 61.460,156.580 62.000,156.800 62.000 C 157.020 62.000,157.200 62.540,157.200 63.200 C 157.200 63.860,157.380 64.400,157.600 64.400 C 157.820 64.400,158.000 64.940,158.000 65.600 C 158.000 66.260,158.180 66.800,158.400 66.800 C 158.620 66.800,158.800 67.340,158.800 68.000 C 158.800 68.660,158.980 69.200,159.200 69.200 C 159.420 69.200,159.600 69.740,159.600 70.400 C 159.600 71.060,159.780 71.600,160.000 71.600 C 160.220 71.600,160.400 72.140,160.400 72.800 C 160.400 73.460,160.580 74.000,160.800 74.000 C 161.020 74.000,161.200 74.540,161.200 75.200 C 161.200 75.860,161.380 76.400,161.600 76.400 C 161.820 76.400,162.000 76.940,162.000 77.600 C 162.000 78.260,162.180 78.800,162.400 78.800 C 162.620 78.800,162.800 79.340,162.800 80.000 C 162.800 80.660,162.980 81.200,163.200 81.200 C 163.420 81.200,163.600 81.740,163.600 82.400 C 163.600 83.060,163.780 83.600,164.000 83.600 C 164.220 83.600,164.400 84.140,164.400 84.800 C 164.400 85.460,164.580 86.000,164.800 86.000 C 165.020 86.000,165.200 86.540,165.200 87.200 C 165.200 87.860,165.380 88.400,165.600 88.400 C 165.820 88.400,166.000 88.940,166.000 89.600 C 166.000 90.260,166.180 90.800,166.400 90.800 C 166.620 90.800,166.800 91.340,166.800 92.000 C 166.800 92.660,166.980 93.200,167.200 93.200 C 167.420 93.200,167.600 93.740,167.600 94.400 C 167.600 95.060,167.780 95.600,168.000 95.600 C 168.220 95.600,168.400 96.140,168.400 96.800 C 168.400 97.460,168.580 98.000,168.800 98.000 C 169.020 98.000,169.200 98.540,169.200 99.200 C 169.200 99.860,169.380 100.400,169.600 100.400 C 169.820 100.400,170.000 100.940,170.000 101.600 C 170.000 102.260,170.180 102.800,170.400 102.800 C 170.620 102.800,170.800 103.340,170.800 104.000 C 170.800 104.660,170.980 105.200,171.200 105.200 C 171.420 105.200,171.600 105.740,171.600 106.400 C 171.600 107.060,171.780 107.600,172.000 107.600 C 172.220 107.600,172.400 107.960,172.400 108.400 C 172.400 108.840,172.580 109.200,172.800 109.200 C 173.020 109.200,173.200 109.740,173.200 110.400 C 173.200 111.060,173.380 111.600,173.600 111.600 C 173.820 111.600,174.000 112.140,174.000 112.800 C 174.000 113.460,174.180 114.000,174.400 114.000 C 174.620 114.000,174.800 114.540,174.800 115.200 C 174.800 115.860,174.980 116.400,175.200 116.400 C 175.420 116.400,175.600 116.940,175.600 117.600 C 175.600 118.260,175.780 118.800,176.000 118.800 C 176.220 118.800,176.400 119.340,176.400 120.000 C 176.400 120.660,176.580 121.200,176.800 121.200 C 177.020 121.200,177.200 121.740,177.200 122.400 C 177.200 123.060,177.380 123.600,177.600 123.600 C 177.820 123.600,178.000 124.140,178.000 124.800 C 178.000 125.460,178.180 126.000,178.400 126.000 C 178.620 126.000,178.800 126.540,178.800 127.200 C 178.800 127.860,178.980 128.400,179.200 128.400 C 179.420 128.400,179.600 128.940,179.600 129.600 C 179.600 130.260,179.780 130.800,180.000 130.800 C 180.220 130.800,180.400 131.340,180.400 132.000 C 180.400 132.660,180.580 133.200,180.800 133.200 C 181.020 133.200,181.200 133.740,181.200 134.400 C 181.200 135.060,181.380 135.600,181.600 135.600 C 181.820 135.600,182.000 136.140,182.000 136.800 C 182.000 137.460,182.180 138.000,182.400 138.000 C 182.620 138.000,182.800 138.540,182.800 139.200 C 182.800 139.860,182.980 140.400,183.200 140.400 C 183.420 140.400,183.600 140.940,183.600 141.600 C 183.600 142.260,183.780 142.800,184.000 142.800 C 184.220 142.800,184.400 143.340,184.400 144.000 C 184.400 144.660,184.580 145.200,184.800 145.200 C 185.020 145.200,185.200 145.740,185.200 146.400 C 185.200 147.060,185.380 147.600,185.600 147.600 C 185.820 147.600,186.000 148.140,186.000 148.800 C 186.000 149.460,186.180 150.000,186.400 150.000 C 186.620 150.000,186.800 150.540,186.800 151.200 C 186.800 151.860,186.980 152.400,187.200 152.400 C 187.420 152.400,187.600 152.940,187.600 153.600 C 187.600 154.260,187.780 154.800,188.000 154.800 C 188.220 154.800,188.400 155.160,188.400 155.600 C 188.400 156.040,188.580 156.400,188.800 156.400 C 189.020 156.400,189.200 156.940,189.200 157.600 C 189.200 158.260,189.380 158.800,189.600 158.800 C 189.820 158.800,190.000 159.340,190.000 160.000 C 190.000 160.660,190.180 161.200,190.400 161.200 C 190.620 161.200,190.800 161.740,190.800 162.400 C 190.800 163.060,190.980 163.600,191.200 163.600 C 191.420 163.600,191.600 163.780,191.600 164.000 C 191.600 164.220,190.880 164.400,190.000 164.400 C 189.120 164.400,188.400 164.580,188.400 164.800 C 188.400 165.020,188.040 165.200,187.600 165.200 C 187.160 165.200,186.800 165.380,186.800 165.600 C 186.800 165.820,186.260 166.000,185.600 166.000 C 184.940 166.000,184.400 166.180,184.400 166.400 C 184.400 166.620,184.080 166.800,183.688 166.800 C 183.297 166.800,182.717 167.160,182.400 167.600 C 182.083 168.040,181.543 168.400,181.200 168.400 C 180.857 168.400,180.317 168.760,180.000 169.200 C 179.683 169.640,179.191 170.000,178.906 170.000 C 178.231 170.000,171.600 176.631,171.600 177.306 C 171.600 177.591,171.240 178.083,170.800 178.400 C 170.360 178.717,170.000 179.297,170.000 179.688 C 170.000 180.080,169.820 180.400,169.600 180.400 C 169.380 180.400,169.200 180.760,169.200 181.200 C 169.200 181.640,169.020 182.000,168.800 182.000 C 168.580 182.000,168.400 182.360,168.400 182.800 C 168.400 183.240,168.220 183.600,168.000 183.600 C 167.780 183.600,167.600 184.140,167.600 184.800 C 167.600 185.460,167.420 186.000,167.200 186.000 C 166.980 186.000,166.800 186.540,166.800 187.200 C 166.800 187.860,166.620 188.400,166.400 188.400 C 166.180 188.400,166.000 189.300,166.000 190.400 C 166.000 191.500,165.820 192.400,165.600 192.400 C 165.354 192.400,165.200 194.400,165.200 197.600 C 165.200 200.800,165.354 202.800,165.600 202.800 C 165.820 202.800,166.000 203.700,166.000 204.800 C 166.000 205.900,166.180 206.800,166.400 206.800 C 166.620 206.800,166.800 207.520,166.800 208.400 C 166.800 209.280,166.980 210.000,167.200 210.000 C 167.420 210.000,167.600 210.360,167.600 210.800 C 167.600 211.240,167.780 211.600,168.000 211.600 C 168.220 211.600,168.400 211.960,168.400 212.400 C 168.400 212.840,168.580 213.200,168.800 213.200 C 169.020 213.200,169.200 213.560,169.200 214.000 C 169.200 214.440,169.380 214.800,169.600 214.800 C 169.820 214.800,170.000 215.160,170.000 215.600 C 170.000 216.040,170.180 216.400,170.400 216.400 C 170.620 216.400,170.800 216.684,170.800 217.031 C 170.800 217.379,171.520 218.354,172.400 219.200 C 173.280 220.046,174.000 220.940,174.000 221.187 C 174.000 221.759,175.825 223.600,176.392 223.600 C 176.628 223.600,177.642 224.421,178.645 225.424 L 180.468 227.247 179.634 227.970 C 179.175 228.368,178.800 228.916,178.800 229.186 C 178.800 229.457,178.260 230.183,177.600 230.800 C 176.940 231.417,176.400 232.130,176.400 232.386 C 176.400 232.642,175.500 233.729,174.400 234.800 C 173.300 235.871,172.400 236.942,172.400 237.178 C 172.400 237.739,162.539 247.600,161.978 247.600 C 161.742 247.600,160.671 248.500,159.600 249.600 C 158.529 250.700,157.442 251.600,157.186 251.600 C 156.930 251.600,156.217 252.140,155.600 252.800 C 154.983 253.460,154.231 254.000,153.928 254.000 C 153.625 254.000,153.117 254.360,152.800 254.800 C 152.483 255.240,151.943 255.600,151.600 255.600 C 151.257 255.600,150.717 255.960,150.400 256.400 C 150.083 256.840,149.543 257.200,149.200 257.200 C 148.857 257.200,148.317 257.560,148.000 258.000 C 147.683 258.440,147.103 258.800,146.712 258.800 C 146.320 258.800,146.000 258.980,146.000 259.200 C 146.000 259.420,145.680 259.600,145.288 259.600 C 144.897 259.600,144.317 259.960,144.000 260.400 C 143.683 260.840,143.103 261.200,142.712 261.200 C 142.320 261.200,142.000 261.380,142.000 261.600 C 142.000 261.820,141.640 262.000,141.200 262.000 C 140.760 262.000,140.400 262.180,140.400 262.400 C 140.400 262.620,140.040 262.800,139.600 262.800 C 139.160 262.800,138.800 262.980,138.800 263.200 C 138.800 263.420,138.440 263.600,138.000 263.600 C 137.560 263.600,137.200 263.780,137.200 264.000 C 137.200 264.220,136.660 264.400,136.000 264.400 C 135.340 264.400,134.800 264.580,134.800 264.800 C 134.800 265.774,131.918 265.197,130.800 264.000 C 130.183 263.340,129.468 262.800,129.211 262.800 C 128.610 262.800,127.600 261.795,127.600 261.197 C 127.600 260.944,126.880 260.046,126.000 259.200 C 125.120 258.354,124.400 257.418,124.400 257.120 C 124.400 256.821,124.040 256.317,123.600 256.000 C 123.160 255.683,122.800 255.103,122.800 254.712 C 122.800 254.320,122.620 254.000,122.400 254.000 C 122.180 254.000,122.000 253.460,122.000 252.800 C 122.000 252.140,121.820 251.600,121.600 251.600 C 121.380 251.600,121.200 251.240,121.200 250.800 C 121.200 250.360,121.020 250.000,120.800 250.000 C 120.580 250.000,120.400 249.100,120.400 248.000 C 120.400 246.900,120.220 246.000,120.000 246.000 C 119.767 246.000,119.600 244.667,119.600 242.800 C 119.600 240.933,119.767 239.600,120.000 239.600 C 120.220 239.600,120.400 238.880,120.400 238.000 C 120.400 237.120,120.580 236.400,120.800 236.400 C 121.020 236.400,121.200 235.860,121.200 235.200 C 121.200 234.540,121.380 234.000,121.600 234.000 C 121.820 234.000,122.000 233.542,122.000 232.982 C 122.000 231.671,123.671 230.000,124.982 230.000 C 125.542 230.000,126.000 229.820,126.000 229.600 C 126.000 229.380,126.360 229.200,126.800 229.200 C 127.240 229.200,127.600 229.020,127.600 228.800 C 127.600 228.580,127.920 228.400,128.312 228.400 C 128.703 228.400,129.283 228.040,129.600 227.600 C 129.917 227.160,130.419 226.800,130.714 226.800 C 131.010 226.800,132.129 225.900,133.200 224.800 C 134.271 223.700,135.430 222.800,135.774 222.800 C 136.118 222.800,136.400 222.516,136.400 222.169 C 136.400 221.821,137.120 220.846,138.000 220.000 C 138.880 219.154,139.600 218.218,139.600 217.920 C 139.600 217.621,139.960 217.117,140.400 216.800 C 140.840 216.483,141.200 215.903,141.200 215.512 C 141.200 215.120,141.380 214.800,141.600 214.800 C 141.820 214.800,142.000 214.440,142.000 214.000 C 142.000 213.560,142.180 213.200,142.400 213.200 C 142.620 213.200,142.800 212.840,142.800 212.400 C 142.800 211.960,142.980 211.600,143.200 211.600 C 143.420 211.600,143.600 211.060,143.600 210.400 C 143.600 209.740,143.780 209.200,144.000 209.200 C 144.220 209.200,144.400 208.480,144.400 207.600 C 144.400 206.720,144.580 206.000,144.800 206.000 C 145.022 206.000,145.200 204.933,145.200 203.600 C 145.200 202.267,145.378 201.200,145.600 201.200 C 145.833 201.200,146.000 199.867,146.000 198.000 C 146.000 196.133,145.833 194.800,145.600 194.800 C 145.371 194.800,145.200 193.600,145.200 192.000 C 145.200 190.400,145.029 189.200,144.800 189.200 C 144.580 189.200,144.400 188.660,144.400 188.000 C 144.400 187.340,144.220 186.800,144.000 186.800 C 143.780 186.800,143.600 186.260,143.600 185.600 C 143.600 184.940,143.420 184.400,143.200 184.400 C 142.980 184.400,142.800 184.040,142.800 183.600 C 142.800 183.160,142.620 182.800,142.400 182.800 C 142.180 182.800,142.000 182.440,142.000 182.000 C 142.000 181.560,141.820 181.200,141.600 181.200 C 141.380 181.200,141.200 180.880,141.200 180.488 C 141.200 180.097,140.840 179.517,140.400 179.200 C 139.960 178.883,139.600 178.375,139.600 178.072 C 139.600 177.769,139.060 177.017,138.400 176.400 C 137.740 175.783,137.200 175.075,137.200 174.826 C 137.200 174.237,134.563 171.600,133.974 171.600 C 133.725 171.600,133.017 171.060,132.400 170.400 C 131.783 169.740,131.031 169.200,130.728 169.200 C 130.425 169.200,129.917 168.840,129.600 168.400 C 129.283 167.960,128.703 167.600,128.312 167.600 C 127.920 167.600,127.600 167.420,127.600 167.200 C 127.600 166.980,127.240 166.800,126.800 166.800 C 126.360 166.800,126.000 166.620,126.000 166.400 C 126.000 166.180,125.460 166.000,124.800 166.000 C 124.140 166.000,123.600 165.820,123.600 165.600 C 123.600 165.380,123.240 165.200,122.800 165.200 C 122.360 165.200,122.000 165.020,122.000 164.800 C 122.000 164.580,121.280 164.400,120.400 164.400 C 119.520 164.400,118.800 164.220,118.800 164.000 C 118.800 163.747,116.000 163.600,111.200 163.600 C 106.400 163.600,103.600 163.747,103.600 164.000 C 103.600 164.220,102.880 164.400,102.000 164.400 C 101.120 164.400,100.400 164.580,100.400 164.800 C 100.400 165.020,99.860 165.200,99.200 165.200 C 98.540 165.200,98.000 165.380,98.000 165.600 C 98.000 165.820,97.640 166.000,97.200 166.000 C 96.760 166.000,96.400 166.180,96.400 166.400 C 96.400 166.620,96.040 166.800,95.600 166.800 C 95.160 166.800,94.800 166.980,94.800 167.200 C 94.800 167.420,94.440 167.600,94.000 167.600 C 93.560 167.600,93.200 167.780,93.200 168.000 C 93.200 168.220,92.880 168.400,92.488 168.400 C 92.097 168.400,91.517 168.760,91.200 169.200 C 90.883 169.640,90.390 170.000,90.105 170.000 C 89.430 170.000,83.600 175.830,83.600 176.505 C 83.600 176.790,83.240 177.283,82.800 177.600 C 82.360 177.917,82.000 178.457,82.000 178.800 C 82.000 179.143,81.640 179.683,81.200 180.000 C 80.760 180.317,80.400 180.897,80.400 181.288 C 80.400 181.680,80.220 182.000,80.000 182.000 C 79.780 182.000,79.600 182.360,79.600 182.800 C 79.600 183.240,79.420 183.600,79.200 183.600 C 78.980 183.600,78.800 184.140,78.800 184.800 C 78.800 185.460,78.620 186.000,78.400 186.000 C 78.180 186.000,78.000 186.540,78.000 187.200 C 78.000 187.860,77.820 188.400,77.600 188.400 C 77.380 188.400,77.200 189.300,77.200 190.400 C 77.200 191.500,77.020 192.400,76.800 192.400 C 76.552 192.400,76.400 194.533,76.400 198.000 C 76.400 201.467,76.552 203.600,76.800 203.600 C 77.020 203.600,77.200 204.500,77.200 205.600 C 77.200 206.700,77.380 207.600,77.600 207.600 C 77.820 207.600,78.000 208.140,78.000 208.800 C 78.000 209.460,78.180 210.000,78.400 210.000 C 78.620 210.000,78.800 210.540,78.800 211.200 C 78.800 211.860,78.980 212.400,79.200 212.400 C 79.420 212.400,79.600 212.760,79.600 213.200 C 79.600 213.640,79.780 214.000,80.000 214.000 C 80.220 214.000,80.400 214.320,80.400 214.712 C 80.400 215.103,80.760 215.683,81.200 216.000 C 81.640 216.317,82.000 216.857,82.000 217.200 C 82.000 217.543,82.360 218.083,82.800 218.400 C 83.240 218.717,83.600 219.225,83.600 219.528 C 83.600 219.831,84.185 220.629,84.900 221.301 C 85.721 222.074,86.016 222.587,85.700 222.695 C 85.425 222.790,85.200 223.392,85.200 224.033 C 85.200 224.675,85.020 225.200,84.800 225.200 C 84.580 225.200,84.400 225.560,84.400 226.000 C 84.400 226.440,84.220 226.800,84.000 226.800 C 83.780 226.800,83.600 227.160,83.600 227.600 C 83.600 228.040,83.420 228.400,83.200 228.400 C 82.980 228.400,82.800 228.760,82.800 229.200 C 82.800 229.640,82.620 230.000,82.400 230.000 C 82.180 230.000,82.000 230.360,82.000 230.800 C 82.000 231.240,81.820 231.600,81.600 231.600 C 81.380 231.600,81.200 231.960,81.200 232.400 C 81.200 232.840,81.020 233.200,80.800 233.200 C 80.580 233.200,80.400 233.560,80.400 234.000 C 80.400 234.440,80.220 234.800,80.000 234.800 C 79.780 234.800,79.600 235.160,79.600 235.600 C 79.600 236.040,79.420 236.400,79.200 236.400 C 78.980 236.400,78.800 236.760,78.800 237.200 C 78.800 237.640,78.620 238.000,78.400 238.000 C 78.180 238.000,78.000 238.360,78.000 238.800 C 78.000 239.240,77.820 239.600,77.600 239.600 C 77.380 239.600,77.200 240.140,77.200 240.800 C 77.200 241.460,77.020 242.000,76.800 242.000 C 76.580 242.000,76.400 242.360,76.400 242.800 C 76.400 243.240,76.220 243.600,76.000 243.600 C 75.780 243.600,75.600 243.960,75.600 244.400 C 75.600 244.840,75.420 245.200,75.200 245.200 C 74.980 245.200,74.800 245.740,74.800 246.400 C 74.800 247.060,74.620 247.600,74.400 247.600 C 74.180 247.600,74.000 247.960,74.000 248.400 C 74.000 248.840,73.820 249.200,73.600 249.200 C 73.380 249.200,73.200 249.740,73.200 250.400 C 73.200 251.060,73.020 251.600,72.800 251.600 C 72.580 251.600,72.400 252.140,72.400 252.800 C 72.400 253.460,72.220 254.000,72.000 254.000 C 71.780 254.000,71.600 254.540,71.600 255.200 C 71.600 255.860,71.420 256.400,71.200 256.400 C 70.980 256.400,70.800 257.120,70.800 258.000 C 70.800 258.880,70.620 259.600,70.400 259.600 C 70.180 259.600,70.000 260.140,70.000 260.800 C 70.000 261.460,69.820 262.000,69.600 262.000 C 69.380 262.000,69.200 262.900,69.200 264.000 C 69.200 265.100,69.020 266.000,68.800 266.000 C 68.578 266.000,68.400 267.067,68.400 268.400 C 68.400 269.733,68.222 270.800,68.000 270.800 C 67.760 270.800,67.600 272.400,67.600 274.800 C 67.600 277.200,67.440 278.800,67.200 278.800 C 66.950 278.800,66.800 281.200,66.800 285.200 C 66.800 289.200,66.950 291.600,67.200 291.600 C 67.437 291.600,67.600 293.067,67.600 295.200 C 67.600 297.333,67.763 298.800,68.000 298.800 C 68.220 298.800,68.400 299.700,68.400 300.800 C 68.400 301.900,68.580 302.800,68.800 302.800 C 69.020 302.800,69.200 303.520,69.200 304.400 C 69.200 305.280,69.380 306.000,69.600 306.000 C 69.820 306.000,70.000 306.540,70.000 307.200 C 70.000 307.860,70.180 308.400,70.400 308.400 C 70.620 308.400,70.800 308.940,70.800 309.600 C 70.800 310.260,70.980 310.800,71.200 310.800 C 71.420 310.800,71.600 311.340,71.600 312.000 C 71.600 312.660,71.780 313.200,72.000 313.200 C 72.220 313.200,72.400 313.560,72.400 314.000 C 72.400 314.440,72.580 314.800,72.800 314.800 C 73.020 314.800,73.200 315.160,73.200 315.600 C 73.200 316.040,73.380 316.400,73.600 316.400 C 73.820 316.400,74.000 316.760,74.000 317.200 C 74.000 317.640,74.180 318.000,74.400 318.000 C 74.620 318.000,74.800 318.320,74.800 318.712 C 74.800 319.103,75.160 319.683,75.600 320.000 C 76.040 320.317,76.400 320.857,76.400 321.200 C 76.400 321.543,76.760 322.083,77.200 322.400 C 77.640 322.717,78.000 323.219,78.000 323.514 C 78.000 323.810,78.900 324.929,80.000 326.000 C 81.100 327.071,82.000 328.148,82.000 328.392 C 82.000 328.969,83.831 330.800,84.408 330.800 C 84.652 330.800,85.729 331.700,86.800 332.800 C 87.871 333.900,88.990 334.800,89.286 334.800 C 89.581 334.800,90.083 335.160,90.400 335.600 C 90.717 336.040,91.257 336.400,91.600 336.400 C 91.943 336.400,92.483 336.760,92.800 337.200 C 93.117 337.640,93.697 338.000,94.088 338.000 C 94.480 338.000,94.800 338.180,94.800 338.400 C 94.800 338.620,95.160 338.800,95.600 338.800 C 96.040 338.800,96.400 338.980,96.400 339.200 C 96.400 339.420,96.720 339.600,97.112 339.600 C 97.503 339.600,98.083 339.960,98.400 340.400 C 98.739 340.870,99.435 341.200,100.088 341.200 C 100.700 341.200,101.200 341.380,101.200 341.600 C 101.200 341.820,101.560 342.000,102.000 342.000 C 102.440 342.000,102.800 342.180,102.800 342.400 C 102.800 342.620,103.340 342.800,104.000 342.800 C 104.660 342.800,105.200 342.980,105.200 343.200 C 105.200 343.420,105.560 343.600,106.000 343.600 C 106.440 343.600,106.800 343.780,106.800 344.000 C 106.800 344.220,107.520 344.400,108.400 344.400 C 109.280 344.400,110.000 344.580,110.000 344.800 C 110.000 345.020,110.720 345.200,111.600 345.200 C 112.480 345.200,113.200 345.380,113.200 345.600 C 113.200 345.822,114.267 346.000,115.600 346.000 C 116.933 346.000,118.000 346.178,118.000 346.400 C 118.000 346.654,121.067 346.800,126.400 346.800 C 131.733 346.800,134.800 346.654,134.800 346.400 C 134.800 346.171,136.000 346.000,137.600 346.000 C 139.200 346.000,140.400 345.829,140.400 345.600 C 140.400 345.380,141.300 345.200,142.400 345.200 C 143.500 345.200,144.400 345.020,144.400 344.800 C 144.400 344.580,145.120 344.400,146.000 344.400 C 146.880 344.400,147.600 344.220,147.600 344.000 C 147.600 343.780,148.320 343.600,149.200 343.600 C 150.080 343.600,150.800 343.420,150.800 343.200 C 150.800 342.980,151.340 342.800,152.000 342.800 C 152.660 342.800,153.200 342.620,153.200 342.400 C 153.200 342.180,153.740 342.000,154.400 342.000 C 155.060 342.000,155.600 341.820,155.600 341.600 C 155.600 341.380,156.140 341.200,156.800 341.200 C 157.460 341.200,158.000 341.020,158.000 340.800 C 158.000 340.580,158.540 340.400,159.200 340.400 C 159.860 340.400,160.400 340.220,160.400 340.000 C 160.400 339.780,160.760 339.600,161.200 339.600 C 161.640 339.600,162.000 339.420,162.000 339.200 C 162.000 338.980,162.540 338.800,163.200 338.800 C 163.860 338.800,164.400 338.620,164.400 338.400 C 164.400 338.180,164.760 338.000,165.200 338.000 C 165.640 338.000,166.000 337.820,166.000 337.600 C 166.000 337.380,166.540 337.200,167.200 337.200 C 167.860 337.200,168.400 337.020,168.400 336.800 C 168.400 336.580,168.760 336.400,169.200 336.400 C 169.640 336.400,170.000 336.220,170.000 336.000 C 170.000 335.780,170.360 335.600,170.800 335.600 C 171.240 335.600,171.600 335.420,171.600 335.200 C 171.600 334.980,172.140 334.800,172.800 334.800 C 173.460 334.800,174.000 334.620,174.000 334.400 C 174.000 334.180,174.360 334.000,174.800 334.000 C 175.240 334.000,175.600 333.820,175.600 333.600 C 175.600 333.380,175.960 333.200,176.400 333.200 C 176.840 333.200,177.200 333.020,177.200 332.800 C 177.200 332.580,177.560 332.400,178.000 332.400 C 178.440 332.400,178.800 332.220,178.800 332.000 C 178.800 331.780,179.160 331.600,179.600 331.600 C 180.040 331.600,180.400 331.420,180.400 331.200 C 180.400 330.980,180.760 330.800,181.200 330.800 C 181.640 330.800,182.000 330.620,182.000 330.400 C 182.000 330.180,182.360 330.000,182.800 330.000 C 183.240 330.000,183.600 329.820,183.600 329.600 C 183.600 329.380,183.960 329.200,184.400 329.200 C 184.840 329.200,185.200 329.020,185.200 328.800 C 185.200 328.580,185.560 328.400,186.000 328.400 C 186.440 328.400,186.800 328.220,186.800 328.000 C 186.800 327.780,187.160 327.600,187.600 327.600 C 188.040 327.600,188.400 327.420,188.400 327.200 C 188.400 326.980,188.940 326.800,189.600 326.800 C 190.260 326.800,190.800 326.620,190.800 326.400 C 190.800 326.180,191.160 326.000,191.600 326.000 C 192.040 326.000,192.400 325.820,192.400 325.600 C 192.400 325.380,192.760 325.200,193.200 325.200 C 193.640 325.200,194.000 325.020,194.000 324.800 C 194.000 324.580,194.360 324.400,194.800 324.400 C 195.240 324.400,195.600 324.220,195.600 324.000 C 195.600 323.780,195.960 323.600,196.400 323.600 C 196.840 323.600,197.200 323.420,197.200 323.200 C 197.200 322.980,197.560 322.800,198.000 322.800 C 198.440 322.800,198.800 322.620,198.800 322.400 C 198.800 322.180,199.160 322.000,199.600 322.000 C 200.040 322.000,200.400 321.820,200.400 321.600 C 200.400 321.380,200.760 321.200,201.200 321.200 C 201.640 321.200,202.000 321.020,202.000 320.800 C 202.000 320.580,202.360 320.400,202.800 320.400 C 203.240 320.400,203.600 320.220,203.600 320.000 C 203.600 319.780,203.960 319.600,204.400 319.600 C 204.840 319.600,205.200 319.420,205.200 319.200 C 205.200 318.980,205.560 318.800,206.000 318.800 C 206.440 318.800,206.800 318.620,206.800 318.400 C 206.800 318.180,207.160 318.000,207.600 318.000 C 208.040 318.000,208.400 317.820,208.400 317.600 C 208.400 317.380,208.760 317.200,209.200 317.200 C 209.640 317.200,210.000 317.020,210.000 316.800 C 210.000 316.580,210.360 316.400,210.800 316.400 C 211.240 316.400,211.600 316.220,211.600 316.000 C 211.600 315.780,211.960 315.600,212.400 315.600 C 212.840 315.600,213.200 315.420,213.200 315.200 C 213.200 314.980,213.740 314.800,214.400 314.800 C 215.060 314.800,215.600 314.620,215.600 314.400 C 215.600 314.180,215.960 314.000,216.400 314.000 C 216.840 314.000,217.200 313.820,217.200 313.600 C 217.200 313.380,217.560 313.200,218.000 313.200 C 218.440 313.200,218.800 313.020,218.800 312.800 C 218.800 312.580,219.340 312.400,220.000 312.400 C 220.660 312.400,221.200 312.220,221.200 312.000 C 221.200 311.780,221.560 311.600,222.000 311.600 C 222.440 311.600,222.800 311.420,222.800 311.200 C 222.800 310.980,223.160 310.800,223.600 310.800 C 224.040 310.800,224.400 310.620,224.400 310.400 C 224.400 310.180,224.940 310.000,225.600 310.000 C 226.260 310.000,226.800 309.820,226.800 309.600 C 226.800 309.380,227.340 309.200,228.000 309.200 C 228.660 309.200,229.200 309.020,229.200 308.800 C 229.200 308.580,229.740 308.400,230.400 308.400 C 231.060 308.400,231.600 308.220,231.600 308.000 C 231.600 307.780,232.140 307.600,232.800 307.600 C 233.460 307.600,234.000 307.420,234.000 307.200 C 234.000 306.980,234.540 306.800,235.200 306.800 C 235.860 306.800,236.400 306.620,236.400 306.400 C 236.400 306.180,236.940 306.000,237.600 306.000 C 238.260 306.000,238.800 305.820,238.800 305.600 C 238.800 305.380,239.520 305.200,240.400 305.200 C 241.280 305.200,242.000 305.020,242.000 304.800 C 242.000 304.580,242.720 304.400,243.600 304.400 C 244.480 304.400,245.200 304.220,245.200 304.000 C 245.200 303.780,246.100 303.600,247.200 303.600 C 248.300 303.600,249.200 303.420,249.200 303.200 C 249.200 302.978,250.267 302.800,251.600 302.800 C 252.933 302.800,254.000 302.622,254.000 302.400 C 254.000 302.171,255.200 302.000,256.800 302.000 C 258.400 302.000,259.600 301.829,259.600 301.600 C 259.600 301.371,260.800 301.200,262.400 301.200 C 264.000 301.200,265.200 301.029,265.200 300.800 C 265.200 300.578,266.267 300.400,267.600 300.400 C 268.933 300.400,270.000 300.222,270.000 300.000 C 270.000 299.778,271.067 299.600,272.400 299.600 C 273.733 299.600,274.800 299.422,274.800 299.200 C 274.800 298.980,275.700 298.800,276.800 298.800 C 277.900 298.800,278.800 298.620,278.800 298.400 C 278.800 298.180,279.520 298.000,280.400 298.000 C 281.280 298.000,282.000 297.820,282.000 297.600 C 282.000 297.380,282.540 297.200,283.200 297.200 C 283.860 297.200,284.400 297.020,284.400 296.800 C 284.400 296.580,285.120 296.400,286.000 296.400 C 286.880 296.400,287.600 296.220,287.600 296.000 C 287.600 295.780,288.140 295.600,288.800 295.600 C 289.460 295.600,290.000 295.420,290.000 295.200 C 290.000 294.980,290.360 294.800,290.800 294.800 C 291.240 294.800,291.600 294.620,291.600 294.400 C 291.600 294.180,291.960 294.000,292.400 294.000 C 292.840 294.000,293.200 293.820,293.200 293.600 C 293.200 293.380,293.740 293.200,294.400 293.200 C 295.060 293.200,295.600 293.020,295.600 292.800 C 295.600 292.580,295.960 292.400,296.400 292.400 C 296.840 292.400,297.200 292.220,297.200 292.000 C 297.200 291.780,297.520 291.600,297.912 291.600 C 298.303 291.600,298.883 291.240,299.200 290.800 C 299.517 290.360,300.057 290.000,300.400 290.000 C 300.743 290.000,301.283 289.640,301.600 289.200 C 301.917 288.760,302.457 288.400,302.800 288.400 C 303.143 288.400,303.683 288.040,304.000 287.600 C 304.317 287.160,304.809 286.800,305.092 286.800 C 305.765 286.800,315.600 276.965,315.600 276.292 C 315.600 276.009,315.960 275.517,316.400 275.200 C 316.840 274.883,317.200 274.343,317.200 274.000 C 317.200 273.657,317.560 273.117,318.000 272.800 C 318.440 272.483,318.800 271.903,318.800 271.512 C 318.800 271.120,318.980 270.800,319.200 270.800 C 319.420 270.800,319.600 270.440,319.600 270.000 C 319.600 269.560,319.780 269.200,320.000 269.200 C 320.220 269.200,320.400 268.840,320.400 268.400 C 320.400 267.960,320.580 267.600,320.800 267.600 C 321.020 267.600,321.200 267.240,321.200 266.800 C 321.200 266.360,321.380 266.000,321.600 266.000 C 321.820 266.000,322.000 265.640,322.000 265.200 C 322.000 264.760,322.180 264.400,322.400 264.400 C 322.620 264.400,322.800 263.860,322.800 263.200 C 322.800 262.540,322.980 262.000,323.200 262.000 C 323.420 262.000,323.600 261.460,323.600 260.800 C 323.600 260.140,323.780 259.600,324.000 259.600 C 324.220 259.600,324.400 258.880,324.400 258.000 C 324.400 257.120,324.580 256.400,324.800 256.400 C 325.020 256.400,325.200 255.500,325.200 254.400 C 325.200 253.300,325.380 252.400,325.600 252.400 C 325.854 252.400,326.000 249.333,326.000 244.000 C 326.000 238.667,325.854 235.600,325.600 235.600 C 325.378 235.600,325.200 234.533,325.200 233.200 C 325.200 231.867,325.022 230.800,324.800 230.800 C 324.580 230.800,324.400 230.260,324.400 229.600 C 324.400 228.940,324.220 228.400,324.000 228.400 C 323.780 228.400,323.600 227.680,323.600 226.800 C 323.600 225.920,323.420 225.200,323.200 225.200 C 322.980 225.200,322.800 224.840,322.800 224.400 C 322.800 223.960,322.620 223.600,322.400 223.600 C 322.180 223.600,322.000 223.060,322.000 222.400 C 322.000 221.740,321.820 221.200,321.600 221.200 C 321.380 221.200,321.200 220.840,321.200 220.400 C 321.200 219.960,321.020 219.600,320.800 219.600 C 320.580 219.600,320.400 219.240,320.400 218.800 C 320.400 218.360,320.220 218.000,320.000 218.000 C 319.780 218.000,319.600 217.640,319.600 217.200 C 319.600 216.760,319.420 216.400,319.200 216.400 C 318.980 216.400,318.800 215.860,318.800 215.200 C 318.800 214.540,318.980 214.000,319.200 214.000 C 319.420 214.000,319.600 213.640,319.600 213.200 C 319.600 212.760,319.780 212.400,320.000 212.400 C 320.220 212.400,320.400 212.040,320.400 211.600 C 320.400 211.160,320.580 210.800,320.800 210.800 C 321.020 210.800,321.200 210.260,321.200 209.600 C 321.200 208.940,321.380 208.400,321.600 208.400 C 321.820 208.400,322.000 207.680,322.000 206.800 C 322.000 205.920,322.180 205.200,322.400 205.200 C 322.653 205.200,322.800 202.400,322.800 197.600 C 322.800 192.800,322.653 190.000,322.400 190.000 C 322.180 190.000,322.000 189.280,322.000 188.400 C 322.000 187.520,321.820 186.800,321.600 186.800 C 321.380 186.800,321.200 186.260,321.200 185.600 C 321.200 184.940,321.020 184.400,320.800 184.400 C 320.580 184.400,320.400 184.040,320.400 183.600 C 320.400 183.160,320.220 182.800,320.000 182.800 C 319.780 182.800,319.600 182.440,319.600 182.000 C 319.600 181.560,319.420 181.200,319.200 181.200 C 318.980 181.200,318.800 180.880,318.800 180.488 C 318.800 180.097,318.440 179.517,318.000 179.200 C 317.560 178.883,317.200 178.375,317.200 178.072 C 317.200 177.769,316.660 177.017,316.000 176.400 C 315.340 175.783,314.800 175.075,314.800 174.826 C 314.800 174.237,312.163 171.600,311.574 171.600 C 311.325 171.600,310.617 171.060,310.000 170.400 C 309.383 169.740,308.631 169.200,308.328 169.200 C 308.025 169.200,307.517 168.840,307.200 168.400 C 306.883 167.960,306.303 167.600,305.912 167.600 C 305.520 167.600,305.200 167.420,305.200 167.200 C 305.200 166.980,304.840 166.800,304.400 166.800 C 303.960 166.800,303.600 166.620,303.600 166.400 C 303.600 166.180,303.240 166.000,302.800 166.000 C 302.360 166.000,302.000 165.820,302.000 165.600 C 302.000 165.380,301.460 165.200,300.800 165.200 C 300.140 165.200,299.600 165.020,299.600 164.800 C 299.600 164.580,298.880 164.400,298.000 164.400 L 296.400 164.400 296.400 162.800 C 296.400 161.920,296.580 161.200,296.800 161.200 C 297.020 161.200,297.200 160.840,297.200 160.400 C 297.200 159.960,297.380 159.600,297.600 159.600 C 297.820 159.600,298.000 159.060,298.000 158.400 C 298.000 157.740,298.180 157.200,298.400 157.200 C 298.620 157.200,298.800 156.660,298.800 156.000 C 298.800 155.340,298.980 154.800,299.200 154.800 C 299.420 154.800,299.600 154.260,299.600 153.600 C 299.600 152.940,299.780 152.400,300.000 152.400 C 300.220 152.400,300.400 151.860,300.400 151.200 C 300.400 150.540,300.580 150.000,300.800 150.000 C 301.020 150.000,301.200 149.460,301.200 148.800 C 301.200 148.140,301.380 147.600,301.600 147.600 C 301.820 147.600,302.000 147.060,302.000 146.400 C 302.000 145.740,302.180 145.200,302.400 145.200 C 302.620 145.200,302.800 144.660,302.800 144.000 C 302.800 143.340,302.980 142.800,303.200 142.800 C 303.420 142.800,303.600 142.260,303.600 141.600 C 303.600 140.940,303.780 140.400,304.000 140.400 C 304.220 140.400,304.400 139.860,304.400 139.200 C 304.400 138.540,304.580 138.000,304.800 138.000 C 305.020 138.000,305.200 137.460,305.200 136.800 C 305.200 136.140,305.380 135.600,305.600 135.600 C 305.820 135.600,306.000 135.060,306.000 134.400 C 306.000 133.740,306.180 133.200,306.400 133.200 C 306.620 133.200,306.800 132.660,306.800 132.000 C 306.800 131.340,306.980 130.800,307.200 130.800 C 307.420 130.800,307.600 130.260,307.600 129.600 C 307.600 128.940,307.780 128.400,308.000 128.400 C 308.220 128.400,308.400 127.860,308.400 127.200 C 308.400 126.540,308.580 126.000,308.800 126.000 C 309.020 126.000,309.200 125.460,309.200 124.800 C 309.200 124.140,309.380 123.600,309.600 123.600 C 309.820 123.600,310.000 123.060,310.000 122.400 C 310.000 121.740,310.180 121.200,310.400 121.200 C 310.620 121.200,310.800 120.660,310.800 120.000 C 310.800 119.340,310.980 118.800,311.200 118.800 C 311.420 118.800,311.600 118.260,311.600 117.600 C 311.600 116.940,311.780 116.400,312.000 116.400 C 312.220 116.400,312.400 115.860,312.400 115.200 C 312.400 114.540,312.580 114.000,312.800 114.000 C 313.020 114.000,313.200 113.640,313.200 113.200 C 313.200 112.760,313.380 112.400,313.600 112.400 C 313.820 112.400,314.000 111.860,314.000 111.200 C 314.000 110.540,314.180 110.000,314.400 110.000 C 314.620 110.000,314.800 109.460,314.800 108.800 C 314.800 108.140,314.980 107.600,315.200 107.600 C 315.420 107.600,315.600 107.060,315.600 106.400 C 315.600 105.740,315.780 105.200,316.000 105.200 C 316.220 105.200,316.400 104.660,316.400 104.000 C 316.400 103.340,316.580 102.800,316.800 102.800 C 317.020 102.800,317.200 102.260,317.200 101.600 C 317.200 100.940,317.380 100.400,317.600 100.400 C 317.820 100.400,318.000 99.860,318.000 99.200 C 318.000 98.540,318.180 98.000,318.400 98.000 C 318.620 98.000,318.800 97.460,318.800 96.800 C 318.800 96.140,318.980 95.600,319.200 95.600 C 319.420 95.600,319.600 95.060,319.600 94.400 C 319.600 93.740,319.780 93.200,320.000 93.200 C 320.220 93.200,320.400 92.660,320.400 92.000 C 320.400 91.340,320.580 90.800,320.800 90.800 C 321.020 90.800,321.200 90.260,321.200 89.600 C 321.200 88.940,321.380 88.400,321.600 88.400 C 321.820 88.400,322.000 87.860,322.000 87.200 C 322.000 86.540,322.180 86.000,322.400 86.000 C 322.620 86.000,322.800 85.460,322.800 84.800 C 322.800 84.140,322.980 83.600,323.200 83.600 C 323.420 83.600,323.600 83.060,323.600 82.400 C 323.600 81.740,323.780 81.200,324.000 81.200 C 324.220 81.200,324.400 80.660,324.400 80.000 C 324.400 79.340,324.580 78.800,324.800 78.800 C 325.020 78.800,325.200 78.260,325.200 77.600 C 325.200 76.940,325.380 76.400,325.600 76.400 C 325.820 76.400,326.000 75.860,326.000 75.200 C 326.000 74.540,326.180 74.000,326.400 74.000 C 326.620 74.000,326.800 73.460,326.800 72.800 C 326.800 72.140,326.980 71.600,327.200 71.600 C 327.420 71.600,327.600 71.060,327.600 70.400 C 327.600 69.740,327.780 69.200,328.000 69.200 C 328.220 69.200,328.400 68.660,328.400 68.000 C 328.400 67.340,328.580 66.800,328.800 66.800 C 329.020 66.800,329.200 66.440,329.200 66.000 C 329.200 65.560,329.380 65.200,329.600 65.200 C 329.820 65.200,330.000 64.660,330.000 64.000 C 330.000 63.340,330.180 62.800,330.400 62.800 C 330.620 62.800,330.800 62.260,330.800 61.600 C 330.800 60.940,330.980 60.400,331.200 60.400 C 331.420 60.400,331.600 59.860,331.600 59.200 C 331.600 58.540,331.780 58.000,332.000 58.000 C 332.220 58.000,332.400 57.460,332.400 56.800 C 332.400 56.140,332.580 55.600,332.800 55.600 C 333.020 55.600,333.200 55.060,333.200 54.400 L 333.200 53.200 243.600 53.200 L 154.000 53.200 154.000 54.400 M313.594 67.700 C 313.591 67.975,313.302 69.010,312.951 70.000 C 312.219 72.068,300.315 107.101,298.000 114.000 C 297.151 116.530,293.550 127.150,289.999 137.600 C 286.447 148.050,283.018 158.180,282.379 160.111 C 280.734 165.078,279.851 166.000,276.732 166.000 C 276.378 166.000,274.216 162.044,271.102 155.700 C 261.181 135.488,252.641 118.064,248.359 109.300 C 245.967 104.405,243.871 100.400,243.701 100.400 C 243.531 100.400,240.256 106.745,236.422 114.500 C 213.702 160.459,211.102 165.600,210.574 165.600 C 210.265 165.600,209.206 165.385,208.222 165.121 C 206.184 164.576,206.448 165.053,203.839 157.200 C 202.852 154.230,199.142 143.250,195.594 132.800 C 192.046 122.350,188.449 111.730,187.600 109.200 C 186.752 106.670,183.254 96.337,179.829 86.238 C 176.403 76.139,173.600 67.724,173.600 67.538 C 173.600 67.352,205.100 67.200,243.600 67.200 C 299.336 67.200,313.599 67.302,313.594 67.700 M244.400 133.200 C 244.400 133.640,244.580 134.000,244.800 134.000 C 245.020 134.000,245.200 134.360,245.200 134.800 C 245.200 135.240,245.380 135.600,245.600 135.600 C 245.820 135.600,246.000 135.960,246.000 136.400 C 246.000 136.840,246.180 137.200,246.400 137.200 C 246.620 137.200,246.800 137.740,246.800 138.400 C 246.800 139.060,246.980 139.600,247.200 139.600 C 247.420 139.600,247.600 139.960,247.600 140.400 C 247.600 140.840,247.780 141.200,248.000 141.200 C 248.220 141.200,248.400 141.560,248.400 142.000 C 248.400 142.440,248.580 142.800,248.800 142.800 C 249.020 142.800,249.200 143.160,249.200 143.600 C 249.200 144.040,249.380 144.400,249.600 144.400 C 249.820 144.400,250.000 144.760,250.000 145.200 C 250.000 145.640,250.180 146.000,250.400 146.000 C 250.620 146.000,250.800 146.360,250.800 146.800 C 250.800 147.240,250.980 147.600,251.200 147.600 C 251.420 147.600,251.600 147.960,251.600 148.400 C 251.600 148.840,251.780 149.200,252.000 149.200 C 252.220 149.200,252.400 149.560,252.400 150.000 C 252.400 150.440,252.580 150.800,252.800 150.800 C 253.020 150.800,253.200 151.160,253.200 151.600 C 253.200 152.040,253.380 152.400,253.600 152.400 C 253.820 152.400,254.000 152.760,254.000 153.200 C 254.000 153.640,254.180 154.000,254.400 154.000 C 254.620 154.000,254.800 154.360,254.800 154.800 C 254.800 155.240,254.980 155.600,255.200 155.600 C 255.420 155.600,255.600 155.960,255.600 156.400 C 255.600 156.840,255.780 157.200,256.000 157.200 C 256.220 157.200,256.400 157.560,256.400 158.000 C 256.400 158.440,256.580 158.800,256.800 158.800 C 257.020 158.800,257.200 159.160,257.200 159.600 C 257.200 160.040,257.380 160.400,257.600 160.400 C 257.820 160.400,258.000 160.760,258.000 161.200 C 258.000 161.640,258.180 162.000,258.400 162.000 C 258.620 162.000,258.800 162.360,258.800 162.800 C 258.800 163.240,258.980 163.600,259.200 163.600 C 259.420 163.600,259.600 163.960,259.600 164.400 C 259.600 164.840,259.780 165.200,260.000 165.200 C 260.220 165.200,260.400 165.560,260.400 166.000 C 260.400 166.440,260.580 166.800,260.800 166.800 C 261.020 166.800,261.200 167.160,261.200 167.600 C 261.200 168.040,261.380 168.400,261.600 168.400 C 261.820 168.400,262.000 168.760,262.000 169.200 C 262.000 169.640,262.180 170.000,262.400 170.000 C 262.620 170.000,262.800 170.360,262.800 170.800 C 262.800 171.240,262.980 171.600,263.200 171.600 C 264.347 171.600,263.479 173.770,261.600 175.600 C 260.500 176.671,259.600 177.830,259.600 178.174 C 259.600 178.518,259.420 178.800,259.200 178.800 C 258.980 178.800,258.800 179.120,258.800 179.512 C 258.800 179.903,258.440 180.483,258.000 180.800 C 257.560 181.117,257.200 181.697,257.200 182.088 C 257.200 182.480,257.020 182.800,256.800 182.800 C 256.580 182.800,256.400 183.340,256.400 184.000 C 256.400 184.660,256.220 185.200,256.000 185.200 C 255.780 185.200,255.600 185.740,255.600 186.400 C 255.600 187.060,255.420 187.600,255.200 187.600 C 254.980 187.600,254.800 188.320,254.800 189.200 C 254.800 190.080,254.607 190.800,254.372 190.800 C 253.804 190.800,254.121 196.651,254.946 201.400 C 255.996 207.441,256.662 209.531,258.801 213.497 C 267.621 229.848,287.238 236.007,303.756 227.610 C 308.375 225.261,308.141 225.167,309.753 230.018 C 318.505 256.363,302.963 279.561,272.800 285.177 C 271.370 285.443,269.390 285.812,268.400 285.996 C 267.410 286.181,265.250 286.534,263.600 286.781 C 261.950 287.028,259.520 287.396,258.200 287.599 C 256.880 287.803,254.450 288.168,252.800 288.411 C 232.239 291.441,220.366 295.767,185.600 312.901 C 157.609 326.695,148.733 330.068,134.354 332.375 C 130.895 332.930,121.840 332.920,119.131 332.358 C 110.232 330.512,106.474 329.037,100.000 324.850 C 84.596 314.887,78.176 295.976,82.058 272.000 C 83.582 262.592,86.505 254.222,93.094 240.400 C 94.300 237.870,95.913 234.484,96.677 232.875 C 98.306 229.447,98.569 229.292,101.317 230.155 C 102.463 230.515,104.210 230.950,105.200 231.121 C 107.304 231.486,107.290 231.406,106.263 237.000 C 103.202 253.684,113.207 272.150,129.687 280.232 L 131.822 281.280 135.811 279.813 C 158.212 271.575,178.009 255.513,193.726 232.825 L 194.852 231.200 200.006 231.200 C 217.699 231.200,232.035 218.037,233.479 200.464 C 233.637 198.552,233.909 197.456,234.260 197.321 C 234.888 197.081,235.017 194.000,234.400 194.000 C 234.178 194.000,234.000 192.933,234.000 191.600 C 234.000 190.267,233.822 189.200,233.600 189.200 C 233.380 189.200,233.200 188.480,233.200 187.600 C 233.200 186.720,233.020 186.000,232.800 186.000 C 232.580 186.000,232.400 185.640,232.400 185.200 C 232.400 184.760,232.220 184.400,232.000 184.400 C 231.780 184.400,231.600 183.860,231.600 183.200 C 231.600 182.540,231.420 182.000,231.200 182.000 C 230.980 182.000,230.800 181.680,230.800 181.288 C 230.800 180.897,230.440 180.317,230.000 180.000 C 229.560 179.683,229.200 179.143,229.200 178.800 C 229.200 178.457,228.840 177.917,228.400 177.600 C 227.960 177.283,227.600 176.781,227.600 176.486 C 227.600 176.190,226.657 175.029,225.504 173.906 C 224.273 172.708,223.612 171.796,223.904 171.699 C 224.177 171.608,224.400 171.188,224.400 170.767 C 224.400 170.345,224.580 170.000,224.800 170.000 C 225.020 170.000,225.200 169.640,225.200 169.200 C 225.200 168.760,225.380 168.400,225.600 168.400 C 225.820 168.400,226.000 168.040,226.000 167.600 C 226.000 167.160,226.180 166.800,226.400 166.800 C 226.620 166.800,226.800 166.440,226.800 166.000 C 226.800 165.560,226.980 165.200,227.200 165.200 C 227.420 165.200,227.600 164.840,227.600 164.400 C 227.600 163.960,227.780 163.600,228.000 163.600 C 228.220 163.600,228.400 163.240,228.400 162.800 C 228.400 162.360,228.580 162.000,228.800 162.000 C 229.020 162.000,229.200 161.640,229.200 161.200 C 229.200 160.760,229.380 160.400,229.600 160.400 C 229.820 160.400,230.000 160.040,230.000 159.600 C 230.000 159.160,230.180 158.800,230.400 158.800 C 230.620 158.800,230.800 158.440,230.800 158.000 C 230.800 157.560,230.980 157.200,231.200 157.200 C 231.420 157.200,231.600 156.840,231.600 156.400 C 231.600 155.960,231.780 155.600,232.000 155.600 C 232.220 155.600,232.400 155.240,232.400 154.800 C 232.400 154.360,232.580 154.000,232.800 154.000 C 233.020 154.000,233.200 153.640,233.200 153.200 C 233.200 152.760,233.380 152.400,233.600 152.400 C 233.820 152.400,234.000 152.040,234.000 151.600 C 234.000 151.160,234.180 150.800,234.400 150.800 C 234.620 150.800,234.800 150.440,234.800 150.000 C 234.800 149.560,234.980 149.200,235.200 149.200 C 235.420 149.200,235.600 148.840,235.600 148.400 C 235.600 147.960,235.780 147.600,236.000 147.600 C 236.220 147.600,236.400 147.240,236.400 146.800 C 236.400 146.360,236.580 146.000,236.800 146.000 C 237.020 146.000,237.200 145.640,237.200 145.200 C 237.200 144.760,237.380 144.400,237.600 144.400 C 237.820 144.400,238.000 144.040,238.000 143.600 C 238.000 143.160,238.180 142.800,238.400 142.800 C 238.620 142.800,238.800 142.440,238.800 142.000 C 238.800 141.560,238.980 141.200,239.200 141.200 C 239.420 141.200,239.600 140.840,239.600 140.400 C 239.600 139.960,239.780 139.600,240.000 139.600 C 240.220 139.600,240.400 139.240,240.400 138.800 C 240.400 138.360,240.580 138.000,240.800 138.000 C 241.020 138.000,241.200 137.640,241.200 137.200 C 241.200 136.760,241.380 136.400,241.600 136.400 C 241.820 136.400,242.000 136.040,242.000 135.600 C 242.000 135.160,242.180 134.800,242.400 134.800 C 242.620 134.800,242.800 134.522,242.800 134.183 C 242.800 133.527,243.599 132.441,244.100 132.415 C 244.265 132.407,244.400 132.760,244.400 133.200 M207.200 178.441 C 225.965 186.213,224.606 212.143,205.138 217.749 C 190.676 221.913,176.240 207.901,179.772 193.126 C 182.618 181.222,196.268 173.914,207.200 178.441 M292.845 177.602 C 306.710 180.190,313.601 197.350,305.555 209.256 C 294.112 226.188,268.000 218.099,268.000 197.622 C 268.000 184.391,279.513 175.114,292.845 177.602 M117.885 178.457 C 139.658 186.515,134.055 218.461,110.882 218.386 C 87.806 218.312,82.599 186.655,104.305 178.397 C 107.231 177.284,114.807 177.317,117.885 178.457 " stroke="none" fill="#fbfbfa" fill-rule="evenodd"></path><path id="path1" d="M174.800 68.556 C 174.800 68.862,178.381 79.707,182.759 92.656 C 187.136 105.605,194.334 126.899,198.754 139.976 C 203.175 153.052,206.928 163.872,207.096 164.020 C 207.263 164.168,208.140 164.469,209.044 164.688 L 210.688 165.087 226.644 132.758 C 244.152 97.285,243.365 98.775,244.149 99.618 C 244.447 99.938,251.852 114.825,260.606 132.700 C 272.394 156.773,276.697 165.200,277.201 165.200 C 280.075 165.200,279.570 166.304,287.683 142.292 C 302.728 97.763,310.335 75.319,311.528 71.941 C 312.199 70.038,312.640 68.373,312.508 68.241 C 311.933 67.667,174.800 67.980,174.800 68.556 M105.600 178.753 C 90.487 183.630,86.143 201.810,97.543 212.474 C 110.421 224.521,130.800 215.541,130.800 197.820 C 130.800 184.646,117.806 174.814,105.600 178.753 M193.727 178.742 C 171.809 186.433,177.815 218.574,200.972 217.514 C 215.727 216.838,224.463 201.049,217.332 187.946 C 213.152 180.266,201.894 175.877,193.727 178.742 M282.372 178.756 C 268.519 183.189,263.993 200.638,273.937 211.270 C 284.467 222.526,303.199 218.158,307.564 203.429 C 312.066 188.240,297.455 173.930,282.372 178.756 M234.612 197.700 C 234.523 197.975,234.247 199.820,233.999 201.800 C 231.779 219.524,217.416 232.000,199.229 232.000 L 194.929 232.000 193.321 234.500 C 180.295 254.747,156.158 273.736,133.929 281.224 L 131.533 282.031 128.866 280.563 C 111.363 270.925,102.109 252.895,105.791 235.605 C 106.477 232.384,106.197 231.600,104.359 231.600 C 103.981 231.600,102.576 231.259,101.237 230.842 L 98.802 230.085 96.945 233.942 C 91.677 244.886,90.160 248.205,88.415 252.600 C 72.627 292.366,85.215 325.695,118.200 331.458 C 134.531 334.311,149.072 330.069,187.570 311.220 C 223.994 293.386,231.844 290.722,260.032 286.630 C 274.961 284.463,281.022 282.952,288.277 279.592 C 307.986 270.462,316.744 247.817,308.251 227.949 L 307.631 226.499 303.839 228.401 C 282.057 239.325,256.386 224.753,254.162 200.202 L 253.890 197.200 244.332 197.200 C 237.040 197.200,234.736 197.318,234.612 197.700 " stroke="none" fill="#c43c14" fill-rule="evenodd"></path><path id="path2" d="M174.406 68.500 C 174.409 68.995,174.589 69.670,174.806 70.000 C 175.085 70.426,175.127 70.223,174.949 69.298 L 174.699 67.995 243.750 68.098 C 281.727 68.154,312.800 68.065,312.800 67.900 C 312.800 67.735,281.660 67.600,243.600 67.600 L 174.400 67.600 174.406 68.500 M181.616 90.254 C 181.607 90.504,181.863 91.314,182.184 92.054 C 182.506 92.794,182.776 93.196,182.784 92.946 C 182.793 92.696,182.537 91.886,182.216 91.146 C 181.894 90.406,181.624 90.004,181.616 90.254 M243.633 99.559 C 243.980 99.782,244.850 101.232,245.564 102.782 C 246.885 105.649,247.476 106.492,246.767 104.500 C 246.046 102.475,244.206 99.456,243.600 99.304 C 243.111 99.181,243.117 99.228,243.633 99.559 M240.573 104.454 C 238.418 108.752,237.323 111.210,237.760 110.774 C 238.134 110.400,243.186 100.000,242.993 100.000 C 242.891 100.000,241.801 102.004,240.573 104.454 M251.221 114.082 C 251.197 114.400,257.123 126.461,257.464 126.788 C 257.894 127.202,256.480 124.129,253.879 119.000 C 252.428 116.140,251.232 113.927,251.221 114.082 M295.077 120.277 C 294.700 121.293,294.458 122.191,294.538 122.272 C 294.619 122.352,295.000 121.593,295.385 120.585 C 295.770 119.576,296.012 118.679,295.923 118.590 C 295.835 118.501,295.454 119.260,295.077 120.277 M224.686 136.622 C 222.109 141.782,220.010 146.138,220.021 146.302 C 220.033 146.466,222.204 142.305,224.845 137.057 C 227.486 131.808,229.585 127.452,229.510 127.376 C 229.434 127.301,227.264 131.461,224.686 136.622 M261.621 135.279 C 261.597 135.601,266.715 146.053,267.058 146.382 C 267.477 146.786,266.131 143.830,263.879 139.400 C 262.648 136.980,261.632 135.126,261.621 135.279 M287.291 143.300 C 286.610 145.184,286.704 145.694,287.426 144.030 C 287.753 143.277,287.966 142.499,287.901 142.302 C 287.835 142.105,287.560 142.554,287.291 143.300 M271.223 154.906 C 271.125 156.200,276.493 165.595,277.303 165.546 C 278.123 165.496,278.130 165.477,277.385 165.329 C 276.798 165.212,275.823 163.684,273.908 159.883 C 272.444 156.977,271.236 154.738,271.223 154.906 M206.412 163.451 C 206.393 164.163,207.491 164.884,208.281 164.679 C 208.857 164.530,208.826 164.484,208.120 164.446 C 207.636 164.421,207.056 164.085,206.832 163.700 C 206.608 163.315,206.419 163.203,206.412 163.451 M108.200 177.799 C 108.420 177.873,110.220 178.012,112.200 178.108 C 114.180 178.203,115.350 178.146,114.800 177.980 C 113.848 177.694,107.365 177.516,108.200 177.799 M196.600 177.836 C 198.408 178.122,205.230 178.219,204.543 177.948 C 204.134 177.788,202.000 177.668,199.800 177.683 C 197.600 177.697,196.160 177.766,196.600 177.836 M283.915 177.928 C 283.538 178.078,285.556 178.200,288.400 178.200 C 291.244 178.200,293.262 178.078,292.885 177.928 C 292.508 177.779,290.490 177.656,288.400 177.656 C 286.310 177.656,284.292 177.779,283.915 177.928 M205.633 178.535 C 206.019 178.847,209.200 179.977,209.200 179.802 C 209.200 179.563,206.451 178.400,205.884 178.400 C 205.655 178.400,205.542 178.461,205.633 178.535 M101.900 179.829 C 100.349 180.670,100.525 180.961,102.100 180.159 C 103.608 179.393,103.875 179.194,103.367 179.216 C 103.165 179.225,102.505 179.501,101.900 179.829 M189.181 180.590 C 186.339 182.401,186.825 182.409,189.828 180.600 C 191.107 179.830,191.975 179.200,191.758 179.200 C 191.541 179.200,190.381 179.825,189.181 180.590 M296.433 179.349 C 296.845 179.717,299.200 180.800,299.200 180.621 C 299.200 180.390,296.982 179.200,296.553 179.200 C 296.396 179.200,296.342 179.267,296.433 179.349 M120.410 180.126 C 121.009 180.774,123.695 182.397,123.218 181.822 C 122.910 181.451,122.105 180.866,121.429 180.523 C 120.753 180.179,120.295 180.001,120.410 180.126 M98.901 181.700 C 98.193 182.195,97.611 182.766,97.607 182.970 C 97.603 183.173,98.095 182.906,98.700 182.376 C 99.305 181.846,99.971 181.274,100.180 181.106 C 101.013 180.435,100.111 180.854,98.901 181.700 M212.968 182.835 C 214.271 184.026,215.846 185.702,216.468 186.560 C 217.091 187.418,217.600 187.916,217.600 187.668 C 217.600 187.087,212.523 181.693,211.429 181.111 C 210.973 180.868,211.666 181.644,212.968 182.835 M299.600 180.890 C 299.600 180.977,300.635 181.928,301.900 183.003 C 303.165 184.079,303.840 184.544,303.400 184.036 C 302.564 183.071,299.600 180.617,299.600 180.890 M275.000 182.716 C 274.340 183.312,273.350 184.340,272.801 185.000 C 272.252 185.660,272.835 185.210,274.099 184.000 C 275.362 182.790,276.396 181.755,276.398 181.700 C 276.402 181.491,276.165 181.664,275.000 182.716 M125.797 184.500 C 126.872 185.765,127.823 186.800,127.910 186.800 C 128.183 186.800,125.729 183.836,124.764 183.000 C 124.256 182.560,124.721 183.235,125.797 184.500 M185.358 183.700 C 184.131 185.029,182.697 186.922,183.463 186.200 C 184.317 185.395,186.888 182.400,186.725 182.400 C 186.633 182.400,186.017 182.985,185.358 183.700 M95.144 185.500 C 93.993 186.889,93.506 187.600,93.704 187.600 C 93.814 187.600,94.386 186.970,94.973 186.200 C 96.063 184.771,96.195 184.232,95.144 185.500 M304.974 186.600 C 306.367 188.652,306.652 188.895,305.877 187.371 C 305.534 186.695,304.949 185.890,304.578 185.582 C 304.207 185.274,304.385 185.732,304.974 186.600 M270.582 188.195 C 270.003 189.182,269.591 190.129,269.665 190.299 C 269.739 190.470,270.284 189.662,270.876 188.505 C 272.192 185.931,272.017 185.746,270.582 188.195 M128.678 188.595 C 129.044 189.362,129.414 189.919,129.501 189.832 C 129.684 189.649,128.470 187.200,128.196 187.200 C 128.095 187.200,128.312 187.828,128.678 188.595 M91.449 192.215 C 91.312 192.573,91.218 193.256,91.241 193.733 C 91.267 194.281,91.403 194.086,91.610 193.203 C 91.960 191.716,91.865 191.133,91.449 192.215 M180.200 192.800 C 180.048 193.491,180.007 194.141,180.109 194.242 C 180.211 194.344,180.409 193.853,180.550 193.150 C 180.883 191.483,180.560 191.160,180.200 192.800 M219.482 194.021 C 219.608 194.999,219.775 195.875,219.855 195.967 C 220.181 196.342,219.960 193.355,219.621 192.821 C 219.384 192.446,219.335 192.870,219.482 194.021 M130.600 198.026 C 130.600 200.858,130.722 202.865,130.872 202.487 C 131.242 201.552,131.260 193.914,130.894 193.340 C 130.732 193.086,130.600 195.195,130.600 198.026 M268.253 195.236 C 268.114 195.931,268.024 197.243,268.053 198.150 C 268.091 199.369,268.190 199.070,268.428 197.009 C 268.770 194.058,268.677 193.116,268.253 195.236 M308.537 197.800 C 308.539 199.560,308.609 200.230,308.693 199.289 C 308.778 198.349,308.777 196.909,308.691 196.089 C 308.605 195.270,308.536 196.040,308.537 197.800 M90.934 198.000 C 90.934 199.650,91.005 200.325,91.091 199.500 C 91.178 198.675,91.178 197.325,91.091 196.500 C 91.005 195.675,90.934 196.350,90.934 198.000 M179.724 197.800 C 179.726 199.120,179.801 199.612,179.890 198.893 C 179.979 198.174,179.977 197.094,179.886 196.493 C 179.795 195.892,179.722 196.480,179.724 197.800 M234.158 197.766 C 234.038 198.078,234.005 198.843,234.084 199.466 C 234.202 200.391,234.264 200.287,234.425 198.900 C 234.627 197.151,234.538 196.775,234.158 197.766 M254.101 199.400 C 254.105 200.280,254.187 200.593,254.283 200.095 C 254.379 199.598,254.375 198.878,254.275 198.495 C 254.175 198.113,254.096 198.520,254.101 199.400 M219.664 200.667 C 219.629 201.364,219.496 202.264,219.370 202.667 C 219.153 203.359,219.165 203.360,219.594 202.691 C 219.845 202.302,219.977 201.402,219.889 200.691 L 219.728 199.400 219.664 200.667 M180.006 201.633 C 180.009 202.165,180.189 202.870,180.406 203.200 C 180.682 203.622,180.723 203.385,180.542 202.400 C 180.225 200.675,179.998 200.349,180.006 201.633 M233.701 202.200 C 233.705 203.080,233.787 203.393,233.883 202.895 C 233.979 202.398,233.975 201.678,233.875 201.295 C 233.775 200.913,233.696 201.320,233.701 202.200 M91.206 202.233 C 91.209 202.655,91.395 203.270,91.618 203.600 C 91.915 204.038,91.952 203.876,91.756 203.000 C 91.427 201.529,91.198 201.210,91.206 202.233 M254.487 202.600 C 254.491 203.040,254.632 203.940,254.800 204.600 C 255.074 205.678,255.106 205.698,255.113 204.800 C 255.117 204.250,254.976 203.350,254.800 202.800 C 254.549 202.016,254.481 201.973,254.487 202.600 M180.832 204.304 C 180.792 204.936,182.372 208.335,182.840 208.625 C 183.030 208.742,182.762 207.975,182.242 206.919 C 181.723 205.864,181.200 204.730,181.081 204.400 C 180.946 204.029,180.851 203.992,180.832 204.304 M92.000 204.760 C 92.000 206.621,96.426 212.458,99.399 214.519 C 100.059 214.977,99.302 214.137,97.717 212.654 C 95.612 210.685,94.451 209.191,93.417 207.124 C 92.637 205.567,92.000 204.503,92.000 204.760 M233.000 205.600 C 232.848 206.291,232.807 206.941,232.909 207.042 C 233.011 207.144,233.209 206.653,233.350 205.950 C 233.683 204.283,233.360 203.960,233.000 205.600 M255.256 206.400 C 255.256 206.730,255.411 207.360,255.600 207.800 C 255.817 208.304,255.944 208.378,255.944 208.000 C 255.944 207.670,255.789 207.040,255.600 206.600 C 255.383 206.096,255.256 206.022,255.256 206.400 M127.837 208.845 C 127.440 209.517,126.100 211.084,124.858 212.329 C 123.478 213.711,123.132 214.194,123.968 213.569 C 125.437 212.472,129.049 208.115,128.743 207.810 C 128.641 207.708,128.233 208.174,127.837 208.845 M271.881 209.401 C 273.828 212.209,280.671 217.462,281.415 216.718 C 281.489 216.644,280.389 215.981,278.969 215.245 C 277.242 214.349,275.506 212.963,273.719 211.053 C 272.250 209.484,271.423 208.741,271.881 209.401 M303.683 210.702 C 302.140 212.766,302.113 212.837,303.417 211.400 C 304.720 209.965,305.816 208.397,305.514 208.402 C 305.451 208.402,304.627 209.437,303.683 210.702 M256.028 208.892 C 255.982 209.365,257.286 212.448,257.458 212.275 C 257.545 212.188,257.266 211.325,256.837 210.358 C 256.408 209.391,256.044 208.731,256.028 208.892 M183.634 209.800 C 184.550 211.194,186.159 212.846,187.400 213.668 C 188.449 214.363,188.423 214.307,187.200 213.224 C 186.430 212.543,185.194 211.314,184.454 210.493 C 183.714 209.672,183.345 209.360,183.634 209.800 M213.785 212.020 C 212.665 213.159,210.600 214.641,209.046 215.420 C 207.532 216.179,206.517 216.800,206.790 216.800 C 207.954 216.800,212.029 214.195,214.020 212.179 C 215.204 210.981,216.082 210.000,215.971 210.000 C 215.861 210.000,214.877 210.909,213.785 212.020 M230.865 211.817 C 230.195 213.288,230.323 213.602,231.047 212.265 C 231.386 211.640,231.588 211.054,231.496 210.963 C 231.405 210.871,231.121 211.256,230.865 211.817 M299.800 214.235 L 298.600 215.266 300.000 214.363 C 301.796 213.204,301.801 213.200,301.367 213.202 C 301.165 213.203,300.460 213.668,299.800 214.235 M229.508 214.500 C 228.633 215.849,227.848 217.456,228.287 217.000 C 228.848 216.417,230.498 213.600,230.279 213.600 C 230.176 213.600,229.829 214.005,229.508 214.500 M189.600 215.164 C 190.150 215.614,190.780 215.983,191.000 215.985 C 191.428 215.988,190.705 215.434,189.400 214.760 C 188.869 214.485,188.936 214.621,189.600 215.164 M259.067 215.606 C 259.459 216.270,260.198 217.305,260.710 217.906 C 261.221 218.508,260.975 217.965,260.163 216.700 C 258.624 214.303,257.828 213.507,259.067 215.606 M119.600 216.000 C 118.830 216.422,118.344 216.774,118.520 216.783 C 118.944 216.805,121.200 215.632,121.200 215.390 C 121.200 215.128,121.177 215.137,119.600 216.000 M102.400 216.233 C 102.400 216.532,105.366 217.627,105.869 217.514 C 106.147 217.451,105.480 217.102,104.387 216.739 C 103.294 216.375,102.400 216.147,102.400 216.233 M116.400 217.200 C 115.576 217.464,115.541 217.526,116.200 217.554 C 116.640 217.573,117.270 217.413,117.600 217.200 C 118.301 216.747,117.814 216.747,116.400 217.200 M194.000 217.182 C 194.330 217.405,194.945 217.591,195.367 217.594 C 196.390 217.602,196.071 217.373,194.600 217.044 C 193.724 216.848,193.562 216.885,194.000 217.182 M282.600 217.200 C 283.040 217.389,283.760 217.538,284.200 217.532 C 284.843 217.523,284.804 217.457,284.000 217.200 C 282.632 216.762,281.581 216.762,282.600 217.200 M293.200 217.200 C 292.376 217.464,292.341 217.526,293.000 217.554 C 293.440 217.573,294.070 217.413,294.400 217.200 C 295.101 216.747,294.614 216.747,293.200 217.200 M198.500 217.891 C 199.325 217.978,200.675 217.978,201.500 217.891 C 202.325 217.805,201.650 217.734,200.000 217.734 C 198.350 217.734,197.675 217.805,198.500 217.891 M287.111 217.893 C 288.051 217.978,289.491 217.977,290.311 217.891 C 291.130 217.805,290.360 217.736,288.600 217.737 C 286.840 217.739,286.170 217.809,287.111 217.893 M109.907 218.290 C 110.626 218.379,111.706 218.377,112.307 218.286 C 112.908 218.195,112.320 218.122,111.000 218.124 C 109.680 218.126,109.188 218.201,109.907 218.290 M264.000 221.800 C 265.417 223.230,266.687 224.400,266.822 224.400 C 266.956 224.400,265.897 223.230,264.467 221.800 C 263.037 220.370,261.767 219.200,261.645 219.200 C 261.523 219.200,262.583 220.370,264.000 221.800 M223.000 222.695 C 221.240 224.376,220.520 225.192,221.400 224.509 C 222.963 223.294,226.747 219.582,226.383 219.619 C 226.282 219.629,224.760 221.013,223.000 222.695 M303.800 228.037 C 302.260 228.883,301.140 229.580,301.311 229.587 C 301.644 229.601,305.797 227.509,306.800 226.823 C 308.155 225.896,306.416 226.600,303.800 228.037 M215.083 228.182 C 212.893 229.232,212.083 229.853,213.711 229.234 C 215.240 228.652,217.200 227.617,217.200 227.390 C 217.200 227.152,217.346 227.097,215.083 228.182 M271.892 227.776 C 272.885 228.508,275.600 229.716,275.600 229.424 C 275.600 229.321,274.745 228.833,273.700 228.339 C 271.035 227.079,270.886 227.033,271.892 227.776 M98.230 230.610 C 97.884 231.139,97.601 231.713,97.603 231.886 C 97.604 232.059,97.919 231.732,98.303 231.161 C 98.686 230.589,99.225 230.199,99.500 230.294 C 100.196 230.534,100.131 230.136,99.430 229.867 C 99.101 229.741,98.594 230.054,98.230 230.610 M208.200 230.800 C 207.696 231.017,207.622 231.144,208.000 231.144 C 208.330 231.144,208.960 230.989,209.400 230.800 C 209.904 230.583,209.978 230.456,209.600 230.456 C 209.270 230.456,208.640 230.611,208.200 230.800 M279.000 230.800 C 279.440 230.989,280.070 231.144,280.400 231.144 C 280.778 231.144,280.704 231.017,280.200 230.800 C 279.760 230.611,279.130 230.456,278.800 230.456 C 278.422 230.456,278.496 230.583,279.000 230.800 M296.600 230.800 C 295.581 231.238,296.632 231.238,298.000 230.800 C 298.804 230.543,298.843 230.477,298.200 230.468 C 297.760 230.462,297.040 230.611,296.600 230.800 M104.298 231.590 C 105.011 231.759,105.866 232.123,106.198 232.398 C 106.627 232.754,106.800 232.766,106.800 232.439 C 106.800 231.886,105.086 231.184,103.874 231.241 C 103.267 231.269,103.397 231.376,104.298 231.590 M282.642 231.677 C 284.656 232.035,292.144 232.035,294.158 231.677 C 295.015 231.525,292.424 231.400,288.400 231.400 C 284.376 231.400,281.785 231.525,282.642 231.677 M194.660 231.900 C 194.558 232.065,196.032 232.152,197.937 232.093 C 204.046 231.904,204.732 231.742,199.724 231.670 C 197.042 231.631,194.763 231.735,194.660 231.900 M95.454 236.236 C 94.434 238.345,93.609 240.190,93.620 240.336 C 93.643 240.648,96.277 235.574,97.065 233.700 C 98.169 231.071,97.256 232.509,95.454 236.236 M310.668 235.800 C 310.971 237.777,311.202 238.114,311.194 236.567 C 311.191 235.925,311.016 235.130,310.805 234.800 C 310.545 234.391,310.501 234.710,310.668 235.800 M105.324 239.800 C 105.326 241.120,105.401 241.612,105.490 240.893 C 105.579 240.174,105.577 239.094,105.486 238.493 C 105.395 237.892,105.322 238.480,105.324 239.800 M190.344 238.300 C 189.193 239.689,188.706 240.400,188.904 240.400 C 189.014 240.400,189.586 239.770,190.173 239.000 C 191.263 237.571,191.395 237.032,190.344 238.300 M311.293 240.000 C 311.293 240.770,311.375 241.085,311.476 240.700 C 311.576 240.315,311.576 239.685,311.476 239.300 C 311.375 238.915,311.293 239.230,311.293 240.000 M311.724 243.800 C 311.726 245.120,311.801 245.612,311.890 244.893 C 311.979 244.174,311.977 243.094,311.886 242.493 C 311.795 241.892,311.722 242.480,311.724 243.800 M91.429 244.648 C 90.863 245.885,90.407 247.010,90.416 247.148 C 90.437 247.482,91.558 245.398,92.256 243.728 C 93.178 241.520,92.532 242.240,91.429 244.648 M105.081 245.000 C 105.322 248.658,105.536 249.216,105.540 246.200 C 105.542 244.880,105.398 243.440,105.220 243.000 C 105.032 242.535,104.974 243.373,105.081 245.000 M184.026 246.122 L 183.051 247.400 184.326 246.225 C 185.651 245.003,185.803 244.785,185.300 244.822 C 185.135 244.834,184.562 245.419,184.026 246.122 M311.301 247.800 C 311.305 248.680,311.387 248.993,311.483 248.495 C 311.579 247.998,311.575 247.278,311.475 246.895 C 311.375 246.513,311.296 246.920,311.301 247.800 M177.594 253.100 L 172.200 258.600 177.700 253.206 C 180.725 250.239,183.200 247.764,183.200 247.706 C 183.200 247.419,182.606 247.991,177.594 253.100 M105.680 249.800 C 105.680 250.240,105.824 251.050,106.000 251.600 C 106.254 252.392,106.320 252.433,106.320 251.800 C 106.320 251.360,106.176 250.550,106.000 250.000 C 105.746 249.208,105.680 249.167,105.680 249.800 M88.836 250.500 C 88.647 250.995,88.021 252.556,87.446 253.969 C 86.871 255.382,86.410 256.732,86.422 256.969 C 86.434 257.206,86.776 256.590,87.182 255.600 C 88.987 251.199,89.574 249.600,89.384 249.600 C 89.272 249.600,89.025 250.005,88.836 250.500 M310.860 250.867 C 310.827 251.454,310.696 252.264,310.570 252.667 C 310.352 253.360,310.365 253.361,310.795 252.690 C 311.046 252.299,311.177 251.489,311.086 250.890 L 310.920 249.800 310.860 250.867 M106.456 253.200 C 106.456 253.530,106.611 254.160,106.800 254.600 C 107.017 255.104,107.144 255.178,107.144 254.800 C 107.144 254.470,106.989 253.840,106.800 253.400 C 106.583 252.896,106.456 252.822,106.456 253.200 M108.400 259.008 C 108.927 260.402,111.563 265.200,111.803 265.200 C 111.966 265.200,108.483 258.374,108.133 258.008 C 108.033 257.903,108.153 258.353,108.400 259.008 M170.654 259.433 C 170.023 259.987,169.587 260.520,169.683 260.616 C 169.779 260.713,170.374 260.254,171.004 259.596 C 172.396 258.143,172.216 258.059,170.654 259.433 M307.482 261.011 C 306.892 262.215,306.494 263.200,306.598 263.200 C 306.867 263.200,308.884 259.151,308.705 258.971 C 308.623 258.889,308.073 259.807,307.482 261.011 M304.669 265.900 C 303.739 267.325,303.562 267.744,304.205 267.000 C 305.174 265.878,306.575 263.600,306.295 263.600 C 306.226 263.600,305.494 264.635,304.669 265.900 M163.800 265.035 L 162.600 266.066 163.900 265.206 C 164.615 264.733,165.200 264.268,165.200 264.173 C 165.200 263.873,165.031 263.978,163.800 265.035 M83.449 266.215 C 83.312 266.573,83.218 267.256,83.241 267.733 C 83.267 268.281,83.403 268.086,83.610 267.203 C 83.960 265.716,83.865 265.133,83.449 266.215 M112.791 266.788 C 113.257 267.441,113.842 268.102,114.091 268.256 C 114.341 268.411,114.041 267.876,113.425 267.068 C 112.088 265.315,111.584 265.092,112.791 266.788 M300.000 271.400 C 298.361 273.050,297.110 274.400,297.220 274.400 C 297.330 274.400,298.761 273.050,300.400 271.400 C 302.039 269.750,303.290 268.400,303.180 268.400 C 303.070 268.400,301.639 269.750,300.000 271.400 M114.400 268.925 C 114.400 268.994,114.985 269.579,115.700 270.225 L 117.000 271.400 115.825 270.100 C 114.730 268.888,114.400 268.616,114.400 268.925 M82.493 271.600 C 82.493 272.370,82.575 272.685,82.676 272.300 C 82.776 271.915,82.776 271.285,82.676 270.900 C 82.575 270.515,82.493 270.830,82.493 271.600 M154.400 271.236 C 153.736 271.779,153.669 271.915,154.200 271.640 C 155.505 270.966,156.228 270.412,155.800 270.415 C 155.580 270.417,154.950 270.786,154.400 271.236 M116.800 271.675 C 116.800 271.918,122.757 276.930,123.600 277.396 C 124.419 277.849,124.215 277.661,121.000 274.996 C 119.460 273.719,117.885 272.405,117.500 272.075 C 117.115 271.746,116.800 271.566,116.800 271.675 M148.200 274.625 C 145.560 276.033,143.550 277.188,143.734 277.192 C 144.181 277.203,151.616 273.374,152.614 272.620 C 153.922 271.631,153.210 271.954,148.200 274.625 M295.200 275.649 C 293.806 276.871,293.805 276.872,295.088 276.019 C 295.796 275.548,296.482 274.991,296.612 274.781 C 296.997 274.157,296.677 274.354,295.200 275.649 M81.731 278.600 C 81.733 280.140,81.805 280.721,81.892 279.891 C 81.979 279.061,81.977 277.801,81.889 277.091 C 81.800 276.381,81.729 277.060,81.731 278.600 M292.200 277.600 C 291.540 278.037,291.180 278.392,291.400 278.388 C 291.801 278.382,293.976 276.823,293.600 276.812 C 293.490 276.808,292.860 277.163,292.200 277.600 M140.500 278.234 C 139.785 278.546,139.200 278.894,139.200 279.007 C 139.200 279.215,142.006 278.127,142.346 277.787 C 142.686 277.447,141.820 277.657,140.500 278.234 M289.200 279.200 C 288.430 279.622,287.944 279.974,288.120 279.983 C 288.544 280.005,290.800 278.832,290.800 278.590 C 290.800 278.328,290.777 278.337,289.200 279.200 M128.400 280.197 C 128.400 280.468,131.649 282.084,131.830 281.903 C 131.914 281.819,131.176 281.359,130.191 280.881 C 129.206 280.402,128.400 280.094,128.400 280.197 M134.200 280.829 C 133.320 281.252,133.038 281.486,133.574 281.349 C 135.039 280.973,137.086 280.029,136.400 280.045 C 136.070 280.053,135.080 280.406,134.200 280.829 M285.600 280.800 C 284.610 281.215,284.003 281.565,284.251 281.578 C 284.818 281.606,287.600 280.457,287.600 280.195 C 287.600 279.948,287.712 279.914,285.600 280.800 M81.334 284.800 C 81.334 286.450,81.405 287.125,81.491 286.300 C 81.578 285.475,81.578 284.125,81.491 283.300 C 81.405 282.475,81.334 283.150,81.334 284.800 M276.800 283.600 C 275.996 283.857,275.957 283.923,276.600 283.932 C 277.040 283.938,277.760 283.789,278.200 283.600 C 279.219 283.162,278.168 283.162,276.800 283.600 M273.400 284.400 C 272.311 284.677,272.293 284.707,273.200 284.725 C 273.750 284.735,274.560 284.589,275.000 284.400 C 275.986 283.976,275.066 283.976,273.400 284.400 M269.200 285.200 C 267.833 285.488,267.828 285.495,269.000 285.519 C 269.660 285.533,270.560 285.389,271.000 285.200 C 271.962 284.787,271.164 284.787,269.200 285.200 M263.505 286.283 C 264.002 286.379,264.722 286.375,265.105 286.275 C 265.487 286.175,265.080 286.096,264.200 286.101 C 263.320 286.105,263.007 286.187,263.505 286.283 M258.100 287.076 C 258.485 287.176,259.115 287.176,259.500 287.076 C 259.885 286.975,259.570 286.893,258.800 286.893 C 258.030 286.893,257.715 286.975,258.100 287.076 M253.400 287.600 L 251.800 287.886 253.200 287.903 C 253.970 287.913,255.050 287.776,255.600 287.600 C 256.885 287.188,255.699 287.188,253.400 287.600 M247.700 288.676 C 248.085 288.776,248.715 288.776,249.100 288.676 C 249.485 288.575,249.170 288.493,248.400 288.493 C 247.630 288.493,247.315 288.575,247.700 288.676 M81.728 291.200 C 81.728 292.630,81.801 293.215,81.889 292.500 C 81.978 291.785,81.978 290.615,81.889 289.900 C 81.801 289.185,81.728 289.770,81.728 291.200 M244.000 289.200 C 242.633 289.488,242.628 289.495,243.800 289.519 C 244.460 289.533,245.360 289.389,245.800 289.200 C 246.762 288.787,245.964 288.787,244.000 289.200 M240.200 290.000 C 239.111 290.277,239.093 290.307,240.000 290.325 C 240.550 290.335,241.360 290.189,241.800 290.000 C 242.786 289.576,241.866 289.576,240.200 290.000 M236.800 290.800 C 235.996 291.057,235.957 291.123,236.600 291.132 C 237.040 291.138,237.760 290.989,238.200 290.800 C 239.219 290.362,238.168 290.362,236.800 290.800 M234.000 291.600 C 233.176 291.864,233.141 291.926,233.800 291.954 C 234.240 291.973,234.870 291.813,235.200 291.600 C 235.901 291.147,235.414 291.147,234.000 291.600 M231.200 292.400 C 230.376 292.664,230.341 292.726,231.000 292.754 C 231.440 292.773,232.070 292.613,232.400 292.400 C 233.101 291.947,232.614 291.947,231.200 292.400 M82.428 297.233 C 82.444 297.765,82.619 298.560,82.819 299.000 C 83.071 299.558,83.107 299.315,82.938 298.200 C 82.655 296.343,82.387 295.836,82.428 297.233 M213.000 299.178 C 212.120 299.595,211.513 299.950,211.651 299.968 C 212.040 300.018,214.800 298.814,214.800 298.595 C 214.800 298.327,214.799 298.327,213.000 299.178 M83.206 300.633 C 83.209 301.055,83.395 301.670,83.618 302.000 C 83.915 302.438,83.952 302.276,83.756 301.400 C 83.427 299.929,83.198 299.610,83.206 300.633 M209.400 300.778 C 208.520 301.195,207.913 301.550,208.051 301.568 C 208.440 301.618,211.200 300.414,211.200 300.195 C 211.200 299.927,211.199 299.927,209.400 300.778 M205.000 302.771 C 203.680 303.413,202.713 303.952,202.852 303.969 C 203.206 304.013,207.600 301.978,207.600 301.771 C 207.600 301.509,207.561 301.524,205.000 302.771 M195.600 307.200 C 193.070 308.497,191.180 309.559,191.400 309.559 C 191.620 309.559,193.870 308.497,196.400 307.200 C 198.930 305.903,200.820 304.841,200.600 304.841 C 200.380 304.841,198.130 305.903,195.600 307.200 M85.600 307.347 C 85.600 307.795,87.475 311.324,88.179 312.200 C 88.532 312.640,88.156 311.740,87.342 310.200 C 85.722 307.135,85.600 306.934,85.600 307.347 M90.400 315.725 C 90.400 315.794,90.985 316.379,91.700 317.025 L 93.000 318.200 91.825 316.900 C 90.730 315.688,90.400 315.416,90.400 315.725 M174.581 317.571 C 172.832 318.435,171.516 319.155,171.658 319.171 C 172.000 319.209,178.000 316.356,178.000 316.156 C 178.000 315.894,177.864 315.950,174.581 317.571 M92.920 318.664 C 93.075 318.919,94.139 319.909,95.283 320.864 C 96.427 321.819,97.236 322.391,97.080 322.136 C 96.925 321.881,95.861 320.891,94.717 319.936 C 93.573 318.981,92.764 318.409,92.920 318.664 M167.800 320.778 C 166.920 321.195,166.313 321.550,166.451 321.568 C 166.840 321.618,169.600 320.414,169.600 320.195 C 169.600 319.927,169.599 319.927,167.800 320.778 M164.200 322.378 C 163.320 322.795,162.713 323.150,162.851 323.168 C 163.240 323.218,166.000 322.014,166.000 321.795 C 166.000 321.527,165.999 321.527,164.200 322.378 M98.095 323.083 C 98.472 323.501,99.550 324.266,100.491 324.784 C 102.668 325.983,102.383 325.666,99.604 323.800 C 98.396 322.989,97.717 322.666,98.095 323.083 M158.400 324.800 C 157.410 325.215,156.803 325.565,157.051 325.578 C 157.618 325.606,160.400 324.457,160.400 324.195 C 160.400 323.948,160.512 323.914,158.400 324.800 M103.200 326.364 C 103.750 326.814,104.380 327.183,104.600 327.185 C 105.028 327.188,104.305 326.634,103.000 325.960 C 102.469 325.685,102.536 325.821,103.200 326.364 M152.000 327.200 C 151.010 327.615,150.470 327.952,150.800 327.948 C 151.472 327.940,154.828 326.463,154.200 326.452 C 153.980 326.448,152.990 326.785,152.000 327.200 M142.800 330.000 C 141.996 330.257,141.957 330.323,142.600 330.332 C 143.040 330.338,143.760 330.189,144.200 330.000 C 145.219 329.562,144.168 329.562,142.800 330.000 M113.600 330.782 C 113.930 331.005,114.545 331.191,114.967 331.194 C 115.990 331.202,115.671 330.973,114.200 330.644 C 113.324 330.448,113.162 330.485,113.600 330.782 M139.400 330.800 C 138.311 331.077,138.293 331.107,139.200 331.125 C 139.750 331.135,140.560 330.989,141.000 330.800 C 141.986 330.376,141.066 330.376,139.400 330.800 M117.000 331.597 C 117.764 331.928,120.714 332.155,120.367 331.856 C 120.275 331.777,119.300 331.609,118.200 331.482 C 116.913 331.333,116.485 331.374,117.000 331.597 M133.905 331.883 C 134.402 331.979,135.122 331.975,135.505 331.875 C 135.887 331.775,135.480 331.696,134.600 331.701 C 133.720 331.705,133.407 331.787,133.905 331.883 M123.900 332.297 C 125.495 332.373,128.105 332.373,129.700 332.297 C 131.295 332.221,129.990 332.159,126.800 332.159 C 123.610 332.159,122.305 332.221,123.900 332.297 " stroke="none" fill="#dc8065" fill-rule="evenodd"></path><path id="path3" d="M173.628 67.700 C 173.644 67.975,173.826 68.560,174.034 69.000 C 174.353 69.674,174.380 69.632,174.207 68.733 C 174.082 68.085,174.197 67.587,174.501 67.465 C 174.798 67.345,174.717 67.250,174.300 67.232 C 173.915 67.214,173.613 67.425,173.628 67.700 M312.699 67.465 C 313.012 67.591,313.112 68.065,312.967 68.733 C 312.787 69.560,312.831 69.665,313.162 69.200 C 313.828 68.261,313.687 67.196,312.900 67.232 C 312.483 67.250,312.402 67.345,312.699 67.465 M250.434 113.400 C 250.434 113.620,250.778 114.430,251.200 115.200 C 251.622 115.970,251.966 116.420,251.966 116.200 C 251.966 115.980,251.622 115.170,251.200 114.400 C 250.778 113.630,250.434 113.180,250.434 113.400 M270.434 154.200 C 270.434 154.420,270.778 155.230,271.200 156.000 C 271.622 156.770,271.966 157.220,271.966 157.000 C 271.966 156.780,271.622 155.970,271.200 155.200 C 270.778 154.430,270.434 153.980,270.434 154.200 M279.400 165.014 C 278.395 165.498,278.363 165.553,279.200 165.351 C 279.750 165.219,280.371 164.950,280.580 164.755 C 281.098 164.271,280.814 164.333,279.400 165.014 M198.300 177.493 C 199.235 177.577,200.765 177.577,201.700 177.493 C 202.635 177.409,201.870 177.340,200.000 177.340 C 198.130 177.340,197.365 177.409,198.300 177.493 M286.700 177.493 C 287.635 177.577,289.165 177.577,290.100 177.493 C 291.035 177.409,290.270 177.340,288.400 177.340 C 286.530 177.340,285.765 177.409,286.700 177.493 M105.600 178.000 C 104.805 178.514,105.804 178.514,107.000 178.000 L 107.800 177.656 107.000 177.634 C 106.560 177.622,105.930 177.787,105.600 178.000 M115.200 178.000 C 116.568 178.438,117.619 178.438,116.600 178.000 C 116.160 177.811,115.440 177.662,115.000 177.668 C 114.357 177.677,114.396 177.743,115.200 178.000 M193.800 178.000 C 193.296 178.217,193.222 178.344,193.600 178.344 C 193.930 178.344,194.560 178.189,195.000 178.000 C 195.504 177.783,195.578 177.656,195.200 177.656 C 194.870 177.656,194.240 177.811,193.800 178.000 M204.800 178.000 C 205.130 178.213,205.670 178.388,206.000 178.388 C 206.533 178.388,206.533 178.345,206.000 178.000 C 205.670 177.787,205.130 177.612,204.800 177.612 C 204.267 177.612,204.267 177.655,204.800 178.000 M293.400 178.000 C 293.840 178.189,294.470 178.344,294.800 178.344 C 295.178 178.344,295.104 178.217,294.600 178.000 C 294.160 177.811,293.530 177.656,293.200 177.656 C 292.822 177.656,292.896 177.783,293.400 178.000 M188.769 180.377 C 187.017 181.543,182.774 185.600,183.307 185.600 C 183.459 185.600,184.321 184.800,185.222 183.822 C 186.124 182.844,187.747 181.475,188.831 180.780 C 190.566 179.667,191.109 179.200,190.669 179.200 C 190.596 179.200,189.741 179.730,188.769 180.377 M297.600 179.336 C 297.600 179.435,298.482 180.083,299.561 180.775 C 301.440 181.981,304.203 184.684,305.719 186.800 C 306.405 187.758,306.405 187.744,305.717 186.460 C 304.617 184.405,297.600 178.246,297.600 179.336 M276.554 180.867 C 274.681 182.274,272.789 184.115,271.896 185.400 C 271.437 186.060,272.127 185.505,273.430 184.166 C 274.734 182.827,276.340 181.348,277.000 180.879 C 277.660 180.409,278.089 180.020,277.954 180.013 C 277.819 180.006,277.189 180.390,276.554 180.867 M96.574 183.307 L 95.000 184.999 96.596 183.599 C 97.473 182.830,98.268 182.155,98.362 182.100 C 98.456 182.045,98.447 181.913,98.341 181.807 C 98.235 181.701,97.440 182.376,96.574 183.307 M125.615 183.766 C 126.613 184.885,127.843 186.475,128.348 187.300 C 129.461 189.121,129.936 189.311,128.923 187.530 C 128.525 186.832,127.210 185.241,126.000 183.996 C 124.053 181.992,124.009 181.966,125.615 183.766 M212.800 181.732 C 212.800 182.140,215.614 184.919,215.819 184.714 C 215.911 184.623,215.269 183.848,214.393 182.993 C 213.517 182.137,212.800 181.570,212.800 181.732 M94.313 185.900 C 93.632 186.681,92.683 188.400,92.933 188.400 C 93.021 188.400,93.570 187.680,94.153 186.800 C 95.268 185.114,95.337 184.726,94.313 185.900 M182.214 187.035 C 181.841 187.604,181.605 188.138,181.689 188.222 C 181.773 188.307,182.158 187.841,182.544 187.188 C 183.406 185.728,183.148 185.609,182.214 187.035 M270.200 188.000 C 269.859 188.660,269.669 189.200,269.779 189.200 C 269.889 189.200,270.259 188.660,270.600 188.000 C 270.941 187.340,271.131 186.800,271.021 186.800 C 270.911 186.800,270.541 187.340,270.200 188.000 M91.400 191.200 C 91.250 191.673,91.217 192.150,91.327 192.260 C 91.437 192.370,91.650 192.073,91.800 191.600 C 91.950 191.127,91.983 190.650,91.873 190.540 C 91.763 190.430,91.550 190.727,91.400 191.200 M180.200 191.200 C 180.050 191.673,180.017 192.150,180.127 192.260 C 180.237 192.370,180.450 192.073,180.600 191.600 C 180.750 191.127,180.783 190.650,180.673 190.540 C 180.563 190.430,180.350 190.727,180.200 191.200 M219.256 191.200 C 219.256 191.530,219.411 192.160,219.600 192.600 C 219.817 193.104,219.944 193.178,219.944 192.800 C 219.944 192.470,219.789 191.840,219.600 191.400 C 219.383 190.896,219.256 190.822,219.256 191.200 M130.456 191.600 C 130.456 191.930,130.611 192.560,130.800 193.000 C 131.017 193.504,131.144 193.578,131.144 193.200 C 131.144 192.870,130.989 192.240,130.800 191.800 C 130.583 191.296,130.456 191.222,130.456 191.600 M308.056 192.000 C 308.056 192.330,308.211 192.960,308.400 193.400 C 308.617 193.904,308.744 193.978,308.744 193.600 C 308.744 193.270,308.589 192.640,308.400 192.200 C 308.183 191.696,308.056 191.622,308.056 192.000 M268.200 193.200 C 268.048 193.891,268.014 194.547,268.124 194.657 C 268.234 194.767,268.448 194.291,268.600 193.600 C 268.752 192.909,268.786 192.253,268.676 192.143 C 268.566 192.033,268.352 192.509,268.200 193.200 M90.656 194.084 C 90.521 194.588,90.427 195.360,90.446 195.800 C 90.465 196.240,90.645 195.898,90.846 195.040 C 91.236 193.378,91.070 192.540,90.656 194.084 M179.453 194.436 C 179.314 195.131,179.221 196.173,179.247 196.750 C 179.272 197.328,179.455 196.827,179.652 195.639 C 180.037 193.321,179.873 192.334,179.453 194.436 M220.183 197.800 C 220.177 201.428,220.210 201.608,220.538 199.737 C 220.751 198.524,220.754 196.877,220.545 195.737 C 220.231 194.028,220.189 194.270,220.183 197.800 M131.340 198.000 C 131.340 199.870,131.409 200.635,131.493 199.700 C 131.577 198.765,131.577 197.235,131.493 196.300 C 131.409 195.365,131.340 196.130,131.340 198.000 M308.893 197.600 C 308.893 198.370,308.975 198.685,309.076 198.300 C 309.176 197.915,309.176 197.285,309.076 196.900 C 308.975 196.515,308.893 196.830,308.893 197.600 M179.240 199.233 C 179.262 199.985,179.430 201.050,179.613 201.600 C 179.829 202.246,179.866 201.820,179.719 200.400 C 179.459 197.883,179.181 197.207,179.240 199.233 M254.447 199.633 C 254.473 200.385,254.641 201.540,254.820 202.200 C 255.035 202.989,255.070 202.578,254.923 201.000 C 254.677 198.355,254.373 197.481,254.447 199.633 M90.428 200.233 C 90.444 200.875,90.616 201.760,90.810 202.200 C 91.047 202.734,91.086 202.402,90.927 201.200 C 90.646 199.080,90.388 198.580,90.428 200.233 M268.080 201.000 C 268.080 201.440,268.224 202.250,268.400 202.800 C 268.654 203.592,268.720 203.633,268.720 203.000 C 268.720 202.560,268.576 201.750,268.400 201.200 C 268.146 200.408,268.080 200.367,268.080 201.000 M308.250 202.450 C 307.917 204.117,308.240 204.440,308.600 202.800 C 308.752 202.109,308.793 201.459,308.691 201.358 C 308.589 201.256,308.391 201.747,308.250 202.450 M233.249 202.600 C 233.216 203.040,233.096 203.850,232.983 204.400 L 232.777 205.400 233.206 204.419 C 233.442 203.879,233.561 203.069,233.472 202.619 C 233.313 201.821,233.307 201.821,233.249 202.600 M130.629 203.429 C 130.481 204.015,130.438 204.572,130.532 204.666 C 130.627 204.760,130.824 204.358,130.971 203.771 C 131.119 203.185,131.162 202.628,131.068 202.534 C 130.973 202.440,130.776 202.842,130.629 203.429 M219.429 203.429 C 219.281 204.015,219.238 204.572,219.332 204.666 C 219.427 204.760,219.624 204.358,219.771 203.771 C 219.919 203.185,219.962 202.628,219.868 202.534 C 219.773 202.440,219.576 202.842,219.429 203.429 M255.256 204.800 C 255.256 205.130,255.411 205.760,255.600 206.200 C 255.817 206.704,255.944 206.778,255.944 206.400 C 255.944 206.070,255.789 205.440,255.600 205.000 C 255.383 204.496,255.256 204.422,255.256 204.800 M182.429 208.700 C 183.512 210.518,186.162 213.368,187.800 214.478 C 188.460 214.926,187.986 214.375,186.747 213.254 C 185.507 212.133,183.914 210.312,183.205 209.208 C 181.710 206.878,181.108 206.484,182.429 208.700 M93.363 208.729 C 93.684 209.350,94.260 210.115,94.642 210.429 C 95.034 210.752,94.849 210.261,94.215 209.300 C 92.932 207.355,92.504 207.068,93.363 208.729 M270.963 208.729 C 271.284 209.350,271.860 210.115,272.242 210.429 C 272.634 210.752,272.449 210.261,271.815 209.300 C 270.532 207.355,270.104 207.068,270.963 208.729 M215.245 211.144 C 214.572 211.993,213.027 213.373,211.811 214.210 C 209.552 215.766,208.711 216.659,210.700 215.390 C 212.714 214.105,215.151 211.993,216.008 210.789 C 217.230 209.073,216.684 209.326,215.245 211.144 M303.701 211.187 C 303.261 211.892,300.554 214.163,298.553 215.506 C 298.139 215.784,298.377 215.738,299.083 215.404 C 300.493 214.737,305.243 210.438,304.596 210.415 C 304.374 210.407,303.971 210.754,303.701 211.187 M124.600 213.086 C 123.280 214.324,122.740 214.962,123.400 214.503 C 124.551 213.704,127.548 210.781,127.178 210.818 C 127.080 210.828,125.920 211.849,124.600 213.086 M229.882 213.011 C 229.292 214.215,228.894 215.200,228.998 215.200 C 229.267 215.200,231.284 211.151,231.105 210.971 C 231.023 210.889,230.473 211.807,229.882 213.011 M96.196 212.396 C 96.826 213.054,97.419 213.514,97.513 213.420 C 97.722 213.212,95.756 211.200,95.343 211.200 C 95.182 211.200,95.566 211.738,96.196 212.396 M273.796 212.396 C 274.426 213.054,275.019 213.514,275.113 213.420 C 275.322 213.212,273.356 211.200,272.943 211.200 C 272.782 211.200,273.166 211.738,273.796 212.396 M257.600 211.753 C 257.600 212.182,258.790 214.400,259.021 214.400 C 259.131 214.400,258.923 213.815,258.559 213.100 C 257.817 211.640,257.600 211.336,257.600 211.753 M98.408 214.210 C 99.150 215.104,102.385 216.949,102.685 216.649 C 102.821 216.512,102.741 216.400,102.507 216.400 C 102.272 216.400,101.135 215.764,99.980 214.987 C 98.825 214.209,98.118 213.860,98.408 214.210 M275.971 214.158 C 276.513 214.818,278.800 216.196,278.800 215.863 C 278.800 215.777,278.035 215.202,277.100 214.585 C 276.139 213.951,275.648 213.766,275.971 214.158 M259.288 215.087 C 259.452 215.800,262.546 219.995,262.909 219.998 C 263.079 219.999,262.539 219.124,261.709 218.053 C 260.879 216.983,259.970 215.768,259.688 215.353 C 259.406 214.939,259.226 214.819,259.288 215.087 M120.700 215.829 C 119.205 216.640,119.296 216.978,120.800 216.200 C 121.460 215.859,122.000 215.494,122.000 215.390 C 122.000 215.132,121.957 215.147,120.700 215.829 M105.800 218.000 C 106.240 218.189,106.960 218.338,107.400 218.332 C 108.043 218.323,108.004 218.257,107.200 218.000 C 105.832 217.562,104.781 217.562,105.800 218.000 M114.600 218.000 L 113.800 218.344 114.600 218.344 C 115.040 218.344,115.760 218.189,116.200 218.000 L 117.000 217.656 116.200 217.656 C 115.760 217.656,115.040 217.811,114.600 218.000 M195.600 218.000 C 196.150 218.176,197.050 218.317,197.600 218.313 C 198.498 218.306,198.478 218.274,197.400 218.000 C 195.708 217.569,194.256 217.569,195.600 218.000 M202.400 218.000 L 201.400 218.320 202.400 218.332 C 202.950 218.338,203.760 218.189,204.200 218.000 L 205.000 217.656 204.200 217.668 C 203.760 217.674,202.950 217.824,202.400 218.000 M284.200 217.981 C 284.968 218.329,287.110 218.556,286.767 218.253 C 286.675 218.172,285.880 217.996,285.000 217.862 C 283.885 217.693,283.642 217.729,284.200 217.981 M291.000 218.000 C 289.922 218.274,289.902 218.306,290.800 218.313 C 291.350 218.317,292.250 218.176,292.800 218.000 C 294.144 217.569,292.692 217.569,291.000 218.000 M224.589 220.700 C 223.295 222.185,222.653 223.040,223.162 222.600 C 224.183 221.719,227.373 218.000,227.108 218.000 C 227.017 218.000,225.883 219.215,224.589 220.700 M264.400 221.800 C 265.146 222.570,265.847 223.200,265.957 223.200 C 266.067 223.200,265.546 222.570,264.800 221.800 C 264.054 221.030,263.353 220.400,263.243 220.400 C 263.133 220.400,263.654 221.030,264.400 221.800 M266.416 223.491 C 266.435 223.871,269.434 226.096,270.800 226.743 C 271.638 227.140,271.678 227.134,271.047 226.708 C 270.632 226.429,269.417 225.521,268.347 224.691 C 267.276 223.861,266.407 223.321,266.416 223.491 M218.794 225.618 C 218.247 226.039,217.980 226.380,218.200 226.378 C 218.729 226.373,220.191 225.258,219.965 225.031 C 219.868 224.934,219.341 225.198,218.794 225.618 M306.265 226.247 C 305.640 226.586,305.220 226.953,305.330 227.063 C 305.440 227.174,305.983 226.967,306.537 226.605 C 307.495 225.976,307.564 225.986,308.004 226.807 C 308.257 227.281,308.553 227.581,308.660 227.473 C 308.876 227.257,307.928 225.591,307.604 225.616 C 307.492 225.625,306.889 225.909,306.265 226.247 M102.400 230.782 C 102.730 231.005,103.345 231.191,103.767 231.194 C 104.790 231.202,104.471 230.973,103.000 230.644 C 102.124 230.448,101.962 230.485,102.400 230.782 M206.600 230.800 C 206.096 231.017,206.022 231.144,206.400 231.144 C 206.730 231.144,207.360 230.989,207.800 230.800 C 208.304 230.583,208.378 230.456,208.000 230.456 C 207.670 230.456,207.040 230.611,206.600 230.800 M280.600 230.800 C 281.040 230.989,281.760 231.138,282.200 231.132 C 282.843 231.123,282.804 231.057,282.000 230.800 C 280.632 230.362,279.581 230.362,280.600 230.800 M294.800 230.800 C 293.996 231.057,293.957 231.123,294.600 231.132 C 295.040 231.138,295.760 230.989,296.200 230.800 C 297.219 230.362,296.168 230.362,294.800 230.800 M106.129 231.481 C 106.735 231.638,106.822 231.951,106.639 233.335 C 106.423 234.979,106.426 234.983,106.834 233.651 C 107.332 232.030,107.078 231.184,106.113 231.246 C 105.447 231.290,105.448 231.305,106.129 231.481 M194.503 231.700 C 193.375 233.127,190.396 237.600,190.574 237.600 C 190.687 237.600,191.695 236.295,192.814 234.700 L 194.849 231.800 199.525 231.580 L 204.200 231.361 199.549 231.280 C 196.223 231.223,194.785 231.342,194.503 231.700 M286.515 231.496 C 287.788 231.576,289.768 231.575,290.915 231.494 C 292.062 231.414,291.020 231.349,288.600 231.350 C 286.180 231.351,285.242 231.416,286.515 231.496 M310.456 233.200 C 310.456 233.530,310.611 234.160,310.800 234.600 C 311.017 235.104,311.144 235.178,311.144 234.800 C 311.144 234.470,310.989 233.840,310.800 233.400 C 310.583 232.896,310.456 232.822,310.456 233.200 M105.869 236.756 C 105.721 237.495,105.620 238.482,105.644 238.950 C 105.668 239.418,105.847 238.990,106.042 238.000 C 106.237 237.010,106.338 236.023,106.267 235.806 C 106.196 235.590,106.017 236.017,105.869 236.756 M311.287 237.000 C 311.291 237.440,311.432 238.340,311.600 239.000 C 311.874 240.078,311.906 240.098,311.913 239.200 C 311.917 238.650,311.776 237.750,311.600 237.200 C 311.349 236.416,311.281 236.373,311.287 237.000 M189.544 238.700 C 188.275 240.232,187.819 240.942,188.281 240.665 C 188.793 240.358,190.569 238.000,190.289 238.000 C 190.198 238.000,189.863 238.315,189.544 238.700 M182.195 247.646 C 180.018 250.091,176.249 253.898,173.819 256.105 C 168.247 261.165,167.208 262.217,170.000 259.972 C 173.905 256.832,187.165 243.200,186.314 243.200 C 186.225 243.200,184.372 245.201,182.195 247.646 M105.686 247.200 C 105.683 247.970,105.824 249.050,106.000 249.600 C 106.450 251.004,106.465 249.537,106.023 247.400 L 105.692 245.800 105.686 247.200 M311.418 249.418 C 311.265 250.439,311.230 251.363,311.340 251.473 C 311.450 251.583,311.665 250.839,311.818 249.818 C 311.971 248.798,312.006 247.873,311.896 247.763 C 311.786 247.653,311.571 248.398,311.418 249.418 M106.406 251.833 C 106.409 252.255,106.595 252.870,106.818 253.200 C 107.115 253.638,107.152 253.476,106.956 252.600 C 106.627 251.129,106.398 250.810,106.406 251.833 M310.629 253.429 C 310.481 254.015,310.451 254.584,310.561 254.694 C 310.671 254.804,310.881 254.415,311.029 253.829 C 311.176 253.242,311.206 252.673,311.096 252.563 C 310.986 252.453,310.776 252.842,310.629 253.429 M163.985 264.432 L 162.600 265.663 163.888 264.813 C 165.030 264.059,165.893 263.200,165.508 263.200 C 165.432 263.200,164.747 263.754,163.985 264.432 M83.429 265.029 C 83.281 265.615,83.238 266.172,83.332 266.266 C 83.427 266.360,83.624 265.958,83.771 265.371 C 83.919 264.785,83.962 264.228,83.868 264.134 C 83.773 264.040,83.576 264.442,83.429 265.029 M304.985 266.100 C 304.368 267.035,304.120 267.589,304.432 267.331 C 305.033 266.834,306.564 264.400,306.276 264.400 C 306.183 264.400,305.602 265.165,304.985 266.100 M113.591 267.188 C 114.057 267.841,114.642 268.502,114.891 268.656 C 115.141 268.811,114.841 268.276,114.225 267.468 C 112.888 265.715,112.384 265.492,113.591 267.188 M82.600 268.400 C 82.448 269.091,82.414 269.747,82.524 269.857 C 82.634 269.967,82.848 269.491,83.000 268.800 C 83.152 268.109,83.186 267.453,83.076 267.343 C 82.966 267.233,82.752 267.709,82.600 268.400 M158.800 268.000 C 158.250 268.430,157.997 268.786,158.238 268.791 C 158.479 268.796,159.002 268.440,159.400 268.000 C 160.312 266.992,160.088 266.992,158.800 268.000 M303.200 268.403 C 303.200 268.625,301.715 270.289,299.900 272.101 C 297.582 274.416,297.219 274.885,298.680 273.678 C 301.044 271.724,304.296 268.000,303.637 268.000 C 303.397 268.000,303.200 268.181,303.200 268.403 M117.600 271.800 C 119.017 273.230,120.267 274.400,120.377 274.400 C 120.487 274.400,119.417 273.230,118.000 271.800 C 116.583 270.370,115.333 269.200,115.223 269.200 C 115.113 269.200,116.183 270.370,117.600 271.800 M153.800 271.200 C 153.140 271.637,152.780 271.992,153.000 271.988 C 153.401 271.982,155.576 270.423,155.200 270.412 C 155.090 270.408,154.460 270.763,153.800 271.200 M81.800 273.200 C 81.646 274.110,81.604 274.938,81.707 275.040 C 81.810 275.143,82.013 274.477,82.160 273.560 C 82.307 272.643,82.348 271.815,82.253 271.720 C 82.158 271.624,81.954 272.290,81.800 273.200 M120.816 274.691 C 120.835 275.071,123.834 277.296,125.200 277.943 C 126.038 278.340,126.078 278.334,125.447 277.908 C 125.032 277.629,123.817 276.721,122.747 275.891 C 121.676 275.061,120.807 274.521,120.816 274.691 M294.287 276.568 C 291.800 278.290,291.379 278.784,293.400 277.609 C 294.851 276.766,296.852 275.168,296.389 275.222 C 296.285 275.234,295.339 275.840,294.287 276.568 M80.990 281.801 C 80.833 283.891,80.861 286.996,81.052 288.701 C 81.357 291.419,81.401 290.952,81.411 284.900 C 81.423 276.940,81.379 276.615,80.990 281.801 M290.300 279.029 C 288.805 279.840,288.896 280.178,290.400 279.400 C 291.060 279.059,291.600 278.694,291.600 278.590 C 291.600 278.332,291.557 278.347,290.300 279.029 M131.209 281.367 C 131.430 281.590,131.933 281.572,132.487 281.323 C 133.337 280.940,133.312 280.914,132.122 280.956 C 131.348 280.982,130.987 281.145,131.209 281.367 M278.400 283.600 C 277.867 283.945,277.867 283.988,278.400 283.988 C 278.730 283.988,279.270 283.813,279.600 283.600 C 280.133 283.255,280.133 283.212,279.600 283.212 C 279.270 283.212,278.730 283.387,278.400 283.600 M275.400 284.400 C 274.896 284.617,274.822 284.744,275.200 284.744 C 275.530 284.744,276.160 284.589,276.600 284.400 C 277.104 284.183,277.178 284.056,276.800 284.056 C 276.470 284.056,275.840 284.211,275.400 284.400 M271.400 285.200 C 270.381 285.638,271.432 285.638,272.800 285.200 C 273.604 284.943,273.643 284.877,273.000 284.868 C 272.560 284.862,271.840 285.011,271.400 285.200 M266.800 286.000 C 266.008 286.254,265.967 286.320,266.600 286.320 C 267.040 286.320,267.850 286.176,268.400 286.000 C 269.192 285.746,269.233 285.680,268.600 285.680 C 268.160 285.680,267.350 285.824,266.800 286.000 M261.600 286.800 L 260.600 287.120 261.600 287.120 C 262.150 287.120,263.050 286.976,263.600 286.800 L 264.600 286.480 263.600 286.480 C 263.050 286.480,262.150 286.624,261.600 286.800 M256.200 287.600 C 255.122 287.874,255.102 287.906,256.000 287.913 C 256.550 287.917,257.450 287.776,258.000 287.600 C 259.344 287.169,257.892 287.169,256.200 287.600 M251.000 288.400 C 249.930 288.672,249.908 288.705,250.800 288.705 C 251.350 288.705,252.340 288.568,253.000 288.400 C 254.070 288.128,254.092 288.095,253.200 288.095 C 252.650 288.095,251.660 288.232,251.000 288.400 M246.000 289.200 C 245.208 289.454,245.167 289.520,245.800 289.520 C 246.240 289.520,247.050 289.376,247.600 289.200 C 248.392 288.946,248.433 288.880,247.800 288.880 C 247.360 288.880,246.550 289.024,246.000 289.200 M242.000 290.000 C 241.208 290.254,241.167 290.320,241.800 290.320 C 242.240 290.320,243.050 290.176,243.600 290.000 C 244.392 289.746,244.433 289.680,243.800 289.680 C 243.360 289.680,242.550 289.824,242.000 290.000 M238.600 290.800 C 238.096 291.017,238.022 291.144,238.400 291.144 C 238.730 291.144,239.360 290.989,239.800 290.800 C 240.304 290.583,240.378 290.456,240.000 290.456 C 239.670 290.456,239.040 290.611,238.600 290.800 M235.400 291.600 C 234.896 291.817,234.822 291.944,235.200 291.944 C 235.530 291.944,236.160 291.789,236.600 291.600 C 237.104 291.383,237.178 291.256,236.800 291.256 C 236.470 291.256,235.840 291.411,235.400 291.600 M232.600 292.400 C 232.096 292.617,232.022 292.744,232.400 292.744 C 232.730 292.744,233.360 292.589,233.800 292.400 C 234.304 292.183,234.378 292.056,234.000 292.056 C 233.670 292.056,233.040 292.211,232.600 292.400 M81.687 294.800 C 81.683 295.350,81.824 296.250,82.000 296.800 C 82.431 298.144,82.431 296.692,82.000 295.000 C 81.726 293.922,81.694 293.902,81.687 294.800 M82.456 299.200 C 82.456 299.530,82.611 300.160,82.800 300.600 C 83.017 301.104,83.144 301.178,83.144 300.800 C 83.144 300.470,82.989 299.840,82.800 299.400 C 82.583 298.896,82.456 298.822,82.456 299.200 M203.200 304.000 C 202.430 304.422,201.980 304.766,202.200 304.766 C 202.420 304.766,203.230 304.422,204.000 304.000 C 204.770 303.578,205.220 303.234,205.000 303.234 C 204.780 303.234,203.970 303.578,203.200 304.000 M87.000 311.200 C 87.341 311.860,87.711 312.400,87.821 312.400 C 87.931 312.400,87.741 311.860,87.400 311.200 C 87.059 310.540,86.689 310.000,86.579 310.000 C 86.469 310.000,86.659 310.540,87.000 311.200 M92.800 318.943 C 93.790 320.000,95.320 321.422,96.200 322.102 C 98.059 323.537,97.642 323.100,93.800 319.583 C 91.654 317.618,91.421 317.469,92.800 318.943 M98.269 323.632 C 98.766 324.233,101.200 325.764,101.200 325.476 C 101.200 325.383,100.435 324.802,99.500 324.185 C 98.565 323.568,98.011 323.320,98.269 323.632 M112.200 330.800 C 112.640 330.989,113.270 331.144,113.600 331.144 C 113.978 331.144,113.904 331.017,113.400 330.800 C 112.960 330.611,112.330 330.456,112.000 330.456 C 111.622 330.456,111.696 330.583,112.200 330.800 M141.200 330.800 C 140.396 331.057,140.357 331.123,141.000 331.132 C 141.440 331.138,142.160 330.989,142.600 330.800 C 143.619 330.362,142.568 330.362,141.200 330.800 M115.400 331.600 C 115.840 331.789,116.470 331.944,116.800 331.944 C 117.178 331.944,117.104 331.817,116.600 331.600 C 116.160 331.411,115.530 331.256,115.200 331.256 C 114.822 331.256,114.896 331.383,115.400 331.600 M137.400 331.600 C 136.311 331.877,136.293 331.907,137.200 331.925 C 137.750 331.935,138.560 331.789,139.000 331.600 C 139.986 331.176,139.066 331.176,137.400 331.600 M119.600 332.400 C 120.150 332.576,121.230 332.717,122.000 332.714 L 123.400 332.708 121.800 332.377 C 119.663 331.935,118.196 331.950,119.600 332.400 M131.400 332.400 L 129.800 332.686 131.200 332.696 C 131.970 332.701,133.140 332.568,133.800 332.400 C 135.428 331.986,133.713 331.986,131.400 332.400 " stroke="none" fill="#e49c8c" fill-rule="evenodd"></path><path id="path4" d="M209.100 67.500 C 228.075 67.557,259.125 67.557,278.100 67.500 C 297.075 67.443,281.550 67.395,243.600 67.395 C 205.650 67.395,190.125 67.443,209.100 67.500 M90.501 197.800 C 90.505 198.680,90.587 198.993,90.683 198.495 C 90.779 197.998,90.775 197.278,90.675 196.895 C 90.575 196.513,90.496 196.920,90.501 197.800 M233.693 199.600 C 233.693 200.370,233.775 200.685,233.876 200.300 C 233.976 199.915,233.976 199.285,233.876 198.900 C 233.775 198.515,233.693 198.830,233.693 199.600 M199.100 218.282 C 199.595 218.378,200.405 218.378,200.900 218.282 C 201.395 218.187,200.990 218.109,200.000 218.109 C 199.010 218.109,198.605 218.187,199.100 218.282 M287.500 218.282 C 287.995 218.378,288.805 218.378,289.300 218.282 C 289.795 218.187,289.390 218.109,288.400 218.109 C 287.410 218.109,287.005 218.187,287.500 218.282 M299.978 271.900 L 298.600 273.400 300.100 272.022 C 301.496 270.738,301.784 270.400,301.478 270.400 C 301.412 270.400,300.737 271.075,299.978 271.900 M124.912 332.695 C 125.964 332.777,127.584 332.776,128.512 332.692 C 129.440 332.608,128.580 332.541,126.600 332.542 C 124.620 332.543,123.860 332.612,124.912 332.695 " stroke="none" fill="#dc947c" fill-rule="evenodd"></path></g></svg>