<svg id="svg" version="1.1" width="400" height="400" viewBox="0 0 400 400" xmlns="http://www.w3.org/2000/svg" xmlns:xlink="http://www.w3.org/1999/xlink" ><g id="svgg"><path id="path0" d="M268.600 187.169 C 248.155 190.467,236.568 203.666,236.617 223.600 C 236.668 244.064,245.093 253.645,273.966 266.073 C 292.194 273.919,296.412 277.712,295.903 285.800 C 295.542 291.531,292.175 295.401,285.399 297.871 C 281.792 299.186,271.105 298.897,267.000 297.373 C 261.115 295.188,255.902 290.908,251.688 284.800 C 250.853 283.590,250.076 282.600,249.962 282.600 C 249.316 282.600,228.400 295.004,228.400 295.387 C 228.400 296.825,234.080 304.761,237.474 308.064 C 253.055 323.232,282.647 327.519,303.031 317.562 C 317.245 310.619,324.624 296.726,322.839 280.265 C 320.807 261.538,312.123 252.805,283.200 240.402 C 266.938 233.429,263.092 230.030,263.055 222.600 C 262.979 207.257,284.364 205.672,293.051 220.378 C 294.062 222.091,293.105 222.526,304.175 215.319 C 306.609 213.734,309.995 211.583,311.700 210.539 C 315.395 208.277,315.334 208.692,312.572 204.541 C 306.783 195.840,298.403 190.114,288.010 187.758 C 284.999 187.076,271.683 186.671,268.600 187.169 M185.600 236.980 C 185.600 271.583,185.470 286.171,185.148 287.680 C 183.500 295.405,179.493 298.527,171.200 298.549 C 163.221 298.569,159.588 295.897,153.400 285.457 C 153.050 284.867,151.672 285.585,142.449 291.162 C 129.652 298.900,130.783 297.776,132.555 300.999 C 138.694 312.167,147.615 318.637,161.600 322.061 C 164.990 322.891,179.306 322.776,183.291 321.887 C 200.969 317.940,210.365 306.971,212.388 287.916 C 212.647 285.475,212.800 266.265,212.800 236.216 L 212.800 188.400 199.200 188.400 L 185.600 188.400 185.600 236.980 " stroke="none" fill="#050404" fill-rule="evenodd"></path><path id="path1" d="M53.385 53.699 C 53.281 53.975,53.241 119.990,53.298 200.400 L 53.400 346.600 200.000 346.600 L 346.600 346.600 346.600 200.000 L 346.600 53.400 200.088 53.299 C 83.087 53.219,53.537 53.300,53.385 53.699 M287.402 187.007 C 298.713 189.320,306.945 194.881,313.386 204.562 C 314.649 206.459,315.596 208.234,315.491 208.506 C 315.195 209.278,294.376 222.477,293.802 222.256 C 293.521 222.148,292.426 220.771,291.370 219.196 C 281.932 205.130,260.774 209.861,263.983 225.320 C 265.122 230.806,269.323 233.812,285.400 240.645 C 314.740 253.115,324.309 264.698,323.488 286.747 C 322.630 309.765,305.563 323.379,277.600 323.351 C 255.465 323.329,238.054 314.260,228.855 297.960 C 227.139 294.918,227.183 294.796,230.700 292.802 C 232.405 291.835,237.302 289.009,241.583 286.522 C 250.728 281.209,250.249 281.298,252.355 284.531 C 255.881 289.943,262.573 295.314,267.800 296.927 C 281.720 301.223,295.156 295.493,295.191 285.246 C 295.218 277.362,291.398 274.164,272.200 266.002 C 244.765 254.337,235.821 243.767,235.814 223.000 C 235.805 197.423,259.045 181.208,287.402 187.007 M213.000 239.200 C 213.000 295.492,213.124 292.252,210.702 299.400 C 206.003 313.266,194.868 321.412,178.126 323.231 C 157.338 325.489,139.208 316.459,131.124 299.819 C 130.036 297.578,128.930 298.521,141.691 290.804 C 153.764 283.503,153.139 283.662,155.365 287.319 C 160.289 295.407,164.121 298.000,171.146 298.000 C 179.859 298.000,183.716 294.250,184.813 284.715 C 185.033 282.800,185.195 261.706,185.197 234.767 C 185.199 209.118,185.322 188.011,185.472 187.862 C 185.621 187.712,191.876 187.637,199.372 187.695 L 213.000 187.800 213.000 239.200 " stroke="none" fill="#f4dc1c" fill-rule="evenodd"></path><path id="path2" d="M274.100 186.296 C 275.365 186.375,277.435 186.375,278.700 186.296 C 279.965 186.216,278.930 186.151,276.400 186.151 C 273.870 186.151,272.835 186.216,274.100 186.296 M267.000 186.800 C 265.930 187.072,265.908 187.105,266.800 187.105 C 267.350 187.105,268.340 186.968,269.000 186.800 C 270.070 186.528,270.092 186.495,269.200 186.495 C 268.650 186.495,267.660 186.632,267.000 186.800 M284.200 186.800 C 284.860 186.968,285.940 187.106,286.600 187.107 C 287.609 187.108,287.545 187.055,286.200 186.777 C 284.174 186.358,282.537 186.377,284.200 186.800 M263.200 187.600 C 262.396 187.857,262.357 187.923,263.000 187.932 C 263.440 187.938,264.160 187.789,264.600 187.600 C 265.619 187.162,264.568 187.162,263.200 187.600 M288.800 187.582 C 289.130 187.805,289.745 187.991,290.167 187.994 C 291.190 188.002,290.871 187.773,289.400 187.444 C 288.524 187.248,288.362 187.285,288.800 187.582 M185.394 188.095 C 185.292 188.373,185.162 210.470,185.105 237.200 C 185.047 263.930,185.122 284.990,185.270 284.000 C 185.419 283.010,185.554 261.005,185.570 235.100 L 185.600 188.000 199.198 188.000 L 212.797 188.000 212.901 238.500 L 213.005 289.000 213.002 238.400 L 213.000 187.800 199.289 187.695 C 188.532 187.612,185.539 187.698,185.394 188.095 M254.300 191.029 C 252.805 191.840,252.896 192.178,254.400 191.400 C 255.060 191.059,255.600 190.694,255.600 190.590 C 255.600 190.332,255.557 190.347,254.300 191.029 M250.586 193.349 C 249.484 194.091,248.316 195.022,247.991 195.418 C 247.666 195.814,248.215 195.522,249.210 194.769 C 250.206 194.016,251.466 193.094,252.010 192.721 C 252.555 192.348,252.908 192.033,252.795 192.021 C 252.682 192.009,251.688 192.607,250.586 193.349 M300.800 192.110 C 300.800 192.199,302.212 193.365,303.937 194.702 C 305.662 196.039,308.173 198.453,309.516 200.067 C 313.509 204.863,313.728 205.091,312.334 203.000 C 310.193 199.789,300.800 190.921,300.800 192.110 M243.144 200.300 C 241.875 201.832,241.419 202.542,241.881 202.265 C 242.393 201.958,244.169 199.600,243.889 199.600 C 243.798 199.600,243.463 199.915,243.144 200.300 M239.892 205.152 C 239.174 206.367,238.205 208.728,238.576 208.357 C 238.931 208.003,240.785 204.252,240.665 204.132 C 240.606 204.073,240.258 204.532,239.892 205.152 M314.404 206.722 C 315.200 208.139,315.253 208.463,314.786 209.082 C 314.271 209.763,314.282 209.765,314.993 209.115 C 315.751 208.422,315.037 206.063,313.840 205.306 C 313.643 205.181,313.896 205.818,314.404 206.722 M311.162 211.241 C 308.808 212.749,306.906 214.221,308.400 213.379 C 309.315 212.864,313.724 210.009,313.942 209.791 C 314.508 209.225,313.437 209.784,311.162 211.241 M273.515 210.728 C 273.138 210.878,274.436 211.000,276.400 211.000 C 278.364 211.000,279.662 210.878,279.285 210.728 C 278.908 210.579,277.610 210.456,276.400 210.456 C 275.190 210.456,273.892 210.579,273.515 210.728 M237.246 211.267 C 237.221 211.634,237.096 212.264,236.970 212.667 C 236.752 213.362,236.763 213.363,237.197 212.687 C 237.448 212.296,237.573 211.666,237.473 211.287 C 237.311 210.668,237.288 210.666,237.246 211.267 M267.095 213.649 C 265.935 214.515,263.751 217.884,264.115 218.248 C 264.232 218.365,264.455 218.055,264.613 217.561 C 264.770 217.066,265.711 215.792,266.704 214.730 C 268.685 212.612,268.759 212.408,267.095 213.649 M236.240 215.240 C 236.093 216.157,236.052 216.985,236.147 217.080 C 236.242 217.176,236.446 216.510,236.600 215.600 C 236.754 214.690,236.796 213.862,236.693 213.760 C 236.590 213.657,236.387 214.323,236.240 215.240 M290.002 217.033 C 290.003 217.235,290.468 217.940,291.035 218.600 L 292.066 219.800 291.163 218.400 C 290.004 216.604,290.000 216.599,290.002 217.033 M299.962 218.441 C 297.608 219.949,295.706 221.421,297.200 220.579 C 298.115 220.064,302.524 217.209,302.742 216.991 C 303.308 216.425,302.237 216.984,299.962 218.441 M235.753 223.000 C 235.753 225.640,235.818 226.668,235.897 225.284 C 235.975 223.901,235.974 221.741,235.895 220.484 C 235.816 219.228,235.752 220.360,235.753 223.000 M263.452 219.700 C 263.147 220.837,263.198 223.909,263.542 225.131 C 263.686 225.643,263.803 224.428,263.802 222.431 C 263.800 218.433,263.797 218.412,263.452 219.700 M292.475 220.778 C 293.340 222.203,294.264 222.697,294.889 222.067 C 295.305 221.649,295.258 221.607,294.636 221.844 C 294.072 222.059,293.612 221.829,292.877 220.967 C 292.110 220.067,292.018 220.023,292.475 220.778 M265.119 229.000 C 265.616 229.952,268.118 232.349,269.800 233.484 C 271.553 234.667,277.193 237.600,277.716 237.600 C 277.962 237.600,276.569 236.779,274.619 235.776 C 270.050 233.425,268.022 232.013,266.187 229.905 C 265.370 228.967,264.890 228.560,265.119 229.000 M236.087 229.800 C 236.091 230.240,236.232 231.140,236.400 231.800 C 236.674 232.878,236.706 232.898,236.713 232.000 C 236.717 231.450,236.576 230.550,236.400 230.000 C 236.149 229.216,236.081 229.173,236.087 229.800 M236.856 234.000 C 236.856 234.330,237.011 234.960,237.200 235.400 C 237.417 235.904,237.544 235.978,237.544 235.600 C 237.544 235.270,237.389 234.640,237.200 234.200 C 236.983 233.696,236.856 233.622,236.856 234.000 M238.498 239.100 C 239.876 241.937,240.553 243.181,240.660 243.073 C 240.828 242.905,238.792 238.800,238.541 238.800 C 238.437 238.800,238.418 238.935,238.498 239.100 M282.000 239.389 C 282.000 239.706,284.900 240.833,285.128 240.605 C 285.241 240.492,285.235 240.400,285.116 240.400 C 284.996 240.400,284.246 240.128,283.449 239.795 C 282.652 239.462,282.000 239.279,282.000 239.389 M287.600 241.789 C 287.600 242.106,290.500 243.233,290.728 243.005 C 290.841 242.892,290.835 242.800,290.716 242.800 C 290.596 242.800,289.846 242.528,289.049 242.195 C 288.252 241.862,287.600 241.679,287.600 241.789 M241.477 244.831 C 241.875 245.508,242.456 246.273,242.768 246.531 C 243.080 246.789,242.832 246.235,242.215 245.300 C 240.920 243.337,240.409 243.012,241.477 244.831 M243.600 247.357 C 243.600 247.899,246.567 251.200,248.188 252.463 C 249.260 253.298,248.795 252.664,246.800 250.570 C 245.150 248.839,243.755 247.343,243.700 247.245 C 243.645 247.147,243.600 247.197,243.600 247.357 M301.400 248.596 C 302.294 249.339,304.828 250.709,304.200 250.110 C 303.980 249.900,303.080 249.324,302.200 248.830 C 301.320 248.335,300.960 248.230,301.400 248.596 M304.897 250.633 C 305.027 250.844,305.991 251.632,307.037 252.384 C 308.084 253.135,308.833 253.578,308.703 253.367 C 308.573 253.156,307.609 252.368,306.563 251.616 C 305.516 250.865,304.767 250.422,304.897 250.633 M309.200 253.725 C 309.200 253.794,309.785 254.379,310.500 255.025 L 311.800 256.200 310.625 254.900 C 309.530 253.688,309.200 253.416,309.200 253.725 M257.200 258.820 C 258.587 259.761,259.378 260.035,258.400 259.236 C 257.850 258.786,257.220 258.417,257.000 258.415 C 256.780 258.413,256.870 258.596,257.200 258.820 M315.755 260.519 C 316.603 261.553,317.380 262.400,317.482 262.400 C 317.755 262.400,315.221 259.260,314.677 258.924 C 314.422 258.766,314.907 259.484,315.755 260.519 M264.454 262.587 C 264.790 262.923,267.600 264.016,267.600 263.811 C 267.600 263.701,266.948 263.338,266.151 263.005 C 264.675 262.389,264.118 262.251,264.454 262.587 M318.200 264.000 C 318.541 264.660,318.911 265.200,319.021 265.200 C 319.131 265.200,318.941 264.660,318.600 264.000 C 318.259 263.340,317.889 262.800,317.779 262.800 C 317.669 262.800,317.859 263.340,318.200 264.000 M319.200 265.650 C 319.200 265.998,320.437 268.400,320.617 268.400 C 320.704 268.400,320.661 268.085,320.521 267.700 C 320.233 266.906,319.200 265.303,319.200 265.650 M284.400 271.379 C 284.400 271.489,284.940 271.859,285.600 272.200 C 286.260 272.541,286.800 272.731,286.800 272.621 C 286.800 272.511,286.260 272.141,285.600 271.800 C 284.940 271.459,284.400 271.269,284.400 271.379 M321.656 271.600 C 321.656 271.930,321.811 272.560,322.000 273.000 C 322.217 273.504,322.344 273.578,322.344 273.200 C 322.344 272.870,322.189 272.240,322.000 271.800 C 321.783 271.296,321.656 271.222,321.656 271.600 M287.244 272.977 C 287.341 273.074,288.136 273.619,289.010 274.187 L 290.600 275.219 289.215 274.010 C 288.134 273.065,286.450 272.183,287.244 272.977 M322.487 274.800 C 322.483 275.350,322.624 276.250,322.800 276.800 C 323.231 278.144,323.231 276.692,322.800 275.000 C 322.526 273.922,322.494 273.902,322.487 274.800 M323.360 284.600 C 323.361 287.900,323.422 289.197,323.498 287.482 C 323.573 285.767,323.572 283.067,323.497 281.482 C 323.421 279.897,323.359 281.300,323.360 284.600 M249.771 282.289 C 250.195 282.397,250.880 282.872,251.294 283.343 C 252.041 284.193,252.042 284.190,251.378 283.100 C 250.959 282.412,250.388 282.017,249.854 282.046 C 249.080 282.088,249.072 282.111,249.771 282.289 M247.500 283.029 C 246.005 283.840,246.096 284.178,247.600 283.400 C 248.260 283.059,248.800 282.694,248.800 282.590 C 248.800 282.332,248.757 282.347,247.500 283.029 M295.320 285.200 C 295.320 286.410,295.395 286.905,295.487 286.300 C 295.578 285.695,295.578 284.705,295.487 284.100 C 295.395 283.495,295.320 283.990,295.320 285.200 M244.700 284.629 C 243.205 285.440,243.296 285.778,244.800 285.000 C 245.460 284.659,246.000 284.294,246.000 284.190 C 246.000 283.932,245.957 283.947,244.700 284.629 M151.397 284.973 C 150.668 285.524,150.716 285.534,151.953 285.088 C 153.148 284.657,153.358 284.686,153.753 285.335 C 154.676 286.851,155.242 287.345,154.516 286.000 C 153.668 284.431,152.585 284.074,151.397 284.973 M148.696 286.550 C 146.775 287.731,146.238 288.289,147.800 287.481 C 149.054 286.833,150.745 285.626,150.400 285.625 C 150.290 285.625,149.523 286.041,148.696 286.550 M241.800 286.400 C 241.140 286.837,240.780 287.192,241.000 287.188 C 241.401 287.182,243.576 285.623,243.200 285.612 C 243.090 285.608,242.460 285.963,241.800 286.400 M184.454 287.467 C 184.425 287.944,184.296 288.664,184.170 289.067 C 183.952 289.761,183.964 289.762,184.396 289.088 C 184.647 288.697,184.775 287.977,184.681 287.488 C 184.509 286.601,184.509 286.601,184.454 287.467 M254.984 288.510 C 257.088 291.139,262.553 295.580,263.060 295.073 C 263.178 294.955,262.673 294.550,261.937 294.173 C 261.202 293.796,258.992 291.938,257.027 290.044 C 254.451 287.560,253.881 287.133,254.984 288.510 M144.696 288.950 C 142.775 290.131,142.238 290.689,143.800 289.881 C 145.054 289.233,146.745 288.026,146.400 288.025 C 146.290 288.025,145.523 288.441,144.696 288.950 M294.330 289.618 C 293.961 290.488,293.731 291.200,293.819 291.200 C 294.113 291.200,295.250 288.751,295.124 288.391 C 295.056 288.196,294.698 288.749,294.330 289.618 M235.100 290.229 C 233.605 291.040,233.696 291.378,235.200 290.600 C 235.860 290.259,236.400 289.894,236.400 289.790 C 236.400 289.532,236.357 289.547,235.100 290.229 M140.696 291.350 C 138.775 292.531,138.238 293.089,139.800 292.281 C 141.054 291.633,142.745 290.426,142.400 290.425 C 142.290 290.425,141.523 290.841,140.696 291.350 M212.200 292.000 C 212.046 292.910,212.004 293.738,212.107 293.840 C 212.210 293.943,212.413 293.277,212.560 292.360 C 212.707 291.443,212.748 290.615,212.653 290.520 C 212.558 290.424,212.354 291.090,212.200 292.000 M232.300 291.829 C 230.805 292.640,230.896 292.978,232.400 292.200 C 233.060 291.859,233.600 291.494,233.600 291.390 C 233.600 291.132,233.557 291.147,232.300 291.829 M291.583 293.451 C 290.287 294.796,290.103 295.110,290.910 294.598 C 291.857 293.998,293.937 291.600,293.511 291.600 C 293.431 291.600,292.564 292.433,291.583 293.451 M322.622 293.022 C 322.472 293.825,322.428 294.562,322.526 294.660 C 322.624 294.757,322.827 294.181,322.978 293.378 C 323.128 292.575,323.172 291.838,323.074 291.740 C 322.976 291.643,322.773 292.219,322.622 293.022 M229.500 293.429 C 228.005 294.240,228.096 294.578,229.600 293.800 C 230.260 293.459,230.800 293.094,230.800 292.990 C 230.800 292.732,230.757 292.747,229.500 293.429 M135.800 294.400 C 135.140 294.837,134.780 295.192,135.000 295.188 C 135.401 295.182,137.576 293.623,137.200 293.612 C 137.090 293.608,136.460 293.963,135.800 294.400 M180.400 295.274 C 179.410 296.176,178.960 296.712,179.400 296.464 C 180.428 295.885,181.260 295.179,181.949 294.300 C 182.805 293.209,182.355 293.491,180.400 295.274 M211.449 295.415 C 211.312 295.773,211.215 296.366,211.234 296.733 C 211.253 297.100,211.427 296.869,211.621 296.220 C 211.998 294.958,211.865 294.333,211.449 295.415 M288.006 296.023 C 287.240 296.450,286.880 296.796,287.206 296.791 C 287.533 296.786,288.250 296.430,288.800 296.000 C 290.056 295.017,289.796 295.025,288.006 296.023 M131.700 296.846 C 130.333 297.721,130.150 298.212,130.818 299.200 C 131.120 299.645,131.158 299.516,130.969 298.700 C 130.828 298.095,130.868 297.596,131.057 297.591 C 131.419 297.582,133.544 296.019,133.200 296.016 C 133.090 296.014,132.415 296.388,131.700 296.846 M228.600 297.600 C 228.941 298.260,229.311 298.800,229.421 298.800 C 229.531 298.800,229.341 298.260,229.000 297.600 C 228.659 296.940,228.289 296.400,228.179 296.400 C 228.069 296.400,228.259 296.940,228.600 297.600 M167.115 298.072 C 167.492 298.221,169.330 298.344,171.200 298.344 C 173.070 298.344,174.908 298.221,175.285 298.072 C 175.662 297.922,173.824 297.800,171.200 297.800 C 168.576 297.800,166.738 297.922,167.115 298.072 M270.800 297.980 C 271.799 298.320,274.282 298.532,273.967 298.251 C 273.875 298.169,272.900 297.999,271.800 297.872 C 270.451 297.716,270.126 297.751,270.800 297.980 M281.400 298.000 L 279.800 298.286 281.200 298.315 C 281.970 298.331,282.960 298.189,283.400 298.000 C 284.343 297.595,283.662 297.595,281.400 298.000 M131.800 301.200 C 132.141 301.860,132.511 302.400,132.621 302.400 C 132.731 302.400,132.541 301.860,132.200 301.200 C 131.859 300.540,131.489 300.000,131.379 300.000 C 131.269 300.000,131.459 300.540,131.800 301.200 M209.467 301.667 C 209.105 302.588,208.874 303.407,208.954 303.488 C 209.034 303.568,209.400 302.883,209.767 301.967 C 210.133 301.050,210.364 300.231,210.279 300.146 C 210.194 300.061,209.829 300.745,209.467 301.667 M234.000 305.177 C 234.000 305.525,239.554 310.993,239.689 310.778 C 239.750 310.680,238.495 309.325,236.900 307.766 C 235.305 306.208,234.000 305.043,234.000 305.177 M206.602 307.300 C 205.995 308.235,205.206 309.370,204.849 309.823 C 204.492 310.276,204.740 310.069,205.400 309.363 C 206.562 308.119,208.220 305.600,207.876 305.600 C 207.783 305.600,207.209 306.365,206.602 307.300 M135.985 307.394 C 137.073 308.894,140.990 312.854,142.600 314.082 C 143.482 314.755,143.173 314.372,141.911 313.228 C 140.652 312.087,138.672 310.126,137.511 308.870 C 136.350 307.615,135.663 306.950,135.985 307.394 M313.012 310.939 C 309.587 314.434,309.813 314.464,313.533 311.009 C 314.991 309.654,317.148 307.109,316.727 307.239 C 316.657 307.261,314.985 308.926,313.012 310.939 M202.134 312.693 C 201.438 313.412,200.999 314.000,201.159 314.000 C 201.531 314.000,203.799 311.646,203.571 311.497 C 203.477 311.436,202.830 311.974,202.134 312.693 M246.000 315.379 C 246.000 315.489,246.540 315.859,247.200 316.200 C 247.860 316.541,248.400 316.731,248.400 316.621 C 248.400 316.511,247.860 316.141,247.200 315.800 C 246.540 315.459,246.000 315.269,246.000 315.379 M146.800 316.979 C 146.800 317.089,147.340 317.459,148.000 317.800 C 148.660 318.141,149.200 318.331,149.200 318.221 C 149.200 318.111,148.660 317.741,148.000 317.400 C 147.340 317.059,146.800 316.869,146.800 316.979 M303.285 317.791 C 301.365 318.805,300.614 319.395,301.812 318.948 C 302.611 318.650,305.261 317.245,305.567 316.957 C 306.003 316.546,304.828 316.975,303.285 317.791 M193.685 318.591 C 191.765 319.605,191.014 320.195,192.212 319.748 C 193.011 319.450,195.661 318.045,195.967 317.757 C 196.403 317.346,195.228 317.775,193.685 318.591 M187.400 321.200 C 186.896 321.417,186.822 321.544,187.200 321.544 C 187.530 321.544,188.160 321.389,188.600 321.200 C 189.104 320.983,189.178 320.856,188.800 320.856 C 188.470 320.856,187.840 321.011,187.400 321.200 M259.400 321.200 C 259.840 321.389,260.470 321.544,260.800 321.544 C 261.178 321.544,261.104 321.417,260.600 321.200 C 260.160 321.011,259.530 320.856,259.200 320.856 C 258.822 320.856,258.896 320.983,259.400 321.200 M294.400 321.218 C 293.962 321.515,294.124 321.552,295.000 321.356 C 296.471 321.027,296.790 320.798,295.767 320.806 C 295.345 320.809,294.730 320.995,294.400 321.218 M158.400 322.000 C 159.768 322.438,160.819 322.438,159.800 322.000 C 159.360 321.811,158.640 321.662,158.200 321.668 C 157.557 321.677,157.596 321.743,158.400 322.000 M184.200 322.000 C 183.181 322.438,184.232 322.438,185.600 322.000 C 186.404 321.743,186.443 321.677,185.800 321.668 C 185.360 321.662,184.640 321.811,184.200 322.000 M261.633 321.747 C 261.725 321.828,262.520 322.004,263.400 322.138 C 264.515 322.307,264.758 322.271,264.200 322.019 C 263.432 321.671,261.290 321.444,261.633 321.747 M291.000 322.000 C 289.981 322.438,291.032 322.438,292.400 322.000 C 293.204 321.743,293.243 321.677,292.600 321.668 C 292.160 321.662,291.440 321.811,291.000 322.000 M162.600 322.823 C 164.626 323.242,166.263 323.223,164.600 322.800 C 163.940 322.632,162.860 322.494,162.200 322.493 C 161.191 322.492,161.255 322.545,162.600 322.823 M179.400 322.800 C 177.737 323.223,179.374 323.242,181.400 322.823 C 182.745 322.545,182.809 322.492,181.800 322.493 C 181.140 322.494,180.060 322.632,179.400 322.800 M267.400 322.823 C 269.426 323.242,271.063 323.223,269.400 322.800 C 268.740 322.632,267.660 322.494,267.000 322.493 C 265.991 322.492,266.055 322.545,267.400 322.823 M285.800 322.820 C 285.011 323.035,285.422 323.070,287.000 322.923 C 288.320 322.800,289.475 322.632,289.567 322.550 C 289.864 322.282,287.034 322.485,285.800 322.820 M170.115 323.496 C 171.388 323.576,173.368 323.575,174.515 323.494 C 175.662 323.414,174.620 323.349,172.200 323.350 C 169.780 323.351,168.842 323.416,170.115 323.496 M275.516 323.497 C 276.899 323.575,279.059 323.574,280.316 323.495 C 281.572 323.416,280.440 323.352,277.800 323.353 C 275.160 323.353,274.132 323.418,275.516 323.497 " stroke="none" fill="#978714" fill-rule="evenodd"></path><path id="path3" d="" stroke="none" fill="#7c6c0c" fill-rule="evenodd"></path><path id="path4" d="M271.200 186.623 C 271.530 186.695,274.770 186.818,278.400 186.898 C 282.030 186.977,284.280 186.908,283.400 186.744 C 281.892 186.463,269.917 186.345,271.200 186.623 M265.000 187.600 C 263.981 188.038,265.032 188.038,266.400 187.600 C 267.204 187.343,267.243 187.277,266.600 187.268 C 266.160 187.262,265.440 187.411,265.000 187.600 M192.300 188.299 C 196.095 188.365,202.305 188.365,206.100 188.299 C 209.895 188.234,206.790 188.180,199.200 188.180 C 191.610 188.180,188.505 188.234,192.300 188.299 M261.800 188.400 C 261.296 188.617,261.222 188.744,261.600 188.744 C 261.930 188.744,262.560 188.589,263.000 188.400 C 263.504 188.183,263.578 188.056,263.200 188.056 C 262.870 188.056,262.240 188.211,261.800 188.400 M255.100 191.029 C 253.549 191.870,253.725 192.161,255.300 191.359 C 256.808 190.593,257.075 190.394,256.567 190.416 C 256.365 190.425,255.705 190.701,255.100 191.029 M298.800 191.620 C 300.187 192.561,300.978 192.835,300.000 192.036 C 299.450 191.586,298.820 191.217,298.600 191.215 C 298.380 191.213,298.470 191.396,298.800 191.620 M252.000 192.836 C 251.336 193.379,251.269 193.515,251.800 193.240 C 253.105 192.566,253.828 192.012,253.400 192.015 C 253.180 192.017,252.550 192.386,252.000 192.836 M303.600 194.525 C 303.600 194.594,304.185 195.179,304.900 195.825 L 306.200 197.000 305.025 195.700 C 303.930 194.488,303.600 194.216,303.600 194.525 M245.965 197.900 C 244.528 199.385,243.101 200.960,242.795 201.400 C 242.138 202.345,242.185 202.299,245.988 198.300 C 247.609 196.595,248.855 195.200,248.757 195.200 C 248.659 195.200,247.403 196.415,245.965 197.900 M308.149 198.916 C 309.220 200.172,310.182 201.200,310.286 201.200 C 310.554 201.200,307.223 197.261,306.664 196.917 C 306.409 196.761,307.077 197.660,308.149 198.916 M313.790 206.301 C 314.981 208.606,315.194 208.926,315.189 208.400 C 315.185 208.070,314.811 207.350,314.356 206.800 C 313.902 206.250,313.647 206.026,313.790 206.301 M271.800 210.800 C 271.296 211.017,271.222 211.144,271.600 211.144 C 271.930 211.144,272.560 210.989,273.000 210.800 C 273.504 210.583,273.578 210.456,273.200 210.456 C 272.870 210.456,272.240 210.611,271.800 210.800 M280.000 210.800 C 281.368 211.238,282.419 211.238,281.400 210.800 C 280.960 210.611,280.240 210.462,279.800 210.468 C 279.157 210.477,279.196 210.543,280.000 210.800 M309.512 211.881 C 308.254 212.693,307.287 213.420,307.364 213.497 C 307.496 213.629,310.954 211.467,311.780 210.736 C 312.592 210.018,311.703 210.467,309.512 211.881 M237.029 213.429 C 236.881 214.015,236.838 214.572,236.932 214.666 C 237.027 214.760,237.224 214.358,237.371 213.771 C 237.519 213.185,237.562 212.628,237.468 212.534 C 237.373 212.440,237.176 212.842,237.029 213.429 M266.126 214.100 C 265.450 214.815,264.691 215.850,264.440 216.400 C 264.050 217.254,264.058 217.288,264.492 216.632 C 264.771 216.209,265.606 215.174,266.347 214.332 C 267.987 212.466,267.830 212.300,266.126 214.100 M288.600 215.200 C 289.459 216.080,290.252 216.800,290.362 216.800 C 290.472 216.800,289.859 216.080,289.000 215.200 C 288.141 214.320,287.348 213.600,287.238 213.600 C 287.128 213.600,287.741 214.320,288.600 215.200 M298.312 219.081 C 297.054 219.893,296.087 220.620,296.164 220.697 C 296.296 220.829,299.754 218.667,300.580 217.936 C 301.392 217.218,300.503 217.667,298.312 219.081 M236.157 223.200 C 236.157 226.170,236.220 227.385,236.297 225.900 C 236.374 224.415,236.374 221.985,236.297 220.500 C 236.220 219.015,236.157 220.230,236.157 223.200 M262.909 222.400 C 262.909 223.390,262.987 223.795,263.082 223.300 C 263.178 222.805,263.178 221.995,263.082 221.500 C 262.987 221.005,262.909 221.410,262.909 222.400 M236.868 232.200 C 236.862 232.640,237.011 233.360,237.200 233.800 C 237.638 234.819,237.638 233.768,237.200 232.400 C 236.943 231.596,236.877 231.557,236.868 232.200 M268.200 232.704 C 268.640 233.130,269.720 233.895,270.600 234.404 C 272.691 235.612,271.949 234.885,269.400 233.228 C 268.300 232.513,267.760 232.277,268.200 232.704 M241.323 243.829 C 241.666 244.505,242.251 245.310,242.622 245.618 C 242.993 245.926,242.815 245.468,242.226 244.600 C 240.833 242.548,240.548 242.305,241.323 243.829 M298.800 247.620 C 300.187 248.561,300.978 248.835,300.000 248.036 C 299.450 247.586,298.820 247.217,298.600 247.215 C 298.380 247.213,298.470 247.396,298.800 247.620 M246.383 250.100 C 247.364 251.145,248.219 252.000,248.283 252.000 C 248.584 252.000,248.266 251.641,246.500 249.983 L 244.600 248.200 246.383 250.100 M301.200 248.979 C 301.200 249.089,301.740 249.459,302.400 249.800 C 303.060 250.141,303.600 250.331,303.600 250.221 C 303.600 250.111,303.060 249.741,302.400 249.400 C 301.740 249.059,301.200 248.869,301.200 248.979 M310.275 255.324 C 311.651 256.603,313.705 258.673,314.839 259.924 C 315.995 261.199,316.366 261.496,315.682 260.600 C 314.459 258.996,310.685 255.269,308.787 253.789 C 308.230 253.355,308.899 254.046,310.275 255.324 M253.069 255.632 C 253.566 256.233,256.000 257.764,256.000 257.476 C 256.000 257.383,255.235 256.802,254.300 256.185 C 253.365 255.568,252.811 255.320,253.069 255.632 M257.200 258.364 C 257.750 258.814,258.380 259.183,258.600 259.185 C 259.028 259.188,258.305 258.634,257.000 257.960 C 256.469 257.685,256.536 257.821,257.200 258.364 M259.200 259.398 C 259.200 259.665,264.849 262.485,265.027 262.306 C 265.107 262.227,263.828 261.497,262.186 260.684 C 260.544 259.871,259.200 259.293,259.200 259.398 M318.200 264.800 C 318.541 265.460,318.911 266.000,319.021 266.000 C 319.131 266.000,318.941 265.460,318.600 264.800 C 318.259 264.140,317.889 263.600,317.779 263.600 C 317.669 263.600,317.859 264.140,318.200 264.800 M285.200 271.379 C 285.200 271.489,285.740 271.859,286.400 272.200 C 287.060 272.541,287.600 272.731,287.600 272.621 C 287.600 272.511,287.060 272.141,286.400 271.800 C 285.740 271.459,285.200 271.269,285.200 271.379 M321.656 273.200 C 321.656 273.530,321.811 274.160,322.000 274.600 C 322.217 275.104,322.344 275.178,322.344 274.800 C 322.344 274.470,322.189 273.840,322.000 273.400 C 321.783 272.896,321.656 272.822,321.656 273.200 M291.800 276.000 C 292.659 276.880,293.452 277.600,293.562 277.600 C 293.672 277.600,293.059 276.880,292.200 276.000 C 291.341 275.120,290.548 274.400,290.438 274.400 C 290.328 274.400,290.941 275.120,291.800 276.000 M322.909 280.000 C 322.909 280.990,322.987 281.395,323.082 280.900 C 323.178 280.405,323.178 279.595,323.082 279.100 C 322.987 278.605,322.909 279.010,322.909 280.000 M295.462 282.600 C 295.596 283.480,295.772 284.275,295.853 284.367 C 296.156 284.710,295.929 282.568,295.581 281.800 C 295.329 281.242,295.293 281.485,295.462 282.600 M248.300 283.029 C 246.805 283.840,246.896 284.178,248.400 283.400 C 249.060 283.059,249.600 282.694,249.600 282.590 C 249.600 282.332,249.557 282.347,248.300 283.029 M185.046 285.846 C 184.900 287.093,184.859 288.193,184.957 288.290 C 185.054 288.388,185.261 287.454,185.415 286.215 C 185.570 284.977,185.610 283.877,185.505 283.771 C 185.399 283.666,185.193 284.599,185.046 285.846 M245.500 284.629 C 244.005 285.440,244.096 285.778,245.600 285.000 C 246.260 284.659,246.800 284.294,246.800 284.190 C 246.800 283.932,246.757 283.947,245.500 284.629 M149.300 286.626 C 148.365 287.187,147.600 287.740,147.600 287.855 C 147.600 288.071,150.299 286.538,150.980 285.936 C 151.667 285.328,151.027 285.591,149.300 286.626 M154.200 286.800 C 154.541 287.460,154.911 288.000,155.021 288.000 C 155.131 288.000,154.941 287.460,154.600 286.800 C 154.259 286.140,153.889 285.600,153.779 285.600 C 153.669 285.600,153.859 286.140,154.200 286.800 M212.470 287.050 C 212.431 287.957,212.311 289.308,212.201 290.050 L 212.003 291.400 212.423 290.062 C 212.653 289.327,212.774 287.977,212.691 287.062 L 212.540 285.400 212.470 287.050 M242.100 286.626 C 241.165 287.187,240.400 287.740,240.400 287.855 C 240.400 288.071,243.099 286.538,243.780 285.936 C 244.467 285.328,243.827 285.591,242.100 286.626 M295.422 287.422 C 295.272 288.225,295.228 288.962,295.326 289.060 C 295.424 289.157,295.627 288.581,295.778 287.778 C 295.928 286.975,295.972 286.238,295.874 286.140 C 295.776 286.043,295.573 286.619,295.422 287.422 M322.909 289.200 C 322.909 290.190,322.987 290.595,323.082 290.100 C 323.178 289.605,323.178 288.795,323.082 288.300 C 322.987 287.805,322.909 288.210,322.909 289.200 M238.400 288.836 C 237.736 289.379,237.669 289.515,238.200 289.240 C 239.505 288.566,240.228 288.012,239.800 288.015 C 239.580 288.017,238.950 288.386,238.400 288.836 M256.000 290.144 C 256.990 291.200,258.340 292.440,259.000 292.897 C 260.390 293.861,260.279 293.744,256.800 290.584 C 254.489 288.485,254.400 288.436,256.000 290.144 M144.700 289.429 C 143.205 290.240,143.296 290.578,144.800 289.800 C 145.460 289.459,146.000 289.094,146.000 288.990 C 146.000 288.732,145.957 288.747,144.700 289.429 M235.900 290.229 C 234.405 291.040,234.496 291.378,236.000 290.600 C 236.660 290.259,237.200 289.894,237.200 289.790 C 237.200 289.532,237.157 289.547,235.900 290.229 M140.700 291.829 C 139.205 292.640,139.296 292.978,140.800 292.200 C 141.460 291.859,142.000 291.494,142.000 291.390 C 142.000 291.132,141.957 291.147,140.700 291.829 M233.100 291.829 C 231.605 292.640,231.696 292.978,233.200 292.200 C 233.860 291.859,234.400 291.494,234.400 291.390 C 234.400 291.132,234.357 291.147,233.100 291.829 M158.000 292.366 C 158.000 292.726,161.154 295.798,161.294 295.574 C 161.353 295.478,160.636 294.656,159.701 293.747 C 158.765 292.838,158.000 292.216,158.000 292.366 M291.978 293.900 L 290.600 295.400 292.100 294.022 C 292.925 293.263,293.600 292.588,293.600 292.522 C 293.600 292.216,293.262 292.504,291.978 293.900 M230.300 293.429 C 228.805 294.240,228.896 294.578,230.400 293.800 C 231.060 293.459,231.600 293.094,231.600 292.990 C 231.600 292.732,231.557 292.747,230.300 293.429 M136.100 294.626 C 135.165 295.187,134.400 295.740,134.400 295.855 C 134.400 296.071,137.099 294.538,137.780 293.936 C 138.467 293.328,137.827 293.591,136.100 294.626 M322.046 294.067 C 322.021 294.434,321.896 295.064,321.770 295.467 C 321.552 296.162,321.563 296.163,321.997 295.487 C 322.248 295.096,322.373 294.466,322.273 294.087 C 322.111 293.468,322.088 293.466,322.046 294.067 M228.159 294.964 C 227.954 295.498,228.994 298.000,229.421 298.000 C 229.531 298.000,229.333 297.444,228.981 296.764 C 228.630 296.084,228.439 295.274,228.559 294.964 C 228.678 294.654,228.685 294.400,228.575 294.400 C 228.465 294.400,228.278 294.654,228.159 294.964 M262.800 295.396 C 262.800 295.670,265.249 296.884,265.432 296.701 C 265.519 296.614,264.962 296.244,264.195 295.878 C 263.428 295.512,262.800 295.295,262.800 295.396 M132.544 296.769 C 131.853 297.190,131.165 297.733,131.016 297.974 C 130.792 298.337,133.375 296.758,133.956 296.177 C 134.347 295.787,133.733 296.044,132.544 296.769 M162.000 296.196 C 162.000 296.470,164.449 297.684,164.632 297.501 C 164.719 297.414,164.162 297.044,163.395 296.678 C 162.628 296.312,162.000 296.095,162.000 296.196 M269.000 298.000 C 269.440 298.189,270.070 298.344,270.400 298.344 C 270.778 298.344,270.704 298.217,270.200 298.000 C 269.760 297.811,269.130 297.656,268.800 297.656 C 268.422 297.656,268.496 297.783,269.000 298.000 M169.491 298.689 C 170.201 298.777,171.461 298.779,172.291 298.692 C 173.121 298.605,172.540 298.533,171.000 298.531 C 169.460 298.529,168.781 298.600,169.491 298.689 M230.277 299.631 C 230.675 300.308,231.256 301.073,231.568 301.331 C 231.880 301.589,231.632 301.035,231.015 300.100 C 229.720 298.137,229.209 297.812,230.277 299.631 M273.100 298.689 C 273.815 298.778,274.985 298.778,275.700 298.689 C 276.415 298.601,275.830 298.528,274.400 298.528 C 272.970 298.528,272.385 298.601,273.100 298.689 M278.707 298.690 C 279.426 298.779,280.506 298.777,281.107 298.686 C 281.708 298.595,281.120 298.522,279.800 298.524 C 278.480 298.526,277.988 298.601,278.707 298.690 M131.200 298.953 C 131.200 299.382,132.390 301.600,132.621 301.600 C 132.731 301.600,132.523 301.015,132.159 300.300 C 131.417 298.840,131.200 298.536,131.200 298.953 M319.078 302.205 C 318.712 302.972,318.495 303.600,318.596 303.600 C 318.870 303.600,320.084 301.151,319.901 300.968 C 319.814 300.881,319.444 301.438,319.078 302.205 M232.791 303.188 C 233.257 303.841,233.842 304.502,234.091 304.656 C 234.341 304.811,234.041 304.276,233.425 303.468 C 232.088 301.715,231.584 301.492,232.791 303.188 M207.878 304.205 C 207.512 304.972,207.295 305.600,207.396 305.600 C 207.670 305.600,208.884 303.151,208.701 302.968 C 208.614 302.881,208.244 303.438,207.878 304.205 M133.611 303.446 C 133.617 303.641,134.112 304.347,134.711 305.016 C 135.917 306.362,135.811 306.019,134.472 304.246 C 133.992 303.611,133.605 303.251,133.611 303.446 M317.074 305.633 C 316.455 306.495,316.028 307.200,316.127 307.200 C 316.403 307.200,318.499 304.366,318.340 304.207 C 318.263 304.130,317.693 304.772,317.074 305.633 M205.852 307.665 C 205.253 308.580,205.053 309.088,205.408 308.794 C 206.012 308.292,207.385 306.000,207.081 306.000 C 207.005 306.000,206.452 306.749,205.852 307.665 M137.680 308.772 C 138.657 309.967,140.433 311.745,141.628 312.724 L 143.800 314.504 141.676 312.552 C 140.508 311.478,138.731 309.700,137.728 308.600 L 135.904 306.600 137.680 308.772 M312.800 310.712 C 310.711 312.851,310.352 313.336,311.617 312.311 C 313.092 311.116,316.372 307.541,315.919 307.621 C 315.853 307.633,314.450 309.024,312.800 310.712 M240.144 310.709 C 240.460 311.221,242.800 312.953,242.800 312.675 C 242.800 312.576,242.139 311.991,241.332 311.375 C 240.524 310.759,239.989 310.459,240.144 310.709 M199.970 314.300 L 199.000 315.400 200.200 314.400 C 200.860 313.850,201.475 313.355,201.567 313.300 C 201.658 313.245,201.555 313.200,201.336 313.200 C 201.118 313.200,200.503 313.695,199.970 314.300 M307.829 314.811 C 306.965 315.465,306.425 315.995,306.629 315.989 C 307.007 315.978,309.965 313.621,309.600 313.622 C 309.490 313.622,308.693 314.157,307.829 314.811 M144.269 314.832 C 144.766 315.433,147.200 316.964,147.200 316.676 C 147.200 316.583,146.435 316.002,145.500 315.385 C 144.565 314.768,144.011 314.520,144.269 314.832 M246.800 315.398 C 246.800 315.665,252.449 318.485,252.627 318.306 C 252.707 318.227,251.428 317.497,249.786 316.684 C 248.144 315.871,246.800 315.293,246.800 315.398 M304.600 316.800 C 303.940 317.237,303.580 317.592,303.800 317.588 C 304.201 317.582,306.376 316.023,306.000 316.012 C 305.890 316.008,305.260 316.363,304.600 316.800 M147.600 316.979 C 147.600 317.089,148.140 317.459,148.800 317.800 C 149.460 318.141,150.000 318.331,150.000 318.221 C 150.000 318.111,149.460 317.741,148.800 317.400 C 148.140 317.059,147.600 316.869,147.600 316.979 M157.000 321.200 C 157.440 321.389,158.070 321.544,158.400 321.544 C 158.778 321.544,158.704 321.417,158.200 321.200 C 157.760 321.011,157.130 320.856,156.800 320.856 C 156.422 320.856,156.496 320.983,157.000 321.200 M261.000 321.200 C 261.440 321.389,262.070 321.544,262.400 321.544 C 262.778 321.544,262.704 321.417,262.200 321.200 C 261.760 321.011,261.130 320.856,260.800 320.856 C 260.422 320.856,260.496 320.983,261.000 321.200 M293.000 321.200 C 292.496 321.417,292.422 321.544,292.800 321.544 C 293.130 321.544,293.760 321.389,294.200 321.200 C 294.704 320.983,294.778 320.856,294.400 320.856 C 294.070 320.856,293.440 321.011,293.000 321.200 M182.400 322.000 C 181.608 322.254,181.567 322.320,182.200 322.320 C 182.640 322.320,183.450 322.176,184.000 322.000 C 184.792 321.746,184.833 321.680,184.200 321.680 C 183.760 321.680,182.950 321.824,182.400 322.000 M264.600 321.981 C 265.368 322.329,267.510 322.556,267.167 322.253 C 267.075 322.172,266.280 321.996,265.400 321.862 C 264.285 321.693,264.042 321.729,264.600 321.981 M289.000 322.000 C 287.911 322.277,287.893 322.307,288.800 322.325 C 289.350 322.335,290.160 322.189,290.600 322.000 C 291.586 321.576,290.666 321.576,289.000 322.000 M270.200 322.861 C 271.720 323.139,284.859 323.252,283.600 322.976 C 283.270 322.903,279.760 322.782,275.800 322.706 C 271.840 322.630,269.320 322.699,270.200 322.861 M169.100 323.097 C 170.695 323.173,173.305 323.173,174.900 323.097 C 176.495 323.021,175.190 322.959,172.000 322.959 C 168.810 322.959,167.505 323.021,169.100 323.097 " stroke="none" fill="#6c640c" fill-rule="evenodd"></path></g></svg>