<svg id="svg" version="1.1" width="400" height="400" viewBox="0 0 400 400" xmlns="http://www.w3.org/2000/svg" xmlns:xlink="http://www.w3.org/1999/xlink" ><g id="svgg"><path id="path0" d="M159.874 87.060 C 159.419 87.514,159.545 156.719,160.000 157.000 C 160.220 157.136,160.400 157.766,160.400 158.400 C 160.400 159.034,160.580 159.664,160.800 159.800 C 161.020 159.936,161.200 160.656,161.200 161.400 C 161.200 162.144,161.380 162.864,161.600 163.000 C 161.820 163.136,162.000 163.766,162.000 164.400 C 162.000 165.034,162.180 165.664,162.400 165.800 C 162.620 165.936,162.800 166.566,162.800 167.200 C 162.800 167.834,162.980 168.464,163.200 168.600 C 163.420 168.736,163.600 169.456,163.600 170.200 C 163.600 170.944,163.780 171.664,164.000 171.800 C 164.220 171.936,164.400 172.566,164.400 173.200 C 164.400 173.834,164.580 174.464,164.800 174.600 C 165.020 174.736,165.200 175.456,165.200 176.200 C 165.200 176.944,165.380 177.664,165.600 177.800 C 165.820 177.936,166.000 178.566,166.000 179.200 C 166.000 179.834,166.180 180.464,166.400 180.600 C 166.620 180.736,166.800 181.366,166.800 182.000 C 166.800 182.634,166.980 183.264,167.200 183.400 C 167.420 183.536,167.600 184.256,167.600 185.000 C 167.600 185.744,167.780 186.464,168.000 186.600 C 168.220 186.736,168.400 187.366,168.400 188.000 C 168.400 188.634,168.580 189.264,168.800 189.400 C 169.020 189.536,169.200 190.166,169.200 190.800 C 169.200 191.434,169.380 192.064,169.600 192.200 C 169.820 192.336,170.000 193.056,170.000 193.800 C 170.000 194.544,170.180 195.264,170.400 195.400 C 170.620 195.536,170.800 196.166,170.800 196.800 C 170.800 197.434,170.980 198.064,171.200 198.200 C 171.420 198.336,171.600 199.056,171.600 199.800 C 171.600 200.544,171.780 201.264,172.000 201.400 C 172.220 201.536,172.400 202.166,172.400 202.800 C 172.400 203.434,172.580 204.064,172.800 204.200 C 173.020 204.336,173.200 204.966,173.200 205.600 C 173.200 206.234,173.380 206.864,173.600 207.000 C 173.820 207.136,174.000 207.856,174.000 208.600 C 174.000 209.344,174.180 210.064,174.400 210.200 C 174.620 210.336,174.800 210.966,174.800 211.600 C 174.800 212.234,174.980 212.864,175.200 213.000 C 175.420 213.136,175.600 213.766,175.600 214.400 C 175.600 215.034,175.780 215.664,176.000 215.800 C 176.220 215.936,176.400 216.656,176.400 217.400 C 176.400 218.144,176.580 218.864,176.800 219.000 C 177.020 219.136,177.200 219.766,177.200 220.400 C 177.200 221.034,177.380 221.664,177.600 221.800 C 177.820 221.936,178.000 222.656,178.000 223.400 C 178.000 224.144,178.180 224.864,178.400 225.000 C 178.620 225.136,178.800 225.766,178.800 226.400 C 178.800 227.034,178.980 227.664,179.200 227.800 C 179.420 227.936,179.600 228.566,179.600 229.200 C 179.600 229.834,179.780 230.464,180.000 230.600 C 180.220 230.736,180.400 231.456,180.400 232.200 C 180.400 232.944,180.580 233.664,180.800 233.800 C 181.020 233.936,181.200 234.566,181.200 235.200 C 181.200 235.834,181.380 236.464,181.600 236.600 C 181.820 236.736,182.000 237.366,182.000 238.000 C 182.000 238.634,182.180 239.264,182.400 239.400 C 182.620 239.536,182.800 240.256,182.800 241.000 C 182.800 241.744,182.980 242.464,183.200 242.600 C 183.420 242.736,183.600 243.366,183.600 244.000 C 183.600 244.634,183.780 245.264,184.000 245.400 C 184.220 245.536,184.400 246.256,184.400 247.000 C 184.400 247.744,184.580 248.464,184.800 248.600 C 185.020 248.736,185.200 249.366,185.200 250.000 C 185.200 250.634,185.380 251.264,185.600 251.400 C 185.820 251.536,186.000 252.166,186.000 252.800 C 186.000 253.434,186.180 254.064,186.400 254.200 C 186.620 254.336,186.800 255.056,186.800 255.800 C 186.800 256.544,186.980 257.264,187.200 257.400 C 187.420 257.536,187.600 258.166,187.600 258.800 C 187.600 259.434,187.780 260.064,188.000 260.200 C 188.220 260.336,188.400 260.966,188.400 261.600 C 188.400 262.234,188.580 262.864,188.800 263.000 C 189.020 263.136,189.200 263.856,189.200 264.600 C 189.200 265.344,189.380 266.064,189.600 266.200 C 189.820 266.336,190.000 266.966,190.000 267.600 C 190.000 268.234,190.180 268.864,190.400 269.000 C 190.620 269.136,190.800 269.766,190.800 270.400 C 190.800 271.034,190.980 271.664,191.200 271.800 C 191.420 271.936,191.600 272.656,191.600 273.400 C 191.600 274.144,191.780 274.864,192.000 275.000 C 192.220 275.136,192.400 275.766,192.400 276.400 C 192.400 277.034,192.580 277.664,192.800 277.800 C 193.020 277.936,193.200 278.656,193.200 279.400 C 193.200 280.144,193.380 280.864,193.600 281.000 C 193.820 281.136,194.000 281.766,194.000 282.400 C 194.000 283.034,194.180 283.664,194.400 283.800 C 194.620 283.936,194.800 284.656,194.800 285.400 C 194.800 286.144,194.980 286.864,195.200 287.000 C 195.420 287.136,195.600 287.766,195.600 288.400 C 195.600 289.034,195.780 289.664,196.000 289.800 C 196.220 289.936,196.400 290.566,196.400 291.200 C 196.400 291.834,196.580 292.464,196.800 292.600 C 197.020 292.736,197.200 293.456,197.200 294.200 C 197.200 294.944,197.380 295.664,197.600 295.800 C 197.820 295.936,198.000 296.566,198.000 297.200 C 198.000 297.834,198.180 298.464,198.400 298.600 C 198.620 298.736,198.800 299.456,198.800 300.200 C 198.800 300.944,198.980 301.664,199.200 301.800 C 199.420 301.936,199.600 302.566,199.600 303.200 C 199.600 303.834,199.780 304.464,200.000 304.600 C 200.220 304.736,200.400 305.456,200.400 306.200 C 200.400 306.944,200.580 307.664,200.800 307.800 C 201.020 307.936,201.200 308.489,201.200 309.029 C 201.200 309.569,201.408 310.413,201.662 310.905 C 201.916 311.397,202.251 312.070,202.406 312.400 C 202.647 312.912,204.332 313.000,213.959 313.000 C 223.542 313.000,225.287 312.910,225.609 312.400 C 225.838 312.037,225.990 300.717,225.994 283.762 C 226.000 256.236,226.015 255.711,226.800 255.000 C 227.240 254.602,227.600 254.062,227.600 253.800 C 227.600 253.538,227.960 252.998,228.400 252.600 C 228.840 252.202,229.200 251.714,229.200 251.517 C 229.200 251.319,229.681 250.554,230.270 249.817 C 230.858 249.080,231.400 248.054,231.475 247.538 C 231.549 247.022,232.178 245.790,232.873 244.800 C 234.081 243.078,241.368 232.345,257.639 208.323 C 266.662 195.002,266.809 194.800,267.488 194.800 C 267.783 194.800,268.145 194.485,268.292 194.100 C 268.439 193.715,268.884 193.051,269.280 192.625 C 269.676 192.198,270.000 191.613,270.000 191.325 C 270.000 191.036,270.159 190.800,270.354 190.800 C 270.549 190.800,270.996 190.195,271.347 189.455 C 271.698 188.715,272.259 187.883,272.593 187.606 C 272.927 187.329,273.200 186.882,273.200 186.613 C 273.200 186.344,273.560 185.798,274.000 185.400 C 274.440 185.002,274.800 184.449,274.800 184.171 C 274.800 183.894,274.951 183.607,275.135 183.533 C 275.396 183.430,281.060 175.295,283.400 171.664 C 283.620 171.323,284.115 170.685,284.500 170.246 C 284.885 169.808,285.200 169.213,285.200 168.925 C 285.200 168.636,285.359 168.400,285.554 168.400 C 285.749 168.400,286.196 167.795,286.547 167.055 C 286.898 166.315,287.459 165.483,287.793 165.206 C 288.127 164.929,288.400 164.482,288.400 164.213 C 288.400 163.944,288.760 163.398,289.200 163.000 C 289.640 162.602,290.000 162.049,290.000 161.771 C 290.000 161.494,290.151 161.207,290.335 161.133 C 290.596 161.030,296.260 152.895,298.600 149.264 C 298.820 148.923,299.315 148.285,299.700 147.846 C 300.085 147.408,300.400 146.813,300.400 146.525 C 300.400 146.236,300.550 146.000,300.732 146.000 C 300.915 146.000,301.312 145.505,301.615 144.900 C 301.918 144.295,302.427 143.484,302.747 143.097 C 303.067 142.711,303.525 142.061,303.764 141.653 C 304.004 141.245,306.270 137.890,308.800 134.197 C 311.330 130.504,313.580 127.204,313.800 126.863 C 314.020 126.523,314.515 125.885,314.900 125.446 C 315.285 125.008,315.600 124.413,315.600 124.125 C 315.600 123.836,315.750 123.600,315.932 123.600 C 316.115 123.600,316.512 123.105,316.815 122.500 C 317.118 121.895,317.627 121.084,317.947 120.697 C 318.267 120.311,318.725 119.661,318.964 119.253 C 319.204 118.845,321.470 115.490,324.000 111.797 C 326.530 108.104,328.780 104.804,329.000 104.463 C 329.220 104.123,329.715 103.485,330.100 103.046 C 330.485 102.608,330.800 102.013,330.800 101.725 C 330.800 101.436,330.950 101.200,331.132 101.200 C 331.315 101.200,331.712 100.705,332.015 100.100 C 332.318 99.495,332.827 98.684,333.147 98.297 C 333.467 97.911,333.925 97.259,334.164 96.849 C 334.404 96.439,335.725 94.467,337.100 92.467 C 339.650 88.758,340.092 87.474,338.967 87.043 C 338.619 86.909,322.631 86.800,303.437 86.800 L 268.539 86.800 267.725 87.700 C 267.047 88.450,263.666 93.242,262.200 95.532 C 261.980 95.875,261.485 96.515,261.100 96.954 C 260.715 97.392,260.400 97.987,260.400 98.275 C 260.400 98.564,260.241 98.800,260.046 98.800 C 259.851 98.800,259.404 99.405,259.053 100.145 C 258.702 100.885,258.141 101.717,257.807 101.994 C 257.473 102.271,257.200 102.687,257.200 102.917 C 257.200 103.148,256.901 103.667,256.536 104.071 C 256.170 104.475,255.675 105.139,255.436 105.547 C 254.364 107.370,245.007 121.041,244.341 121.755 C 243.934 122.193,243.600 122.787,243.600 123.075 C 243.600 123.364,243.450 123.600,243.268 123.600 C 243.085 123.600,242.680 124.095,242.368 124.700 C 242.055 125.305,241.485 126.149,241.100 126.575 C 240.715 127.002,240.400 127.559,240.400 127.813 C 240.400 128.068,240.040 128.602,239.600 129.000 C 239.160 129.398,238.800 129.907,238.800 130.130 C 238.800 130.354,238.501 130.867,238.136 131.271 C 237.770 131.675,237.275 132.339,237.036 132.747 C 236.796 133.155,234.530 136.508,232.000 140.198 C 229.470 143.889,227.222 147.244,227.005 147.654 C 226.788 148.064,226.473 148.400,226.305 148.400 C 226.137 148.400,225.997 134.855,225.994 118.300 C 225.990 100.033,225.839 87.964,225.609 87.600 C 225.206 86.964,160.501 86.432,159.874 87.060 M53.324 157.053 C 53.187 157.412,53.282 158.040,53.537 158.448 C 53.792 158.855,54.000 159.721,54.000 160.371 C 54.000 161.021,54.180 161.664,54.400 161.800 C 54.620 161.936,54.800 162.566,54.800 163.200 C 54.800 163.834,54.980 164.464,55.200 164.600 C 55.420 164.736,55.600 165.366,55.600 166.000 C 55.600 166.634,55.780 167.264,56.000 167.400 C 56.220 167.536,56.400 168.256,56.400 169.000 C 56.400 169.744,56.580 170.464,56.800 170.600 C 57.020 170.736,57.200 171.366,57.200 172.000 C 57.200 172.634,57.380 173.264,57.600 173.400 C 57.820 173.536,58.000 174.256,58.000 175.000 C 58.000 175.744,58.180 176.464,58.400 176.600 C 58.620 176.736,58.800 177.366,58.800 178.000 C 58.800 178.634,58.980 179.264,59.200 179.400 C 59.420 179.536,59.600 180.166,59.600 180.800 C 59.600 181.434,59.780 182.064,60.000 182.200 C 60.220 182.336,60.400 183.056,60.400 183.800 C 60.400 184.544,60.580 185.264,60.800 185.400 C 61.020 185.536,61.200 186.166,61.200 186.800 C 61.200 187.434,61.380 188.064,61.600 188.200 C 61.820 188.336,62.000 188.966,62.000 189.600 C 62.000 190.234,62.180 190.864,62.400 191.000 C 62.620 191.136,62.800 191.856,62.800 192.600 C 62.800 193.344,62.980 194.064,63.200 194.200 C 63.420 194.336,63.600 194.966,63.600 195.600 C 63.600 196.234,63.780 196.864,64.000 197.000 C 64.220 197.136,64.400 197.856,64.400 198.600 C 64.400 199.344,64.580 200.064,64.800 200.200 C 65.020 200.336,65.200 200.966,65.200 201.600 C 65.200 202.234,65.380 202.864,65.600 203.000 C 65.820 203.136,66.000 203.766,66.000 204.400 C 66.000 205.034,66.180 205.664,66.400 205.800 C 66.620 205.936,66.800 206.656,66.800 207.400 C 66.800 208.144,66.980 208.864,67.200 209.000 C 67.420 209.136,67.600 209.766,67.600 210.400 C 67.600 211.034,67.780 211.664,68.000 211.800 C 68.220 211.936,68.400 212.566,68.400 213.200 C 68.400 213.834,68.580 214.464,68.800 214.600 C 69.020 214.736,69.200 215.456,69.200 216.200 C 69.200 216.944,69.380 217.664,69.600 217.800 C 69.820 217.936,70.000 218.566,70.000 219.200 C 70.000 219.834,70.180 220.464,70.400 220.600 C 70.620 220.736,70.800 221.456,70.800 222.200 C 70.800 222.944,70.980 223.664,71.200 223.800 C 71.420 223.936,71.600 224.566,71.600 225.200 C 71.600 225.834,71.780 226.464,72.000 226.600 C 72.220 226.736,72.400 227.366,72.400 228.000 C 72.400 228.634,72.580 229.264,72.800 229.400 C 73.020 229.536,73.200 230.256,73.200 231.000 C 73.200 231.744,73.380 232.464,73.600 232.600 C 73.820 232.736,74.000 233.366,74.000 234.000 C 74.000 234.634,74.180 235.264,74.400 235.400 C 74.620 235.536,74.800 236.166,74.800 236.800 C 74.800 237.434,74.980 238.064,75.200 238.200 C 75.420 238.336,75.600 239.056,75.600 239.800 C 75.600 240.544,75.780 241.264,76.000 241.400 C 76.220 241.536,76.400 242.166,76.400 242.800 C 76.400 243.434,76.580 244.064,76.800 244.200 C 77.020 244.336,77.200 245.056,77.200 245.800 C 77.200 246.544,77.380 247.264,77.600 247.400 C 77.820 247.536,78.000 248.166,78.000 248.800 C 78.000 249.434,78.180 250.064,78.400 250.200 C 78.620 250.336,78.800 250.966,78.800 251.600 C 78.800 252.234,78.980 252.864,79.200 253.000 C 79.420 253.136,79.600 253.856,79.600 254.600 C 79.600 255.344,79.780 256.064,80.000 256.200 C 80.220 256.336,80.400 256.966,80.400 257.600 C 80.400 258.234,80.580 258.864,80.800 259.000 C 81.020 259.136,81.200 259.766,81.200 260.400 C 81.200 261.034,81.380 261.664,81.600 261.800 C 81.820 261.936,82.000 262.656,82.000 263.400 C 82.000 264.144,82.180 264.864,82.400 265.000 C 82.620 265.136,82.800 265.766,82.800 266.400 C 82.800 267.034,82.980 267.664,83.200 267.800 C 83.420 267.936,83.600 268.656,83.600 269.400 C 83.600 270.144,83.780 270.864,84.000 271.000 C 84.220 271.136,84.400 271.766,84.400 272.400 C 84.400 273.034,84.580 273.664,84.800 273.800 C 85.020 273.936,85.200 274.566,85.200 275.200 C 85.200 275.834,85.380 276.464,85.600 276.600 C 85.820 276.736,86.000 277.349,86.000 277.962 C 86.000 279.116,87.048 281.600,87.535 281.600 C 87.687 281.600,88.122 280.925,88.501 280.100 C 88.880 279.275,89.612 277.880,90.128 277.000 C 90.643 276.120,91.846 273.960,92.800 272.200 C 93.755 270.440,94.865 268.415,95.268 267.700 C 95.671 266.985,96.329 265.815,96.732 265.100 C 97.135 264.385,98.240 262.360,99.188 260.600 C 100.136 258.840,101.041 257.220,101.198 257.000 C 101.355 256.780,102.140 255.385,102.942 253.900 C 105.906 248.412,107.374 245.752,108.473 243.882 C 109.093 242.828,109.600 241.897,109.600 241.814 C 109.600 241.731,110.500 240.105,111.600 238.200 C 112.700 236.295,113.600 234.669,113.600 234.586 C 113.600 234.503,114.108 233.572,114.729 232.518 C 115.350 231.463,116.640 229.160,117.597 227.400 C 118.553 225.640,119.665 223.615,120.068 222.900 C 120.471 222.185,121.129 221.015,121.532 220.300 C 121.935 219.585,123.040 217.560,123.988 215.800 C 124.936 214.040,125.841 212.420,125.998 212.200 C 126.155 211.980,126.966 210.540,127.801 209.000 C 128.635 207.460,130.165 204.670,131.200 202.800 C 132.235 200.930,133.765 198.140,134.599 196.600 C 135.434 195.060,136.258 193.616,136.432 193.391 C 136.990 192.666,139.200 188.331,139.200 187.959 C 139.200 187.212,138.418 187.661,136.515 189.500 C 135.434 190.545,133.571 192.287,132.375 193.371 C 131.179 194.455,128.120 197.335,125.577 199.771 C 123.034 202.207,119.974 205.088,118.777 206.174 C 117.580 207.259,114.366 210.294,111.635 212.918 L 106.669 217.689 105.229 216.145 C 104.437 215.295,102.985 213.610,102.002 212.400 C 101.019 211.190,99.931 209.930,99.585 209.600 C 99.239 209.270,98.676 208.591,98.334 208.091 C 97.992 207.592,97.102 206.512,96.356 205.691 C 95.610 204.871,94.189 203.215,93.200 202.011 C 91.374 199.792,90.670 198.963,87.795 195.650 C 85.691 193.226,82.342 189.253,81.371 188.029 C 80.947 187.495,79.878 186.235,78.995 185.229 C 78.112 184.223,76.406 182.230,75.205 180.800 C 74.004 179.370,72.916 178.110,72.787 178.000 C 72.659 177.890,72.272 177.388,71.928 176.884 C 71.584 176.380,70.506 175.120,69.533 174.084 C 68.559 173.048,67.482 171.791,67.138 171.291 C 66.794 170.792,65.902 169.712,65.156 168.891 C 64.410 168.071,62.993 166.410,62.007 165.200 C 61.021 163.990,59.931 162.730,59.585 162.400 C 59.239 162.070,58.657 161.365,58.293 160.832 C 56.125 157.668,53.775 155.880,53.324 157.053 " stroke="none" fill="#54c3ab" fill-rule="evenodd"></path><path id="path1" d="M224.800 87.092 C 225.130 87.217,225.532 87.518,225.694 87.760 C 225.875 88.031,225.990 87.932,225.994 87.500 C 225.998 87.030,225.705 86.810,225.100 86.832 C 224.499 86.853,224.399 86.939,224.800 87.092 M267.260 87.442 C 266.962 87.778,266.799 88.132,266.895 88.229 C 266.992 88.326,267.398 88.044,267.798 87.602 C 268.197 87.161,268.361 86.807,268.162 86.815 C 267.963 86.824,267.557 87.105,267.260 87.442 M339.100 87.065 C 339.375 87.176,339.600 87.522,339.600 87.833 C 339.600 88.145,339.780 88.400,340.000 88.400 C 340.220 88.400,340.400 88.040,340.400 87.600 C 340.400 87.028,340.144 86.809,339.500 86.832 C 339.005 86.849,338.825 86.954,339.100 87.065 M244.900 120.198 C 244.331 120.845,244.261 121.200,244.704 121.200 C 244.871 121.200,245.232 120.840,245.507 120.400 C 246.078 119.487,245.651 119.345,244.900 120.198 M58.451 161.098 C 59.486 162.415,60.038 162.895,60.261 162.672 C 60.384 162.549,60.024 161.988,59.461 161.424 C 58.298 160.262,57.622 160.043,58.451 161.098 M62.830 166.300 C 63.364 166.905,63.845 167.475,63.900 167.567 C 63.955 167.658,64.109 167.624,64.242 167.491 C 64.499 167.234,62.639 165.200,62.148 165.200 C 61.990 165.200,62.297 165.695,62.830 166.300 M67.251 171.495 C 68.542 173.129,69.200 173.724,69.200 173.257 C 69.200 172.743,67.436 170.800,66.969 170.800 C 66.822 170.800,66.949 171.113,67.251 171.495 M72.093 177.200 C 72.562 177.951,73.200 178.280,73.200 177.771 C 73.200 177.473,72.125 176.400,71.825 176.400 C 71.698 176.400,71.818 176.760,72.093 177.200 M76.683 182.600 C 77.297 183.370,77.858 183.825,77.930 183.611 C 78.056 183.231,76.264 181.200,75.801 181.200 C 75.672 181.200,76.069 181.830,76.683 182.600 M80.893 187.600 C 81.362 188.351,82.000 188.680,82.000 188.171 C 82.000 187.873,80.925 186.800,80.625 186.800 C 80.498 186.800,80.618 187.160,80.893 187.600 M134.064 191.062 C 129.628 195.582,130.058 195.649,134.763 191.172 C 136.827 189.207,138.265 187.614,137.958 187.631 C 137.651 187.648,135.899 189.192,134.064 191.062 M138.430 189.707 C 137.897 190.858,137.160 192.250,136.792 192.800 C 136.424 193.350,135.439 195.060,134.603 196.600 C 133.766 198.140,132.235 200.930,131.200 202.800 C 130.165 204.670,128.635 207.460,127.801 209.000 C 126.966 210.540,126.155 211.980,125.998 212.200 C 125.841 212.420,124.936 214.040,123.988 215.800 C 123.040 217.560,121.935 219.585,121.532 220.300 C 121.129 221.015,120.471 222.185,120.068 222.900 C 119.665 223.615,118.553 225.640,117.597 227.400 C 116.640 229.160,115.350 231.463,114.729 232.518 C 114.108 233.572,113.600 234.503,113.600 234.586 C 113.600 234.669,112.700 236.295,111.600 238.200 C 110.500 240.105,109.600 241.731,109.600 241.814 C 109.600 241.897,109.093 242.828,108.473 243.882 C 107.377 245.747,105.762 248.673,102.887 254.000 C 102.115 255.430,101.355 256.780,101.198 257.000 C 101.041 257.220,100.136 258.840,99.188 260.600 C 98.240 262.360,97.135 264.385,96.732 265.100 C 96.329 265.815,95.671 266.985,95.268 267.700 C 94.865 268.415,93.755 270.440,92.800 272.200 C 91.846 273.960,90.643 276.120,90.128 277.000 C 89.612 277.880,88.879 279.278,88.498 280.106 C 88.095 280.983,87.597 281.531,87.303 281.418 C 87.026 281.312,86.800 281.399,86.800 281.613 C 86.800 283.346,89.161 281.656,95.200 275.600 C 98.710 272.080,101.770 269.200,102.000 269.200 C 102.230 269.200,105.290 266.320,108.800 262.800 C 112.310 259.280,115.378 256.400,115.617 256.400 C 115.856 256.400,116.929 255.500,118.000 254.400 C 119.071 253.300,120.148 252.400,120.392 252.400 C 120.967 252.400,122.800 254.230,122.800 254.804 C 122.800 255.046,123.880 256.304,125.200 257.600 C 126.520 258.896,127.600 260.157,127.600 260.404 C 127.600 260.650,128.500 261.729,129.600 262.800 C 130.700 263.871,131.600 264.950,131.600 265.196 C 131.600 265.443,132.680 266.704,134.000 268.000 C 135.320 269.296,136.400 270.557,136.400 270.804 C 136.400 271.050,137.300 272.129,138.400 273.200 C 139.500 274.271,140.400 275.350,140.400 275.596 C 140.400 275.843,141.480 277.104,142.800 278.400 C 144.120 279.696,145.200 280.957,145.200 281.204 C 145.200 281.450,146.100 282.529,147.200 283.600 C 148.300 284.671,149.200 285.750,149.200 285.996 C 149.200 286.243,150.280 287.504,151.600 288.800 C 152.920 290.096,154.000 291.357,154.000 291.604 C 154.000 291.850,154.900 292.929,156.000 294.000 C 157.100 295.071,158.000 296.150,158.000 296.396 C 158.000 296.643,159.080 297.904,160.400 299.200 C 161.720 300.496,162.800 301.756,162.800 302.000 C 162.800 302.244,163.880 303.504,165.200 304.800 C 166.520 306.096,167.600 307.357,167.600 307.604 C 167.600 307.850,168.500 308.929,169.600 310.000 C 170.700 311.071,171.600 312.230,171.600 312.574 C 171.600 313.003,171.978 313.200,172.800 313.200 C 173.867 313.200,174.000 313.067,174.000 312.000 C 174.000 311.340,173.820 310.800,173.600 310.800 C 173.380 310.800,173.200 310.260,173.200 309.600 C 173.200 308.940,173.020 308.400,172.800 308.400 C 172.580 308.400,172.400 307.680,172.400 306.800 C 172.400 305.920,172.220 305.200,172.000 305.200 C 171.780 305.200,171.600 304.480,171.600 303.600 C 171.600 302.720,171.420 302.000,171.200 302.000 C 170.980 302.000,170.800 301.460,170.800 300.800 C 170.800 300.140,170.620 299.600,170.400 299.600 C 170.180 299.600,170.000 298.880,170.000 298.000 C 170.000 297.120,169.820 296.400,169.600 296.400 C 169.380 296.400,169.200 295.680,169.200 294.800 C 169.200 293.920,169.020 293.200,168.800 293.200 C 168.580 293.200,168.400 292.480,168.400 291.600 C 168.400 290.720,168.220 290.000,168.000 290.000 C 167.780 290.000,167.600 289.460,167.600 288.800 C 167.600 288.140,167.420 287.600,167.200 287.600 C 166.980 287.600,166.800 286.880,166.800 286.000 C 166.800 285.120,166.620 284.400,166.400 284.400 C 166.180 284.400,166.000 283.680,166.000 282.800 C 166.000 281.920,165.820 281.200,165.600 281.200 C 165.380 281.200,165.200 280.660,165.200 280.000 C 165.200 279.340,165.020 278.800,164.800 278.800 C 164.580 278.800,164.400 278.080,164.400 277.200 C 164.400 276.320,164.220 275.600,164.000 275.600 C 163.780 275.600,163.600 274.880,163.600 274.000 C 163.600 273.120,163.420 272.400,163.200 272.400 C 162.980 272.400,162.800 271.860,162.800 271.200 C 162.800 270.540,162.620 270.000,162.400 270.000 C 162.180 270.000,162.000 269.280,162.000 268.400 C 162.000 267.520,161.820 266.800,161.600 266.800 C 161.380 266.800,161.200 266.080,161.200 265.200 C 161.200 264.320,161.020 263.600,160.800 263.600 C 160.580 263.600,160.400 263.060,160.400 262.400 C 160.400 261.740,160.220 261.200,160.000 261.200 C 159.780 261.200,159.600 260.480,159.600 259.600 C 159.600 258.720,159.420 258.000,159.200 258.000 C 158.980 258.000,158.800 257.280,158.800 256.400 C 158.800 255.520,158.620 254.800,158.400 254.800 C 158.180 254.800,158.000 254.260,158.000 253.600 C 158.000 252.940,157.820 252.400,157.600 252.400 C 157.380 252.400,157.200 251.680,157.200 250.800 C 157.200 249.920,157.020 249.200,156.800 249.200 C 156.580 249.200,156.400 248.480,156.400 247.600 C 156.400 246.720,156.220 246.000,156.000 246.000 C 155.780 246.000,155.600 245.280,155.600 244.400 C 155.600 243.520,155.420 242.800,155.200 242.800 C 154.980 242.800,154.800 242.260,154.800 241.600 C 154.800 240.940,154.620 240.400,154.400 240.400 C 154.180 240.400,154.000 239.680,154.000 238.800 C 154.000 237.920,153.820 237.200,153.600 237.200 C 153.380 237.200,153.200 236.480,153.200 235.600 C 153.200 234.720,153.020 234.000,152.800 234.000 C 152.580 234.000,152.400 233.460,152.400 232.800 C 152.400 232.140,152.220 231.600,152.000 231.600 C 151.780 231.600,151.600 230.880,151.600 230.000 C 151.600 229.120,151.420 228.400,151.200 228.400 C 150.980 228.400,150.800 227.680,150.800 226.800 C 150.800 225.920,150.620 225.200,150.400 225.200 C 150.180 225.200,150.000 224.660,150.000 224.000 C 150.000 223.340,149.820 222.800,149.600 222.800 C 149.380 222.800,149.200 222.080,149.200 221.200 C 149.200 220.320,149.020 219.600,148.800 219.600 C 148.580 219.600,148.400 218.880,148.400 218.000 C 148.400 217.120,148.220 216.400,148.000 216.400 C 147.780 216.400,147.600 215.860,147.600 215.200 C 147.600 214.540,147.420 214.000,147.200 214.000 C 146.980 214.000,146.800 213.280,146.800 212.400 C 146.800 211.520,146.620 210.800,146.400 210.800 C 146.180 210.800,146.000 210.080,146.000 209.200 C 146.000 208.320,145.820 207.600,145.600 207.600 C 145.380 207.600,145.200 207.060,145.200 206.400 C 145.200 205.740,145.020 205.200,144.800 205.200 C 144.580 205.200,144.400 204.480,144.400 203.600 C 144.400 202.720,144.220 202.000,144.000 202.000 C 143.780 202.000,143.600 201.280,143.600 200.400 C 143.600 199.520,143.420 198.800,143.200 198.800 C 142.980 198.800,142.800 198.080,142.800 197.200 C 142.800 196.320,142.620 195.600,142.400 195.600 C 142.180 195.600,142.000 195.060,142.000 194.400 C 142.000 193.740,141.820 193.200,141.600 193.200 C 141.380 193.200,141.200 192.480,141.200 191.600 C 141.200 190.720,141.020 190.000,140.800 190.000 C 140.580 190.000,140.400 189.460,140.400 188.800 C 140.400 186.959,139.515 187.367,138.430 189.707 M85.483 193.000 C 86.097 193.770,86.658 194.225,86.730 194.011 C 86.856 193.631,85.064 191.600,84.601 191.600 C 84.472 191.600,84.869 192.230,85.483 193.000 M267.533 194.755 C 266.618 195.091,266.320 195.499,257.720 208.200 C 242.380 230.855,234.105 243.044,232.873 244.800 C 232.178 245.790,231.552 247.000,231.482 247.490 C 231.412 247.979,231.236 248.498,231.091 248.642 C 230.946 248.787,231.362 249.404,232.014 250.013 C 232.666 250.622,233.200 251.369,233.200 251.672 C 233.200 251.975,233.560 252.483,234.000 252.800 C 234.440 253.117,234.800 253.657,234.800 254.000 C 234.800 254.343,235.160 254.883,235.600 255.200 C 236.040 255.517,236.400 256.057,236.400 256.400 C 236.400 256.743,236.760 257.283,237.200 257.600 C 237.640 257.917,238.000 258.457,238.000 258.800 C 238.000 259.143,238.360 259.683,238.800 260.000 C 239.240 260.317,239.600 260.857,239.600 261.200 C 239.600 261.543,239.960 262.083,240.400 262.400 C 240.840 262.717,241.200 263.257,241.200 263.600 C 241.200 263.943,241.560 264.483,242.000 264.800 C 242.440 265.117,242.800 265.657,242.800 266.000 C 242.800 266.343,243.160 266.883,243.600 267.200 C 244.040 267.517,244.400 268.025,244.400 268.328 C 244.400 268.631,244.940 269.383,245.600 270.000 C 246.260 270.617,246.800 271.369,246.800 271.672 C 246.800 271.975,247.160 272.483,247.600 272.800 C 248.040 273.117,248.400 273.657,248.400 274.000 C 248.400 274.343,248.760 274.883,249.200 275.200 C 249.640 275.517,250.000 276.057,250.000 276.400 C 250.000 276.743,250.360 277.283,250.800 277.600 C 251.240 277.917,251.600 278.457,251.600 278.800 C 251.600 279.143,251.960 279.683,252.400 280.000 C 252.840 280.317,253.200 280.857,253.200 281.200 C 253.200 281.543,253.560 282.083,254.000 282.400 C 254.440 282.717,254.800 283.257,254.800 283.600 C 254.800 283.943,255.160 284.483,255.600 284.800 C 256.040 285.117,256.400 285.657,256.400 286.000 C 256.400 286.343,256.760 286.883,257.200 287.200 C 257.640 287.517,258.000 288.057,258.000 288.400 C 258.000 288.743,258.360 289.283,258.800 289.600 C 259.240 289.917,259.600 290.457,259.600 290.800 C 259.600 291.143,259.960 291.683,260.400 292.000 C 260.840 292.317,261.200 292.857,261.200 293.200 C 261.200 293.543,261.560 294.083,262.000 294.400 C 262.440 294.717,262.800 295.257,262.800 295.600 C 262.800 295.943,263.160 296.483,263.600 296.800 C 264.040 297.117,264.400 297.657,264.400 298.000 C 264.400 298.343,264.760 298.883,265.200 299.200 C 265.640 299.517,266.000 300.057,266.000 300.400 C 266.000 300.743,266.360 301.283,266.800 301.600 C 267.240 301.917,267.600 302.457,267.600 302.800 C 267.600 303.143,267.960 303.683,268.400 304.000 C 268.840 304.317,269.200 304.857,269.200 305.200 C 269.200 305.543,269.560 306.083,270.000 306.400 C 270.440 306.717,270.800 307.257,270.800 307.600 C 270.800 307.943,271.160 308.483,271.600 308.800 C 272.040 309.117,272.400 309.657,272.400 310.000 C 272.400 310.343,272.760 310.883,273.200 311.200 C 273.640 311.517,274.000 312.097,274.000 312.488 C 274.000 313.165,275.772 313.200,310.400 313.200 L 346.800 313.200 346.800 312.000 C 346.800 311.340,346.620 310.800,346.400 310.800 C 346.180 310.800,346.000 310.512,346.000 310.160 C 346.000 309.809,345.460 309.017,344.800 308.400 C 344.140 307.783,343.600 307.031,343.600 306.728 C 343.600 306.425,343.240 305.917,342.800 305.600 C 342.360 305.283,342.000 304.743,342.000 304.400 C 342.000 304.057,341.640 303.517,341.200 303.200 C 340.760 302.883,340.400 302.343,340.400 302.000 C 340.400 301.657,340.040 301.117,339.600 300.800 C 339.160 300.483,338.800 299.943,338.800 299.600 C 338.800 299.257,338.440 298.717,338.000 298.400 C 337.560 298.083,337.200 297.543,337.200 297.200 C 337.200 296.857,336.840 296.317,336.400 296.000 C 335.960 295.683,335.600 295.143,335.600 294.800 C 335.600 294.457,335.240 293.917,334.800 293.600 C 334.360 293.283,334.000 292.743,334.000 292.400 C 334.000 292.057,333.640 291.517,333.200 291.200 C 332.760 290.883,332.400 290.343,332.400 290.000 C 332.400 289.657,332.040 289.117,331.600 288.800 C 331.160 288.483,330.800 287.943,330.800 287.600 C 330.800 287.257,330.440 286.717,330.000 286.400 C 329.560 286.083,329.200 285.543,329.200 285.200 C 329.200 284.857,328.840 284.317,328.400 284.000 C 327.960 283.683,327.600 283.175,327.600 282.872 C 327.600 282.569,327.060 281.817,326.400 281.200 C 325.740 280.583,325.200 279.831,325.200 279.528 C 325.200 279.225,324.840 278.717,324.400 278.400 C 323.960 278.083,323.600 277.543,323.600 277.200 C 323.600 276.857,323.240 276.317,322.800 276.000 C 322.360 275.683,322.000 275.143,322.000 274.800 C 322.000 274.457,321.640 273.917,321.200 273.600 C 320.760 273.283,320.400 272.743,320.400 272.400 C 320.400 272.057,320.040 271.517,319.600 271.200 C 319.160 270.883,318.800 270.343,318.800 270.000 C 318.800 269.657,318.440 269.117,318.000 268.800 C 317.560 268.483,317.200 267.943,317.200 267.600 C 317.200 267.257,316.840 266.717,316.400 266.400 C 315.960 266.083,315.600 265.543,315.600 265.200 C 315.600 264.857,315.240 264.317,314.800 264.000 C 314.360 263.683,314.000 263.143,314.000 262.800 C 314.000 262.457,313.640 261.917,313.200 261.600 C 312.760 261.283,312.400 260.743,312.400 260.400 C 312.400 260.057,312.040 259.517,311.600 259.200 C 311.160 258.883,310.800 258.375,310.800 258.072 C 310.800 257.769,310.260 257.017,309.600 256.400 C 308.940 255.783,308.400 255.031,308.400 254.728 C 308.400 254.425,308.040 253.917,307.600 253.600 C 307.160 253.283,306.800 252.743,306.800 252.400 C 306.800 252.057,306.440 251.517,306.000 251.200 C 305.560 250.883,305.200 250.343,305.200 250.000 C 305.200 249.657,304.840 249.117,304.400 248.800 C 303.960 248.483,303.600 247.943,303.600 247.600 C 303.600 247.257,303.240 246.717,302.800 246.400 C 302.360 246.083,302.000 245.543,302.000 245.200 C 302.000 244.857,301.640 244.317,301.200 244.000 C 300.760 243.683,300.400 243.143,300.400 242.800 C 300.400 242.457,300.040 241.917,299.600 241.600 C 299.160 241.283,298.800 240.743,298.800 240.400 C 298.800 240.057,298.440 239.517,298.000 239.200 C 297.560 238.883,297.200 238.343,297.200 238.000 C 297.200 237.657,296.840 237.117,296.400 236.800 C 295.960 236.483,295.600 235.943,295.600 235.600 C 295.600 235.257,295.240 234.717,294.800 234.400 C 294.360 234.083,294.000 233.543,294.000 233.200 C 294.000 232.857,293.640 232.317,293.200 232.000 C 292.760 231.683,292.400 231.175,292.400 230.872 C 292.400 230.569,291.860 229.817,291.200 229.200 C 290.540 228.583,290.000 227.831,290.000 227.528 C 290.000 227.225,289.640 226.717,289.200 226.400 C 288.760 226.083,288.400 225.543,288.400 225.200 C 288.400 224.857,288.040 224.317,287.600 224.000 C 287.160 223.683,286.800 223.143,286.800 222.800 C 286.800 222.457,286.440 221.917,286.000 221.600 C 285.560 221.283,285.200 220.743,285.200 220.400 C 285.200 220.057,284.840 219.517,284.400 219.200 C 283.960 218.883,283.600 218.343,283.600 218.000 C 283.600 217.657,283.240 217.117,282.800 216.800 C 282.360 216.483,282.000 215.943,282.000 215.600 C 282.000 215.257,281.640 214.717,281.200 214.400 C 280.760 214.083,280.400 213.543,280.400 213.200 C 280.400 212.857,280.040 212.317,279.600 212.000 C 279.160 211.683,278.800 211.143,278.800 210.800 C 278.800 210.457,278.440 209.917,278.000 209.600 C 277.560 209.283,277.200 208.743,277.200 208.400 C 277.200 208.057,276.840 207.517,276.400 207.200 C 275.960 206.883,275.600 206.375,275.600 206.072 C 275.600 205.769,275.060 205.017,274.400 204.400 C 273.740 203.783,273.200 203.031,273.200 202.728 C 273.200 202.425,272.840 201.917,272.400 201.600 C 271.960 201.283,271.600 200.743,271.600 200.400 C 271.600 200.057,271.240 199.517,270.800 199.200 C 270.360 198.883,270.000 198.369,270.000 198.059 C 270.000 197.748,269.658 197.197,269.239 196.834 C 268.821 196.471,268.416 195.800,268.339 195.342 C 268.241 194.758,268.001 194.583,267.533 194.755 M89.651 197.898 C 90.686 199.215,91.238 199.695,91.461 199.472 C 91.584 199.349,91.224 198.788,90.661 198.224 C 89.498 197.062,88.822 196.843,89.651 197.898 M120.064 204.261 C 118.449 205.911,117.191 207.324,117.268 207.401 C 117.438 207.571,123.600 201.762,123.600 201.432 C 123.600 200.831,122.776 201.491,120.064 204.261 M94.030 203.100 C 94.564 203.705,95.045 204.275,95.100 204.367 C 95.155 204.458,95.309 204.424,95.442 204.291 C 95.699 204.034,93.839 202.000,93.348 202.000 C 93.190 202.000,93.497 202.495,94.030 203.100 M98.451 208.298 C 99.486 209.615,100.038 210.095,100.261 209.872 C 100.384 209.749,100.024 209.188,99.461 208.624 C 98.298 207.462,97.622 207.243,98.451 208.298 M102.830 213.500 C 103.364 214.105,103.845 214.675,103.900 214.767 C 103.955 214.858,104.109 214.824,104.242 214.691 C 104.499 214.434,102.639 212.400,102.148 212.400 C 101.990 212.400,102.297 212.895,102.830 213.500 M108.181 215.335 C 106.883 216.697,106.231 217.600,106.544 217.600 C 106.823 217.600,110.000 214.504,110.000 214.231 C 110.000 213.719,109.337 214.121,108.181 215.335 M225.600 312.371 C 225.600 312.575,225.285 312.824,224.900 312.924 C 224.373 313.062,224.423 313.119,225.100 313.154 C 225.654 313.182,226.000 312.969,226.000 312.600 C 226.000 312.270,225.910 312.000,225.800 312.000 C 225.690 312.000,225.600 312.167,225.600 312.371 " stroke="none" fill="#449c84" fill-rule="evenodd"></path></g></svg>