<svg id="svg" version="1.1" width="400" height="400" viewBox="0 0 400 400" xmlns="http://www.w3.org/2000/svg" xmlns:xlink="http://www.w3.org/1999/xlink" ><g id="svgg"><path id="path0" d="M227.700 102.165 L 226.000 103.906 226.000 107.753 C 226.000 110.051,226.161 111.600,226.400 111.600 C 226.620 111.600,226.800 111.960,226.800 112.400 C 226.800 112.840,226.980 113.200,227.200 113.200 C 227.420 113.200,227.600 113.436,227.600 113.725 C 227.600 114.013,227.920 114.598,228.311 115.025 C 228.702 115.451,229.458 116.430,229.992 117.200 C 230.525 117.970,231.286 118.891,231.681 119.247 C 232.076 119.603,232.400 120.099,232.400 120.351 C 232.400 120.602,232.940 121.372,233.600 122.063 C 234.260 122.754,234.800 123.562,234.800 123.859 C 234.800 124.157,234.980 124.400,235.200 124.400 C 235.420 124.400,235.600 124.940,235.600 125.600 C 235.600 126.260,235.780 126.800,236.000 126.800 C 236.220 126.800,236.400 127.329,236.400 127.976 C 236.400 128.623,236.580 129.264,236.800 129.400 C 237.020 129.536,237.200 130.087,237.200 130.624 C 237.200 131.161,237.380 131.600,237.600 131.600 C 237.820 131.600,238.000 132.140,238.000 132.800 C 238.000 133.460,238.180 134.000,238.400 134.000 C 238.620 134.000,238.800 134.540,238.800 135.200 C 238.800 135.860,238.980 136.400,239.200 136.400 C 239.420 136.400,239.600 136.760,239.600 137.200 C 239.600 137.640,239.780 138.000,240.000 138.000 C 240.220 138.000,240.400 138.234,240.400 138.520 C 240.400 139.256,241.341 141.193,241.700 141.197 C 241.865 141.199,242.000 141.560,242.000 142.000 C 242.000 142.440,242.180 142.800,242.400 142.800 C 242.620 142.800,242.800 143.084,242.800 143.431 C 242.800 143.779,243.522 144.757,244.405 145.605 C 245.297 146.461,245.830 147.258,245.605 147.397 C 245.382 147.535,245.200 148.177,245.200 148.824 C 245.200 149.471,245.020 150.000,244.800 150.000 C 244.580 150.000,244.400 150.720,244.400 151.600 C 244.400 152.480,244.220 153.200,244.000 153.200 C 243.780 153.200,243.600 153.920,243.600 154.800 C 243.600 155.680,243.420 156.400,243.200 156.400 C 242.947 156.400,242.800 159.333,242.800 164.400 C 242.800 169.467,242.947 172.400,243.200 172.400 C 243.420 172.400,243.600 173.120,243.600 174.000 C 243.600 174.880,243.780 175.600,244.000 175.600 C 244.220 175.600,244.400 176.140,244.400 176.800 C 244.400 177.460,244.580 178.000,244.800 178.000 C 245.020 178.000,245.200 178.360,245.200 178.800 C 245.200 179.240,245.380 179.600,245.600 179.600 C 245.820 179.600,246.000 179.960,246.000 180.400 C 246.000 180.840,246.180 181.200,246.400 181.200 C 246.620 181.200,246.800 181.476,246.800 181.813 C 246.800 184.359,254.991 188.356,256.200 186.400 C 256.336 186.180,256.797 186.000,257.224 186.000 C 257.651 186.000,258.000 185.764,258.000 185.475 C 258.000 185.187,258.360 184.564,258.800 184.092 C 259.398 183.450,259.600 182.681,259.600 181.040 C 259.600 179.834,259.780 178.736,260.000 178.600 C 260.220 178.464,260.400 177.913,260.400 177.376 C 260.400 176.839,260.580 176.400,260.800 176.400 C 261.020 176.400,261.200 176.760,261.200 177.200 C 261.200 177.640,261.380 178.000,261.600 178.000 C 261.820 178.000,262.000 178.360,262.000 178.800 C 262.000 179.240,262.180 179.600,262.400 179.600 C 262.620 179.600,262.800 179.960,262.800 180.400 C 262.800 180.840,262.941 181.200,263.114 181.200 C 263.286 181.200,263.750 181.746,264.145 182.414 C 265.028 183.909,270.494 189.461,272.400 190.798 C 273.170 191.338,274.825 192.820,276.078 194.090 C 278.004 196.043,278.575 196.400,279.778 196.400 C 281.729 196.400,281.652 195.349,279.591 193.823 C 278.716 193.176,278.000 192.523,278.000 192.372 C 278.000 192.221,277.100 191.153,276.000 190.000 C 274.900 188.847,274.000 187.695,274.000 187.440 C 274.000 187.185,273.640 186.717,273.200 186.400 C 272.760 186.083,272.400 185.627,272.400 185.387 C 272.400 185.147,272.085 184.594,271.700 184.158 C 270.812 183.153,269.617 181.209,269.329 180.300 C 269.207 179.915,268.948 179.600,268.753 179.600 C 268.559 179.600,268.400 179.240,268.400 178.800 C 268.400 178.360,268.220 178.000,268.000 178.000 C 267.780 178.000,267.600 177.640,267.600 177.200 C 267.600 176.760,267.450 176.400,267.267 176.400 C 266.805 176.400,264.400 171.656,264.400 170.744 C 264.400 170.335,264.265 169.999,264.100 169.997 C 263.741 169.993,262.800 168.056,262.800 167.320 C 262.800 167.034,262.620 166.800,262.400 166.800 C 262.180 166.800,262.000 166.361,262.000 165.824 C 262.000 165.287,261.820 164.736,261.600 164.600 C 261.380 164.464,261.200 164.003,261.200 163.576 C 261.200 162.241,259.121 162.548,258.257 164.011 C 257.864 164.677,257.105 165.659,256.571 166.193 C 256.037 166.727,255.600 167.431,255.600 167.758 C 255.600 168.085,255.420 168.464,255.200 168.600 C 254.980 168.736,254.800 169.276,254.800 169.800 C 254.800 170.324,254.620 170.864,254.400 171.000 C 254.180 171.136,254.000 172.126,254.000 173.200 C 254.000 174.274,253.820 175.264,253.600 175.400 C 253.380 175.536,253.200 176.717,253.200 178.024 C 253.200 179.331,253.097 180.400,252.971 180.400 C 252.502 180.400,251.600 179.235,251.600 178.629 C 251.600 178.283,251.420 178.000,251.200 178.000 C 250.980 178.000,250.800 177.640,250.800 177.200 C 250.800 176.760,250.620 176.400,250.400 176.400 C 250.180 176.400,250.000 176.040,250.000 175.600 C 250.000 175.160,249.820 174.800,249.600 174.800 C 249.380 174.800,249.200 174.361,249.200 173.824 C 249.200 173.287,249.020 172.736,248.800 172.600 C 248.580 172.464,248.400 171.463,248.400 170.376 C 248.400 169.289,248.220 168.400,248.000 168.400 C 247.758 168.400,247.600 166.675,247.600 164.024 C 247.600 161.537,247.773 159.540,248.000 159.400 C 248.220 159.264,248.400 158.364,248.400 157.400 C 248.400 156.436,248.580 155.536,248.800 155.400 C 249.020 155.264,249.200 154.713,249.200 154.176 C 249.200 153.639,249.380 153.200,249.600 153.200 C 249.820 153.200,250.000 152.761,250.000 152.224 C 250.000 151.687,250.180 151.136,250.400 151.000 C 250.620 150.864,250.800 150.223,250.800 149.576 C 250.800 148.929,250.980 148.400,251.200 148.400 C 251.420 148.400,251.600 147.680,251.600 146.800 C 251.600 145.920,251.420 145.200,251.200 145.200 C 250.980 145.200,250.800 144.916,250.800 144.569 C 250.800 144.221,250.125 143.270,249.300 142.454 C 248.475 141.637,247.558 140.547,247.262 140.030 C 245.510 136.967,245.200 136.299,245.200 135.588 C 245.200 135.155,245.020 134.800,244.800 134.800 C 244.580 134.800,244.400 134.440,244.400 134.000 C 244.400 133.560,244.220 133.200,244.000 133.200 C 243.780 133.200,243.600 132.671,243.600 132.024 C 243.600 131.377,243.420 130.736,243.200 130.600 C 242.980 130.464,242.800 129.924,242.800 129.400 C 242.800 128.876,242.620 128.336,242.400 128.200 C 242.180 128.064,242.000 127.524,242.000 127.000 C 242.000 126.476,241.820 125.936,241.600 125.800 C 241.380 125.664,241.200 125.113,241.200 124.576 C 241.200 124.039,241.020 123.600,240.800 123.600 C 240.580 123.600,240.400 123.347,240.400 123.038 C 240.400 122.499,238.835 119.214,238.381 118.800 C 238.260 118.690,237.729 117.970,237.200 117.200 C 236.671 116.430,236.131 115.710,236.000 115.600 C 235.869 115.490,235.325 114.770,234.792 114.000 C 234.258 113.230,233.502 112.251,233.111 111.825 C 232.720 111.398,232.400 110.813,232.400 110.525 C 232.400 110.236,232.220 110.000,232.000 110.000 C 231.780 110.000,231.600 109.640,231.600 109.200 C 231.600 108.760,231.420 108.400,231.200 108.400 C 230.548 108.400,230.744 107.375,231.531 106.662 C 232.323 105.945,234.800 105.747,234.800 106.400 C 234.800 106.620,235.160 106.800,235.600 106.800 C 236.040 106.800,236.400 106.980,236.400 107.200 C 236.400 107.420,236.839 107.600,237.376 107.600 C 237.913 107.600,238.464 107.780,238.600 108.000 C 238.736 108.220,239.197 108.400,239.624 108.400 C 240.051 108.400,240.400 108.580,240.400 108.800 C 240.400 109.020,240.720 109.200,241.112 109.200 C 241.503 109.200,242.083 109.560,242.400 110.000 C 242.717 110.440,243.209 110.800,243.492 110.800 C 243.775 110.800,244.572 111.340,245.263 112.000 C 245.954 112.660,246.762 113.200,247.059 113.200 C 247.357 113.200,247.600 113.380,247.600 113.600 C 247.600 113.842,249.333 114.000,252.000 114.000 C 254.667 114.000,256.400 114.158,256.400 114.400 C 256.400 114.620,256.940 114.800,257.600 114.800 C 258.260 114.800,258.800 114.980,258.800 115.200 C 258.800 115.420,259.340 115.600,260.000 115.600 C 260.660 115.600,261.200 115.780,261.200 116.000 C 261.200 116.220,261.434 116.400,261.720 116.400 C 262.456 116.400,264.393 117.341,264.397 117.700 C 264.399 117.865,264.760 118.000,265.200 118.000 C 265.640 118.000,266.000 118.180,266.000 118.400 C 266.000 118.620,266.360 118.800,266.800 118.800 C 267.240 118.800,267.600 118.980,267.600 119.200 C 267.600 119.420,267.836 119.600,268.125 119.600 C 268.413 119.600,269.036 119.960,269.508 120.400 C 269.980 120.840,270.527 121.200,270.724 121.200 C 270.921 121.200,271.646 121.740,272.337 122.400 C 273.028 123.060,273.788 123.600,274.028 123.600 C 274.267 123.600,275.176 124.320,276.047 125.200 C 276.918 126.080,277.772 126.800,277.945 126.800 C 278.418 126.800,283.643 131.973,285.007 133.791 C 285.663 134.666,286.695 135.908,287.300 136.550 C 287.905 137.193,288.400 137.896,288.400 138.112 C 288.400 138.329,288.716 138.797,289.103 139.153 C 289.489 139.509,290.060 140.295,290.370 140.900 C 290.681 141.505,291.085 142.000,291.268 142.000 C 291.450 142.000,291.600 142.278,291.600 142.617 C 291.600 142.956,291.960 143.620,292.400 144.092 C 292.840 144.564,293.200 145.187,293.200 145.475 C 293.200 145.764,293.380 146.000,293.600 146.000 C 293.820 146.000,294.000 146.360,294.000 146.800 C 294.000 147.240,294.180 147.600,294.400 147.600 C 294.620 147.600,294.800 147.960,294.800 148.400 C 294.800 148.840,294.980 149.200,295.200 149.200 C 295.420 149.200,295.600 149.562,295.600 150.005 C 295.600 150.783,295.742 151.169,296.738 153.095 C 296.992 153.587,297.200 154.352,297.200 154.795 C 297.200 155.238,297.380 155.600,297.600 155.600 C 297.820 155.600,298.000 155.960,298.000 156.400 C 298.000 156.840,298.180 157.200,298.400 157.200 C 298.620 157.200,298.800 157.560,298.800 158.000 C 298.800 158.440,298.980 158.800,299.200 158.800 C 299.420 158.800,299.600 159.160,299.600 159.600 C 299.600 160.040,299.780 160.400,300.000 160.400 C 300.220 160.400,300.400 160.760,300.400 161.200 C 300.400 161.640,300.580 162.000,300.800 162.000 C 301.020 162.000,301.200 162.360,301.200 162.800 C 301.200 163.240,301.380 163.600,301.600 163.600 C 301.820 163.600,302.000 163.949,302.000 164.376 C 302.000 164.803,302.180 165.264,302.400 165.400 C 302.620 165.536,302.800 166.087,302.800 166.624 C 302.800 167.161,302.980 167.600,303.200 167.600 C 303.420 167.600,303.600 167.960,303.600 168.400 C 303.600 168.840,303.780 169.200,304.000 169.200 C 304.220 169.200,304.400 169.560,304.400 170.000 C 304.400 170.440,304.580 170.800,304.800 170.800 C 305.020 170.800,305.200 171.160,305.200 171.600 C 305.200 172.040,305.380 172.400,305.600 172.400 C 305.820 172.400,306.000 172.582,306.000 172.805 C 306.000 173.774,308.650 177.111,309.779 177.563 C 310.450 177.832,311.313 178.221,311.695 178.426 C 312.077 178.632,312.741 178.800,313.171 178.800 C 313.601 178.800,314.064 178.980,314.200 179.200 C 314.336 179.420,314.887 179.600,315.424 179.600 C 315.961 179.600,316.400 179.780,316.400 180.000 C 316.400 180.220,316.940 180.400,317.600 180.400 C 318.260 180.400,318.800 180.580,318.800 180.800 C 318.800 181.020,319.143 181.200,319.562 181.200 C 320.469 181.200,323.600 182.808,323.600 183.274 C 323.600 183.453,323.836 183.600,324.125 183.600 C 324.413 183.600,325.036 183.960,325.508 184.400 C 325.980 184.840,326.509 185.200,326.683 185.201 C 326.857 185.201,327.630 185.741,328.400 186.400 C 329.170 187.059,329.985 187.599,330.212 187.599 C 330.438 187.600,330.883 187.960,331.200 188.400 C 331.517 188.840,332.014 189.200,332.305 189.200 C 332.596 189.200,333.220 189.560,333.692 190.000 L 334.551 190.800 331.075 190.800 C 329.025 190.800,327.600 190.964,327.600 191.200 C 327.600 191.420,326.700 191.600,325.600 191.600 C 324.500 191.600,323.600 191.780,323.600 192.000 C 323.600 192.220,323.071 192.400,322.424 192.400 C 321.777 192.400,321.136 192.580,321.000 192.800 C 320.864 193.020,320.439 193.200,320.056 193.200 C 318.041 193.200,315.726 195.486,316.728 196.488 C 316.988 196.748,317.200 197.374,317.200 197.880 C 317.200 198.386,317.341 198.800,317.514 198.800 C 317.686 198.800,318.140 199.329,318.522 199.976 C 319.416 201.489,321.813 203.956,323.600 205.202 C 324.370 205.739,325.349 206.498,325.775 206.889 C 326.202 207.280,326.772 207.600,327.042 207.600 C 327.312 207.600,327.593 207.735,327.667 207.900 C 327.855 208.324,332.799 210.800,333.456 210.800 C 333.755 210.800,334.000 210.980,334.000 211.200 C 334.000 211.420,334.360 211.600,334.800 211.600 C 335.240 211.600,335.600 211.780,335.600 212.000 C 335.600 212.220,335.836 212.400,336.125 212.400 C 336.413 212.400,337.036 212.760,337.508 213.200 C 337.980 213.640,338.509 214.000,338.683 214.001 C 338.857 214.001,339.630 214.541,340.400 215.200 C 341.170 215.859,341.953 216.399,342.140 216.399 C 342.326 216.400,342.983 216.940,343.600 217.600 C 344.289 218.338,345.121 218.800,345.760 218.800 C 346.649 218.800,346.800 218.625,346.800 217.600 C 346.800 216.940,346.620 216.400,346.400 216.400 C 346.180 216.400,346.000 216.126,346.000 215.791 C 346.000 215.034,335.804 204.774,334.300 204.018 C 333.695 203.714,333.200 203.315,333.200 203.132 C 333.200 202.950,332.840 202.800,332.400 202.800 C 331.960 202.800,331.600 202.620,331.600 202.400 C 331.600 202.180,331.364 202.000,331.075 202.000 C 330.787 202.000,330.164 201.640,329.692 201.200 C 329.220 200.760,328.691 200.400,328.517 200.400 C 328.117 200.399,326.000 198.594,326.000 198.253 C 326.000 198.114,326.540 198.000,327.200 198.000 C 327.860 198.000,328.400 197.820,328.400 197.600 C 328.400 197.380,328.940 197.200,329.600 197.200 C 330.260 197.200,330.800 197.020,330.800 196.800 C 330.800 196.572,331.992 196.400,333.576 196.400 C 335.103 196.400,336.464 196.220,336.600 196.000 C 336.736 195.780,337.647 195.600,338.624 195.600 C 339.601 195.600,340.400 195.420,340.400 195.200 C 340.400 194.980,340.940 194.800,341.600 194.800 C 342.701 194.800,342.800 194.686,342.800 193.424 C 342.800 192.107,335.312 183.601,334.152 183.600 C 333.958 183.599,333.260 183.134,332.600 182.565 C 331.940 181.996,330.905 181.237,330.300 180.879 C 329.695 180.521,329.200 180.086,329.200 179.914 C 329.200 179.741,328.964 179.600,328.675 179.600 C 328.387 179.600,327.802 179.285,327.375 178.900 C 326.949 178.515,326.105 177.945,325.500 177.632 C 324.895 177.320,324.400 176.915,324.400 176.732 C 324.400 176.550,324.166 176.400,323.880 176.400 C 323.144 176.400,321.207 175.459,321.203 175.100 C 321.201 174.935,320.660 174.800,320.000 174.800 C 319.340 174.800,318.800 174.620,318.800 174.400 C 318.800 174.180,318.440 174.000,318.000 174.000 C 317.560 174.000,317.200 173.820,317.200 173.600 C 317.200 173.380,316.840 173.200,316.400 173.200 C 315.960 173.200,315.600 173.020,315.600 172.800 C 315.600 172.580,315.272 172.400,314.872 172.400 C 314.034 172.400,312.400 170.680,312.400 169.797 C 312.400 169.469,312.220 169.200,312.000 169.200 C 311.780 169.200,311.600 168.840,311.600 168.400 C 311.600 167.960,311.420 167.600,311.200 167.600 C 310.980 167.600,310.800 167.240,310.800 166.800 C 310.800 166.360,310.620 166.000,310.400 166.000 C 310.180 166.000,310.000 165.640,310.000 165.200 C 310.000 164.760,309.820 164.400,309.600 164.400 C 309.380 164.400,309.200 164.040,309.200 163.600 C 309.200 163.160,309.020 162.800,308.800 162.800 C 308.580 162.800,308.400 162.440,308.400 162.000 C 308.400 161.560,308.220 161.200,308.000 161.200 C 307.780 161.200,307.600 160.840,307.600 160.400 C 307.600 159.960,307.420 159.600,307.200 159.600 C 306.980 159.600,306.800 159.335,306.800 159.012 C 306.800 158.689,306.440 157.783,306.000 157.000 C 305.560 156.217,305.200 155.221,305.200 154.788 C 305.200 154.355,305.020 154.000,304.800 154.000 C 304.580 154.000,304.400 153.640,304.400 153.200 C 304.400 152.760,304.220 152.400,304.000 152.400 C 303.780 152.400,303.600 152.051,303.600 151.624 C 303.600 151.197,303.420 150.736,303.200 150.600 C 302.980 150.464,302.800 149.913,302.800 149.376 C 302.800 148.839,302.620 148.400,302.400 148.400 C 302.180 148.400,302.000 148.040,302.000 147.600 C 302.000 147.160,301.820 146.800,301.600 146.800 C 301.380 146.800,301.200 146.260,301.200 145.600 C 301.200 144.940,301.020 144.400,300.800 144.400 C 300.580 144.400,300.400 144.080,300.400 143.688 C 300.400 143.297,300.040 142.717,299.600 142.400 C 299.160 142.083,298.800 141.503,298.800 141.112 C 298.800 140.720,298.650 140.400,298.468 140.400 C 298.285 140.400,297.880 139.905,297.568 139.300 C 297.255 138.695,296.685 137.851,296.300 137.425 C 295.915 136.998,295.600 136.501,295.600 136.321 C 295.600 136.140,295.060 135.428,294.400 134.737 C 293.740 134.046,293.200 133.336,293.200 133.159 C 293.200 132.132,283.044 122.026,279.571 119.597 C 278.817 119.070,277.930 118.358,277.600 118.016 C 277.270 117.674,276.505 117.140,275.900 116.830 C 275.295 116.519,274.800 116.115,274.800 115.932 C 274.800 115.750,274.564 115.600,274.275 115.600 C 273.987 115.600,273.394 115.285,272.958 114.900 C 271.953 114.012,270.009 112.817,269.100 112.529 C 268.715 112.407,268.400 112.148,268.400 111.953 C 268.400 111.759,268.040 111.600,267.600 111.600 C 267.160 111.600,266.800 111.420,266.800 111.200 C 266.800 110.980,266.440 110.800,266.000 110.800 C 265.560 110.800,265.200 110.620,265.200 110.400 C 265.200 110.180,264.671 110.000,264.024 110.000 C 263.377 110.000,262.736 109.820,262.600 109.600 C 262.464 109.380,261.744 109.200,261.000 109.200 C 260.256 109.200,259.536 109.020,259.400 108.800 C 259.264 108.580,257.633 108.400,255.776 108.400 C 253.792 108.400,252.400 108.235,252.400 108.000 C 252.400 107.780,251.942 107.600,251.382 107.600 C 250.822 107.600,249.927 107.163,249.393 106.629 C 248.859 106.095,247.877 105.336,247.211 104.943 C 246.545 104.549,246.000 104.086,246.000 103.914 C 246.000 103.741,245.640 103.600,245.200 103.600 C 244.760 103.600,244.400 103.420,244.400 103.200 C 244.400 102.980,244.040 102.800,243.600 102.800 C 243.160 102.800,242.800 102.620,242.800 102.400 C 242.800 102.180,242.361 102.000,241.824 102.000 C 241.287 102.000,240.736 101.820,240.600 101.600 C 240.464 101.380,240.003 101.200,239.576 101.200 C 239.149 101.200,238.800 101.020,238.800 100.800 C 238.800 100.555,236.974 100.405,234.100 100.412 L 229.400 100.423 227.700 102.165 M249.200 121.200 C 249.200 121.640,249.380 122.000,249.600 122.000 C 249.820 122.000,250.000 122.243,250.000 122.541 C 250.000 122.838,250.540 123.646,251.200 124.337 C 251.860 125.028,252.400 125.864,252.400 126.196 C 252.400 126.528,252.580 126.800,252.800 126.800 C 253.020 126.800,253.200 127.083,253.200 127.429 C 253.200 128.320,254.193 129.200,255.200 129.200 C 257.625 129.200,258.170 123.832,255.969 121.631 C 254.381 120.042,249.200 119.712,249.200 121.200 M58.000 215.592 C 58.000 216.931,57.822 218.000,57.600 218.000 C 57.363 218.000,57.200 219.467,57.200 221.600 C 57.200 223.733,57.037 225.200,56.800 225.200 C 56.560 225.200,56.400 226.800,56.400 229.200 C 56.400 231.600,56.240 233.200,56.000 233.200 C 55.756 233.200,55.600 235.067,55.600 238.000 C 55.600 240.933,55.444 242.800,55.200 242.800 C 54.952 242.800,54.800 244.925,54.800 248.376 C 54.800 251.663,54.636 254.054,54.400 254.200 C 54.157 254.350,54.000 257.330,54.000 261.800 C 54.000 266.270,53.843 269.250,53.600 269.400 C 53.361 269.548,53.200 272.137,53.200 275.824 L 53.200 282.000 59.200 282.000 L 65.200 282.000 65.200 272.024 C 65.200 265.804,65.351 261.954,65.600 261.800 C 65.846 261.648,66.000 258.270,66.000 253.000 C 66.000 247.730,66.154 244.352,66.400 244.200 C 66.637 244.054,66.800 241.596,66.800 238.176 C 66.800 234.592,66.952 232.400,67.200 232.400 C 67.420 232.400,67.600 232.940,67.600 233.600 C 67.600 234.260,67.780 234.800,68.000 234.800 C 68.220 234.800,68.400 235.340,68.400 236.000 C 68.400 236.660,68.580 237.200,68.800 237.200 C 69.020 237.200,69.200 237.729,69.200 238.376 C 69.200 239.023,69.380 239.664,69.600 239.800 C 69.820 239.936,70.000 240.667,70.000 241.424 C 70.000 242.181,70.180 242.800,70.400 242.800 C 70.620 242.800,70.800 243.340,70.800 244.000 C 70.800 244.660,70.980 245.200,71.200 245.200 C 71.420 245.200,71.600 245.639,71.600 246.176 C 71.600 246.713,71.780 247.264,72.000 247.400 C 72.220 247.536,72.400 248.076,72.400 248.600 C 72.400 249.124,72.580 249.664,72.800 249.800 C 73.020 249.936,73.200 250.577,73.200 251.224 C 73.200 251.871,73.380 252.400,73.600 252.400 C 73.820 252.400,74.000 252.940,74.000 253.600 C 74.000 254.260,74.180 254.800,74.400 254.800 C 74.620 254.800,74.800 255.329,74.800 255.976 C 74.800 256.623,74.980 257.264,75.200 257.400 C 75.420 257.536,75.600 258.267,75.600 259.024 C 75.600 259.781,75.780 260.400,76.000 260.400 C 76.220 260.400,76.400 260.940,76.400 261.600 C 76.400 262.260,76.580 262.800,76.800 262.800 C 77.020 262.800,77.200 263.239,77.200 263.776 C 77.200 264.313,77.380 264.864,77.600 265.000 C 77.820 265.136,78.000 265.676,78.000 266.200 C 78.000 266.724,78.180 267.264,78.400 267.400 C 78.620 267.536,78.800 268.177,78.800 268.824 C 78.800 269.471,78.980 270.000,79.200 270.000 C 79.420 270.000,79.600 270.529,79.600 271.176 C 79.600 271.823,79.780 272.464,80.000 272.600 C 80.220 272.736,80.400 273.276,80.400 273.800 C 80.400 274.324,80.580 274.864,80.800 275.000 C 81.020 275.136,81.200 275.867,81.200 276.624 C 81.200 277.381,81.380 278.000,81.600 278.000 C 81.820 278.000,82.000 278.540,82.000 279.200 C 82.000 279.860,82.180 280.400,82.400 280.400 C 82.620 280.400,82.800 280.760,82.800 281.200 C 82.800 281.958,83.067 282.000,87.829 282.000 C 93.389 282.000,94.000 281.768,94.000 279.652 C 94.000 278.989,94.180 278.336,94.400 278.200 C 94.620 278.064,94.800 277.524,94.800 277.000 C 94.800 276.476,94.980 275.936,95.200 275.800 C 95.420 275.664,95.600 275.023,95.600 274.376 C 95.600 273.729,95.780 273.200,96.000 273.200 C 96.220 273.200,96.400 272.660,96.400 272.000 C 96.400 271.340,96.580 270.800,96.800 270.800 C 97.020 270.800,97.200 270.271,97.200 269.624 C 97.200 268.977,97.380 268.336,97.600 268.200 C 97.820 268.064,98.000 267.524,98.000 267.000 C 98.000 266.476,98.180 265.936,98.400 265.800 C 98.620 265.664,98.800 265.113,98.800 264.576 C 98.800 264.039,98.980 263.600,99.200 263.600 C 99.420 263.600,99.600 263.060,99.600 262.400 C 99.600 261.740,99.780 261.200,100.000 261.200 C 100.220 261.200,100.400 260.581,100.400 259.824 C 100.400 259.067,100.580 258.336,100.800 258.200 C 101.020 258.064,101.200 257.524,101.200 257.000 C 101.200 256.476,101.380 255.936,101.600 255.800 C 101.820 255.664,102.000 255.023,102.000 254.376 C 102.000 253.729,102.180 253.200,102.400 253.200 C 102.620 253.200,102.800 252.660,102.800 252.000 C 102.800 251.340,102.980 250.800,103.200 250.800 C 103.420 250.800,103.600 250.271,103.600 249.624 C 103.600 248.977,103.780 248.336,104.000 248.200 C 104.220 248.064,104.400 247.524,104.400 247.000 C 104.400 246.476,104.580 245.936,104.800 245.800 C 105.020 245.664,105.200 245.113,105.200 244.576 C 105.200 244.039,105.380 243.600,105.600 243.600 C 105.820 243.600,106.000 243.060,106.000 242.400 C 106.000 241.740,106.180 241.200,106.400 241.200 C 106.620 241.200,106.800 240.581,106.800 239.824 C 106.800 239.067,106.980 238.336,107.200 238.200 C 107.420 238.064,107.600 237.423,107.600 236.776 C 107.600 236.129,107.780 235.600,108.000 235.600 C 108.220 235.600,108.400 235.060,108.400 234.400 C 108.400 233.740,108.580 233.200,108.800 233.200 C 109.020 233.200,109.200 233.729,109.200 234.376 C 109.200 235.023,109.380 235.664,109.600 235.800 C 109.829 235.941,110.000 237.996,110.000 240.600 C 110.000 243.204,110.171 245.259,110.400 245.400 C 110.637 245.546,110.800 247.996,110.800 251.400 C 110.800 254.804,110.963 257.254,111.200 257.400 C 111.448 257.553,111.600 261.204,111.600 267.024 C 111.600 273.008,111.745 276.400,112.000 276.400 C 112.229 276.400,112.400 277.600,112.400 279.200 L 112.400 282.000 118.800 282.000 L 125.200 282.000 125.200 278.424 C 125.200 276.457,125.020 274.736,124.800 274.600 C 124.556 274.449,124.400 271.329,124.400 266.576 C 124.400 261.659,124.253 258.800,124.000 258.800 C 123.752 258.800,123.600 256.667,123.600 253.200 C 123.600 249.733,123.448 247.600,123.200 247.600 C 122.957 247.600,122.800 245.808,122.800 243.024 C 122.800 240.404,122.629 238.342,122.400 238.200 C 122.177 238.062,122.000 236.204,122.000 234.000 C 122.000 231.796,121.823 229.938,121.600 229.800 C 121.380 229.664,121.200 227.954,121.200 226.000 C 121.200 224.046,121.020 222.336,120.800 222.200 C 120.580 222.064,120.400 220.343,120.400 218.376 C 120.400 216.259,120.237 214.800,120.000 214.800 C 119.780 214.800,119.600 214.440,119.600 214.000 C 119.600 213.230,119.333 213.200,112.480 213.200 C 104.963 213.200,104.400 213.329,104.400 215.056 C 104.400 215.549,104.220 216.064,104.000 216.200 C 103.780 216.336,103.600 216.977,103.600 217.624 C 103.600 218.271,103.420 218.800,103.200 218.800 C 102.980 218.800,102.800 219.340,102.800 220.000 C 102.800 220.660,102.620 221.200,102.400 221.200 C 102.180 221.200,102.000 221.740,102.000 222.400 C 102.000 223.060,101.820 223.600,101.600 223.600 C 101.380 223.600,101.200 224.140,101.200 224.800 C 101.200 225.460,101.020 226.000,100.800 226.000 C 100.580 226.000,100.400 226.540,100.400 227.200 C 100.400 227.860,100.220 228.400,100.000 228.400 C 99.780 228.400,99.600 228.940,99.600 229.600 C 99.600 230.260,99.420 230.800,99.200 230.800 C 98.980 230.800,98.800 231.340,98.800 232.000 C 98.800 232.660,98.620 233.200,98.400 233.200 C 98.180 233.200,98.000 233.740,98.000 234.400 C 98.000 235.060,97.820 235.600,97.600 235.600 C 97.380 235.600,97.200 236.140,97.200 236.800 C 97.200 237.460,97.020 238.000,96.800 238.000 C 96.580 238.000,96.400 238.540,96.400 239.200 C 96.400 239.860,96.220 240.400,96.000 240.400 C 95.780 240.400,95.600 240.940,95.600 241.600 C 95.600 242.260,95.420 242.800,95.200 242.800 C 94.980 242.800,94.800 243.329,94.800 243.976 C 94.800 244.623,94.620 245.264,94.400 245.400 C 94.180 245.536,94.000 246.076,94.000 246.600 C 94.000 247.124,93.820 247.664,93.600 247.800 C 93.380 247.936,93.200 248.476,93.200 249.000 C 93.200 249.524,93.020 250.064,92.800 250.200 C 92.580 250.336,92.400 250.876,92.400 251.400 C 92.400 251.924,92.220 252.464,92.000 252.600 C 91.780 252.736,91.600 253.276,91.600 253.800 C 91.600 254.324,91.420 254.864,91.200 255.000 C 90.980 255.136,90.800 255.676,90.800 256.200 C 90.800 256.724,90.620 257.264,90.400 257.400 C 90.180 257.536,90.000 258.057,90.000 258.557 C 90.000 259.057,89.882 259.585,89.737 259.730 C 89.287 260.180,88.400 259.149,88.400 258.175 C 88.400 257.665,88.220 257.136,88.000 257.000 C 87.780 256.864,87.600 256.324,87.600 255.800 C 87.600 255.276,87.420 254.736,87.200 254.600 C 86.980 254.464,86.800 253.924,86.800 253.400 C 86.800 252.876,86.620 252.336,86.400 252.200 C 86.180 252.064,86.000 251.524,86.000 251.000 C 86.000 250.476,85.820 249.936,85.600 249.800 C 85.380 249.664,85.200 249.124,85.200 248.600 C 85.200 248.076,85.020 247.536,84.800 247.400 C 84.580 247.264,84.400 246.533,84.400 245.776 C 84.400 245.019,84.220 244.400,84.000 244.400 C 83.780 244.400,83.600 243.860,83.600 243.200 C 83.600 242.540,83.420 242.000,83.200 242.000 C 82.980 242.000,82.800 241.460,82.800 240.800 C 82.800 240.140,82.620 239.600,82.400 239.600 C 82.180 239.600,82.000 239.060,82.000 238.400 C 82.000 237.740,81.820 237.200,81.600 237.200 C 81.380 237.200,81.200 236.660,81.200 236.000 C 81.200 235.340,81.020 234.800,80.800 234.800 C 80.580 234.800,80.400 234.260,80.400 233.600 C 80.400 232.940,80.220 232.400,80.000 232.400 C 79.780 232.400,79.600 231.961,79.600 231.424 C 79.600 230.887,79.420 230.336,79.200 230.200 C 78.980 230.064,78.800 229.524,78.800 229.000 C 78.800 228.476,78.620 227.936,78.400 227.800 C 78.180 227.664,78.000 227.124,78.000 226.600 C 78.000 226.076,77.820 225.536,77.600 225.400 C 77.380 225.264,77.200 224.724,77.200 224.200 C 77.200 223.676,77.020 223.136,76.800 223.000 C 76.580 222.864,76.400 222.324,76.400 221.800 C 76.400 221.276,76.220 220.736,76.000 220.600 C 75.780 220.464,75.600 219.924,75.600 219.400 C 75.600 218.876,75.420 218.336,75.200 218.200 C 74.980 218.064,74.800 217.423,74.800 216.776 C 74.800 216.129,74.632 215.600,74.427 215.600 C 74.221 215.600,73.996 215.105,73.927 214.500 L 73.800 213.400 65.900 213.292 L 58.000 213.183 58.000 215.592 M129.200 232.376 C 129.200 233.243,129.380 234.064,129.600 234.200 C 129.820 234.336,130.000 235.067,130.000 235.824 C 130.000 236.581,130.180 237.200,130.400 237.200 C 130.620 237.200,130.800 237.740,130.800 238.400 C 130.800 239.060,130.980 239.600,131.200 239.600 C 131.420 239.600,131.600 240.140,131.600 240.800 C 131.600 241.460,131.780 242.000,132.000 242.000 C 132.220 242.000,132.400 242.439,132.400 242.976 C 132.400 243.513,132.580 244.064,132.800 244.200 C 133.020 244.336,133.200 244.876,133.200 245.400 C 133.200 245.924,133.380 246.464,133.600 246.600 C 133.820 246.736,134.000 247.377,134.000 248.024 C 134.000 248.671,134.180 249.200,134.400 249.200 C 134.620 249.200,134.800 249.740,134.800 250.400 C 134.800 251.060,134.980 251.600,135.200 251.600 C 135.420 251.600,135.600 252.129,135.600 252.776 C 135.600 253.423,135.780 254.064,136.000 254.200 C 136.220 254.336,136.400 254.876,136.400 255.400 C 136.400 255.924,136.580 256.464,136.800 256.600 C 137.020 256.736,137.200 257.276,137.200 257.800 C 137.200 258.324,137.380 258.864,137.600 259.000 C 137.820 259.136,138.000 259.867,138.000 260.624 C 138.000 261.381,138.180 262.000,138.400 262.000 C 138.620 262.000,138.800 262.540,138.800 263.200 C 138.800 263.860,138.980 264.400,139.200 264.400 C 139.420 264.400,139.600 264.839,139.600 265.376 C 139.600 265.913,139.780 266.464,140.000 266.600 C 140.220 266.736,140.400 267.276,140.400 267.800 C 140.400 268.324,140.580 268.864,140.800 269.000 C 141.020 269.136,141.200 269.777,141.200 270.424 C 141.200 271.071,141.380 271.600,141.600 271.600 C 141.820 271.600,142.000 272.129,142.000 272.776 C 142.000 273.423,142.180 274.064,142.400 274.200 C 142.620 274.336,142.800 274.966,142.800 275.600 C 142.800 276.234,142.980 276.864,143.200 277.000 C 143.420 277.136,143.600 277.946,143.600 278.800 C 143.600 279.654,143.780 280.464,144.000 280.600 C 144.220 280.736,144.400 281.287,144.400 281.824 C 144.400 282.361,144.220 282.800,144.000 282.800 C 143.780 282.800,143.600 283.340,143.600 284.000 C 143.600 284.660,143.420 285.200,143.200 285.200 C 142.980 285.200,142.800 285.452,142.800 285.760 C 142.800 286.488,140.088 289.200,139.360 289.200 C 139.052 289.200,138.800 289.380,138.800 289.600 C 138.800 289.820,138.476 290.000,138.080 290.000 C 137.684 290.000,137.187 290.173,136.974 290.386 C 136.762 290.598,134.611 290.823,132.194 290.886 L 127.800 291.000 127.683 294.344 C 127.556 297.967,127.952 298.760,129.900 298.787 C 130.395 298.794,130.800 298.980,130.800 299.200 C 130.800 299.446,132.800 299.600,136.000 299.600 C 139.200 299.600,141.200 299.446,141.200 299.200 C 141.200 298.980,141.740 298.800,142.400 298.800 C 143.060 298.800,143.600 298.620,143.600 298.400 C 143.600 298.180,143.920 298.000,144.312 298.000 C 144.703 298.000,145.283 297.640,145.600 297.200 C 145.917 296.760,146.390 296.400,146.652 296.400 C 147.278 296.400,154.000 289.788,154.000 289.172 C 154.000 288.909,154.316 288.403,154.703 288.047 C 155.089 287.691,155.660 286.905,155.970 286.300 C 156.281 285.695,156.685 285.200,156.868 285.200 C 157.050 285.200,157.200 284.855,157.200 284.433 C 157.200 284.012,157.335 283.607,157.500 283.533 C 157.665 283.460,158.233 282.545,158.763 281.500 C 159.292 280.455,159.877 279.600,160.063 279.600 C 160.248 279.600,160.400 279.245,160.400 278.812 C 160.400 278.379,160.760 277.383,161.200 276.600 C 161.640 275.817,162.000 274.911,162.000 274.588 C 162.000 274.265,162.180 274.000,162.400 274.000 C 162.620 274.000,162.800 273.640,162.800 273.200 C 162.800 272.760,162.980 272.400,163.200 272.400 C 163.420 272.400,163.600 271.860,163.600 271.200 C 163.600 270.540,163.780 270.000,164.000 270.000 C 164.220 270.000,164.400 269.561,164.400 269.024 C 164.400 268.487,164.580 267.936,164.800 267.800 C 165.020 267.664,165.200 267.124,165.200 266.600 C 165.200 266.076,165.380 265.536,165.600 265.400 C 165.820 265.264,166.000 264.724,166.000 264.200 C 166.000 263.676,166.180 263.136,166.400 263.000 C 166.620 262.864,166.800 262.223,166.800 261.576 C 166.800 260.929,166.980 260.400,167.200 260.400 C 167.420 260.400,167.600 259.871,167.600 259.224 C 167.600 258.577,167.780 257.936,168.000 257.800 C 168.220 257.664,168.400 257.034,168.400 256.400 C 168.400 255.766,168.580 255.136,168.800 255.000 C 169.020 254.864,169.200 254.223,169.200 253.576 C 169.200 252.929,169.380 252.400,169.600 252.400 C 169.820 252.400,170.000 251.680,170.000 250.800 C 170.000 249.920,170.180 249.200,170.400 249.200 C 170.620 249.200,170.800 248.401,170.800 247.424 C 170.800 246.447,170.980 245.536,171.200 245.400 C 171.420 245.264,171.600 244.454,171.600 243.600 C 171.600 242.746,171.780 241.936,172.000 241.800 C 172.220 241.664,172.400 240.764,172.400 239.800 C 172.400 238.836,172.580 237.936,172.800 237.800 C 173.020 237.664,173.200 236.764,173.200 235.800 C 173.200 234.836,173.380 233.936,173.600 233.800 C 173.820 233.664,174.000 232.933,174.000 232.176 L 174.000 230.800 168.080 230.800 C 161.173 230.800,161.200 230.787,161.200 234.256 C 161.200 235.629,161.020 236.864,160.800 237.000 C 160.580 237.136,160.400 238.317,160.400 239.624 C 160.400 240.941,160.222 242.000,160.000 242.000 C 159.780 242.000,159.600 242.889,159.600 243.976 C 159.600 245.063,159.420 246.064,159.200 246.200 C 158.980 246.336,158.800 247.247,158.800 248.224 C 158.800 249.201,158.620 250.000,158.400 250.000 C 158.180 250.000,158.000 250.709,158.000 251.576 C 158.000 252.443,157.820 253.264,157.600 253.400 C 157.380 253.536,157.200 254.256,157.200 255.000 C 157.200 255.744,157.020 256.464,156.800 256.600 C 156.580 256.736,156.400 257.467,156.400 258.224 C 156.400 258.981,156.220 259.600,156.000 259.600 C 155.780 259.600,155.600 260.140,155.600 260.800 C 155.600 261.460,155.420 262.000,155.200 262.000 C 154.980 262.000,154.800 262.619,154.800 263.376 C 154.800 264.133,154.620 264.864,154.400 265.000 C 154.180 265.136,154.000 265.777,154.000 266.424 C 154.000 267.071,153.820 267.600,153.600 267.600 C 153.380 267.600,153.200 267.960,153.200 268.400 C 153.200 268.840,153.020 269.200,152.800 269.200 C 152.580 269.200,152.400 268.401,152.400 267.424 C 152.400 266.447,152.220 265.536,152.000 265.400 C 151.780 265.264,151.600 264.443,151.600 263.576 C 151.600 262.709,151.420 262.000,151.200 262.000 C 150.980 262.000,150.800 261.460,150.800 260.800 C 150.800 260.140,150.620 259.600,150.400 259.600 C 150.180 259.600,150.000 259.071,150.000 258.424 C 150.000 257.777,149.820 257.136,149.600 257.000 C 149.380 256.864,149.200 256.133,149.200 255.376 C 149.200 254.619,149.020 254.000,148.800 254.000 C 148.580 254.000,148.400 253.561,148.400 253.024 C 148.400 252.487,148.220 251.936,148.000 251.800 C 147.780 251.664,147.600 251.023,147.600 250.376 C 147.600 249.729,147.420 249.200,147.200 249.200 C 146.980 249.200,146.800 248.671,146.800 248.024 C 146.800 247.377,146.620 246.736,146.400 246.600 C 146.180 246.464,146.000 245.924,146.000 245.400 C 146.000 244.876,145.820 244.336,145.600 244.200 C 145.380 244.064,145.200 243.333,145.200 242.576 C 145.200 241.819,145.020 241.200,144.800 241.200 C 144.580 241.200,144.400 240.761,144.400 240.224 C 144.400 239.687,144.220 239.136,144.000 239.000 C 143.780 238.864,143.600 238.223,143.600 237.576 C 143.600 236.929,143.420 236.400,143.200 236.400 C 142.980 236.400,142.800 235.871,142.800 235.224 C 142.800 234.577,142.620 233.936,142.400 233.800 C 142.180 233.664,142.000 233.149,142.000 232.656 C 142.000 230.969,141.374 230.800,135.120 230.800 L 129.200 230.800 129.200 232.376 " stroke="none" fill="#647c94" fill-rule="evenodd"></path><path id="path1" d="M227.260 101.842 C 226.962 102.178,226.799 102.532,226.895 102.629 C 226.992 102.726,227.398 102.444,227.798 102.002 C 228.197 101.561,228.361 101.207,228.162 101.215 C 227.963 101.224,227.557 101.505,227.260 101.842 M231.402 106.798 C 231.003 107.239,230.807 107.600,230.967 107.600 C 231.388 107.600,232.528 106.395,232.312 106.179 C 232.211 106.078,231.802 106.356,231.402 106.798 M283.402 122.802 C 283.802 123.244,284.211 123.522,284.312 123.421 C 284.528 123.205,283.388 122.000,282.967 122.000 C 282.807 122.000,283.003 122.361,283.402 122.802 M278.000 126.967 C 278.000 127.388,279.205 128.528,279.421 128.312 C 279.522 128.211,279.244 127.802,278.802 127.402 C 278.361 127.003,278.000 126.807,278.000 126.967 M289.802 129.202 C 290.202 129.644,290.611 129.922,290.712 129.821 C 290.928 129.605,289.788 128.400,289.367 128.400 C 289.207 128.400,289.403 128.761,289.802 129.202 M283.600 132.567 C 283.600 132.988,284.805 134.128,285.021 133.912 C 285.122 133.811,284.844 133.402,284.402 133.002 C 283.961 132.603,283.600 132.407,283.600 132.567 M338.996 187.996 C 339.626 188.654,340.219 189.114,340.313 189.020 C 340.522 188.812,338.556 186.800,338.143 186.800 C 337.982 186.800,338.366 187.338,338.996 187.996 M338.991 207.991 C 340.069 209.086,341.025 209.908,341.114 209.819 C 341.318 209.616,337.730 206.000,337.326 206.000 C 337.163 206.000,337.912 206.896,338.991 207.991 M196.400 212.800 C 196.400 213.020,195.680 213.200,194.800 213.200 C 193.920 213.200,193.200 213.380,193.200 213.600 C 193.200 213.820,192.660 214.000,192.000 214.000 C 191.340 214.000,190.800 214.180,190.800 214.400 C 190.800 214.620,190.440 214.800,190.000 214.800 C 189.560 214.800,189.200 214.980,189.200 215.200 C 189.200 215.420,188.927 215.600,188.593 215.600 C 187.801 215.600,182.800 220.601,182.800 221.393 C 182.800 221.727,182.620 222.000,182.400 222.000 C 182.180 222.000,182.000 222.360,182.000 222.800 C 182.000 223.240,181.820 223.600,181.600 223.600 C 181.380 223.600,181.200 223.960,181.200 224.400 C 181.200 224.840,181.020 225.200,180.800 225.200 C 180.551 225.200,180.400 227.467,180.400 231.200 C 180.400 234.933,180.551 237.200,180.800 237.200 C 181.020 237.200,181.200 237.740,181.200 238.400 C 181.200 239.060,181.380 239.600,181.600 239.600 C 181.820 239.600,182.000 239.920,182.000 240.312 C 182.000 240.703,182.360 241.283,182.800 241.600 C 183.240 241.917,183.600 242.415,183.600 242.706 C 183.600 243.356,185.391 245.200,186.021 245.200 C 186.273 245.200,186.983 245.740,187.600 246.400 C 188.217 247.060,189.009 247.600,189.360 247.600 C 189.712 247.600,190.000 247.780,190.000 248.000 C 190.000 248.220,190.360 248.400,190.800 248.400 C 191.240 248.400,191.600 248.580,191.600 248.800 C 191.600 249.020,191.920 249.200,192.312 249.200 C 192.703 249.200,193.283 249.560,193.600 250.000 C 193.917 250.440,194.497 250.800,194.888 250.800 C 195.280 250.800,195.600 250.980,195.600 251.200 C 195.600 251.420,195.960 251.600,196.400 251.600 C 196.840 251.600,197.200 251.780,197.200 252.000 C 197.200 252.220,197.560 252.400,198.000 252.400 C 198.440 252.400,198.800 252.580,198.800 252.800 C 198.800 253.020,199.120 253.200,199.512 253.200 C 199.903 253.200,200.483 253.560,200.800 254.000 C 201.117 254.440,201.697 254.800,202.088 254.800 C 202.480 254.800,202.800 254.980,202.800 255.200 C 202.800 255.420,203.074 255.600,203.409 255.600 C 204.201 255.600,208.400 259.799,208.400 260.591 C 208.400 260.926,208.580 261.200,208.800 261.200 C 209.020 261.200,209.200 261.560,209.200 262.000 C 209.200 262.440,209.380 262.800,209.600 262.800 C 209.820 262.800,210.000 263.520,210.000 264.400 C 210.000 265.280,209.820 266.000,209.600 266.000 C 209.380 266.000,209.200 266.360,209.200 266.800 C 209.200 267.240,209.020 267.600,208.800 267.600 C 208.580 267.600,208.400 267.876,208.400 268.213 C 208.400 269.009,205.809 271.600,205.013 271.600 C 204.676 271.600,204.400 271.780,204.400 272.000 C 204.400 272.220,203.860 272.400,203.200 272.400 C 202.540 272.400,202.000 272.580,202.000 272.800 C 202.000 273.044,200.133 273.200,197.200 273.200 C 194.267 273.200,192.400 273.044,192.400 272.800 C 192.400 272.580,191.860 272.400,191.200 272.400 C 190.540 272.400,190.000 272.220,190.000 272.000 C 190.000 271.780,189.460 271.600,188.800 271.600 C 188.140 271.600,187.600 271.420,187.600 271.200 C 187.600 270.980,187.240 270.800,186.800 270.800 C 186.360 270.800,186.000 270.620,186.000 270.400 C 186.000 270.180,185.460 270.000,184.800 270.000 C 184.140 270.000,183.600 269.820,183.600 269.600 C 183.600 269.380,183.240 269.200,182.800 269.200 C 182.267 269.200,182.000 269.467,182.000 270.000 C 182.000 270.440,181.820 270.800,181.600 270.800 C 181.380 270.800,181.200 271.160,181.200 271.600 C 181.200 272.040,181.020 272.400,180.800 272.400 C 180.580 272.400,180.400 272.760,180.400 273.200 C 180.400 273.640,180.220 274.000,180.000 274.000 C 179.780 274.000,179.600 274.643,179.600 275.429 C 179.600 276.893,180.324 278.000,181.283 278.000 C 181.580 278.000,182.083 278.360,182.400 278.800 C 182.717 279.240,183.297 279.600,183.688 279.600 C 184.080 279.600,184.400 279.780,184.400 280.000 C 184.400 280.220,184.940 280.400,185.600 280.400 C 186.260 280.400,186.800 280.580,186.800 280.800 C 186.800 281.020,187.160 281.200,187.600 281.200 C 188.040 281.200,188.400 281.380,188.400 281.600 C 188.400 281.820,189.120 282.000,190.000 282.000 C 190.880 282.000,191.600 282.180,191.600 282.400 C 191.600 282.653,194.533 282.800,199.600 282.800 C 204.667 282.800,207.600 282.653,207.600 282.400 C 207.600 282.180,208.140 282.000,208.800 282.000 C 209.460 282.000,210.000 281.820,210.000 281.600 C 210.000 281.380,210.540 281.200,211.200 281.200 C 211.860 281.200,212.400 281.020,212.400 280.800 C 212.400 280.580,212.720 280.400,213.112 280.400 C 213.503 280.400,214.083 280.040,214.400 279.600 C 214.717 279.160,215.212 278.800,215.499 278.800 C 216.178 278.800,219.600 275.378,219.600 274.699 C 219.600 274.412,219.960 273.917,220.400 273.600 C 220.840 273.283,221.200 272.703,221.200 272.312 C 221.200 271.920,221.380 271.600,221.600 271.600 C 221.820 271.600,222.000 271.060,222.000 270.400 C 222.000 269.740,222.180 269.200,222.400 269.200 C 222.622 269.200,222.800 268.133,222.800 266.800 C 222.800 265.467,222.978 264.400,223.200 264.400 C 223.420 264.400,223.600 263.680,223.600 262.800 C 223.600 261.920,223.420 261.200,223.200 261.200 C 222.978 261.200,222.800 260.133,222.800 258.800 C 222.800 257.467,222.622 256.400,222.400 256.400 C 222.180 256.400,222.000 256.040,222.000 255.600 C 222.000 255.160,221.820 254.800,221.600 254.800 C 221.380 254.800,221.200 254.480,221.200 254.088 C 221.200 253.697,220.840 253.117,220.400 252.800 C 219.960 252.483,219.600 251.985,219.600 251.694 C 219.600 251.007,217.793 249.200,217.106 249.200 C 216.815 249.200,216.317 248.840,216.000 248.400 C 215.683 247.960,215.143 247.600,214.800 247.600 C 214.457 247.600,213.917 247.240,213.600 246.800 C 213.283 246.360,212.703 246.000,212.312 246.000 C 211.920 246.000,211.600 245.820,211.600 245.600 C 211.600 245.380,211.240 245.200,210.800 245.200 C 210.360 245.200,210.000 245.020,210.000 244.800 C 210.000 244.580,209.640 244.400,209.200 244.400 C 208.760 244.400,208.400 244.220,208.400 244.000 C 208.400 243.780,208.080 243.600,207.688 243.600 C 207.297 243.600,206.717 243.240,206.400 242.800 C 206.083 242.360,205.503 242.000,205.112 242.000 C 204.720 242.000,204.400 241.820,204.400 241.600 C 204.400 241.380,204.040 241.200,203.600 241.200 C 203.160 241.200,202.800 241.020,202.800 240.800 C 202.800 240.580,202.480 240.400,202.088 240.400 C 201.697 240.400,201.117 240.040,200.800 239.600 C 200.483 239.160,199.943 238.800,199.600 238.800 C 199.257 238.800,198.717 238.440,198.400 238.000 C 198.083 237.560,197.585 237.200,197.294 237.200 C 196.607 237.200,194.800 235.393,194.800 234.706 C 194.800 234.415,194.440 233.917,194.000 233.600 C 193.126 232.970,192.768 227.600,193.600 227.600 C 193.820 227.600,194.000 227.324,194.000 226.987 C 194.000 226.191,196.591 223.600,197.387 223.600 C 197.724 223.600,198.000 223.420,198.000 223.200 C 198.000 222.980,198.540 222.800,199.200 222.800 C 199.860 222.800,200.400 222.620,200.400 222.400 C 200.400 222.167,201.733 222.000,203.600 222.000 C 205.467 222.000,206.800 222.167,206.800 222.400 C 206.800 222.620,207.520 222.800,208.400 222.800 C 209.280 222.800,210.000 222.980,210.000 223.200 C 210.000 223.420,210.720 223.600,211.600 223.600 C 212.480 223.600,213.200 223.780,213.200 224.000 C 213.200 224.220,213.560 224.400,214.000 224.400 C 214.440 224.400,214.800 224.580,214.800 224.800 C 214.800 225.394,215.973 225.284,216.629 224.629 C 216.943 224.314,217.200 223.774,217.200 223.429 C 217.200 223.083,217.380 222.800,217.600 222.800 C 217.820 222.800,218.000 222.440,218.000 222.000 C 218.000 221.560,218.180 221.200,218.400 221.200 C 218.620 221.200,218.800 220.840,218.800 220.400 C 218.800 219.960,218.980 219.600,219.200 219.600 C 219.420 219.600,219.600 219.060,219.600 218.400 C 219.600 217.516,219.412 217.200,218.888 217.200 C 218.497 217.200,217.917 216.840,217.600 216.400 C 217.261 215.930,216.565 215.600,215.912 215.600 C 215.300 215.600,214.800 215.420,214.800 215.200 C 214.800 214.980,214.440 214.800,214.000 214.800 C 213.560 214.800,213.200 214.620,213.200 214.400 C 213.200 214.180,212.660 214.000,212.000 214.000 C 211.340 214.000,210.800 213.820,210.800 213.600 C 210.800 213.380,209.900 213.200,208.800 213.200 C 207.700 213.200,206.800 213.020,206.800 212.800 C 206.800 212.554,204.800 212.400,201.600 212.400 C 198.400 212.400,196.400 212.554,196.400 212.800 M249.200 212.800 C 249.200 213.020,248.300 213.200,247.200 213.200 C 246.100 213.200,245.200 213.380,245.200 213.600 C 245.200 213.820,244.660 214.000,244.000 214.000 C 243.340 214.000,242.800 214.180,242.800 214.400 C 242.800 214.620,242.440 214.800,242.000 214.800 C 241.560 214.800,241.200 214.980,241.200 215.200 C 241.200 215.420,240.880 215.600,240.488 215.600 C 240.097 215.600,239.517 215.960,239.200 216.400 C 238.883 216.840,238.389 217.200,238.103 217.200 C 237.425 217.200,233.200 221.425,233.200 222.103 C 233.200 222.389,232.840 222.883,232.400 223.200 C 231.960 223.517,231.600 224.097,231.600 224.488 C 231.600 224.880,231.420 225.200,231.200 225.200 C 230.980 225.200,230.800 225.560,230.800 226.000 C 230.800 226.440,230.620 226.800,230.400 226.800 C 230.180 226.800,230.000 227.160,230.000 227.600 C 230.000 228.040,229.820 228.400,229.600 228.400 C 229.380 228.400,229.200 228.940,229.200 229.600 C 229.200 230.260,229.020 230.800,228.800 230.800 C 228.580 230.800,228.400 231.340,228.400 232.000 C 228.400 232.660,228.220 233.200,228.000 233.200 C 227.780 233.200,227.600 234.100,227.600 235.200 C 227.600 236.300,227.420 237.200,227.200 237.200 C 226.963 237.200,226.800 238.667,226.800 240.800 C 226.800 242.933,226.637 244.400,226.400 244.400 C 226.158 244.400,226.000 246.133,226.000 248.800 C 226.000 251.467,226.158 253.200,226.400 253.200 C 226.640 253.200,226.800 254.800,226.800 257.200 C 226.800 259.600,226.960 261.200,227.200 261.200 C 227.420 261.200,227.600 262.100,227.600 263.200 C 227.600 264.300,227.780 265.200,228.000 265.200 C 228.220 265.200,228.400 265.740,228.400 266.400 C 228.400 267.060,228.580 267.600,228.800 267.600 C 229.020 267.600,229.200 268.140,229.200 268.800 C 229.200 269.460,229.380 270.000,229.600 270.000 C 229.820 270.000,230.000 270.360,230.000 270.800 C 230.000 271.240,230.180 271.600,230.400 271.600 C 230.620 271.600,230.800 271.920,230.800 272.312 C 230.800 272.703,231.160 273.283,231.600 273.600 C 232.040 273.917,232.400 274.412,232.400 274.699 C 232.400 275.378,235.822 278.800,236.501 278.800 C 236.788 278.800,237.283 279.160,237.600 279.600 C 237.917 280.040,238.497 280.400,238.888 280.400 C 239.280 280.400,239.600 280.580,239.600 280.800 C 239.600 281.020,240.140 281.200,240.800 281.200 C 241.460 281.200,242.000 281.380,242.000 281.600 C 242.000 281.820,242.540 282.000,243.200 282.000 C 243.860 282.000,244.400 282.180,244.400 282.400 C 244.400 282.629,245.600 282.800,247.200 282.800 C 248.800 282.800,250.000 282.971,250.000 283.200 C 250.000 283.437,251.467 283.600,253.600 283.600 C 255.733 283.600,257.200 283.437,257.200 283.200 C 257.200 282.358,263.366 282.721,264.000 283.600 C 264.317 284.040,264.897 284.400,265.288 284.400 C 265.680 284.400,266.000 284.580,266.000 284.800 C 266.000 285.020,266.320 285.200,266.712 285.200 C 267.103 285.200,267.683 285.560,268.000 286.000 C 268.317 286.440,268.897 286.800,269.288 286.800 C 269.680 286.800,270.000 286.980,270.000 287.200 C 270.000 287.420,270.360 287.600,270.800 287.600 C 271.240 287.600,271.600 287.780,271.600 288.000 C 271.600 288.220,271.920 288.400,272.312 288.400 C 272.703 288.400,273.283 288.760,273.600 289.200 C 273.917 289.640,274.497 290.000,274.888 290.000 C 275.280 290.000,275.600 290.180,275.600 290.400 C 275.600 290.620,275.960 290.800,276.400 290.800 C 276.840 290.800,277.200 290.980,277.200 291.200 C 277.200 291.420,277.740 291.600,278.400 291.600 C 279.333 291.600,279.600 291.422,279.600 290.800 C 279.600 290.360,279.780 290.000,280.000 290.000 C 280.220 290.000,280.400 289.640,280.400 289.200 C 280.400 288.760,280.580 288.400,280.800 288.400 C 281.020 288.400,281.200 288.080,281.200 287.688 C 281.200 287.297,281.560 286.717,282.000 286.400 C 282.440 286.083,282.800 285.503,282.800 285.112 C 282.800 284.720,282.980 284.400,283.200 284.400 C 283.420 284.400,283.600 283.860,283.600 283.200 C 283.600 282.267,283.422 282.000,282.800 282.000 C 282.360 282.000,282.000 281.820,282.000 281.600 C 282.000 281.380,281.640 281.200,281.200 281.200 C 280.760 281.200,280.400 281.020,280.400 280.800 C 280.400 280.580,280.040 280.400,279.600 280.400 C 279.160 280.400,278.800 280.220,278.800 280.000 C 278.800 279.780,278.440 279.600,278.000 279.600 C 277.560 279.600,277.200 279.420,277.200 279.200 C 277.200 278.980,276.840 278.800,276.400 278.800 C 275.960 278.800,275.600 278.620,275.600 278.400 C 275.600 278.180,275.240 278.000,274.800 278.000 C 274.360 278.000,274.000 277.820,274.000 277.600 C 274.000 277.380,273.640 277.200,273.200 277.200 C 272.119 277.200,272.189 276.918,273.600 275.600 C 274.260 274.983,274.800 274.231,274.800 273.928 C 274.800 273.625,275.160 273.117,275.600 272.800 C 276.040 272.483,276.400 271.943,276.400 271.600 C 276.400 271.257,276.760 270.717,277.200 270.400 C 277.640 270.083,278.000 269.503,278.000 269.112 C 278.000 268.720,278.180 268.400,278.400 268.400 C 278.620 268.400,278.800 267.860,278.800 267.200 C 278.800 266.540,278.980 266.000,279.200 266.000 C 279.420 266.000,279.600 265.460,279.600 264.800 C 279.600 264.140,279.780 263.600,280.000 263.600 C 280.220 263.600,280.400 262.880,280.400 262.000 C 280.400 261.120,280.580 260.400,280.800 260.400 C 281.022 260.400,281.200 259.333,281.200 258.000 C 281.200 256.667,281.378 255.600,281.600 255.600 C 281.855 255.600,282.000 252.267,282.000 246.400 C 282.000 240.533,281.855 237.200,281.600 237.200 C 281.378 237.200,281.200 236.133,281.200 234.800 C 281.200 233.467,281.022 232.400,280.800 232.400 C 280.580 232.400,280.400 231.860,280.400 231.200 C 280.400 230.540,280.220 230.000,280.000 230.000 C 279.780 230.000,279.600 229.460,279.600 228.800 C 279.600 228.140,279.420 227.600,279.200 227.600 C 278.980 227.600,278.800 227.060,278.800 226.400 C 278.800 225.740,278.620 225.200,278.400 225.200 C 278.180 225.200,278.000 224.880,278.000 224.488 C 278.000 224.097,277.640 223.517,277.200 223.200 C 276.760 222.883,276.400 222.390,276.400 222.104 C 276.400 221.428,271.372 216.400,270.696 216.400 C 270.410 216.400,269.917 216.040,269.600 215.600 C 269.261 215.130,268.565 214.800,267.912 214.800 C 267.300 214.800,266.800 214.620,266.800 214.400 C 266.800 214.180,266.440 214.000,266.000 214.000 C 265.560 214.000,265.200 213.820,265.200 213.600 C 265.200 213.380,264.300 213.200,263.200 213.200 C 262.100 213.200,261.200 213.020,261.200 212.800 C 261.200 212.551,258.933 212.400,255.200 212.400 C 251.467 212.400,249.200 212.551,249.200 212.800 M290.000 247.600 L 290.000 282.000 306.800 282.000 L 323.600 282.000 323.600 277.200 L 323.600 272.400 313.200 272.400 L 302.800 272.400 302.800 242.800 L 302.800 213.200 296.400 213.200 L 290.000 213.200 290.000 247.600 M255.600 222.400 C 255.600 222.620,256.320 222.800,257.200 222.800 C 258.080 222.800,258.800 222.980,258.800 223.200 C 258.800 223.420,259.160 223.600,259.600 223.600 C 260.040 223.600,260.400 223.780,260.400 224.000 C 260.400 224.220,260.676 224.400,261.013 224.400 C 261.762 224.400,264.400 226.969,264.400 227.698 C 264.400 227.987,264.760 228.483,265.200 228.800 C 265.640 229.117,266.000 229.697,266.000 230.088 C 266.000 230.480,266.180 230.800,266.400 230.800 C 266.620 230.800,266.800 231.340,266.800 232.000 C 266.800 232.660,266.980 233.200,267.200 233.200 C 267.420 233.200,267.600 233.920,267.600 234.800 C 267.600 235.680,267.780 236.400,268.000 236.400 C 268.229 236.400,268.400 237.600,268.400 239.200 C 268.400 240.800,268.571 242.000,268.800 242.000 C 269.049 242.000,269.200 244.267,269.200 248.000 C 269.200 251.733,269.049 254.000,268.800 254.000 C 268.571 254.000,268.400 255.200,268.400 256.800 C 268.400 258.400,268.229 259.600,268.000 259.600 C 267.780 259.600,267.600 260.320,267.600 261.200 C 267.600 262.080,267.420 262.800,267.200 262.800 C 266.980 262.800,266.800 263.160,266.800 263.600 C 266.800 264.040,266.620 264.400,266.400 264.400 C 266.180 264.400,266.000 264.760,266.000 265.200 C 266.000 265.640,265.820 266.000,265.600 266.000 C 265.380 266.000,265.200 266.274,265.200 266.609 C 265.200 267.401,261.001 271.600,260.209 271.600 C 259.874 271.600,259.600 271.780,259.600 272.000 C 259.600 272.220,259.240 272.400,258.800 272.400 C 258.360 272.400,258.000 272.580,258.000 272.800 C 258.000 273.037,256.533 273.200,254.400 273.200 C 252.267 273.200,250.800 273.037,250.800 272.800 C 250.800 272.580,250.260 272.400,249.600 272.400 C 248.940 272.400,248.400 272.220,248.400 272.000 C 248.400 271.780,248.125 271.600,247.789 271.600 C 246.996 271.600,243.600 268.204,243.600 267.411 C 243.600 267.075,243.420 266.800,243.200 266.800 C 242.980 266.800,242.800 266.440,242.800 266.000 C 242.800 265.560,242.620 265.200,242.400 265.200 C 242.180 265.200,242.000 264.840,242.000 264.400 C 242.000 263.960,241.820 263.600,241.600 263.600 C 241.380 263.600,241.200 263.060,241.200 262.400 C 241.200 261.740,241.020 261.200,240.800 261.200 C 240.580 261.200,240.400 260.300,240.400 259.200 C 240.400 258.100,240.220 257.200,240.000 257.200 C 239.744 257.200,239.600 253.733,239.600 247.600 C 239.600 241.467,239.744 238.000,240.000 238.000 C 240.220 238.000,240.400 237.100,240.400 236.000 C 240.400 234.900,240.580 234.000,240.800 234.000 C 241.020 234.000,241.200 233.460,241.200 232.800 C 241.200 232.140,241.380 231.600,241.600 231.600 C 241.820 231.600,242.000 231.240,242.000 230.800 C 242.000 230.360,242.180 230.000,242.400 230.000 C 242.620 230.000,242.800 229.680,242.800 229.288 C 242.800 228.897,243.160 228.317,243.600 228.000 C 244.040 227.683,244.400 227.180,244.400 226.883 C 244.400 226.586,244.657 226.086,244.971 225.771 C 245.286 225.457,245.786 225.200,246.083 225.200 C 246.380 225.200,246.883 224.840,247.200 224.400 C 247.517 223.960,248.097 223.600,248.488 223.600 C 248.880 223.600,249.200 223.420,249.200 223.200 C 249.200 222.980,249.920 222.800,250.800 222.800 C 251.680 222.800,252.400 222.620,252.400 222.400 C 252.400 222.180,253.120 222.000,254.000 222.000 C 254.880 222.000,255.600 222.180,255.600 222.400 M327.600 274.000 C 327.600 275.511,327.667 275.600,328.800 275.600 L 330.000 275.600 330.000 278.800 L 330.000 282.000 331.600 282.000 L 333.200 282.000 333.200 278.800 L 333.200 275.600 334.400 275.600 L 335.600 275.600 335.600 278.800 L 335.600 282.000 337.200 282.000 C 338.533 282.000,338.800 281.867,338.800 281.200 C 338.800 280.760,338.980 280.400,339.200 280.400 C 339.420 280.400,339.600 280.760,339.600 281.200 C 339.600 282.135,342.548 282.397,342.967 281.500 C 343.153 281.100,343.247 281.100,343.433 281.500 C 343.562 281.775,344.371 282.000,345.233 282.000 L 346.800 282.000 346.800 277.200 L 346.800 272.400 344.971 272.400 C 342.895 272.400,342.000 273.054,342.000 274.571 C 342.000 275.137,341.897 275.600,341.771 275.600 C 341.186 275.600,340.400 274.355,340.400 273.429 L 340.400 272.400 334.000 272.400 L 327.600 272.400 327.600 274.000 " stroke="none" fill="#fb8c3c" fill-rule="evenodd"></path><path id="path2" d="" stroke="none" fill="#888498" fill-rule="evenodd"></path><path id="path3" d="" stroke="none" fill="#888498" fill-rule="evenodd"></path><path id="path4" d="" stroke="none" fill="#888498" fill-rule="evenodd"></path></g></svg>