<svg id="svg" version="1.1" width="400" height="400" viewBox="0 0 400 400" xmlns="http://www.w3.org/2000/svg" xmlns:xlink="http://www.w3.org/1999/xlink" ><g id="svgg"><path id="path0" d="M159.800 151.200 C 159.664 151.420,159.203 151.600,158.776 151.600 C 158.349 151.600,158.000 151.752,158.000 151.937 C 158.000 152.123,157.145 152.708,156.100 153.237 C 155.055 153.767,154.140 154.335,154.067 154.500 C 153.993 154.665,153.671 154.800,153.350 154.800 C 153.029 154.800,152.380 155.160,151.908 155.600 C 151.436 156.040,150.813 156.400,150.525 156.400 C 150.236 156.400,150.000 156.546,150.000 156.725 C 150.000 156.904,149.366 157.299,148.591 157.603 C 147.817 157.907,146.889 158.481,146.529 158.878 C 146.170 159.275,145.544 159.600,145.138 159.600 C 144.732 159.600,144.400 159.780,144.400 160.000 C 144.400 160.220,144.080 160.400,143.688 160.400 C 143.297 160.400,142.717 160.760,142.400 161.200 C 142.083 161.640,141.503 162.000,141.112 162.000 C 140.720 162.000,140.400 162.180,140.400 162.400 C 140.400 162.620,140.117 162.800,139.772 162.800 C 139.427 162.800,138.392 163.301,137.472 163.912 C 136.552 164.524,135.260 165.285,134.600 165.603 C 132.286 166.717,131.576 167.288,131.928 167.751 C 132.115 167.998,132.692 169.280,133.210 170.600 C 133.727 171.920,134.253 173.090,134.378 173.200 C 134.808 173.579,137.200 178.513,137.200 179.023 C 137.200 179.304,137.425 179.614,137.700 179.712 C 137.991 179.816,138.052 180.039,137.845 180.245 C 137.639 180.452,137.416 180.391,137.312 180.100 C 137.214 179.825,136.788 179.600,136.367 179.600 C 135.511 179.600,135.325 178.965,136.100 178.688 C 136.391 178.584,136.452 178.361,136.245 178.155 C 136.039 177.948,135.816 178.009,135.712 178.300 C 135.508 178.872,134.000 178.989,134.000 178.433 C 134.000 178.232,134.225 177.986,134.500 177.888 C 134.791 177.784,134.852 177.561,134.645 177.355 C 134.439 177.148,134.216 177.209,134.112 177.500 C 133.908 178.072,132.400 178.189,132.400 177.633 C 132.400 177.432,132.625 177.186,132.900 177.088 C 133.175 176.990,133.274 176.773,133.119 176.607 C 132.676 176.131,131.601 177.445,131.594 178.471 C 131.589 179.199,131.507 179.273,131.216 178.812 C 130.960 178.408,130.849 178.872,130.861 180.301 C 130.869 181.443,130.645 183.676,130.361 185.263 C 130.049 187.009,129.994 188.198,130.223 188.274 C 130.455 188.351,130.485 191.048,130.300 195.300 C 129.953 203.278,130.126 205.369,131.025 204.086 C 131.575 203.300,134.823 197.712,136.886 194.000 C 137.437 193.010,138.272 191.525,138.743 190.700 C 139.215 189.875,139.979 188.525,140.443 187.700 C 140.907 186.875,141.356 186.126,141.441 186.036 C 141.635 185.829,143.200 187.225,143.200 187.605 C 143.200 187.759,144.518 190.296,146.128 193.243 C 147.739 196.189,149.928 200.220,150.994 202.200 C 152.059 204.180,153.327 206.520,153.810 207.400 C 154.294 208.280,155.254 210.035,155.945 211.300 C 156.635 212.565,157.765 214.635,158.455 215.900 C 159.146 217.165,160.136 218.971,160.655 219.914 C 161.175 220.857,161.600 221.985,161.600 222.422 C 161.600 223.434,165.102 222.724,166.006 221.529 C 166.120 221.379,167.200 220.731,168.406 220.090 C 171.825 218.272,173.656 217.200,175.470 215.952 C 176.391 215.318,177.342 214.800,177.585 214.800 C 177.827 214.800,178.128 214.531,178.254 214.202 C 178.381 213.874,178.646 213.705,178.845 213.828 C 179.043 213.950,179.313 213.770,179.445 213.428 C 179.576 213.085,179.845 212.904,180.042 213.026 C 180.239 213.148,180.400 213.057,180.400 212.824 C 180.400 212.591,180.228 212.400,180.018 212.400 C 179.783 212.400,179.626 206.636,179.610 197.400 C 179.581 181.249,179.629 180.911,181.534 183.851 C 182.048 184.645,182.618 185.137,182.802 184.946 C 183.126 184.611,186.349 179.068,188.585 175.000 C 189.190 173.900,190.310 171.877,191.074 170.504 C 192.769 167.461,192.888 167.628,186.800 164.550 C 185.590 163.938,184.510 163.325,184.400 163.187 C 184.290 163.049,183.615 162.681,182.900 162.370 C 182.185 162.059,181.600 161.669,181.600 161.502 C 181.600 161.336,181.330 161.200,181.000 161.200 C 180.670 161.200,180.400 161.020,180.400 160.800 C 180.400 160.580,180.040 160.400,179.600 160.400 C 179.160 160.400,178.800 160.254,178.800 160.075 C 178.800 159.896,178.170 159.502,177.400 159.200 C 176.630 158.898,176.000 158.548,176.000 158.423 C 176.000 158.298,175.415 157.941,174.700 157.630 C 173.985 157.319,173.310 156.960,173.200 156.832 C 172.993 156.592,171.118 155.546,168.000 153.932 C 167.010 153.419,166.140 152.865,166.067 152.700 C 165.993 152.535,165.723 152.396,165.467 152.391 C 165.210 152.386,164.550 152.030,164.000 151.600 C 162.940 150.771,160.225 150.513,159.800 151.200 M130.657 175.796 C 130.501 176.202,130.539 176.699,130.742 176.902 C 131.258 177.418,131.555 176.752,131.220 175.829 C 130.951 175.090,130.928 175.089,130.657 175.796 M311.800 180.535 C 310.920 181.011,310.140 181.535,310.067 181.700 C 309.993 181.865,309.699 182.000,309.413 182.000 C 306.798 182.000,306.979 190.348,309.624 191.755 C 310.161 192.041,311.280 192.663,312.112 193.137 C 314.151 194.300,317.983 194.015,317.997 192.700 C 317.999 192.535,318.197 192.400,318.438 192.400 C 320.952 192.400,322.841 182.980,320.500 182.117 C 320.115 181.975,319.710 181.755,319.600 181.629 C 317.984 179.778,314.187 179.245,311.800 180.535 M196.800 216.774 C 196.470 216.953,195.480 217.455,194.600 217.889 C 192.938 218.708,191.456 219.537,188.400 221.361 C 187.410 221.952,186.285 222.538,185.900 222.664 C 185.515 222.790,185.200 223.052,185.200 223.247 C 185.200 223.441,184.840 223.600,184.400 223.600 C 183.960 223.600,183.600 223.752,183.600 223.937 C 183.600 224.123,182.745 224.705,181.700 225.232 C 180.655 225.758,179.710 226.282,179.600 226.395 C 179.490 226.508,178.970 226.842,178.445 227.138 C 176.682 228.130,174.811 229.194,173.300 230.062 C 172.475 230.535,171.080 231.300,170.200 231.762 C 167.944 232.944,166.000 235.116,166.000 236.455 C 166.000 237.059,165.820 237.664,165.600 237.800 C 165.345 237.958,165.200 243.596,165.200 253.400 C 165.200 263.204,165.345 268.842,165.600 269.000 C 165.820 269.136,166.000 269.715,166.000 270.286 C 166.000 271.491,167.770 274.000,168.620 274.000 C 168.939 274.000,169.200 274.159,169.200 274.353 C 169.200 274.548,169.515 274.807,169.900 274.929 C 170.596 275.149,172.818 276.413,173.200 276.805 C 173.310 276.918,174.300 277.433,175.400 277.949 C 176.500 278.465,177.713 279.048,178.095 279.244 C 179.047 279.732,185.494 279.695,185.800 279.200 C 185.936 278.980,186.315 278.800,186.642 278.800 C 187.531 278.800,188.914 277.237,189.912 275.104 C 190.784 273.243,190.800 272.910,190.800 256.853 C 190.800 238.176,191.081 239.493,187.135 239.680 L 184.600 239.800 184.495 255.774 C 184.378 273.648,184.452 273.200,181.618 273.200 C 180.126 273.200,178.009 272.439,178.003 271.900 C 178.001 271.735,177.640 271.600,177.200 271.600 C 176.760 271.600,176.400 271.441,176.400 271.247 C 176.400 271.052,176.085 270.793,175.700 270.671 C 174.868 270.407,172.833 269.192,172.112 268.529 C 171.714 268.162,171.600 264.777,171.600 253.282 L 171.600 238.506 173.100 237.546 C 173.925 237.017,175.140 236.319,175.800 235.993 C 176.460 235.668,177.090 235.311,177.200 235.201 C 177.310 235.090,177.830 234.758,178.355 234.462 C 180.118 233.470,181.989 232.406,183.500 231.538 C 184.325 231.065,185.720 230.300,186.600 229.838 C 187.480 229.377,188.290 228.910,188.400 228.800 C 188.510 228.690,189.005 228.375,189.500 228.100 C 189.995 227.825,190.805 227.375,191.300 227.100 C 191.795 226.825,192.290 226.510,192.400 226.400 C 192.696 226.104,194.354 225.168,196.493 224.089 C 198.566 223.045,198.436 223.021,202.100 225.135 C 203.563 225.978,205.313 226.974,207.245 228.062 C 207.770 228.358,208.290 228.690,208.400 228.800 C 208.796 229.196,211.015 230.454,211.700 230.671 C 212.085 230.793,212.400 231.052,212.400 231.247 C 212.400 231.441,212.760 231.600,213.200 231.600 C 213.640 231.600,214.000 231.759,214.000 231.953 C 214.000 232.148,214.315 232.410,214.700 232.536 C 215.085 232.662,216.210 233.248,217.200 233.839 C 218.947 234.881,220.519 235.790,223.000 237.191 L 224.200 237.869 224.305 253.486 C 224.402 268.099,224.364 269.119,223.705 269.335 C 223.317 269.461,222.190 270.048,221.200 270.639 C 220.210 271.230,218.815 272.048,218.100 272.457 C 217.385 272.865,216.215 273.535,215.500 273.943 C 214.785 274.352,213.390 275.170,212.400 275.761 C 211.410 276.352,210.285 276.938,209.900 277.064 C 209.515 277.190,209.200 277.452,209.200 277.647 C 209.200 277.841,208.840 278.000,208.400 278.000 C 207.960 278.000,207.600 278.159,207.600 278.353 C 207.600 278.548,207.285 278.807,206.900 278.929 C 206.215 279.146,203.996 280.404,203.600 280.800 C 203.490 280.910,202.970 281.242,202.445 281.538 C 201.920 281.833,200.880 282.418,200.133 282.838 C 198.709 283.637,197.200 283.848,197.200 283.247 C 197.200 283.052,196.885 282.793,196.500 282.671 C 195.813 282.454,193.594 281.195,193.200 280.799 C 192.015 279.611,190.765 279.491,188.904 280.385 C 187.857 280.889,186.595 281.489,186.100 281.718 C 185.095 282.184,184.936 283.016,185.715 283.729 C 186.224 284.193,186.705 284.489,189.555 286.084 C 190.350 286.530,191.478 287.233,192.062 287.647 C 192.646 288.061,193.321 288.400,193.562 288.400 C 193.803 288.400,194.001 288.535,194.003 288.700 C 194.017 290.069,199.619 290.428,201.788 289.200 C 204.572 287.623,205.827 286.897,207.600 285.839 C 208.590 285.248,209.715 284.662,210.100 284.536 C 210.485 284.410,210.800 284.148,210.800 283.953 C 210.800 283.759,211.160 283.600,211.600 283.600 C 212.040 283.600,212.400 283.448,212.400 283.263 C 212.400 283.077,213.255 282.495,214.300 281.968 C 215.345 281.442,216.290 280.918,216.400 280.805 C 216.510 280.692,217.030 280.358,217.555 280.062 C 220.086 278.637,221.139 278.030,222.800 277.039 C 223.790 276.448,224.915 275.862,225.300 275.736 C 225.685 275.610,226.000 275.348,226.000 275.153 C 226.000 274.959,226.306 274.800,226.681 274.800 C 227.055 274.800,228.135 273.981,229.081 272.980 L 230.800 271.160 230.800 253.471 L 230.800 235.782 229.592 234.316 C 228.927 233.510,227.892 232.598,227.292 232.290 C 226.691 231.983,225.550 231.358,224.755 230.903 C 223.960 230.448,222.880 229.833,222.355 229.538 C 221.830 229.242,221.310 228.910,221.200 228.800 C 221.090 228.690,220.280 228.226,219.400 227.770 C 217.331 226.696,215.852 225.852,215.600 225.600 C 215.490 225.490,214.970 225.158,214.445 224.862 C 212.975 224.035,210.944 222.882,209.400 222.000 C 208.630 221.560,207.370 220.840,206.600 220.400 C 202.701 218.172,202.348 217.979,200.005 216.800 C 199.067 216.328,197.641 216.316,196.800 216.774 M236.624 231.324 C 235.161 232.221,234.000 233.564,234.000 234.358 C 234.000 234.795,233.820 235.264,233.600 235.400 C 233.380 235.536,233.200 236.076,233.200 236.600 C 233.200 237.124,233.380 237.664,233.600 237.800 C 233.820 237.936,234.000 238.361,234.000 238.745 C 234.000 239.688,236.442 242.000,237.439 242.000 C 237.880 242.000,238.460 242.220,238.730 242.490 C 239.117 242.877,239.385 242.877,240.005 242.490 C 240.436 242.220,241.107 241.994,241.495 241.987 C 243.347 241.954,245.200 239.046,245.200 236.171 C 245.200 232.351,239.864 229.335,236.624 231.324 M242.800 236.624 C 242.800 237.381,242.620 238.000,242.400 238.000 C 242.180 238.000,242.000 237.269,242.000 236.376 C 242.000 235.396,242.158 234.851,242.400 235.000 C 242.620 235.136,242.800 235.867,242.800 236.624 M236.388 236.700 C 236.377 237.644,236.317 237.700,235.966 237.097 C 235.741 236.710,235.667 236.215,235.802 235.997 C 236.216 235.328,236.401 235.550,236.388 236.700 M198.907 239.366 C 197.024 240.050,194.000 242.285,194.000 242.992 C 194.000 243.326,193.820 243.600,193.600 243.600 C 193.380 243.600,193.200 244.039,193.200 244.576 C 193.200 245.113,193.020 245.664,192.800 245.800 C 192.580 245.936,192.400 246.836,192.400 247.800 C 192.400 248.764,192.580 249.664,192.800 249.800 C 193.020 249.936,193.200 250.309,193.200 250.629 C 193.200 252.583,197.138 255.600,199.688 255.600 C 200.274 255.600,200.864 255.780,201.000 256.000 C 201.136 256.220,202.396 256.400,203.800 256.400 C 205.204 256.400,206.464 256.580,206.600 256.800 C 206.736 257.020,207.649 257.200,208.629 257.200 C 209.609 257.200,210.723 257.367,211.105 257.571 C 211.487 257.775,212.115 258.039,212.500 258.158 C 213.723 258.537,213.427 260.984,212.038 261.973 C 210.755 262.887,201.920 263.242,201.400 262.400 C 201.264 262.180,200.881 262.000,200.548 262.000 C 199.815 262.000,198.811 261.056,198.771 260.329 C 198.562 256.555,191.600 255.913,191.600 259.667 C 191.600 260.296,191.759 261.123,191.953 261.505 C 192.148 261.887,192.553 262.725,192.853 263.367 C 196.081 270.254,212.454 271.452,218.300 265.228 C 219.015 264.467,219.600 263.529,219.600 263.145 C 219.600 262.761,219.780 262.336,220.000 262.200 C 220.220 262.064,220.400 260.703,220.400 259.176 C 220.400 257.592,220.228 256.400,220.000 256.400 C 219.780 256.400,219.600 256.122,219.600 255.782 C 219.600 254.433,215.678 251.600,213.811 251.600 C 213.281 251.600,212.736 251.420,212.600 251.200 C 212.464 250.980,211.384 250.800,210.200 250.800 C 209.016 250.800,207.936 250.620,207.800 250.400 C 207.664 250.180,206.721 250.000,205.705 250.000 C 203.999 250.000,201.861 249.521,200.400 248.811 C 198.622 247.947,199.884 245.239,202.076 245.213 C 202.668 245.206,203.264 245.020,203.400 244.800 C 203.536 244.580,204.526 244.400,205.600 244.400 C 206.674 244.400,207.664 244.580,207.800 244.800 C 207.936 245.020,208.532 245.200,209.124 245.200 C 210.182 245.201,212.400 246.735,212.400 247.467 C 212.400 250.095,217.948 251.339,219.204 248.992 C 219.619 248.217,219.634 247.874,219.272 247.512 C 219.012 247.252,218.800 246.547,218.800 245.944 C 218.800 245.341,218.620 244.736,218.400 244.600 C 218.180 244.464,218.000 244.087,218.000 243.763 C 218.000 243.092,215.445 240.400,214.808 240.400 C 214.578 240.400,214.032 240.220,213.595 240.000 C 213.158 239.780,212.442 239.420,212.005 239.200 C 210.914 238.651,200.511 238.782,198.907 239.366 " stroke="none" fill="#6ba35d" fill-rule="evenodd"></path><path id="path1" d="M164.000 151.600 C 164.550 152.030,165.225 152.386,165.500 152.391 C 165.775 152.396,166.000 152.559,166.000 152.753 C 166.000 152.948,166.315 153.218,166.700 153.354 C 167.085 153.489,167.625 153.705,167.900 153.834 C 168.175 153.962,168.400 153.893,168.400 153.680 C 168.400 153.467,168.085 153.193,167.700 153.071 C 166.764 152.775,164.634 151.476,164.467 151.100 C 164.393 150.935,164.033 150.804,163.667 150.809 C 163.155 150.816,163.232 150.999,164.000 151.600 M168.800 154.166 C 168.800 154.257,169.610 154.784,170.600 155.338 C 171.590 155.891,172.400 156.253,172.400 156.143 C 172.400 155.697,171.217 154.800,170.629 154.800 C 170.283 154.800,170.000 154.620,170.000 154.400 C 170.000 154.180,169.730 154.000,169.400 154.000 C 169.070 154.000,168.800 154.075,168.800 154.166 M176.003 158.300 C 176.005 158.465,176.455 158.808,177.003 159.062 C 178.126 159.583,178.272 159.415,177.429 158.571 C 176.818 157.961,175.998 157.805,176.003 158.300 M181.603 161.500 C 181.605 161.665,182.055 162.008,182.603 162.262 C 183.726 162.783,183.872 162.615,183.029 161.771 C 182.418 161.161,181.598 161.005,181.603 161.500 M191.600 167.167 C 191.600 167.368,191.814 167.605,192.076 167.692 C 192.389 167.796,192.059 168.736,191.118 170.425 C 190.330 171.841,189.190 173.900,188.585 175.000 C 186.349 179.068,183.126 184.611,182.802 184.946 C 182.618 185.137,182.048 184.645,181.534 183.851 C 179.629 180.912,179.580 181.258,179.610 197.247 C 179.635 210.386,179.712 212.170,180.287 212.744 C 180.762 213.220,180.980 213.260,181.101 212.896 C 181.192 212.623,181.612 212.400,182.033 212.400 C 182.455 212.400,182.800 212.220,182.800 212.000 C 182.800 211.780,183.160 211.600,183.600 211.600 C 184.040 211.600,184.400 211.420,184.400 211.200 C 184.400 210.980,184.694 210.800,185.053 210.800 C 185.412 210.800,185.999 210.485,186.357 210.100 C 187.159 209.238,188.613 208.400,189.306 208.400 C 189.591 208.400,190.083 208.040,190.400 207.600 C 190.717 207.160,191.220 206.800,191.517 206.800 C 192.249 206.800,193.200 205.800,193.200 205.029 C 193.200 204.683,193.380 204.400,193.600 204.400 C 193.861 204.400,194.000 198.341,194.000 187.024 C 194.000 175.871,193.857 169.559,193.600 169.400 C 193.380 169.264,193.200 168.881,193.200 168.548 C 193.200 167.960,192.290 166.800,191.829 166.800 C 191.703 166.800,191.600 166.965,191.600 167.167 M130.500 168.192 C 130.130 168.617,130.011 171.033,130.041 177.483 C 130.079 185.479,130.708 188.159,130.829 180.834 C 130.856 179.152,130.994 178.462,131.229 178.834 C 131.501 179.262,131.589 179.175,131.594 178.471 C 131.601 177.445,132.676 176.131,133.119 176.607 C 133.274 176.773,133.175 176.990,132.900 177.088 C 132.625 177.186,132.400 177.432,132.400 177.633 C 132.400 178.189,133.908 178.072,134.112 177.500 C 134.216 177.209,134.439 177.148,134.645 177.355 C 134.852 177.561,134.791 177.784,134.500 177.888 C 134.225 177.986,134.000 178.232,134.000 178.433 C 134.000 178.989,135.508 178.872,135.712 178.300 C 135.816 178.009,136.039 177.948,136.245 178.155 C 136.452 178.361,136.391 178.584,136.100 178.688 C 135.325 178.965,135.511 179.600,136.367 179.600 C 136.788 179.600,137.214 179.825,137.312 180.100 C 137.416 180.391,137.639 180.452,137.845 180.245 C 138.052 180.039,137.991 179.816,137.700 179.712 C 137.425 179.614,137.200 179.304,137.200 179.023 C 137.200 178.509,134.804 173.573,134.374 173.200 C 134.247 173.090,133.680 171.830,133.115 170.400 C 132.065 167.745,131.387 167.173,130.500 168.192 M131.305 176.935 C 130.945 177.553,130.370 176.543,130.657 175.796 C 130.928 175.089,130.951 175.090,131.220 175.829 C 131.374 176.253,131.412 176.751,131.305 176.935 M140.536 187.500 C 140.089 188.325,139.310 189.720,138.805 190.600 C 138.300 191.480,137.437 193.010,136.886 194.000 C 131.643 203.432,130.538 205.128,130.283 204.137 C 130.144 203.600,130.084 203.671,130.059 204.400 C 130.018 205.614,130.851 206.800,131.744 206.800 C 132.105 206.800,132.400 206.980,132.400 207.200 C 132.400 207.420,132.720 207.600,133.112 207.600 C 133.503 207.600,134.083 207.960,134.400 208.400 C 134.717 208.840,135.297 209.200,135.688 209.200 C 136.080 209.200,136.400 209.380,136.400 209.600 C 136.400 209.820,136.760 210.000,137.200 210.000 C 137.640 210.000,138.000 210.180,138.000 210.400 C 138.000 210.620,138.320 210.800,138.712 210.800 C 139.103 210.800,139.683 211.160,140.000 211.600 C 140.317 212.040,140.897 212.400,141.288 212.400 C 141.680 212.400,142.000 212.580,142.000 212.800 C 142.000 213.020,142.360 213.200,142.800 213.200 C 143.240 213.200,143.600 213.380,143.600 213.600 C 143.600 213.820,143.920 214.000,144.312 214.000 C 144.703 214.000,145.283 214.360,145.600 214.800 C 145.917 215.240,146.497 215.600,146.888 215.600 C 147.280 215.600,147.600 215.780,147.600 216.000 C 147.600 216.220,147.920 216.400,148.312 216.400 C 148.703 216.400,149.283 216.760,149.600 217.200 C 149.917 217.640,150.497 218.000,150.888 218.000 C 151.280 218.000,151.600 218.180,151.600 218.400 C 151.600 218.620,151.960 218.800,152.400 218.800 C 152.840 218.800,153.200 218.980,153.200 219.200 C 153.200 219.420,153.520 219.600,153.912 219.600 C 154.303 219.600,154.883 219.960,155.200 220.400 C 155.517 220.840,156.097 221.200,156.488 221.200 C 156.880 221.200,157.200 221.380,157.200 221.600 C 157.200 221.820,157.560 222.000,158.000 222.000 C 158.440 222.000,158.800 222.180,158.800 222.400 C 158.800 222.620,159.304 222.800,159.920 222.800 C 160.536 222.800,161.256 223.016,161.520 223.280 C 161.893 223.653,162.111 223.648,162.500 223.256 C 162.901 222.852,162.861 222.805,162.300 223.019 C 161.773 223.220,161.600 223.081,161.600 222.457 C 161.600 222.001,161.175 220.857,160.655 219.914 C 160.136 218.971,159.146 217.165,158.455 215.900 C 157.765 214.635,156.635 212.565,155.945 211.300 C 155.254 210.035,154.294 208.280,153.810 207.400 C 153.327 206.520,152.059 204.180,150.994 202.200 C 149.928 200.220,147.739 196.189,146.128 193.243 C 144.518 190.296,143.200 187.759,143.200 187.605 C 143.200 187.299,141.858 186.000,141.543 186.000 C 141.436 186.000,140.983 186.675,140.536 187.500 M130.072 193.700 C 130.145 199.030,130.294 198.390,130.493 191.899 C 130.552 189.974,130.465 188.399,130.300 188.399 C 130.135 188.400,130.032 190.785,130.072 193.700 M179.454 213.402 C 179.315 213.765,179.456 214.000,179.813 214.000 C 180.460 214.000,180.607 213.375,180.042 213.026 C 179.845 212.904,179.581 213.074,179.454 213.402 M234.000 239.725 C 234.000 239.794,234.585 240.379,235.300 241.025 L 236.600 242.200 235.425 240.900 C 234.330 239.688,234.000 239.416,234.000 239.725 " stroke="none" fill="#40873f" fill-rule="evenodd"></path><path id="path2" d="M248.400 110.800 C 248.400 111.240,248.220 111.600,248.000 111.600 C 247.738 111.600,247.600 119.067,247.600 133.200 C 247.600 154.533,247.590 154.800,246.800 154.800 C 246.360 154.800,246.000 154.620,246.000 154.400 C 246.000 154.180,245.640 154.000,245.200 154.000 C 244.760 154.000,244.400 153.820,244.400 153.600 C 244.400 153.380,244.080 153.200,243.688 153.200 C 243.297 153.200,242.717 152.840,242.400 152.400 C 242.083 151.960,241.503 151.600,241.112 151.600 C 240.720 151.600,240.400 151.420,240.400 151.200 C 240.400 150.980,239.500 150.800,238.400 150.800 C 237.300 150.800,236.400 150.980,236.400 151.200 C 236.400 151.420,236.040 151.600,235.600 151.600 C 235.160 151.600,234.800 151.780,234.800 152.000 C 234.800 152.220,234.440 152.400,234.000 152.400 C 233.560 152.400,233.200 152.580,233.200 152.800 C 233.200 153.020,232.880 153.200,232.488 153.200 C 232.097 153.200,231.517 153.560,231.200 154.000 C 230.883 154.440,230.303 154.800,229.912 154.800 C 229.520 154.800,229.200 154.980,229.200 155.200 C 229.200 155.420,228.840 155.600,228.400 155.600 C 227.960 155.600,227.600 155.780,227.600 156.000 C 227.600 156.220,227.280 156.400,226.888 156.400 C 226.497 156.400,225.917 156.760,225.600 157.200 C 225.283 157.640,224.703 158.000,224.312 158.000 C 223.920 158.000,223.600 158.180,223.600 158.400 C 223.600 158.620,223.240 158.800,222.800 158.800 C 222.360 158.800,222.000 158.980,222.000 159.200 C 222.000 159.420,221.680 159.600,221.288 159.600 C 220.897 159.600,220.317 159.960,220.000 160.400 C 219.683 160.840,219.103 161.200,218.712 161.200 C 218.320 161.200,218.000 161.380,218.000 161.600 C 218.000 161.820,217.680 162.000,217.288 162.000 C 216.897 162.000,216.317 162.360,216.000 162.800 C 215.683 163.240,215.103 163.600,214.712 163.600 C 214.320 163.600,214.000 163.780,214.000 164.000 C 214.000 164.220,213.640 164.400,213.200 164.400 C 212.760 164.400,212.400 164.580,212.400 164.800 C 212.400 165.020,212.080 165.200,211.688 165.200 C 211.297 165.200,210.717 165.560,210.400 166.000 C 210.083 166.440,209.503 166.800,209.112 166.800 C 208.720 166.800,208.400 166.980,208.400 167.200 C 208.400 167.420,208.040 167.600,207.600 167.600 C 207.067 167.600,206.800 167.867,206.800 168.400 C 206.800 168.840,206.620 169.200,206.400 169.200 C 206.139 169.200,206.000 175.539,206.000 187.418 L 206.000 205.636 206.982 206.618 C 207.522 207.158,208.242 207.600,208.582 207.600 C 208.922 207.600,209.200 207.780,209.200 208.000 C 209.200 208.220,209.520 208.400,209.912 208.400 C 210.303 208.400,210.883 208.760,211.200 209.200 C 211.517 209.640,212.097 210.000,212.488 210.000 C 212.880 210.000,213.200 210.180,213.200 210.400 C 213.200 210.620,213.520 210.800,213.912 210.800 C 214.303 210.800,214.883 211.160,215.200 211.600 C 215.517 212.040,216.097 212.400,216.488 212.400 C 216.880 212.400,217.200 212.580,217.200 212.800 C 217.200 213.020,217.560 213.200,218.000 213.200 C 218.440 213.200,218.800 213.380,218.800 213.600 C 218.800 213.820,219.120 214.000,219.512 214.000 C 219.903 214.000,220.483 214.360,220.800 214.800 C 221.117 215.240,221.697 215.600,222.088 215.600 C 222.480 215.600,222.800 215.780,222.800 216.000 C 222.800 216.220,223.160 216.400,223.600 216.400 C 224.040 216.400,224.400 216.580,224.400 216.800 C 224.400 217.020,224.720 217.200,225.112 217.200 C 225.503 217.200,226.083 217.560,226.400 218.000 C 226.717 218.440,227.297 218.800,227.688 218.800 C 228.080 218.800,228.400 218.980,228.400 219.200 C 228.400 219.420,228.760 219.600,229.200 219.600 C 229.640 219.600,230.000 219.780,230.000 220.000 C 230.000 220.220,230.320 220.400,230.712 220.400 C 231.103 220.400,231.683 220.760,232.000 221.200 C 232.317 221.640,232.897 222.000,233.288 222.000 C 233.680 222.000,234.000 222.180,234.000 222.400 C 234.000 222.620,234.360 222.800,234.800 222.800 C 235.240 222.800,235.600 222.980,235.600 223.200 C 235.600 223.429,236.800 223.600,238.400 223.600 C 240.000 223.600,241.200 223.429,241.200 223.200 C 241.200 222.980,241.520 222.800,241.912 222.800 C 242.303 222.800,242.883 222.440,243.200 222.000 C 243.517 221.560,244.097 221.200,244.488 221.200 C 244.880 221.200,245.200 221.020,245.200 220.800 C 245.200 220.580,245.520 220.400,245.912 220.400 C 246.303 220.400,246.883 220.040,247.200 219.600 C 247.517 219.160,248.097 218.800,248.488 218.800 C 248.880 218.800,249.200 218.620,249.200 218.400 C 249.200 218.180,249.560 218.000,250.000 218.000 C 250.440 218.000,250.800 217.820,250.800 217.600 C 250.800 217.380,251.120 217.200,251.512 217.200 C 251.903 217.200,252.483 216.840,252.800 216.400 C 253.117 215.960,253.697 215.600,254.088 215.600 C 254.480 215.600,254.800 215.420,254.800 215.200 C 254.800 214.980,255.160 214.800,255.600 214.800 C 256.040 214.800,256.400 214.620,256.400 214.400 C 256.400 214.180,256.720 214.000,257.112 214.000 C 257.503 214.000,258.083 213.640,258.400 213.200 C 258.717 212.760,259.297 212.400,259.688 212.400 C 260.080 212.400,260.400 212.220,260.400 212.000 C 260.400 211.780,260.720 211.600,261.112 211.600 C 261.503 211.600,262.083 211.240,262.400 210.800 C 262.717 210.360,263.297 210.000,263.688 210.000 C 264.080 210.000,264.400 209.820,264.400 209.600 C 264.400 209.380,264.760 209.200,265.200 209.200 C 265.640 209.200,266.000 209.020,266.000 208.800 C 266.000 208.580,266.320 208.400,266.712 208.400 C 267.103 208.400,267.683 208.040,268.000 207.600 C 268.317 207.160,268.897 206.800,269.288 206.800 C 269.966 206.800,270.000 204.754,270.000 163.782 L 270.000 120.764 269.018 119.782 C 268.478 119.242,267.798 118.800,267.506 118.800 C 267.215 118.800,266.717 118.440,266.400 118.000 C 266.083 117.560,265.503 117.200,265.112 117.200 C 264.720 117.200,264.400 117.020,264.400 116.800 C 264.400 116.580,264.040 116.400,263.600 116.400 C 263.160 116.400,262.800 116.220,262.800 116.000 C 262.800 115.780,262.440 115.600,262.000 115.600 C 261.560 115.600,261.200 115.420,261.200 115.200 C 261.200 114.980,260.880 114.800,260.488 114.800 C 260.097 114.800,259.517 114.440,259.200 114.000 C 258.883 113.560,258.303 113.200,257.912 113.200 C 257.520 113.200,257.200 113.020,257.200 112.800 C 257.200 112.580,256.840 112.400,256.400 112.400 C 255.960 112.400,255.600 112.220,255.600 112.000 C 255.600 111.780,255.240 111.600,254.800 111.600 C 254.360 111.600,254.000 111.420,254.000 111.200 C 254.000 110.980,253.640 110.800,253.200 110.800 C 252.760 110.800,252.400 110.620,252.400 110.400 C 252.400 110.180,251.500 110.000,250.400 110.000 C 248.667 110.000,248.400 110.107,248.400 110.800 M83.600 150.400 C 83.600 150.620,83.240 150.800,82.800 150.800 C 82.360 150.800,82.000 150.980,82.000 151.200 C 82.000 151.420,81.640 151.600,81.200 151.600 C 80.760 151.600,80.400 151.780,80.400 152.000 C 80.400 152.220,80.040 152.400,79.600 152.400 C 79.160 152.400,78.800 152.580,78.800 152.800 C 78.800 153.020,78.480 153.200,78.088 153.200 C 77.697 153.200,77.117 153.560,76.800 154.000 C 76.483 154.440,75.903 154.800,75.512 154.800 C 75.120 154.800,74.800 154.980,74.800 155.200 C 74.800 155.420,74.440 155.600,74.000 155.600 C 73.560 155.600,73.200 155.780,73.200 156.000 C 73.200 156.220,72.880 156.400,72.488 156.400 C 72.097 156.400,71.517 156.760,71.200 157.200 C 70.883 157.640,70.303 158.000,69.912 158.000 C 69.520 158.000,69.200 158.180,69.200 158.400 C 69.200 158.620,68.840 158.800,68.400 158.800 C 67.960 158.800,67.600 158.980,67.600 159.200 C 67.600 159.420,67.280 159.600,66.888 159.600 C 66.497 159.600,65.917 159.960,65.600 160.400 C 65.283 160.840,64.703 161.200,64.312 161.200 C 63.920 161.200,63.600 161.380,63.600 161.600 C 63.600 161.820,63.280 162.000,62.888 162.000 C 62.497 162.000,61.917 162.360,61.600 162.800 C 61.283 163.240,60.703 163.600,60.312 163.600 C 59.920 163.600,59.600 163.780,59.600 164.000 C 59.600 164.220,59.240 164.400,58.800 164.400 C 58.360 164.400,58.000 164.580,58.000 164.800 C 58.000 165.020,57.680 165.200,57.288 165.200 C 56.897 165.200,56.317 165.560,56.000 166.000 C 55.683 166.440,55.180 166.800,54.883 166.800 C 53.200 166.800,53.200 166.805,53.200 191.200 C 53.200 210.823,53.289 214.546,53.771 215.029 C 54.429 215.686,58.800 215.835,58.800 215.200 C 58.800 214.980,59.120 214.800,59.512 214.800 C 59.903 214.800,60.483 214.440,60.800 214.000 C 61.117 213.560,61.697 213.200,62.088 213.200 C 62.480 213.200,62.800 213.020,62.800 212.800 C 62.800 212.580,63.160 212.400,63.600 212.400 C 64.040 212.400,64.400 212.220,64.400 212.000 C 64.400 211.780,64.720 211.600,65.112 211.600 C 65.503 211.600,66.083 211.240,66.400 210.800 C 66.717 210.360,67.297 210.000,67.688 210.000 C 68.080 210.000,68.400 209.820,68.400 209.600 C 68.400 209.380,68.760 209.200,69.200 209.200 C 69.640 209.200,70.000 209.020,70.000 208.800 C 70.000 208.580,70.320 208.400,70.712 208.400 C 71.103 208.400,71.683 208.040,72.000 207.600 C 72.317 207.160,72.815 206.800,73.106 206.800 C 73.398 206.800,74.078 206.358,74.618 205.818 L 75.600 204.836 75.600 193.418 C 75.600 186.073,75.743 182.000,76.000 182.000 C 76.220 182.000,76.400 181.640,76.400 181.200 C 76.400 180.667,76.667 180.400,77.200 180.400 C 77.640 180.400,78.000 180.220,78.000 180.000 C 78.000 179.780,78.320 179.600,78.712 179.600 C 79.103 179.600,79.683 179.240,80.000 178.800 C 80.317 178.360,80.897 178.000,81.288 178.000 C 81.680 178.000,82.000 177.820,82.000 177.600 C 82.000 177.380,82.360 177.200,82.800 177.200 C 83.240 177.200,83.600 177.020,83.600 176.800 C 83.600 176.580,84.320 176.400,85.200 176.400 C 86.080 176.400,86.800 176.580,86.800 176.800 C 86.800 177.020,87.160 177.200,87.600 177.200 C 88.040 177.200,88.400 177.380,88.400 177.600 C 88.400 177.820,88.760 178.000,89.200 178.000 C 89.640 178.000,90.000 178.180,90.000 178.400 C 90.000 178.620,90.320 178.800,90.712 178.800 C 91.103 178.800,91.683 179.160,92.000 179.600 C 92.317 180.040,92.820 180.400,93.117 180.400 C 94.704 180.400,94.800 181.117,94.800 192.971 C 94.800 200.324,94.943 204.400,95.200 204.400 C 95.420 204.400,95.600 204.683,95.600 205.029 C 95.600 205.837,96.563 206.800,97.371 206.800 C 97.717 206.800,98.000 206.980,98.000 207.200 C 98.000 207.420,98.360 207.600,98.800 207.600 C 99.240 207.600,99.600 207.780,99.600 208.000 C 99.600 208.220,99.920 208.400,100.312 208.400 C 100.703 208.400,101.283 208.760,101.600 209.200 C 101.917 209.640,102.497 210.000,102.888 210.000 C 103.280 210.000,103.600 210.180,103.600 210.400 C 103.600 210.620,103.960 210.800,104.400 210.800 C 104.840 210.800,105.200 210.980,105.200 211.200 C 105.200 211.420,105.520 211.600,105.912 211.600 C 106.303 211.600,106.883 211.960,107.200 212.400 C 107.517 212.840,108.097 213.200,108.488 213.200 C 108.880 213.200,109.200 213.380,109.200 213.600 C 109.200 213.820,109.560 214.000,110.000 214.000 C 110.440 214.000,110.800 214.180,110.800 214.400 C 110.800 214.620,111.160 214.800,111.600 214.800 C 112.040 214.800,112.400 214.980,112.400 215.200 C 112.400 215.422,113.467 215.600,114.800 215.600 L 117.200 215.600 117.200 191.782 L 117.200 167.964 116.218 166.982 C 115.678 166.442,114.958 166.000,114.618 166.000 C 114.278 166.000,114.000 165.820,114.000 165.600 C 114.000 165.380,113.680 165.200,113.288 165.200 C 112.897 165.200,112.317 164.840,112.000 164.400 C 111.683 163.960,111.103 163.600,110.712 163.600 C 110.320 163.600,110.000 163.420,110.000 163.200 C 110.000 162.980,109.640 162.800,109.200 162.800 C 108.760 162.800,108.400 162.620,108.400 162.400 C 108.400 162.180,108.080 162.000,107.688 162.000 C 107.297 162.000,106.717 161.640,106.400 161.200 C 106.083 160.760,105.503 160.400,105.112 160.400 C 104.720 160.400,104.400 160.220,104.400 160.000 C 104.400 159.780,104.040 159.600,103.600 159.600 C 103.160 159.600,102.800 159.420,102.800 159.200 C 102.800 158.980,102.480 158.800,102.088 158.800 C 101.697 158.800,101.117 158.440,100.800 158.000 C 100.483 157.560,99.903 157.200,99.512 157.200 C 99.120 157.200,98.800 157.020,98.800 156.800 C 98.800 156.580,98.440 156.400,98.000 156.400 C 97.560 156.400,97.200 156.220,97.200 156.000 C 97.200 155.780,96.880 155.600,96.488 155.600 C 96.097 155.600,95.517 155.240,95.200 154.800 C 94.883 154.360,94.303 154.000,93.912 154.000 C 93.520 154.000,93.200 153.820,93.200 153.600 C 93.200 153.380,92.840 153.200,92.400 153.200 C 91.960 153.200,91.600 153.020,91.600 152.800 C 91.600 152.580,91.280 152.400,90.888 152.400 C 90.497 152.400,89.917 152.040,89.600 151.600 C 89.283 151.160,88.703 150.800,88.312 150.800 C 87.920 150.800,87.600 150.620,87.600 150.400 C 87.600 150.180,86.700 150.000,85.600 150.000 C 84.500 150.000,83.600 150.180,83.600 150.400 M311.200 151.600 C 310.883 152.040,310.303 152.400,309.912 152.400 C 309.520 152.400,309.200 152.580,309.200 152.800 C 309.200 153.020,308.840 153.200,308.400 153.200 C 307.960 153.200,307.600 153.380,307.600 153.600 C 307.600 153.820,307.280 154.000,306.888 154.000 C 306.497 154.000,305.917 154.360,305.600 154.800 C 305.283 155.240,304.703 155.600,304.312 155.600 C 303.920 155.600,303.600 155.780,303.600 156.000 C 303.600 156.220,303.240 156.400,302.800 156.400 C 302.360 156.400,302.000 156.580,302.000 156.800 C 302.000 157.020,301.680 157.200,301.288 157.200 C 300.897 157.200,300.317 157.560,300.000 158.000 C 299.683 158.440,299.103 158.800,298.712 158.800 C 298.320 158.800,298.000 158.980,298.000 159.200 C 298.000 159.420,297.680 159.600,297.288 159.600 C 296.897 159.600,296.317 159.960,296.000 160.400 C 295.683 160.840,295.103 161.200,294.712 161.200 C 294.320 161.200,294.000 161.380,294.000 161.600 C 294.000 161.820,293.640 162.000,293.200 162.000 C 292.760 162.000,292.400 162.180,292.400 162.400 C 292.400 162.620,292.080 162.800,291.688 162.800 C 291.297 162.800,290.717 163.160,290.400 163.600 C 290.083 164.040,289.503 164.400,289.112 164.400 C 288.720 164.400,288.400 164.580,288.400 164.800 C 288.400 165.020,288.040 165.200,287.600 165.200 C 287.160 165.200,286.800 165.380,286.800 165.600 C 286.800 165.820,286.524 166.000,286.187 166.000 C 285.849 166.000,284.949 166.624,284.187 167.387 L 282.800 168.773 282.800 187.215 C 282.800 206.655,282.813 206.800,284.571 206.800 C 284.917 206.800,285.200 206.980,285.200 207.200 C 285.200 207.420,285.520 207.600,285.912 207.600 C 286.303 207.600,286.883 207.960,287.200 208.400 C 287.517 208.840,288.097 209.200,288.488 209.200 C 288.880 209.200,289.200 209.380,289.200 209.600 C 289.200 209.820,289.560 210.000,290.000 210.000 C 290.440 210.000,290.800 210.180,290.800 210.400 C 290.800 210.620,291.120 210.800,291.512 210.800 C 291.903 210.800,292.483 211.160,292.800 211.600 C 293.117 212.040,293.697 212.400,294.088 212.400 C 294.480 212.400,294.800 212.580,294.800 212.800 C 294.800 213.020,295.160 213.200,295.600 213.200 C 296.040 213.200,296.400 213.380,296.400 213.600 C 296.400 213.820,296.720 214.000,297.112 214.000 C 297.503 214.000,298.083 214.360,298.400 214.800 C 298.717 215.240,299.297 215.600,299.688 215.600 C 300.080 215.600,300.400 215.780,300.400 216.000 C 300.400 216.220,300.760 216.400,301.200 216.400 C 301.640 216.400,302.000 216.580,302.000 216.800 C 302.000 217.020,302.320 217.200,302.712 217.200 C 303.103 217.200,303.683 217.560,304.000 218.000 C 304.317 218.440,304.897 218.800,305.288 218.800 C 305.680 218.800,306.000 218.980,306.000 219.200 C 306.000 219.420,306.360 219.600,306.800 219.600 C 307.240 219.600,307.600 219.780,307.600 220.000 C 307.600 220.220,307.920 220.400,308.312 220.400 C 308.703 220.400,309.283 220.760,309.600 221.200 C 309.917 221.640,310.497 222.000,310.888 222.000 C 311.280 222.000,311.600 222.180,311.600 222.400 C 311.600 222.629,312.800 222.800,314.400 222.800 C 316.000 222.800,317.200 222.629,317.200 222.400 C 317.200 222.180,317.560 222.000,318.000 222.000 C 318.440 222.000,318.800 221.820,318.800 221.600 C 318.800 221.380,319.160 221.200,319.600 221.200 C 320.040 221.200,320.400 221.020,320.400 220.800 C 320.400 220.580,320.760 220.400,321.200 220.400 C 321.640 220.400,322.000 220.220,322.000 220.000 C 322.000 219.780,322.320 219.600,322.712 219.600 C 323.103 219.600,323.683 219.240,324.000 218.800 C 324.317 218.360,324.897 218.000,325.288 218.000 C 325.680 218.000,326.000 217.820,326.000 217.600 C 326.000 217.380,326.360 217.200,326.800 217.200 C 327.240 217.200,327.600 217.020,327.600 216.800 C 327.600 216.580,327.960 216.400,328.400 216.400 C 328.840 216.400,329.200 216.220,329.200 216.000 C 329.200 215.780,329.520 215.600,329.912 215.600 C 330.303 215.600,330.883 215.240,331.200 214.800 C 331.517 214.360,332.015 214.000,332.306 214.000 C 333.205 214.000,334.800 212.092,334.800 211.018 C 334.800 210.458,334.620 210.000,334.400 210.000 C 334.180 210.000,334.000 209.640,334.000 209.200 C 334.000 208.667,333.733 208.400,333.200 208.400 C 332.760 208.400,332.400 208.220,332.400 208.000 C 332.400 207.780,332.080 207.600,331.688 207.600 C 331.297 207.600,330.717 207.240,330.400 206.800 C 330.083 206.360,329.503 206.000,329.112 206.000 C 328.720 206.000,328.400 205.820,328.400 205.600 C 328.400 205.380,328.040 205.200,327.600 205.200 C 327.160 205.200,326.800 205.020,326.800 204.800 C 326.800 204.580,326.480 204.400,326.088 204.400 C 325.697 204.400,325.117 204.040,324.800 203.600 C 324.483 203.160,323.903 202.800,323.512 202.800 C 323.120 202.800,322.800 202.620,322.800 202.400 C 322.800 202.180,322.440 202.000,322.000 202.000 C 321.560 202.000,321.200 201.820,321.200 201.600 C 321.200 201.380,320.880 201.200,320.488 201.200 C 320.097 201.200,319.517 200.840,319.200 200.400 C 318.883 199.960,318.303 199.600,317.912 199.600 C 317.520 199.600,317.200 199.420,317.200 199.200 C 317.200 198.980,316.880 198.800,316.488 198.800 C 316.097 198.800,315.517 198.440,315.200 198.000 C 314.883 197.560,314.303 197.200,313.912 197.200 C 313.520 197.200,313.200 197.020,313.200 196.800 C 313.200 196.580,312.840 196.400,312.400 196.400 C 311.960 196.400,311.600 196.220,311.600 196.000 C 311.600 195.780,311.280 195.600,310.888 195.600 C 310.497 195.600,309.917 195.240,309.600 194.800 C 309.283 194.360,308.703 194.000,308.312 194.000 C 307.920 194.000,307.600 193.820,307.600 193.600 C 307.600 193.380,307.317 193.200,306.971 193.200 C 305.457 193.200,305.200 192.246,305.200 186.629 C 305.200 181.691,305.264 181.200,305.912 181.200 C 306.303 181.200,306.883 180.840,307.200 180.400 C 307.517 179.960,308.097 179.600,308.488 179.600 C 308.880 179.600,309.200 179.420,309.200 179.200 C 309.200 178.980,309.560 178.800,310.000 178.800 C 310.440 178.800,310.800 178.620,310.800 178.400 C 310.800 178.180,311.120 178.000,311.512 178.000 C 311.903 178.000,312.483 177.640,312.800 177.200 C 313.394 176.376,315.600 176.061,315.600 176.800 C 315.600 177.020,315.960 177.200,316.400 177.200 C 316.840 177.200,317.200 177.380,317.200 177.600 C 317.200 177.820,317.520 178.000,317.912 178.000 C 318.303 178.000,318.883 178.360,319.200 178.800 C 319.517 179.240,320.097 179.600,320.488 179.600 C 320.880 179.600,321.200 179.780,321.200 180.000 C 321.200 180.220,321.478 180.400,321.818 180.400 C 323.700 180.400,324.400 182.137,324.400 186.810 C 324.400 190.131,324.545 191.402,324.971 191.829 C 325.618 192.475,328.400 192.614,328.400 192.000 C 328.400 191.780,328.760 191.600,329.200 191.600 C 329.640 191.600,330.000 191.420,330.000 191.200 C 330.000 190.980,330.320 190.800,330.712 190.800 C 331.103 190.800,331.683 190.440,332.000 190.000 C 332.317 189.560,332.897 189.200,333.288 189.200 C 333.680 189.200,334.000 189.020,334.000 188.800 C 334.000 188.580,334.320 188.400,334.712 188.400 C 335.103 188.400,335.683 188.040,336.000 187.600 C 336.317 187.160,336.897 186.800,337.288 186.800 C 337.680 186.800,338.000 186.620,338.000 186.400 C 338.000 186.180,338.360 186.000,338.800 186.000 C 339.240 186.000,339.600 185.820,339.600 185.600 C 339.600 185.380,339.920 185.200,340.312 185.200 C 340.703 185.200,341.283 184.840,341.600 184.400 C 341.917 183.960,342.497 183.600,342.888 183.600 C 343.280 183.600,343.600 183.420,343.600 183.200 C 343.600 182.980,343.878 182.800,344.218 182.800 C 346.281 182.800,346.800 181.192,346.800 174.800 C 346.800 168.478,346.277 166.800,344.306 166.800 C 344.015 166.800,343.517 166.440,343.200 166.000 C 342.883 165.560,342.303 165.200,341.912 165.200 C 341.520 165.200,341.200 165.020,341.200 164.800 C 341.200 164.580,340.880 164.400,340.488 164.400 C 340.097 164.400,339.517 164.040,339.200 163.600 C 338.883 163.160,338.303 162.800,337.912 162.800 C 337.520 162.800,337.200 162.620,337.200 162.400 C 337.200 162.180,336.840 162.000,336.400 162.000 C 335.960 162.000,335.600 161.820,335.600 161.600 C 335.600 161.380,335.280 161.200,334.888 161.200 C 334.497 161.200,333.917 160.840,333.600 160.400 C 333.283 159.960,332.703 159.600,332.312 159.600 C 331.920 159.600,331.600 159.420,331.600 159.200 C 331.600 158.980,331.280 158.800,330.888 158.800 C 330.497 158.800,329.917 158.440,329.600 158.000 C 329.283 157.560,328.703 157.200,328.312 157.200 C 327.920 157.200,327.600 157.020,327.600 156.800 C 327.600 156.580,327.240 156.400,326.800 156.400 C 326.360 156.400,326.000 156.220,326.000 156.000 C 326.000 155.780,325.680 155.600,325.288 155.600 C 324.897 155.600,324.317 155.240,324.000 154.800 C 323.683 154.360,323.103 154.000,322.712 154.000 C 322.320 154.000,322.000 153.820,322.000 153.600 C 322.000 153.380,321.640 153.200,321.200 153.200 C 320.760 153.200,320.400 153.020,320.400 152.800 C 320.400 152.580,320.080 152.400,319.688 152.400 C 319.297 152.400,318.717 152.040,318.400 151.600 C 317.911 150.921,317.365 150.800,314.800 150.800 C 312.235 150.800,311.689 150.921,311.200 151.600 M239.200 177.200 C 239.517 177.640,240.097 178.000,240.488 178.000 C 240.880 178.000,241.200 178.180,241.200 178.400 C 241.200 178.620,241.560 178.800,242.000 178.800 C 242.440 178.800,242.800 178.980,242.800 179.200 C 242.800 179.420,243.120 179.600,243.512 179.600 C 243.903 179.600,244.483 179.960,244.800 180.400 C 245.117 180.840,245.620 181.200,245.917 181.200 C 247.336 181.200,247.600 182.232,247.600 187.771 C 247.600 192.933,247.561 193.200,246.800 193.200 C 246.360 193.200,246.000 193.380,246.000 193.600 C 246.000 193.820,245.680 194.000,245.288 194.000 C 244.897 194.000,244.317 194.360,244.000 194.800 C 243.683 195.240,243.103 195.600,242.712 195.600 C 242.320 195.600,242.000 195.780,242.000 196.000 C 242.000 196.220,241.640 196.400,241.200 196.400 C 240.760 196.400,240.400 196.580,240.400 196.800 C 240.400 197.020,240.040 197.200,239.600 197.200 C 239.160 197.200,238.800 197.380,238.800 197.600 C 238.800 197.820,238.440 198.000,238.000 198.000 C 237.560 198.000,237.200 197.820,237.200 197.600 C 237.200 197.380,236.880 197.200,236.488 197.200 C 236.097 197.200,235.517 196.840,235.200 196.400 C 234.883 195.960,234.303 195.600,233.912 195.600 C 233.520 195.600,233.200 195.420,233.200 195.200 C 233.200 194.980,232.840 194.800,232.400 194.800 C 231.960 194.800,231.600 194.620,231.600 194.400 C 231.600 194.180,231.322 194.000,230.982 194.000 C 229.047 194.000,228.400 192.293,228.400 187.190 C 228.400 182.183,228.691 181.200,230.171 181.200 C 230.517 181.200,230.800 181.020,230.800 180.800 C 230.800 180.580,231.120 180.400,231.512 180.400 C 231.903 180.400,232.483 180.040,232.800 179.600 C 233.117 179.160,233.697 178.800,234.088 178.800 C 234.480 178.800,234.800 178.620,234.800 178.400 C 234.800 178.180,235.160 178.000,235.600 178.000 C 236.040 178.000,236.400 177.820,236.400 177.600 C 236.400 177.380,236.760 177.200,237.200 177.200 C 237.640 177.200,238.000 177.020,238.000 176.800 C 238.000 176.148,238.582 176.342,239.200 177.200 M218.602 254.002 C 219.002 254.444,219.411 254.722,219.512 254.621 C 219.728 254.405,218.588 253.200,218.167 253.200 C 218.007 253.200,218.203 253.561,218.602 254.002 M199.402 261.202 C 199.802 261.644,200.211 261.922,200.312 261.821 C 200.528 261.605,199.388 260.400,198.967 260.400 C 198.807 260.400,199.003 260.761,199.402 261.202 M217.802 265.998 C 217.403 266.439,217.207 266.800,217.367 266.800 C 217.788 266.800,218.928 265.595,218.712 265.379 C 218.611 265.278,218.202 265.556,217.802 265.998 M172.202 268.402 C 172.602 268.844,173.011 269.122,173.112 269.021 C 173.328 268.805,172.188 267.600,171.767 267.600 C 171.607 267.600,171.803 267.961,172.202 268.402 " stroke="none" fill="#444434" fill-rule="evenodd"></path><path id="path3" d="" stroke="none" fill="#44443c" fill-rule="evenodd"></path><path id="path4" d="" stroke="none" fill="#60604c" fill-rule="evenodd"></path></g></svg>