<svg id="svg" version="1.1" width="400" height="400" viewBox="0 0 400 400" xmlns="http://www.w3.org/2000/svg" xmlns:xlink="http://www.w3.org/1999/xlink" ><g id="svgg"><path id="path0" d="M70.584 160.100 C 70.479 160.375,70.440 174.820,70.497 192.200 L 70.600 223.800 86.400 223.800 L 102.200 223.800 102.400 199.800 L 102.600 175.800 110.800 175.800 L 119.000 175.800 119.103 199.908 L 119.206 224.017 127.103 223.908 L 135.000 223.800 135.110 192.600 C 135.171 175.440,135.122 160.995,135.003 160.500 L 134.785 159.600 102.780 159.600 C 77.544 159.600,70.735 159.706,70.584 160.100 M151.785 160.098 C 151.680 160.374,151.640 178.510,151.697 200.400 L 151.800 240.200 167.800 240.200 L 183.800 240.200 183.909 232.630 C 183.978 227.872,184.182 224.863,184.458 224.530 C 184.809 224.107,188.026 224.000,200.451 224.000 L 216.005 224.000 215.902 191.900 L 215.800 159.800 183.888 159.698 C 158.571 159.616,151.937 159.699,151.785 160.098 M232.984 160.100 C 232.879 160.375,232.840 174.820,232.897 192.200 L 233.000 223.800 248.800 223.800 L 264.600 223.800 264.800 199.800 L 265.000 175.800 273.000 175.800 L 281.000 175.800 281.200 199.800 L 281.400 223.800 289.400 223.800 L 297.400 223.800 297.503 199.692 L 297.606 175.583 305.703 175.692 L 313.800 175.800 314.000 199.800 L 314.200 223.800 322.200 223.800 L 330.200 223.800 330.310 192.600 C 330.371 175.440,330.322 160.995,330.203 160.500 L 329.985 159.600 281.580 159.600 C 243.224 159.600,233.135 159.704,232.984 160.100 M200.000 191.808 L 200.000 208.017 192.100 207.908 L 184.200 207.800 184.095 192.201 C 184.038 183.621,184.077 176.376,184.183 176.101 C 184.328 175.723,186.298 175.600,192.187 175.600 L 200.000 175.600 200.000 191.808 " stroke="none" fill="#fbfafa" fill-rule="evenodd"></path><path id="path1" d="M70.400 159.498 C 70.400 159.664,84.833 159.753,102.473 159.695 C 127.933 159.612,134.621 159.695,134.904 160.095 C 135.171 160.473,135.220 160.449,135.097 160.000 C 134.919 159.347,70.400 158.846,70.400 159.498 M151.385 159.698 C 151.280 159.974,151.240 178.290,151.297 200.400 L 151.400 240.600 167.800 240.600 L 184.200 240.600 184.308 232.942 C 184.390 227.204,184.549 225.174,184.944 224.847 C 185.299 224.552,190.457 224.376,200.835 224.305 L 216.200 224.200 216.200 191.800 L 216.200 159.400 183.888 159.298 C 158.251 159.216,151.537 159.299,151.385 159.698 M232.800 159.498 C 232.800 159.664,254.613 159.754,281.274 159.697 C 319.857 159.615,329.821 159.696,330.105 160.097 C 330.370 160.472,330.419 160.448,330.297 160.000 C 330.119 159.346,232.800 158.846,232.800 159.498 M215.902 191.900 L 216.005 224.000 200.451 224.000 C 188.026 224.000,184.809 224.107,184.458 224.530 C 184.182 224.863,183.978 227.872,183.909 232.630 L 183.800 240.200 167.800 240.200 L 151.800 240.200 151.697 200.400 C 151.640 178.510,151.680 160.374,151.785 160.098 C 151.937 159.699,158.571 159.616,183.888 159.698 L 215.800 159.800 215.902 191.900 M102.667 175.892 C 102.562 176.061,106.104 176.200,110.538 176.200 L 118.600 176.200 118.800 200.200 L 119.000 224.200 127.100 224.308 C 131.555 224.368,135.200 224.278,135.200 224.108 C 135.201 223.939,131.602 223.852,127.204 223.916 L 119.206 224.032 119.103 199.916 L 119.000 175.800 110.929 175.692 C 106.489 175.632,102.771 175.722,102.667 175.892 M184.183 176.101 C 183.627 177.548,184.213 207.738,184.800 207.932 C 185.295 208.095,185.312 208.023,184.895 207.518 C 184.504 207.044,184.414 203.450,184.495 191.553 L 184.600 176.200 192.400 175.987 L 200.200 175.774 192.287 175.687 C 186.253 175.621,184.329 175.719,184.183 176.101 M265.066 175.892 C 264.961 176.061,268.457 176.148,272.834 176.084 L 280.794 175.968 280.897 200.084 L 281.000 224.200 289.300 224.308 C 293.865 224.368,297.600 224.278,297.600 224.108 C 297.600 223.939,293.955 223.800,289.500 223.800 L 281.400 223.800 281.200 199.800 L 281.000 175.800 273.129 175.692 C 268.800 175.632,265.172 175.722,265.066 175.892 M305.597 175.896 L 313.594 176.017 313.697 200.108 L 313.800 224.200 322.100 224.308 C 326.665 224.368,330.400 224.278,330.400 224.108 C 330.400 223.939,326.755 223.800,322.300 223.800 L 314.200 223.800 314.000 199.800 L 313.800 175.800 305.700 175.787 L 297.599 175.775 305.597 175.896 M70.400 224.100 C 70.400 224.265,77.600 224.400,86.400 224.400 C 95.200 224.400,102.400 224.265,102.400 224.100 C 102.400 223.935,95.200 223.800,86.400 223.800 C 77.600 223.800,70.400 223.935,70.400 224.100 M232.800 224.100 C 232.800 224.265,240.000 224.400,248.800 224.400 C 257.600 224.400,264.800 224.265,264.800 224.100 C 264.800 223.935,257.600 223.800,248.800 223.800 C 240.000 223.800,232.800 223.935,232.800 224.100 " stroke="none" fill="#e49c9c" fill-rule="evenodd"></path><path id="path2" d="M70.082 159.278 C 69.571 159.789,69.339 222.853,69.843 224.167 C 69.976 224.515,70.268 224.800,70.492 224.800 C 70.745 224.800,70.727 224.595,70.447 224.256 C 70.118 223.860,70.023 214.980,70.098 191.556 L 70.200 159.400 102.705 159.298 L 135.209 159.195 135.105 191.978 C 135.047 210.008,135.136 224.624,135.302 224.458 C 135.469 224.291,135.559 209.495,135.502 191.578 L 135.400 159.000 102.982 158.898 C 78.100 158.819,70.453 158.907,70.082 159.278 M151.280 159.280 C 150.584 159.976,150.584 240.024,151.280 240.720 C 151.641 241.081,155.792 241.177,167.980 241.107 L 184.200 241.013 167.800 240.807 L 151.400 240.600 151.400 200.000 L 151.400 159.400 183.800 159.196 L 216.200 158.993 183.980 158.896 C 159.345 158.823,151.647 158.913,151.280 159.280 M232.482 159.278 C 231.971 159.789,231.739 222.855,232.243 224.167 C 232.376 224.515,232.668 224.800,232.892 224.800 C 233.145 224.800,233.127 224.595,232.847 224.256 C 232.518 223.860,232.423 214.980,232.498 191.556 L 232.600 159.400 281.505 159.298 L 330.409 159.197 330.305 191.978 C 330.247 210.008,330.336 224.624,330.502 224.458 C 330.669 224.291,330.759 209.495,330.702 191.578 L 330.600 159.000 281.782 158.898 C 244.143 158.820,232.853 158.907,232.482 159.278 M103.067 176.267 C 102.920 176.413,102.800 187.177,102.800 200.187 C 102.800 218.050,102.683 223.957,102.320 224.320 C 101.999 224.641,101.985 224.800,102.277 224.800 C 103.141 224.800,103.200 223.213,103.200 199.976 L 103.200 176.417 110.900 176.299 L 118.600 176.182 110.967 176.091 C 106.768 176.041,103.213 176.120,103.067 176.267 M192.300 176.296 L 199.600 176.418 199.600 191.826 L 199.600 207.234 192.200 207.117 C 188.129 207.053,184.799 207.139,184.800 207.309 C 184.800 207.479,188.175 207.569,192.300 207.509 L 199.800 207.400 199.800 191.800 L 199.800 176.200 192.400 176.187 L 185.000 176.174 192.300 176.296 M265.475 176.258 C 265.324 176.409,265.200 187.177,265.200 200.187 C 265.200 218.050,265.083 223.957,264.720 224.320 C 264.399 224.641,264.385 224.800,264.677 224.800 C 265.541 224.800,265.600 223.213,265.600 199.967 L 265.600 176.400 272.997 176.400 L 280.394 176.400 280.502 200.100 L 280.609 223.800 280.605 200.000 L 280.600 176.200 273.175 176.091 C 269.092 176.032,265.627 176.107,265.475 176.258 M297.792 176.491 C 297.471 177.352,297.381 224.736,297.700 224.538 C 297.865 224.436,298.000 213.563,298.000 200.376 L 298.000 176.400 305.597 176.400 L 313.194 176.400 313.302 200.300 L 313.410 224.200 313.405 200.200 L 313.400 176.200 305.691 176.091 C 299.740 176.007,297.938 176.099,297.792 176.491 " stroke="none" fill="#dc6c6c" fill-rule="evenodd"></path><path id="path3" d="M70.191 191.800 C 70.191 209.620,70.240 216.968,70.300 208.130 C 70.360 199.291,70.360 184.711,70.300 175.730 C 70.240 166.748,70.191 173.980,70.191 191.800 M232.591 191.800 C 232.591 209.620,232.640 216.968,232.700 208.130 C 232.760 199.291,232.760 184.711,232.700 175.730 C 232.640 166.748,232.591 173.980,232.591 191.800 M216.399 192.000 L 216.200 224.200 200.600 224.407 L 185.000 224.614 200.451 224.707 C 213.074 224.783,215.985 224.700,216.353 224.256 C 216.682 223.860,216.777 215.034,216.701 191.756 L 216.598 159.800 216.399 192.000 M102.584 176.500 C 102.478 176.775,102.439 187.620,102.496 200.600 L 102.600 224.200 102.800 200.100 C 102.910 186.845,102.949 176.000,102.887 176.000 C 102.826 176.000,102.689 176.225,102.584 176.500 M264.984 176.500 C 264.878 176.775,264.839 187.620,264.896 200.600 L 265.000 224.200 265.200 200.100 C 265.310 186.845,265.349 176.000,265.287 176.000 C 265.226 176.000,265.089 176.225,264.984 176.500 M118.495 200.020 C 118.423 218.121,118.515 223.955,118.880 224.320 C 119.227 224.667,121.529 224.776,127.180 224.713 L 135.000 224.626 127.000 224.413 L 119.000 224.200 118.795 200.200 L 118.591 176.200 118.495 200.020 M184.582 191.800 C 184.582 200.380,184.635 203.833,184.700 199.474 C 184.764 195.114,184.764 188.094,184.699 183.874 C 184.635 179.653,184.582 183.220,184.582 191.800 M192.400 207.600 L 185.000 207.827 192.276 207.914 C 196.791 207.967,199.647 207.848,199.800 207.600 C 199.936 207.380,199.992 207.239,199.924 207.286 C 199.856 207.334,196.470 207.475,192.400 207.600 M78.500 224.700 C 82.845 224.764,89.955 224.764,94.300 224.700 C 98.645 224.635,95.090 224.582,86.400 224.582 C 77.710 224.582,74.155 224.635,78.500 224.700 M240.900 224.700 C 245.245 224.764,252.355 224.764,256.700 224.700 C 261.045 224.635,257.490 224.582,248.800 224.582 C 240.110 224.582,236.555 224.635,240.900 224.700 M285.521 224.699 C 287.788 224.770,291.388 224.770,293.521 224.698 C 295.655 224.626,293.800 224.568,289.400 224.568 C 285.000 224.568,283.255 224.627,285.521 224.699 M318.321 224.699 C 320.588 224.770,324.188 224.770,326.321 224.698 C 328.455 224.626,326.600 224.568,322.200 224.568 C 317.800 224.568,316.055 224.627,318.321 224.699 M184.567 232.600 C 184.567 236.780,184.626 238.436,184.698 236.279 C 184.771 234.123,184.770 230.703,184.698 228.679 C 184.625 226.656,184.566 228.420,184.567 232.600 " stroke="none" fill="#dc8484" fill-rule="evenodd"></path><path id="path4" d="M53.200 191.600 L 53.200 241.200 93.600 241.200 L 134.000 241.200 134.000 249.600 L 134.000 258.000 167.200 258.000 L 200.400 258.000 200.400 249.600 L 200.400 241.200 273.600 241.200 L 346.800 241.200 346.800 191.600 L 346.800 142.000 200.000 142.000 L 53.200 142.000 53.200 191.600 M135.400 191.800 L 135.400 224.600 126.900 224.708 L 118.400 224.816 118.400 200.608 L 118.400 176.400 110.800 176.400 L 103.200 176.400 103.200 199.967 C 103.200 212.929,103.091 223.819,102.957 224.167 C 102.587 225.131,70.213 225.131,69.843 224.167 C 69.339 222.853,69.571 159.789,70.082 159.278 C 70.453 158.907,78.100 158.819,102.982 158.898 L 135.400 159.000 135.400 191.800 M216.167 159.043 C 216.737 159.261,216.800 162.541,216.800 192.038 L 216.800 224.791 200.900 224.895 L 185.000 225.000 184.891 232.782 C 184.813 238.394,184.645 240.651,184.291 240.876 C 183.433 241.421,151.832 241.272,151.280 240.720 C 150.584 240.024,150.584 159.976,151.280 159.280 C 151.789 158.771,214.859 158.541,216.167 159.043 M330.600 191.800 L 330.600 224.600 322.229 224.708 C 315.799 224.792,313.783 224.699,313.535 224.308 C 313.357 224.029,313.209 213.135,313.206 200.100 L 313.200 176.400 305.603 176.400 L 298.006 176.400 297.903 200.500 L 297.800 224.600 289.429 224.708 C 282.999 224.792,280.983 224.699,280.735 224.308 C 280.557 224.029,280.409 213.135,280.406 200.100 L 280.400 176.400 273.000 176.400 L 265.600 176.400 265.600 199.967 C 265.600 212.929,265.491 223.819,265.357 224.167 C 264.987 225.131,232.613 225.131,232.243 224.167 C 231.739 222.855,231.971 159.789,232.482 159.278 C 232.853 158.907,244.143 158.820,281.782 158.898 L 330.600 159.000 330.600 191.800 M184.895 191.700 L 185.000 207.000 192.300 207.109 L 199.600 207.218 199.600 191.809 L 199.600 176.400 192.195 176.400 L 184.790 176.400 184.895 191.700 " stroke="none" fill="#cc3c34" fill-rule="evenodd"></path></g></svg>