<svg id="svg" version="1.1" width="400" height="245" viewBox="0 0 400 245" xmlns="http://www.w3.org/2000/svg" xmlns:xlink="http://www.w3.org/1999/xlink" ><g id="svgg"><path id="path0" d="M119.853 0.553 C 118.572 0.832,117.490 1.146,117.447 1.251 C 117.405 1.357,117.212 1.382,117.018 1.308 C 116.825 1.234,116.667 1.268,116.667 1.383 C 116.667 1.499,116.419 1.606,116.115 1.621 C 115.543 1.650,115.372 1.707,111.520 3.153 C 109.193 4.027,104.398 6.271,104.167 6.594 C 104.099 6.689,103.658 6.956,103.186 7.189 C 102.164 7.693,101.980 7.805,99.226 9.617 C 98.050 10.390,96.827 11.283,96.508 11.602 C 96.189 11.921,95.805 12.226,95.654 12.280 C 95.178 12.449,90.852 16.313,88.383 18.773 C 87.114 20.038,84.734 22.675,84.125 23.491 C 83.757 23.984,83.253 24.608,83.005 24.877 C 82.193 25.759,78.922 30.327,78.922 30.578 C 78.922 30.712,78.753 30.962,78.548 31.132 C 78.084 31.517,75.675 35.202,75.734 35.436 C 75.758 35.530,75.682 35.674,75.567 35.757 C 74.979 36.176,71.499 42.703,69.737 46.691 C 69.380 47.500,68.982 48.356,68.853 48.594 C 68.653 48.963,67.791 51.131,65.411 57.252 C 65.145 57.937,64.909 58.737,64.887 59.029 C 64.865 59.320,64.770 59.559,64.675 59.559 C 64.581 59.559,64.426 60.028,64.331 60.600 C 64.236 61.173,64.044 61.860,63.904 62.125 C 62.793 64.237,59.991 76.796,59.064 83.824 C 58.913 84.969,58.687 86.513,58.562 87.255 C 58.438 87.996,58.333 89.154,58.330 89.828 C 58.326 90.502,58.264 91.495,58.191 92.034 C 57.634 96.161,57.639 114.405,58.198 118.505 C 58.290 119.179,58.353 120.148,58.339 120.659 C 58.324 121.170,58.421 122.217,58.553 122.987 C 58.686 123.757,58.919 125.380,59.072 126.593 C 59.225 127.806,59.459 129.240,59.593 129.779 C 59.726 130.319,59.835 130.925,59.834 131.127 C 59.829 131.873,60.601 135.670,60.810 135.929 C 60.928 136.077,60.970 136.252,60.903 136.319 C 60.749 136.473,61.951 141.834,62.276 142.440 C 62.408 142.689,62.464 142.892,62.399 142.892 C 62.276 142.892,62.522 143.801,63.757 147.917 C 64.539 150.522,64.873 151.538,65.208 152.328 C 65.323 152.598,65.577 153.315,65.774 153.922 C 66.183 155.186,67.607 158.807,67.843 159.184 C 67.930 159.323,68.022 159.573,68.047 159.740 C 68.212 160.830,73.325 171.265,73.870 171.626 C 74.020 171.725,74.042 171.808,73.920 171.810 C 73.798 171.812,73.857 172.007,74.051 172.243 C 74.244 172.479,74.667 173.168,74.989 173.775 C 75.312 174.381,75.653 174.933,75.748 175.000 C 75.842 175.067,76.133 175.509,76.394 175.980 C 77.306 177.629,77.991 178.676,78.157 178.676 C 78.249 178.676,78.454 178.980,78.613 179.350 C 78.772 179.721,79.468 180.733,80.159 181.598 C 81.355 183.096,81.408 183.225,81.274 184.294 C 80.895 187.292,80.836 189.851,81.115 191.148 C 81.568 193.256,82.173 195.098,82.412 195.098 C 82.530 195.098,82.559 195.208,82.475 195.343 C 82.392 195.478,82.429 195.588,82.557 195.588 C 82.685 195.588,82.864 195.885,82.955 196.247 C 83.529 198.531,87.382 202.236,90.809 203.798 C 97.380 206.794,105.758 205.190,110.245 200.077 C 110.815 199.428,111.445 198.722,111.645 198.509 C 111.846 198.295,112.010 198.001,112.010 197.855 C 112.010 197.709,112.106 197.553,112.224 197.508 C 113.510 197.018,114.997 191.267,114.846 187.367 C 114.729 184.343,113.206 179.658,112.194 179.208 C 112.093 179.163,112.010 179.006,112.010 178.860 C 112.010 178.563,111.858 178.381,110.010 176.456 C 108.063 174.429,104.760 172.394,102.696 171.951 C 100.077 171.387,99.115 171.286,97.162 171.370 L 94.938 171.465 93.854 170.008 C 93.257 169.207,92.659 168.375,92.525 168.160 C 92.390 167.945,92.169 167.689,92.034 167.590 C 91.900 167.490,91.874 167.408,91.977 167.406 C 92.146 167.402,91.014 165.490,90.669 165.196 C 90.590 165.129,90.356 164.743,90.149 164.338 C 88.742 161.590,86.760 157.789,86.601 157.535 C 86.496 157.367,86.393 157.120,86.371 156.985 C 86.350 156.850,85.950 155.913,85.484 154.902 C 85.018 153.891,84.378 152.402,84.061 151.593 C 83.745 150.784,83.424 150.067,83.349 150.000 C 83.273 149.933,83.180 149.712,83.143 149.510 C 83.105 149.308,82.977 148.922,82.858 148.652 C 82.544 147.938,82.288 147.228,82.212 146.856 C 82.176 146.677,82.065 146.346,81.967 146.121 C 81.869 145.895,81.757 145.545,81.719 145.343 C 81.573 144.576,81.034 143.005,80.840 142.782 C 80.728 142.654,80.637 142.247,80.637 141.877 C 80.637 141.508,80.539 141.145,80.419 141.071 C 80.299 140.997,80.142 140.576,80.069 140.137 C 79.851 138.816,79.632 137.895,79.413 137.377 C 79.299 137.108,79.143 136.501,79.067 136.029 C 78.990 135.558,78.651 133.958,78.313 132.475 C 77.975 130.993,77.651 129.393,77.593 128.922 C 77.535 128.450,77.419 127.788,77.334 127.451 C 77.250 127.114,77.147 126.452,77.105 125.980 C 77.063 125.509,76.956 124.626,76.866 124.020 C 76.618 122.350,76.264 119.227,76.074 117.034 C 75.980 115.956,75.872 114.853,75.834 114.583 C 75.652 113.310,75.766 96.457,75.969 94.615 C 76.095 93.465,76.268 91.697,76.353 90.686 C 76.531 88.558,76.637 87.609,76.856 86.192 C 76.943 85.631,77.059 84.786,77.114 84.314 C 77.316 82.598,77.362 82.360,77.528 82.195 C 77.620 82.102,77.696 81.699,77.696 81.299 C 77.696 80.899,77.799 80.173,77.924 79.685 C 78.193 78.638,78.667 76.309,78.753 75.613 C 78.786 75.343,78.878 75.012,78.958 74.877 C 79.037 74.743,79.190 74.191,79.296 73.652 C 79.403 73.113,79.518 72.561,79.552 72.426 C 79.744 71.658,80.433 69.255,80.887 67.770 C 81.176 66.826,81.467 65.833,81.535 65.564 C 81.603 65.294,81.754 64.853,81.871 64.583 C 81.988 64.314,82.258 63.542,82.472 62.868 C 82.950 61.358,83.958 58.807,84.629 57.410 C 84.905 56.834,85.131 56.200,85.131 56.000 C 85.131 55.801,85.200 55.637,85.286 55.637 C 85.466 55.637,86.153 53.887,86.079 53.615 C 86.052 53.514,86.121 53.431,86.232 53.431 C 86.344 53.431,86.969 52.301,87.623 50.919 C 88.276 49.537,88.965 48.224,89.154 47.999 C 89.343 47.775,89.522 47.428,89.551 47.228 C 89.581 47.027,89.903 46.433,90.268 45.906 C 90.633 45.380,90.931 44.817,90.931 44.656 C 90.931 44.495,91.042 44.363,91.176 44.363 C 91.311 44.363,91.422 44.261,91.422 44.137 C 91.422 44.013,92.028 43.031,92.770 41.955 C 93.511 40.878,94.118 39.932,94.118 39.852 C 94.118 39.772,94.311 39.506,94.547 39.263 C 95.095 38.696,97.176 35.985,97.310 35.662 C 97.366 35.527,97.719 35.159,98.093 34.843 C 98.468 34.528,98.775 34.181,98.775 34.073 C 98.775 33.921,103.788 28.876,105.238 27.570 C 106.445 26.482,111.368 23.112,112.746 22.430 C 113.015 22.297,113.235 22.097,113.235 21.986 C 113.235 21.875,113.346 21.853,113.480 21.936 C 113.615 22.020,113.725 21.971,113.725 21.828 C 113.725 21.685,113.833 21.569,113.964 21.569 C 114.096 21.569,114.926 21.238,115.809 20.833 C 116.692 20.429,117.522 20.098,117.653 20.098 C 117.785 20.098,117.892 19.969,117.892 19.812 C 117.892 19.655,117.957 19.591,118.037 19.671 C 118.117 19.751,118.658 19.612,119.240 19.363 C 119.822 19.113,120.354 18.965,120.422 19.033 C 120.490 19.102,120.804 19.015,121.119 18.840 C 121.434 18.666,121.786 18.551,121.901 18.584 C 122.016 18.617,122.237 18.551,122.391 18.437 C 122.545 18.322,123.113 18.197,123.652 18.159 C 124.191 18.121,124.853 17.968,125.122 17.819 C 125.442 17.643,127.408 17.561,130.760 17.584 C 135.833 17.619,136.528 17.658,137.255 17.954 C 137.457 18.036,138.064 18.166,138.603 18.242 C 140.293 18.481,140.701 18.580,141.004 18.824 C 141.166 18.954,141.685 19.150,142.157 19.259 C 143.284 19.520,143.351 19.536,143.566 19.606 C 143.667 19.639,143.833 19.653,143.934 19.637 C 144.035 19.621,144.118 19.718,144.118 19.853 C 144.118 19.988,144.280 20.098,144.479 20.098 C 144.678 20.098,145.194 20.313,145.626 20.576 C 146.058 20.838,146.489 21.005,146.585 20.946 C 146.680 20.887,146.894 21.003,147.061 21.204 C 147.228 21.404,147.456 21.569,147.568 21.569 C 147.681 21.569,148.329 21.897,149.009 22.298 C 149.689 22.698,150.245 22.970,150.245 22.901 C 150.245 22.832,150.471 22.985,150.747 23.242 C 151.022 23.499,151.657 23.917,152.156 24.171 C 152.655 24.425,153.152 24.770,153.260 24.939 C 153.368 25.107,153.568 25.245,153.705 25.245 C 153.992 25.245,156.221 27.121,158.587 29.351 C 159.480 30.194,160.285 30.809,160.375 30.719 C 160.466 30.629,160.543 30.712,160.547 30.903 C 160.551 31.094,161.433 32.177,162.507 33.310 C 163.582 34.443,164.461 35.454,164.461 35.557 C 164.461 35.660,164.544 35.780,164.646 35.825 C 164.749 35.870,165.214 36.403,165.682 37.010 C 166.149 37.616,166.591 38.168,166.663 38.235 C 166.735 38.303,167.395 39.240,168.128 40.319 C 168.862 41.397,169.550 42.316,169.658 42.361 C 169.765 42.406,169.853 42.555,169.853 42.691 C 169.853 42.828,170.473 43.942,171.231 45.167 C 172.922 47.902,173.475 48.861,174.089 50.123 C 174.351 50.662,174.746 51.308,174.967 51.558 C 175.187 51.808,175.324 52.028,175.270 52.048 C 175.077 52.118,175.529 53.186,175.752 53.186 C 175.878 53.186,175.958 53.269,175.930 53.370 C 175.902 53.471,176.123 54.092,176.420 54.749 C 176.718 55.407,176.961 55.993,176.961 56.051 C 176.961 56.110,177.232 56.730,177.564 57.430 C 178.310 59.002,179.635 62.638,180.528 65.564 C 180.898 66.777,181.279 67.801,181.374 67.839 C 181.469 67.878,181.497 68.168,181.436 68.485 C 181.376 68.801,181.447 69.135,181.595 69.226 C 181.742 69.317,181.863 69.625,181.863 69.911 C 181.863 70.197,181.965 70.770,182.089 71.184 C 182.214 71.598,182.434 72.515,182.579 73.223 C 182.724 73.931,182.955 75.034,183.092 75.674 C 183.229 76.314,183.499 77.665,183.694 78.676 C 184.036 80.462,184.809 81.615,185.662 81.615 C 185.905 81.615,189.122 82.832,190.601 83.483 C 191.026 83.670,191.499 83.824,191.652 83.824 C 191.806 83.824,192.396 84.066,192.963 84.363 C 193.531 84.660,194.078 84.881,194.179 84.853 C 194.280 84.826,194.363 84.921,194.363 85.063 C 194.363 85.206,194.473 85.255,194.608 85.172 C 194.743 85.088,194.853 85.129,194.853 85.263 C 194.853 85.397,195.090 85.582,195.380 85.674 C 195.671 85.766,196.454 86.163,197.121 86.556 C 197.788 86.950,198.461 87.295,198.616 87.324 C 198.770 87.354,198.952 87.433,199.020 87.500 C 199.720 88.200,202.249 89.187,202.804 88.976 C 203.530 88.700,203.509 85.833,202.762 83.088 C 202.707 82.886,202.674 82.358,202.688 81.914 C 202.701 81.471,202.632 80.976,202.532 80.815 C 202.316 80.466,202.191 79.755,202.202 78.930 C 202.206 78.598,202.099 77.991,201.964 77.582 C 201.830 77.173,201.666 76.507,201.601 76.103 C 200.980 72.228,198.918 64.006,198.150 62.340 C 197.954 61.916,197.794 61.396,197.794 61.185 C 197.794 60.807,197.241 59.042,196.746 57.843 C 196.607 57.506,196.454 57.023,196.405 56.771 C 196.357 56.518,196.165 55.966,195.979 55.545 C 195.793 55.124,195.122 53.456,194.489 51.838 C 193.855 50.221,193.250 48.787,193.145 48.652 C 193.039 48.517,192.868 48.131,192.764 47.794 C 192.247 46.106,187.027 36.154,186.450 35.757 C 186.331 35.674,186.247 35.534,186.264 35.444 C 186.313 35.186,185.454 33.824,185.241 33.824 C 185.136 33.824,185.049 33.675,185.049 33.494 C 185.049 33.192,181.750 28.302,181.058 27.578 C 180.894 27.406,180.594 27.016,180.392 26.709 C 179.861 25.906,176.723 22.026,176.122 21.431 C 175.842 21.153,174.868 20.144,173.958 19.188 C 173.048 18.232,172.304 17.476,172.304 17.507 C 172.304 17.539,171.615 16.890,170.772 16.064 C 169.930 15.238,168.814 14.237,168.293 13.838 C 167.773 13.439,167.063 12.871,166.716 12.575 C 166.368 12.280,165.978 12.104,165.848 12.184 C 165.717 12.265,165.682 12.216,165.768 12.075 C 166.033 11.648,158.681 6.688,157.748 6.665 C 157.628 6.662,157.463 6.559,157.380 6.435 C 156.844 5.634,147.313 1.665,145.343 1.423 C 145.006 1.382,144.675 1.286,144.608 1.209 C 144.408 0.983,140.666 0.228,140.439 0.369 C 140.324 0.440,140.161 0.386,140.076 0.249 C 139.749 -0.280,122.487 -0.021,119.853 0.553 M230.824 71.987 C 231.129 72.046,231.570 72.043,231.804 71.982 C 232.039 71.921,231.789 71.873,231.250 71.876 C 230.711 71.878,230.519 71.928,230.824 71.987 M105.135 77.054 C 105.066 77.124,104.296 77.251,103.424 77.336 C 101.402 77.535,98.041 78.675,97.304 79.412 C 97.237 79.479,96.772 79.742,96.273 79.996 C 95.218 80.532,92.157 83.465,92.157 83.940 C 92.157 84.117,92.007 84.319,91.824 84.389 C 91.395 84.554,89.461 88.396,89.461 89.084 C 89.461 89.372,89.361 89.713,89.240 89.841 C 89.119 89.969,88.958 90.625,88.884 91.299 C 88.810 91.973,88.675 93.043,88.584 93.677 C 88.493 94.311,88.501 95.028,88.601 95.270 C 88.701 95.513,88.828 96.207,88.883 96.814 C 89.169 99.989,91.367 104.180,94.030 106.630 C 95.479 107.962,96.717 108.839,96.897 108.659 C 96.986 108.570,97.059 108.625,97.059 108.783 C 97.059 108.940,97.224 109.069,97.426 109.069 C 97.629 109.069,97.794 109.179,97.794 109.314 C 97.794 109.449,97.939 109.559,98.116 109.559 C 98.293 109.559,98.872 109.769,99.402 110.025 C 99.933 110.281,100.699 110.550,101.103 110.621 C 101.507 110.693,102.224 110.870,102.694 111.013 C 103.946 111.395,107.420 111.332,109.156 110.897 C 111.262 110.368,112.990 109.743,112.990 109.510 C 112.990 109.402,113.073 109.336,113.174 109.363 C 113.971 109.578,119.608 104.746,119.608 103.848 C 119.608 103.641,119.695 103.435,119.801 103.391 C 120.211 103.217,121.039 101.771,121.572 100.299 C 122.278 98.350,122.025 98.484,126.103 97.914 C 127.662 97.696,138.602 97.786,141.111 98.037 C 144.545 98.381,144.659 98.395,147.917 98.882 C 149.228 99.077,151.307 99.462,153.149 99.850 C 154.140 100.058,155.022 100.215,155.110 100.197 C 155.198 100.180,155.580 100.294,155.960 100.451 C 156.339 100.607,156.913 100.735,157.235 100.735 C 157.557 100.735,158.073 100.834,158.383 100.955 C 158.693 101.076,159.442 101.309,160.049 101.473 C 160.656 101.638,161.428 101.857,161.765 101.961 C 163.047 102.355,164.593 102.777,164.828 102.797 C 164.963 102.809,165.135 102.901,165.210 103.001 C 165.285 103.102,165.643 103.208,166.006 103.239 C 166.370 103.269,166.667 103.398,166.667 103.526 C 166.667 103.654,166.736 103.689,166.820 103.605 C 166.905 103.520,167.291 103.615,167.678 103.815 C 168.065 104.015,168.382 104.127,168.382 104.064 C 168.382 104.000,168.992 104.218,169.737 104.548 C 170.483 104.877,171.196 105.147,171.323 105.147 C 171.450 105.147,172.136 105.412,172.848 105.736 C 175.048 106.737,177.167 107.555,177.277 107.446 C 177.334 107.388,177.521 107.509,177.691 107.715 C 177.862 107.920,178.103 108.088,178.227 108.088 C 178.949 108.088,188.848 113.148,191.973 115.114 C 192.479 115.432,192.892 115.632,192.892 115.557 C 192.892 115.483,193.030 115.541,193.199 115.686 C 193.367 115.831,194.277 116.441,195.221 117.041 C 196.164 117.642,197.212 118.353,197.549 118.622 C 197.886 118.891,198.290 119.113,198.448 119.114 C 198.605 119.116,198.770 119.206,198.815 119.313 C 198.860 119.421,199.945 120.221,201.225 121.090 C 202.506 121.960,203.609 122.727,203.676 122.794 C 204.057 123.174,205.412 124.020,205.642 124.020 C 205.790 124.020,205.843 124.130,205.760 124.265 C 205.676 124.400,205.725 124.510,205.868 124.510 C 206.011 124.510,206.337 124.703,206.593 124.939 C 207.340 125.627,208.099 126.266,209.926 127.743 C 210.870 128.506,212.022 129.524,212.487 130.006 C 212.951 130.488,213.416 130.882,213.519 130.882 C 213.785 130.882,222.253 139.493,223.275 140.803 C 223.741 141.401,224.167 141.847,224.220 141.793 C 224.274 141.739,224.698 142.268,225.163 142.968 C 225.628 143.668,226.348 144.544,226.763 144.914 C 227.178 145.285,227.442 145.588,227.351 145.588 C 227.259 145.588,227.831 146.443,228.623 147.488 C 230.075 149.405,232.562 152.997,232.907 153.676 C 233.010 153.879,233.312 154.375,233.578 154.779 C 233.844 155.184,234.181 155.790,234.327 156.126 C 234.473 156.463,234.867 157.098,235.203 157.538 C 235.539 157.979,235.852 158.531,235.899 158.765 C 236.019 159.359,236.668 160.555,236.799 160.423 C 236.858 160.364,236.925 160.556,236.947 160.851 C 236.970 161.146,237.140 161.500,237.327 161.637 C 237.513 161.775,237.623 162.012,237.572 162.165 C 237.520 162.318,237.656 162.621,237.874 162.839 C 238.092 163.057,238.206 163.235,238.128 163.235 C 238.049 163.235,238.317 163.857,238.723 164.618 C 239.129 165.378,239.461 166.092,239.461 166.205 C 239.461 166.317,239.773 167.101,240.154 167.947 C 240.535 168.793,241.098 170.202,241.405 171.078 C 241.711 171.955,242.023 172.837,242.096 173.039 C 242.233 173.414,242.262 173.541,242.521 174.939 C 242.603 175.377,242.747 175.736,242.842 175.736 C 242.937 175.736,243.020 176.167,243.026 176.692 C 243.043 178.160,244.806 179.382,248.529 180.510 C 249.271 180.734,250.086 181.031,250.340 181.168 C 251.000 181.525,256.191 182.969,258.537 183.447 C 261.367 184.025,262.055 183.497,261.655 181.055 C 261.562 180.488,261.427 179.528,261.354 178.922 C 261.282 178.315,261.122 177.322,261.000 176.716 C 260.878 176.109,260.721 175.227,260.652 174.755 C 260.583 174.283,260.454 173.676,260.367 173.407 C 260.279 173.137,260.191 172.751,260.170 172.549 C 260.093 171.787,259.461 169.476,259.269 169.252 C 259.159 169.124,259.069 168.796,259.069 168.523 C 259.069 167.977,256.652 160.737,256.404 160.539 C 256.319 160.472,256.214 160.196,256.169 159.926 C 256.125 159.657,255.909 159.161,255.689 158.824 C 255.469 158.487,255.257 158.012,255.218 157.770 C 255.114 157.125,251.988 150.688,251.535 150.184 C 251.323 149.948,251.229 149.755,251.327 149.755 C 251.424 149.755,251.276 149.435,250.997 149.043 C 250.718 148.652,250.490 148.263,250.490 148.180 C 250.490 147.867,247.447 143.006,247.132 142.816 C 246.951 142.706,246.867 142.513,246.946 142.387 C 247.024 142.260,246.971 142.157,246.828 142.157 C 246.685 142.157,246.569 142.012,246.569 141.835 C 246.569 141.659,246.376 141.298,246.140 141.033 C 245.904 140.769,245.175 139.756,244.520 138.781 C 243.866 137.807,243.232 137.010,243.111 137.010 C 242.991 137.010,242.892 136.892,242.892 136.748 C 242.892 136.530,241.848 134.976,241.422 134.559 C 241.353 134.491,240.976 133.995,240.585 133.456 C 240.193 132.917,239.615 132.242,239.299 131.957 C 238.984 131.671,238.725 131.355,238.725 131.254 C 238.725 130.497,224.230 115.711,223.468 115.691 C 223.367 115.688,222.654 115.080,221.882 114.338 C 221.110 113.597,220.362 112.990,220.220 112.990 C 220.078 112.990,219.802 112.770,219.608 112.500 C 219.414 112.230,219.140 112.010,219.000 112.010 C 218.860 112.010,218.608 111.789,218.439 111.520 C 218.271 111.250,217.969 111.029,217.768 111.029 C 217.566 111.029,217.402 110.929,217.402 110.806 C 217.402 110.605,216.497 109.875,214.944 108.824 C 214.645 108.621,214.276 108.341,214.124 108.200 C 213.610 107.725,210.601 105.637,210.429 105.637 C 210.336 105.637,210.105 105.499,209.917 105.331 C 209.229 104.713,208.929 104.500,208.088 104.032 C 207.616 103.769,207.175 103.485,207.108 103.402 C 206.856 103.088,203.458 100.980,203.205 100.980 C 203.060 100.980,202.941 100.870,202.941 100.735 C 202.941 100.600,202.789 100.490,202.604 100.490 C 202.418 100.490,202.130 100.326,201.963 100.125 C 201.796 99.925,201.562 99.821,201.443 99.895 C 201.323 99.968,201.225 99.930,201.225 99.808 C 201.225 99.581,198.915 98.235,198.625 98.293 C 198.535 98.311,198.394 98.228,198.312 98.108 C 198.062 97.746,196.324 96.759,196.320 96.978 C 196.318 97.090,196.235 97.064,196.136 96.921 C 195.885 96.558,188.481 92.835,188.477 93.069 C 188.475 93.174,188.392 93.136,188.293 92.985 C 188.112 92.709,185.939 91.646,185.391 91.566 C 185.230 91.542,184.949 91.409,184.767 91.270 C 184.486 91.056,178.191 88.530,174.142 87.006 C 172.739 86.478,169.751 85.518,169.299 85.449 C 169.132 85.424,168.885 85.335,168.750 85.253 C 168.423 85.053,165.045 84.124,163.991 83.945 C 163.531 83.866,163.053 83.740,162.930 83.664 C 162.497 83.396,157.958 82.366,157.184 82.359 C 156.753 82.356,156.333 82.241,156.248 82.105 C 156.164 81.969,155.799 81.867,155.437 81.879 C 155.075 81.891,154.338 81.791,153.799 81.656 C 152.866 81.422,150.686 81.052,148.284 80.721 C 147.678 80.637,146.547 80.538,145.772 80.501 C 144.997 80.464,144.335 80.413,144.301 80.388 C 143.384 79.719,126.438 79.615,122.917 80.258 C 122.377 80.356,121.550 80.473,121.078 80.517 C 120.607 80.561,119.421 80.722,118.444 80.875 C 116.726 81.144,116.641 81.133,115.870 80.549 C 113.805 78.985,110.489 77.619,108.088 77.343 C 107.347 77.258,106.408 77.130,106.001 77.058 C 105.594 76.986,105.205 76.985,105.135 77.054 M48.427 108.517 C 48.326 108.618,48.154 108.701,48.044 108.701 C 47.753 108.701,45.110 110.629,45.103 110.846 C 45.100 110.947,44.938 111.029,44.743 111.029 C 44.547 111.029,44.299 111.168,44.191 111.336 C 44.083 111.505,43.526 111.962,42.953 112.350 C 42.381 112.739,41.912 113.156,41.912 113.276 C 41.912 113.397,41.719 113.565,41.483 113.649 C 41.068 113.796,39.458 115.022,38.335 116.045 C 38.034 116.320,37.309 116.929,36.724 117.399 C 32.289 120.966,20.785 132.846,21.017 133.620 C 21.051 133.732,20.979 133.796,20.856 133.762 C 20.734 133.729,19.851 134.749,18.894 136.029 C 17.936 137.310,17.069 138.468,16.967 138.603 C 15.865 140.057,14.461 142.176,14.461 142.385 C 14.461 142.529,14.344 142.647,14.201 142.647 C 14.058 142.647,14.003 142.746,14.077 142.866 C 14.152 142.987,14.032 143.155,13.812 143.240 C 13.591 143.325,13.475 143.458,13.553 143.537 C 13.632 143.615,13.510 143.881,13.282 144.127 C 13.054 144.373,12.648 144.996,12.380 145.510 C 12.111 146.025,11.825 146.501,11.744 146.569 C 11.570 146.712,11.569 146.714,8.679 152.376 C 6.838 155.983,5.618 158.643,5.497 159.314 C 5.485 159.381,5.236 159.967,4.945 160.617 C 4.654 161.266,4.071 162.865,3.651 164.170 C 3.231 165.476,2.805 166.710,2.706 166.912 C 2.607 167.114,2.387 167.886,2.217 168.627 C 2.047 169.369,1.810 170.167,1.690 170.401 C 1.569 170.635,1.471 171.137,1.471 171.516 C 1.471 171.896,1.368 172.311,1.242 172.439 C 1.116 172.567,0.951 173.113,0.876 173.652 C 0.800 174.191,0.568 175.546,0.361 176.662 C -0.031 178.770,-0.068 196.054,0.315 198.039 C 0.406 198.511,0.546 199.228,0.626 199.632 C 1.677 204.932,4.545 211.990,7.769 217.211 C 9.246 219.602,11.654 222.866,11.854 222.748 C 11.926 222.706,12.318 223.168,12.726 223.775 C 13.654 225.154,18.607 229.902,19.118 229.902 C 19.253 229.902,19.363 230.013,19.363 230.149 C 19.363 230.419,23.226 233.349,24.247 233.854 C 24.594 234.026,25.222 234.415,25.644 234.720 C 26.065 235.024,26.479 235.204,26.563 235.120 C 26.647 235.036,26.716 235.081,26.716 235.219 C 26.716 235.522,33.503 238.931,36.152 239.958 C 39.453 241.239,42.256 242.134,43.199 242.210 C 43.569 242.239,43.873 242.336,43.873 242.425 C 43.873 242.513,44.176 242.650,44.547 242.727 C 44.917 242.805,46.268 243.089,47.549 243.359 C 50.133 243.902,50.317 243.937,53.799 244.546 C 55.903 244.915,57.899 244.975,67.892 244.975 C 80.019 244.975,81.548 244.877,87.442 243.721 C 88.485 243.516,89.724 243.297,90.195 243.233 C 91.182 243.100,95.299 242.153,98.162 241.400 C 99.240 241.117,100.426 240.828,100.797 240.758 C 101.167 240.688,101.471 240.551,101.471 240.454 C 101.471 240.357,101.608 240.272,101.777 240.266 C 102.704 240.228,109.266 238.132,109.650 237.750 C 109.767 237.634,110.016 237.597,110.201 237.668 C 110.387 237.739,110.539 237.657,110.539 237.485 C 110.539 237.314,110.603 237.237,110.681 237.315 C 110.826 237.460,114.239 236.321,114.461 236.054 C 114.528 235.973,114.804 235.868,115.074 235.821 C 115.343 235.774,115.619 235.664,115.686 235.576 C 115.754 235.488,116.029 235.379,116.299 235.333 C 116.569 235.287,116.826 235.148,116.871 235.025 C 116.917 234.902,117.055 234.863,117.178 234.939 C 117.301 235.016,117.402 234.943,117.402 234.778 C 117.402 234.612,117.467 234.542,117.546 234.621 C 117.692 234.767,120.767 233.536,121.679 232.966 C 121.955 232.794,122.586 232.524,123.081 232.368 C 123.576 232.211,124.112 231.924,124.273 231.730 C 124.434 231.537,124.663 231.438,124.783 231.512 C 124.902 231.586,125.000 231.530,125.000 231.387 C 125.000 231.244,125.085 231.155,125.189 231.189 C 125.491 231.287,127.451 230.340,127.451 230.095 C 127.451 229.973,127.552 229.936,127.676 230.012 C 127.800 230.089,128.076 229.977,128.289 229.764 C 128.502 229.551,128.676 229.438,128.676 229.512 C 128.676 229.586,129.173 229.374,129.779 229.039 C 130.386 228.705,131.351 228.173,131.924 227.857 C 133.954 226.736,136.102 225.468,137.696 224.449 C 138.276 224.078,138.838 223.775,138.945 223.775 C 139.052 223.775,139.337 223.557,139.578 223.291 C 139.819 223.024,140.249 222.733,140.535 222.642 C 140.959 222.507,145.541 219.552,146.442 218.830 C 146.579 218.721,147.629 217.952,148.775 217.122 C 149.920 216.291,150.946 215.463,151.054 215.282 C 151.162 215.100,151.382 214.950,151.544 214.950 C 151.706 214.949,152.169 214.646,152.574 214.276 C 152.978 213.906,153.725 213.292,154.233 212.913 C 154.741 212.533,155.421 211.982,155.745 211.687 C 156.069 211.393,156.537 210.987,156.786 210.784 C 163.440 205.382,172.534 195.822,177.536 188.971 C 181.281 183.841,181.628 183.342,182.508 181.818 C 183.000 180.966,183.570 180.077,183.774 179.841 C 183.978 179.605,184.045 179.410,183.923 179.408 C 183.801 179.406,183.827 179.323,183.981 179.224 C 184.346 178.989,188.072 172.311,188.072 171.891 C 188.072 171.714,188.155 171.569,188.257 171.569 C 188.456 171.569,189.104 169.852,189.021 169.547 C 188.993 169.445,189.081 169.363,189.216 169.363 C 189.350 169.363,189.461 169.163,189.461 168.919 C 189.461 168.299,190.326 167.436,191.122 167.262 C 192.869 166.882,195.990 165.420,196.971 164.522 C 197.303 164.219,197.669 163.971,197.784 163.971 C 198.136 163.971,201.230 160.500,201.086 160.267 C 201.012 160.147,201.051 160.049,201.172 160.049 C 202.152 160.049,204.166 153.784,204.166 150.735 C 204.166 147.979,202.827 143.447,201.587 142.003 C 201.269 141.633,201.061 141.244,201.126 141.138 C 201.351 140.775,197.046 136.719,195.904 136.217 C 195.528 136.052,195.157 135.830,195.080 135.723 C 194.941 135.530,193.296 134.862,191.176 134.137 C 188.151 133.102,181.395 133.976,178.929 135.720 C 178.588 135.962,177.978 136.323,177.574 136.523 C 175.611 137.495,170.826 143.539,171.492 144.205 C 171.579 144.292,171.539 144.363,171.403 144.363 C 171.055 144.363,170.568 146.013,170.186 148.493 C 169.621 152.158,171.083 158.605,172.806 160.049 C 173.283 160.449,173.212 161.200,172.561 162.635 C 172.167 163.504,171.920 164.217,172.013 164.219 C 172.106 164.222,172.056 164.304,171.902 164.403 C 171.748 164.502,171.293 165.245,170.891 166.054 C 169.658 168.536,169.341 169.102,169.098 169.252 C 168.970 169.332,168.928 169.499,169.006 169.625 C 169.083 169.750,169.030 169.853,168.887 169.853 C 168.744 169.853,168.627 169.963,168.627 170.097 C 168.627 170.232,168.243 170.877,167.773 171.531 C 167.304 172.185,166.991 172.792,167.079 172.880 C 167.167 172.967,167.121 173.039,166.978 173.039 C 166.835 173.039,166.352 173.618,165.904 174.326 C 165.456 175.034,164.343 176.605,163.429 177.819 C 161.042 180.989,160.758 181.349,159.875 182.329 C 159.438 182.814,159.077 183.276,159.074 183.356 C 159.071 183.435,158.655 183.940,158.150 184.477 C 157.644 185.015,156.679 186.079,156.005 186.842 C 155.331 187.605,154.011 188.976,153.071 189.887 C 152.131 190.798,150.778 192.123,150.063 192.831 C 149.349 193.539,148.663 194.118,148.538 194.118 C 148.414 194.118,148.168 194.311,147.991 194.547 C 147.814 194.782,146.953 195.576,146.078 196.310 C 145.202 197.043,144.313 197.816,144.102 198.025 C 143.891 198.235,143.357 198.683,142.915 199.020 C 142.473 199.357,141.542 200.079,140.847 200.625 C 140.152 201.171,138.646 202.269,137.500 203.064 C 136.354 203.860,135.362 204.573,135.294 204.650 C 135.227 204.727,134.413 205.279,133.485 205.876 C 132.557 206.474,131.673 207.078,131.520 207.219 C 131.368 207.360,130.831 207.686,130.327 207.943 C 129.824 208.200,129.412 208.522,129.412 208.658 C 129.412 208.794,129.351 208.845,129.278 208.771 C 129.167 208.661,126.166 210.317,124.755 211.267 C 123.645 212.014,114.410 216.663,114.032 216.665 C 113.863 216.666,113.725 216.795,113.725 216.953 C 113.725 217.110,113.653 217.166,113.564 217.077 C 113.476 216.989,113.283 217.006,113.135 217.117 C 112.815 217.357,102.846 221.272,102.083 221.457 C 101.949 221.490,100.640 221.911,99.176 222.394 C 96.910 223.140,91.924 224.450,88.358 225.235 C 86.293 225.689,82.206 226.418,80.760 226.591 C 79.796 226.705,78.799 226.891,78.799 226.956 C 78.799 226.975,77.917 227.025,76.838 227.068 C 75.760 227.111,74.216 227.232,73.407 227.336 C 71.619 227.566,64.408 227.572,62.377 227.345 C 61.569 227.255,60.300 227.130,59.559 227.068 C 58.299 226.963,56.813 226.751,54.167 226.298 C 53.560 226.194,52.788 226.100,52.451 226.088 C 52.114 226.077,51.563 225.951,51.225 225.807 C 50.888 225.664,49.565 225.299,48.284 224.998 C 47.004 224.696,45.846 224.373,45.711 224.279 C 45.576 224.185,44.969 223.958,44.363 223.775 C 43.756 223.591,43.150 223.369,43.015 223.280 C 42.880 223.192,42.108 222.863,41.299 222.549 C 40.490 222.235,39.691 221.873,39.522 221.744 C 39.354 221.614,39.214 221.605,39.212 221.722 C 39.210 221.840,39.126 221.807,39.026 221.650 C 38.925 221.492,38.682 221.326,38.484 221.282 C 38.286 221.237,37.975 221.062,37.792 220.892 C 37.610 220.723,37.359 220.646,37.235 220.723 C 37.111 220.800,37.010 220.771,37.010 220.658 C 37.010 220.546,36.596 220.239,36.091 219.974 C 29.454 216.507,22.363 208.420,19.867 201.471 C 19.697 200.999,19.468 200.392,19.357 200.123 C 19.123 199.555,18.298 196.085,17.928 194.118 C 17.288 190.709,17.390 184.107,18.155 179.412 C 18.298 178.536,18.460 177.543,18.515 177.206 C 18.628 176.513,19.116 174.575,19.317 174.020 C 19.391 173.817,19.471 173.452,19.497 173.207 C 19.522 172.962,19.662 172.521,19.809 172.226 C 19.955 171.932,20.184 171.305,20.317 170.833 C 20.652 169.645,21.707 166.871,22.451 165.224 C 22.793 164.467,23.421 163.076,23.846 162.132 C 24.271 161.189,24.980 159.791,25.422 159.027 C 25.864 158.263,26.225 157.552,26.225 157.447 C 26.225 157.343,26.483 156.865,26.798 156.386 C 27.113 155.907,28.239 154.136,29.302 152.451 C 30.364 150.766,31.320 149.350,31.425 149.306 C 31.531 149.261,31.618 149.123,31.618 148.999 C 31.618 148.876,31.811 148.571,32.047 148.323 C 32.282 148.074,33.523 146.566,34.804 144.971 C 36.884 142.381,42.297 136.528,43.850 135.190 C 46.167 133.194,48.763 130.879,49.437 130.208 C 49.877 129.770,50.308 129.412,50.396 129.412 C 50.485 129.412,50.830 129.117,51.163 128.757 C 51.814 128.055,51.820 127.811,51.257 124.755 C 50.201 119.026,49.950 116.527,49.983 112.082 C 50.002 109.556,49.960 109.296,49.465 108.835 C 48.880 108.290,48.708 108.237,48.427 108.517 M237.305 209.305 C 237.208 209.377,236.835 209.822,236.474 210.294 C 235.047 212.163,233.160 214.153,231.482 215.558 C 230.680 216.229,229.969 216.838,229.902 216.910 C 229.784 217.037,227.143 218.782,225.613 219.744 C 225.208 219.998,224.436 220.420,223.897 220.682 C 223.358 220.945,222.751 221.298,222.549 221.469 C 222.347 221.639,222.098 221.785,221.996 221.793 C 221.895 221.802,221.412 221.975,220.925 222.179 C 220.437 222.382,219.995 222.549,219.943 222.549 C 219.890 222.549,219.380 222.760,218.809 223.019 C 217.780 223.484,215.858 224.144,213.725 224.765 C 213.119 224.942,212.512 225.147,212.377 225.220 C 212.105 225.369,211.642 225.485,210.907 225.588 C 210.299 225.673,208.807 225.943,207.353 226.231 C 205.712 226.556,202.982 226.957,201.593 227.078 C 200.919 227.136,199.871 227.250,199.265 227.331 C 197.760 227.530,190.632 227.522,188.971 227.319 C 188.229 227.229,186.961 227.116,186.152 227.068 C 185.343 227.021,184.240 226.909,183.701 226.819 C 183.162 226.730,182.390 226.630,181.985 226.598 C 181.581 226.566,180.588 226.408,179.779 226.246 C 178.971 226.084,177.702 225.840,176.961 225.704 C 176.219 225.567,175.188 225.346,174.670 225.211 C 174.151 225.076,173.668 225.025,173.596 225.097 C 173.524 225.169,173.249 225.112,172.985 224.971 C 172.722 224.830,172.260 224.670,171.959 224.615 C 171.658 224.561,170.316 224.233,168.978 223.886 C 167.639 223.540,166.379 223.215,166.176 223.165 C 165.974 223.114,165.147 222.851,164.338 222.581 C 163.529 222.310,162.592 222.036,162.255 221.972 C 161.918 221.908,161.217 221.674,160.697 221.453 C 159.238 220.831,157.037 221.632,155.191 223.455 C 155.013 223.631,154.765 223.775,154.640 223.775 C 154.515 223.775,153.999 224.146,153.493 224.599 C 152.987 225.052,152.243 225.605,151.838 225.828 C 151.434 226.050,150.887 226.368,150.622 226.535 C 149.419 227.293,148.091 228.086,147.304 228.515 C 146.832 228.773,146.391 229.057,146.324 229.147 C 146.256 229.237,145.570 229.625,144.799 230.010 C 144.027 230.395,143.195 230.887,142.949 231.103 C 142.702 231.319,142.175 231.664,141.777 231.871 C 140.562 232.502,140.693 233.451,142.107 234.256 C 143.003 234.766,147.905 236.660,148.897 236.880 C 149.032 236.910,149.450 237.061,149.827 237.215 C 150.204 237.370,150.810 237.561,151.175 237.640 C 151.540 237.719,152.059 237.872,152.328 237.981 C 152.598 238.090,153.315 238.315,153.922 238.481 C 154.528 238.647,155.300 238.868,155.637 238.974 C 157.618 239.592,159.763 240.189,160.294 240.271 C 160.631 240.323,161.072 240.428,161.275 240.504 C 161.477 240.580,161.918 240.714,162.255 240.802 C 165.574 241.662,166.537 241.878,166.632 241.783 C 166.694 241.721,166.879 241.783,167.045 241.920 C 167.210 242.057,167.744 242.185,168.231 242.203 C 168.719 242.221,169.118 242.322,169.118 242.426 C 169.118 242.531,169.311 242.624,169.547 242.633 C 170.247 242.661,171.176 242.819,171.569 242.978 C 171.964 243.137,176.363 243.937,180.147 244.537 C 181.841 244.806,185.317 244.939,192.899 245.026 C 202.523 245.136,204.989 245.053,209.436 244.471 C 210.969 244.271,216.450 243.146,217.402 242.836 C 217.874 242.683,218.425 242.537,218.627 242.513 C 219.063 242.460,222.654 241.262,225.245 240.306 C 227.228 239.573,232.380 237.054,232.625 236.696 C 232.708 236.576,232.818 236.497,232.871 236.521 C 233.076 236.616,234.314 235.938,234.314 235.731 C 234.314 235.609,234.416 235.574,234.542 235.651 C 234.667 235.729,234.835 235.687,234.914 235.559 C 234.994 235.430,235.399 235.156,235.814 234.948 C 237.212 234.251,240.429 231.796,240.274 231.545 C 240.189 231.409,240.231 231.365,240.365 231.448 C 240.500 231.531,241.013 231.245,241.505 230.812 C 241.998 230.379,242.967 229.528,243.660 228.922 C 246.252 226.653,250.011 222.542,251.414 220.441 C 251.585 220.185,252.109 219.432,252.578 218.768 C 253.047 218.104,253.431 217.439,253.431 217.291 C 253.431 217.142,253.657 216.828,253.932 216.592 C 254.207 216.356,254.366 216.056,254.285 215.925 C 254.204 215.794,254.255 215.686,254.397 215.686 C 255.174 215.686,254.466 214.183,253.643 214.086 C 253.324 214.048,252.753 213.896,252.374 213.749 C 251.994 213.601,251.365 213.480,250.976 213.480 C 250.587 213.480,250.015 213.382,249.705 213.261 C 249.396 213.140,248.646 212.905,248.039 212.738 C 246.090 212.202,244.012 211.503,243.382 211.171 C 240.605 209.711,237.882 208.875,237.305 209.305 " stroke="none" fill="#9c9c9c" fill-rule="evenodd"></path><path id="path1" d="M130.457 17.578 C 130.829 17.634,131.381 17.633,131.682 17.574 C 131.984 17.516,131.679 17.470,131.005 17.472 C 130.331 17.474,130.084 17.522,130.457 17.578 M281.601 65.295 C 281.529 65.366,280.484 65.445,279.277 65.469 C 278.071 65.494,276.849 65.600,276.563 65.705 C 276.276 65.810,275.173 65.917,274.112 65.943 C 273.050 65.968,271.850 66.082,271.446 66.194 C 271.042 66.307,270.042 66.440,269.224 66.491 C 268.406 66.541,267.627 66.650,267.492 66.733 C 267.358 66.816,266.703 66.908,266.038 66.936 C 265.373 66.965,264.662 67.071,264.460 67.171 C 264.257 67.272,263.540 67.418,262.866 67.495 C 260.849 67.725,259.207 68.023,258.896 68.215 C 258.735 68.315,258.211 68.411,257.733 68.429 C 257.254 68.447,256.863 68.531,256.863 68.615 C 256.863 68.699,256.670 68.784,256.434 68.802 C 255.847 68.849,254.924 69.046,254.044 69.311 C 253.640 69.433,253.171 69.485,253.002 69.427 C 252.834 69.369,252.696 69.418,252.696 69.535 C 252.696 69.727,252.279 69.834,251.236 69.909 C 251.040 69.923,250.612 70.073,250.286 70.242 C 249.961 70.411,249.542 70.491,249.357 70.420 C 249.171 70.349,249.020 70.394,249.020 70.521 C 249.020 70.740,248.691 70.825,247.733 70.852 C 247.497 70.858,247.304 70.949,247.304 71.053 C 247.304 71.157,247.166 71.251,246.998 71.263 C 246.424 71.303,245.621 71.534,245.114 71.805 C 244.836 71.954,244.608 72.004,244.608 71.915 C 244.608 71.826,244.442 71.891,244.240 72.059 C 244.038 72.227,243.873 72.273,243.873 72.162 C 243.873 72.051,243.749 72.085,243.598 72.236 C 243.446 72.387,243.171 72.452,242.985 72.381 C 242.799 72.310,242.647 72.380,242.647 72.537 C 242.647 72.694,242.544 72.760,242.419 72.682 C 242.293 72.604,242.124 72.648,242.043 72.779 C 241.962 72.911,241.734 72.956,241.536 72.880 C 241.338 72.804,241.176 72.851,241.176 72.985 C 241.176 73.119,240.818 73.301,240.380 73.389 C 239.088 73.649,237.990 73.576,237.990 73.229 C 237.990 73.109,237.880 73.078,237.745 73.162 C 237.610 73.245,237.500 73.210,237.500 73.084 C 237.500 72.892,236.593 72.569,235.662 72.430 C 235.527 72.410,235.031 72.301,234.559 72.187 C 233.250 71.872,229.171 71.892,228.025 72.220 C 227.464 72.381,226.950 72.456,226.882 72.388 C 226.813 72.320,226.500 72.407,226.185 72.581 C 225.870 72.756,225.513 72.869,225.390 72.833 C 225.268 72.797,225.094 72.887,225.004 73.032 C 224.915 73.177,224.582 73.346,224.265 73.407 C 223.948 73.468,223.599 73.658,223.490 73.830 C 223.381 74.002,223.290 74.053,223.288 73.944 C 223.283 73.691,221.814 74.551,221.814 74.808 C 221.814 74.913,221.654 75.000,221.458 75.000 C 221.263 75.000,221.015 75.149,220.907 75.332 C 220.799 75.514,220.461 75.795,220.156 75.955 C 218.640 76.751,215.089 82.289,214.827 84.266 C 214.779 84.629,214.724 84.926,214.704 84.926 C 214.297 84.926,214.202 91.483,214.587 93.015 C 214.968 94.529,216.411 97.794,216.699 97.794 C 216.816 97.794,216.912 97.960,216.912 98.162 C 216.912 98.364,217.132 98.750,217.402 99.020 C 217.672 99.289,217.892 99.604,217.892 99.719 C 217.892 99.895,219.772 101.708,221.078 102.793 C 221.899 103.474,223.039 104.189,223.039 104.023 C 223.039 103.925,223.260 104.045,223.529 104.289 C 223.799 104.533,224.020 104.658,224.020 104.567 C 224.020 104.475,224.268 104.555,224.571 104.745 C 225.049 105.043,226.095 105.384,226.471 105.364 C 226.538 105.361,226.895 105.472,227.264 105.613 C 228.163 105.955,230.046 106.242,231.250 106.221 C 232.862 106.193,234.069 106.057,234.069 105.904 C 234.069 105.825,234.473 105.731,234.967 105.696 C 235.460 105.660,236.011 105.509,236.192 105.359 C 236.372 105.209,236.520 105.155,236.520 105.238 C 236.520 105.461,238.535 104.639,239.032 104.213 C 239.268 104.011,239.461 103.923,239.461 104.018 C 239.461 104.438,241.957 102.448,243.701 100.637 C 245.465 98.806,247.954 94.690,247.748 93.947 C 247.718 93.838,247.822 93.364,247.980 92.892 C 248.137 92.420,248.252 91.869,248.236 91.667 C 248.132 90.347,248.303 89.706,248.760 89.706 C 249.022 89.706,249.304 89.596,249.387 89.461 C 249.471 89.326,249.786 89.216,250.088 89.216 C 250.390 89.216,250.742 89.112,250.870 88.985 C 250.998 88.859,251.379 88.703,251.716 88.640 C 252.053 88.577,252.632 88.408,253.002 88.264 C 253.373 88.120,253.676 88.049,253.676 88.106 C 253.676 88.163,254.063 88.049,254.534 87.852 C 255.006 87.655,255.392 87.554,255.392 87.628 C 255.392 87.702,255.585 87.659,255.821 87.533 C 256.057 87.407,256.649 87.241,257.136 87.164 C 257.623 87.086,258.301 86.917,258.642 86.787 C 258.984 86.657,259.313 86.600,259.373 86.661 C 259.434 86.722,259.873 86.609,260.348 86.410 C 260.823 86.211,261.275 86.112,261.353 86.189 C 261.430 86.266,261.987 86.161,262.590 85.956 C 263.193 85.750,263.746 85.641,263.818 85.714 C 263.890 85.786,264.147 85.759,264.389 85.655 C 264.990 85.396,265.370 85.318,266.750 85.174 C 267.402 85.106,268.047 84.982,268.183 84.898 C 268.319 84.814,268.888 84.716,269.448 84.680 C 270.008 84.643,270.797 84.539,271.201 84.448 C 271.605 84.356,272.543 84.242,273.284 84.194 C 274.026 84.145,275.018 84.039,275.490 83.958 C 275.962 83.876,277.286 83.762,278.431 83.703 C 279.577 83.645,281.066 83.537,281.740 83.463 C 283.449 83.277,295.200 83.270,296.691 83.454 C 297.365 83.538,298.909 83.651,300.123 83.706 C 301.336 83.760,302.714 83.877,303.186 83.966 C 303.658 84.054,304.596 84.155,305.270 84.191 C 305.944 84.227,307.026 84.381,307.675 84.534 C 308.324 84.688,308.961 84.748,309.090 84.668 C 309.219 84.588,309.881 84.708,310.561 84.934 C 311.240 85.159,311.854 85.286,311.924 85.216 C 311.995 85.146,312.605 85.252,313.281 85.453 C 313.956 85.654,314.562 85.765,314.626 85.701 C 314.690 85.637,315.093 85.689,315.521 85.817 C 316.268 86.040,317.678 86.303,318.321 86.339 C 318.490 86.349,318.627 86.431,318.627 86.523 C 318.627 86.615,318.951 86.699,319.347 86.711 C 319.743 86.722,320.304 86.858,320.594 87.013 C 320.883 87.168,321.177 87.238,321.247 87.168 C 321.317 87.098,321.666 87.157,322.023 87.299 C 322.380 87.442,323.030 87.655,323.468 87.774 C 323.906 87.893,324.678 88.104,325.184 88.243 C 325.689 88.382,326.368 88.553,326.692 88.622 C 327.016 88.692,327.485 88.858,327.734 88.991 C 327.983 89.124,328.186 89.171,328.186 89.095 C 328.186 89.020,328.517 89.129,328.922 89.338 C 329.326 89.547,329.657 89.658,329.657 89.583 C 329.657 89.509,329.988 89.619,330.392 89.828 C 330.797 90.038,331.127 90.138,331.127 90.052 C 331.127 89.965,331.399 90.073,331.732 90.290 C 332.064 90.508,332.507 90.686,332.715 90.686 C 332.924 90.686,333.286 90.789,333.520 90.913 C 334.014 91.177,334.623 91.372,334.815 91.329 C 334.888 91.313,335.246 91.495,335.611 91.734 C 335.976 91.973,336.275 92.115,336.275 92.050 C 336.275 91.985,336.851 92.222,337.556 92.575 C 338.260 92.929,338.977 93.219,339.149 93.219 C 339.320 93.219,339.461 93.329,339.461 93.464 C 339.461 93.599,339.535 93.635,339.625 93.545 C 339.715 93.455,339.991 93.564,340.237 93.787 C 340.484 94.011,340.686 94.104,340.686 93.995 C 340.686 93.886,340.879 93.969,341.115 94.180 C 341.351 94.391,341.765 94.601,342.034 94.647 C 342.304 94.693,342.671 94.869,342.851 95.039 C 343.030 95.209,343.278 95.285,343.402 95.208 C 343.526 95.132,343.627 95.169,343.627 95.292 C 343.627 95.414,344.124 95.719,344.730 95.969 C 345.337 96.219,345.833 96.484,345.834 96.558 C 345.834 96.631,346.574 97.077,347.477 97.549 C 348.381 98.021,349.313 98.575,349.548 98.782 C 349.784 98.988,350.531 99.429,351.210 99.762 C 351.888 100.095,352.445 100.450,352.447 100.551 C 352.449 100.653,352.616 100.735,352.819 100.735 C 353.021 100.735,353.186 100.846,353.186 100.980 C 353.186 101.115,353.352 101.225,353.554 101.225 C 353.756 101.225,353.922 101.312,353.922 101.418 C 353.922 101.523,354.245 101.801,354.641 102.035 C 355.359 102.459,355.844 102.840,357.593 104.350 C 358.100 104.789,358.585 105.147,358.670 105.147 C 358.755 105.147,359.223 105.587,359.709 106.125 C 360.195 106.664,360.676 107.052,360.778 106.989 C 360.879 106.927,361.375 107.368,361.879 107.971 C 362.382 108.574,362.911 108.995,363.053 108.907 C 363.195 108.820,363.241 108.861,363.156 108.999 C 363.071 109.137,363.639 109.858,364.418 110.601 C 365.197 111.344,366.265 112.517,366.791 113.207 C 367.317 113.896,367.828 114.461,367.926 114.461 C 368.024 114.461,368.170 114.669,368.251 114.924 C 368.332 115.178,368.643 115.658,368.942 115.990 C 369.562 116.678,369.942 117.276,371.393 119.845 C 372.437 121.694,375.322 124.888,375.723 124.640 C 375.843 124.566,376.115 124.680,376.328 124.893 C 376.541 125.106,376.716 125.214,376.716 125.134 C 376.716 125.053,377.019 125.144,377.390 125.336 C 378.102 125.704,382.353 125.854,382.353 125.511 C 382.353 125.410,382.491 125.315,382.659 125.300 C 383.344 125.241,383.794 125.084,384.166 124.775 C 384.382 124.596,384.562 124.546,384.567 124.664 C 384.571 124.781,384.726 124.677,384.912 124.432 C 385.098 124.187,385.342 123.973,385.456 123.956 C 385.840 123.900,387.500 122.227,387.500 121.897 C 387.500 121.716,387.597 121.569,387.715 121.569 C 387.920 121.569,388.565 120.269,388.501 119.983 C 388.484 119.909,388.625 119.546,388.814 119.176 C 389.174 118.473,389.183 115.507,388.830 114.098 C 388.519 112.858,385.194 107.108,384.788 107.108 C 384.691 107.108,384.549 106.859,384.473 106.554 C 384.397 106.249,383.943 105.574,383.466 105.053 C 382.989 104.531,382.598 104.052,382.598 103.986 C 382.598 103.879,381.209 102.120,380.126 100.858 C 377.749 98.085,372.781 93.151,372.358 93.143 C 372.185 93.140,371.983 92.979,371.909 92.786 C 371.782 92.457,368.316 89.461,368.061 89.461 C 367.997 89.461,367.590 89.130,367.157 88.725 C 366.724 88.321,366.237 87.990,366.075 87.990 C 365.912 87.990,365.455 87.678,365.059 87.297 C 364.266 86.535,361.536 84.643,360.850 84.382 C 360.612 84.290,360.207 84.021,359.951 83.783 C 359.694 83.545,359.391 83.408,359.277 83.479 C 359.162 83.550,359.069 83.498,359.069 83.364 C 359.069 83.231,358.829 83.045,358.536 82.952 C 358.243 82.859,357.785 82.580,357.518 82.331 C 357.252 82.083,356.948 81.933,356.843 81.998 C 356.737 82.063,356.581 82.002,356.495 81.863 C 356.318 81.576,354.465 80.573,353.946 80.484 C 353.757 80.451,353.537 80.327,353.456 80.207 C 353.222 79.860,347.846 77.235,347.690 77.392 C 347.612 77.469,347.549 77.404,347.549 77.247 C 347.549 77.089,347.452 76.961,347.334 76.961 C 347.216 76.961,346.692 76.774,346.170 76.547 C 345.648 76.319,345.165 76.116,345.098 76.096 C 345.031 76.075,344.534 75.864,343.995 75.627 C 341.643 74.592,339.586 73.752,339.231 73.681 C 339.021 73.639,338.517 73.467,338.113 73.298 C 336.993 72.832,334.497 72.012,333.946 71.928 C 333.676 71.888,333.401 71.832,333.333 71.805 C 333.266 71.778,333.128 71.769,333.027 71.785 C 332.926 71.801,332.843 71.694,332.843 71.548 C 332.843 71.402,332.705 71.332,332.537 71.393 C 332.368 71.453,332.012 71.390,331.746 71.252 C 331.480 71.114,330.900 70.909,330.459 70.795 C 330.018 70.681,329.243 70.471,328.738 70.327 C 327.636 70.014,326.130 69.651,325.123 69.456 C 324.718 69.378,324.185 69.206,323.937 69.074 C 323.690 68.941,323.433 68.887,323.367 68.953 C 323.301 69.019,322.897 68.963,322.469 68.830 C 321.731 68.599,320.739 68.410,319.792 68.319 C 319.556 68.296,319.363 68.209,319.363 68.125 C 319.363 68.041,318.915 67.955,318.369 67.934 C 317.822 67.912,317.188 67.802,316.959 67.689 C 316.731 67.576,316.128 67.462,315.620 67.435 C 315.112 67.408,314.450 67.297,314.149 67.189 C 313.849 67.080,313.061 66.967,312.398 66.938 C 311.735 66.909,311.018 66.797,310.804 66.689 C 310.591 66.581,309.774 66.471,308.988 66.444 C 308.202 66.417,307.320 66.305,307.027 66.196 C 306.735 66.087,305.668 65.978,304.657 65.955 C 303.646 65.933,302.433 65.811,301.961 65.686 C 301.489 65.561,300.882 65.454,300.613 65.448 C 293.844 65.296,281.697 65.198,281.601 65.295 M130.062 79.596 C 129.999 79.697,130.847 79.750,131.947 79.713 C 135.382 79.600,135.771 79.496,132.919 79.453 C 131.410 79.430,130.124 79.494,130.062 79.596 M57.506 101.112 C 57.422 101.331,57.371 102.191,57.393 103.022 L 57.432 104.534 57.588 102.696 C 57.756 100.722,57.744 100.493,57.506 101.112 M57.385 107.353 C 57.372 108.229,57.449 109.085,57.556 109.255 C 57.664 109.424,57.711 108.873,57.661 108.029 C 57.529 105.805,57.413 105.523,57.385 107.353 M50.076 113.358 C 50.077 114.167,50.123 114.468,50.178 114.027 C 50.232 113.587,50.231 112.925,50.175 112.557 C 50.119 112.189,50.075 112.549,50.076 113.358 M227.941 119.730 C 228.398 120.202,228.828 120.588,228.895 120.588 C 228.963 120.588,228.644 120.202,228.186 119.730 C 227.729 119.259,227.300 118.873,227.232 118.873 C 227.165 118.873,227.484 119.259,227.941 119.730 M25.980 127.328 C 25.664 127.665,25.507 127.938,25.631 127.933 C 25.841 127.926,26.851 126.716,26.647 126.716 C 26.597 126.716,26.297 126.991,25.980 127.328 M214.583 132.108 C 214.827 132.377,215.137 132.598,215.272 132.598 C 215.406 132.598,215.262 132.377,214.951 132.108 C 214.640 131.838,214.330 131.618,214.263 131.618 C 214.195 131.618,214.339 131.838,214.583 132.108 M382.078 133.690 C 382.017 133.751,381.530 133.826,380.996 133.857 C 380.462 133.888,379.804 133.994,379.534 134.093 C 379.265 134.193,378.824 134.355,378.554 134.453 C 378.284 134.552,377.911 134.664,377.725 134.701 C 377.539 134.739,377.269 134.888,377.125 135.032 C 376.981 135.176,376.664 135.294,376.422 135.294 C 376.179 135.294,375.980 135.411,375.980 135.554 C 375.980 135.696,375.887 135.755,375.772 135.685 C 375.658 135.614,375.332 135.773,375.047 136.038 C 374.763 136.303,374.411 136.520,374.264 136.520 C 372.894 136.520,368.559 142.494,367.684 145.588 C 367.512 146.195,367.276 146.998,367.160 147.374 C 367.043 147.749,366.948 149.262,366.948 150.735 C 366.948 152.209,367.043 153.722,367.160 154.097 C 367.276 154.472,367.510 155.276,367.679 155.882 C 367.848 156.489,368.392 157.785,368.887 158.762 C 369.382 159.740,369.692 160.539,369.575 160.539 C 369.458 160.539,369.363 160.693,369.363 160.881 C 369.363 161.068,369.190 161.288,368.980 161.369 C 368.769 161.450,368.665 161.627,368.749 161.763 C 368.833 161.899,368.803 162.010,368.683 162.010 C 368.564 162.010,368.095 162.525,367.643 163.155 C 366.372 164.924,362.265 169.203,360.272 170.833 C 359.695 171.305,358.940 171.974,358.594 172.319 C 358.249 172.664,357.773 173.019,357.537 173.108 C 357.301 173.196,357.108 173.383,357.108 173.522 C 357.108 173.661,356.970 173.775,356.801 173.776 C 356.633 173.776,356.143 174.107,355.712 174.511 C 355.281 174.915,354.873 175.245,354.804 175.245 C 354.600 175.245,351.355 177.543,351.266 177.750 C 351.221 177.855,351.050 177.941,350.886 177.941 C 350.722 177.941,350.450 178.079,350.282 178.248 C 350.113 178.416,349.898 178.557,349.804 178.560 C 349.614 178.567,347.254 179.922,347.059 180.135 C 346.991 180.209,346.247 180.593,345.404 180.989 C 344.562 181.384,343.873 181.816,343.873 181.949 C 343.873 182.081,343.804 182.121,343.721 182.038 C 343.637 181.954,343.408 182.047,343.211 182.244 C 343.014 182.441,342.751 182.540,342.627 182.463 C 342.503 182.387,342.402 182.422,342.402 182.543 C 342.402 182.663,342.264 182.764,342.096 182.768 C 341.927 182.771,340.852 183.218,339.706 183.761 C 337.509 184.801,333.249 186.520,332.865 186.520 C 332.741 186.520,332.602 186.627,332.557 186.758 C 332.512 186.889,332.255 187.040,331.985 187.094 C 330.546 187.384,329.902 187.578,329.902 187.722 C 329.902 187.811,329.610 187.907,329.253 187.937 C 328.896 187.967,328.479 188.094,328.326 188.221 C 328.173 188.348,327.776 188.503,327.443 188.566 C 327.111 188.629,326.535 188.798,326.164 188.942 C 325.794 189.086,325.490 189.147,325.490 189.078 C 325.490 189.010,325.287 189.062,325.038 189.195 C 324.559 189.452,323.677 189.678,322.363 189.881 C 321.924 189.949,321.503 190.103,321.429 190.223 C 321.355 190.343,320.963 190.441,320.558 190.441 C 320.152 190.441,319.600 190.559,319.331 190.703 C 319.062 190.847,318.518 190.974,318.122 190.986 C 317.726 190.997,317.402 191.081,317.402 191.173 C 317.402 191.265,317.264 191.350,317.096 191.363 C 316.927 191.376,316.376 191.412,315.870 191.443 C 315.365 191.475,314.951 191.570,314.951 191.654 C 314.951 191.739,314.593 191.841,314.154 191.882 C 313.053 191.985,312.377 192.085,312.377 192.144 C 312.377 192.246,311.367 192.395,310.417 192.432 C 309.877 192.454,309.265 192.558,309.056 192.664 C 308.846 192.771,307.909 192.912,306.972 192.979 C 306.036 193.045,305.104 193.163,304.902 193.240 C 304.700 193.317,303.707 193.425,302.696 193.481 C 301.685 193.536,299.534 193.681,297.917 193.803 C 294.647 194.050,280.090 194.002,278.554 193.740 C 278.015 193.648,277.132 193.546,276.593 193.513 C 276.054 193.480,275.028 193.417,274.313 193.373 C 273.598 193.329,272.965 193.215,272.905 193.118 C 272.845 193.022,272.186 192.936,271.439 192.927 C 270.692 192.918,269.971 192.842,269.836 192.759 C 269.701 192.676,268.968 192.554,268.206 192.489 C 267.444 192.424,266.618 192.262,266.371 192.130 C 266.124 191.997,265.835 191.943,265.729 192.008 C 265.623 192.073,265.102 192.016,264.570 191.881 C 264.038 191.745,263.168 191.579,262.636 191.511 C 262.104 191.443,261.460 191.276,261.206 191.140 C 260.951 191.003,260.688 190.946,260.622 191.012 C 260.556 191.078,260.152 191.025,259.724 190.895 C 259.296 190.764,258.670 190.606,258.333 190.542 C 257.996 190.479,257.555 190.364,257.353 190.288 C 257.151 190.211,256.654 190.093,256.250 190.025 C 255.846 189.958,255.322 189.799,255.086 189.673 C 254.850 189.547,254.657 189.500,254.657 189.569 C 254.657 189.637,254.354 189.576,253.983 189.433 C 253.612 189.290,253.088 189.129,252.819 189.076 C 252.549 189.024,252.108 188.881,251.838 188.760 C 251.569 188.638,250.521 188.291,249.510 187.987 C 248.499 187.684,247.345 187.293,246.946 187.118 C 246.547 186.942,246.134 186.853,246.027 186.919 C 245.921 186.985,245.833 186.915,245.833 186.765 C 245.833 186.614,245.731 186.554,245.605 186.632 C 245.480 186.709,245.307 186.659,245.221 186.520 C 245.135 186.380,244.961 186.330,244.836 186.408 C 244.711 186.485,244.608 186.432,244.608 186.289 C 244.608 186.146,244.525 186.047,244.424 186.069 C 244.220 186.113,243.619 185.877,241.068 184.753 C 240.116 184.334,239.200 183.991,239.032 183.989 C 238.863 183.988,238.725 183.877,238.725 183.742 C 238.725 183.607,238.653 183.569,238.564 183.658 C 238.476 183.747,238.282 183.719,238.135 183.597 C 237.681 183.220,232.242 180.529,232.047 180.585 C 231.945 180.614,231.863 180.545,231.863 180.431 C 231.863 180.259,230.791 179.615,230.392 179.549 C 230.325 179.538,229.746 179.166,229.105 178.723 C 228.465 178.280,227.941 177.997,227.941 178.095 C 227.941 178.192,227.693 178.052,227.390 177.784 C 227.086 177.516,226.507 177.096,226.103 176.851 C 225.131 176.263,222.720 174.454,222.491 174.143 C 222.372 173.979,222.308 173.979,222.300 174.142 C 222.294 174.277,222.177 174.194,222.039 173.958 C 221.902 173.722,221.633 173.529,221.443 173.529 C 221.252 173.529,220.978 173.309,220.833 173.039 C 220.689 172.770,220.470 172.549,220.346 172.549 C 220.222 172.549,219.859 172.301,219.540 171.998 C 219.220 171.694,218.372 170.950,217.655 170.343 C 216.938 169.737,216.177 169.047,215.964 168.811 C 215.751 168.575,215.436 168.382,215.264 168.382 C 215.092 168.382,214.951 168.285,214.951 168.167 C 214.951 167.927,213.615 167.320,213.086 167.320 C 212.898 167.320,212.745 167.237,212.745 167.134 C 212.745 166.655,208.002 166.956,206.757 167.515 C 204.566 168.498,202.124 170.990,201.892 172.480 C 201.855 172.720,201.722 173.080,201.598 173.280 C 200.673 174.764,201.990 181.373,203.210 181.373 C 203.332 181.373,203.432 181.510,203.434 181.679 C 203.435 181.847,203.786 182.261,204.215 182.598 C 204.644 182.935,205.442 183.658,205.990 184.205 C 207.301 185.516,211.627 188.971,211.956 188.971 C 212.098 188.971,212.251 189.074,212.296 189.200 C 212.341 189.327,213.243 190.050,214.300 190.807 C 215.357 191.564,216.149 192.040,216.059 191.864 C 215.969 191.688,216.041 191.721,216.221 191.937 C 216.400 192.154,216.794 192.409,217.097 192.505 C 217.399 192.601,217.647 192.783,217.647 192.909 C 217.647 193.034,217.812 193.137,218.015 193.137 C 218.217 193.137,218.382 193.224,218.382 193.330 C 218.382 193.526,219.630 194.341,219.853 194.290 C 219.920 194.275,220.227 194.478,220.535 194.742 C 220.843 195.005,221.161 195.184,221.243 195.138 C 221.324 195.093,221.459 195.151,221.541 195.267 C 221.800 195.630,223.006 196.324,223.378 196.324 C 223.574 196.324,223.770 196.420,223.815 196.537 C 223.896 196.748,226.290 198.032,226.653 198.060 C 226.755 198.068,227.004 198.224,227.206 198.407 C 227.408 198.590,227.629 198.741,227.696 198.743 C 227.763 198.744,228.480 199.052,229.289 199.427 C 230.098 199.802,230.815 200.122,230.882 200.138 C 230.950 200.154,231.446 200.371,231.985 200.620 C 232.525 200.869,233.021 201.084,233.088 201.097 C 233.156 201.110,233.431 201.237,233.701 201.379 C 233.971 201.521,234.853 201.888,235.662 202.195 C 236.471 202.501,237.600 202.960,238.171 203.214 C 238.743 203.469,239.432 203.676,239.703 203.676 C 239.974 203.676,240.196 203.805,240.196 203.962 C 240.196 204.120,240.269 204.176,240.357 204.087 C 240.446 203.998,240.639 204.020,240.786 204.136 C 241.047 204.341,244.087 205.394,244.678 205.483 C 244.842 205.508,245.113 205.615,245.282 205.720 C 245.450 205.825,245.699 205.843,245.833 205.760 C 245.968 205.676,246.078 205.744,246.078 205.909 C 246.078 206.074,246.151 206.137,246.240 206.048 C 246.328 205.959,246.552 206.012,246.736 206.165 C 246.920 206.317,247.141 206.372,247.226 206.287 C 247.311 206.202,247.529 206.255,247.710 206.405 C 247.891 206.555,248.039 206.596,248.039 206.495 C 248.039 206.395,248.207 206.452,248.413 206.623 C 248.618 206.793,248.856 206.863,248.942 206.777 C 249.027 206.692,249.245 206.745,249.426 206.895 C 249.607 207.045,249.755 207.086,249.755 206.985 C 249.755 206.885,249.923 206.942,250.128 207.113 C 250.334 207.283,250.569 207.356,250.650 207.275 C 250.731 207.194,251.125 207.297,251.524 207.503 C 251.924 207.710,252.308 207.823,252.376 207.754 C 252.445 207.686,252.793 207.746,253.150 207.888 C 253.507 208.030,254.075 208.188,254.412 208.240 C 255.267 208.371,256.005 208.532,256.005 208.588 C 256.005 208.613,256.281 208.675,256.618 208.725 C 257.424 208.845,258.211 209.019,258.211 209.078 C 258.211 209.104,258.487 209.161,258.824 209.205 C 259.954 209.355,260.415 209.450,260.662 209.583 C 260.797 209.657,261.238 209.737,261.642 209.762 C 262.047 209.787,262.708 209.904,263.113 210.022 C 263.517 210.140,264.277 210.254,264.802 210.275 C 265.327 210.297,265.933 210.405,266.150 210.516 C 266.367 210.626,267.096 210.736,267.770 210.758 C 269.183 210.806,269.633 210.867,269.975 211.057 C 270.110 211.132,270.938 211.216,271.814 211.244 C 273.603 211.299,274.034 211.350,274.387 211.548 C 274.522 211.623,275.730 211.707,277.072 211.735 C 278.414 211.762,279.958 211.883,280.503 212.003 C 281.825 212.293,296.326 212.293,298.039 212.002 C 298.781 211.877,300.380 211.756,301.593 211.735 C 302.806 211.713,303.907 211.633,304.040 211.558 C 304.337 211.388,304.857 211.331,306.740 211.263 C 307.549 211.234,308.321 211.145,308.456 211.065 C 308.766 210.882,309.020 210.845,310.917 210.705 C 311.768 210.642,312.564 210.529,312.687 210.453 C 312.809 210.377,313.341 210.292,313.869 210.263 C 314.397 210.235,314.939 210.151,315.074 210.076 C 315.421 209.883,315.918 209.804,316.973 209.773 C 317.479 209.758,317.892 209.667,317.892 209.571 C 317.892 209.387,317.971 209.372,319.363 209.288 C 319.835 209.260,320.565 209.093,320.986 208.917 C 321.407 208.742,321.816 208.662,321.895 208.741 C 321.974 208.820,322.472 208.712,323.001 208.500 C 323.531 208.288,324.024 208.175,324.098 208.248 C 324.172 208.322,324.377 208.292,324.555 208.181 C 324.880 207.978,325.207 207.884,326.103 207.740 C 326.373 207.696,326.621 207.633,326.654 207.599 C 326.688 207.565,326.817 207.523,326.940 207.506 C 327.064 207.489,327.240 207.400,327.332 207.309 C 327.424 207.217,327.642 207.197,327.818 207.264 C 327.993 207.331,328.211 207.267,328.301 207.121 C 328.391 206.974,328.560 206.913,328.676 206.985 C 328.793 207.057,328.954 207.009,329.035 206.877 C 329.116 206.746,329.336 206.698,329.523 206.770 C 329.710 206.842,330.120 206.761,330.434 206.590 C 330.748 206.420,331.170 206.265,331.373 206.247 C 331.926 206.197,335.133 205.112,335.439 204.871 C 335.586 204.756,335.770 204.724,335.847 204.801 C 335.924 204.879,336.245 204.800,336.560 204.627 C 336.875 204.455,337.309 204.283,337.524 204.247 C 337.740 204.211,338.438 203.957,339.076 203.684 C 339.715 203.410,340.393 203.186,340.584 203.186 C 340.775 203.186,340.931 203.076,340.931 202.941 C 340.931 202.806,341.014 202.709,341.115 202.725 C 341.216 202.741,341.382 202.727,341.483 202.694 C 341.584 202.662,341.749 202.617,341.850 202.595 C 341.952 202.574,342.282 202.418,342.586 202.250 C 342.889 202.081,343.137 202.005,343.137 202.080 C 343.137 202.156,343.385 202.055,343.689 201.856 C 343.992 201.657,344.323 201.490,344.425 201.485 C 344.527 201.480,345.023 201.292,345.528 201.067 C 346.033 200.841,346.501 200.640,346.569 200.620 C 346.636 200.600,347.118 200.397,347.640 200.169 C 348.162 199.941,348.673 199.755,348.774 199.755 C 348.876 199.755,349.099 199.587,349.270 199.381 C 349.440 199.176,349.638 199.066,349.709 199.137 C 349.780 199.208,350.040 199.083,350.286 198.860 C 350.533 198.636,350.735 198.534,350.735 198.631 C 350.735 198.729,350.910 198.635,351.123 198.422 C 351.336 198.209,351.602 198.092,351.715 198.161 C 351.827 198.231,351.958 198.170,352.006 198.027 C 352.053 197.884,352.256 197.742,352.455 197.710 C 353.063 197.615,355.147 196.496,355.147 196.266 C 355.147 196.147,355.257 196.118,355.392 196.201 C 355.527 196.284,355.637 196.258,355.637 196.142 C 355.637 196.026,356.023 195.792,356.495 195.622 C 356.967 195.451,357.353 195.208,357.353 195.082 C 357.353 194.956,357.511 194.853,357.703 194.853 C 357.896 194.853,358.201 194.715,358.381 194.547 C 358.561 194.378,359.120 194.030,359.624 193.773 C 360.127 193.516,360.539 193.206,360.539 193.084 C 360.539 192.963,360.633 192.921,360.747 192.992 C 360.862 193.062,361.165 192.931,361.421 192.700 C 361.678 192.469,362.176 192.131,362.528 191.949 C 362.880 191.768,363.432 191.380,363.753 191.087 C 364.075 190.795,364.890 190.204,365.564 189.773 C 366.238 189.343,367.154 188.656,367.601 188.246 C 368.047 187.836,368.511 187.500,368.630 187.500 C 368.750 187.500,368.936 187.352,369.044 187.172 C 369.152 186.991,369.444 186.733,369.693 186.598 C 371.111 185.826,379.556 177.454,381.250 175.141 C 381.520 174.773,381.961 174.226,382.230 173.924 C 382.705 173.394,383.810 171.882,385.721 169.149 C 386.620 167.865,387.774 167.171,389.032 167.161 C 389.268 167.159,389.461 167.040,389.461 166.897 C 389.461 166.755,389.557 166.697,389.676 166.771 C 389.941 166.935,393.382 165.217,393.382 164.920 C 393.382 164.802,393.520 164.705,393.689 164.705 C 394.711 164.701,398.415 160.454,399.522 158.015 C 400.058 156.835,400.262 144.553,399.751 144.238 C 399.614 144.153,399.560 143.990,399.631 143.875 C 399.701 143.761,399.585 143.493,399.372 143.280 C 399.159 143.066,399.047 142.892,399.122 142.892 C 399.520 142.892,397.511 140.196,395.873 138.532 C 394.253 136.885,390.908 134.705,389.961 134.678 C 389.888 134.676,389.718 134.608,389.583 134.528 C 388.690 133.995,382.468 133.300,382.078 133.690 M41.422 137.623 C 40.417 138.634,39.651 139.461,39.718 139.461 C 39.786 139.461,40.662 138.634,41.667 137.623 C 42.671 136.612,43.437 135.784,43.370 135.784 C 43.303 135.784,42.426 136.612,41.422 137.623 M166.529 201.777 L 165.809 202.574 166.605 201.854 C 167.044 201.458,167.402 201.099,167.402 201.057 C 167.402 200.868,167.200 201.034,166.529 201.777 M27.819 213.725 C 28.345 214.265,28.831 214.706,28.899 214.706 C 28.966 214.706,28.590 214.265,28.064 213.725 C 27.537 213.186,27.051 212.745,26.984 212.745 C 26.916 212.745,27.292 213.186,27.819 213.725 " stroke="none" fill="#8cdc6c" fill-rule="evenodd"></path><path id="path2" d="M89.323 17.708 L 88.603 18.505 89.400 17.785 C 90.142 17.114,90.309 16.912,90.119 16.912 C 90.077 16.912,89.719 17.270,89.323 17.708 M284.130 83.257 C 284.366 83.319,284.752 83.319,284.988 83.257 C 285.224 83.196,285.031 83.145,284.559 83.145 C 284.087 83.145,283.894 83.196,284.130 83.257 M293.444 83.257 C 293.680 83.319,294.066 83.319,294.301 83.257 C 294.537 83.196,294.344 83.145,293.873 83.145 C 293.401 83.145,293.208 83.196,293.444 83.257 M57.655 103.431 C 57.655 103.903,57.705 104.096,57.767 103.860 C 57.829 103.624,57.829 103.238,57.767 103.002 C 57.705 102.767,57.655 102.960,57.655 103.431 M57.410 105.147 C 57.410 105.619,57.460 105.812,57.522 105.576 C 57.584 105.340,57.584 104.954,57.522 104.718 C 57.460 104.482,57.410 104.675,57.410 105.147 M117.706 106.046 C 117.535 106.114,117.272 106.409,117.121 106.700 C 116.863 107.196,116.887 107.192,117.491 106.636 C 117.847 106.309,118.137 106.006,118.137 105.962 C 118.137 105.873,118.133 105.873,117.706 106.046 M57.660 106.985 C 57.663 107.525,57.713 107.716,57.771 107.411 C 57.830 107.106,57.828 106.665,57.766 106.431 C 57.705 106.197,57.657 106.446,57.660 106.985 M50.067 115.686 C 50.067 116.293,50.115 116.541,50.173 116.238 C 50.231 115.934,50.231 115.438,50.173 115.135 C 50.115 114.831,50.067 115.080,50.067 115.686 M230.147 121.936 C 230.879 122.678,231.533 123.284,231.601 123.284 C 231.668 123.284,231.124 122.678,230.392 121.936 C 229.660 121.195,229.006 120.588,228.938 120.588 C 228.871 120.588,229.415 121.195,230.147 121.936 M29.527 123.830 C 28.722 124.670,28.388 125.083,28.785 124.749 C 29.690 123.987,30.418 123.275,30.851 122.728 C 31.546 121.851,30.940 122.356,29.527 123.830 M27.205 126.104 C 26.889 126.440,26.688 126.716,26.758 126.716 C 27.001 126.716,28.019 125.732,27.900 125.612 C 27.834 125.546,27.521 125.767,27.205 126.104 M43.899 135.063 C 43.577 135.332,43.365 135.603,43.428 135.667 C 43.492 135.730,43.802 135.507,44.119 135.171 C 44.806 134.439,44.707 134.390,43.899 135.063 M376.337 180.453 L 375.368 181.495 376.409 180.526 C 377.378 179.625,377.564 179.412,377.378 179.412 C 377.338 179.412,376.869 179.881,376.337 180.453 M17.489 187.623 C 17.488 188.836,17.530 189.363,17.581 188.794 C 17.632 188.225,17.633 187.233,17.582 186.588 C 17.532 185.944,17.490 186.409,17.489 187.623 M114.828 188.358 C 114.828 189.074,114.911 189.608,115.012 189.545 C 115.113 189.483,115.196 188.949,115.196 188.358 C 115.196 187.767,115.113 187.233,115.012 187.170 C 114.911 187.108,114.828 187.642,114.828 188.358 M154.153 188.642 C 153.484 189.352,153.444 189.441,153.959 189.071 C 154.522 188.666,155.297 187.745,155.075 187.745 C 155.033 187.745,154.618 188.149,154.153 188.642 M152.247 190.625 L 151.326 191.544 152.195 190.810 C 152.673 190.405,153.169 189.992,153.297 189.890 C 153.425 189.789,153.448 189.706,153.348 189.706 C 153.249 189.706,152.753 190.119,152.247 190.625 M164.277 203.930 C 163.434 204.737,162.745 205.476,162.745 205.572 C 162.745 205.667,163.462 205.035,164.338 204.167 C 165.795 202.723,166.048 202.441,165.870 202.456 C 165.836 202.459,165.119 203.122,164.277 203.930 M66.973 227.630 C 67.479 227.682,68.306 227.682,68.811 227.630 C 69.317 227.577,68.903 227.533,67.892 227.533 C 66.881 227.533,66.468 227.577,66.973 227.630 M193.566 227.624 C 193.869 227.682,194.366 227.682,194.669 227.624 C 194.972 227.566,194.724 227.518,194.118 227.518 C 193.511 227.518,193.263 227.566,193.566 227.624 M16.422 227.765 C 16.422 227.812,16.752 228.166,17.157 228.554 C 17.561 228.941,17.892 229.148,17.892 229.014 C 17.892 228.879,17.561 228.524,17.157 228.225 C 16.752 227.926,16.422 227.719,16.422 227.765 M244.273 228.329 C 243.887 228.669,243.619 228.995,243.678 229.054 C 243.737 229.113,244.102 228.832,244.488 228.429 C 245.341 227.538,245.231 227.487,244.273 228.329 " stroke="none" fill="#94aca0" fill-rule="evenodd"></path><path id="path3" d="M89.323 17.708 L 88.603 18.505 89.400 17.785 C 90.142 17.114,90.309 16.912,90.119 16.912 C 90.077 16.912,89.719 17.270,89.323 17.708 M284.130 83.257 C 284.366 83.319,284.752 83.319,284.988 83.257 C 285.224 83.196,285.031 83.145,284.559 83.145 C 284.087 83.145,283.894 83.196,284.130 83.257 M293.444 83.257 C 293.680 83.319,294.066 83.319,294.301 83.257 C 294.537 83.196,294.344 83.145,293.873 83.145 C 293.401 83.145,293.208 83.196,293.444 83.257 M57.655 103.431 C 57.655 103.903,57.705 104.096,57.767 103.860 C 57.829 103.624,57.829 103.238,57.767 103.002 C 57.705 102.767,57.655 102.960,57.655 103.431 M57.410 105.147 C 57.410 105.619,57.460 105.812,57.522 105.576 C 57.584 105.340,57.584 104.954,57.522 104.718 C 57.460 104.482,57.410 104.675,57.410 105.147 M117.706 106.046 C 117.535 106.114,117.272 106.409,117.121 106.700 C 116.863 107.196,116.887 107.192,117.491 106.636 C 117.847 106.309,118.137 106.006,118.137 105.962 C 118.137 105.873,118.133 105.873,117.706 106.046 M57.660 106.985 C 57.663 107.525,57.713 107.716,57.771 107.411 C 57.830 107.106,57.828 106.665,57.766 106.431 C 57.705 106.197,57.657 106.446,57.660 106.985 M50.067 115.686 C 50.067 116.293,50.115 116.541,50.173 116.238 C 50.231 115.934,50.231 115.438,50.173 115.135 C 50.115 114.831,50.067 115.080,50.067 115.686 M230.147 121.936 C 230.879 122.678,231.533 123.284,231.601 123.284 C 231.668 123.284,231.124 122.678,230.392 121.936 C 229.660 121.195,229.006 120.588,228.938 120.588 C 228.871 120.588,229.415 121.195,230.147 121.936 M29.527 123.830 C 28.722 124.670,28.388 125.083,28.785 124.749 C 29.690 123.987,30.418 123.275,30.851 122.728 C 31.546 121.851,30.940 122.356,29.527 123.830 M27.205 126.104 C 26.889 126.440,26.688 126.716,26.758 126.716 C 27.001 126.716,28.019 125.732,27.900 125.612 C 27.834 125.546,27.521 125.767,27.205 126.104 M43.899 135.063 C 43.577 135.332,43.365 135.603,43.428 135.667 C 43.492 135.730,43.802 135.507,44.119 135.171 C 44.806 134.439,44.707 134.390,43.899 135.063 M376.337 180.453 L 375.368 181.495 376.409 180.526 C 377.378 179.625,377.564 179.412,377.378 179.412 C 377.338 179.412,376.869 179.881,376.337 180.453 M17.489 187.623 C 17.488 188.836,17.530 189.363,17.581 188.794 C 17.632 188.225,17.633 187.233,17.582 186.588 C 17.532 185.944,17.490 186.409,17.489 187.623 M114.828 188.358 C 114.828 189.074,114.911 189.608,115.012 189.545 C 115.113 189.483,115.196 188.949,115.196 188.358 C 115.196 187.767,115.113 187.233,115.012 187.170 C 114.911 187.108,114.828 187.642,114.828 188.358 M154.153 188.642 C 153.484 189.352,153.444 189.441,153.959 189.071 C 154.522 188.666,155.297 187.745,155.075 187.745 C 155.033 187.745,154.618 188.149,154.153 188.642 M152.247 190.625 L 151.326 191.544 152.195 190.810 C 152.673 190.405,153.169 189.992,153.297 189.890 C 153.425 189.789,153.448 189.706,153.348 189.706 C 153.249 189.706,152.753 190.119,152.247 190.625 M164.277 203.930 C 163.434 204.737,162.745 205.476,162.745 205.572 C 162.745 205.667,163.462 205.035,164.338 204.167 C 165.795 202.723,166.048 202.441,165.870 202.456 C 165.836 202.459,165.119 203.122,164.277 203.930 M66.973 227.630 C 67.479 227.682,68.306 227.682,68.811 227.630 C 69.317 227.577,68.903 227.533,67.892 227.533 C 66.881 227.533,66.468 227.577,66.973 227.630 M193.566 227.624 C 193.869 227.682,194.366 227.682,194.669 227.624 C 194.972 227.566,194.724 227.518,194.118 227.518 C 193.511 227.518,193.263 227.566,193.566 227.624 M16.422 227.765 C 16.422 227.812,16.752 228.166,17.157 228.554 C 17.561 228.941,17.892 229.148,17.892 229.014 C 17.892 228.879,17.561 228.524,17.157 228.225 C 16.752 227.926,16.422 227.719,16.422 227.765 M244.273 228.329 C 243.887 228.669,243.619 228.995,243.678 229.054 C 243.737 229.113,244.102 228.832,244.488 228.429 C 245.341 227.538,245.231 227.487,244.273 228.329 " stroke="none" fill="#94aca0" fill-rule="evenodd"></path></g></svg>