<svg id="svg" version="1.1" width="400" height="400" viewBox="0 0 400 400" xmlns="http://www.w3.org/2000/svg" xmlns:xlink="http://www.w3.org/1999/xlink" ><g id="svgg"><path id="path0" d="M269.400 187.988 C 249.690 190.268,237.381 204.125,237.413 224.000 C 237.437 238.874,242.444 248.021,255.200 256.491 C 258.435 258.639,273.984 266.400,275.053 266.400 C 275.920 266.400,289.322 273.419,290.858 274.678 C 300.166 282.306,296.592 294.589,284.120 297.838 C 272.732 300.804,259.878 295.594,252.752 285.125 C 251.901 283.873,251.020 282.736,250.796 282.597 C 250.571 282.458,247.645 283.941,244.294 285.892 C 240.942 287.844,236.176 290.601,233.703 292.020 C 228.390 295.068,228.474 294.714,231.855 299.803 C 241.608 314.482,258.007 322.407,278.600 322.390 C 310.050 322.364,328.295 301.623,321.519 273.600 C 318.344 260.471,308.554 251.524,287.200 242.235 C 285.770 241.613,284.060 240.868,283.400 240.580 C 266.849 233.363,263.833 230.625,263.811 222.800 C 263.789 215.187,267.800 211.514,276.401 211.269 C 283.570 211.064,287.059 212.804,291.704 218.900 C 293.003 220.605,294.268 222.000,294.514 222.000 C 295.478 222.000,314.400 209.051,314.400 208.391 C 314.400 206.496,306.262 197.293,302.077 194.454 C 294.029 188.995,281.732 186.562,269.400 187.988 M129.800 189.176 L 119.000 189.400 118.701 196.000 C 118.536 199.630,118.446 204.850,118.501 207.600 L 118.600 212.600 137.600 212.800 L 156.600 213.000 156.800 266.800 L 157.000 320.600 170.000 320.600 L 183.000 320.600 183.101 266.704 L 183.203 212.808 202.101 212.704 L 221.000 212.600 221.106 201.585 C 221.194 192.525,221.110 190.430,220.639 189.785 C 220.037 188.961,159.713 188.557,129.800 189.176 " stroke="none" fill="#fafbfb" fill-rule="evenodd"></path><path id="path1" d="M53.200 200.000 L 53.200 346.800 200.000 346.800 L 346.800 346.800 346.800 200.000 L 346.800 53.200 200.000 53.200 L 53.200 53.200 53.200 200.000 M282.800 187.225 C 295.964 188.434,304.434 193.249,312.729 204.239 C 316.328 209.008,316.647 208.397,307.279 214.680 C 293.631 223.834,294.578 223.432,292.528 220.953 C 287.266 214.592,285.474 213.229,280.991 212.174 C 271.685 209.986,264.400 214.636,264.400 222.764 C 264.400 229.901,267.641 232.866,282.600 239.414 C 308.080 250.567,317.125 257.828,321.401 270.564 C 325.811 283.701,323.587 298.706,315.851 308.011 C 298.607 328.753,255.175 327.937,236.017 306.511 C 233.073 303.219,228.341 296.005,228.483 295.025 C 228.585 294.316,233.312 291.226,238.800 288.281 C 239.350 287.986,241.978 286.472,244.641 284.918 C 251.225 281.074,250.753 281.128,252.750 283.975 C 260.455 294.959,270.842 299.662,282.478 297.436 C 290.826 295.839,295.000 291.685,295.000 284.973 C 295.000 277.606,290.976 274.043,274.800 267.089 C 268.726 264.478,266.873 263.631,263.026 261.707 C 247.122 253.752,238.550 243.600,236.819 230.671 C 233.074 202.697,252.403 184.434,282.800 187.225 M221.200 188.791 C 222.149 189.390,222.330 212.013,221.394 212.949 C 220.811 213.531,218.805 213.600,202.371 213.600 L 184.000 213.600 184.000 266.971 C 184.000 314.958,183.937 320.406,183.371 320.971 C 182.683 321.660,157.555 321.940,156.501 321.271 C 156.108 321.022,155.981 309.630,155.901 267.377 L 155.800 213.800 137.436 213.696 C 124.688 213.624,118.908 213.456,118.536 213.147 C 117.674 212.431,117.760 189.897,118.629 189.029 C 119.367 188.290,220.037 188.057,221.200 188.791 " stroke="none" fill="#047ccc" fill-rule="evenodd"></path><path id="path2" d="M273.900 187.095 C 275.055 187.176,276.945 187.176,278.100 187.095 C 279.255 187.014,278.310 186.948,276.000 186.948 C 273.690 186.948,272.745 187.014,273.900 187.095 M266.100 187.876 C 266.485 187.976,267.115 187.976,267.500 187.876 C 267.885 187.775,267.570 187.693,266.800 187.693 C 266.030 187.693,265.715 187.775,266.100 187.876 M285.905 187.883 C 286.402 187.979,287.122 187.975,287.505 187.875 C 287.887 187.775,287.480 187.696,286.600 187.701 C 285.720 187.705,285.407 187.787,285.905 187.883 M263.600 188.400 C 262.776 188.664,262.741 188.726,263.400 188.754 C 263.840 188.773,264.470 188.613,264.800 188.400 C 265.501 187.947,265.014 187.947,263.600 188.400 M169.800 188.698 C 216.996 188.791,220.635 188.847,221.100 189.476 C 221.538 190.069,221.600 190.074,221.600 189.519 C 221.600 188.407,221.170 188.398,169.667 188.498 L 119.000 188.597 169.800 188.698 M118.091 201.051 C 118.018 210.337,118.108 212.792,118.531 213.143 C 119.140 213.648,156.000 214.003,156.000 213.504 C 156.000 213.341,147.585 213.161,137.300 213.104 L 118.600 213.000 118.391 201.200 L 118.182 189.400 118.091 201.051 M294.400 189.789 C 294.400 190.106,297.300 191.233,297.528 191.005 C 297.641 190.892,297.635 190.800,297.516 190.800 C 297.396 190.800,296.646 190.528,295.849 190.195 C 295.052 189.862,294.400 189.679,294.400 189.789 M221.776 201.400 C 221.776 207.560,221.832 210.024,221.899 206.876 C 221.967 203.727,221.967 198.687,221.899 195.676 C 221.831 192.664,221.776 195.240,221.776 201.400 M254.600 192.000 C 253.940 192.437,253.580 192.792,253.800 192.788 C 254.201 192.782,256.376 191.223,256.000 191.212 C 255.890 191.208,255.260 191.563,254.600 192.000 M246.629 198.100 C 244.583 200.135,242.694 202.250,242.432 202.800 C 242.046 203.611,242.122 203.573,242.836 202.600 C 243.319 201.940,245.320 199.825,247.282 197.900 C 249.243 195.975,250.736 194.400,250.599 194.400 C 250.463 194.400,248.676 196.065,246.629 198.100 M306.627 197.800 C 308.621 199.780,311.050 202.486,312.026 203.814 C 315.554 208.615,315.358 208.370,314.578 207.000 C 312.752 203.794,307.565 197.780,304.656 195.498 C 303.746 194.784,304.633 195.820,306.627 197.800 M241.468 204.300 C 240.788 205.435,239.703 207.515,239.485 208.100 C 238.953 209.531,239.546 208.726,240.736 206.400 C 241.729 204.461,242.225 203.035,241.468 204.300 M273.676 211.540 C 273.168 211.683,274.574 211.800,276.800 211.800 C 279.026 211.800,280.432 211.683,279.924 211.540 C 279.416 211.397,278.010 211.280,276.800 211.280 C 275.590 211.280,274.184 211.397,273.676 211.540 M270.131 212.621 C 269.432 212.927,268.757 213.346,268.629 213.553 C 268.501 213.760,269.072 213.609,269.898 213.218 C 270.724 212.827,271.670 212.407,272.000 212.285 C 272.533 212.088,272.533 212.063,272.000 212.064 C 271.670 212.065,270.829 212.315,270.131 212.621 M281.233 212.144 C 281.325 212.223,281.940 212.408,282.600 212.556 C 283.476 212.752,283.638 212.715,283.200 212.418 C 282.660 212.053,280.832 211.798,281.233 212.144 M306.294 214.964 C 302.377 217.615,300.466 219.052,302.000 218.192 C 303.427 217.392,310.800 212.365,310.800 212.191 C 310.800 211.907,310.922 211.832,306.294 214.964 M202.300 213.100 L 183.600 213.208 183.600 266.724 C 183.600 307.814,183.489 320.351,183.120 320.720 C 182.767 321.073,179.253 321.200,169.800 321.200 C 160.347 321.200,156.833 321.073,156.480 320.720 C 156.159 320.399,156.000 320.385,156.000 320.677 C 156.000 321.863,182.199 322.144,183.371 320.971 C 183.937 320.406,184.000 314.958,184.000 266.971 L 184.000 213.600 202.300 213.594 C 213.424 213.590,220.835 213.436,221.200 213.200 C 221.530 212.987,221.620 212.853,221.400 212.902 C 221.180 212.951,212.585 213.040,202.300 213.100 M237.040 215.240 C 236.893 216.157,236.852 216.985,236.947 217.080 C 237.042 217.176,237.246 216.510,237.400 215.600 C 237.554 214.690,237.596 213.862,237.493 213.760 C 237.390 213.657,237.187 214.323,237.040 215.240 M288.832 216.650 C 290.025 217.998,291.688 219.933,292.528 220.950 C 294.245 223.029,294.582 223.127,296.000 221.958 L 297.000 221.133 295.657 221.867 L 294.314 222.600 292.857 220.847 C 292.056 219.883,290.335 217.993,289.032 216.647 L 286.665 214.200 288.832 216.650 M264.779 218.255 C 264.558 218.836,264.452 219.385,264.543 219.476 C 264.633 219.567,264.899 219.092,265.133 218.420 C 265.653 216.928,265.339 216.782,264.779 218.255 M236.558 223.400 C 236.558 226.480,236.621 227.687,236.697 226.082 C 236.773 224.478,236.773 221.958,236.696 220.482 C 236.619 219.007,236.557 220.320,236.558 223.400 M264.068 222.651 C 264.008 225.160,264.757 228.400,265.395 228.400 C 265.497 228.400,265.369 227.905,265.112 227.300 C 264.854 226.695,264.529 224.760,264.389 223.000 L 264.135 219.800 264.068 222.651 M265.600 229.048 C 265.600 229.258,266.545 230.323,267.700 231.415 L 269.800 233.400 267.800 231.208 C 266.700 230.003,265.755 228.938,265.700 228.842 C 265.645 228.745,265.600 228.838,265.600 229.048 M236.870 230.600 C 236.857 231.040,236.995 232.120,237.177 233.000 C 237.455 234.345,237.508 234.409,237.507 233.400 C 237.505 231.999,236.908 229.370,236.870 230.600 M278.400 237.789 C 278.400 238.106,281.300 239.233,281.528 239.005 C 281.641 238.892,281.635 238.800,281.516 238.800 C 281.396 238.800,280.646 238.528,279.849 238.195 C 279.052 237.862,278.400 237.679,278.400 237.789 M239.485 239.900 C 239.867 240.928,241.215 243.338,241.666 243.800 C 241.881 244.020,241.483 243.075,240.782 241.700 C 239.554 239.291,238.944 238.444,239.485 239.900 M282.000 239.389 C 282.000 239.706,284.900 240.833,285.128 240.605 C 285.241 240.492,285.235 240.400,285.116 240.400 C 284.996 240.400,284.246 240.128,283.449 239.795 C 282.652 239.462,282.000 239.279,282.000 239.389 M287.200 241.800 C 287.750 242.114,288.380 242.372,288.600 242.372 C 288.820 242.372,288.550 242.114,288.000 241.800 C 287.450 241.486,286.820 241.228,286.600 241.228 C 286.380 241.228,286.650 241.486,287.200 241.800 M289.200 242.601 C 289.200 242.873,293.677 244.856,293.866 244.667 C 293.958 244.575,293.261 244.170,292.317 243.767 C 291.372 243.364,290.285 242.897,289.900 242.730 C 289.515 242.563,289.200 242.505,289.200 242.601 M296.200 245.921 C 296.771 246.498,299.666 248.067,299.839 247.894 C 299.919 247.814,299.043 247.247,297.892 246.633 C 296.742 246.019,295.980 245.699,296.200 245.921 M244.310 247.800 C 245.543 249.407,248.922 252.738,250.815 254.210 C 251.374 254.645,250.834 254.075,249.615 252.944 C 248.397 251.814,246.429 249.834,245.242 248.544 C 244.036 247.234,243.625 246.906,244.310 247.800 M301.200 248.764 C 301.750 249.214,302.380 249.583,302.600 249.585 C 303.028 249.588,302.305 249.034,301.000 248.360 C 300.469 248.085,300.536 248.221,301.200 248.764 M311.646 256.286 C 313.759 258.313,316.254 261.148,317.191 262.586 C 318.128 264.024,318.973 265.200,319.071 265.200 C 320.306 265.200,312.697 256.445,308.802 253.384 C 308.253 252.953,309.533 254.259,311.646 256.286 M257.400 258.607 C 257.840 258.966,258.560 259.435,259.000 259.651 L 259.800 260.044 259.000 259.393 C 258.560 259.034,257.840 258.565,257.400 258.349 L 256.600 257.956 257.400 258.607 M266.454 263.387 C 266.790 263.723,269.600 264.816,269.600 264.611 C 269.600 264.501,268.948 264.138,268.151 263.805 C 266.675 263.189,266.118 263.051,266.454 263.387 M270.054 264.987 C 270.390 265.323,273.200 266.416,273.200 266.211 C 273.200 266.101,272.548 265.738,271.751 265.405 C 270.275 264.789,269.718 264.651,270.054 264.987 M321.606 272.233 C 321.609 272.655,321.795 273.270,322.018 273.600 C 322.315 274.038,322.352 273.876,322.156 273.000 C 321.827 271.529,321.598 271.210,321.606 272.233 M288.000 273.311 C 288.000 273.387,288.585 273.878,289.300 274.401 C 290.104 274.990,290.384 275.087,290.033 274.655 C 289.500 273.999,288.000 273.007,288.000 273.311 M322.493 275.600 C 322.493 276.370,322.575 276.685,322.676 276.300 C 322.776 275.915,322.776 275.285,322.676 274.900 C 322.575 274.515,322.493 274.830,322.493 275.600 M290.800 275.325 C 290.800 275.394,291.385 275.979,292.100 276.625 L 293.400 277.800 292.225 276.500 C 291.130 275.288,290.800 275.016,290.800 275.325 M293.840 279.160 C 294.180 279.842,294.519 280.400,294.592 280.400 C 294.918 280.400,294.259 278.781,293.767 278.373 C 293.355 278.030,293.372 278.222,293.840 279.160 M323.357 284.400 C 323.357 287.370,323.420 288.585,323.497 287.100 C 323.574 285.615,323.574 283.185,323.497 281.700 C 323.420 280.215,323.357 281.430,323.357 284.400 M251.463 282.800 C 252.051 283.460,252.598 284.000,252.678 284.000 C 252.758 284.000,252.425 283.460,251.937 282.800 C 251.449 282.140,250.902 281.600,250.722 281.600 C 250.541 281.600,250.875 282.140,251.463 282.800 M246.200 284.000 C 245.540 284.437,245.180 284.792,245.400 284.788 C 245.801 284.782,247.976 283.223,247.600 283.212 C 247.490 283.208,246.860 283.563,246.200 284.000 M253.114 285.004 C 253.341 285.447,253.948 286.166,254.463 286.602 C 255.367 287.366,255.365 287.352,254.406 286.197 C 252.813 284.279,252.679 284.155,253.114 285.004 M243.400 285.600 C 242.740 286.037,242.380 286.392,242.600 286.388 C 243.001 286.382,245.176 284.823,244.800 284.812 C 244.690 284.808,244.060 285.163,243.400 285.600 M294.752 288.313 C 294.621 289.107,294.679 289.481,294.901 289.259 C 295.103 289.057,295.201 288.467,295.119 287.946 C 294.993 287.145,294.937 287.202,294.752 288.313 M257.200 289.800 C 258.395 291.010,259.463 292.000,259.573 292.000 C 259.683 292.000,258.795 291.010,257.600 289.800 C 256.405 288.590,255.337 287.600,255.227 287.600 C 255.117 287.600,256.005 288.590,257.200 289.800 M236.811 289.420 C 234.984 290.709,235.613 290.692,237.514 289.400 C 238.323 288.850,238.809 288.409,238.593 288.420 C 238.377 288.430,237.575 288.880,236.811 289.420 M293.291 291.429 C 292.248 293.020,289.659 295.008,287.483 295.887 C 286.649 296.224,286.037 296.570,286.122 296.655 C 286.400 296.933,288.961 295.694,290.659 294.461 C 292.281 293.281,294.670 290.536,294.351 290.218 C 294.263 290.129,293.786 290.674,293.291 291.429 M322.656 291.684 C 322.521 292.188,322.428 293.050,322.449 293.600 C 322.472 294.189,322.631 293.871,322.836 292.825 C 323.203 290.952,323.073 290.127,322.656 291.684 M231.000 292.800 C 230.340 293.237,229.980 293.592,230.200 293.588 C 230.601 293.582,232.776 292.023,232.400 292.012 C 232.290 292.008,231.660 292.363,231.000 292.800 M260.144 292.309 C 260.460 292.821,262.800 294.553,262.800 294.275 C 262.800 294.176,262.139 293.591,261.332 292.975 C 260.524 292.359,259.989 292.059,260.144 292.309 M228.880 294.080 C 228.616 294.344,228.421 294.929,228.446 295.380 C 228.492 296.183,228.497 296.184,228.689 295.400 C 228.798 294.960,229.069 294.375,229.292 294.100 C 229.810 293.462,229.512 293.448,228.880 294.080 M264.800 295.414 C 264.800 295.693,267.706 296.831,268.091 296.703 C 268.282 296.639,267.620 296.284,266.619 295.913 C 265.619 295.542,264.800 295.317,264.800 295.414 M230.267 298.806 C 230.659 299.470,231.398 300.505,231.910 301.106 C 232.421 301.708,232.175 301.165,231.363 299.900 C 229.824 297.503,229.028 296.707,230.267 298.806 M273.400 298.010 C 274.619 298.310,280.272 298.521,279.967 298.255 C 279.875 298.175,278.090 298.021,276.000 297.912 C 273.910 297.804,272.740 297.848,273.400 298.010 M320.667 299.267 C 320.305 300.188,320.074 301.007,320.154 301.088 C 320.234 301.168,320.600 300.483,320.967 299.567 C 321.333 298.650,321.564 297.831,321.479 297.746 C 321.394 297.661,321.029 298.345,320.667 299.267 M233.591 303.588 C 234.057 304.241,234.642 304.902,234.891 305.056 C 235.141 305.211,234.841 304.676,234.225 303.868 C 232.888 302.115,232.384 301.892,233.591 303.588 M317.802 304.900 C 317.195 305.835,316.406 306.970,316.049 307.423 C 315.692 307.876,315.940 307.669,316.600 306.963 C 317.762 305.719,319.420 303.200,319.076 303.200 C 318.983 303.200,318.409 303.965,317.802 304.900 M236.800 307.330 C 237.790 308.379,239.680 310.052,241.000 311.048 C 242.830 312.430,242.973 312.496,241.600 311.330 C 240.611 310.488,238.721 308.815,237.400 307.611 C 235.084 305.499,235.063 305.489,236.800 307.330 M313.381 310.500 L 311.800 312.200 313.500 310.619 C 314.435 309.749,315.200 308.984,315.200 308.919 C 315.200 308.616,314.852 308.919,313.381 310.500 M309.790 313.331 C 308.904 314.029,307.734 314.923,307.190 315.317 C 306.238 316.007,306.251 316.007,307.539 315.317 C 308.777 314.654,312.054 312.015,311.600 312.048 C 311.490 312.055,310.675 312.633,309.790 313.331 M246.400 314.820 C 247.787 315.761,248.578 316.035,247.600 315.236 C 247.050 314.786,246.420 314.417,246.200 314.415 C 245.980 314.413,246.070 314.596,246.400 314.820 M249.411 316.534 C 250.296 317.132,251.600 317.658,251.600 317.417 C 251.600 317.237,249.198 316.000,248.850 316.000 C 248.724 316.000,248.977 316.240,249.411 316.534 M304.700 316.629 C 303.205 317.440,303.296 317.778,304.800 317.000 C 305.460 316.659,306.000 316.294,306.000 316.190 C 306.000 315.932,305.957 315.947,304.700 316.629 M252.000 317.715 C 252.000 317.991,257.259 320.074,257.457 319.876 C 257.544 319.789,256.668 319.348,255.508 318.897 C 254.349 318.447,253.085 317.951,252.700 317.796 C 252.315 317.641,252.000 317.605,252.000 317.715 M301.600 318.200 C 301.050 318.514,300.780 318.772,301.000 318.772 C 301.220 318.772,301.850 318.514,302.400 318.200 C 302.950 317.886,303.220 317.628,303.000 317.628 C 302.780 317.628,302.150 317.886,301.600 318.200 M258.033 320.144 C 258.125 320.223,258.740 320.408,259.400 320.556 C 260.276 320.752,260.438 320.715,260.000 320.418 C 259.460 320.053,257.632 319.798,258.033 320.144 M261.600 321.200 C 262.968 321.638,264.019 321.638,263.000 321.200 C 262.560 321.011,261.840 320.862,261.400 320.868 C 260.757 320.877,260.796 320.943,261.600 321.200 M292.600 321.200 C 291.581 321.638,292.632 321.638,294.000 321.200 C 294.804 320.943,294.843 320.877,294.200 320.868 C 293.760 320.862,293.040 321.011,292.600 321.200 M264.033 321.744 C 264.125 321.824,265.010 321.996,266.000 322.127 C 267.202 322.286,267.534 322.247,267.000 322.010 C 266.236 321.672,263.686 321.443,264.033 321.744 M268.833 322.544 C 268.925 322.624,271.610 322.778,274.800 322.887 C 278.192 323.002,279.687 322.959,278.400 322.782 C 276.151 322.472,268.532 322.283,268.833 322.544 M282.300 322.693 C 283.235 322.777,284.765 322.777,285.700 322.693 C 286.635 322.609,285.870 322.540,284.000 322.540 C 282.130 322.540,281.365 322.609,282.300 322.693 " stroke="none" fill="#4b9fdc" fill-rule="evenodd"></path><path id="path3" d="M280.300 187.482 C 280.795 187.578,281.605 187.578,282.100 187.482 C 282.595 187.387,282.190 187.309,281.200 187.309 C 280.210 187.309,279.805 187.387,280.300 187.482 M127.900 213.100 C 133.015 213.163,141.385 213.163,146.500 213.100 C 151.615 213.036,147.430 212.985,137.200 212.985 C 126.970 212.985,122.785 213.036,127.900 213.100 M193.100 213.100 C 198.215 213.163,206.585 213.163,211.700 213.100 C 216.815 213.036,212.630 212.985,202.400 212.985 C 192.170 212.985,187.985 213.036,193.100 213.100 M156.194 267.000 C 156.194 296.480,156.242 308.481,156.300 293.669 C 156.358 278.857,156.358 254.737,156.300 240.069 C 156.242 225.401,156.194 237.520,156.194 267.000 M183.394 267.000 C 183.394 296.480,183.442 308.481,183.500 293.669 C 183.558 278.857,183.558 254.737,183.500 240.069 C 183.442 225.401,183.394 237.520,183.394 267.000 M288.600 216.000 C 289.459 216.880,290.252 217.600,290.362 217.600 C 290.472 217.600,289.859 216.880,289.000 216.000 C 288.141 215.120,287.348 214.400,287.238 214.400 C 287.128 214.400,287.741 215.120,288.600 216.000 M266.400 230.525 C 266.400 230.594,266.985 231.179,267.700 231.825 L 269.000 233.000 267.825 231.700 C 266.730 230.488,266.400 230.216,266.400 230.525 M295.334 284.800 C 295.334 286.450,295.405 287.125,295.491 286.300 C 295.578 285.475,295.578 284.125,295.491 283.300 C 295.405 282.475,295.334 283.150,295.334 284.800 M237.200 307.400 C 238.395 308.610,239.463 309.600,239.573 309.600 C 239.683 309.600,238.795 308.610,237.600 307.400 C 236.405 306.190,235.337 305.200,235.227 305.200 C 235.117 305.200,236.005 306.190,237.200 307.400 M313.200 310.200 C 312.228 311.190,311.523 312.000,311.633 312.000 C 311.743 312.000,312.628 311.190,313.600 310.200 C 314.572 309.210,315.277 308.400,315.167 308.400 C 315.057 308.400,314.172 309.210,313.200 310.200 M163.325 321.099 C 167.024 321.166,172.964 321.165,176.525 321.099 C 180.086 321.033,177.060 320.979,169.800 320.979 C 162.540 320.979,159.626 321.033,163.325 321.099 M277.700 322.687 C 278.305 322.778,279.295 322.778,279.900 322.687 C 280.505 322.595,280.010 322.520,278.800 322.520 C 277.590 322.520,277.095 322.595,277.700 322.687 " stroke="none" fill="#74b4e4" fill-rule="evenodd"></path><path id="path4" d="M270.400 187.560 C 269.410 187.692,271.930 187.800,276.000 187.800 C 280.276 187.800,282.471 187.690,281.200 187.540 C 278.522 187.223,272.852 187.233,270.400 187.560 M265.400 188.400 C 264.896 188.617,264.822 188.744,265.200 188.744 C 265.530 188.744,266.160 188.589,266.600 188.400 C 267.104 188.183,267.178 188.056,266.800 188.056 C 266.470 188.056,265.840 188.211,265.400 188.400 M286.033 188.147 C 286.125 188.228,286.920 188.404,287.800 188.538 C 288.915 188.707,289.158 188.671,288.600 188.419 C 287.832 188.071,285.690 187.844,286.033 188.147 M118.880 189.280 C 118.552 189.608,118.425 191.223,118.480 194.380 L 118.561 199.000 118.780 194.200 L 119.000 189.400 129.800 189.190 L 140.600 188.980 129.980 188.890 C 122.150 188.824,119.234 188.926,118.880 189.280 M217.095 189.098 C 221.479 189.277,221.248 188.549,221.112 201.759 C 221.051 207.790,221.135 212.641,221.300 212.539 C 221.749 212.261,221.664 191.021,221.210 189.826 C 220.828 188.823,220.742 188.802,217.310 188.881 L 213.800 188.963 217.095 189.098 M296.833 191.349 C 297.245 191.717,299.600 192.800,299.600 192.621 C 299.600 192.390,297.382 191.200,296.953 191.200 C 296.796 191.200,296.742 191.267,296.833 191.349 M300.000 192.924 C 300.000 193.017,300.765 193.598,301.700 194.215 C 302.635 194.832,303.189 195.080,302.931 194.768 C 302.434 194.167,300.000 192.636,300.000 192.924 M303.600 195.325 C 303.600 195.394,304.185 195.979,304.900 196.625 L 306.200 197.800 305.025 196.500 C 303.930 195.288,303.600 195.016,303.600 195.325 M246.060 199.011 C 244.948 200.227,243.655 201.802,243.185 202.511 C 242.556 203.460,242.683 203.378,243.665 202.200 C 244.399 201.320,245.789 199.745,246.754 198.700 C 247.720 197.655,248.413 196.800,248.295 196.800 C 248.177 196.800,247.171 197.795,246.060 199.011 M308.062 199.555 C 309.018 200.740,310.309 202.270,310.932 202.955 L 312.063 204.200 311.250 203.000 C 310.802 202.340,309.511 200.810,308.380 199.600 L 306.323 197.400 308.062 199.555 M241.400 205.200 C 241.059 205.860,240.869 206.400,240.979 206.400 C 241.089 206.400,241.459 205.860,241.800 205.200 C 242.141 204.540,242.331 204.000,242.221 204.000 C 242.111 204.000,241.741 204.540,241.400 205.200 M312.284 204.800 C 313.124 206.153,314.400 207.683,314.400 207.339 C 314.400 207.136,313.840 206.347,313.156 205.585 C 312.471 204.823,312.079 204.470,312.284 204.800 M271.800 211.600 C 271.296 211.817,271.222 211.944,271.600 211.944 C 271.930 211.944,272.560 211.789,273.000 211.600 C 273.504 211.383,273.578 211.256,273.200 211.256 C 272.870 211.256,272.240 211.411,271.800 211.600 M280.800 211.600 C 282.168 212.038,283.219 212.038,282.200 211.600 C 281.760 211.411,281.040 211.262,280.600 211.268 C 279.957 211.277,279.996 211.343,280.800 211.600 M306.093 214.565 C 302.611 216.928,301.040 218.137,302.400 217.406 C 304.907 216.059,310.789 211.853,309.924 212.025 C 309.856 212.038,308.132 213.181,306.093 214.565 M155.900 213.230 C 156.295 213.649,156.400 225.013,156.400 267.280 C 156.400 296.716,156.535 320.800,156.700 320.800 C 157.351 320.800,156.653 213.083,156.000 212.883 C 155.516 212.735,155.496 212.802,155.900 213.230 M267.267 214.300 L 265.765 215.800 267.182 214.601 C 267.962 213.942,268.771 213.267,268.980 213.101 C 269.189 212.935,269.227 212.800,269.065 212.800 C 268.902 212.800,268.093 213.475,267.267 214.300 M288.800 215.800 C 289.546 216.570,290.247 217.200,290.357 217.200 C 290.467 217.200,289.946 216.570,289.200 215.800 C 288.454 215.030,287.753 214.400,287.643 214.400 C 287.533 214.400,288.054 215.030,288.800 215.800 M237.057 217.500 C 236.728 219.488,236.773 227.789,237.123 229.758 C 237.275 230.615,237.400 227.870,237.400 223.658 C 237.400 215.228,237.408 215.374,237.057 217.500 M291.140 218.716 C 291.633 219.409,292.244 220.104,292.497 220.260 C 292.750 220.417,292.554 219.977,292.060 219.284 C 291.567 218.591,290.956 217.896,290.703 217.740 C 290.450 217.583,290.646 218.023,291.140 218.716 M263.728 222.800 C 263.728 224.230,263.801 224.815,263.889 224.100 C 263.978 223.385,263.978 222.215,263.889 221.500 C 263.801 220.785,263.728 221.370,263.728 222.800 M293.362 221.500 C 294.297 222.604,294.720 222.613,296.000 221.558 L 297.000 220.733 295.716 221.443 C 294.475 222.130,294.402 222.127,293.516 221.377 L 292.600 220.600 293.362 221.500 M265.479 229.518 C 265.872 230.243,266.727 231.323,267.379 231.918 L 268.564 233.000 267.382 231.591 C 266.732 230.815,265.877 229.735,265.483 229.191 C 264.792 228.237,264.792 228.249,265.479 229.518 M269.069 233.232 C 269.566 233.833,272.000 235.364,272.000 235.076 C 272.000 234.983,271.235 234.402,270.300 233.785 C 269.365 233.168,268.811 232.920,269.069 233.232 M241.400 242.800 C 241.741 243.460,242.111 244.000,242.221 244.000 C 242.331 244.000,242.141 243.460,241.800 242.800 C 241.459 242.140,241.089 241.600,240.979 241.600 C 240.869 241.600,241.059 242.140,241.400 242.800 M243.930 246.700 C 244.361 247.305,245.128 248.160,245.634 248.600 C 246.140 249.040,245.851 248.545,244.992 247.500 C 243.273 245.408,242.703 244.979,243.930 246.700 M301.200 249.220 C 302.587 250.161,303.378 250.435,302.400 249.636 C 301.850 249.186,301.220 248.817,301.000 248.815 C 300.780 248.813,300.870 248.996,301.200 249.220 M249.400 252.365 C 250.538 253.605,252.800 255.427,252.800 255.104 C 252.800 255.021,251.765 254.076,250.500 253.005 C 249.023 251.754,248.629 251.525,249.400 252.365 M308.000 253.588 C 312.643 257.570,314.007 258.945,316.055 261.707 C 317.345 263.446,318.398 264.719,318.396 264.535 C 318.381 263.195,311.472 255.700,308.329 253.613 C 307.044 252.760,307.033 252.759,308.000 253.588 M256.800 257.779 C 256.800 257.889,257.340 258.259,258.000 258.600 C 258.660 258.941,259.200 259.131,259.200 259.021 C 259.200 258.911,258.660 258.541,258.000 258.200 C 257.340 257.859,256.800 257.669,256.800 257.779 M285.200 271.379 C 285.200 271.489,285.740 271.859,286.400 272.200 C 287.060 272.541,287.600 272.731,287.600 272.621 C 287.600 272.511,287.060 272.141,286.400 271.800 C 285.740 271.459,285.200 271.269,285.200 271.379 M288.000 272.894 C 288.110 273.013,289.100 273.787,290.200 274.612 C 291.378 275.495,291.840 275.719,291.324 275.156 C 290.842 274.630,289.852 273.857,289.124 273.438 C 288.396 273.019,287.890 272.774,288.000 272.894 M321.656 274.000 C 321.656 274.330,321.811 274.960,322.000 275.400 C 322.217 275.904,322.344 275.978,322.344 275.600 C 322.344 275.270,322.189 274.640,322.000 274.200 C 321.783 273.696,321.656 273.622,321.656 274.000 M322.470 278.200 C 322.457 278.640,322.595 279.720,322.777 280.600 C 323.055 281.945,323.108 282.009,323.107 281.000 C 323.105 279.599,322.508 276.970,322.470 278.200 M295.400 284.800 C 295.400 286.984,295.522 288.462,295.672 288.085 C 295.821 287.708,295.944 286.230,295.944 284.800 C 295.944 283.370,295.821 281.892,295.672 281.515 C 295.522 281.138,295.400 282.616,295.400 284.800 M245.600 284.836 C 244.936 285.379,244.869 285.515,245.400 285.240 C 246.705 284.566,247.428 284.012,247.000 284.015 C 246.780 284.017,246.150 284.386,245.600 284.836 M243.100 286.229 C 241.605 287.040,241.696 287.378,243.200 286.600 C 243.860 286.259,244.400 285.894,244.400 285.790 C 244.400 285.532,244.357 285.547,243.100 286.229 M256.609 289.629 C 258.364 291.405,260.340 293.246,261.000 293.721 C 261.660 294.195,260.310 292.744,258.000 290.496 C 252.993 285.623,252.104 285.069,256.609 289.629 M322.860 287.650 C 322.827 288.228,322.711 289.308,322.601 290.050 L 322.403 291.400 322.824 290.057 C 323.055 289.319,323.172 288.239,323.082 287.657 L 322.920 286.600 322.860 287.650 M240.300 287.829 C 238.805 288.640,238.896 288.978,240.400 288.200 C 241.060 287.859,241.600 287.494,241.600 287.390 C 241.600 287.132,241.557 287.147,240.300 287.829 M237.500 289.429 C 236.005 290.240,236.096 290.578,237.600 289.800 C 238.260 289.459,238.800 289.094,238.800 288.990 C 238.800 288.732,238.757 288.747,237.500 289.429 M294.360 290.475 C 294.102 290.957,293.067 292.262,292.060 293.375 L 290.229 295.400 292.147 293.600 C 293.834 292.017,295.572 289.600,295.024 289.600 C 294.916 289.600,294.617 289.994,294.360 290.475 M231.300 293.026 C 230.365 293.587,229.600 294.140,229.600 294.255 C 229.600 294.471,232.299 292.938,232.980 292.336 C 233.667 291.728,233.027 291.991,231.300 293.026 M230.488 298.386 C 230.990 299.259,231.906 300.564,232.524 301.286 C 233.142 302.009,232.801 301.295,231.765 299.700 C 229.726 296.559,229.020 295.833,230.488 298.386 M271.000 298.000 C 271.440 298.189,272.160 298.338,272.600 298.332 C 273.243 298.323,273.204 298.257,272.400 298.000 C 271.032 297.562,269.981 297.562,271.000 298.000 M282.200 298.000 C 281.696 298.217,281.622 298.344,282.000 298.344 C 282.330 298.344,282.960 298.189,283.400 298.000 C 283.904 297.783,283.978 297.656,283.600 297.656 C 283.270 297.656,282.640 297.811,282.200 298.000 M234.319 303.800 C 235.154 305.019,240.334 310.149,241.806 311.216 C 242.250 311.537,241.583 310.847,240.323 309.683 C 239.064 308.519,237.013 306.449,235.766 305.083 C 234.518 303.717,233.867 303.140,234.319 303.800 M316.985 305.300 C 316.351 306.261,316.166 306.752,316.558 306.429 C 317.218 305.887,318.596 303.600,318.263 303.600 C 318.177 303.600,317.602 304.365,316.985 305.300 M312.989 310.100 L 310.200 313.000 313.100 310.211 C 315.794 307.620,316.183 307.200,315.889 307.200 C 315.828 307.200,314.523 308.505,312.989 310.100 M307.887 314.168 C 305.400 315.890,304.979 316.384,307.000 315.209 C 308.451 314.366,310.452 312.768,309.989 312.822 C 309.885 312.834,308.939 313.440,307.887 314.168 M246.400 314.364 C 246.950 314.814,247.580 315.183,247.800 315.185 C 248.228 315.188,247.505 314.634,246.200 313.960 C 245.669 313.685,245.736 313.821,246.400 314.364 M263.400 321.200 C 263.840 321.389,264.560 321.538,265.000 321.532 C 265.643 321.523,265.604 321.457,264.800 321.200 C 263.432 320.762,262.381 320.762,263.400 321.200 M290.800 321.200 C 289.996 321.457,289.957 321.523,290.600 321.532 C 291.040 321.538,291.760 321.389,292.200 321.200 C 293.219 320.762,292.168 320.762,290.800 321.200 M268.200 321.985 C 269.422 322.311,272.670 322.520,272.367 322.253 C 272.275 322.172,271.030 322.007,269.600 321.885 C 267.962 321.746,267.444 321.782,268.200 321.985 M285.800 322.000 L 284.200 322.286 285.600 322.303 C 286.370 322.313,287.450 322.176,288.000 322.000 C 289.285 321.588,288.099 321.588,285.800 322.000 " stroke="none" fill="#84bce4" fill-rule="evenodd"></path></g></svg>