<svg id="svg" version="1.1" width="400" height="400" viewBox="0 0 400 400" xmlns="http://www.w3.org/2000/svg" xmlns:xlink="http://www.w3.org/1999/xlink" ><g id="svgg"><path id="path0" d="M112.400 74.607 C 112.400 74.874,114.929 79.262,130.381 105.800 C 137.042 117.240,146.989 134.340,152.486 143.800 C 157.984 153.260,163.798 163.250,165.407 166.000 C 167.017 168.750,172.774 178.650,178.202 188.000 C 183.630 197.350,189.285 207.070,190.769 209.600 C 192.253 212.130,194.892 216.671,196.634 219.690 C 198.375 222.710,199.890 225.179,200.000 225.178 C 200.110 225.178,201.721 222.527,203.579 219.288 C 206.866 213.561,211.931 204.772,224.262 183.400 C 231.427 170.980,240.854 154.640,248.608 141.200 C 255.989 128.405,265.526 111.875,272.724 99.400 C 283.981 79.893,286.410 75.639,286.646 75.023 C 286.862 74.463,284.179 74.400,260.005 74.400 C 233.462 74.400,233.122 74.410,232.916 75.200 C 232.801 75.640,232.450 76.000,232.136 76.000 C 231.814 76.000,231.616 76.305,231.682 76.700 C 231.769 77.215,231.562 77.375,230.900 77.305 C 230.405 77.252,230.000 77.398,230.000 77.628 C 230.000 77.859,230.161 77.948,230.358 77.826 C 231.086 77.376,231.093 78.681,230.367 79.625 C 229.955 80.161,229.614 80.825,229.609 81.100 C 229.604 81.375,229.462 81.600,229.294 81.600 C 229.126 81.600,228.682 82.275,228.306 83.100 C 227.620 84.609,226.372 86.828,226.000 87.200 C 225.578 87.622,224.770 89.046,224.355 90.100 C 224.117 90.705,223.659 91.200,223.337 91.200 C 223.016 91.200,222.857 91.368,222.983 91.573 C 223.110 91.778,222.853 92.543,222.412 93.273 C 221.971 94.003,221.438 94.990,221.227 95.468 C 221.017 95.945,220.521 96.516,220.126 96.738 C 219.730 96.959,219.523 97.256,219.665 97.398 C 219.807 97.540,219.706 98.049,219.440 98.528 C 218.090 100.964,217.080 102.400,216.718 102.400 C 216.496 102.400,216.413 102.657,216.533 102.971 C 216.654 103.285,216.489 103.760,216.167 104.028 C 215.844 104.295,215.670 104.603,215.779 104.712 C 215.887 104.821,215.622 105.408,215.188 106.017 C 214.755 106.625,214.400 107.321,214.400 107.562 C 214.400 107.803,214.122 108.000,213.782 108.000 C 213.416 108.000,213.213 108.285,213.282 108.700 C 213.369 109.215,213.162 109.375,212.500 109.305 C 212.005 109.252,211.600 109.398,211.600 109.628 C 211.600 109.859,211.761 109.948,211.958 109.826 C 212.686 109.376,212.693 110.681,211.967 111.625 C 211.555 112.161,211.214 112.825,211.209 113.100 C 211.204 113.375,211.062 113.600,210.894 113.600 C 210.726 113.600,210.282 114.275,209.906 115.100 C 209.220 116.609,207.972 118.828,207.600 119.200 C 207.178 119.622,206.370 121.046,205.955 122.100 C 205.717 122.705,205.259 123.200,204.937 123.200 C 204.616 123.200,204.457 123.368,204.583 123.573 C 204.710 123.778,204.453 124.543,204.012 125.273 C 203.571 126.003,203.030 127.010,202.811 127.510 C 202.592 128.011,202.136 128.526,201.799 128.656 C 201.462 128.785,201.218 129.096,201.257 129.346 C 201.511 130.963,199.819 132.670,199.320 131.300 C 199.180 130.915,198.547 129.835,197.913 128.900 C 197.280 127.965,196.888 127.200,197.043 127.200 C 197.197 127.200,197.026 126.870,196.661 126.468 C 196.297 126.065,196.123 125.611,196.275 125.458 C 196.427 125.306,196.163 124.909,195.688 124.577 C 195.213 124.244,194.513 123.303,194.133 122.486 C 193.753 121.669,193.342 120.910,193.221 120.800 C 193.099 120.690,192.758 120.170,192.462 119.645 C 192.167 119.120,191.578 118.073,191.155 117.319 C 190.731 116.565,190.489 115.780,190.616 115.574 C 190.743 115.368,190.631 115.200,190.368 115.200 C 189.703 115.200,188.847 113.943,189.086 113.319 C 189.195 113.036,189.445 112.904,189.642 113.026 C 189.839 113.148,190.000 113.059,190.000 112.828 C 190.000 112.598,189.595 112.452,189.100 112.505 C 188.461 112.572,188.231 112.410,188.307 111.946 C 188.366 111.586,188.138 111.185,187.801 111.056 C 187.464 110.926,187.011 110.411,186.795 109.910 C 186.392 108.976,185.556 107.556,185.200 107.200 C 185.090 107.090,184.758 106.570,184.462 106.045 C 184.167 105.520,183.578 104.473,183.155 103.719 C 182.731 102.965,182.489 102.180,182.616 101.974 C 182.743 101.768,182.587 101.600,182.269 101.600 C 181.647 101.600,180.169 98.925,180.335 98.100 C 180.390 97.825,180.279 97.600,180.089 97.600 C 179.700 97.600,177.600 94.531,177.600 93.964 C 177.600 93.764,177.441 93.600,177.247 93.600 C 177.052 93.600,176.790 93.285,176.664 92.900 C 176.538 92.515,175.974 91.424,175.409 90.475 C 174.845 89.526,174.488 88.581,174.616 88.375 C 174.743 88.169,174.587 88.000,174.269 88.000 C 173.647 88.000,172.169 85.325,172.335 84.500 C 172.390 84.225,172.197 84.000,171.905 84.000 C 171.614 84.000,171.162 83.505,170.902 82.900 C 170.642 82.295,170.198 81.443,169.915 81.007 C 169.632 80.570,168.896 79.445,168.281 78.507 C 167.665 77.568,167.288 76.800,167.443 76.800 C 167.597 76.800,167.408 76.451,167.023 76.025 C 166.637 75.599,166.437 75.064,166.578 74.836 C 166.753 74.552,158.288 74.417,139.617 74.406 C 124.648 74.397,112.400 74.488,112.400 74.607 " stroke="none" fill="#344c5c" fill-rule="evenodd"></path><path id="path1" d="M53.672 73.713 C 53.402 74.039,53.382 74.442,53.617 74.813 C 53.821 75.136,53.991 75.731,53.994 76.136 C 53.997 76.541,54.349 77.171,54.774 77.536 C 55.696 78.326,57.200 80.980,57.200 81.816 C 57.200 82.141,57.740 82.972,58.400 83.663 C 59.060 84.354,59.604 85.117,59.609 85.359 C 59.614 85.602,59.970 86.250,60.400 86.800 C 60.830 87.350,61.186 88.033,61.191 88.317 C 61.196 88.601,61.560 89.220,62.000 89.692 C 62.440 90.164,62.800 90.893,62.800 91.311 C 62.800 91.730,63.149 92.371,63.574 92.736 C 64.496 93.526,66.000 96.180,66.000 97.016 C 66.000 97.341,66.540 98.172,67.200 98.863 C 67.860 99.554,68.400 100.499,68.400 100.963 C 68.400 101.428,68.760 102.032,69.200 102.307 C 69.640 102.582,70.000 103.075,70.000 103.403 C 70.000 103.732,70.360 104.360,70.800 104.800 C 71.240 105.240,71.600 105.984,71.600 106.453 C 71.600 106.922,71.940 107.601,72.355 107.961 C 73.280 108.763,74.800 111.408,74.800 112.216 C 74.800 112.541,75.340 113.372,76.000 114.063 C 76.660 114.754,77.200 115.742,77.200 116.259 C 77.200 116.777,77.384 117.200,77.609 117.200 C 78.185 117.200,80.400 120.796,80.400 121.731 C 80.400 122.158,80.740 122.801,81.155 123.161 C 82.080 123.963,83.600 126.608,83.600 127.416 C 83.600 127.741,84.140 128.572,84.800 129.263 C 85.460 129.954,86.000 130.868,86.000 131.295 C 86.000 131.722,86.349 132.371,86.774 132.736 C 87.696 133.526,89.200 136.180,89.200 137.016 C 89.200 137.341,89.740 138.172,90.400 138.863 C 91.060 139.554,91.604 140.317,91.609 140.559 C 91.614 140.802,91.970 141.450,92.400 142.000 C 92.830 142.550,93.186 143.233,93.191 143.517 C 93.196 143.801,93.560 144.420,94.000 144.892 C 94.440 145.364,94.800 146.093,94.800 146.511 C 94.800 146.930,95.149 147.571,95.574 147.936 C 96.496 148.726,98.000 151.380,98.000 152.216 C 98.000 152.541,98.540 153.372,99.200 154.063 C 99.860 154.754,100.400 155.699,100.400 156.163 C 100.400 156.628,100.760 157.232,101.200 157.507 C 101.640 157.782,102.000 158.275,102.000 158.603 C 102.000 158.932,102.360 159.560,102.800 160.000 C 103.240 160.440,103.600 161.184,103.600 161.653 C 103.600 162.122,103.940 162.801,104.355 163.161 C 105.280 163.963,106.800 166.608,106.800 167.416 C 106.800 167.741,107.340 168.572,108.000 169.263 C 108.660 169.954,109.200 170.942,109.200 171.459 C 109.200 171.977,109.384 172.400,109.609 172.400 C 110.185 172.400,112.400 175.996,112.400 176.931 C 112.400 177.358,112.740 178.001,113.155 178.361 C 114.080 179.163,115.600 181.808,115.600 182.616 C 115.600 182.941,116.140 183.772,116.800 184.463 C 117.460 185.154,118.000 186.068,118.000 186.495 C 118.000 186.922,118.349 187.571,118.774 187.936 C 119.696 188.726,121.200 191.380,121.200 192.216 C 121.200 192.541,121.740 193.372,122.400 194.063 C 123.060 194.754,123.604 195.517,123.609 195.759 C 123.614 196.002,123.970 196.650,124.400 197.200 C 124.830 197.750,125.186 198.433,125.191 198.717 C 125.196 199.001,125.560 199.620,126.000 200.092 C 126.440 200.564,126.800 201.293,126.800 201.711 C 126.800 202.130,127.149 202.771,127.574 203.136 C 128.496 203.926,130.000 206.580,130.000 207.416 C 130.000 207.741,130.540 208.572,131.200 209.263 C 131.860 209.954,132.400 210.899,132.400 211.363 C 132.400 211.828,132.760 212.432,133.200 212.707 C 133.640 212.982,134.000 213.475,134.000 213.803 C 134.000 214.132,134.360 214.760,134.800 215.200 C 135.240 215.640,135.600 216.384,135.600 216.853 C 135.600 217.322,135.940 218.001,136.355 218.361 C 137.280 219.163,138.800 221.808,138.800 222.616 C 138.800 222.941,139.340 223.772,140.000 224.463 C 140.660 225.154,141.200 226.142,141.200 226.659 C 141.200 227.177,141.384 227.600,141.609 227.600 C 142.185 227.600,144.400 231.196,144.400 232.131 C 144.400 232.558,144.740 233.201,145.155 233.561 C 146.080 234.363,147.600 237.008,147.600 237.816 C 147.600 238.141,148.140 238.972,148.800 239.663 C 149.460 240.354,150.000 241.268,150.000 241.695 C 150.000 242.122,150.349 242.771,150.774 243.136 C 151.696 243.926,153.200 246.580,153.200 247.416 C 153.200 247.741,153.740 248.572,154.400 249.263 C 155.060 249.954,155.604 250.717,155.609 250.959 C 155.614 251.202,155.970 251.850,156.400 252.400 C 156.830 252.950,157.186 253.633,157.191 253.917 C 157.196 254.201,157.560 254.820,158.000 255.292 C 158.440 255.764,158.800 256.493,158.800 256.911 C 158.800 257.330,159.149 257.971,159.574 258.336 C 160.496 259.126,162.000 261.780,162.000 262.616 C 162.000 262.941,162.540 263.772,163.200 264.463 C 163.860 265.154,164.400 266.099,164.400 266.563 C 164.400 267.028,164.760 267.632,165.200 267.907 C 165.640 268.182,166.000 268.675,166.000 269.003 C 166.000 269.332,166.360 269.960,166.800 270.400 C 167.240 270.840,167.600 271.584,167.600 272.053 C 167.600 272.522,167.940 273.201,168.355 273.561 C 169.280 274.363,170.800 277.008,170.800 277.816 C 170.800 278.141,171.340 278.972,172.000 279.663 C 172.660 280.354,173.200 281.342,173.200 281.859 C 173.200 282.377,173.384 282.800,173.609 282.800 C 174.185 282.800,176.400 286.396,176.400 287.331 C 176.400 287.758,176.740 288.401,177.155 288.761 C 178.080 289.563,179.600 292.208,179.600 293.016 C 179.600 293.341,180.140 294.172,180.800 294.863 C 181.460 295.554,182.000 296.542,182.000 297.059 C 182.000 297.577,182.184 298.000,182.409 298.000 C 182.968 298.000,185.200 301.584,185.200 302.482 C 185.200 302.881,185.740 303.772,186.400 304.463 C 187.060 305.154,187.604 305.917,187.609 306.159 C 187.614 306.402,187.970 307.050,188.400 307.600 C 188.830 308.150,189.186 308.833,189.191 309.117 C 189.196 309.401,189.560 310.020,190.000 310.492 C 190.440 310.964,190.800 311.693,190.800 312.111 C 190.800 312.530,191.149 313.171,191.574 313.536 C 192.496 314.326,194.000 316.980,194.000 317.816 C 194.000 318.141,194.540 318.972,195.200 319.663 C 195.860 320.354,196.400 321.299,196.400 321.763 C 196.400 322.228,196.760 322.832,197.200 323.107 C 197.640 323.382,198.000 323.875,198.000 324.203 C 198.000 324.876,199.388 326.400,200.000 326.400 C 200.612 326.400,202.000 324.876,202.000 324.203 C 202.000 323.875,202.360 323.382,202.800 323.107 C 203.240 322.832,203.600 322.228,203.600 321.763 C 203.600 321.299,204.140 320.354,204.800 319.663 C 205.460 318.972,206.000 318.141,206.000 317.816 C 206.000 316.980,207.504 314.326,208.426 313.536 C 208.851 313.171,209.200 312.530,209.200 312.111 C 209.200 311.693,209.560 310.964,210.000 310.492 C 210.440 310.020,210.804 309.401,210.809 309.117 C 210.814 308.833,211.170 308.150,211.600 307.600 C 212.030 307.050,212.386 306.402,212.391 306.159 C 212.396 305.917,212.940 305.154,213.600 304.463 C 214.260 303.772,214.800 302.881,214.800 302.482 C 214.800 301.584,217.032 298.000,217.591 298.000 C 217.816 298.000,218.000 297.577,218.000 297.059 C 218.000 296.542,218.540 295.554,219.200 294.863 C 219.860 294.172,220.400 293.341,220.400 293.016 C 220.400 292.208,221.920 289.563,222.845 288.761 C 223.260 288.401,223.600 287.758,223.600 287.331 C 223.600 286.396,225.815 282.800,226.391 282.800 C 226.616 282.800,226.800 282.377,226.800 281.859 C 226.800 281.342,227.340 280.354,228.000 279.663 C 228.660 278.972,229.200 278.141,229.200 277.816 C 229.200 277.008,230.720 274.363,231.645 273.561 C 232.060 273.201,232.400 272.522,232.400 272.053 C 232.400 271.584,232.760 270.840,233.200 270.400 C 233.640 269.960,234.000 269.332,234.000 269.003 C 234.000 268.675,234.360 268.182,234.800 267.907 C 235.240 267.632,235.600 267.028,235.600 266.563 C 235.600 266.099,236.140 265.154,236.800 264.463 C 237.460 263.772,238.000 262.941,238.000 262.616 C 238.000 261.780,239.504 259.126,240.426 258.336 C 240.851 257.971,241.200 257.330,241.200 256.911 C 241.200 256.493,241.560 255.764,242.000 255.292 C 242.440 254.820,242.804 254.201,242.809 253.917 C 242.814 253.633,243.170 252.950,243.600 252.400 C 244.030 251.850,244.386 251.202,244.391 250.959 C 244.396 250.717,244.940 249.954,245.600 249.263 C 246.260 248.572,246.800 247.741,246.800 247.416 C 246.800 246.580,248.304 243.926,249.226 243.136 C 249.651 242.771,250.000 242.122,250.000 241.695 C 250.000 241.268,250.540 240.354,251.200 239.663 C 251.860 238.972,252.400 238.141,252.400 237.816 C 252.400 237.008,253.920 234.363,254.845 233.561 C 255.260 233.201,255.600 232.558,255.600 232.131 C 255.600 231.196,257.815 227.600,258.391 227.600 C 258.616 227.600,258.800 227.177,258.800 226.659 C 258.800 226.142,259.340 225.154,260.000 224.463 C 260.660 223.772,261.200 222.941,261.200 222.616 C 261.200 221.808,262.720 219.163,263.645 218.361 C 264.060 218.001,264.400 217.322,264.400 216.853 C 264.400 216.384,264.760 215.640,265.200 215.200 C 265.640 214.760,266.000 214.132,266.000 213.803 C 266.000 213.475,266.360 212.982,266.800 212.707 C 267.240 212.432,267.600 211.828,267.600 211.363 C 267.600 210.899,268.140 209.954,268.800 209.263 C 269.460 208.572,270.000 207.741,270.000 207.416 C 270.000 206.580,271.504 203.926,272.426 203.136 C 272.851 202.771,273.200 202.130,273.200 201.711 C 273.200 201.293,273.560 200.564,274.000 200.092 C 274.440 199.620,274.804 199.001,274.809 198.717 C 274.814 198.433,275.170 197.750,275.600 197.200 C 276.030 196.650,276.386 196.002,276.391 195.759 C 276.396 195.517,276.940 194.754,277.600 194.063 C 278.260 193.372,278.800 192.541,278.800 192.216 C 278.800 191.380,280.304 188.726,281.226 187.936 C 281.651 187.571,282.000 186.922,282.000 186.495 C 282.000 186.068,282.540 185.154,283.200 184.463 C 283.860 183.772,284.400 182.941,284.400 182.616 C 284.400 181.808,285.920 179.163,286.845 178.361 C 287.260 178.001,287.600 177.358,287.600 176.931 C 287.600 175.996,289.815 172.400,290.391 172.400 C 290.616 172.400,290.800 171.977,290.800 171.459 C 290.800 170.942,291.340 169.954,292.000 169.263 C 292.660 168.572,293.200 167.741,293.200 167.416 C 293.200 166.608,294.720 163.963,295.645 163.161 C 296.060 162.801,296.400 162.122,296.400 161.653 C 296.400 161.184,296.760 160.440,297.200 160.000 C 297.640 159.560,298.000 158.932,298.000 158.603 C 298.000 158.275,298.360 157.782,298.800 157.507 C 299.240 157.232,299.600 156.628,299.600 156.163 C 299.600 155.699,300.140 154.754,300.800 154.063 C 301.460 153.372,302.000 152.541,302.000 152.216 C 302.000 151.380,303.504 148.726,304.426 147.936 C 304.851 147.571,305.200 146.930,305.200 146.511 C 305.200 146.093,305.560 145.364,306.000 144.892 C 306.440 144.420,306.804 143.801,306.809 143.517 C 306.814 143.233,307.170 142.550,307.600 142.000 C 308.030 141.450,308.386 140.802,308.391 140.559 C 308.396 140.317,308.940 139.554,309.600 138.863 C 310.260 138.172,310.800 137.341,310.800 137.016 C 310.800 136.180,312.304 133.526,313.226 132.736 C 313.651 132.371,314.000 131.722,314.000 131.295 C 314.000 130.868,314.540 129.954,315.200 129.263 C 315.860 128.572,316.400 127.741,316.400 127.416 C 316.400 126.608,317.920 123.963,318.845 123.161 C 319.260 122.801,319.600 122.158,319.600 121.731 C 319.600 120.796,321.815 117.200,322.391 117.200 C 322.616 117.200,322.800 116.777,322.800 116.259 C 322.800 115.742,323.340 114.754,324.000 114.063 C 324.660 113.372,325.200 112.541,325.200 112.216 C 325.200 111.408,326.720 108.763,327.645 107.961 C 328.060 107.601,328.400 106.922,328.400 106.453 C 328.400 105.984,328.760 105.240,329.200 104.800 C 329.640 104.360,330.000 103.732,330.000 103.403 C 330.000 103.075,330.360 102.582,330.800 102.307 C 331.240 102.032,331.600 101.428,331.600 100.963 C 331.600 100.499,332.140 99.554,332.800 98.863 C 333.460 98.172,334.000 97.341,334.000 97.016 C 334.000 96.180,335.504 93.526,336.426 92.736 C 336.851 92.371,337.200 91.730,337.200 91.311 C 337.200 90.893,337.560 90.164,338.000 89.692 C 338.440 89.220,338.804 88.601,338.809 88.317 C 338.814 88.033,339.170 87.350,339.600 86.800 C 340.030 86.250,340.386 85.602,340.391 85.359 C 340.396 85.117,340.940 84.354,341.600 83.663 C 342.260 82.972,342.800 82.141,342.800 81.816 C 342.800 80.980,344.304 78.326,345.226 77.536 C 345.651 77.171,346.003 76.541,346.006 76.136 C 346.009 75.731,346.179 75.136,346.383 74.813 C 347.394 73.215,347.119 73.199,317.251 73.214 L 288.600 73.228 287.500 75.514 C 286.895 76.771,285.924 78.610,285.343 79.600 C 284.762 80.590,283.952 81.985,283.543 82.700 C 283.135 83.415,282.440 84.630,282.000 85.400 C 281.560 86.170,280.840 87.430,280.400 88.200 C 279.960 88.970,279.240 90.230,278.800 91.000 C 278.360 91.770,277.621 93.075,277.157 93.900 C 276.694 94.725,276.173 95.580,276.000 95.800 C 275.827 96.020,275.306 96.875,274.843 97.700 C 274.379 98.525,273.640 99.830,273.200 100.600 C 279.983 88.730,255.681 131.259,270.000 106.200 C 269.560 106.970,268.840 108.230,268.400 109.000 C 267.960 109.770,267.240 111.030,266.800 111.800 C 266.360 112.570,265.621 113.875,265.157 114.700 C 264.694 115.525,264.173 116.380,264.000 116.600 C 263.827 116.820,263.306 117.675,262.843 118.500 C 262.379 119.325,261.640 120.630,261.200 121.400 C 260.760 122.170,260.040 123.430,259.600 124.200 C 259.160 124.970,258.440 126.230,258.000 127.000 C 257.560 127.770,256.840 129.030,256.400 129.800 C 255.960 130.570,255.240 131.830,254.800 132.600 C 254.360 133.370,253.621 134.675,253.157 135.500 C 252.694 136.325,252.173 137.180,252.000 137.400 C 251.827 137.620,251.306 138.475,250.843 139.300 C 250.379 140.125,249.640 141.430,249.200 142.200 C 248.760 142.970,248.040 144.230,247.600 145.000 C 254.901 132.223,231.258 173.599,244.400 150.600 C 243.960 151.370,243.240 152.630,242.800 153.400 C 242.360 154.170,241.621 155.475,241.157 156.300 C 240.694 157.125,240.173 157.980,240.000 158.200 C 239.827 158.420,239.306 159.275,238.843 160.100 C 238.379 160.925,237.640 162.230,237.200 163.000 C 236.760 163.770,236.040 165.030,235.600 165.800 C 235.160 166.570,234.440 167.830,234.000 168.600 C 233.560 169.370,232.840 170.630,232.400 171.400 C 231.960 172.170,231.240 173.430,230.800 174.200 C 230.360 174.970,229.621 176.275,229.157 177.100 C 228.694 177.925,228.173 178.780,228.000 179.000 C 227.827 179.220,227.306 180.075,226.843 180.900 C 226.379 181.725,225.640 183.030,225.200 183.800 C 224.760 184.570,224.040 185.830,223.600 186.600 C 223.160 187.370,222.440 188.630,222.000 189.400 C 221.560 190.170,220.840 191.430,220.400 192.200 C 219.960 192.970,219.240 194.230,218.800 195.000 C 218.360 195.770,217.621 197.075,217.157 197.900 C 216.694 198.725,216.173 199.580,216.000 199.800 C 215.827 200.020,215.306 200.875,214.843 201.700 C 214.379 202.525,213.640 203.830,213.200 204.600 C 212.760 205.370,212.040 206.630,211.600 207.400 C 211.160 208.170,210.440 209.430,210.000 210.200 C 209.560 210.970,208.840 212.230,208.400 213.000 C 207.960 213.770,207.240 215.030,206.800 215.800 C 206.360 216.570,205.621 217.875,205.157 218.700 C 204.694 219.525,204.173 220.380,204.000 220.600 C 203.638 221.060,202.135 223.682,201.305 225.300 C 200.995 225.905,200.408 226.400,200.000 226.400 C 199.592 226.400,199.005 225.905,198.695 225.300 C 197.865 223.682,196.362 221.060,196.000 220.600 C 195.827 220.380,195.306 219.525,194.843 218.700 C 194.379 217.875,193.640 216.570,193.200 215.800 C 192.760 215.030,192.021 213.725,191.557 212.900 C 191.094 212.075,190.573 211.220,190.400 211.000 C 190.227 210.780,189.706 209.925,189.243 209.100 C 188.779 208.275,188.040 206.970,187.600 206.200 C 187.160 205.430,186.421 204.125,185.957 203.300 C 185.494 202.475,184.973 201.620,184.800 201.400 C 184.627 201.180,184.106 200.325,183.643 199.500 C 183.179 198.675,182.440 197.370,182.000 196.600 C 181.560 195.830,180.821 194.525,180.357 193.700 C 179.894 192.875,179.373 192.020,179.200 191.800 C 179.027 191.580,178.506 190.725,178.043 189.900 C 177.579 189.075,176.840 187.770,176.400 187.000 C 175.960 186.230,175.240 184.970,174.800 184.200 C 174.360 183.430,173.640 182.170,173.200 181.400 C 172.760 180.630,172.021 179.325,171.557 178.500 C 171.094 177.675,170.573 176.820,170.400 176.600 C 170.227 176.380,169.706 175.525,169.243 174.700 C 168.779 173.875,168.040 172.570,167.600 171.800 C 167.160 171.030,166.421 169.725,165.957 168.900 C 165.494 168.075,164.973 167.220,164.800 167.000 C 164.627 166.780,164.106 165.925,163.643 165.100 C 163.179 164.275,162.440 162.970,162.000 162.200 C 161.560 161.430,160.821 160.125,160.357 159.300 C 159.894 158.475,159.373 157.620,159.200 157.400 C 159.027 157.180,158.506 156.325,158.043 155.500 C 157.579 154.675,156.840 153.370,156.400 152.600 C 155.960 151.830,155.221 150.525,154.757 149.700 C 154.294 148.875,153.773 148.020,153.600 147.800 C 153.427 147.580,152.906 146.725,152.443 145.900 C 151.979 145.075,151.240 143.770,150.800 143.000 C 150.360 142.230,149.640 140.970,149.200 140.200 C 148.760 139.430,148.040 138.170,147.600 137.400 C 147.160 136.630,146.421 135.325,145.957 134.500 C 145.494 133.675,144.973 132.820,144.800 132.600 C 144.627 132.380,144.106 131.525,143.643 130.700 C 143.179 129.875,142.440 128.570,142.000 127.800 C 141.560 127.030,140.821 125.725,140.357 124.900 C 139.894 124.075,139.373 123.220,139.200 123.000 C 139.027 122.780,138.506 121.925,138.043 121.100 C 137.579 120.275,136.840 118.970,136.400 118.200 C 135.960 117.430,135.221 116.125,134.757 115.300 C 134.294 114.475,133.773 113.620,133.600 113.400 C 133.427 113.180,132.906 112.325,132.443 111.500 C 131.979 110.675,131.240 109.370,130.800 108.600 C 130.360 107.830,129.619 106.525,129.153 105.700 C 128.687 104.875,128.006 103.750,127.639 103.200 C 127.272 102.650,126.714 101.660,126.400 101.000 C 126.086 100.340,125.528 99.350,125.161 98.800 C 124.794 98.250,124.113 97.125,123.647 96.300 C 123.181 95.475,122.440 94.170,122.000 93.400 C 121.560 92.630,120.821 91.325,120.357 90.500 C 119.894 89.675,119.373 88.820,119.200 88.600 C 119.027 88.380,118.506 87.525,118.043 86.700 C 117.579 85.875,116.840 84.570,116.400 83.800 C 115.960 83.030,115.219 81.725,114.753 80.900 C 114.287 80.075,113.596 78.950,113.217 78.400 C 112.837 77.850,112.093 76.462,111.563 75.316 L 110.600 73.233 82.349 73.216 C 59.827 73.203,54.012 73.304,53.672 73.713 " stroke="none" fill="#44bc84" fill-rule="evenodd"></path><path id="path2" d="M112.000 74.062 C 112.000 74.908,113.815 78.400,114.255 78.400 C 114.377 78.400,114.009 77.603,113.438 76.629 C 112.867 75.655,112.400 74.755,112.400 74.629 C 112.400 74.503,124.439 74.400,139.154 74.400 L 165.908 74.400 166.629 75.500 C 167.025 76.105,167.276 76.600,167.187 76.600 C 167.097 76.600,167.559 77.413,168.212 78.407 C 170.314 81.603,170.422 81.783,170.902 82.900 C 171.162 83.505,171.606 84.000,171.888 84.000 C 172.558 84.000,172.540 83.873,171.638 82.267 C 171.218 81.520,170.633 80.480,170.338 79.955 C 170.042 79.430,169.710 78.910,169.599 78.800 C 169.489 78.690,169.135 78.090,168.813 77.466 C 168.491 76.842,167.862 75.936,167.414 75.453 C 166.966 74.970,166.600 74.310,166.600 73.987 C 166.600 73.478,162.991 73.386,139.300 73.297 L 112.000 73.194 112.000 74.062 M232.229 74.461 C 231.465 75.994,231.464 76.000,232.153 76.000 C 232.458 76.000,232.801 75.640,232.916 75.200 C 233.121 74.415,286.800 73.852,286.800 74.635 C 286.800 74.764,286.153 76.069,285.361 77.535 C 284.570 79.001,284.296 79.750,284.752 79.200 C 285.209 78.650,285.590 78.020,285.600 77.800 C 285.610 77.580,285.970 76.950,286.400 76.400 C 286.830 75.850,287.186 74.905,287.191 74.300 L 287.200 73.200 260.029 73.200 L 232.859 73.200 232.229 74.461 M230.671 77.100 C 230.454 77.785,229.196 80.004,228.800 80.400 C 228.404 80.796,227.146 83.015,226.929 83.700 C 226.807 84.085,226.548 84.400,226.353 84.400 C 226.159 84.400,226.000 84.760,226.000 85.200 C 226.000 85.640,225.841 86.000,225.647 86.000 C 225.452 86.000,225.193 86.315,225.071 86.700 C 224.775 87.636,223.476 89.766,223.100 89.933 C 222.935 90.007,222.800 90.322,222.800 90.633 C 222.800 91.623,223.904 91.244,224.355 90.100 C 224.770 89.046,225.578 87.622,226.000 87.200 C 226.372 86.828,227.620 84.609,228.306 83.100 C 228.682 82.275,229.126 81.600,229.294 81.600 C 229.462 81.600,229.600 81.403,229.600 81.162 C 229.600 80.921,229.955 80.225,230.388 79.617 C 230.822 79.008,231.048 78.382,230.892 78.225 C 230.735 78.068,230.924 77.762,231.312 77.545 C 231.700 77.328,231.912 76.982,231.785 76.775 C 231.421 76.186,230.914 76.334,230.671 77.100 M115.579 81.000 C 116.287 82.320,117.060 83.580,117.298 83.800 C 117.834 84.296,115.269 79.553,114.702 79.000 C 114.477 78.780,114.871 79.680,115.579 81.000 M282.693 82.100 C 281.287 84.531,280.640 85.863,281.091 85.400 C 281.635 84.840,284.101 80.400,283.867 80.400 C 283.762 80.400,283.234 81.165,282.693 82.100 M118.124 85.400 C 118.462 86.060,119.038 86.960,119.404 87.400 C 119.770 87.840,119.665 87.480,119.170 86.600 C 118.080 84.658,117.264 83.722,118.124 85.400 M172.303 84.630 C 172.176 84.757,172.450 85.567,172.911 86.430 C 173.746 87.996,174.800 88.537,174.800 87.400 C 174.800 87.070,174.664 86.800,174.498 86.800 C 174.331 86.800,173.956 86.260,173.664 85.600 C 173.146 84.430,172.771 84.162,172.303 84.630 M278.788 88.900 C 276.830 92.232,276.460 93.008,277.481 91.634 C 278.430 90.359,280.896 86.000,280.669 86.000 C 280.571 86.000,279.725 87.305,278.788 88.900 M120.009 88.700 C 120.014 88.865,120.385 89.450,120.833 90.000 L 121.648 91.000 121.014 89.700 C 120.411 88.465,119.989 88.045,120.009 88.700 M174.400 88.589 C 174.400 88.693,174.858 89.548,175.418 90.489 C 175.977 91.430,176.538 92.515,176.664 92.900 C 176.790 93.285,177.052 93.600,177.247 93.600 C 177.441 93.600,177.600 93.764,177.600 93.964 C 177.600 94.517,179.696 97.600,180.071 97.600 C 180.483 97.600,180.507 96.514,180.100 96.333 C 179.724 96.166,178.425 94.036,178.129 93.100 C 178.007 92.715,177.748 92.400,177.553 92.400 C 177.359 92.400,177.200 92.216,177.200 91.991 C 177.200 91.395,175.154 88.400,174.747 88.400 C 174.556 88.400,174.400 88.485,174.400 88.589 M121.609 91.500 C 121.614 91.665,121.985 92.250,122.433 92.800 L 123.248 93.800 122.614 92.500 C 122.011 91.265,121.589 90.845,121.609 91.500 M221.871 92.300 C 221.575 93.236,220.276 95.366,219.900 95.533 C 219.394 95.758,219.568 96.877,220.083 96.706 C 220.547 96.551,221.247 95.522,222.578 93.039 C 223.335 91.624,223.337 91.600,222.647 91.600 C 222.342 91.600,221.993 91.915,221.871 92.300 M275.786 94.100 L 275.152 95.400 275.967 94.400 C 276.752 93.437,277.008 92.800,276.610 92.800 C 276.506 92.800,276.135 93.385,275.786 94.100 M124.477 96.334 C 125.730 98.545,127.422 101.061,127.076 100.200 C 126.741 99.364,123.501 94.000,123.331 94.000 C 123.234 94.000,123.749 95.050,124.477 96.334 M273.904 97.282 C 273.357 98.227,272.693 99.450,272.428 100.000 L 271.946 101.000 272.764 100.000 C 273.214 99.450,273.586 98.848,273.591 98.662 C 273.596 98.476,273.980 97.790,274.444 97.139 C 274.908 96.487,275.200 95.866,275.092 95.759 C 274.985 95.652,274.450 96.337,273.904 97.282 M218.249 98.798 C 217.672 99.670,217.200 100.567,217.200 100.791 C 217.200 101.016,217.020 101.200,216.800 101.200 C 216.580 101.200,216.400 101.470,216.400 101.800 C 216.400 103.247,217.462 102.101,219.451 98.507 C 220.329 96.920,219.332 97.162,218.249 98.798 M180.303 98.230 C 180.176 98.357,180.450 99.167,180.911 100.030 C 181.746 101.596,182.800 102.137,182.800 101.000 C 182.800 100.670,182.664 100.400,182.498 100.400 C 182.331 100.400,181.956 99.860,181.664 99.200 C 181.146 98.030,180.771 97.762,180.303 98.230 M127.209 101.100 C 127.214 101.265,127.585 101.850,128.033 102.400 L 128.848 103.400 128.214 102.100 C 127.611 100.865,127.189 100.445,127.209 101.100 M270.693 102.900 C 269.287 105.331,268.640 106.663,269.091 106.200 C 269.635 105.640,272.101 101.200,271.867 101.200 C 271.762 101.200,271.234 101.965,270.693 102.900 M182.400 102.188 C 182.400 102.291,182.743 102.986,183.162 103.733 C 183.582 104.480,184.167 105.520,184.462 106.045 C 184.758 106.570,185.103 107.090,185.229 107.200 C 185.355 107.310,185.582 107.670,185.734 108.000 C 186.853 110.441,188.400 111.968,188.400 110.633 C 188.400 110.285,188.220 110.000,188.000 110.000 C 187.780 110.000,187.600 109.807,187.600 109.572 C 187.600 109.337,187.060 108.359,186.400 107.400 C 185.740 106.441,185.200 105.549,185.200 105.419 C 185.200 104.948,183.085 102.000,182.747 102.000 C 182.556 102.000,182.400 102.085,182.400 102.188 M215.451 103.778 C 213.355 106.977,212.955 108.000,213.800 108.000 C 214.130 108.000,214.400 107.803,214.400 107.562 C 214.400 107.321,214.772 106.601,215.227 105.962 C 215.682 105.323,215.924 104.800,215.765 104.800 C 215.606 104.800,215.786 104.458,216.164 104.040 C 216.554 103.609,216.687 103.177,216.470 103.043 C 216.260 102.913,215.801 103.244,215.451 103.778 M130.077 105.934 C 131.330 108.145,133.022 110.661,132.676 109.800 C 132.341 108.964,129.101 103.600,128.931 103.600 C 128.834 103.600,129.349 104.650,130.077 105.934 M266.788 109.700 C 264.830 113.032,264.460 113.808,265.481 112.434 C 266.430 111.159,268.896 106.800,268.669 106.800 C 268.571 106.800,267.725 108.105,266.788 109.700 M212.271 109.100 C 212.054 109.785,210.796 112.004,210.400 112.400 C 210.004 112.796,208.746 115.015,208.529 115.700 C 208.407 116.085,208.148 116.400,207.953 116.400 C 207.759 116.400,207.600 116.760,207.600 117.200 C 207.600 117.640,207.441 118.000,207.247 118.000 C 207.052 118.000,206.793 118.315,206.671 118.700 C 206.375 119.636,205.076 121.766,204.700 121.933 C 204.535 122.007,204.400 122.322,204.400 122.633 C 204.400 123.623,205.504 123.244,205.955 122.100 C 206.370 121.046,207.178 119.622,207.600 119.200 C 207.972 118.828,209.220 116.609,209.906 115.100 C 210.282 114.275,210.726 113.600,210.894 113.600 C 211.062 113.600,211.200 113.403,211.200 113.162 C 211.200 112.921,211.555 112.225,211.988 111.617 C 212.422 111.008,212.648 110.382,212.492 110.225 C 212.335 110.068,212.524 109.762,212.912 109.545 C 213.300 109.328,213.512 108.982,213.385 108.775 C 213.021 108.186,212.514 108.334,212.271 109.100 M132.809 110.700 C 132.814 110.865,133.185 111.450,133.633 112.000 L 134.448 113.000 133.814 111.700 C 133.211 110.465,132.789 110.045,132.809 110.700 M188.198 112.003 C 188.061 112.224,188.234 112.515,188.582 112.648 C 188.930 112.782,189.183 113.096,189.144 113.346 C 189.024 114.126,189.660 115.200,190.243 115.200 C 191.032 115.200,190.933 114.510,190.000 113.508 C 189.560 113.036,189.200 112.413,189.200 112.125 C 189.200 111.505,188.554 111.427,188.198 112.003 M135.303 114.900 C 138.942 121.219,139.660 122.400,139.857 122.400 C 139.979 122.400,139.680 121.725,139.193 120.900 C 138.706 120.075,137.503 118.005,136.519 116.300 C 135.535 114.595,134.639 113.200,134.527 113.200 C 134.415 113.200,134.765 113.965,135.303 114.900 M263.786 114.900 L 263.152 116.200 263.967 115.200 C 264.752 114.237,265.008 113.600,264.610 113.600 C 264.506 113.600,264.135 114.185,263.786 114.900 M190.400 115.788 C 190.400 115.891,190.743 116.586,191.162 117.333 C 191.582 118.080,192.167 119.120,192.462 119.645 C 192.758 120.170,193.090 120.690,193.201 120.800 C 193.311 120.910,193.663 121.540,193.983 122.200 C 195.077 124.454,196.400 125.549,196.400 124.200 C 196.400 123.870,196.220 123.600,196.000 123.600 C 195.780 123.600,195.600 123.403,195.600 123.162 C 195.600 122.921,195.261 122.246,194.847 121.662 C 193.732 120.088,191.998 117.100,191.736 116.300 C 191.538 115.697,190.400 115.261,190.400 115.788 M261.904 118.082 C 261.357 119.027,260.693 120.250,260.428 120.800 L 259.946 121.800 260.764 120.800 C 261.214 120.250,261.586 119.648,261.591 119.462 C 261.596 119.276,261.980 118.590,262.444 117.939 C 262.908 117.287,263.200 116.666,263.092 116.559 C 262.985 116.452,262.450 117.137,261.904 118.082 M258.693 123.700 C 257.287 126.131,256.640 127.463,257.091 127.000 C 257.635 126.440,260.101 122.000,259.867 122.000 C 259.762 122.000,259.234 122.765,258.693 123.700 M140.009 123.020 C 140.014 123.229,140.370 123.850,140.800 124.400 C 141.230 124.950,141.590 125.580,141.600 125.800 C 141.610 126.020,141.992 126.650,142.450 127.200 C 142.982 127.839,142.819 127.334,141.997 125.800 C 140.648 123.280,139.994 122.365,140.009 123.020 M203.471 124.300 C 203.175 125.236,201.876 127.366,201.500 127.533 C 200.994 127.758,201.168 128.877,201.683 128.706 C 202.147 128.551,202.847 127.522,204.178 125.039 C 204.935 123.624,204.937 123.600,204.247 123.600 C 203.942 123.600,203.593 123.915,203.471 124.300 M196.288 125.445 C 196.129 125.605,196.297 126.065,196.661 126.468 C 197.026 126.870,197.197 127.200,197.043 127.200 C 196.888 127.200,197.280 127.965,197.913 128.900 C 198.547 129.835,199.180 130.915,199.320 131.300 C 199.693 132.326,200.263 132.157,200.928 130.824 C 201.568 129.540,201.379 128.953,200.548 129.643 C 199.989 130.107,198.800 129.284,198.800 128.433 C 198.800 128.200,198.533 127.692,198.208 127.305 C 197.882 126.917,197.382 126.275,197.097 125.878 C 196.811 125.480,196.448 125.286,196.288 125.445 M254.788 130.500 C 252.830 133.832,252.460 134.608,253.481 133.234 C 254.430 131.959,256.896 127.600,256.669 127.600 C 256.571 127.600,255.725 128.905,254.788 130.500 M144.477 130.734 C 145.730 132.945,147.422 135.461,147.076 134.600 C 146.741 133.764,143.501 128.400,143.331 128.400 C 143.234 128.400,143.749 129.450,144.477 130.734 M251.786 135.700 L 251.152 137.000 251.967 136.000 C 252.752 135.037,253.008 134.400,252.610 134.400 C 252.506 134.400,252.135 134.985,251.786 135.700 M147.209 135.500 C 147.214 135.665,147.585 136.250,148.033 136.800 L 148.848 137.800 148.214 136.500 C 147.611 135.265,147.189 134.845,147.209 135.500 M249.904 138.882 C 249.357 139.827,248.693 141.050,248.428 141.600 L 247.946 142.600 248.764 141.600 C 249.214 141.050,249.586 140.448,249.591 140.262 C 249.596 140.076,249.980 139.390,250.444 138.739 C 250.908 138.087,251.200 137.466,251.092 137.359 C 250.985 137.252,250.450 137.937,249.904 138.882 M150.077 140.334 C 151.330 142.545,153.022 145.061,152.676 144.200 C 152.341 143.364,149.101 138.000,148.931 138.000 C 148.834 138.000,149.349 139.050,150.077 140.334 M246.693 144.500 C 245.287 146.931,244.640 148.263,245.091 147.800 C 245.635 147.240,248.101 142.800,247.867 142.800 C 247.762 142.800,247.234 143.565,246.693 144.500 M152.809 145.100 C 152.814 145.265,153.185 145.850,153.633 146.400 L 154.448 147.400 153.814 146.100 C 153.211 144.865,152.789 144.445,152.809 145.100 M155.303 149.300 C 158.926 155.591,159.658 156.800,159.841 156.800 C 159.955 156.800,159.973 156.665,159.881 156.500 C 158.165 153.398,154.676 147.600,154.525 147.600 C 154.415 147.600,154.765 148.365,155.303 149.300 M242.788 151.300 C 240.830 154.632,240.460 155.408,241.481 154.034 C 242.430 152.759,244.896 148.400,244.669 148.400 C 244.571 148.400,243.725 149.705,242.788 151.300 M239.786 156.500 L 239.152 157.800 239.967 156.800 C 240.752 155.837,241.008 155.200,240.610 155.200 C 240.506 155.200,240.135 155.785,239.786 156.500 M161.200 159.400 C 161.926 160.720,162.702 161.980,162.925 162.200 C 163.148 162.420,162.741 161.520,162.021 160.200 C 161.301 158.880,160.525 157.620,160.296 157.400 C 160.067 157.180,160.474 158.080,161.200 159.400 M237.904 159.682 C 237.357 160.627,236.693 161.850,236.428 162.400 L 235.946 163.400 236.764 162.400 C 237.214 161.850,237.586 161.248,237.591 161.062 C 237.596 160.876,237.980 160.190,238.444 159.539 C 238.908 158.887,239.200 158.266,239.092 158.159 C 238.985 158.052,238.450 158.737,237.904 159.682 M163.724 163.800 C 164.062 164.460,164.638 165.360,165.004 165.800 C 165.370 166.240,165.265 165.880,164.770 165.000 C 163.680 163.058,162.864 162.122,163.724 163.800 M234.693 165.300 C 233.287 167.731,232.640 169.063,233.091 168.600 C 233.635 168.040,236.101 163.600,235.867 163.600 C 235.762 163.600,235.234 164.365,234.693 165.300 M165.609 167.020 C 165.614 167.229,165.970 167.850,166.400 168.400 C 166.830 168.950,167.190 169.580,167.200 169.800 C 167.210 170.020,167.592 170.650,168.050 171.200 C 168.582 171.839,168.419 171.334,167.597 169.800 C 166.248 167.280,165.594 166.365,165.609 167.020 M230.788 172.100 C 228.830 175.432,228.460 176.208,229.481 174.834 C 230.430 173.559,232.896 169.200,232.669 169.200 C 232.571 169.200,231.725 170.505,230.788 172.100 M170.077 174.734 C 171.330 176.945,173.022 179.461,172.676 178.600 C 172.341 177.764,169.101 172.400,168.931 172.400 C 168.834 172.400,169.349 173.450,170.077 174.734 M227.786 177.300 L 227.152 178.600 227.967 177.600 C 228.752 176.637,229.008 176.000,228.610 176.000 C 228.506 176.000,228.135 176.585,227.786 177.300 M225.904 180.482 C 225.357 181.427,224.693 182.650,224.428 183.200 L 223.946 184.200 224.764 183.200 C 225.214 182.650,225.586 182.048,225.591 181.862 C 225.596 181.676,225.980 180.990,226.444 180.339 C 226.908 179.687,227.200 179.066,227.092 178.959 C 226.985 178.852,226.450 179.537,225.904 180.482 M172.809 179.500 C 172.814 179.665,173.185 180.250,173.633 180.800 L 174.448 181.800 173.814 180.500 C 173.211 179.265,172.789 178.845,172.809 179.500 M175.677 184.334 C 176.930 186.545,178.622 189.061,178.276 188.200 C 177.941 187.364,174.701 182.000,174.531 182.000 C 174.434 182.000,174.949 183.050,175.677 184.334 M222.693 186.100 C 221.287 188.531,220.640 189.863,221.091 189.400 C 221.635 188.840,224.101 184.400,223.867 184.400 C 223.762 184.400,223.234 185.165,222.693 186.100 M178.409 189.100 C 178.414 189.265,178.785 189.850,179.233 190.400 L 180.048 191.400 179.414 190.100 C 178.811 188.865,178.389 188.445,178.409 189.100 M218.788 192.900 C 216.830 196.232,216.460 197.008,217.481 195.634 C 218.430 194.359,220.896 190.000,220.669 190.000 C 220.571 190.000,219.725 191.305,218.788 192.900 M180.903 193.300 C 184.542 199.619,185.260 200.800,185.457 200.800 C 185.579 200.800,185.280 200.125,184.793 199.300 C 184.306 198.475,183.103 196.405,182.119 194.700 C 181.135 192.995,180.239 191.600,180.127 191.600 C 180.015 191.600,180.365 192.365,180.903 193.300 M215.786 198.100 L 215.152 199.400 215.967 198.400 C 216.752 197.437,217.008 196.800,216.610 196.800 C 216.506 196.800,216.135 197.385,215.786 198.100 M213.904 201.282 C 213.357 202.227,212.693 203.450,212.428 204.000 L 211.946 205.000 212.764 204.000 C 213.214 203.450,213.586 202.848,213.591 202.662 C 213.596 202.476,213.980 201.790,214.444 201.139 C 214.908 200.487,215.200 199.866,215.092 199.759 C 214.985 199.652,214.450 200.337,213.904 201.282 M186.779 203.400 C 187.487 204.720,188.260 205.980,188.498 206.200 C 189.034 206.696,186.469 201.953,185.902 201.400 C 185.677 201.180,186.071 202.080,186.779 203.400 M210.693 206.900 C 209.287 209.331,208.640 210.663,209.091 210.200 C 209.635 209.640,212.101 205.200,211.867 205.200 C 211.762 205.200,211.234 205.965,210.693 206.900 M189.324 207.800 C 189.662 208.460,190.238 209.360,190.604 209.800 C 190.970 210.240,190.865 209.880,190.370 209.000 C 189.280 207.058,188.464 206.122,189.324 207.800 M191.209 211.020 C 191.214 211.229,191.570 211.850,192.000 212.400 C 192.430 212.950,192.790 213.580,192.800 213.800 C 192.810 214.020,193.192 214.650,193.650 215.200 C 194.182 215.839,194.019 215.334,193.197 213.800 C 191.848 211.280,191.194 210.365,191.209 211.020 M206.788 213.700 C 204.830 217.032,204.460 217.808,205.481 216.434 C 206.430 215.159,208.896 210.800,208.669 210.800 C 208.571 210.800,207.725 212.105,206.788 213.700 M195.677 218.734 C 196.930 220.945,198.622 223.461,198.276 222.600 C 197.941 221.764,194.701 216.400,194.531 216.400 C 194.434 216.400,194.949 217.450,195.677 218.734 M203.786 218.900 L 203.152 220.200 203.967 219.200 C 204.752 218.237,205.008 217.600,204.610 217.600 C 204.506 217.600,204.135 218.185,203.786 218.900 M201.534 222.762 C 200.016 225.525,199.907 225.591,199.249 224.148 C 198.986 223.570,198.672 223.194,198.553 223.314 C 198.219 223.647,199.657 225.648,200.120 225.493 C 200.344 225.419,200.828 224.798,201.194 224.115 C 201.561 223.431,202.177 222.390,202.562 221.801 C 202.948 221.212,203.175 220.641,203.066 220.532 C 202.957 220.424,202.267 221.427,201.534 222.762 " stroke="none" fill="#3c6e6c" fill-rule="evenodd"></path><path id="path3" d="M111.641 74.024 C 111.618 74.586,111.883 75.396,112.230 75.824 C 112.576 76.251,112.727 76.346,112.566 76.035 C 112.404 75.724,112.139 74.914,111.977 74.235 C 111.706 73.100,111.679 73.082,111.641 74.024 M114.200 79.200 C 114.541 79.860,114.911 80.400,115.021 80.400 C 115.131 80.400,114.941 79.860,114.600 79.200 C 114.259 78.540,113.889 78.000,113.779 78.000 C 113.669 78.000,113.859 78.540,114.200 79.200 M283.800 80.800 C 283.459 81.460,283.269 82.000,283.379 82.000 C 283.489 82.000,283.859 81.460,284.200 80.800 C 284.541 80.140,284.731 79.600,284.621 79.600 C 284.511 79.600,284.141 80.140,283.800 80.800 M282.200 83.600 C 281.859 84.260,281.669 84.800,281.779 84.800 C 281.889 84.800,282.259 84.260,282.600 83.600 C 282.941 82.940,283.131 82.400,283.021 82.400 C 282.911 82.400,282.541 82.940,282.200 83.600 M117.400 84.800 C 117.741 85.460,118.111 86.000,118.221 86.000 C 118.331 86.000,118.141 85.460,117.800 84.800 C 117.459 84.140,117.089 83.600,116.979 83.600 C 116.869 83.600,117.059 84.140,117.400 84.800 M280.600 86.400 C 280.259 87.060,280.069 87.600,280.179 87.600 C 280.289 87.600,280.659 87.060,281.000 86.400 C 281.341 85.740,281.531 85.200,281.421 85.200 C 281.311 85.200,280.941 85.740,280.600 86.400 M118.760 87.000 C 119.434 88.305,119.988 89.028,119.985 88.600 C 119.983 88.380,119.614 87.750,119.164 87.200 C 118.621 86.536,118.485 86.469,118.760 87.000 M279.000 89.200 C 278.659 89.860,278.469 90.400,278.579 90.400 C 278.689 90.400,279.059 89.860,279.400 89.200 C 279.741 88.540,279.931 88.000,279.821 88.000 C 279.711 88.000,279.341 88.540,279.000 89.200 M277.414 91.835 C 277.041 92.404,276.827 92.961,276.939 93.072 C 277.050 93.183,277.429 92.718,277.781 92.037 C 278.559 90.533,278.344 90.415,277.414 91.835 M123.000 94.400 C 123.341 95.060,123.711 95.600,123.821 95.600 C 123.931 95.600,123.741 95.060,123.400 94.400 C 123.059 93.740,122.689 93.200,122.579 93.200 C 122.469 93.200,122.659 93.740,123.000 94.400 M124.600 97.200 C 124.941 97.860,125.311 98.400,125.421 98.400 C 125.531 98.400,125.341 97.860,125.000 97.200 C 124.659 96.540,124.289 96.000,124.179 96.000 C 124.069 96.000,124.259 96.540,124.600 97.200 M271.800 101.600 C 271.459 102.260,271.269 102.800,271.379 102.800 C 271.489 102.800,271.859 102.260,272.200 101.600 C 272.541 100.940,272.731 100.400,272.621 100.400 C 272.511 100.400,272.141 100.940,271.800 101.600 M128.600 104.000 C 128.941 104.660,129.311 105.200,129.421 105.200 C 129.531 105.200,129.341 104.660,129.000 104.000 C 128.659 103.340,128.289 102.800,128.179 102.800 C 128.069 102.800,128.259 103.340,128.600 104.000 M270.200 104.400 C 269.859 105.060,269.669 105.600,269.779 105.600 C 269.889 105.600,270.259 105.060,270.600 104.400 C 270.941 103.740,271.131 103.200,271.021 103.200 C 270.911 103.200,270.541 103.740,270.200 104.400 M130.200 106.800 C 130.541 107.460,130.911 108.000,131.021 108.000 C 131.131 108.000,130.941 107.460,130.600 106.800 C 130.259 106.140,129.889 105.600,129.779 105.600 C 129.669 105.600,129.859 106.140,130.200 106.800 M268.600 107.200 C 268.259 107.860,268.069 108.400,268.179 108.400 C 268.289 108.400,268.659 107.860,269.000 107.200 C 269.341 106.540,269.531 106.000,269.421 106.000 C 269.311 106.000,268.941 106.540,268.600 107.200 M131.786 109.500 C 132.135 110.215,132.506 110.800,132.610 110.800 C 133.008 110.800,132.752 110.163,131.967 109.200 L 131.152 108.200 131.786 109.500 M267.000 110.000 C 266.659 110.660,266.469 111.200,266.579 111.200 C 266.689 111.200,267.059 110.660,267.400 110.000 C 267.741 109.340,267.931 108.800,267.821 108.800 C 267.711 108.800,267.341 109.340,267.000 110.000 M265.414 112.635 C 265.041 113.204,264.827 113.761,264.939 113.872 C 265.050 113.983,265.429 113.518,265.781 112.837 C 266.559 111.333,266.344 111.215,265.414 112.635 M134.200 113.600 C 134.541 114.260,134.911 114.800,135.021 114.800 C 135.131 114.800,134.941 114.260,134.600 113.600 C 134.259 112.940,133.889 112.400,133.779 112.400 C 133.669 112.400,133.859 112.940,134.200 113.600 M135.800 116.400 C 136.141 117.060,136.511 117.600,136.621 117.600 C 136.731 117.600,136.541 117.060,136.200 116.400 C 135.859 115.740,135.489 115.200,135.379 115.200 C 135.269 115.200,135.459 115.740,135.800 116.400 M137.400 119.200 C 137.741 119.860,138.111 120.400,138.221 120.400 C 138.331 120.400,138.141 119.860,137.800 119.200 C 137.459 118.540,137.089 118.000,136.979 118.000 C 136.869 118.000,137.059 118.540,137.400 119.200 M259.800 122.400 C 259.459 123.060,259.269 123.600,259.379 123.600 C 259.489 123.600,259.859 123.060,260.200 122.400 C 260.541 121.740,260.731 121.200,260.621 121.200 C 260.511 121.200,260.141 121.740,259.800 122.400 M258.200 125.200 C 257.859 125.860,257.669 126.400,257.779 126.400 C 257.889 126.400,258.259 125.860,258.600 125.200 C 258.941 124.540,259.131 124.000,259.021 124.000 C 258.911 124.000,258.541 124.540,258.200 125.200 M256.600 128.000 C 256.259 128.660,256.069 129.200,256.179 129.200 C 256.289 129.200,256.659 128.660,257.000 128.000 C 257.341 127.340,257.531 126.800,257.421 126.800 C 257.311 126.800,256.941 127.340,256.600 128.000 M143.000 128.800 C 143.341 129.460,143.711 130.000,143.821 130.000 C 143.931 130.000,143.741 129.460,143.400 128.800 C 143.059 128.140,142.689 127.600,142.579 127.600 C 142.469 127.600,142.659 128.140,143.000 128.800 M255.000 130.800 C 254.659 131.460,254.469 132.000,254.579 132.000 C 254.689 132.000,255.059 131.460,255.400 130.800 C 255.741 130.140,255.931 129.600,255.821 129.600 C 255.711 129.600,255.341 130.140,255.000 130.800 M144.600 131.600 C 144.941 132.260,145.311 132.800,145.421 132.800 C 145.531 132.800,145.341 132.260,145.000 131.600 C 144.659 130.940,144.289 130.400,144.179 130.400 C 144.069 130.400,144.259 130.940,144.600 131.600 M253.414 133.435 C 253.041 134.004,252.827 134.561,252.939 134.672 C 253.050 134.783,253.429 134.318,253.781 133.637 C 254.559 132.133,254.344 132.015,253.414 133.435 M148.600 138.400 C 148.941 139.060,149.311 139.600,149.421 139.600 C 149.531 139.600,149.341 139.060,149.000 138.400 C 148.659 137.740,148.289 137.200,148.179 137.200 C 148.069 137.200,148.259 137.740,148.600 138.400 M150.200 141.200 C 150.541 141.860,150.911 142.400,151.021 142.400 C 151.131 142.400,150.941 141.860,150.600 141.200 C 150.259 140.540,149.889 140.000,149.779 140.000 C 149.669 140.000,149.859 140.540,150.200 141.200 M247.800 143.200 C 247.459 143.860,247.269 144.400,247.379 144.400 C 247.489 144.400,247.859 143.860,248.200 143.200 C 248.541 142.540,248.731 142.000,248.621 142.000 C 248.511 142.000,248.141 142.540,247.800 143.200 M151.786 143.900 C 152.135 144.615,152.506 145.200,152.610 145.200 C 153.008 145.200,152.752 144.563,151.967 143.600 L 151.152 142.600 151.786 143.900 M246.200 146.000 C 245.859 146.660,245.669 147.200,245.779 147.200 C 245.889 147.200,246.259 146.660,246.600 146.000 C 246.941 145.340,247.131 144.800,247.021 144.800 C 246.911 144.800,246.541 145.340,246.200 146.000 M154.200 148.000 C 154.541 148.660,154.911 149.200,155.021 149.200 C 155.131 149.200,154.941 148.660,154.600 148.000 C 154.259 147.340,153.889 146.800,153.779 146.800 C 153.669 146.800,153.859 147.340,154.200 148.000 M244.600 148.800 C 244.259 149.460,244.069 150.000,244.179 150.000 C 244.289 150.000,244.659 149.460,245.000 148.800 C 245.341 148.140,245.531 147.600,245.421 147.600 C 245.311 147.600,244.941 148.140,244.600 148.800 M155.800 150.800 C 156.141 151.460,156.511 152.000,156.621 152.000 C 156.731 152.000,156.541 151.460,156.200 150.800 C 155.859 150.140,155.489 149.600,155.379 149.600 C 155.269 149.600,155.459 150.140,155.800 150.800 M243.000 151.600 C 242.659 152.260,242.469 152.800,242.579 152.800 C 242.689 152.800,243.059 152.260,243.400 151.600 C 243.741 150.940,243.931 150.400,243.821 150.400 C 243.711 150.400,243.341 150.940,243.000 151.600 M157.400 153.600 C 157.741 154.260,158.111 154.800,158.221 154.800 C 158.331 154.800,158.141 154.260,157.800 153.600 C 157.459 152.940,157.089 152.400,156.979 152.400 C 156.869 152.400,157.059 152.940,157.400 153.600 M241.414 154.235 C 241.041 154.804,240.827 155.361,240.939 155.472 C 241.050 155.583,241.429 155.118,241.781 154.437 C 242.559 152.933,242.344 152.815,241.414 154.235 M159.800 157.600 C 160.141 158.260,160.511 158.800,160.621 158.800 C 160.731 158.800,160.541 158.260,160.200 157.600 C 159.859 156.940,159.489 156.400,159.379 156.400 C 159.269 156.400,159.459 156.940,159.800 157.600 M161.400 160.400 C 161.741 161.060,162.111 161.600,162.221 161.600 C 162.331 161.600,162.141 161.060,161.800 160.400 C 161.459 159.740,161.089 159.200,160.979 159.200 C 160.869 159.200,161.059 159.740,161.400 160.400 M163.000 163.200 C 163.341 163.860,163.711 164.400,163.821 164.400 C 163.931 164.400,163.741 163.860,163.400 163.200 C 163.059 162.540,162.689 162.000,162.579 162.000 C 162.469 162.000,162.659 162.540,163.000 163.200 M235.800 164.000 C 235.459 164.660,235.269 165.200,235.379 165.200 C 235.489 165.200,235.859 164.660,236.200 164.000 C 236.541 163.340,236.731 162.800,236.621 162.800 C 236.511 162.800,236.141 163.340,235.800 164.000 M164.360 165.400 C 165.034 166.705,165.588 167.428,165.585 167.000 C 165.583 166.780,165.214 166.150,164.764 165.600 C 164.221 164.936,164.085 164.869,164.360 165.400 M234.200 166.800 C 233.859 167.460,233.669 168.000,233.779 168.000 C 233.889 168.000,234.259 167.460,234.600 166.800 C 234.941 166.140,235.131 165.600,235.021 165.600 C 234.911 165.600,234.541 166.140,234.200 166.800 M232.600 169.600 C 232.259 170.260,232.069 170.800,232.179 170.800 C 232.289 170.800,232.659 170.260,233.000 169.600 C 233.341 168.940,233.531 168.400,233.421 168.400 C 233.311 168.400,232.941 168.940,232.600 169.600 M231.000 172.400 C 230.659 173.060,230.469 173.600,230.579 173.600 C 230.689 173.600,231.059 173.060,231.400 172.400 C 231.741 171.740,231.931 171.200,231.821 171.200 C 231.711 171.200,231.341 171.740,231.000 172.400 M168.600 172.800 C 168.941 173.460,169.311 174.000,169.421 174.000 C 169.531 174.000,169.341 173.460,169.000 172.800 C 168.659 172.140,168.289 171.600,168.179 171.600 C 168.069 171.600,168.259 172.140,168.600 172.800 M229.414 175.035 C 229.041 175.604,228.827 176.161,228.939 176.272 C 229.050 176.383,229.429 175.918,229.781 175.237 C 230.559 173.733,230.344 173.615,229.414 175.035 M170.200 175.600 C 170.541 176.260,170.911 176.800,171.021 176.800 C 171.131 176.800,170.941 176.260,170.600 175.600 C 170.259 174.940,169.889 174.400,169.779 174.400 C 169.669 174.400,169.859 174.940,170.200 175.600 M174.200 182.400 C 174.541 183.060,174.911 183.600,175.021 183.600 C 175.131 183.600,174.941 183.060,174.600 182.400 C 174.259 181.740,173.889 181.200,173.779 181.200 C 173.669 181.200,173.859 181.740,174.200 182.400 M223.800 184.800 C 223.459 185.460,223.269 186.000,223.379 186.000 C 223.489 186.000,223.859 185.460,224.200 184.800 C 224.541 184.140,224.731 183.600,224.621 183.600 C 224.511 183.600,224.141 184.140,223.800 184.800 M175.800 185.200 C 176.141 185.860,176.511 186.400,176.621 186.400 C 176.731 186.400,176.541 185.860,176.200 185.200 C 175.859 184.540,175.489 184.000,175.379 184.000 C 175.269 184.000,175.459 184.540,175.800 185.200 M222.200 187.600 C 221.859 188.260,221.669 188.800,221.779 188.800 C 221.889 188.800,222.259 188.260,222.600 187.600 C 222.941 186.940,223.131 186.400,223.021 186.400 C 222.911 186.400,222.541 186.940,222.200 187.600 M177.386 187.900 C 177.735 188.615,178.106 189.200,178.210 189.200 C 178.608 189.200,178.352 188.563,177.567 187.600 L 176.752 186.600 177.386 187.900 M220.600 190.400 C 220.259 191.060,220.069 191.600,220.179 191.600 C 220.289 191.600,220.659 191.060,221.000 190.400 C 221.341 189.740,221.531 189.200,221.421 189.200 C 221.311 189.200,220.941 189.740,220.600 190.400 M179.800 192.000 C 180.141 192.660,180.511 193.200,180.621 193.200 C 180.731 193.200,180.541 192.660,180.200 192.000 C 179.859 191.340,179.489 190.800,179.379 190.800 C 179.269 190.800,179.459 191.340,179.800 192.000 M219.000 193.200 C 218.659 193.860,218.469 194.400,218.579 194.400 C 218.689 194.400,219.059 193.860,219.400 193.200 C 219.741 192.540,219.931 192.000,219.821 192.000 C 219.711 192.000,219.341 192.540,219.000 193.200 M181.400 194.800 C 181.741 195.460,182.111 196.000,182.221 196.000 C 182.331 196.000,182.141 195.460,181.800 194.800 C 181.459 194.140,181.089 193.600,180.979 193.600 C 180.869 193.600,181.059 194.140,181.400 194.800 M217.414 195.835 C 217.041 196.404,216.827 196.961,216.939 197.072 C 217.050 197.183,217.429 196.718,217.781 196.037 C 218.559 194.533,218.344 194.415,217.414 195.835 M183.000 197.600 C 183.341 198.260,183.711 198.800,183.821 198.800 C 183.931 198.800,183.741 198.260,183.400 197.600 C 183.059 196.940,182.689 196.400,182.579 196.400 C 182.469 196.400,182.659 196.940,183.000 197.600 M185.400 201.600 C 185.741 202.260,186.111 202.800,186.221 202.800 C 186.331 202.800,186.141 202.260,185.800 201.600 C 185.459 200.940,185.089 200.400,184.979 200.400 C 184.869 200.400,185.059 200.940,185.400 201.600 M211.800 205.600 C 211.459 206.260,211.269 206.800,211.379 206.800 C 211.489 206.800,211.859 206.260,212.200 205.600 C 212.541 204.940,212.731 204.400,212.621 204.400 C 212.511 204.400,212.141 204.940,211.800 205.600 M188.600 207.200 C 188.941 207.860,189.311 208.400,189.421 208.400 C 189.531 208.400,189.341 207.860,189.000 207.200 C 188.659 206.540,188.289 206.000,188.179 206.000 C 188.069 206.000,188.259 206.540,188.600 207.200 M210.200 208.400 C 209.859 209.060,209.669 209.600,209.779 209.600 C 209.889 209.600,210.259 209.060,210.600 208.400 C 210.941 207.740,211.131 207.200,211.021 207.200 C 210.911 207.200,210.541 207.740,210.200 208.400 M189.960 209.400 C 190.634 210.705,191.188 211.428,191.185 211.000 C 191.183 210.780,190.814 210.150,190.364 209.600 C 189.821 208.936,189.685 208.869,189.960 209.400 M208.600 211.200 C 208.259 211.860,208.069 212.400,208.179 212.400 C 208.289 212.400,208.659 211.860,209.000 211.200 C 209.341 210.540,209.531 210.000,209.421 210.000 C 209.311 210.000,208.941 210.540,208.600 211.200 M207.000 214.000 C 206.659 214.660,206.469 215.200,206.579 215.200 C 206.689 215.200,207.059 214.660,207.400 214.000 C 207.741 213.340,207.931 212.800,207.821 212.800 C 207.711 212.800,207.341 213.340,207.000 214.000 M194.200 216.800 C 194.541 217.460,194.911 218.000,195.021 218.000 C 195.131 218.000,194.941 217.460,194.600 216.800 C 194.259 216.140,193.889 215.600,193.779 215.600 C 193.669 215.600,193.859 216.140,194.200 216.800 M205.414 216.635 C 205.041 217.204,204.827 217.761,204.939 217.872 C 205.050 217.983,205.429 217.518,205.781 216.837 C 206.559 215.333,206.344 215.215,205.414 216.635 M195.800 219.600 C 196.141 220.260,196.511 220.800,196.621 220.800 C 196.731 220.800,196.541 220.260,196.200 219.600 C 195.859 218.940,195.489 218.400,195.379 218.400 C 195.269 218.400,195.459 218.940,195.800 219.600 " stroke="none" fill="#3c8a74" fill-rule="evenodd"></path><path id="path4" d="M110.800 73.638 C 110.800 74.064,112.955 78.197,113.596 79.000 C 113.771 79.220,114.294 80.075,114.757 80.900 C 115.221 81.725,115.960 83.030,116.400 83.800 C 116.840 84.570,117.579 85.875,118.043 86.700 C 118.506 87.525,119.027 88.380,119.200 88.600 C 119.373 88.820,119.894 89.675,120.357 90.500 C 120.821 91.325,121.560 92.630,122.000 93.400 C 122.440 94.170,123.181 95.475,123.647 96.300 C 124.113 97.125,124.794 98.250,125.161 98.800 C 125.528 99.350,126.086 100.340,126.400 101.000 C 126.714 101.660,127.272 102.650,127.639 103.200 C 128.006 103.750,128.687 104.875,129.153 105.700 C 129.619 106.525,130.360 107.830,130.800 108.600 C 131.240 109.370,131.979 110.675,132.443 111.500 C 132.906 112.325,133.427 113.180,133.600 113.400 C 133.773 113.620,134.294 114.475,134.757 115.300 C 135.221 116.125,135.960 117.430,136.400 118.200 C 136.840 118.970,137.579 120.275,138.043 121.100 C 138.506 121.925,139.027 122.780,139.200 123.000 C 139.373 123.220,139.894 124.075,140.357 124.900 C 140.821 125.725,141.560 127.030,142.000 127.800 C 142.440 128.570,143.179 129.875,143.643 130.700 C 144.106 131.525,144.627 132.380,144.800 132.600 C 144.973 132.820,145.494 133.675,145.957 134.500 C 146.421 135.325,147.160 136.630,147.600 137.400 C 148.040 138.170,148.760 139.430,149.200 140.200 C 149.640 140.970,150.360 142.230,150.800 143.000 C 151.240 143.770,151.979 145.075,152.443 145.900 C 152.906 146.725,153.427 147.580,153.600 147.800 C 153.773 148.020,154.294 148.875,154.757 149.700 C 155.221 150.525,155.960 151.830,156.400 152.600 C 156.840 153.370,157.579 154.675,158.043 155.500 C 158.506 156.325,159.027 157.180,159.200 157.400 C 159.373 157.620,159.894 158.475,160.357 159.300 C 160.821 160.125,161.560 161.430,162.000 162.200 C 162.440 162.970,163.179 164.275,163.643 165.100 C 164.106 165.925,164.627 166.780,164.800 167.000 C 164.973 167.220,165.494 168.075,165.957 168.900 C 166.421 169.725,167.160 171.030,167.600 171.800 C 168.040 172.570,168.779 173.875,169.243 174.700 C 169.706 175.525,170.227 176.380,170.400 176.600 C 170.573 176.820,171.094 177.675,171.557 178.500 C 172.021 179.325,172.760 180.630,173.200 181.400 C 173.640 182.170,174.360 183.430,174.800 184.200 C 175.240 184.970,175.960 186.230,176.400 187.000 C 176.840 187.770,177.579 189.075,178.043 189.900 C 178.506 190.725,179.027 191.580,179.200 191.800 C 179.373 192.020,179.894 192.875,180.357 193.700 C 180.821 194.525,181.560 195.830,182.000 196.600 C 182.440 197.370,183.179 198.675,183.643 199.500 C 184.106 200.325,184.627 201.180,184.800 201.400 C 184.973 201.620,185.494 202.475,185.957 203.300 C 186.421 204.125,187.160 205.430,187.600 206.200 C 188.040 206.970,188.779 208.275,189.243 209.100 C 189.706 209.925,190.227 210.780,190.400 211.000 C 190.573 211.220,191.094 212.075,191.557 212.900 C 192.021 213.725,192.760 215.030,193.200 215.800 C 193.640 216.570,194.379 217.875,194.843 218.700 C 195.306 219.525,195.827 220.380,196.000 220.600 C 196.362 221.060,197.865 223.682,198.695 225.300 C 199.005 225.905,199.592 226.400,200.000 226.400 C 200.408 226.400,200.995 225.905,201.305 225.300 C 202.135 223.682,203.638 221.060,204.000 220.600 C 204.173 220.380,204.694 219.525,205.157 218.700 C 205.621 217.875,206.360 216.570,206.800 215.800 C 207.240 215.030,207.960 213.770,208.400 213.000 C 208.840 212.230,209.560 210.970,210.000 210.200 C 210.440 209.430,211.160 208.170,211.600 207.400 C 212.040 206.630,212.760 205.370,213.200 204.600 C 213.640 203.830,214.379 202.525,214.843 201.700 C 215.306 200.875,215.827 200.020,216.000 199.800 C 216.173 199.580,216.694 198.725,217.157 197.900 C 217.621 197.075,218.360 195.770,218.800 195.000 C 219.240 194.230,219.960 192.970,220.400 192.200 C 220.840 191.430,221.560 190.170,222.000 189.400 C 222.440 188.630,223.160 187.370,223.600 186.600 C 224.040 185.830,224.760 184.570,225.200 183.800 C 225.640 183.030,226.379 181.725,226.843 180.900 C 227.306 180.075,227.827 179.220,228.000 179.000 C 228.173 178.780,228.694 177.925,229.157 177.100 C 229.621 176.275,230.360 174.970,230.800 174.200 C 231.240 173.430,231.960 172.170,232.400 171.400 C 232.840 170.630,233.560 169.370,234.000 168.600 C 234.440 167.830,235.160 166.570,235.600 165.800 C 236.040 165.030,236.760 163.770,237.200 163.000 C 237.640 162.230,238.379 160.925,238.843 160.100 C 239.306 159.275,239.827 158.420,240.000 158.200 C 240.173 157.980,240.694 157.125,241.157 156.300 C 241.621 155.475,242.360 154.170,242.800 153.400 C 243.240 152.630,243.960 151.370,244.400 150.600 C 244.840 149.830,245.560 148.570,246.000 147.800 C 246.440 147.030,247.160 145.770,247.600 145.000 C 248.040 144.230,248.760 142.970,249.200 142.200 C 249.640 141.430,250.379 140.125,250.843 139.300 C 251.306 138.475,251.827 137.620,252.000 137.400 C 252.173 137.180,252.694 136.325,253.157 135.500 C 253.621 134.675,254.360 133.370,254.800 132.600 C 255.240 131.830,255.960 130.570,256.400 129.800 C 256.840 129.030,257.560 127.770,258.000 127.000 C 258.440 126.230,259.160 124.970,259.600 124.200 C 260.040 123.430,260.760 122.170,261.200 121.400 C 261.640 120.630,262.379 119.325,262.843 118.500 C 263.306 117.675,263.827 116.820,264.000 116.600 C 264.173 116.380,264.694 115.525,265.157 114.700 C 265.621 113.875,266.360 112.570,266.800 111.800 C 267.240 111.030,267.960 109.770,268.400 109.000 C 268.840 108.230,269.560 106.970,270.000 106.200 C 270.440 105.430,271.160 104.170,271.600 103.400 C 272.040 102.630,272.760 101.370,273.200 100.600 C 273.640 99.830,274.379 98.525,274.843 97.700 C 275.306 96.875,275.827 96.020,276.000 95.800 C 276.173 95.580,276.694 94.725,277.157 93.900 C 277.621 93.075,278.360 91.770,278.800 91.000 C 279.240 90.230,279.960 88.970,280.400 88.200 C 280.840 87.430,281.560 86.170,282.000 85.400 C 282.440 84.630,283.160 83.370,283.600 82.600 C 284.040 81.830,284.787 80.525,285.259 79.700 C 288.451 74.126,288.841 73.200,288.000 73.200 C 287.780 73.200,287.600 73.564,287.600 74.009 C 287.600 74.769,285.456 78.597,270.742 104.100 C 267.474 109.765,262.100 119.080,258.800 124.800 C 255.500 130.520,250.074 139.925,246.743 145.700 C 239.031 159.068,230.309 174.187,222.743 187.300 C 219.474 192.965,214.127 202.235,210.861 207.900 C 198.549 229.252,200.187 227.401,197.681 222.800 C 197.261 222.030,195.241 218.520,193.191 215.000 C 191.142 211.480,188.235 206.485,186.732 203.900 C 185.230 201.315,182.740 197.040,181.200 194.400 C 179.660 191.760,177.118 187.395,175.550 184.700 C 173.983 182.005,172.385 179.260,172.000 178.600 C 171.615 177.940,170.047 175.240,168.517 172.600 C 165.990 168.239,163.978 164.783,155.539 150.300 C 154.032 147.715,151.518 143.395,149.950 140.700 C 148.383 138.005,146.785 135.260,146.399 134.600 C 146.013 133.940,144.082 130.610,142.107 127.200 C 140.132 123.790,137.230 118.795,135.658 116.100 C 134.086 113.405,131.518 108.995,129.950 106.300 C 126.364 100.133,126.149 99.765,123.600 95.400 C 122.444 93.420,121.187 91.260,120.808 90.600 C 116.786 83.595,112.637 76.502,112.174 75.841 C 111.858 75.391,111.600 74.612,111.600 74.111 C 111.600 73.610,111.420 73.200,111.200 73.200 C 110.980 73.200,110.800 73.397,110.800 73.638 M198.963 326.090 C 199.020 326.370,199.487 326.600,200.000 326.600 C 200.513 326.600,200.980 326.370,201.037 326.090 C 201.094 325.810,201.049 325.764,200.937 325.990 C 200.825 326.216,200.403 326.400,200.000 326.400 C 199.597 326.400,199.175 326.216,199.063 325.990 C 198.952 325.764,198.907 325.810,198.963 326.090 " stroke="none" fill="#3ca87c" fill-rule="evenodd"></path></g></svg>