<?xml version="1.0" standalone="no"?>
<!DOCTYPE svg PUBLIC "-//W3C//DTD SVG 20010904//EN"
 "http://www.w3.org/TR/2001/REC-SVG-20010904/DTD/svg10.dtd">
<svg version="1.0" xmlns="http://www.w3.org/2000/svg"
 width="192.000000pt" height="192.000000pt" viewBox="0 0 192.000000 192.000000"
 preserveAspectRatio="xMidYMid meet">
<metadata>
Created by potrace 1.15, written by Peter Selinger 2001-2017
</metadata>
<g transform="translate(0.000000,192.000000) scale(0.100000,-0.100000)"
fill="#000000" stroke="none">
<path d="M0 960 l0 -960 960 0 960 0 0 960 0 960 -960 0 -960 0 0 -960z m1188
33 l-3 -88 -127 -3 -128 -3 0 -389 0 -390 -100 0 -100 0 -2 387 -3 388 -122 3
-123 3 0 89 0 90 355 0 356 0 -3 -87z m527 69 l50 -17 3 -84 c2 -46 1 -90 -2
-97 -4 -10 -19 -7 -62 13 -66 30 -165 41 -217 24 -40 -13 -77 -53 -77 -82 0
-36 54 -81 162 -135 182 -91 228 -150 228 -289 0 -93 -21 -147 -78 -196 -67
-59 -113 -73 -257 -76 -115 -3 -138 -1 -195 19 l-65 23 -3 109 -3 108 33 -22
c77 -51 120 -65 204 -65 93 0 127 13 145 58 11 26 10 35 -7 66 -16 30 -38 46
-131 92 -61 31 -129 70 -151 88 -93 73 -121 222 -64 332 31 61 94 110 171 133
67 21 252 20 316 -2z"/>
</g>
</svg>
